M48
; DRILL file {KiCad (5.1.4)-1} date 9/2/2020 10:31:24 AM
; FORMAT={2:4/ absolute / inch / suppress leading zeros}
; #@! TF.CreationDate,2020-09-02T10:31:24-07:00
; #@! TF.GenerationSoftware,Kicad,Pcbnew,(5.1.4)-1
FMAT,2
INCH,TZ
T1C0.0118
T2C0.0240
T3C0.0650
%
G90
G05
T1
X-8750Y750
X-8750Y0
X-8750Y-750
X-8500Y2250
X-8500Y-2250
X-7835Y276
X-7795Y1693
X-7795Y-276
X-7795Y-1693
X-7500Y2250
X-7500Y0
X-7500Y-2250
X-7205Y276
X-7165Y1693
X-7165Y-276
X-7165Y-1693
X-6500Y2250
X-6500Y0
X-6500Y-2250
X-5827Y276
X-5787Y1732
X-5787Y-276
X-5787Y-1693
X-5500Y2250
X-5500Y0
X-5500Y-2250
X-5197Y1732
X-5197Y276
X-5157Y-276
X-5157Y-1693
X-4500Y2250
X-4500Y-2250
X-4319Y-1142
X-4008Y-1142
X-3836Y926
X-3250Y-2250
X-2000Y2250
X-2000Y-2250
X-1750Y0
X-1299Y1693
X-1299Y-1693
X-1000Y2250
X-1000Y-2250
X-669Y1693
X-669Y-1693
X0Y2250
X0Y-2250
X709Y1732
X709Y-1693
X1000Y2250
X1000Y-2250
X1299Y1732
X1339Y-1693
X2000Y2250
X2000Y-2250
X2100Y-650
X2250Y1250
X2876Y1456
X3250Y2250
X3851Y-934
X4150Y310
X4500Y2250
X4500Y-2250
X5197Y1732
X5197Y276
X5197Y-276
X5197Y-1693
X5500Y2250
X5500Y0
X5500Y-2250
X5827Y1732
X5827Y276
X5827Y-276
X5827Y-1693
X6500Y2250
X6500Y0
X6500Y-2250
X7205Y1732
X7205Y276
X7205Y-276
X7205Y-1693
X7500Y2250
X7500Y0
X7500Y-2250
X7835Y1732
X7835Y276
X7835Y-276
X7835Y-1693
X8500Y2250
X8500Y-2250
X8750Y750
X8750Y0
X8750Y-750
T2
X3000Y750
X3000Y250
X3000Y-250
X3000Y-750
X3500Y750
X3500Y250
X3500Y-250
X3500Y-750
X-3500Y750
X-3500Y250
X-3500Y-250
X-3500Y-750
X-3000Y750
X-3000Y250
X-3000Y-250
X-3000Y-750
T3
X3250Y-1950
X-3250Y1950
X-9375Y2050
X9375Y2050
X-9375Y-2050
X9375Y-2050
T0
M30
