G04 #@! TF.GenerationSoftware,KiCad,Pcbnew,(5.1.4)-1*
G04 #@! TF.CreationDate,2020-06-09T22:28:14-07:00*
G04 #@! TF.ProjectId,SkateLightMainBoard,536b6174-654c-4696-9768-744d61696e42,rev?*
G04 #@! TF.SameCoordinates,Original*
G04 #@! TF.FileFunction,Soldermask,Bot*
G04 #@! TF.FilePolarity,Negative*
%FSLAX46Y46*%
G04 Gerber Fmt 4.6, Leading zero omitted, Abs format (unit mm)*
G04 Created by KiCad (PCBNEW (5.1.4)-1) date 2020-06-09 22:28:14*
%MOMM*%
%LPD*%
G04 APERTURE LIST*
%ADD10C,0.100000*%
G04 APERTURE END LIST*
D10*
G36*
X-4281949Y-33075480D02*
G01*
X-4231080Y-33096551D01*
X-4180214Y-33117620D01*
X-4088658Y-33178796D01*
X-4010796Y-33256658D01*
X-3949620Y-33348214D01*
X-3925484Y-33406485D01*
X-3913932Y-33428095D01*
X-3898387Y-33447037D01*
X-3879445Y-33462582D01*
X-3857834Y-33474133D01*
X-3834385Y-33481246D01*
X-3809999Y-33483648D01*
X-3785613Y-33481246D01*
X-3762164Y-33474133D01*
X-3740554Y-33462581D01*
X-3721612Y-33447036D01*
X-3706067Y-33428094D01*
X-3694516Y-33406485D01*
X-3670380Y-33348214D01*
X-3609204Y-33256658D01*
X-3531342Y-33178796D01*
X-3439786Y-33117620D01*
X-3388920Y-33096551D01*
X-3338051Y-33075480D01*
X-3230059Y-33054000D01*
X-3119941Y-33054000D01*
X-3011949Y-33075480D01*
X-2961080Y-33096551D01*
X-2910214Y-33117620D01*
X-2818658Y-33178796D01*
X-2740796Y-33256658D01*
X-2679620Y-33348214D01*
X-2655484Y-33406485D01*
X-2643932Y-33428095D01*
X-2628387Y-33447037D01*
X-2609445Y-33462582D01*
X-2587834Y-33474133D01*
X-2564385Y-33481246D01*
X-2539999Y-33483648D01*
X-2515613Y-33481246D01*
X-2492164Y-33474133D01*
X-2470554Y-33462581D01*
X-2451612Y-33447036D01*
X-2436067Y-33428094D01*
X-2424516Y-33406485D01*
X-2400380Y-33348214D01*
X-2339204Y-33256658D01*
X-2261342Y-33178796D01*
X-2169786Y-33117620D01*
X-2118920Y-33096551D01*
X-2068051Y-33075480D01*
X-1960059Y-33054000D01*
X-1849941Y-33054000D01*
X-1741949Y-33075480D01*
X-1691080Y-33096551D01*
X-1640214Y-33117620D01*
X-1548658Y-33178796D01*
X-1470796Y-33256658D01*
X-1409620Y-33348214D01*
X-1385484Y-33406485D01*
X-1373932Y-33428095D01*
X-1358387Y-33447037D01*
X-1339445Y-33462582D01*
X-1317834Y-33474133D01*
X-1294385Y-33481246D01*
X-1269999Y-33483648D01*
X-1245613Y-33481246D01*
X-1222164Y-33474133D01*
X-1200554Y-33462581D01*
X-1181612Y-33447036D01*
X-1166067Y-33428094D01*
X-1154516Y-33406485D01*
X-1130380Y-33348214D01*
X-1069204Y-33256658D01*
X-991342Y-33178796D01*
X-899786Y-33117620D01*
X-848920Y-33096551D01*
X-798051Y-33075480D01*
X-690059Y-33054000D01*
X-579941Y-33054000D01*
X-471949Y-33075480D01*
X-421080Y-33096551D01*
X-370214Y-33117620D01*
X-278658Y-33178796D01*
X-200796Y-33256658D01*
X-139620Y-33348214D01*
X-115484Y-33406485D01*
X-103932Y-33428095D01*
X-88387Y-33447037D01*
X-69445Y-33462582D01*
X-47834Y-33474133D01*
X-24385Y-33481246D01*
X1Y-33483648D01*
X24387Y-33481246D01*
X47836Y-33474133D01*
X69446Y-33462581D01*
X88388Y-33447036D01*
X103933Y-33428094D01*
X115484Y-33406485D01*
X139620Y-33348214D01*
X200796Y-33256658D01*
X278658Y-33178796D01*
X370214Y-33117620D01*
X421080Y-33096551D01*
X471949Y-33075480D01*
X579941Y-33054000D01*
X690059Y-33054000D01*
X798051Y-33075480D01*
X848920Y-33096551D01*
X899786Y-33117620D01*
X991342Y-33178796D01*
X1069204Y-33256658D01*
X1130380Y-33348214D01*
X1154516Y-33406485D01*
X1166068Y-33428095D01*
X1181613Y-33447037D01*
X1200555Y-33462582D01*
X1222166Y-33474133D01*
X1245615Y-33481246D01*
X1270001Y-33483648D01*
X1294387Y-33481246D01*
X1317836Y-33474133D01*
X1339446Y-33462581D01*
X1358388Y-33447036D01*
X1373933Y-33428094D01*
X1385484Y-33406485D01*
X1409620Y-33348214D01*
X1470796Y-33256658D01*
X1548658Y-33178796D01*
X1640214Y-33117620D01*
X1691080Y-33096551D01*
X1741949Y-33075480D01*
X1849941Y-33054000D01*
X1960059Y-33054000D01*
X2068051Y-33075480D01*
X2118920Y-33096551D01*
X2169786Y-33117620D01*
X2261342Y-33178796D01*
X2339204Y-33256658D01*
X2400380Y-33348214D01*
X2424516Y-33406485D01*
X2436068Y-33428095D01*
X2451613Y-33447037D01*
X2470555Y-33462582D01*
X2492166Y-33474133D01*
X2515615Y-33481246D01*
X2540001Y-33483648D01*
X2564387Y-33481246D01*
X2587836Y-33474133D01*
X2609446Y-33462581D01*
X2628388Y-33447036D01*
X2643933Y-33428094D01*
X2655484Y-33406485D01*
X2679620Y-33348214D01*
X2740796Y-33256658D01*
X2818658Y-33178796D01*
X2910214Y-33117620D01*
X2961080Y-33096551D01*
X3011949Y-33075480D01*
X3119941Y-33054000D01*
X3230059Y-33054000D01*
X3338051Y-33075480D01*
X3388920Y-33096551D01*
X3439786Y-33117620D01*
X3531342Y-33178796D01*
X3609204Y-33256658D01*
X3670380Y-33348214D01*
X3694516Y-33406485D01*
X3706068Y-33428095D01*
X3721613Y-33447037D01*
X3740555Y-33462582D01*
X3762166Y-33474133D01*
X3785615Y-33481246D01*
X3810001Y-33483648D01*
X3834387Y-33481246D01*
X3857836Y-33474133D01*
X3879446Y-33462581D01*
X3898388Y-33447036D01*
X3913933Y-33428094D01*
X3925484Y-33406485D01*
X3949620Y-33348214D01*
X4010796Y-33256658D01*
X4088658Y-33178796D01*
X4180214Y-33117620D01*
X4231080Y-33096551D01*
X4281949Y-33075480D01*
X4389941Y-33054000D01*
X4500059Y-33054000D01*
X4608051Y-33075480D01*
X4658920Y-33096551D01*
X4709786Y-33117620D01*
X4801342Y-33178796D01*
X4879204Y-33256658D01*
X4940380Y-33348214D01*
X4961449Y-33399080D01*
X4982520Y-33449949D01*
X5004000Y-33557941D01*
X5004000Y-33668059D01*
X4982520Y-33776051D01*
X4973467Y-33797906D01*
X4940380Y-33877786D01*
X4879204Y-33969342D01*
X4801342Y-34047204D01*
X4709786Y-34108380D01*
X4651515Y-34132516D01*
X4629905Y-34144068D01*
X4610963Y-34159613D01*
X4595418Y-34178555D01*
X4583867Y-34200166D01*
X4576754Y-34223615D01*
X4574352Y-34248001D01*
X4576754Y-34272387D01*
X4583867Y-34295836D01*
X4595419Y-34317446D01*
X4610964Y-34336388D01*
X4629906Y-34351933D01*
X4651513Y-34363483D01*
X4709786Y-34387620D01*
X4801342Y-34448796D01*
X4879204Y-34526658D01*
X4940380Y-34618214D01*
X4961449Y-34669080D01*
X4982520Y-34719949D01*
X5004000Y-34827941D01*
X5004000Y-34938059D01*
X4982520Y-35046051D01*
X4973467Y-35067906D01*
X4940380Y-35147786D01*
X4879204Y-35239342D01*
X4801342Y-35317204D01*
X4709786Y-35378380D01*
X4658920Y-35399449D01*
X4608051Y-35420520D01*
X4500059Y-35442000D01*
X4389941Y-35442000D01*
X4281949Y-35420520D01*
X4231080Y-35399449D01*
X4180214Y-35378380D01*
X4088658Y-35317204D01*
X4010796Y-35239342D01*
X3949620Y-35147786D01*
X3925483Y-35089513D01*
X3913932Y-35067905D01*
X3898387Y-35048963D01*
X3879445Y-35033418D01*
X3857834Y-35021867D01*
X3834385Y-35014754D01*
X3809999Y-35012352D01*
X3785613Y-35014754D01*
X3762164Y-35021867D01*
X3740554Y-35033419D01*
X3721612Y-35048964D01*
X3706067Y-35067906D01*
X3694517Y-35089513D01*
X3670380Y-35147786D01*
X3609204Y-35239342D01*
X3531342Y-35317204D01*
X3439786Y-35378380D01*
X3388920Y-35399449D01*
X3338051Y-35420520D01*
X3230059Y-35442000D01*
X3119941Y-35442000D01*
X3011949Y-35420520D01*
X2961080Y-35399449D01*
X2910214Y-35378380D01*
X2818658Y-35317204D01*
X2740796Y-35239342D01*
X2679620Y-35147786D01*
X2655483Y-35089513D01*
X2643932Y-35067905D01*
X2628387Y-35048963D01*
X2609445Y-35033418D01*
X2587834Y-35021867D01*
X2564385Y-35014754D01*
X2539999Y-35012352D01*
X2515613Y-35014754D01*
X2492164Y-35021867D01*
X2470554Y-35033419D01*
X2451612Y-35048964D01*
X2436067Y-35067906D01*
X2424517Y-35089513D01*
X2400380Y-35147786D01*
X2339204Y-35239342D01*
X2261342Y-35317204D01*
X2169786Y-35378380D01*
X2118920Y-35399449D01*
X2068051Y-35420520D01*
X1960059Y-35442000D01*
X1849941Y-35442000D01*
X1741949Y-35420520D01*
X1691080Y-35399449D01*
X1640214Y-35378380D01*
X1548658Y-35317204D01*
X1470796Y-35239342D01*
X1409620Y-35147786D01*
X1385483Y-35089513D01*
X1373932Y-35067905D01*
X1358387Y-35048963D01*
X1339445Y-35033418D01*
X1317834Y-35021867D01*
X1294385Y-35014754D01*
X1269999Y-35012352D01*
X1245613Y-35014754D01*
X1222164Y-35021867D01*
X1200554Y-35033419D01*
X1181612Y-35048964D01*
X1166067Y-35067906D01*
X1154517Y-35089513D01*
X1130380Y-35147786D01*
X1069204Y-35239342D01*
X991342Y-35317204D01*
X899786Y-35378380D01*
X848920Y-35399449D01*
X798051Y-35420520D01*
X690059Y-35442000D01*
X579941Y-35442000D01*
X471949Y-35420520D01*
X421080Y-35399449D01*
X370214Y-35378380D01*
X278658Y-35317204D01*
X200796Y-35239342D01*
X139620Y-35147786D01*
X115483Y-35089513D01*
X103932Y-35067905D01*
X88387Y-35048963D01*
X69445Y-35033418D01*
X47834Y-35021867D01*
X24385Y-35014754D01*
X-1Y-35012352D01*
X-24387Y-35014754D01*
X-47836Y-35021867D01*
X-69446Y-35033419D01*
X-88388Y-35048964D01*
X-103933Y-35067906D01*
X-115483Y-35089513D01*
X-139620Y-35147786D01*
X-200796Y-35239342D01*
X-278658Y-35317204D01*
X-370214Y-35378380D01*
X-421080Y-35399449D01*
X-471949Y-35420520D01*
X-579941Y-35442000D01*
X-690059Y-35442000D01*
X-798051Y-35420520D01*
X-848920Y-35399449D01*
X-899786Y-35378380D01*
X-991342Y-35317204D01*
X-1069204Y-35239342D01*
X-1130380Y-35147786D01*
X-1154517Y-35089513D01*
X-1166068Y-35067905D01*
X-1181613Y-35048963D01*
X-1200555Y-35033418D01*
X-1222166Y-35021867D01*
X-1245615Y-35014754D01*
X-1270001Y-35012352D01*
X-1294387Y-35014754D01*
X-1317836Y-35021867D01*
X-1339446Y-35033419D01*
X-1358388Y-35048964D01*
X-1373933Y-35067906D01*
X-1385483Y-35089513D01*
X-1409620Y-35147786D01*
X-1470796Y-35239342D01*
X-1548658Y-35317204D01*
X-1640214Y-35378380D01*
X-1691080Y-35399449D01*
X-1741949Y-35420520D01*
X-1849941Y-35442000D01*
X-1960059Y-35442000D01*
X-2068051Y-35420520D01*
X-2118920Y-35399449D01*
X-2169786Y-35378380D01*
X-2261342Y-35317204D01*
X-2339204Y-35239342D01*
X-2400380Y-35147786D01*
X-2424517Y-35089513D01*
X-2436068Y-35067905D01*
X-2451613Y-35048963D01*
X-2470555Y-35033418D01*
X-2492166Y-35021867D01*
X-2515615Y-35014754D01*
X-2540001Y-35012352D01*
X-2564387Y-35014754D01*
X-2587836Y-35021867D01*
X-2609446Y-35033419D01*
X-2628388Y-35048964D01*
X-2643933Y-35067906D01*
X-2655483Y-35089513D01*
X-2679620Y-35147786D01*
X-2740796Y-35239342D01*
X-2818658Y-35317204D01*
X-2910214Y-35378380D01*
X-2961080Y-35399449D01*
X-3011949Y-35420520D01*
X-3119941Y-35442000D01*
X-3230059Y-35442000D01*
X-3338051Y-35420520D01*
X-3388920Y-35399449D01*
X-3439786Y-35378380D01*
X-3531342Y-35317204D01*
X-3609204Y-35239342D01*
X-3670380Y-35147786D01*
X-3694517Y-35089513D01*
X-3706068Y-35067905D01*
X-3721613Y-35048963D01*
X-3740555Y-35033418D01*
X-3762166Y-35021867D01*
X-3785615Y-35014754D01*
X-3810001Y-35012352D01*
X-3834387Y-35014754D01*
X-3857836Y-35021867D01*
X-3879446Y-35033419D01*
X-3898388Y-35048964D01*
X-3913933Y-35067906D01*
X-3925483Y-35089513D01*
X-3949620Y-35147786D01*
X-4010796Y-35239342D01*
X-4088658Y-35317204D01*
X-4180214Y-35378380D01*
X-4231080Y-35399449D01*
X-4281949Y-35420520D01*
X-4389941Y-35442000D01*
X-4500059Y-35442000D01*
X-4608051Y-35420520D01*
X-4658920Y-35399449D01*
X-4709786Y-35378380D01*
X-4801342Y-35317204D01*
X-4879204Y-35239342D01*
X-4940380Y-35147786D01*
X-4973467Y-35067906D01*
X-4982520Y-35046051D01*
X-5004000Y-34938059D01*
X-5004000Y-34827941D01*
X-4982520Y-34719949D01*
X-4961449Y-34669080D01*
X-4940380Y-34618214D01*
X-4879204Y-34526658D01*
X-4801342Y-34448796D01*
X-4709786Y-34387620D01*
X-4651513Y-34363483D01*
X-4629905Y-34351932D01*
X-4610963Y-34336387D01*
X-4595418Y-34317445D01*
X-4583867Y-34295834D01*
X-4576754Y-34272385D01*
X-4574353Y-34248001D01*
X-4315648Y-34248001D01*
X-4313246Y-34272387D01*
X-4306133Y-34295836D01*
X-4294581Y-34317446D01*
X-4279036Y-34336388D01*
X-4260094Y-34351933D01*
X-4238487Y-34363483D01*
X-4180214Y-34387620D01*
X-4088658Y-34448796D01*
X-4010796Y-34526658D01*
X-3949620Y-34618214D01*
X-3925484Y-34676485D01*
X-3913932Y-34698095D01*
X-3898387Y-34717037D01*
X-3879445Y-34732582D01*
X-3857834Y-34744133D01*
X-3834385Y-34751246D01*
X-3809999Y-34753648D01*
X-3785613Y-34751246D01*
X-3762164Y-34744133D01*
X-3740554Y-34732581D01*
X-3721612Y-34717036D01*
X-3706067Y-34698094D01*
X-3694516Y-34676485D01*
X-3670380Y-34618214D01*
X-3609204Y-34526658D01*
X-3531342Y-34448796D01*
X-3439786Y-34387620D01*
X-3381513Y-34363483D01*
X-3359905Y-34351932D01*
X-3340963Y-34336387D01*
X-3325418Y-34317445D01*
X-3313867Y-34295834D01*
X-3306754Y-34272385D01*
X-3304353Y-34248001D01*
X-3045648Y-34248001D01*
X-3043246Y-34272387D01*
X-3036133Y-34295836D01*
X-3024581Y-34317446D01*
X-3009036Y-34336388D01*
X-2990094Y-34351933D01*
X-2968487Y-34363483D01*
X-2910214Y-34387620D01*
X-2818658Y-34448796D01*
X-2740796Y-34526658D01*
X-2679620Y-34618214D01*
X-2655484Y-34676485D01*
X-2643932Y-34698095D01*
X-2628387Y-34717037D01*
X-2609445Y-34732582D01*
X-2587834Y-34744133D01*
X-2564385Y-34751246D01*
X-2539999Y-34753648D01*
X-2515613Y-34751246D01*
X-2492164Y-34744133D01*
X-2470554Y-34732581D01*
X-2451612Y-34717036D01*
X-2436067Y-34698094D01*
X-2424516Y-34676485D01*
X-2400380Y-34618214D01*
X-2339204Y-34526658D01*
X-2261342Y-34448796D01*
X-2169786Y-34387620D01*
X-2111513Y-34363483D01*
X-2089905Y-34351932D01*
X-2070963Y-34336387D01*
X-2055418Y-34317445D01*
X-2043867Y-34295834D01*
X-2036754Y-34272385D01*
X-2034353Y-34248001D01*
X-1775648Y-34248001D01*
X-1773246Y-34272387D01*
X-1766133Y-34295836D01*
X-1754581Y-34317446D01*
X-1739036Y-34336388D01*
X-1720094Y-34351933D01*
X-1698487Y-34363483D01*
X-1640214Y-34387620D01*
X-1548658Y-34448796D01*
X-1470796Y-34526658D01*
X-1409620Y-34618214D01*
X-1385484Y-34676485D01*
X-1373932Y-34698095D01*
X-1358387Y-34717037D01*
X-1339445Y-34732582D01*
X-1317834Y-34744133D01*
X-1294385Y-34751246D01*
X-1269999Y-34753648D01*
X-1245613Y-34751246D01*
X-1222164Y-34744133D01*
X-1200554Y-34732581D01*
X-1181612Y-34717036D01*
X-1166067Y-34698094D01*
X-1154516Y-34676485D01*
X-1130380Y-34618214D01*
X-1069204Y-34526658D01*
X-991342Y-34448796D01*
X-899786Y-34387620D01*
X-841513Y-34363483D01*
X-819905Y-34351932D01*
X-800963Y-34336387D01*
X-785418Y-34317445D01*
X-773867Y-34295834D01*
X-766754Y-34272385D01*
X-764353Y-34248001D01*
X-505648Y-34248001D01*
X-503246Y-34272387D01*
X-496133Y-34295836D01*
X-484581Y-34317446D01*
X-469036Y-34336388D01*
X-450094Y-34351933D01*
X-428487Y-34363483D01*
X-370214Y-34387620D01*
X-278658Y-34448796D01*
X-200796Y-34526658D01*
X-139620Y-34618214D01*
X-115484Y-34676485D01*
X-103932Y-34698095D01*
X-88387Y-34717037D01*
X-69445Y-34732582D01*
X-47834Y-34744133D01*
X-24385Y-34751246D01*
X1Y-34753648D01*
X24387Y-34751246D01*
X47836Y-34744133D01*
X69446Y-34732581D01*
X88388Y-34717036D01*
X103933Y-34698094D01*
X115484Y-34676485D01*
X139620Y-34618214D01*
X200796Y-34526658D01*
X278658Y-34448796D01*
X370214Y-34387620D01*
X428487Y-34363483D01*
X450095Y-34351932D01*
X469037Y-34336387D01*
X484582Y-34317445D01*
X496133Y-34295834D01*
X503246Y-34272385D01*
X505647Y-34248001D01*
X764352Y-34248001D01*
X766754Y-34272387D01*
X773867Y-34295836D01*
X785419Y-34317446D01*
X800964Y-34336388D01*
X819906Y-34351933D01*
X841513Y-34363483D01*
X899786Y-34387620D01*
X991342Y-34448796D01*
X1069204Y-34526658D01*
X1130380Y-34618214D01*
X1154516Y-34676485D01*
X1166068Y-34698095D01*
X1181613Y-34717037D01*
X1200555Y-34732582D01*
X1222166Y-34744133D01*
X1245615Y-34751246D01*
X1270001Y-34753648D01*
X1294387Y-34751246D01*
X1317836Y-34744133D01*
X1339446Y-34732581D01*
X1358388Y-34717036D01*
X1373933Y-34698094D01*
X1385484Y-34676485D01*
X1409620Y-34618214D01*
X1470796Y-34526658D01*
X1548658Y-34448796D01*
X1640214Y-34387620D01*
X1698487Y-34363483D01*
X1720095Y-34351932D01*
X1739037Y-34336387D01*
X1754582Y-34317445D01*
X1766133Y-34295834D01*
X1773246Y-34272385D01*
X1775647Y-34248001D01*
X2034352Y-34248001D01*
X2036754Y-34272387D01*
X2043867Y-34295836D01*
X2055419Y-34317446D01*
X2070964Y-34336388D01*
X2089906Y-34351933D01*
X2111513Y-34363483D01*
X2169786Y-34387620D01*
X2261342Y-34448796D01*
X2339204Y-34526658D01*
X2400380Y-34618214D01*
X2424516Y-34676485D01*
X2436068Y-34698095D01*
X2451613Y-34717037D01*
X2470555Y-34732582D01*
X2492166Y-34744133D01*
X2515615Y-34751246D01*
X2540001Y-34753648D01*
X2564387Y-34751246D01*
X2587836Y-34744133D01*
X2609446Y-34732581D01*
X2628388Y-34717036D01*
X2643933Y-34698094D01*
X2655484Y-34676485D01*
X2679620Y-34618214D01*
X2740796Y-34526658D01*
X2818658Y-34448796D01*
X2910214Y-34387620D01*
X2968487Y-34363483D01*
X2990095Y-34351932D01*
X3009037Y-34336387D01*
X3024582Y-34317445D01*
X3036133Y-34295834D01*
X3043246Y-34272385D01*
X3045647Y-34248001D01*
X3304352Y-34248001D01*
X3306754Y-34272387D01*
X3313867Y-34295836D01*
X3325419Y-34317446D01*
X3340964Y-34336388D01*
X3359906Y-34351933D01*
X3381513Y-34363483D01*
X3439786Y-34387620D01*
X3531342Y-34448796D01*
X3609204Y-34526658D01*
X3670380Y-34618214D01*
X3694516Y-34676485D01*
X3706068Y-34698095D01*
X3721613Y-34717037D01*
X3740555Y-34732582D01*
X3762166Y-34744133D01*
X3785615Y-34751246D01*
X3810001Y-34753648D01*
X3834387Y-34751246D01*
X3857836Y-34744133D01*
X3879446Y-34732581D01*
X3898388Y-34717036D01*
X3913933Y-34698094D01*
X3925484Y-34676485D01*
X3949620Y-34618214D01*
X4010796Y-34526658D01*
X4088658Y-34448796D01*
X4180214Y-34387620D01*
X4238487Y-34363483D01*
X4260095Y-34351932D01*
X4279037Y-34336387D01*
X4294582Y-34317445D01*
X4306133Y-34295834D01*
X4313246Y-34272385D01*
X4315648Y-34247999D01*
X4313246Y-34223613D01*
X4306133Y-34200164D01*
X4294581Y-34178554D01*
X4279036Y-34159612D01*
X4260094Y-34144067D01*
X4238485Y-34132516D01*
X4180214Y-34108380D01*
X4088658Y-34047204D01*
X4010796Y-33969342D01*
X3949620Y-33877786D01*
X3925483Y-33819513D01*
X3913932Y-33797905D01*
X3898387Y-33778963D01*
X3879445Y-33763418D01*
X3857834Y-33751867D01*
X3834385Y-33744754D01*
X3809999Y-33742352D01*
X3785613Y-33744754D01*
X3762164Y-33751867D01*
X3740554Y-33763419D01*
X3721612Y-33778964D01*
X3706067Y-33797906D01*
X3694517Y-33819513D01*
X3670380Y-33877786D01*
X3609204Y-33969342D01*
X3531342Y-34047204D01*
X3439786Y-34108380D01*
X3381515Y-34132516D01*
X3359905Y-34144068D01*
X3340963Y-34159613D01*
X3325418Y-34178555D01*
X3313867Y-34200166D01*
X3306754Y-34223615D01*
X3304352Y-34248001D01*
X3045647Y-34248001D01*
X3045648Y-34247999D01*
X3043246Y-34223613D01*
X3036133Y-34200164D01*
X3024581Y-34178554D01*
X3009036Y-34159612D01*
X2990094Y-34144067D01*
X2968485Y-34132516D01*
X2910214Y-34108380D01*
X2818658Y-34047204D01*
X2740796Y-33969342D01*
X2679620Y-33877786D01*
X2655483Y-33819513D01*
X2643932Y-33797905D01*
X2628387Y-33778963D01*
X2609445Y-33763418D01*
X2587834Y-33751867D01*
X2564385Y-33744754D01*
X2539999Y-33742352D01*
X2515613Y-33744754D01*
X2492164Y-33751867D01*
X2470554Y-33763419D01*
X2451612Y-33778964D01*
X2436067Y-33797906D01*
X2424517Y-33819513D01*
X2400380Y-33877786D01*
X2339204Y-33969342D01*
X2261342Y-34047204D01*
X2169786Y-34108380D01*
X2111515Y-34132516D01*
X2089905Y-34144068D01*
X2070963Y-34159613D01*
X2055418Y-34178555D01*
X2043867Y-34200166D01*
X2036754Y-34223615D01*
X2034352Y-34248001D01*
X1775647Y-34248001D01*
X1775648Y-34247999D01*
X1773246Y-34223613D01*
X1766133Y-34200164D01*
X1754581Y-34178554D01*
X1739036Y-34159612D01*
X1720094Y-34144067D01*
X1698485Y-34132516D01*
X1640214Y-34108380D01*
X1548658Y-34047204D01*
X1470796Y-33969342D01*
X1409620Y-33877786D01*
X1385483Y-33819513D01*
X1373932Y-33797905D01*
X1358387Y-33778963D01*
X1339445Y-33763418D01*
X1317834Y-33751867D01*
X1294385Y-33744754D01*
X1269999Y-33742352D01*
X1245613Y-33744754D01*
X1222164Y-33751867D01*
X1200554Y-33763419D01*
X1181612Y-33778964D01*
X1166067Y-33797906D01*
X1154517Y-33819513D01*
X1130380Y-33877786D01*
X1069204Y-33969342D01*
X991342Y-34047204D01*
X899786Y-34108380D01*
X841515Y-34132516D01*
X819905Y-34144068D01*
X800963Y-34159613D01*
X785418Y-34178555D01*
X773867Y-34200166D01*
X766754Y-34223615D01*
X764352Y-34248001D01*
X505647Y-34248001D01*
X505648Y-34247999D01*
X503246Y-34223613D01*
X496133Y-34200164D01*
X484581Y-34178554D01*
X469036Y-34159612D01*
X450094Y-34144067D01*
X428485Y-34132516D01*
X370214Y-34108380D01*
X278658Y-34047204D01*
X200796Y-33969342D01*
X139620Y-33877786D01*
X115483Y-33819513D01*
X103932Y-33797905D01*
X88387Y-33778963D01*
X69445Y-33763418D01*
X47834Y-33751867D01*
X24385Y-33744754D01*
X-1Y-33742352D01*
X-24387Y-33744754D01*
X-47836Y-33751867D01*
X-69446Y-33763419D01*
X-88388Y-33778964D01*
X-103933Y-33797906D01*
X-115483Y-33819513D01*
X-139620Y-33877786D01*
X-200796Y-33969342D01*
X-278658Y-34047204D01*
X-370214Y-34108380D01*
X-428485Y-34132516D01*
X-450095Y-34144068D01*
X-469037Y-34159613D01*
X-484582Y-34178555D01*
X-496133Y-34200166D01*
X-503246Y-34223615D01*
X-505648Y-34248001D01*
X-764353Y-34248001D01*
X-764352Y-34247999D01*
X-766754Y-34223613D01*
X-773867Y-34200164D01*
X-785419Y-34178554D01*
X-800964Y-34159612D01*
X-819906Y-34144067D01*
X-841515Y-34132516D01*
X-899786Y-34108380D01*
X-991342Y-34047204D01*
X-1069204Y-33969342D01*
X-1130380Y-33877786D01*
X-1154517Y-33819513D01*
X-1166068Y-33797905D01*
X-1181613Y-33778963D01*
X-1200555Y-33763418D01*
X-1222166Y-33751867D01*
X-1245615Y-33744754D01*
X-1270001Y-33742352D01*
X-1294387Y-33744754D01*
X-1317836Y-33751867D01*
X-1339446Y-33763419D01*
X-1358388Y-33778964D01*
X-1373933Y-33797906D01*
X-1385483Y-33819513D01*
X-1409620Y-33877786D01*
X-1470796Y-33969342D01*
X-1548658Y-34047204D01*
X-1640214Y-34108380D01*
X-1698485Y-34132516D01*
X-1720095Y-34144068D01*
X-1739037Y-34159613D01*
X-1754582Y-34178555D01*
X-1766133Y-34200166D01*
X-1773246Y-34223615D01*
X-1775648Y-34248001D01*
X-2034353Y-34248001D01*
X-2034352Y-34247999D01*
X-2036754Y-34223613D01*
X-2043867Y-34200164D01*
X-2055419Y-34178554D01*
X-2070964Y-34159612D01*
X-2089906Y-34144067D01*
X-2111515Y-34132516D01*
X-2169786Y-34108380D01*
X-2261342Y-34047204D01*
X-2339204Y-33969342D01*
X-2400380Y-33877786D01*
X-2424517Y-33819513D01*
X-2436068Y-33797905D01*
X-2451613Y-33778963D01*
X-2470555Y-33763418D01*
X-2492166Y-33751867D01*
X-2515615Y-33744754D01*
X-2540001Y-33742352D01*
X-2564387Y-33744754D01*
X-2587836Y-33751867D01*
X-2609446Y-33763419D01*
X-2628388Y-33778964D01*
X-2643933Y-33797906D01*
X-2655483Y-33819513D01*
X-2679620Y-33877786D01*
X-2740796Y-33969342D01*
X-2818658Y-34047204D01*
X-2910214Y-34108380D01*
X-2968485Y-34132516D01*
X-2990095Y-34144068D01*
X-3009037Y-34159613D01*
X-3024582Y-34178555D01*
X-3036133Y-34200166D01*
X-3043246Y-34223615D01*
X-3045648Y-34248001D01*
X-3304353Y-34248001D01*
X-3304352Y-34247999D01*
X-3306754Y-34223613D01*
X-3313867Y-34200164D01*
X-3325419Y-34178554D01*
X-3340964Y-34159612D01*
X-3359906Y-34144067D01*
X-3381515Y-34132516D01*
X-3439786Y-34108380D01*
X-3531342Y-34047204D01*
X-3609204Y-33969342D01*
X-3670380Y-33877786D01*
X-3694517Y-33819513D01*
X-3706068Y-33797905D01*
X-3721613Y-33778963D01*
X-3740555Y-33763418D01*
X-3762166Y-33751867D01*
X-3785615Y-33744754D01*
X-3810001Y-33742352D01*
X-3834387Y-33744754D01*
X-3857836Y-33751867D01*
X-3879446Y-33763419D01*
X-3898388Y-33778964D01*
X-3913933Y-33797906D01*
X-3925483Y-33819513D01*
X-3949620Y-33877786D01*
X-4010796Y-33969342D01*
X-4088658Y-34047204D01*
X-4180214Y-34108380D01*
X-4238485Y-34132516D01*
X-4260095Y-34144068D01*
X-4279037Y-34159613D01*
X-4294582Y-34178555D01*
X-4306133Y-34200166D01*
X-4313246Y-34223615D01*
X-4315648Y-34248001D01*
X-4574353Y-34248001D01*
X-4574352Y-34247999D01*
X-4576754Y-34223613D01*
X-4583867Y-34200164D01*
X-4595419Y-34178554D01*
X-4610964Y-34159612D01*
X-4629906Y-34144067D01*
X-4651515Y-34132516D01*
X-4709786Y-34108380D01*
X-4801342Y-34047204D01*
X-4879204Y-33969342D01*
X-4940380Y-33877786D01*
X-4973467Y-33797906D01*
X-4982520Y-33776051D01*
X-5004000Y-33668059D01*
X-5004000Y-33557941D01*
X-4982520Y-33449949D01*
X-4961449Y-33399080D01*
X-4940380Y-33348214D01*
X-4879204Y-33256658D01*
X-4801342Y-33178796D01*
X-4709786Y-33117620D01*
X-4658920Y-33096551D01*
X-4608051Y-33075480D01*
X-4500059Y-33054000D01*
X-4389941Y-33054000D01*
X-4281949Y-33075480D01*
X-4281949Y-33075480D01*
G37*
G36*
X11227000Y-31953400D02*
G01*
X-1067000Y-31953400D01*
X-1067000Y-28828800D01*
X11227000Y-28828800D01*
X11227000Y-31953400D01*
X11227000Y-31953400D01*
G37*
G36*
X-8530140Y-31450460D02*
G01*
X-10982140Y-31450460D01*
X-10982140Y-30248460D01*
X-8530140Y-30248460D01*
X-8530140Y-31450460D01*
X-8530140Y-31450460D01*
G37*
G36*
X-4353022Y-29420427D02*
G01*
X-4317453Y-29431217D01*
X-4284681Y-29448734D01*
X-4255951Y-29472311D01*
X-4232374Y-29501041D01*
X-4214857Y-29533813D01*
X-4204067Y-29569382D01*
X-4199820Y-29612505D01*
X-4199820Y-30671855D01*
X-4204067Y-30714978D01*
X-4214857Y-30750547D01*
X-4232374Y-30783319D01*
X-4255951Y-30812049D01*
X-4284681Y-30835626D01*
X-4317453Y-30853143D01*
X-4353022Y-30863933D01*
X-4396145Y-30868180D01*
X-7455495Y-30868180D01*
X-7498618Y-30863933D01*
X-7534187Y-30853143D01*
X-7566959Y-30835626D01*
X-7595689Y-30812049D01*
X-7619266Y-30783319D01*
X-7636783Y-30750547D01*
X-7647573Y-30714978D01*
X-7651820Y-30671855D01*
X-7651820Y-29612505D01*
X-7647573Y-29569382D01*
X-7636783Y-29533813D01*
X-7619266Y-29501041D01*
X-7595689Y-29472311D01*
X-7566959Y-29448734D01*
X-7534187Y-29431217D01*
X-7498618Y-29420427D01*
X-7455495Y-29416180D01*
X-4396145Y-29416180D01*
X-4353022Y-29420427D01*
X-4353022Y-29420427D01*
G37*
G36*
X-8530140Y-27150460D02*
G01*
X-10982140Y-27150460D01*
X-10982140Y-25948460D01*
X-8530140Y-25948460D01*
X-8530140Y-27150460D01*
X-8530140Y-27150460D01*
G37*
G36*
X-4353022Y-23620427D02*
G01*
X-4317453Y-23631217D01*
X-4284681Y-23648734D01*
X-4255951Y-23672311D01*
X-4232374Y-23701041D01*
X-4214857Y-23733813D01*
X-4204067Y-23769382D01*
X-4199820Y-23812505D01*
X-4199820Y-24871855D01*
X-4204067Y-24914978D01*
X-4214857Y-24950547D01*
X-4232374Y-24983319D01*
X-4255951Y-25012049D01*
X-4284681Y-25035626D01*
X-4317453Y-25053143D01*
X-4353022Y-25063933D01*
X-4396145Y-25068180D01*
X-7455495Y-25068180D01*
X-7498618Y-25063933D01*
X-7534187Y-25053143D01*
X-7566959Y-25035626D01*
X-7595689Y-25012049D01*
X-7619266Y-24983319D01*
X-7636783Y-24950547D01*
X-7647573Y-24914978D01*
X-7651820Y-24871855D01*
X-7651820Y-23812505D01*
X-7647573Y-23769382D01*
X-7636783Y-23733813D01*
X-7619266Y-23701041D01*
X-7595689Y-23672311D01*
X-7566959Y-23648734D01*
X-7534187Y-23631217D01*
X-7498618Y-23620427D01*
X-7455495Y-23616180D01*
X-4396145Y-23616180D01*
X-4353022Y-23620427D01*
X-4353022Y-23620427D01*
G37*
G36*
X11227000Y-17399200D02*
G01*
X-1067000Y-17399200D01*
X-1067000Y-14274600D01*
X11227000Y-14274600D01*
X11227000Y-17399200D01*
X11227000Y-17399200D01*
G37*
G36*
X-14109500Y-16688000D02*
G01*
X-19965209Y-16688000D01*
X-20514855Y-16578669D01*
X-20729318Y-16489836D01*
X-21032613Y-16364207D01*
X-21498582Y-16052856D01*
X-21894856Y-15656582D01*
X-22206207Y-15190613D01*
X-22331836Y-14887318D01*
X-22420669Y-14672855D01*
X-22530000Y-14123209D01*
X-22530000Y10440209D01*
X-22420669Y10989855D01*
X-22207496Y11504500D01*
X-22206207Y11507613D01*
X-21894856Y11973582D01*
X-21498582Y12369856D01*
X-21032613Y12681207D01*
X-20729318Y12806836D01*
X-20514855Y12895669D01*
X-19965209Y13005000D01*
X-14109500Y13005000D01*
X-14109500Y-16688000D01*
X-14109500Y-16688000D01*
G37*
G36*
X20514855Y12895669D02*
G01*
X20729318Y12806836D01*
X21032613Y12681207D01*
X21498582Y12369856D01*
X21894856Y11973582D01*
X22206207Y11507613D01*
X22207496Y11504500D01*
X22420669Y10989855D01*
X22530000Y10440209D01*
X22530000Y-14123209D01*
X22420669Y-14672855D01*
X22331836Y-14887318D01*
X22206207Y-15190613D01*
X21894856Y-15656582D01*
X21498582Y-16052856D01*
X21032613Y-16364207D01*
X20729318Y-16489836D01*
X20514855Y-16578669D01*
X19965209Y-16688000D01*
X14109500Y-16688000D01*
X14109500Y13005000D01*
X19965209Y13005000D01*
X20514855Y12895669D01*
X20514855Y12895669D01*
G37*
G36*
X-962921Y-4631023D02*
G01*
X-886584Y-4654179D01*
X-816245Y-4691776D01*
X-754582Y-4742382D01*
X-703976Y-4804045D01*
X-666379Y-4874384D01*
X-643223Y-4950721D01*
X-634800Y-5036240D01*
X-634800Y-7866960D01*
X-643223Y-7952479D01*
X-666379Y-8028816D01*
X-703976Y-8099155D01*
X-754582Y-8160818D01*
X-816245Y-8211424D01*
X-886584Y-8249021D01*
X-962921Y-8272177D01*
X-1048440Y-8280600D01*
X-2101160Y-8280600D01*
X-2186679Y-8272177D01*
X-2263016Y-8249021D01*
X-2333355Y-8211424D01*
X-2395018Y-8160818D01*
X-2445624Y-8099155D01*
X-2483221Y-8028816D01*
X-2506377Y-7952479D01*
X-2514800Y-7866960D01*
X-2514800Y-5036240D01*
X-2506377Y-4950721D01*
X-2483221Y-4874384D01*
X-2445624Y-4804045D01*
X-2395018Y-4742382D01*
X-2333355Y-4691776D01*
X-2263016Y-4654179D01*
X-2186679Y-4631023D01*
X-2101160Y-4622600D01*
X-1048440Y-4622600D01*
X-962921Y-4631023D01*
X-962921Y-4631023D01*
G37*
G36*
X4117079Y-4631023D02*
G01*
X4193416Y-4654179D01*
X4263755Y-4691776D01*
X4325418Y-4742382D01*
X4376024Y-4804045D01*
X4413621Y-4874384D01*
X4436777Y-4950721D01*
X4445200Y-5036240D01*
X4445200Y-7866960D01*
X4436777Y-7952479D01*
X4413621Y-8028816D01*
X4376024Y-8099155D01*
X4325418Y-8160818D01*
X4263755Y-8211424D01*
X4193416Y-8249021D01*
X4117079Y-8272177D01*
X4031560Y-8280600D01*
X2978840Y-8280600D01*
X2893321Y-8272177D01*
X2816984Y-8249021D01*
X2746645Y-8211424D01*
X2684982Y-8160818D01*
X2634376Y-8099155D01*
X2596779Y-8028816D01*
X2573623Y-7952479D01*
X2565200Y-7866960D01*
X2565200Y-5036240D01*
X2573623Y-4950721D01*
X2596779Y-4874384D01*
X2634376Y-4804045D01*
X2684982Y-4742382D01*
X2746645Y-4691776D01*
X2816984Y-4654179D01*
X2893321Y-4631023D01*
X2978840Y-4622600D01*
X4031560Y-4622600D01*
X4117079Y-4631023D01*
X4117079Y-4631023D01*
G37*
G36*
X1577079Y-4631023D02*
G01*
X1653416Y-4654179D01*
X1723755Y-4691776D01*
X1785418Y-4742382D01*
X1836024Y-4804045D01*
X1873621Y-4874384D01*
X1896777Y-4950721D01*
X1905200Y-5036240D01*
X1905200Y-7866960D01*
X1896777Y-7952479D01*
X1873621Y-8028816D01*
X1836024Y-8099155D01*
X1785418Y-8160818D01*
X1723755Y-8211424D01*
X1653416Y-8249021D01*
X1577079Y-8272177D01*
X1491560Y-8280600D01*
X438840Y-8280600D01*
X353321Y-8272177D01*
X276984Y-8249021D01*
X206645Y-8211424D01*
X144982Y-8160818D01*
X94376Y-8099155D01*
X56779Y-8028816D01*
X33623Y-7952479D01*
X25200Y-7866960D01*
X25200Y-5036240D01*
X33623Y-4950721D01*
X56779Y-4874384D01*
X94376Y-4804045D01*
X144982Y-4742382D01*
X206645Y-4691776D01*
X276984Y-4654179D01*
X353321Y-4631023D01*
X438840Y-4622600D01*
X1491560Y-4622600D01*
X1577079Y-4631023D01*
X1577079Y-4631023D01*
G37*
G36*
X9984479Y-4631023D02*
G01*
X10060816Y-4654179D01*
X10131155Y-4691776D01*
X10192818Y-4742382D01*
X10243424Y-4804045D01*
X10281021Y-4874384D01*
X10304177Y-4950721D01*
X10312600Y-5036240D01*
X10312600Y-7866960D01*
X10304177Y-7952479D01*
X10281021Y-8028816D01*
X10243424Y-8099155D01*
X10192818Y-8160818D01*
X10131155Y-8211424D01*
X10060816Y-8249021D01*
X9984479Y-8272177D01*
X9898960Y-8280600D01*
X8846240Y-8280600D01*
X8760721Y-8272177D01*
X8684384Y-8249021D01*
X8614045Y-8211424D01*
X8552382Y-8160818D01*
X8501776Y-8099155D01*
X8464179Y-8028816D01*
X8441023Y-7952479D01*
X8432600Y-7866960D01*
X8432600Y-5036240D01*
X8441023Y-4950721D01*
X8464179Y-4874384D01*
X8501776Y-4804045D01*
X8552382Y-4742382D01*
X8614045Y-4691776D01*
X8684384Y-4654179D01*
X8760721Y-4631023D01*
X8846240Y-4622600D01*
X9898960Y-4622600D01*
X9984479Y-4631023D01*
X9984479Y-4631023D01*
G37*
G36*
X-3502921Y-4631023D02*
G01*
X-3426584Y-4654179D01*
X-3356245Y-4691776D01*
X-3294582Y-4742382D01*
X-3243976Y-4804045D01*
X-3206379Y-4874384D01*
X-3183223Y-4950721D01*
X-3174800Y-5036240D01*
X-3174800Y-7866960D01*
X-3183223Y-7952479D01*
X-3206379Y-8028816D01*
X-3243976Y-8099155D01*
X-3294582Y-8160818D01*
X-3356245Y-8211424D01*
X-3426584Y-8249021D01*
X-3502921Y-8272177D01*
X-3588440Y-8280600D01*
X-4641160Y-8280600D01*
X-4726679Y-8272177D01*
X-4803016Y-8249021D01*
X-4873355Y-8211424D01*
X-4935018Y-8160818D01*
X-4985624Y-8099155D01*
X-5023221Y-8028816D01*
X-5046377Y-7952479D01*
X-5054800Y-7866960D01*
X-5054800Y-5036240D01*
X-5046377Y-4950721D01*
X-5023221Y-4874384D01*
X-4985624Y-4804045D01*
X-4935018Y-4742382D01*
X-4873355Y-4691776D01*
X-4803016Y-4654179D01*
X-4726679Y-4631023D01*
X-4641160Y-4622600D01*
X-3588440Y-4622600D01*
X-3502921Y-4631023D01*
X-3502921Y-4631023D01*
G37*
G36*
X7444479Y-4631023D02*
G01*
X7520816Y-4654179D01*
X7591155Y-4691776D01*
X7652818Y-4742382D01*
X7703424Y-4804045D01*
X7741021Y-4874384D01*
X7764177Y-4950721D01*
X7772600Y-5036240D01*
X7772600Y-7866960D01*
X7764177Y-7952479D01*
X7741021Y-8028816D01*
X7703424Y-8099155D01*
X7652818Y-8160818D01*
X7591155Y-8211424D01*
X7520816Y-8249021D01*
X7444479Y-8272177D01*
X7358960Y-8280600D01*
X6306240Y-8280600D01*
X6220721Y-8272177D01*
X6144384Y-8249021D01*
X6074045Y-8211424D01*
X6012382Y-8160818D01*
X5961776Y-8099155D01*
X5924179Y-8028816D01*
X5901023Y-7952479D01*
X5892600Y-7866960D01*
X5892600Y-5036240D01*
X5901023Y-4950721D01*
X5924179Y-4874384D01*
X5961776Y-4804045D01*
X6012382Y-4742382D01*
X6074045Y-4691776D01*
X6144384Y-4654179D01*
X6220721Y-4631023D01*
X6306240Y-4622600D01*
X7358960Y-4622600D01*
X7444479Y-4631023D01*
X7444479Y-4631023D01*
G37*
G36*
X6705868Y-2714965D02*
G01*
X6744538Y-2726696D01*
X6780177Y-2745746D01*
X6811417Y-2771383D01*
X6837054Y-2802623D01*
X6856104Y-2838262D01*
X6867835Y-2876932D01*
X6872400Y-2923288D01*
X6872400Y-3574512D01*
X6867835Y-3620868D01*
X6856104Y-3659538D01*
X6837054Y-3695177D01*
X6811417Y-3726417D01*
X6780177Y-3752054D01*
X6744538Y-3771104D01*
X6705868Y-3782835D01*
X6659512Y-3787400D01*
X5583288Y-3787400D01*
X5536932Y-3782835D01*
X5498262Y-3771104D01*
X5462623Y-3752054D01*
X5431383Y-3726417D01*
X5405746Y-3695177D01*
X5386696Y-3659538D01*
X5374965Y-3620868D01*
X5370400Y-3574512D01*
X5370400Y-2923288D01*
X5374965Y-2876932D01*
X5386696Y-2838262D01*
X5405746Y-2802623D01*
X5431383Y-2771383D01*
X5462623Y-2745746D01*
X5498262Y-2726696D01*
X5536932Y-2714965D01*
X5583288Y-2710400D01*
X6659512Y-2710400D01*
X6705868Y-2714965D01*
X6705868Y-2714965D01*
G37*
G36*
X8712468Y-2714965D02*
G01*
X8751138Y-2726696D01*
X8786777Y-2745746D01*
X8818017Y-2771383D01*
X8843654Y-2802623D01*
X8862704Y-2838262D01*
X8874435Y-2876932D01*
X8879000Y-2923288D01*
X8879000Y-3574512D01*
X8874435Y-3620868D01*
X8862704Y-3659538D01*
X8843654Y-3695177D01*
X8818017Y-3726417D01*
X8786777Y-3752054D01*
X8751138Y-3771104D01*
X8712468Y-3782835D01*
X8666112Y-3787400D01*
X7589888Y-3787400D01*
X7543532Y-3782835D01*
X7504862Y-3771104D01*
X7469223Y-3752054D01*
X7437983Y-3726417D01*
X7412346Y-3695177D01*
X7393296Y-3659538D01*
X7381565Y-3620868D01*
X7377000Y-3574512D01*
X7377000Y-2923288D01*
X7381565Y-2876932D01*
X7393296Y-2838262D01*
X7412346Y-2802623D01*
X7437983Y-2771383D01*
X7469223Y-2745746D01*
X7504862Y-2726696D01*
X7543532Y-2714965D01*
X7589888Y-2710400D01*
X8666112Y-2710400D01*
X8712468Y-2714965D01*
X8712468Y-2714965D01*
G37*
G36*
X10693668Y-2712665D02*
G01*
X10732338Y-2724396D01*
X10767977Y-2743446D01*
X10799217Y-2769083D01*
X10824854Y-2800323D01*
X10843904Y-2835962D01*
X10855635Y-2874632D01*
X10860200Y-2920988D01*
X10860200Y-3572212D01*
X10855635Y-3618568D01*
X10843904Y-3657238D01*
X10824854Y-3692877D01*
X10799217Y-3724117D01*
X10767977Y-3749754D01*
X10732338Y-3768804D01*
X10693668Y-3780535D01*
X10647312Y-3785100D01*
X9571088Y-3785100D01*
X9524732Y-3780535D01*
X9486062Y-3768804D01*
X9450423Y-3749754D01*
X9419183Y-3724117D01*
X9393546Y-3692877D01*
X9374496Y-3657238D01*
X9362765Y-3618568D01*
X9358200Y-3572212D01*
X9358200Y-2920988D01*
X9362765Y-2874632D01*
X9374496Y-2835962D01*
X9393546Y-2800323D01*
X9419183Y-2769083D01*
X9450423Y-2743446D01*
X9486062Y-2724396D01*
X9524732Y-2712665D01*
X9571088Y-2708100D01*
X10647312Y-2708100D01*
X10693668Y-2712665D01*
X10693668Y-2712665D01*
G37*
G36*
X8712468Y-839965D02*
G01*
X8751138Y-851696D01*
X8786777Y-870746D01*
X8818017Y-896383D01*
X8843654Y-927623D01*
X8862704Y-963262D01*
X8874435Y-1001932D01*
X8879000Y-1048288D01*
X8879000Y-1699512D01*
X8874435Y-1745868D01*
X8862704Y-1784538D01*
X8843654Y-1820177D01*
X8818017Y-1851417D01*
X8786777Y-1877054D01*
X8751138Y-1896104D01*
X8712468Y-1907835D01*
X8666112Y-1912400D01*
X7589888Y-1912400D01*
X7543532Y-1907835D01*
X7504862Y-1896104D01*
X7469223Y-1877054D01*
X7437983Y-1851417D01*
X7412346Y-1820177D01*
X7393296Y-1784538D01*
X7381565Y-1745868D01*
X7377000Y-1699512D01*
X7377000Y-1048288D01*
X7381565Y-1001932D01*
X7393296Y-963262D01*
X7412346Y-927623D01*
X7437983Y-896383D01*
X7469223Y-870746D01*
X7504862Y-851696D01*
X7543532Y-839965D01*
X7589888Y-835400D01*
X8666112Y-835400D01*
X8712468Y-839965D01*
X8712468Y-839965D01*
G37*
G36*
X6705868Y-839965D02*
G01*
X6744538Y-851696D01*
X6780177Y-870746D01*
X6811417Y-896383D01*
X6837054Y-927623D01*
X6856104Y-963262D01*
X6867835Y-1001932D01*
X6872400Y-1048288D01*
X6872400Y-1699512D01*
X6867835Y-1745868D01*
X6856104Y-1784538D01*
X6837054Y-1820177D01*
X6811417Y-1851417D01*
X6780177Y-1877054D01*
X6744538Y-1896104D01*
X6705868Y-1907835D01*
X6659512Y-1912400D01*
X5583288Y-1912400D01*
X5536932Y-1907835D01*
X5498262Y-1896104D01*
X5462623Y-1877054D01*
X5431383Y-1851417D01*
X5405746Y-1820177D01*
X5386696Y-1784538D01*
X5374965Y-1745868D01*
X5370400Y-1699512D01*
X5370400Y-1048288D01*
X5374965Y-1001932D01*
X5386696Y-963262D01*
X5405746Y-927623D01*
X5431383Y-896383D01*
X5462623Y-870746D01*
X5498262Y-851696D01*
X5536932Y-839965D01*
X5583288Y-835400D01*
X6659512Y-835400D01*
X6705868Y-839965D01*
X6705868Y-839965D01*
G37*
G36*
X10693668Y-837665D02*
G01*
X10732338Y-849396D01*
X10767977Y-868446D01*
X10799217Y-894083D01*
X10824854Y-925323D01*
X10843904Y-960962D01*
X10855635Y-999632D01*
X10860200Y-1045988D01*
X10860200Y-1697212D01*
X10855635Y-1743568D01*
X10843904Y-1782238D01*
X10824854Y-1817877D01*
X10799217Y-1849117D01*
X10767977Y-1874754D01*
X10732338Y-1893804D01*
X10693668Y-1905535D01*
X10647312Y-1910100D01*
X9571088Y-1910100D01*
X9524732Y-1905535D01*
X9486062Y-1893804D01*
X9450423Y-1874754D01*
X9419183Y-1849117D01*
X9393546Y-1817877D01*
X9374496Y-1782238D01*
X9362765Y-1743568D01*
X9358200Y-1697212D01*
X9358200Y-1045988D01*
X9362765Y-999632D01*
X9374496Y-960962D01*
X9393546Y-925323D01*
X9419183Y-894083D01*
X9450423Y-868446D01*
X9486062Y-849396D01*
X9524732Y-837665D01*
X9571088Y-833100D01*
X10647312Y-833100D01*
X10693668Y-837665D01*
X10693668Y-837665D01*
G37*
G36*
X3836768Y5762935D02*
G01*
X3875438Y5751204D01*
X3911077Y5732154D01*
X3942317Y5706517D01*
X3967954Y5675277D01*
X3987004Y5639638D01*
X3998735Y5600968D01*
X4003300Y5554612D01*
X4003300Y4478388D01*
X3998735Y4432032D01*
X3987004Y4393362D01*
X3967954Y4357723D01*
X3942317Y4326483D01*
X3911077Y4300846D01*
X3875438Y4281796D01*
X3836768Y4270065D01*
X3790412Y4265500D01*
X3139188Y4265500D01*
X3092832Y4270065D01*
X3054162Y4281796D01*
X3018523Y4300846D01*
X2987283Y4326483D01*
X2961646Y4357723D01*
X2942596Y4393362D01*
X2930865Y4432032D01*
X2926300Y4478388D01*
X2926300Y5554612D01*
X2930865Y5600968D01*
X2942596Y5639638D01*
X2961646Y5675277D01*
X2987283Y5706517D01*
X3018523Y5732154D01*
X3054162Y5751204D01*
X3092832Y5762935D01*
X3139188Y5767500D01*
X3790412Y5767500D01*
X3836768Y5762935D01*
X3836768Y5762935D01*
G37*
G36*
X1961768Y5762935D02*
G01*
X2000438Y5751204D01*
X2036077Y5732154D01*
X2067317Y5706517D01*
X2092954Y5675277D01*
X2112004Y5639638D01*
X2123735Y5600968D01*
X2128300Y5554612D01*
X2128300Y4478388D01*
X2123735Y4432032D01*
X2112004Y4393362D01*
X2092954Y4357723D01*
X2067317Y4326483D01*
X2036077Y4300846D01*
X2000438Y4281796D01*
X1961768Y4270065D01*
X1915412Y4265500D01*
X1264188Y4265500D01*
X1217832Y4270065D01*
X1179162Y4281796D01*
X1143523Y4300846D01*
X1112283Y4326483D01*
X1086646Y4357723D01*
X1067596Y4393362D01*
X1055865Y4432032D01*
X1051300Y4478388D01*
X1051300Y5554612D01*
X1055865Y5600968D01*
X1067596Y5639638D01*
X1086646Y5675277D01*
X1112283Y5706517D01*
X1143523Y5732154D01*
X1179162Y5751204D01*
X1217832Y5762935D01*
X1264188Y5767500D01*
X1915412Y5767500D01*
X1961768Y5762935D01*
X1961768Y5762935D01*
G37*
G36*
X-5264532Y6207435D02*
G01*
X-5225862Y6195704D01*
X-5190223Y6176654D01*
X-5158983Y6151017D01*
X-5133346Y6119777D01*
X-5114296Y6084138D01*
X-5102565Y6045468D01*
X-5098000Y5999112D01*
X-5098000Y4922888D01*
X-5102565Y4876532D01*
X-5114296Y4837862D01*
X-5133346Y4802223D01*
X-5158983Y4770983D01*
X-5190223Y4745346D01*
X-5225862Y4726296D01*
X-5264532Y4714565D01*
X-5310888Y4710000D01*
X-5962112Y4710000D01*
X-6008468Y4714565D01*
X-6047138Y4726296D01*
X-6082777Y4745346D01*
X-6114017Y4770983D01*
X-6139654Y4802223D01*
X-6158704Y4837862D01*
X-6170435Y4876532D01*
X-6175000Y4922888D01*
X-6175000Y5999112D01*
X-6170435Y6045468D01*
X-6158704Y6084138D01*
X-6139654Y6119777D01*
X-6114017Y6151017D01*
X-6082777Y6176654D01*
X-6047138Y6195704D01*
X-6008468Y6207435D01*
X-5962112Y6212000D01*
X-5310888Y6212000D01*
X-5264532Y6207435D01*
X-5264532Y6207435D01*
G37*
G36*
X-3389532Y6207435D02*
G01*
X-3350862Y6195704D01*
X-3315223Y6176654D01*
X-3283983Y6151017D01*
X-3258346Y6119777D01*
X-3239296Y6084138D01*
X-3227565Y6045468D01*
X-3223000Y5999112D01*
X-3223000Y4922888D01*
X-3227565Y4876532D01*
X-3239296Y4837862D01*
X-3258346Y4802223D01*
X-3283983Y4770983D01*
X-3315223Y4745346D01*
X-3350862Y4726296D01*
X-3389532Y4714565D01*
X-3435888Y4710000D01*
X-4087112Y4710000D01*
X-4133468Y4714565D01*
X-4172138Y4726296D01*
X-4207777Y4745346D01*
X-4239017Y4770983D01*
X-4264654Y4802223D01*
X-4283704Y4837862D01*
X-4295435Y4876532D01*
X-4300000Y4922888D01*
X-4300000Y5999112D01*
X-4295435Y6045468D01*
X-4283704Y6084138D01*
X-4264654Y6119777D01*
X-4239017Y6151017D01*
X-4207777Y6176654D01*
X-4172138Y6195704D01*
X-4133468Y6207435D01*
X-4087112Y6212000D01*
X-3435888Y6212000D01*
X-3389532Y6207435D01*
X-3389532Y6207435D01*
G37*
G36*
X-7834532Y6905935D02*
G01*
X-7795862Y6894204D01*
X-7760223Y6875154D01*
X-7728983Y6849517D01*
X-7703346Y6818277D01*
X-7684296Y6782638D01*
X-7672565Y6743968D01*
X-7668000Y6697612D01*
X-7668000Y5621388D01*
X-7672565Y5575032D01*
X-7684296Y5536362D01*
X-7703346Y5500723D01*
X-7728983Y5469483D01*
X-7760223Y5443846D01*
X-7795862Y5424796D01*
X-7834532Y5413065D01*
X-7880888Y5408500D01*
X-8532112Y5408500D01*
X-8578468Y5413065D01*
X-8617138Y5424796D01*
X-8652777Y5443846D01*
X-8684017Y5469483D01*
X-8709654Y5500723D01*
X-8728704Y5536362D01*
X-8740435Y5575032D01*
X-8745000Y5621388D01*
X-8745000Y6697612D01*
X-8740435Y6743968D01*
X-8728704Y6782638D01*
X-8709654Y6818277D01*
X-8684017Y6849517D01*
X-8652777Y6875154D01*
X-8617138Y6894204D01*
X-8578468Y6905935D01*
X-8532112Y6910500D01*
X-7880888Y6910500D01*
X-7834532Y6905935D01*
X-7834532Y6905935D01*
G37*
G36*
X-9709532Y6905935D02*
G01*
X-9670862Y6894204D01*
X-9635223Y6875154D01*
X-9603983Y6849517D01*
X-9578346Y6818277D01*
X-9559296Y6782638D01*
X-9547565Y6743968D01*
X-9543000Y6697612D01*
X-9543000Y5621388D01*
X-9547565Y5575032D01*
X-9559296Y5536362D01*
X-9578346Y5500723D01*
X-9603983Y5469483D01*
X-9635223Y5443846D01*
X-9670862Y5424796D01*
X-9709532Y5413065D01*
X-9755888Y5408500D01*
X-10407112Y5408500D01*
X-10453468Y5413065D01*
X-10492138Y5424796D01*
X-10527777Y5443846D01*
X-10559017Y5469483D01*
X-10584654Y5500723D01*
X-10603704Y5536362D01*
X-10615435Y5575032D01*
X-10620000Y5621388D01*
X-10620000Y6697612D01*
X-10615435Y6743968D01*
X-10603704Y6782638D01*
X-10584654Y6818277D01*
X-10559017Y6849517D01*
X-10527777Y6875154D01*
X-10492138Y6894204D01*
X-10453468Y6905935D01*
X-10407112Y6910500D01*
X-9755888Y6910500D01*
X-9709532Y6905935D01*
X-9709532Y6905935D01*
G37*
G36*
X3836768Y7769535D02*
G01*
X3875438Y7757804D01*
X3911077Y7738754D01*
X3942317Y7713117D01*
X3967954Y7681877D01*
X3987004Y7646238D01*
X3998735Y7607568D01*
X4003300Y7561212D01*
X4003300Y6484988D01*
X3998735Y6438632D01*
X3987004Y6399962D01*
X3967954Y6364323D01*
X3942317Y6333083D01*
X3911077Y6307446D01*
X3875438Y6288396D01*
X3836768Y6276665D01*
X3790412Y6272100D01*
X3139188Y6272100D01*
X3092832Y6276665D01*
X3054162Y6288396D01*
X3018523Y6307446D01*
X2987283Y6333083D01*
X2961646Y6364323D01*
X2942596Y6399962D01*
X2930865Y6438632D01*
X2926300Y6484988D01*
X2926300Y7561212D01*
X2930865Y7607568D01*
X2942596Y7646238D01*
X2961646Y7681877D01*
X2987283Y7713117D01*
X3018523Y7738754D01*
X3054162Y7757804D01*
X3092832Y7769535D01*
X3139188Y7774100D01*
X3790412Y7774100D01*
X3836768Y7769535D01*
X3836768Y7769535D01*
G37*
G36*
X1961768Y7769535D02*
G01*
X2000438Y7757804D01*
X2036077Y7738754D01*
X2067317Y7713117D01*
X2092954Y7681877D01*
X2112004Y7646238D01*
X2123735Y7607568D01*
X2128300Y7561212D01*
X2128300Y6484988D01*
X2123735Y6438632D01*
X2112004Y6399962D01*
X2092954Y6364323D01*
X2067317Y6333083D01*
X2036077Y6307446D01*
X2000438Y6288396D01*
X1961768Y6276665D01*
X1915412Y6272100D01*
X1264188Y6272100D01*
X1217832Y6276665D01*
X1179162Y6288396D01*
X1143523Y6307446D01*
X1112283Y6333083D01*
X1086646Y6364323D01*
X1067596Y6399962D01*
X1055865Y6438632D01*
X1051300Y6484988D01*
X1051300Y7561212D01*
X1055865Y7607568D01*
X1067596Y7646238D01*
X1086646Y7681877D01*
X1112283Y7713117D01*
X1143523Y7738754D01*
X1179162Y7757804D01*
X1217832Y7769535D01*
X1264188Y7774100D01*
X1915412Y7774100D01*
X1961768Y7769535D01*
X1961768Y7769535D01*
G37*
G36*
X-9709532Y8937935D02*
G01*
X-9670862Y8926204D01*
X-9635223Y8907154D01*
X-9603983Y8881517D01*
X-9578346Y8850277D01*
X-9559296Y8814638D01*
X-9547565Y8775968D01*
X-9543000Y8729612D01*
X-9543000Y7653388D01*
X-9547565Y7607032D01*
X-9559296Y7568362D01*
X-9578346Y7532723D01*
X-9603983Y7501483D01*
X-9635223Y7475846D01*
X-9670862Y7456796D01*
X-9709532Y7445065D01*
X-9755888Y7440500D01*
X-10407112Y7440500D01*
X-10453468Y7445065D01*
X-10492138Y7456796D01*
X-10527777Y7475846D01*
X-10559017Y7501483D01*
X-10584654Y7532723D01*
X-10603704Y7568362D01*
X-10615435Y7607032D01*
X-10620000Y7653388D01*
X-10620000Y8729612D01*
X-10615435Y8775968D01*
X-10603704Y8814638D01*
X-10584654Y8850277D01*
X-10559017Y8881517D01*
X-10527777Y8907154D01*
X-10492138Y8926204D01*
X-10453468Y8937935D01*
X-10407112Y8942500D01*
X-9755888Y8942500D01*
X-9709532Y8937935D01*
X-9709532Y8937935D01*
G37*
G36*
X-7834532Y8937935D02*
G01*
X-7795862Y8926204D01*
X-7760223Y8907154D01*
X-7728983Y8881517D01*
X-7703346Y8850277D01*
X-7684296Y8814638D01*
X-7672565Y8775968D01*
X-7668000Y8729612D01*
X-7668000Y7653388D01*
X-7672565Y7607032D01*
X-7684296Y7568362D01*
X-7703346Y7532723D01*
X-7728983Y7501483D01*
X-7760223Y7475846D01*
X-7795862Y7456796D01*
X-7834532Y7445065D01*
X-7880888Y7440500D01*
X-8532112Y7440500D01*
X-8578468Y7445065D01*
X-8617138Y7456796D01*
X-8652777Y7475846D01*
X-8684017Y7501483D01*
X-8709654Y7532723D01*
X-8728704Y7568362D01*
X-8740435Y7607032D01*
X-8745000Y7653388D01*
X-8745000Y8729612D01*
X-8740435Y8775968D01*
X-8728704Y8814638D01*
X-8709654Y8850277D01*
X-8684017Y8881517D01*
X-8652777Y8907154D01*
X-8617138Y8926204D01*
X-8578468Y8937935D01*
X-8532112Y8942500D01*
X-7880888Y8942500D01*
X-7834532Y8937935D01*
X-7834532Y8937935D01*
G37*
G36*
X4074300Y8504100D02*
G01*
X2972300Y8504100D01*
X2972300Y9606100D01*
X4074300Y9606100D01*
X4074300Y8504100D01*
X4074300Y8504100D01*
G37*
G36*
X1574300Y8504100D02*
G01*
X472300Y8504100D01*
X472300Y9606100D01*
X1574300Y9606100D01*
X1574300Y8504100D01*
X1574300Y8504100D01*
G37*
G36*
X-9709532Y10969935D02*
G01*
X-9670862Y10958204D01*
X-9635223Y10939154D01*
X-9603983Y10913517D01*
X-9578346Y10882277D01*
X-9559296Y10846638D01*
X-9547565Y10807968D01*
X-9543000Y10761612D01*
X-9543000Y9685388D01*
X-9547565Y9639032D01*
X-9559296Y9600362D01*
X-9578346Y9564723D01*
X-9603983Y9533483D01*
X-9635223Y9507846D01*
X-9670862Y9488796D01*
X-9709532Y9477065D01*
X-9755888Y9472500D01*
X-10407112Y9472500D01*
X-10453468Y9477065D01*
X-10492138Y9488796D01*
X-10527777Y9507846D01*
X-10559017Y9533483D01*
X-10584654Y9564723D01*
X-10603704Y9600362D01*
X-10615435Y9639032D01*
X-10620000Y9685388D01*
X-10620000Y10761612D01*
X-10615435Y10807968D01*
X-10603704Y10846638D01*
X-10584654Y10882277D01*
X-10559017Y10913517D01*
X-10527777Y10939154D01*
X-10492138Y10958204D01*
X-10453468Y10969935D01*
X-10407112Y10974500D01*
X-9755888Y10974500D01*
X-9709532Y10969935D01*
X-9709532Y10969935D01*
G37*
G36*
X-7834532Y10969935D02*
G01*
X-7795862Y10958204D01*
X-7760223Y10939154D01*
X-7728983Y10913517D01*
X-7703346Y10882277D01*
X-7684296Y10846638D01*
X-7672565Y10807968D01*
X-7668000Y10761612D01*
X-7668000Y9685388D01*
X-7672565Y9639032D01*
X-7684296Y9600362D01*
X-7703346Y9564723D01*
X-7728983Y9533483D01*
X-7760223Y9507846D01*
X-7795862Y9488796D01*
X-7834532Y9477065D01*
X-7880888Y9472500D01*
X-8532112Y9472500D01*
X-8578468Y9477065D01*
X-8617138Y9488796D01*
X-8652777Y9507846D01*
X-8684017Y9533483D01*
X-8709654Y9564723D01*
X-8728704Y9600362D01*
X-8740435Y9639032D01*
X-8745000Y9685388D01*
X-8745000Y10761612D01*
X-8740435Y10807968D01*
X-8728704Y10846638D01*
X-8709654Y10882277D01*
X-8684017Y10913517D01*
X-8652777Y10939154D01*
X-8617138Y10958204D01*
X-8578468Y10969935D01*
X-8532112Y10974500D01*
X-7880888Y10974500D01*
X-7834532Y10969935D01*
X-7834532Y10969935D01*
G37*
G36*
X-7834532Y13001935D02*
G01*
X-7795862Y12990204D01*
X-7760223Y12971154D01*
X-7728983Y12945517D01*
X-7703346Y12914277D01*
X-7684296Y12878638D01*
X-7672565Y12839968D01*
X-7668000Y12793612D01*
X-7668000Y11717388D01*
X-7672565Y11671032D01*
X-7684296Y11632362D01*
X-7703346Y11596723D01*
X-7728983Y11565483D01*
X-7760223Y11539846D01*
X-7795862Y11520796D01*
X-7834532Y11509065D01*
X-7880888Y11504500D01*
X-8532112Y11504500D01*
X-8578468Y11509065D01*
X-8617138Y11520796D01*
X-8652777Y11539846D01*
X-8684017Y11565483D01*
X-8709654Y11596723D01*
X-8728704Y11632362D01*
X-8740435Y11671032D01*
X-8745000Y11717388D01*
X-8745000Y12793612D01*
X-8740435Y12839968D01*
X-8728704Y12878638D01*
X-8709654Y12914277D01*
X-8684017Y12945517D01*
X-8652777Y12971154D01*
X-8617138Y12990204D01*
X-8578468Y13001935D01*
X-8532112Y13006500D01*
X-7880888Y13006500D01*
X-7834532Y13001935D01*
X-7834532Y13001935D01*
G37*
G36*
X-9709532Y13001935D02*
G01*
X-9670862Y12990204D01*
X-9635223Y12971154D01*
X-9603983Y12945517D01*
X-9578346Y12914277D01*
X-9559296Y12878638D01*
X-9547565Y12839968D01*
X-9543000Y12793612D01*
X-9543000Y11717388D01*
X-9547565Y11671032D01*
X-9559296Y11632362D01*
X-9578346Y11596723D01*
X-9603983Y11565483D01*
X-9635223Y11539846D01*
X-9670862Y11520796D01*
X-9709532Y11509065D01*
X-9755888Y11504500D01*
X-10407112Y11504500D01*
X-10453468Y11509065D01*
X-10492138Y11520796D01*
X-10527777Y11539846D01*
X-10559017Y11565483D01*
X-10584654Y11596723D01*
X-10603704Y11632362D01*
X-10615435Y11671032D01*
X-10620000Y11717388D01*
X-10620000Y12793612D01*
X-10615435Y12839968D01*
X-10603704Y12878638D01*
X-10584654Y12914277D01*
X-10559017Y12945517D01*
X-10527777Y12971154D01*
X-10492138Y12990204D01*
X-10453468Y13001935D01*
X-10407112Y13006500D01*
X-9755888Y13006500D01*
X-9709532Y13001935D01*
X-9709532Y13001935D01*
G37*
G36*
X8845494Y20297764D02*
G01*
X9072032Y20203928D01*
X9072034Y20203927D01*
X9275914Y20067699D01*
X9449299Y19894314D01*
X9585527Y19690434D01*
X9585528Y19690432D01*
X9679364Y19463894D01*
X9727200Y19223403D01*
X9727200Y18978197D01*
X9679364Y18737706D01*
X9585528Y18511168D01*
X9585527Y18511166D01*
X9449299Y18307286D01*
X9275914Y18133901D01*
X9072034Y17997673D01*
X9072033Y17997672D01*
X9072032Y17997672D01*
X8845494Y17903836D01*
X8605003Y17856000D01*
X8359797Y17856000D01*
X8119306Y17903836D01*
X7892768Y17997672D01*
X7892767Y17997672D01*
X7892766Y17997673D01*
X7688886Y18133901D01*
X7515501Y18307286D01*
X7379273Y18511166D01*
X7379272Y18511168D01*
X7285436Y18737706D01*
X7237600Y18978197D01*
X7237600Y19223403D01*
X7285436Y19463894D01*
X7379272Y19690432D01*
X7379273Y19690434D01*
X7515501Y19894314D01*
X7688886Y20067699D01*
X7892766Y20203927D01*
X7892768Y20203928D01*
X8119306Y20297764D01*
X8359797Y20345600D01*
X8605003Y20345600D01*
X8845494Y20297764D01*
X8845494Y20297764D01*
G37*
G36*
X5670494Y20297764D02*
G01*
X5897032Y20203928D01*
X5897034Y20203927D01*
X6100914Y20067699D01*
X6274299Y19894314D01*
X6410527Y19690434D01*
X6410528Y19690432D01*
X6504364Y19463894D01*
X6552200Y19223403D01*
X6552200Y18978197D01*
X6504364Y18737706D01*
X6410528Y18511168D01*
X6410527Y18511166D01*
X6274299Y18307286D01*
X6100914Y18133901D01*
X5897034Y17997673D01*
X5897033Y17997672D01*
X5897032Y17997672D01*
X5670494Y17903836D01*
X5430003Y17856000D01*
X5184797Y17856000D01*
X4944306Y17903836D01*
X4717768Y17997672D01*
X4717767Y17997672D01*
X4717766Y17997673D01*
X4513886Y18133901D01*
X4340501Y18307286D01*
X4204273Y18511166D01*
X4204272Y18511168D01*
X4110436Y18737706D01*
X4062600Y18978197D01*
X4062600Y19223403D01*
X4110436Y19463894D01*
X4204272Y19690432D01*
X4204273Y19690434D01*
X4340501Y19894314D01*
X4513886Y20067699D01*
X4717766Y20203927D01*
X4717768Y20203928D01*
X4944306Y20297764D01*
X5184797Y20345600D01*
X5430003Y20345600D01*
X5670494Y20297764D01*
X5670494Y20297764D01*
G37*
G36*
X10520228Y20940228D02*
G01*
X10557863Y20932742D01*
X10664217Y20888689D01*
X10759933Y20824733D01*
X10841333Y20743333D01*
X10905289Y20647617D01*
X10949342Y20541263D01*
X10949342Y20541262D01*
X10971800Y20428360D01*
X10971800Y20313240D01*
X10968721Y20297763D01*
X10949342Y20200337D01*
X10905289Y20093983D01*
X10841333Y19998267D01*
X10759933Y19916867D01*
X10664217Y19852911D01*
X10557863Y19808858D01*
X10520228Y19801372D01*
X10444960Y19786400D01*
X10329840Y19786400D01*
X10254572Y19801372D01*
X10216937Y19808858D01*
X10110583Y19852911D01*
X10014867Y19916867D01*
X9933467Y19998267D01*
X9869511Y20093983D01*
X9825458Y20200337D01*
X9806079Y20297763D01*
X9803000Y20313240D01*
X9803000Y20428360D01*
X9825458Y20541262D01*
X9825458Y20541263D01*
X9869511Y20647617D01*
X9933467Y20743333D01*
X10014867Y20824733D01*
X10110583Y20888689D01*
X10216937Y20932742D01*
X10254572Y20940228D01*
X10329840Y20955200D01*
X10444960Y20955200D01*
X10520228Y20940228D01*
X10520228Y20940228D01*
G37*
G36*
X5440228Y22210228D02*
G01*
X5477863Y22202742D01*
X5584217Y22158689D01*
X5679933Y22094733D01*
X5761333Y22013333D01*
X5825289Y21917617D01*
X5869342Y21811263D01*
X5891800Y21698358D01*
X5891800Y21583242D01*
X5869342Y21470337D01*
X5825289Y21363983D01*
X5761333Y21268267D01*
X5679933Y21186867D01*
X5584217Y21122911D01*
X5477863Y21078858D01*
X5440228Y21071372D01*
X5364960Y21056400D01*
X5249840Y21056400D01*
X5174572Y21071372D01*
X5136937Y21078858D01*
X5030583Y21122911D01*
X4934867Y21186867D01*
X4853467Y21268267D01*
X4789511Y21363983D01*
X4745458Y21470337D01*
X4723000Y21583242D01*
X4723000Y21698358D01*
X4745458Y21811263D01*
X4789511Y21917617D01*
X4853467Y22013333D01*
X4934867Y22094733D01*
X5030583Y22158689D01*
X5136937Y22202742D01*
X5174572Y22210228D01*
X5249840Y22225200D01*
X5364960Y22225200D01*
X5440228Y22210228D01*
X5440228Y22210228D01*
G37*
G36*
X-1872382Y23776580D02*
G01*
X-1791600Y23752075D01*
X-1749664Y23739354D01*
X-1636575Y23678906D01*
X-1537446Y23597554D01*
X-1456094Y23498425D01*
X-1395646Y23385336D01*
X-1395645Y23385332D01*
X-1358420Y23262618D01*
X-1349000Y23166973D01*
X-1349000Y22553027D01*
X-1358420Y22457382D01*
X-1377977Y22392911D01*
X-1395646Y22334664D01*
X-1456094Y22221575D01*
X-1537446Y22122447D01*
X-1636576Y22041094D01*
X-1749665Y21980646D01*
X-1781597Y21970960D01*
X-1872383Y21943420D01*
X-2000000Y21930851D01*
X-2127618Y21943420D01*
X-2218404Y21970960D01*
X-2250336Y21980646D01*
X-2363425Y22041094D01*
X-2462553Y22122446D01*
X-2543906Y22221576D01*
X-2604354Y22334665D01*
X-2614040Y22366597D01*
X-2641580Y22457383D01*
X-2651000Y22553028D01*
X-2651000Y23166973D01*
X-2641580Y23262618D01*
X-2604355Y23385332D01*
X-2604355Y23385333D01*
X-2545629Y23495200D01*
X-2543905Y23498426D01*
X-2530507Y23514751D01*
X-2462553Y23597554D01*
X-2363424Y23678906D01*
X-2250335Y23739354D01*
X-2208399Y23752075D01*
X-2127617Y23776580D01*
X-2000000Y23789149D01*
X-1872382Y23776580D01*
X-1872382Y23776580D01*
G37*
G36*
X-3872382Y23776580D02*
G01*
X-3791600Y23752075D01*
X-3749664Y23739354D01*
X-3636575Y23678906D01*
X-3537446Y23597554D01*
X-3456094Y23498425D01*
X-3395646Y23385336D01*
X-3395645Y23385332D01*
X-3358420Y23262618D01*
X-3349000Y23166973D01*
X-3349000Y22553027D01*
X-3358420Y22457382D01*
X-3377977Y22392911D01*
X-3395646Y22334664D01*
X-3456094Y22221575D01*
X-3537446Y22122447D01*
X-3636576Y22041094D01*
X-3749665Y21980646D01*
X-3781597Y21970960D01*
X-3872383Y21943420D01*
X-4000000Y21930851D01*
X-4127618Y21943420D01*
X-4218404Y21970960D01*
X-4250336Y21980646D01*
X-4363425Y22041094D01*
X-4462553Y22122446D01*
X-4543906Y22221576D01*
X-4604354Y22334665D01*
X-4614040Y22366597D01*
X-4641580Y22457383D01*
X-4651000Y22553028D01*
X-4651000Y23166973D01*
X-4641580Y23262618D01*
X-4604355Y23385332D01*
X-4604355Y23385333D01*
X-4545629Y23495200D01*
X-4543905Y23498426D01*
X-4530507Y23514751D01*
X-4462553Y23597554D01*
X-4363424Y23678906D01*
X-4250335Y23739354D01*
X-4208399Y23752075D01*
X-4127617Y23776580D01*
X-4000000Y23789149D01*
X-3872382Y23776580D01*
X-3872382Y23776580D01*
G37*
G36*
X-5872382Y23776580D02*
G01*
X-5791600Y23752075D01*
X-5749664Y23739354D01*
X-5636575Y23678906D01*
X-5537446Y23597554D01*
X-5456094Y23498425D01*
X-5395646Y23385336D01*
X-5395645Y23385332D01*
X-5358420Y23262618D01*
X-5349000Y23166973D01*
X-5349000Y22553027D01*
X-5358420Y22457382D01*
X-5377977Y22392911D01*
X-5395646Y22334664D01*
X-5456094Y22221575D01*
X-5537446Y22122447D01*
X-5636576Y22041094D01*
X-5749665Y21980646D01*
X-5781597Y21970960D01*
X-5872383Y21943420D01*
X-6000000Y21930851D01*
X-6127618Y21943420D01*
X-6218404Y21970960D01*
X-6250336Y21980646D01*
X-6363425Y22041094D01*
X-6462553Y22122446D01*
X-6543906Y22221576D01*
X-6604354Y22334665D01*
X-6614040Y22366597D01*
X-6641580Y22457383D01*
X-6651000Y22553028D01*
X-6651000Y23166973D01*
X-6641580Y23262618D01*
X-6604355Y23385332D01*
X-6604355Y23385333D01*
X-6545629Y23495200D01*
X-6543905Y23498426D01*
X-6530507Y23514751D01*
X-6462553Y23597554D01*
X-6363424Y23678906D01*
X-6250335Y23739354D01*
X-6208399Y23752075D01*
X-6127617Y23776580D01*
X-6000000Y23789149D01*
X-5872382Y23776580D01*
X-5872382Y23776580D01*
G37*
G36*
X-7872382Y23776580D02*
G01*
X-7791600Y23752075D01*
X-7749664Y23739354D01*
X-7636575Y23678906D01*
X-7537446Y23597554D01*
X-7456094Y23498425D01*
X-7395646Y23385336D01*
X-7395645Y23385332D01*
X-7358420Y23262618D01*
X-7349000Y23166973D01*
X-7349000Y22553027D01*
X-7358420Y22457382D01*
X-7377977Y22392911D01*
X-7395646Y22334664D01*
X-7456094Y22221575D01*
X-7537446Y22122447D01*
X-7636576Y22041094D01*
X-7749665Y21980646D01*
X-7781597Y21970960D01*
X-7872383Y21943420D01*
X-8000000Y21930851D01*
X-8127618Y21943420D01*
X-8218404Y21970960D01*
X-8250336Y21980646D01*
X-8363425Y22041094D01*
X-8462553Y22122446D01*
X-8543906Y22221576D01*
X-8604354Y22334665D01*
X-8614040Y22366597D01*
X-8641580Y22457383D01*
X-8651000Y22553028D01*
X-8651000Y23166973D01*
X-8641580Y23262618D01*
X-8604355Y23385332D01*
X-8604355Y23385333D01*
X-8545629Y23495200D01*
X-8543905Y23498426D01*
X-8530507Y23514751D01*
X-8462553Y23597554D01*
X-8363424Y23678906D01*
X-8250335Y23739354D01*
X-8208399Y23752075D01*
X-8127617Y23776580D01*
X-8000000Y23789149D01*
X-7872382Y23776580D01*
X-7872382Y23776580D01*
G37*
G36*
X-9872382Y23776580D02*
G01*
X-9791600Y23752075D01*
X-9749664Y23739354D01*
X-9636575Y23678906D01*
X-9537446Y23597554D01*
X-9456094Y23498425D01*
X-9395646Y23385336D01*
X-9395645Y23385332D01*
X-9358420Y23262618D01*
X-9349000Y23166973D01*
X-9349000Y22553027D01*
X-9358420Y22457382D01*
X-9377977Y22392911D01*
X-9395646Y22334664D01*
X-9456094Y22221575D01*
X-9537446Y22122447D01*
X-9636576Y22041094D01*
X-9749665Y21980646D01*
X-9781597Y21970960D01*
X-9872383Y21943420D01*
X-10000000Y21930851D01*
X-10127618Y21943420D01*
X-10218404Y21970960D01*
X-10250336Y21980646D01*
X-10363425Y22041094D01*
X-10462553Y22122446D01*
X-10543906Y22221576D01*
X-10604354Y22334665D01*
X-10614040Y22366597D01*
X-10641580Y22457383D01*
X-10651000Y22553028D01*
X-10651000Y23166973D01*
X-10641580Y23262618D01*
X-10604355Y23385332D01*
X-10604355Y23385333D01*
X-10545629Y23495200D01*
X-10543905Y23498426D01*
X-10530507Y23514751D01*
X-10462553Y23597554D01*
X-10363424Y23678906D01*
X-10250335Y23739354D01*
X-10208399Y23752075D01*
X-10127617Y23776580D01*
X-10000000Y23789149D01*
X-9872382Y23776580D01*
X-9872382Y23776580D01*
G37*
G36*
X491242Y23781596D02*
G01*
X528337Y23770343D01*
X562515Y23752075D01*
X592481Y23727481D01*
X617075Y23697515D01*
X635343Y23663337D01*
X646596Y23626242D01*
X651000Y23581526D01*
X651000Y22138474D01*
X646596Y22093758D01*
X635343Y22056663D01*
X617075Y22022485D01*
X592481Y21992519D01*
X562515Y21967925D01*
X528337Y21949657D01*
X491242Y21938404D01*
X446526Y21934000D01*
X-446526Y21934000D01*
X-491242Y21938404D01*
X-528337Y21949657D01*
X-562515Y21967925D01*
X-592481Y21992519D01*
X-617075Y22022485D01*
X-635343Y22056663D01*
X-646596Y22093758D01*
X-651000Y22138474D01*
X-651000Y23581526D01*
X-646596Y23626242D01*
X-635343Y23663337D01*
X-617075Y23697515D01*
X-592481Y23727481D01*
X-562515Y23752075D01*
X-528337Y23770343D01*
X-491242Y23781596D01*
X-446526Y23786000D01*
X446526Y23786000D01*
X491242Y23781596D01*
X491242Y23781596D01*
G37*
G36*
X10520228Y23480228D02*
G01*
X10557863Y23472742D01*
X10664217Y23428689D01*
X10759933Y23364733D01*
X10841333Y23283333D01*
X10905289Y23187617D01*
X10949342Y23081263D01*
X10949342Y23081262D01*
X10968722Y22983836D01*
X10971800Y22968358D01*
X10971800Y22853242D01*
X10949342Y22740337D01*
X10905289Y22633983D01*
X10841333Y22538267D01*
X10759933Y22456867D01*
X10664217Y22392911D01*
X10557863Y22348858D01*
X10520228Y22341372D01*
X10444960Y22326400D01*
X10329840Y22326400D01*
X10254572Y22341372D01*
X10216937Y22348858D01*
X10110583Y22392911D01*
X10014867Y22456867D01*
X9933467Y22538267D01*
X9869511Y22633983D01*
X9825458Y22740337D01*
X9803000Y22853242D01*
X9803000Y22968358D01*
X9806079Y22983836D01*
X9825458Y23081262D01*
X9825458Y23081263D01*
X9869511Y23187617D01*
X9933467Y23283333D01*
X10014867Y23364733D01*
X10110583Y23428689D01*
X10216937Y23472742D01*
X10254572Y23480228D01*
X10329840Y23495200D01*
X10444960Y23495200D01*
X10520228Y23480228D01*
X10520228Y23480228D01*
G37*
G36*
X5670494Y25377764D02*
G01*
X5897032Y25283928D01*
X5897034Y25283927D01*
X6100914Y25147699D01*
X6274299Y24974314D01*
X6410527Y24770434D01*
X6410528Y24770432D01*
X6504364Y24543894D01*
X6552200Y24303403D01*
X6552200Y24058197D01*
X6504364Y23817706D01*
X6425056Y23626242D01*
X6410527Y23591166D01*
X6274299Y23387286D01*
X6100914Y23213901D01*
X5897034Y23077673D01*
X5897033Y23077672D01*
X5897032Y23077672D01*
X5670494Y22983836D01*
X5430003Y22936000D01*
X5184797Y22936000D01*
X4944306Y22983836D01*
X4717768Y23077672D01*
X4717767Y23077672D01*
X4717766Y23077673D01*
X4513886Y23213901D01*
X4340501Y23387286D01*
X4204273Y23591166D01*
X4189744Y23626242D01*
X4110436Y23817706D01*
X4062600Y24058197D01*
X4062600Y24303403D01*
X4110436Y24543894D01*
X4204272Y24770432D01*
X4204273Y24770434D01*
X4340501Y24974314D01*
X4513886Y25147699D01*
X4717766Y25283927D01*
X4717768Y25283928D01*
X4944306Y25377764D01*
X5184797Y25425600D01*
X5430003Y25425600D01*
X5670494Y25377764D01*
X5670494Y25377764D01*
G37*
G36*
X8845494Y25377764D02*
G01*
X9072032Y25283928D01*
X9072034Y25283927D01*
X9275914Y25147699D01*
X9449299Y24974314D01*
X9585527Y24770434D01*
X9585528Y24770432D01*
X9679364Y24543894D01*
X9727200Y24303403D01*
X9727200Y24058197D01*
X9679364Y23817706D01*
X9600056Y23626242D01*
X9585527Y23591166D01*
X9449299Y23387286D01*
X9275914Y23213901D01*
X9072034Y23077673D01*
X9072033Y23077672D01*
X9072032Y23077672D01*
X8845494Y22983836D01*
X8605003Y22936000D01*
X8359797Y22936000D01*
X8119306Y22983836D01*
X7892768Y23077672D01*
X7892767Y23077672D01*
X7892766Y23077673D01*
X7688886Y23213901D01*
X7515501Y23387286D01*
X7379273Y23591166D01*
X7364744Y23626242D01*
X7285436Y23817706D01*
X7237600Y24058197D01*
X7237600Y24303403D01*
X7285436Y24543894D01*
X7379272Y24770432D01*
X7379273Y24770434D01*
X7515501Y24974314D01*
X7688886Y25147699D01*
X7892766Y25283927D01*
X7892768Y25283928D01*
X8119306Y25377764D01*
X8359797Y25425600D01*
X8605003Y25425600D01*
X8845494Y25377764D01*
X8845494Y25377764D01*
G37*
M02*
