M48
; DRILL file {KiCad (5.1.4)-1} date 6/9/2020 10:30:21 PM
; FORMAT={2:4/ absolute / inch / suppress leading zeros}
; #@! TF.CreationDate,2020-06-09T22:30:21-07:00
; #@! TF.GenerationSoftware,Kicad,Pcbnew,(5.1.4)-1
FMAT,2
INCH,TZ
T1C0.0118
T2C0.0280
T3C0.0295
T4C0.0900
T5C0.0420
T6C0.0940
%
G90
G05
T1
X-8500Y2500
X-8500Y1500
X-8500Y500
X-8500Y-500
X-8500Y-1500
X-8500Y-2500
X-8500Y-3500
X-8500Y-4500
X-7500Y2500
X-7500Y1500
X-7500Y500
X-7500Y-500
X-7500Y-1500
X-7500Y-2500
X-7500Y-3500
X-6500Y4500
X-6500Y3500
X-6500Y2500
X-6500Y1500
X-6500Y500
X-6500Y-500
X-6500Y-1500
X-6500Y-2500
X-6500Y-3500
X-6500Y-4500
X-6500Y-5500
X-5361Y-8575
X-5361Y-10514
X-5361Y-9152
X-5341Y-11824
X-5280Y4063
X-5276Y1760
X-5274Y-6856
X-5260Y3752
X-5247Y-11385
X-5225Y2925
X-5102Y5087
X-5062Y1555
X-4992Y1232
X-4954Y-13216
X-4823Y-13674
X-4787Y-4673
X-4720Y1880
X-4663Y-13162
X-4559Y1630
X-4500Y9500
X-4500Y8500
X-4500Y7500
X-4500Y6500
X-4500Y4500
X-4380Y-13278
X-4350Y3425
X-4250Y1200
X-4146Y-7426
X-4070Y-13307
X-4053Y-5234
X-3969Y4025
X-3969Y2425
X-3953Y-1512
X-3950Y1200
X-3881Y-12725
X-3861Y-11736
X-3819Y5480
X-3813Y-13160
X-3689Y-3236
X-3646Y1217
X-3600Y4440
X-3591Y2157
X-3586Y-12962
X-3579Y-1024
X-3500Y-5631
X-3386Y-4260
X-3375Y-9023
X-3300Y1200
X-3296Y-3025
X-3260Y5380
X-3207Y-12541
X-3186Y-8378
X-3179Y-7972
X-3162Y-13274
X-3123Y-7421
X-3024Y-3697
X-2960Y5380
X-2894Y-1622
X-2869Y-9023
X-2847Y1197
X-2732Y-8391
X-2660Y2120
X-2594Y157
X-2594Y3449
X-2594Y2421
X-2556Y4316
X-2500Y7500
X-2500Y6500
X-2500Y-500
X-2500Y-1500
X-2500Y-2500
X-2500Y-4500
X-2434Y-11227
X-2379Y1220
X-2350Y-7684
X-2300Y5380
X-2227Y-10461
X-2189Y3134
X-2094Y3626
X-1980Y4260
X-1963Y-10829
X-1950Y-10081
X-1882Y-7045
X-1873Y5542
X-1829Y-14434
X-1827Y-3689
X-1824Y-8133
X-1780Y5160
X-1737Y-7436
X-1728Y469
X-1650Y-9075
X-1606Y-5008
X-1598Y1484
X-1500Y-500
X-1500Y-4500
X-1481Y2150
X-1375Y-11800
X-1375Y-12475
X-1350Y-11125
X-1134Y-11469
X-1134Y-12144
X-1040Y3764
X-1040Y3468
X-1040Y3140
X-1014Y-8115
X-1012Y2559
X-1004Y-9187
X-1000Y-9700
X-1000Y-10100
X-925Y-11125
X-925Y-11800
X-925Y-12475
X-906Y-7387
X-874Y-3302
X-872Y-14400
X-845Y-7849
X-822Y-8378
X-725Y-11469
X-725Y-12144
X-642Y1374
X-641Y-9886
X-612Y-8110
X-500Y7500
X-500Y6500
X-500Y5500
X-500Y3500
X-500Y-4500
X-500Y-12850
X-425Y-8375
X-379Y4184
X-336Y-10794
X-300Y-9700
X-300Y-10100
X26Y-14372
X59Y-9886
X73Y-5375
X161Y3039
X196Y5390
X226Y-3036
X234Y5096
X256Y-9185
X300Y5680
X340Y4820
X400Y-9700
X400Y-10100
X467Y-10723
X500Y7500
X500Y6500
X500Y-3500
X500Y-4500
X600Y1580
X759Y-9886
X834Y-14114
X952Y-14410
X964Y-405
X1080Y6120
X1100Y-5000
X1100Y-9700
X1100Y-10100
X1200Y-1950
X1200Y-2550
X1200Y-3150
X1280Y4600
X1315Y8917
X1337Y-9255
X1350Y-2250
X1350Y-2850
X1364Y2765
X1374Y-9865
X1500Y6500
X1500Y1500
X1550Y-1950
X1550Y-2550
X1550Y-3150
X1689Y-618
X1724Y114
X1800Y-1200
X1800Y-9700
X1800Y-10100
X1941Y-14390
X1950Y-6825
X1950Y-7225
X1950Y-7636
X1950Y-8075
X2125Y-13133
X2275Y-7011
X2275Y-7450
X2275Y-7850
X2500Y2500
X2500Y1500
X2625Y-7225
X2625Y-7636
X2625Y-8075
X2720Y9165
X2724Y7890
X2744Y6437
X2791Y610
X2851Y-13870
X2910Y-6982
X2949Y-9057
X2950Y-7450
X2950Y-7850
X3160Y-13887
X3200Y-541
X3256Y-7247
X3316Y-10303
X3325Y-8050
X3480Y-7009
X3500Y6500
X3500Y3500
X3500Y2500
X3500Y1500
X3500Y-3500
X3567Y654
X3636Y-13149
X3819Y4433
X3906Y-9588
X3949Y-7400
X3980Y-1278
X4262Y-13853
X4384Y-12883
X4500Y9500
X4500Y8500
X4500Y7500
X4500Y6500
X4500Y4500
X4500Y3500
X4500Y2500
X4500Y1500
X4500Y-500
X4500Y-1500
X4500Y-2500
X4500Y-3500
X4500Y-4500
X4563Y5283
X4823Y331
X5016Y-9545
X5050Y-5872
X5055Y-6385
X5055Y-7148
X5064Y-7589
X5074Y-10700
X5094Y-12086
X5141Y-13296
X5175Y-8340
X5500Y4500
X5500Y3500
X5500Y2500
X5500Y1500
X5500Y500
X5500Y-500
X5500Y-1500
X5500Y-2500
X5500Y-3500
X5500Y-4500
X5500Y-5500
X6500Y4500
X6500Y3500
X6500Y2500
X6500Y1500
X6500Y500
X6500Y-500
X6500Y-1500
X6500Y-2500
X6500Y-3500
X6500Y-4500
X6500Y-5500
X7500Y2500
X7500Y1500
X7500Y-1500
X7500Y-2500
X7500Y-3500
X7512Y-531
X7535Y504
X8500Y2500
X8500Y1500
X8500Y500
X8500Y-500
X8500Y-1500
X8500Y-2500
X8500Y-3500
X8500Y-4500
T2
X-1750Y-13233
X-1750Y-13733
X-1250Y-13233
X-1250Y-13733
X-750Y-13233
X-750Y-13733
X-250Y-13233
X-250Y-13733
X250Y-13233
X250Y-13733
X750Y-13233
X750Y-13733
X1250Y-13233
X1250Y-13733
X1750Y-13233
X1750Y-13733
T3
X-3937Y9000
X-3150Y9000
X-2362Y9000
X-1575Y9000
X-787Y9000
X0Y9000
T4
X-7750Y4000
X-7750Y-5450
X7750Y4000
X7750Y-5450
T5
X2090Y8520
X4090Y9020
X4090Y8020
T6
X2090Y9520
X2090Y7520
X3340Y9520
X3340Y7520
T0
M30
