G04 #@! TF.GenerationSoftware,KiCad,Pcbnew,(5.1.4)-1*
G04 #@! TF.CreationDate,2020-06-09T22:28:14-07:00*
G04 #@! TF.ProjectId,SkateLightMainBoard,536b6174-654c-4696-9768-744d61696e42,rev?*
G04 #@! TF.SameCoordinates,Original*
G04 #@! TF.FileFunction,Copper,L2,Inr*
G04 #@! TF.FilePolarity,Positive*
%FSLAX46Y46*%
G04 Gerber Fmt 4.6, Leading zero omitted, Abs format (unit mm)*
G04 Created by KiCad (PCBNEW (5.1.4)-1) date 2020-06-09 22:28:14*
%MOMM*%
%LPD*%
G04 APERTURE LIST*
%ADD10C,4.318000*%
%ADD11C,1.016000*%
%ADD12C,0.100000*%
%ADD13C,1.200000*%
%ADD14O,1.200000X1.750000*%
%ADD15C,0.600000*%
%ADD16C,0.500000*%
%ADD17C,0.200000*%
%ADD18C,0.152400*%
%ADD19C,0.350000*%
%ADD20C,0.254000*%
G04 APERTURE END LIST*
D10*
X19685000Y10160000D03*
X19685000Y-13843000D03*
X-19685000Y-13843000D03*
X-19685000Y10160000D03*
D11*
X-4445000Y-33613000D03*
X-4445000Y-34883000D03*
X-3175000Y-33613000D03*
X-3175000Y-34883000D03*
X-1905000Y-33613000D03*
X-1905000Y-34883000D03*
X-635000Y-33613000D03*
X-635000Y-34883000D03*
X635000Y-33613000D03*
X635000Y-34883000D03*
X1905000Y-33613000D03*
X1905000Y-34883000D03*
X3175000Y-33613000D03*
X3175000Y-34883000D03*
X4445000Y-33613000D03*
X4445000Y-34883000D03*
D12*
G36*
X374505Y23733796D02*
G01*
X398773Y23730196D01*
X422572Y23724235D01*
X445671Y23715970D01*
X467850Y23705480D01*
X488893Y23692868D01*
X508599Y23678253D01*
X526777Y23661777D01*
X543253Y23643599D01*
X557868Y23623893D01*
X570480Y23602850D01*
X580970Y23580671D01*
X589235Y23557572D01*
X595196Y23533773D01*
X598796Y23509505D01*
X600000Y23485001D01*
X600000Y22234999D01*
X598796Y22210495D01*
X595196Y22186227D01*
X589235Y22162428D01*
X580970Y22139329D01*
X570480Y22117150D01*
X557868Y22096107D01*
X543253Y22076401D01*
X526777Y22058223D01*
X508599Y22041747D01*
X488893Y22027132D01*
X467850Y22014520D01*
X445671Y22004030D01*
X422572Y21995765D01*
X398773Y21989804D01*
X374505Y21986204D01*
X350001Y21985000D01*
X-350001Y21985000D01*
X-374505Y21986204D01*
X-398773Y21989804D01*
X-422572Y21995765D01*
X-445671Y22004030D01*
X-467850Y22014520D01*
X-488893Y22027132D01*
X-508599Y22041747D01*
X-526777Y22058223D01*
X-543253Y22076401D01*
X-557868Y22096107D01*
X-570480Y22117150D01*
X-580970Y22139329D01*
X-589235Y22162428D01*
X-595196Y22186227D01*
X-598796Y22210495D01*
X-600000Y22234999D01*
X-600000Y23485001D01*
X-598796Y23509505D01*
X-595196Y23533773D01*
X-589235Y23557572D01*
X-580970Y23580671D01*
X-570480Y23602850D01*
X-557868Y23623893D01*
X-543253Y23643599D01*
X-526777Y23661777D01*
X-508599Y23678253D01*
X-488893Y23692868D01*
X-467850Y23705480D01*
X-445671Y23715970D01*
X-422572Y23724235D01*
X-398773Y23730196D01*
X-374505Y23733796D01*
X-350001Y23735000D01*
X350001Y23735000D01*
X374505Y23733796D01*
X374505Y23733796D01*
G37*
D13*
X0Y22860000D03*
D14*
X-2000000Y22860000D03*
X-4000000Y22860000D03*
X-6000000Y22860000D03*
X-8000000Y22860000D03*
X-10000000Y22860000D03*
D15*
X-8074660Y-20248880D03*
X-2880000Y-29130500D03*
X-1841500Y-29130500D03*
X-2349500Y-28257500D03*
X-2349500Y-29972000D03*
X-2349500Y-31686500D03*
X-2880000Y-30845000D03*
X-1841500Y-30845000D03*
X-3429000Y-28257500D03*
X-3492500Y-31686500D03*
X-13566140Y-30032960D03*
X-12250420Y-34731960D03*
X-8031480Y-33715960D03*
X8445500Y-20447000D03*
X9920000Y-24354000D03*
X13144500Y-21183600D03*
X12862560Y-19276060D03*
X12839700Y-18155920D03*
X12839700Y-16217900D03*
X12827000Y-14914880D03*
X12887960Y-27178000D03*
X12938760Y-30698440D03*
X13058140Y-33771840D03*
X10825480Y-35186620D03*
X11135360Y-32722820D03*
X8422640Y-26169620D03*
X-4645660Y-36662360D03*
X-6939280Y-21313140D03*
X-8092440Y-21280120D03*
X-5969000Y-19517360D03*
X-4632960Y-20657820D03*
X-4411980Y-18887440D03*
X-4191000Y-23050500D03*
X650240Y-23329900D03*
X-2575560Y-20612100D03*
X-1554480Y-20599400D03*
X-2146300Y-19936460D03*
X-2087880Y-21280120D03*
X-1079500Y-21272500D03*
X-2301240Y-18762980D03*
X3395980Y-23507700D03*
X-2550160Y-23334980D03*
X-13616854Y-21779829D03*
X-13616220Y-26704387D03*
X2418080Y-36601400D03*
X66040Y-36504880D03*
X-2214880Y-36576000D03*
X-3492500Y-29972000D03*
X12740000Y-24244000D03*
X-16510000Y-13970000D03*
X13970000Y-13970000D03*
X16510000Y-13970000D03*
X-21590000Y-11430000D03*
X-16510000Y-11430000D03*
X-6350000Y-11430000D03*
X-3810000Y-11430000D03*
X-1270000Y-11430000D03*
X1270000Y-11430000D03*
X11430000Y-11430000D03*
X13970000Y-11430000D03*
X16510000Y-11430000D03*
X21590000Y-11430000D03*
X-21590000Y-8890000D03*
X-19050000Y-8890000D03*
X-16510000Y-8890000D03*
X-4640000Y-9370000D03*
X8890000Y-8890000D03*
X11430000Y-8890000D03*
X13970000Y-8890000D03*
X16510000Y-8890000D03*
X19050000Y-8890000D03*
X21590000Y-8890000D03*
X-21590000Y-6350000D03*
X-19050000Y-6350000D03*
X-16510000Y-6350000D03*
X-6350000Y-6350000D03*
X11430000Y-6350000D03*
X13970000Y-6350000D03*
X16510000Y-6350000D03*
X19050000Y-6350000D03*
X21590000Y-6350000D03*
X-21590000Y-3810000D03*
X-19050000Y-3810000D03*
X-16510000Y-3810000D03*
X-6350000Y-3810000D03*
X11430000Y-3810000D03*
X13970000Y-3810000D03*
X16510000Y-3810000D03*
X19050000Y-3810000D03*
X21590000Y-3810000D03*
X-21590000Y-1270000D03*
X-19050000Y-1270000D03*
X-16510000Y-1270000D03*
X-6350000Y-1270000D03*
X-3810000Y-1270000D03*
X4290000Y-1570000D03*
X11430000Y-1270000D03*
X13970000Y-1270000D03*
X16510000Y-1270000D03*
X19080000Y-1350000D03*
X21590000Y-1270000D03*
X-21590000Y1270000D03*
X-19050000Y1270000D03*
X-16510000Y1270000D03*
X-4390000Y1190000D03*
X4380000Y290000D03*
X7090000Y1550000D03*
X9060000Y1660000D03*
X12250000Y840000D03*
X13970000Y1270000D03*
X16510000Y1270000D03*
X19140000Y1280000D03*
X21590000Y1270000D03*
X-21590000Y3810000D03*
X-19050000Y3810000D03*
X-16510000Y3810000D03*
X-1630000Y3490000D03*
X3810000Y3810000D03*
X6350000Y3810000D03*
X8890000Y3810000D03*
X11430000Y3810000D03*
X13970000Y3810000D03*
X16510000Y3810000D03*
X19050000Y3810000D03*
X21590000Y3810000D03*
X-21590000Y6350000D03*
X-19050000Y6350000D03*
X-16510000Y6350000D03*
X6350000Y6350000D03*
X8890000Y6350000D03*
X11430000Y6350000D03*
X13970000Y6350000D03*
X16510000Y6350000D03*
X19050000Y6350000D03*
X21590000Y6350000D03*
X-16510000Y8890000D03*
X-1270000Y8890000D03*
X-5320000Y9210000D03*
X8890000Y8890000D03*
X11430000Y8890000D03*
X13970000Y8890000D03*
X16510000Y8890000D03*
X-16510000Y11430000D03*
X11430000Y11430000D03*
X13970000Y11430000D03*
X16510000Y11430000D03*
X-1270000Y13970000D03*
X11590000Y13420000D03*
X-11430000Y16510000D03*
X-6350000Y16510000D03*
X-1270000Y16510000D03*
X1270000Y16510000D03*
X3810000Y16510000D03*
X6970000Y16350000D03*
X8890000Y16510000D03*
X11430000Y16510000D03*
X-11430000Y19050000D03*
X-6350000Y19050000D03*
X-1270000Y19050000D03*
X1270000Y19050000D03*
X11430000Y19050000D03*
X-11430000Y21590000D03*
X11430000Y21590000D03*
X-11430000Y24130000D03*
X11430000Y24130000D03*
X-7680000Y-9390000D03*
X7490000Y-23004000D03*
X-4060000Y3770000D03*
X4572000Y-3048000D03*
X2794000Y-12700000D03*
X3048000Y-4953000D03*
X3937000Y-4953000D03*
X3429000Y-5715000D03*
X3937000Y-8001000D03*
X3048000Y-8001000D03*
X3429000Y-7239000D03*
X3937000Y-6477000D03*
X3048000Y-6477000D03*
X10030000Y-18796000D03*
X-13616143Y-23245867D03*
X2448800Y-1028700D03*
X-11430000Y11430000D03*
X-9857559Y-32321828D03*
X-10081500Y10223500D03*
X-3761500Y5461000D03*
X-12160000Y-11870000D03*
X10109200Y-3246600D03*
X-10081500Y6159500D03*
X-12960000Y12920000D03*
X-11988800Y4775200D03*
X8128000Y-1373900D03*
X-11578657Y4141048D03*
X5397500Y-33357820D03*
X2118360Y-35849560D03*
X-10795000Y3048000D03*
X-4953000Y-25605500D03*
X1187410Y-27235968D03*
X-12582522Y-33568974D03*
X-9700000Y13920000D03*
X-10338894Y-33799777D03*
X498166Y13691388D03*
X-4756915Y14076620D03*
X-13400000Y4470000D03*
X-5842000Y13665200D03*
X-9685524Y-33426639D03*
X-7518400Y13665200D03*
X593504Y12945051D03*
X-12857242Y3948923D03*
X-9109027Y-32924067D03*
X-6492794Y10963194D03*
X863600Y12242800D03*
X-12680000Y3130000D03*
X-8371600Y-7683500D03*
X573500Y-7710500D03*
X-9370000Y-8220000D03*
X-2220000Y-8385900D03*
X-13326213Y-28917991D03*
X-7231415Y3041415D03*
X-13396856Y-17414000D03*
X-8601012Y-10821012D03*
X-2641600Y9559997D03*
X-9090000Y-2600000D03*
X-2641600Y8807594D03*
X-6590000Y400000D03*
X-2641600Y7975600D03*
X-7350000Y-4120000D03*
X-10040000Y-3840000D03*
X-5560000Y7960000D03*
X-11049000Y8699500D03*
X6920000Y20040000D03*
X8026400Y-35273100D03*
X-9259891Y3091336D03*
X9700000Y11260000D03*
X-6589395Y8760000D03*
X-9120000Y5480000D03*
X4930000Y-36550000D03*
X-962255Y10626790D03*
X3340000Y22650000D03*
X-5029200Y10820400D03*
X6910000Y23280000D03*
X-6756400Y5384800D03*
X3251200Y11684000D03*
X2743200Y15544800D03*
X-2570000Y6500000D03*
X-8280400Y13665200D03*
X762000Y14427200D03*
X-7286817Y-22918901D03*
X-9806940Y-29809440D03*
X-4985042Y-27506856D03*
X-6182360Y-28516580D03*
X8270240Y-18407380D03*
X6667500Y-18351500D03*
X6667500Y-20510500D03*
X7493000Y-18923000D03*
X6667500Y-19396500D03*
X7493000Y-19939000D03*
X4953000Y-17335500D03*
X5778500Y-17809000D03*
X5778500Y-19939000D03*
X5778500Y-18923000D03*
X4953000Y-20510500D03*
X4953000Y-19396500D03*
X4953000Y-18351500D03*
X184190Y-13652500D03*
X7391400Y-17734280D03*
X-10294576Y-13295424D03*
X-8573183Y-22918901D03*
X-8890000Y-14302500D03*
X4572000Y-24638000D03*
X4572000Y-25654000D03*
X2794000Y-25654000D03*
X1929000Y-25111500D03*
X2794000Y-24638000D03*
X1016000Y-25654000D03*
X151000Y-25111500D03*
X1016000Y-24638000D03*
X-762000Y-25654000D03*
X-762000Y-24638000D03*
X-1627000Y-25111500D03*
X-2540000Y-24638000D03*
X-2540000Y-25654000D03*
X3488788Y-25056116D03*
X-8145780Y-31854402D03*
X-5656580Y-26570940D03*
X-854098Y-27416000D03*
X-7931175Y-18849738D03*
X-10530000Y-18862408D03*
X8840000Y-17804000D03*
X-4521200Y13106400D03*
X410000Y7720000D03*
X-4780000Y-17894000D03*
X-6589394Y6149394D03*
X3464800Y7023100D03*
X-4080000Y-12720000D03*
X-1270000Y-32639000D03*
X-8382000Y3048000D03*
X9235378Y-33399373D03*
X1270000Y-8890000D03*
X-6043822Y3098893D03*
X1524000Y4013200D03*
X-11124497Y-33727310D03*
X-13360000Y9530000D03*
X-11842996Y-33430324D03*
X-13410000Y10320000D03*
X-13271500Y7429500D03*
X7241540Y-35229800D03*
X-10033000Y3048000D03*
X-9144000Y11277600D03*
D16*
X-8029857Y-32556803D02*
X-8482933Y-32556803D01*
X-8482933Y-32556803D02*
X-9017907Y-32021829D01*
X-9017907Y-32021829D02*
X-9557560Y-32021829D01*
X-9557560Y-32021829D02*
X-9857559Y-32321828D01*
D17*
X-10000000Y15255436D02*
X-12335436Y12920000D01*
X-10000000Y22860000D02*
X-10000000Y15255436D01*
X-12335436Y12920000D02*
X-12960000Y12920000D01*
D16*
X-10157558Y-32021829D02*
X-9857559Y-32321828D01*
X-12160000Y-13393992D02*
X-9827599Y-15726393D01*
X-12160000Y-11870000D02*
X-12160000Y-13393992D01*
X-9827599Y-28790543D02*
X-10509342Y-29472286D01*
X-10509342Y-29472286D02*
X-10509342Y-31670045D01*
X-9827599Y-15726393D02*
X-9827599Y-28790543D01*
X-10509342Y-31670045D02*
X-10157558Y-32021829D01*
X-3175000Y-35601420D02*
X-3175000Y-34883000D01*
X-3366981Y-35793401D02*
X-3175000Y-35601420D01*
X-4881993Y-35793401D02*
X-3366981Y-35793401D01*
X-5942330Y-34733064D02*
X-4881993Y-35793401D01*
X-5942330Y-34644330D02*
X-5942330Y-34733064D01*
X-5942330Y-34644330D02*
X-8029857Y-32556803D01*
D17*
X5520358Y-24177894D02*
X-1131052Y-17526484D01*
X-1131052Y-17526484D02*
X-3593516Y-17526484D01*
X-3593516Y-17526484D02*
X-3687050Y-17526484D01*
X-8889329Y-13340207D02*
X-7847331Y-13340207D01*
X-12149643Y2229291D02*
X-12149643Y-10079893D01*
X-12149643Y-10079893D02*
X-8889329Y-13340207D01*
X-7847331Y-13340207D02*
X-3661055Y-17526483D01*
X-3661055Y-17526483D02*
X-3593516Y-17526484D01*
X-11578657Y2800277D02*
X-12149643Y2229291D01*
X-11578657Y4141048D02*
X-11578657Y2800277D01*
X5520358Y-28686242D02*
X5520358Y-27770358D01*
X635000Y-33571600D02*
X5520358Y-28686242D01*
X5520358Y-27770358D02*
X5520358Y-24177894D01*
X388960Y-35849560D02*
X-635000Y-34825600D01*
X2118360Y-35849560D02*
X388960Y-35849560D01*
X5872767Y-32882553D02*
X5872767Y-24031919D01*
X-8743356Y-12987796D02*
X-11797232Y-9933920D01*
X5397500Y-33357820D02*
X5872767Y-32882553D01*
X5872767Y-24031919D02*
X-985079Y-17174073D01*
X-985079Y-17174073D02*
X-3515081Y-17174073D01*
X-11797232Y-9933920D02*
X-11797232Y2045768D01*
X-7701358Y-12987796D02*
X-8743356Y-12987796D01*
X-11094999Y2748001D02*
X-10795000Y3048000D01*
X-3515081Y-17174073D02*
X-7701358Y-12987796D01*
X-11797232Y2045768D02*
X-11094999Y2748001D01*
X-12773805Y-28534313D02*
X-12698701Y-28459209D01*
X-12773805Y-32953427D02*
X-12773805Y-28534313D01*
X-12698701Y-20003181D02*
X-12844456Y-19857426D01*
X-12582522Y-33568974D02*
X-12582522Y-33144710D01*
X-12698701Y-28459209D02*
X-12698701Y-20003181D01*
X-12582522Y-33144710D02*
X-12773805Y-32953427D01*
X-14696513Y-15075916D02*
X-14696513Y10060541D01*
X-14696513Y10060541D02*
X-11131530Y13625524D01*
X-10250001Y13620001D02*
X-10255524Y13625524D01*
X-9999999Y13620001D02*
X-10250001Y13620001D01*
X-9700000Y13920000D02*
X-9999999Y13620001D01*
X-11131530Y13625524D02*
X-10255524Y13625524D01*
X-12844456Y-16927974D02*
X-12921215Y-16851215D01*
X-12844456Y-19857426D02*
X-12844456Y-16927974D01*
X-12844456Y-16927973D02*
X-12921215Y-16851215D01*
X-12921215Y-16851215D02*
X-14696513Y-15075916D01*
X-11628769Y-28884429D02*
X-11628769Y-19577961D01*
X-10338894Y-33799777D02*
X-10338894Y-33654815D01*
X-11716574Y-32277135D02*
X-11716573Y-28972233D01*
X-11716573Y-28972233D02*
X-11628769Y-28884429D01*
X-10338894Y-33654815D02*
X-11716574Y-32277135D01*
X-11628769Y-19577961D02*
X-11787223Y-19419507D01*
X-11787223Y-19419507D02*
X-11787223Y-15474053D01*
X-11787223Y-15474053D02*
X-13639283Y-13621993D01*
X-13639283Y-13621993D02*
X-13639283Y4230717D01*
X-13639283Y4230717D02*
X-13400000Y4470000D01*
X-11207583Y-28961627D02*
X-11207583Y-19500763D01*
X-11207583Y-19500763D02*
X-11434812Y-19273534D01*
X-11364163Y-29118207D02*
X-11207583Y-28961627D01*
X-11434812Y-19273534D02*
X-11434812Y-15328080D01*
X-11364164Y-32103401D02*
X-11364163Y-29118207D01*
X-9685524Y-33426639D02*
X-9885523Y-33226640D01*
X-11434812Y-15328080D02*
X-13286873Y-13476019D01*
X-10240926Y-33226639D02*
X-11364164Y-32103401D01*
X-9885523Y-33226640D02*
X-10240926Y-33226639D01*
X-13286873Y-13476019D02*
X-13286873Y3519292D01*
X-13286873Y3519292D02*
X-12857242Y3948923D01*
X-11082401Y-19127561D02*
X-11082401Y-15182107D01*
X-10681206Y-28933634D02*
X-10681206Y-19528756D01*
X-11011753Y-29264181D02*
X-10681206Y-28933634D01*
X-9158865Y-32874229D02*
X-10094952Y-32874229D01*
X-11082401Y-15182107D02*
X-12934462Y-13330046D01*
X-10681206Y-19528756D02*
X-11082401Y-19127561D01*
X-11011753Y-31957428D02*
X-11011753Y-29264181D01*
X-9109027Y-32924067D02*
X-9158865Y-32874229D01*
X-10094952Y-32874229D02*
X-11011753Y-31957428D01*
X-12934462Y-13330046D02*
X-12934463Y-9740000D01*
X-12934463Y-9740000D02*
X-12934463Y2875537D01*
X-12934463Y2875537D02*
X-12680000Y3130000D01*
X-13051112Y-28218626D02*
X-13326213Y-28493727D01*
X-13725597Y-19474669D02*
X-13051112Y-20149154D01*
X-13051112Y-20149154D02*
X-13051112Y-28218626D01*
X-13326213Y-28493727D02*
X-13326213Y-28917991D01*
X-13725597Y-17742741D02*
X-13396856Y-17414000D01*
X-13725597Y-18528403D02*
X-13725597Y-17742741D01*
X-13725597Y-18528403D02*
X-13725597Y-19474669D01*
X-9891556Y-9530468D02*
X-8601012Y-10821012D01*
X-10387590Y-5005144D02*
X-10387590Y-9324030D01*
X-9487599Y-4105153D02*
X-10387590Y-5005144D01*
X-10181152Y-9530468D02*
X-9891556Y-9530468D01*
X-10387590Y-9324030D02*
X-10181152Y-9530468D01*
X-7231415Y2758585D02*
X-10027590Y-37590D01*
X-10027590Y-37590D02*
X-10027590Y-3034856D01*
X-7231415Y3041415D02*
X-7231415Y2758585D01*
X-10027590Y-3034856D02*
X-9487599Y-3574847D01*
X-9487599Y-3574847D02*
X-9487599Y-4105153D01*
X-9090000Y-2175736D02*
X-9320000Y-1945736D01*
X-9090000Y-2600000D02*
X-9090000Y-2175736D01*
X-9320000Y-1945736D02*
X-9320000Y-326764D01*
X-9320000Y-326764D02*
X-6546618Y2446618D01*
X-5878543Y2446618D02*
X-5491421Y2833740D01*
X-6546618Y2446618D02*
X-5878543Y2446618D01*
X-3065864Y9559997D02*
X-2641600Y9559997D01*
X-5491421Y7134440D02*
X-3065864Y9559997D01*
X-5491421Y2833740D02*
X-5491421Y7134440D01*
X-6590000Y1236778D02*
X-5139011Y2687767D01*
X-6590000Y400000D02*
X-6590000Y1236778D01*
X-5139011Y2687767D02*
X-5139011Y6988468D01*
X-3319885Y8807594D02*
X-2641600Y8807594D01*
X-5139011Y6988468D02*
X-3319885Y8807594D01*
X-3653497Y7975600D02*
X-2641600Y7975600D01*
X-7350000Y-1380000D02*
X-5950000Y20000D01*
X-7350000Y-4120000D02*
X-7350000Y-1380000D01*
X-5950000Y20000D02*
X-5950000Y1378396D01*
X-5950000Y1378396D02*
X-4786601Y2541794D01*
X-4786601Y2541794D02*
X-4786601Y6842496D01*
X-4786601Y6842496D02*
X-3653497Y7975600D01*
X-10040000Y-3840000D02*
X-10380000Y-3500000D01*
X-10380000Y-3500000D02*
X-10380000Y530000D01*
X-10380000Y530000D02*
X-8570000Y2340000D01*
X-8272446Y2340000D02*
X-7800000Y2812446D01*
X-8570000Y2340000D02*
X-8272446Y2340000D01*
X-7800000Y5720000D02*
X-5560000Y7960000D01*
X-7800000Y2812446D02*
X-7800000Y5720000D01*
X6920000Y21191186D02*
X5481186Y22630000D01*
X6920000Y20040000D02*
X6920000Y21191186D01*
X-2000000Y23135000D02*
X-2000000Y22860000D01*
X-1147590Y23987410D02*
X-2000000Y23135000D01*
X2820144Y23987410D02*
X-1147590Y23987410D01*
X4177554Y22630000D02*
X2820144Y23987410D01*
X5481186Y22630000D02*
X4177554Y22630000D01*
X-2852410Y23987410D02*
X-2000000Y23135000D01*
X-8353079Y23987410D02*
X-2852410Y23987410D01*
X-8979306Y23361183D02*
X-8353079Y23987410D01*
X-8979306Y12259848D02*
X-8979306Y23361183D01*
X-11049000Y10190154D02*
X-8979306Y12259848D01*
X-11049000Y8699500D02*
X-11049000Y10190154D01*
X1905000Y-34825600D02*
X3203277Y-36123877D01*
X-6589395Y8760000D02*
X-9120000Y6229395D01*
X-9120000Y6229395D02*
X-9120000Y5480000D01*
X8026400Y-35078784D02*
X8026400Y-35273100D01*
X6577589Y-23739973D02*
X6577589Y-33629973D01*
X-693133Y-16469251D02*
X6577589Y-23739973D01*
X-3223135Y-16469251D02*
X-693133Y-16469251D01*
X-7202975Y-12489413D02*
X-3223135Y-16469251D01*
X-7409412Y-12282975D02*
X-7202975Y-12489413D01*
X6577589Y-33629973D02*
X8026400Y-35078784D01*
X-8418643Y-12282975D02*
X-7409412Y-12282975D01*
X-9259891Y2667072D02*
X-11092411Y834552D01*
X-9259891Y3091336D02*
X-9259891Y2667072D01*
X-11092411Y834552D02*
X-11092411Y-9615973D01*
X-11092411Y-9615973D02*
X-9711047Y-10997337D01*
X-9711047Y-10997337D02*
X-9704280Y-10997338D01*
X-9704280Y-10997338D02*
X-8418643Y-12282975D01*
X4503877Y-36123877D02*
X4930000Y-36550000D01*
X3526123Y-36123877D02*
X4503877Y-36123877D01*
X3203277Y-36123877D02*
X3526123Y-36123877D01*
X-962255Y10626790D02*
X-4000000Y13664535D01*
X-987410Y21732590D02*
X-4000000Y18720000D01*
X-4000000Y13664535D02*
X-4000000Y18720000D01*
X-4000000Y18720000D02*
X-4000000Y22860000D01*
X2422590Y21732590D02*
X2082590Y21732590D01*
X3340000Y22650000D02*
X2422590Y21732590D01*
X2082590Y21732590D02*
X-987410Y21732590D01*
X-8000000Y14964354D02*
X-8000000Y22860000D01*
X-5029200Y10820400D02*
X-5029200Y11993554D01*
X-5029200Y11993554D02*
X-8000000Y14964354D01*
X-2570000Y6500000D02*
X160000Y6500000D01*
X962401Y7302401D02*
X962401Y11052401D01*
X160000Y6500000D02*
X962401Y7302401D01*
X2743200Y12833200D02*
X2743200Y15544800D01*
X962401Y11052401D02*
X2743200Y12833200D01*
X-7286817Y-22918901D02*
X-7286817Y-26504386D01*
X-7286817Y-26504386D02*
X-7286817Y-27289317D01*
X-7286817Y-27289317D02*
X-9806940Y-29809440D01*
X-5393856Y-27506856D02*
X-4985042Y-27506856D01*
D18*
X-5393856Y-27506856D02*
X-5393856Y-27728076D01*
X-5393856Y-27728076D02*
X-6182360Y-28516580D01*
D19*
X-8890000Y-22602084D02*
X-8573183Y-22918901D01*
X-8890000Y-14302500D02*
X-8890000Y-22602084D01*
D16*
X-5656580Y-26570940D02*
X-5656580Y-21153120D01*
X-5656580Y-21153120D02*
X-7952740Y-18856960D01*
X-7952740Y-18856960D02*
X-7952740Y-18793460D01*
D17*
X410000Y8175200D02*
X-4521200Y13106400D01*
X410000Y7720000D02*
X410000Y8175200D01*
X-6203999Y5763999D02*
X-6589394Y6149394D01*
X-6203999Y4756001D02*
X-6203999Y5763999D01*
X-6596223Y4363777D02*
X-6203999Y4756001D01*
X-6596223Y2895395D02*
X-6596223Y4363777D01*
X-9675180Y-183562D02*
X-6596223Y2895395D01*
X-9135189Y-3428874D02*
X-9675180Y-2888884D01*
X-9135189Y-4251126D02*
X-9135189Y-3428874D01*
X-10035180Y-5151116D02*
X-9135189Y-4251126D01*
X-9675180Y-2888884D02*
X-9675180Y-183562D01*
X-10035180Y-8834820D02*
X-10035180Y-5151116D01*
X-6817811Y-11786659D02*
X-6817811Y-11877811D01*
X-10035180Y-8834820D02*
X-10035180Y-8888462D01*
X-10035180Y-8888462D02*
X-8655031Y-10268611D01*
X-8655031Y-10268611D02*
X-8335859Y-10268611D01*
X-8335859Y-10268611D02*
X-6817811Y-11786659D01*
X-4212811Y-12852811D02*
X-4080000Y-12720000D01*
X-5842811Y-12852811D02*
X-4212811Y-12852811D01*
X-5842811Y-12852811D02*
X-6817811Y-11877811D01*
X-3175000Y-33555600D02*
X-2258400Y-32639000D01*
X-2258400Y-32639000D02*
X-1270000Y-32639000D01*
X6930000Y-23594000D02*
X6930000Y-31093995D01*
X-3077165Y-16116840D02*
X-542840Y-16116840D01*
X-7263438Y-11930567D02*
X-3077165Y-16116840D01*
X6930000Y-31093995D02*
X9235378Y-33399373D01*
X-7555384Y-11930565D02*
X-7263438Y-11930567D01*
X-542840Y-16116840D02*
X5176777Y-21836457D01*
X-9558307Y-10644929D02*
X-8272671Y-11930565D01*
X5176777Y-21840777D02*
X6930000Y-23594000D01*
X5176777Y-21836457D02*
X5176777Y-21840777D01*
X-8681999Y2748001D02*
X-8681999Y2728001D01*
X-8382000Y3048000D02*
X-8681999Y2748001D01*
X-8272671Y-11930565D02*
X-7555384Y-11930565D01*
X-10740000Y670000D02*
X-10740000Y-9470002D01*
X-10740000Y-9470002D02*
X-9565073Y-10644929D01*
X-8681999Y2728001D02*
X-10740000Y670000D01*
X-9565073Y-10644929D02*
X-9558307Y-10644929D01*
X-2242400Y-32639000D02*
X-3175000Y-33571600D01*
X-1270000Y-32639000D02*
X-2242400Y-32639000D01*
X-11124497Y-33367596D02*
X-12068985Y-32423108D01*
X-12068985Y-28826261D02*
X-11981180Y-28738456D01*
X-12139634Y-19565480D02*
X-12139634Y-15620027D01*
X-12139634Y-15620027D02*
X-13991693Y-13767968D01*
X-11124497Y-33727310D02*
X-11124497Y-33367596D01*
X-11981180Y-28738456D02*
X-11981180Y-19723934D01*
X-11981180Y-19723934D02*
X-12139634Y-19565480D01*
X-12068985Y-32423108D02*
X-12068985Y-28826261D01*
X-13991693Y-13767968D02*
X-13991693Y8898307D01*
X-13991693Y8898307D02*
X-13360000Y9530000D01*
X-12492045Y-15766000D02*
X-14344103Y-13913942D01*
X-12421396Y-32721103D02*
X-12421395Y-28680287D01*
X-12142995Y-32999504D02*
X-12421396Y-32721103D01*
X-11842996Y-33430324D02*
X-12142995Y-33130325D01*
X-12492045Y-19711453D02*
X-12492045Y-15766000D01*
X-12421395Y-28680287D02*
X-12333591Y-28592483D01*
X-12142995Y-33130325D02*
X-12142995Y-32999504D01*
X-12333591Y-28592483D02*
X-12333591Y-19869907D01*
X-12333591Y-19869907D02*
X-12492045Y-19711453D01*
X-14344103Y-13913942D02*
X-14344103Y9385897D01*
X-14344103Y9385897D02*
X-13410000Y10320000D01*
X-12582052Y-10145866D02*
X-12507020Y-10220898D01*
X-13271500Y5144394D02*
X-12107040Y3979934D01*
X-12107040Y3979934D02*
X-12107040Y2770277D01*
X-13271500Y7429500D02*
X-13271500Y5144394D01*
X-12107040Y2770277D02*
X-12582052Y2295265D01*
X-12582052Y-9802052D02*
X-12582052Y-10145866D01*
X-12582052Y2295265D02*
X-12582052Y-9802052D01*
X-9039298Y-13692618D02*
X-8023298Y-13692618D01*
X-3837021Y-17878895D02*
X-1377293Y-17878895D01*
X5167947Y-27752653D02*
X-635000Y-33555600D01*
X5167947Y-24424135D02*
X5167947Y-27752653D01*
X-12582052Y-9802052D02*
X-12582052Y-10149864D01*
X-1377293Y-17878895D02*
X5167947Y-24424135D01*
X-8023298Y-13692618D02*
X-3837021Y-17878895D01*
X-12582052Y-10149864D02*
X-9039298Y-13692618D01*
X6225178Y-23885946D02*
X6225178Y-34213438D01*
X-839106Y-16821662D02*
X6225178Y-23885946D01*
X-10033000Y3048000D02*
X-10033000Y2623736D01*
X6225178Y-34213438D02*
X6941541Y-34929801D01*
X-3369108Y-16821662D02*
X-839106Y-16821662D01*
X-11444822Y1211914D02*
X-11444822Y-9761948D01*
X6941541Y-34929801D02*
X7241540Y-35229800D01*
X-10033000Y2623736D02*
X-11444822Y1211914D01*
X-11444822Y-9761948D02*
X-9857023Y-11349747D01*
X-9857023Y-11349747D02*
X-9850253Y-11349747D01*
X-8564615Y-12635385D02*
X-7555385Y-12635385D01*
X-7555385Y-12635385D02*
X-3369108Y-16821662D01*
X-9850253Y-11349747D02*
X-8564615Y-12635385D01*
D20*
G36*
X-1246614Y-35384938D02*
G01*
X-1136938Y-35494614D01*
X-1007974Y-35580785D01*
X-864676Y-35640141D01*
X-712552Y-35670400D01*
X-557448Y-35670400D01*
X-405324Y-35640141D01*
X-371162Y-35625991D01*
X107510Y-36104663D01*
X119386Y-36119134D01*
X133857Y-36131010D01*
X133858Y-36131011D01*
X177156Y-36166545D01*
X205237Y-36181554D01*
X243068Y-36201775D01*
X314585Y-36223470D01*
X370328Y-36228960D01*
X370330Y-36228960D01*
X388959Y-36230795D01*
X407588Y-36228960D01*
X1678365Y-36228960D01*
X1749014Y-36299609D01*
X1843911Y-36363017D01*
X1949355Y-36406694D01*
X2061294Y-36428960D01*
X2175426Y-36428960D01*
X2287365Y-36406694D01*
X2392809Y-36363017D01*
X2487706Y-36299609D01*
X2568409Y-36218906D01*
X2631817Y-36124009D01*
X2642080Y-36099233D01*
X2921825Y-36378978D01*
X2933703Y-36393451D01*
X2948174Y-36405327D01*
X2948175Y-36405328D01*
X2991473Y-36440862D01*
X3026703Y-36459692D01*
X3057385Y-36476092D01*
X3128902Y-36497787D01*
X3184645Y-36503277D01*
X3184648Y-36503277D01*
X3203277Y-36505112D01*
X3221906Y-36503277D01*
X4346725Y-36503277D01*
X4350600Y-36507152D01*
X4350600Y-36607066D01*
X4372866Y-36719005D01*
X4416543Y-36824449D01*
X4479951Y-36919346D01*
X4560654Y-37000049D01*
X4655551Y-37063457D01*
X4736771Y-37097100D01*
X-5255612Y-37097100D01*
X-5272760Y-37095419D01*
X-5274935Y-37094762D01*
X-5276941Y-37093695D01*
X-5278703Y-37092258D01*
X-5280150Y-37090509D01*
X-5281230Y-37088512D01*
X-5281903Y-37086337D01*
X-5283600Y-37070193D01*
X-5283600Y-36140479D01*
X-5274718Y-36149361D01*
X-5258146Y-36169554D01*
X-5237953Y-36186126D01*
X-5237949Y-36186130D01*
X-5177536Y-36235710D01*
X-5125234Y-36263666D01*
X-5085566Y-36284869D01*
X-4985773Y-36315141D01*
X-4907996Y-36322801D01*
X-4907986Y-36322801D01*
X-4881993Y-36325361D01*
X-4856000Y-36322801D01*
X-3392974Y-36322801D01*
X-3366981Y-36325361D01*
X-3340988Y-36322801D01*
X-3340978Y-36322801D01*
X-3263201Y-36315141D01*
X-3163408Y-36284869D01*
X-3071439Y-36235710D01*
X-2990828Y-36169554D01*
X-2974251Y-36149355D01*
X-2819046Y-35994150D01*
X-2798847Y-35977573D01*
X-2732691Y-35896962D01*
X-2683532Y-35804993D01*
X-2653260Y-35705200D01*
X-2645600Y-35627423D01*
X-2645600Y-35627414D01*
X-2643040Y-35601421D01*
X-2645600Y-35575428D01*
X-2645600Y-35467152D01*
X-2563386Y-35384938D01*
X-2540000Y-35349938D01*
X-2516614Y-35384938D01*
X-2406938Y-35494614D01*
X-2277974Y-35580785D01*
X-2134676Y-35640141D01*
X-1982552Y-35670400D01*
X-1827448Y-35670400D01*
X-1675324Y-35640141D01*
X-1532026Y-35580785D01*
X-1403062Y-35494614D01*
X-1293386Y-35384938D01*
X-1270000Y-35349938D01*
X-1246614Y-35384938D01*
X-1246614Y-35384938D01*
G37*
X-1246614Y-35384938D02*
X-1136938Y-35494614D01*
X-1007974Y-35580785D01*
X-864676Y-35640141D01*
X-712552Y-35670400D01*
X-557448Y-35670400D01*
X-405324Y-35640141D01*
X-371162Y-35625991D01*
X107510Y-36104663D01*
X119386Y-36119134D01*
X133857Y-36131010D01*
X133858Y-36131011D01*
X177156Y-36166545D01*
X205237Y-36181554D01*
X243068Y-36201775D01*
X314585Y-36223470D01*
X370328Y-36228960D01*
X370330Y-36228960D01*
X388959Y-36230795D01*
X407588Y-36228960D01*
X1678365Y-36228960D01*
X1749014Y-36299609D01*
X1843911Y-36363017D01*
X1949355Y-36406694D01*
X2061294Y-36428960D01*
X2175426Y-36428960D01*
X2287365Y-36406694D01*
X2392809Y-36363017D01*
X2487706Y-36299609D01*
X2568409Y-36218906D01*
X2631817Y-36124009D01*
X2642080Y-36099233D01*
X2921825Y-36378978D01*
X2933703Y-36393451D01*
X2948174Y-36405327D01*
X2948175Y-36405328D01*
X2991473Y-36440862D01*
X3026703Y-36459692D01*
X3057385Y-36476092D01*
X3128902Y-36497787D01*
X3184645Y-36503277D01*
X3184648Y-36503277D01*
X3203277Y-36505112D01*
X3221906Y-36503277D01*
X4346725Y-36503277D01*
X4350600Y-36507152D01*
X4350600Y-36607066D01*
X4372866Y-36719005D01*
X4416543Y-36824449D01*
X4479951Y-36919346D01*
X4560654Y-37000049D01*
X4655551Y-37063457D01*
X4736771Y-37097100D01*
X-5255612Y-37097100D01*
X-5272760Y-37095419D01*
X-5274935Y-37094762D01*
X-5276941Y-37093695D01*
X-5278703Y-37092258D01*
X-5280150Y-37090509D01*
X-5281230Y-37088512D01*
X-5281903Y-37086337D01*
X-5283600Y-37070193D01*
X-5283600Y-36140479D01*
X-5274718Y-36149361D01*
X-5258146Y-36169554D01*
X-5237953Y-36186126D01*
X-5237949Y-36186130D01*
X-5177536Y-36235710D01*
X-5125234Y-36263666D01*
X-5085566Y-36284869D01*
X-4985773Y-36315141D01*
X-4907996Y-36322801D01*
X-4907986Y-36322801D01*
X-4881993Y-36325361D01*
X-4856000Y-36322801D01*
X-3392974Y-36322801D01*
X-3366981Y-36325361D01*
X-3340988Y-36322801D01*
X-3340978Y-36322801D01*
X-3263201Y-36315141D01*
X-3163408Y-36284869D01*
X-3071439Y-36235710D01*
X-2990828Y-36169554D01*
X-2974251Y-36149355D01*
X-2819046Y-35994150D01*
X-2798847Y-35977573D01*
X-2732691Y-35896962D01*
X-2683532Y-35804993D01*
X-2653260Y-35705200D01*
X-2645600Y-35627423D01*
X-2645600Y-35627414D01*
X-2643040Y-35601421D01*
X-2645600Y-35575428D01*
X-2645600Y-35467152D01*
X-2563386Y-35384938D01*
X-2540000Y-35349938D01*
X-2516614Y-35384938D01*
X-2406938Y-35494614D01*
X-2277974Y-35580785D01*
X-2134676Y-35640141D01*
X-1982552Y-35670400D01*
X-1827448Y-35670400D01*
X-1675324Y-35640141D01*
X-1532026Y-35580785D01*
X-1403062Y-35494614D01*
X-1293386Y-35384938D01*
X-1270000Y-35349938D01*
X-1246614Y-35384938D01*
G36*
X1293386Y-34114938D02*
G01*
X1403062Y-34224614D01*
X1438062Y-34248000D01*
X1403062Y-34271386D01*
X1293386Y-34381062D01*
X1207215Y-34510026D01*
X1147859Y-34653324D01*
X1117600Y-34805448D01*
X1117600Y-34960552D01*
X1147859Y-35112676D01*
X1207215Y-35255974D01*
X1293386Y-35384938D01*
X1378608Y-35470160D01*
X546113Y-35470160D01*
X133172Y-35057219D01*
X152400Y-34960552D01*
X152400Y-34805448D01*
X122141Y-34653324D01*
X62785Y-34510026D01*
X-23386Y-34381062D01*
X-133062Y-34271386D01*
X-168062Y-34248000D01*
X-133062Y-34224614D01*
X-23386Y-34114938D01*
X0Y-34079938D01*
X23386Y-34114938D01*
X133062Y-34224614D01*
X262026Y-34310785D01*
X405324Y-34370141D01*
X557448Y-34400400D01*
X712552Y-34400400D01*
X864676Y-34370141D01*
X1007974Y-34310785D01*
X1136938Y-34224614D01*
X1246614Y-34114938D01*
X1270000Y-34079938D01*
X1293386Y-34114938D01*
X1293386Y-34114938D01*
G37*
X1293386Y-34114938D02*
X1403062Y-34224614D01*
X1438062Y-34248000D01*
X1403062Y-34271386D01*
X1293386Y-34381062D01*
X1207215Y-34510026D01*
X1147859Y-34653324D01*
X1117600Y-34805448D01*
X1117600Y-34960552D01*
X1147859Y-35112676D01*
X1207215Y-35255974D01*
X1293386Y-35384938D01*
X1378608Y-35470160D01*
X546113Y-35470160D01*
X133172Y-35057219D01*
X152400Y-34960552D01*
X152400Y-34805448D01*
X122141Y-34653324D01*
X62785Y-34510026D01*
X-23386Y-34381062D01*
X-133062Y-34271386D01*
X-168062Y-34248000D01*
X-133062Y-34224614D01*
X-23386Y-34114938D01*
X0Y-34079938D01*
X23386Y-34114938D01*
X133062Y-34224614D01*
X262026Y-34310785D01*
X405324Y-34370141D01*
X557448Y-34400400D01*
X712552Y-34400400D01*
X864676Y-34370141D01*
X1007974Y-34310785D01*
X1136938Y-34224614D01*
X1246614Y-34114938D01*
X1270000Y-34079938D01*
X1293386Y-34114938D01*
G36*
X10643282Y26062755D02*
G01*
X11108159Y25922400D01*
X11536914Y25694426D01*
X11913229Y25387511D01*
X12222762Y25013351D01*
X12453725Y24586194D01*
X12597321Y24122308D01*
X12649588Y23625027D01*
X12649601Y23621226D01*
X12649600Y13955055D01*
X12650922Y13941631D01*
X12650878Y13935318D01*
X12651293Y13931088D01*
X12672020Y13733886D01*
X12677571Y13706841D01*
X12682737Y13679761D01*
X12683965Y13675692D01*
X12742600Y13486271D01*
X12753305Y13460803D01*
X12763627Y13435256D01*
X12765617Y13431513D01*
X12765621Y13431504D01*
X12765626Y13431497D01*
X12859933Y13257080D01*
X12875365Y13234201D01*
X12890468Y13211122D01*
X12893154Y13207828D01*
X13019548Y13055044D01*
X13039162Y13035566D01*
X13058427Y13015893D01*
X13061696Y13013188D01*
X13061702Y13013182D01*
X13061709Y13013178D01*
X13215364Y12887859D01*
X13238361Y12872579D01*
X13261108Y12857005D01*
X13264846Y12854983D01*
X13439924Y12761892D01*
X13465485Y12751356D01*
X13490792Y12740510D01*
X13494844Y12739255D01*
X13494850Y12739253D01*
X13494856Y12739252D01*
X13684678Y12681942D01*
X13711741Y12676583D01*
X13738726Y12670847D01*
X13742947Y12670404D01*
X13742955Y12670402D01*
X13742963Y12670402D01*
X13940295Y12651053D01*
X13940301Y12651053D01*
X13955054Y12649600D01*
X19670115Y12649600D01*
X20168282Y12600755D01*
X20633159Y12460400D01*
X21061914Y12232426D01*
X21438229Y11925511D01*
X21747762Y11551351D01*
X21978725Y11124194D01*
X22122321Y10660308D01*
X22174588Y10163027D01*
X22174600Y10159513D01*
X22174601Y-13828105D01*
X22125755Y-14326282D01*
X21985401Y-14791158D01*
X21757426Y-15219914D01*
X21450512Y-15596229D01*
X21076351Y-15905762D01*
X20649194Y-16136725D01*
X20185308Y-16280321D01*
X19688026Y-16332588D01*
X19684513Y-16332600D01*
X15098054Y-16332600D01*
X15084630Y-16333922D01*
X15078318Y-16333878D01*
X15074088Y-16334293D01*
X14876886Y-16355020D01*
X14849841Y-16360571D01*
X14822761Y-16365737D01*
X14818697Y-16366964D01*
X14818691Y-16366965D01*
X14818685Y-16366967D01*
X14629271Y-16425600D01*
X14603826Y-16436296D01*
X14578256Y-16446627D01*
X14574503Y-16448622D01*
X14400080Y-16542933D01*
X14377182Y-16558378D01*
X14354122Y-16573468D01*
X14350828Y-16576154D01*
X14198044Y-16702548D01*
X14178583Y-16722146D01*
X14158893Y-16741427D01*
X14156183Y-16744702D01*
X14030859Y-16898364D01*
X14015569Y-16921377D01*
X14000005Y-16944108D01*
X13997986Y-16947842D01*
X13997983Y-16947846D01*
X13997983Y-16947847D01*
X13904892Y-17122924D01*
X13894361Y-17148473D01*
X13883510Y-17173792D01*
X13882255Y-17177844D01*
X13882253Y-17177850D01*
X13882253Y-17177852D01*
X13824942Y-17367678D01*
X13819580Y-17394756D01*
X13813847Y-17421727D01*
X13813404Y-17425947D01*
X13813402Y-17425955D01*
X13813402Y-17425963D01*
X13794053Y-17623295D01*
X13794053Y-17623311D01*
X13792601Y-17638054D01*
X13792600Y-32941615D01*
X13743755Y-33439782D01*
X13603401Y-33904658D01*
X13375426Y-34333414D01*
X13068512Y-34709729D01*
X12694351Y-35019262D01*
X12267194Y-35250225D01*
X11803308Y-35393821D01*
X11306026Y-35446088D01*
X11302513Y-35446100D01*
X8581879Y-35446100D01*
X8583534Y-35442105D01*
X8605800Y-35330166D01*
X8605800Y-35216034D01*
X8583534Y-35104095D01*
X8539857Y-34998651D01*
X8476449Y-34903754D01*
X8395746Y-34823051D01*
X8300849Y-34759643D01*
X8203480Y-34719311D01*
X6956989Y-33472821D01*
X6956989Y-31657536D01*
X8655978Y-33356526D01*
X8655978Y-33456439D01*
X8678244Y-33568378D01*
X8721921Y-33673822D01*
X8785329Y-33768719D01*
X8866032Y-33849422D01*
X8960929Y-33912830D01*
X9066373Y-33956507D01*
X9178312Y-33978773D01*
X9292444Y-33978773D01*
X9404383Y-33956507D01*
X9509827Y-33912830D01*
X9604724Y-33849422D01*
X9685427Y-33768719D01*
X9748835Y-33673822D01*
X9792512Y-33568378D01*
X9814778Y-33456439D01*
X9814778Y-33342307D01*
X9792512Y-33230368D01*
X9748835Y-33124924D01*
X9685427Y-33030027D01*
X9604724Y-32949324D01*
X9509827Y-32885916D01*
X9404383Y-32842239D01*
X9292444Y-32819973D01*
X9192531Y-32819973D01*
X7309400Y-30936843D01*
X7309400Y-23612629D01*
X7311235Y-23594000D01*
X7308769Y-23568961D01*
X7303910Y-23519625D01*
X7287264Y-23464753D01*
X7282215Y-23448107D01*
X7246985Y-23382196D01*
X7211451Y-23338898D01*
X7211450Y-23338897D01*
X7199574Y-23324426D01*
X7185104Y-23312551D01*
X5478004Y-21605452D01*
X5458228Y-21581355D01*
X5458227Y-21581354D01*
X5446351Y-21566883D01*
X5431881Y-21555008D01*
X4966773Y-21089900D01*
X5010066Y-21089900D01*
X5122005Y-21067634D01*
X5227449Y-21023957D01*
X5322346Y-20960549D01*
X5403049Y-20879846D01*
X5466457Y-20784949D01*
X5510134Y-20679505D01*
X5532400Y-20567566D01*
X5532400Y-20464200D01*
X5609495Y-20496134D01*
X5721434Y-20518400D01*
X5835566Y-20518400D01*
X5947505Y-20496134D01*
X6052949Y-20452457D01*
X6093712Y-20425220D01*
X6088100Y-20453434D01*
X6088100Y-20567566D01*
X6110366Y-20679505D01*
X6154043Y-20784949D01*
X6217451Y-20879846D01*
X6298154Y-20960549D01*
X6393051Y-21023957D01*
X6498495Y-21067634D01*
X6610434Y-21089900D01*
X6724566Y-21089900D01*
X6836505Y-21067634D01*
X6941949Y-21023957D01*
X7036846Y-20960549D01*
X7117549Y-20879846D01*
X7180957Y-20784949D01*
X7224634Y-20679505D01*
X7246900Y-20567566D01*
X7246900Y-20464200D01*
X7323995Y-20496134D01*
X7435934Y-20518400D01*
X7550066Y-20518400D01*
X7662005Y-20496134D01*
X7767449Y-20452457D01*
X7862346Y-20389049D01*
X7943049Y-20308346D01*
X8006457Y-20213449D01*
X8050134Y-20108005D01*
X8072400Y-19996066D01*
X8072400Y-19881934D01*
X8050134Y-19769995D01*
X8006457Y-19664551D01*
X7943049Y-19569654D01*
X7862346Y-19488951D01*
X7775616Y-19431000D01*
X7862346Y-19373049D01*
X7943049Y-19292346D01*
X8006457Y-19197449D01*
X8050134Y-19092005D01*
X8072400Y-18980066D01*
X8072400Y-18952570D01*
X8101235Y-18964514D01*
X8213174Y-18986780D01*
X8327306Y-18986780D01*
X8439245Y-18964514D01*
X8544689Y-18920837D01*
X8639586Y-18857429D01*
X8720289Y-18776726D01*
X8745540Y-18738934D01*
X9450600Y-18738934D01*
X9450600Y-18853066D01*
X9472866Y-18965005D01*
X9516543Y-19070449D01*
X9579951Y-19165346D01*
X9660654Y-19246049D01*
X9755551Y-19309457D01*
X9860995Y-19353134D01*
X9972934Y-19375400D01*
X10087066Y-19375400D01*
X10199005Y-19353134D01*
X10304449Y-19309457D01*
X10399346Y-19246049D01*
X10480049Y-19165346D01*
X10543457Y-19070449D01*
X10587134Y-18965005D01*
X10609400Y-18853066D01*
X10609400Y-18738934D01*
X10587134Y-18626995D01*
X10543457Y-18521551D01*
X10480049Y-18426654D01*
X10399346Y-18345951D01*
X10304449Y-18282543D01*
X10199005Y-18238866D01*
X10087066Y-18216600D01*
X9972934Y-18216600D01*
X9860995Y-18238866D01*
X9755551Y-18282543D01*
X9660654Y-18345951D01*
X9579951Y-18426654D01*
X9516543Y-18521551D01*
X9472866Y-18626995D01*
X9450600Y-18738934D01*
X8745540Y-18738934D01*
X8783697Y-18681829D01*
X8827374Y-18576385D01*
X8849640Y-18464446D01*
X8849640Y-18383400D01*
X8897066Y-18383400D01*
X9009005Y-18361134D01*
X9114449Y-18317457D01*
X9209346Y-18254049D01*
X9290049Y-18173346D01*
X9353457Y-18078449D01*
X9397134Y-17973005D01*
X9419400Y-17861066D01*
X9419400Y-17746934D01*
X9397134Y-17634995D01*
X9353457Y-17529551D01*
X9290049Y-17434654D01*
X9209346Y-17353951D01*
X9114449Y-17290543D01*
X9009005Y-17246866D01*
X8897066Y-17224600D01*
X8782934Y-17224600D01*
X8670995Y-17246866D01*
X8565551Y-17290543D01*
X8470654Y-17353951D01*
X8389951Y-17434654D01*
X8326543Y-17529551D01*
X8282866Y-17634995D01*
X8260600Y-17746934D01*
X8260600Y-17827980D01*
X8213174Y-17827980D01*
X8101235Y-17850246D01*
X7995791Y-17893923D01*
X7935811Y-17934000D01*
X7948534Y-17903285D01*
X7970800Y-17791346D01*
X7970800Y-17677214D01*
X7948534Y-17565275D01*
X7904857Y-17459831D01*
X7841449Y-17364934D01*
X7760746Y-17284231D01*
X7665849Y-17220823D01*
X7560405Y-17177146D01*
X7448466Y-17154880D01*
X7334334Y-17154880D01*
X7222395Y-17177146D01*
X7116951Y-17220823D01*
X7022054Y-17284231D01*
X6941351Y-17364934D01*
X6877943Y-17459831D01*
X6834266Y-17565275D01*
X6812000Y-17677214D01*
X6812000Y-17789492D01*
X6724566Y-17772100D01*
X6610434Y-17772100D01*
X6498495Y-17794366D01*
X6393051Y-17838043D01*
X6357900Y-17861530D01*
X6357900Y-17751934D01*
X6335634Y-17639995D01*
X6291957Y-17534551D01*
X6228549Y-17439654D01*
X6147846Y-17358951D01*
X6052949Y-17295543D01*
X5947505Y-17251866D01*
X5835566Y-17229600D01*
X5721434Y-17229600D01*
X5609495Y-17251866D01*
X5532400Y-17283800D01*
X5532400Y-17278434D01*
X5510134Y-17166495D01*
X5466457Y-17061051D01*
X5403049Y-16966154D01*
X5322346Y-16885451D01*
X5227449Y-16822043D01*
X5122005Y-16778366D01*
X5010066Y-16756100D01*
X4895934Y-16756100D01*
X4783995Y-16778366D01*
X4678551Y-16822043D01*
X4583654Y-16885451D01*
X4502951Y-16966154D01*
X4439543Y-17061051D01*
X4395866Y-17166495D01*
X4373600Y-17278434D01*
X4373600Y-17392566D01*
X4395866Y-17504505D01*
X4439543Y-17609949D01*
X4502951Y-17704846D01*
X4583654Y-17785549D01*
X4670384Y-17843500D01*
X4583654Y-17901451D01*
X4502951Y-17982154D01*
X4439543Y-18077051D01*
X4395866Y-18182495D01*
X4373600Y-18294434D01*
X4373600Y-18408566D01*
X4395866Y-18520505D01*
X4439543Y-18625949D01*
X4502951Y-18720846D01*
X4583654Y-18801549D01*
X4678551Y-18864957D01*
X4700382Y-18874000D01*
X4678551Y-18883043D01*
X4583654Y-18946451D01*
X4502951Y-19027154D01*
X4439543Y-19122051D01*
X4395866Y-19227495D01*
X4373600Y-19339434D01*
X4373600Y-19453566D01*
X4395866Y-19565505D01*
X4439543Y-19670949D01*
X4502951Y-19765846D01*
X4583654Y-19846549D01*
X4678551Y-19909957D01*
X4783672Y-19953500D01*
X4678551Y-19997043D01*
X4583654Y-20060451D01*
X4502951Y-20141154D01*
X4439543Y-20236051D01*
X4395866Y-20341495D01*
X4373600Y-20453434D01*
X4373600Y-20496727D01*
X-261386Y-15861742D01*
X-273266Y-15847266D01*
X-331037Y-15799855D01*
X-396948Y-15764625D01*
X-468465Y-15742930D01*
X-524208Y-15737440D01*
X-524211Y-15737440D01*
X-542840Y-15735605D01*
X-561469Y-15737440D01*
X-2920012Y-15737440D01*
X-5062018Y-13595434D01*
X-395210Y-13595434D01*
X-395210Y-13709566D01*
X-372944Y-13821505D01*
X-329267Y-13926949D01*
X-265859Y-14021846D01*
X-185156Y-14102549D01*
X-90259Y-14165957D01*
X15185Y-14209634D01*
X127124Y-14231900D01*
X241256Y-14231900D01*
X353195Y-14209634D01*
X458639Y-14165957D01*
X553536Y-14102549D01*
X634239Y-14021846D01*
X697647Y-13926949D01*
X741324Y-13821505D01*
X763590Y-13709566D01*
X763590Y-13595434D01*
X741324Y-13483495D01*
X697647Y-13378051D01*
X634239Y-13283154D01*
X553536Y-13202451D01*
X458639Y-13139043D01*
X353195Y-13095366D01*
X241256Y-13073100D01*
X127124Y-13073100D01*
X15185Y-13095366D01*
X-90259Y-13139043D01*
X-185156Y-13202451D01*
X-265859Y-13283154D01*
X-329267Y-13378051D01*
X-372944Y-13483495D01*
X-395210Y-13595434D01*
X-5062018Y-13595434D01*
X-5425242Y-13232211D01*
X-4356314Y-13232211D01*
X-4354449Y-13233457D01*
X-4249005Y-13277134D01*
X-4137066Y-13299400D01*
X-4022934Y-13299400D01*
X-3910995Y-13277134D01*
X-3805551Y-13233457D01*
X-3710654Y-13170049D01*
X-3629951Y-13089346D01*
X-3566543Y-12994449D01*
X-3522866Y-12889005D01*
X-3500600Y-12777066D01*
X-3500600Y-12662934D01*
X-3522866Y-12550995D01*
X-3566543Y-12445551D01*
X-3629951Y-12350654D01*
X-3710654Y-12269951D01*
X-3805551Y-12206543D01*
X-3910995Y-12162866D01*
X-4022934Y-12140600D01*
X-4137066Y-12140600D01*
X-4249005Y-12162866D01*
X-4354449Y-12206543D01*
X-4449346Y-12269951D01*
X-4530049Y-12350654D01*
X-4593457Y-12445551D01*
X-4604997Y-12473411D01*
X-5685659Y-12473411D01*
X-6443586Y-11715484D01*
X-6443901Y-11712284D01*
X-6465596Y-11640767D01*
X-6489764Y-11595551D01*
X-6500826Y-11574855D01*
X-6536360Y-11531557D01*
X-6536361Y-11531556D01*
X-6548237Y-11517085D01*
X-6562707Y-11505210D01*
X-8054405Y-10013513D01*
X-8066285Y-9999037D01*
X-8124056Y-9951626D01*
X-8189967Y-9916396D01*
X-8261484Y-9894701D01*
X-8317227Y-9889211D01*
X-8317230Y-9889211D01*
X-8335859Y-9887376D01*
X-8354488Y-9889211D01*
X-8497879Y-9889211D01*
X-9655780Y-8731310D01*
X-9655780Y-8725886D01*
X-9644449Y-8733457D01*
X-9539005Y-8777134D01*
X-9427066Y-8799400D01*
X-9312934Y-8799400D01*
X-9200995Y-8777134D01*
X-9095551Y-8733457D01*
X-9000654Y-8670049D01*
X-8919951Y-8589346D01*
X-8856543Y-8494449D01*
X-8812866Y-8389005D01*
X-8800898Y-8328834D01*
X-2799400Y-8328834D01*
X-2799400Y-8442966D01*
X-2777134Y-8554905D01*
X-2733457Y-8660349D01*
X-2670049Y-8755246D01*
X-2589346Y-8835949D01*
X-2494449Y-8899357D01*
X-2389005Y-8943034D01*
X-2277066Y-8965300D01*
X-2162934Y-8965300D01*
X-2050995Y-8943034D01*
X-1945551Y-8899357D01*
X-1850654Y-8835949D01*
X-1847639Y-8832934D01*
X690600Y-8832934D01*
X690600Y-8947066D01*
X712866Y-9059005D01*
X756543Y-9164449D01*
X819951Y-9259346D01*
X900654Y-9340049D01*
X995551Y-9403457D01*
X1100995Y-9447134D01*
X1212934Y-9469400D01*
X1327066Y-9469400D01*
X1439005Y-9447134D01*
X1544449Y-9403457D01*
X1639346Y-9340049D01*
X1720049Y-9259346D01*
X1783457Y-9164449D01*
X1827134Y-9059005D01*
X1849400Y-8947066D01*
X1849400Y-8832934D01*
X1827134Y-8720995D01*
X1783457Y-8615551D01*
X1720049Y-8520654D01*
X1639346Y-8439951D01*
X1544449Y-8376543D01*
X1439005Y-8332866D01*
X1327066Y-8310600D01*
X1212934Y-8310600D01*
X1100995Y-8332866D01*
X995551Y-8376543D01*
X900654Y-8439951D01*
X819951Y-8520654D01*
X756543Y-8615551D01*
X712866Y-8720995D01*
X690600Y-8832934D01*
X-1847639Y-8832934D01*
X-1769951Y-8755246D01*
X-1706543Y-8660349D01*
X-1662866Y-8554905D01*
X-1640600Y-8442966D01*
X-1640600Y-8328834D01*
X-1662866Y-8216895D01*
X-1706543Y-8111451D01*
X-1769951Y-8016554D01*
X-1850654Y-7935851D01*
X-1945551Y-7872443D01*
X-2050995Y-7828766D01*
X-2162934Y-7806500D01*
X-2277066Y-7806500D01*
X-2389005Y-7828766D01*
X-2494449Y-7872443D01*
X-2589346Y-7935851D01*
X-2670049Y-8016554D01*
X-2733457Y-8111451D01*
X-2777134Y-8216895D01*
X-2799400Y-8328834D01*
X-8800898Y-8328834D01*
X-8790600Y-8277066D01*
X-8790600Y-8162934D01*
X-8810226Y-8064269D01*
X-8740946Y-8133549D01*
X-8646049Y-8196957D01*
X-8540605Y-8240634D01*
X-8428666Y-8262900D01*
X-8314534Y-8262900D01*
X-8202595Y-8240634D01*
X-8097151Y-8196957D01*
X-8002254Y-8133549D01*
X-7921551Y-8052846D01*
X-7858143Y-7957949D01*
X-7814466Y-7852505D01*
X-7792200Y-7740566D01*
X-7792200Y-7653434D01*
X-5900Y-7653434D01*
X-5900Y-7767566D01*
X16366Y-7879505D01*
X60043Y-7984949D01*
X123451Y-8079846D01*
X204154Y-8160549D01*
X299051Y-8223957D01*
X404495Y-8267634D01*
X516434Y-8289900D01*
X630566Y-8289900D01*
X742505Y-8267634D01*
X847949Y-8223957D01*
X942846Y-8160549D01*
X1023549Y-8079846D01*
X1086957Y-7984949D01*
X1130634Y-7879505D01*
X1152900Y-7767566D01*
X1152900Y-7653434D01*
X1130634Y-7541495D01*
X1086957Y-7436051D01*
X1023549Y-7341154D01*
X942846Y-7260451D01*
X847949Y-7197043D01*
X742505Y-7153366D01*
X630566Y-7131100D01*
X516434Y-7131100D01*
X404495Y-7153366D01*
X299051Y-7197043D01*
X204154Y-7260451D01*
X123451Y-7341154D01*
X60043Y-7436051D01*
X16366Y-7541495D01*
X-5900Y-7653434D01*
X-7792200Y-7653434D01*
X-7792200Y-7626434D01*
X-7814466Y-7514495D01*
X-7858143Y-7409051D01*
X-7921551Y-7314154D01*
X-8002254Y-7233451D01*
X-8097151Y-7170043D01*
X-8202595Y-7126366D01*
X-8314534Y-7104100D01*
X-8428666Y-7104100D01*
X-8540605Y-7126366D01*
X-8646049Y-7170043D01*
X-8740946Y-7233451D01*
X-8821649Y-7314154D01*
X-8885057Y-7409051D01*
X-8928734Y-7514495D01*
X-8951000Y-7626434D01*
X-8951000Y-7740566D01*
X-8931374Y-7839231D01*
X-9000654Y-7769951D01*
X-9095551Y-7706543D01*
X-9200995Y-7662866D01*
X-9312934Y-7640600D01*
X-9427066Y-7640600D01*
X-9539005Y-7662866D01*
X-9644449Y-7706543D01*
X-9655780Y-7714114D01*
X-9655780Y-5308268D01*
X-9243445Y-4895934D01*
X2468600Y-4895934D01*
X2468600Y-5010066D01*
X2490866Y-5122005D01*
X2534543Y-5227449D01*
X2597951Y-5322346D01*
X2678654Y-5403049D01*
X2773551Y-5466457D01*
X2878995Y-5510134D01*
X2886132Y-5511554D01*
X2871866Y-5545995D01*
X2849600Y-5657934D01*
X2849600Y-5772066D01*
X2871866Y-5884005D01*
X2886132Y-5918446D01*
X2878995Y-5919866D01*
X2773551Y-5963543D01*
X2678654Y-6026951D01*
X2597951Y-6107654D01*
X2534543Y-6202551D01*
X2490866Y-6307995D01*
X2468600Y-6419934D01*
X2468600Y-6534066D01*
X2490866Y-6646005D01*
X2534543Y-6751449D01*
X2597951Y-6846346D01*
X2678654Y-6927049D01*
X2773551Y-6990457D01*
X2878995Y-7034134D01*
X2886132Y-7035554D01*
X2871866Y-7069995D01*
X2849600Y-7181934D01*
X2849600Y-7296066D01*
X2871866Y-7408005D01*
X2886132Y-7442446D01*
X2878995Y-7443866D01*
X2773551Y-7487543D01*
X2678654Y-7550951D01*
X2597951Y-7631654D01*
X2534543Y-7726551D01*
X2490866Y-7831995D01*
X2468600Y-7943934D01*
X2468600Y-8058066D01*
X2490866Y-8170005D01*
X2534543Y-8275449D01*
X2597951Y-8370346D01*
X2678654Y-8451049D01*
X2773551Y-8514457D01*
X2878995Y-8558134D01*
X2990934Y-8580400D01*
X3105066Y-8580400D01*
X3217005Y-8558134D01*
X3322449Y-8514457D01*
X3417346Y-8451049D01*
X3492500Y-8375895D01*
X3567654Y-8451049D01*
X3662551Y-8514457D01*
X3767995Y-8558134D01*
X3879934Y-8580400D01*
X3994066Y-8580400D01*
X4106005Y-8558134D01*
X4211449Y-8514457D01*
X4306346Y-8451049D01*
X4387049Y-8370346D01*
X4450457Y-8275449D01*
X4494134Y-8170005D01*
X4516400Y-8058066D01*
X4516400Y-7943934D01*
X4494134Y-7831995D01*
X4450457Y-7726551D01*
X4387049Y-7631654D01*
X4306346Y-7550951D01*
X4211449Y-7487543D01*
X4106005Y-7443866D01*
X3994066Y-7421600D01*
X3980503Y-7421600D01*
X3986134Y-7408005D01*
X4008400Y-7296066D01*
X4008400Y-7181934D01*
X3986134Y-7069995D01*
X3980503Y-7056400D01*
X3994066Y-7056400D01*
X4106005Y-7034134D01*
X4211449Y-6990457D01*
X4306346Y-6927049D01*
X4387049Y-6846346D01*
X4450457Y-6751449D01*
X4494134Y-6646005D01*
X4516400Y-6534066D01*
X4516400Y-6419934D01*
X4494134Y-6307995D01*
X4450457Y-6202551D01*
X4387049Y-6107654D01*
X4306346Y-6026951D01*
X4211449Y-5963543D01*
X4106005Y-5919866D01*
X3994066Y-5897600D01*
X3980503Y-5897600D01*
X3986134Y-5884005D01*
X4008400Y-5772066D01*
X4008400Y-5657934D01*
X3986134Y-5545995D01*
X3980503Y-5532400D01*
X3994066Y-5532400D01*
X4106005Y-5510134D01*
X4211449Y-5466457D01*
X4306346Y-5403049D01*
X4387049Y-5322346D01*
X4450457Y-5227449D01*
X4494134Y-5122005D01*
X4516400Y-5010066D01*
X4516400Y-4895934D01*
X4494134Y-4783995D01*
X4450457Y-4678551D01*
X4387049Y-4583654D01*
X4306346Y-4502951D01*
X4211449Y-4439543D01*
X4106005Y-4395866D01*
X3994066Y-4373600D01*
X3879934Y-4373600D01*
X3767995Y-4395866D01*
X3662551Y-4439543D01*
X3567654Y-4502951D01*
X3492500Y-4578105D01*
X3417346Y-4502951D01*
X3322449Y-4439543D01*
X3217005Y-4395866D01*
X3105066Y-4373600D01*
X2990934Y-4373600D01*
X2878995Y-4395866D01*
X2773551Y-4439543D01*
X2678654Y-4502951D01*
X2597951Y-4583654D01*
X2534543Y-4678551D01*
X2490866Y-4783995D01*
X2468600Y-4895934D01*
X-9243445Y-4895934D01*
X-8880085Y-4532575D01*
X-8865615Y-4520700D01*
X-8851049Y-4502951D01*
X-8818204Y-4462930D01*
X-8782975Y-4397019D01*
X-8782974Y-4397018D01*
X-8761279Y-4325501D01*
X-8755789Y-4269758D01*
X-8755789Y-4269756D01*
X-8753954Y-4251127D01*
X-8755789Y-4232498D01*
X-8755789Y-3447502D01*
X-8753954Y-3428873D01*
X-8755789Y-3410242D01*
X-8761279Y-3354499D01*
X-8782974Y-3282982D01*
X-8811065Y-3230427D01*
X-8818204Y-3217070D01*
X-8846153Y-3183015D01*
X-8865615Y-3159300D01*
X-8880091Y-3147420D01*
X-8885203Y-3142308D01*
X-8815551Y-3113457D01*
X-8720654Y-3050049D01*
X-8639951Y-2969346D01*
X-8576543Y-2874449D01*
X-8532866Y-2769005D01*
X-8510600Y-2657066D01*
X-8510600Y-2542934D01*
X-8532866Y-2430995D01*
X-8576543Y-2325551D01*
X-8639951Y-2230654D01*
X-8710283Y-2160322D01*
X-8710600Y-2157104D01*
X-8716090Y-2101361D01*
X-8737785Y-2029844D01*
X-8772782Y-1964368D01*
X-8773015Y-1963932D01*
X-8793905Y-1938478D01*
X-8820426Y-1906162D01*
X-8834902Y-1894282D01*
X-8940600Y-1788584D01*
X-8940600Y-483916D01*
X-6389466Y2067218D01*
X-6296112Y2067218D01*
X-6845102Y1518228D01*
X-6859573Y1506352D01*
X-6871449Y1491881D01*
X-6871451Y1491879D01*
X-6906985Y1448581D01*
X-6920275Y1423716D01*
X-6942214Y1382670D01*
X-6949756Y1357806D01*
X-6963909Y1311152D01*
X-6971235Y1236778D01*
X-6969399Y1218139D01*
X-6969399Y839996D01*
X-7040049Y769346D01*
X-7103457Y674449D01*
X-7147134Y569005D01*
X-7169400Y457066D01*
X-7169400Y342934D01*
X-7147134Y230995D01*
X-7103457Y125551D01*
X-7040049Y30654D01*
X-6959346Y-50049D01*
X-6864449Y-113457D01*
X-6759005Y-157134D01*
X-6679501Y-172948D01*
X-7605102Y-1098550D01*
X-7619573Y-1110426D01*
X-7631449Y-1124897D01*
X-7631451Y-1124899D01*
X-7666985Y-1168197D01*
X-7702214Y-1234108D01*
X-7723909Y-1305626D01*
X-7731235Y-1380000D01*
X-7729399Y-1398639D01*
X-7729400Y-3680005D01*
X-7800049Y-3750654D01*
X-7863457Y-3845551D01*
X-7907134Y-3950995D01*
X-7929400Y-4062934D01*
X-7929400Y-4177066D01*
X-7907134Y-4289005D01*
X-7863457Y-4394449D01*
X-7800049Y-4489346D01*
X-7719346Y-4570049D01*
X-7624449Y-4633457D01*
X-7519005Y-4677134D01*
X-7407066Y-4699400D01*
X-7292934Y-4699400D01*
X-7180995Y-4677134D01*
X-7075551Y-4633457D01*
X-6980654Y-4570049D01*
X-6899951Y-4489346D01*
X-6836543Y-4394449D01*
X-6792866Y-4289005D01*
X-6770600Y-4177066D01*
X-6770600Y-4062934D01*
X-6792866Y-3950995D01*
X-6836543Y-3845551D01*
X-6899951Y-3750654D01*
X-6970600Y-3680005D01*
X-6970600Y-3189534D01*
X9529800Y-3189534D01*
X9529800Y-3303666D01*
X9552066Y-3415605D01*
X9595743Y-3521049D01*
X9659151Y-3615946D01*
X9739854Y-3696649D01*
X9834751Y-3760057D01*
X9940195Y-3803734D01*
X10052134Y-3826000D01*
X10166266Y-3826000D01*
X10278205Y-3803734D01*
X10383649Y-3760057D01*
X10478546Y-3696649D01*
X10559249Y-3615946D01*
X10622657Y-3521049D01*
X10666334Y-3415605D01*
X10688600Y-3303666D01*
X10688600Y-3189534D01*
X10666334Y-3077595D01*
X10622657Y-2972151D01*
X10559249Y-2877254D01*
X10478546Y-2796551D01*
X10383649Y-2733143D01*
X10278205Y-2689466D01*
X10166266Y-2667200D01*
X10052134Y-2667200D01*
X9940195Y-2689466D01*
X9834751Y-2733143D01*
X9739854Y-2796551D01*
X9659151Y-2877254D01*
X9595743Y-2972151D01*
X9552066Y-3077595D01*
X9529800Y-3189534D01*
X-6970600Y-3189534D01*
X-6970600Y-1537152D01*
X-6405082Y-971634D01*
X1869400Y-971634D01*
X1869400Y-1085766D01*
X1891666Y-1197705D01*
X1935343Y-1303149D01*
X1998751Y-1398046D01*
X2079454Y-1478749D01*
X2174351Y-1542157D01*
X2279795Y-1585834D01*
X2391734Y-1608100D01*
X2505866Y-1608100D01*
X2617805Y-1585834D01*
X2723249Y-1542157D01*
X2818146Y-1478749D01*
X2898849Y-1398046D01*
X2953112Y-1316834D01*
X7548600Y-1316834D01*
X7548600Y-1430966D01*
X7570866Y-1542905D01*
X7614543Y-1648349D01*
X7677951Y-1743246D01*
X7758654Y-1823949D01*
X7853551Y-1887357D01*
X7958995Y-1931034D01*
X8070934Y-1953300D01*
X8185066Y-1953300D01*
X8297005Y-1931034D01*
X8402449Y-1887357D01*
X8497346Y-1823949D01*
X8578049Y-1743246D01*
X8641457Y-1648349D01*
X8685134Y-1542905D01*
X8707400Y-1430966D01*
X8707400Y-1316834D01*
X8685134Y-1204895D01*
X8641457Y-1099451D01*
X8578049Y-1004554D01*
X8497346Y-923851D01*
X8402449Y-860443D01*
X8297005Y-816766D01*
X8185066Y-794500D01*
X8070934Y-794500D01*
X7958995Y-816766D01*
X7853551Y-860443D01*
X7758654Y-923851D01*
X7677951Y-1004554D01*
X7614543Y-1099451D01*
X7570866Y-1204895D01*
X7548600Y-1316834D01*
X2953112Y-1316834D01*
X2962257Y-1303149D01*
X3005934Y-1197705D01*
X3028200Y-1085766D01*
X3028200Y-971634D01*
X3005934Y-859695D01*
X2962257Y-754251D01*
X2898849Y-659354D01*
X2818146Y-578651D01*
X2723249Y-515243D01*
X2617805Y-471566D01*
X2505866Y-449300D01*
X2391734Y-449300D01*
X2279795Y-471566D01*
X2174351Y-515243D01*
X2079454Y-578651D01*
X1998751Y-659354D01*
X1935343Y-754251D01*
X1891666Y-859695D01*
X1869400Y-971634D01*
X-6405082Y-971634D01*
X-5694896Y-261449D01*
X-5680426Y-249574D01*
X-5668549Y-235102D01*
X-5633015Y-191804D01*
X-5597786Y-125893D01*
X-5597785Y-125892D01*
X-5576090Y-54375D01*
X-5570600Y1368D01*
X-5570600Y1371D01*
X-5568765Y20000D01*
X-5570600Y38629D01*
X-5570600Y1221244D01*
X-4531497Y2260345D01*
X-4517027Y2272220D01*
X-4505150Y2286692D01*
X-4469616Y2329990D01*
X-4447813Y2370782D01*
X-4434386Y2395902D01*
X-4412691Y2467419D01*
X-4407201Y2523162D01*
X-4407201Y2523164D01*
X-4405366Y2541793D01*
X-4407201Y2560422D01*
X-4407201Y4070266D01*
X944600Y4070266D01*
X944600Y3956134D01*
X966866Y3844195D01*
X1010543Y3738751D01*
X1073951Y3643854D01*
X1154654Y3563151D01*
X1249551Y3499743D01*
X1354995Y3456066D01*
X1466934Y3433800D01*
X1581066Y3433800D01*
X1693005Y3456066D01*
X1798449Y3499743D01*
X1893346Y3563151D01*
X1974049Y3643854D01*
X2037457Y3738751D01*
X2081134Y3844195D01*
X2103400Y3956134D01*
X2103400Y4070266D01*
X2081134Y4182205D01*
X2037457Y4287649D01*
X1974049Y4382546D01*
X1893346Y4463249D01*
X1798449Y4526657D01*
X1693005Y4570334D01*
X1581066Y4592600D01*
X1466934Y4592600D01*
X1354995Y4570334D01*
X1249551Y4526657D01*
X1154654Y4463249D01*
X1073951Y4382546D01*
X1010543Y4287649D01*
X966866Y4182205D01*
X944600Y4070266D01*
X-4407201Y4070266D01*
X-4407201Y5518066D01*
X-4340900Y5518066D01*
X-4340900Y5403934D01*
X-4318634Y5291995D01*
X-4274957Y5186551D01*
X-4211549Y5091654D01*
X-4130846Y5010951D01*
X-4035949Y4947543D01*
X-3930505Y4903866D01*
X-3818566Y4881600D01*
X-3704434Y4881600D01*
X-3592495Y4903866D01*
X-3487051Y4947543D01*
X-3392154Y5010951D01*
X-3311451Y5091654D01*
X-3248043Y5186551D01*
X-3204366Y5291995D01*
X-3182100Y5403934D01*
X-3182100Y5518066D01*
X-3204366Y5630005D01*
X-3248043Y5735449D01*
X-3311451Y5830346D01*
X-3392154Y5911049D01*
X-3487051Y5974457D01*
X-3592495Y6018134D01*
X-3704434Y6040400D01*
X-3818566Y6040400D01*
X-3930505Y6018134D01*
X-4035949Y5974457D01*
X-4130846Y5911049D01*
X-4211549Y5830346D01*
X-4274957Y5735449D01*
X-4318634Y5630005D01*
X-4340900Y5518066D01*
X-4407201Y5518066D01*
X-4407201Y6685344D01*
X-3496344Y7596200D01*
X-3081595Y7596200D01*
X-3010946Y7525551D01*
X-2916049Y7462143D01*
X-2810605Y7418466D01*
X-2698666Y7396200D01*
X-2584534Y7396200D01*
X-2472595Y7418466D01*
X-2367151Y7462143D01*
X-2272254Y7525551D01*
X-2191551Y7606254D01*
X-2128143Y7701151D01*
X-2084466Y7806595D01*
X-2062200Y7918534D01*
X-2062200Y8032666D01*
X-2084466Y8144605D01*
X-2128143Y8250049D01*
X-2191551Y8344946D01*
X-2238202Y8391597D01*
X-2191551Y8438248D01*
X-2128143Y8533145D01*
X-2084466Y8638589D01*
X-2062200Y8750528D01*
X-2062200Y8864660D01*
X-2084466Y8976599D01*
X-2128143Y9082043D01*
X-2191551Y9176940D01*
X-2198407Y9183796D01*
X-2191551Y9190651D01*
X-2128143Y9285548D01*
X-2084466Y9390992D01*
X-2062200Y9502931D01*
X-2062200Y9617063D01*
X-2084466Y9729002D01*
X-2128143Y9834446D01*
X-2191551Y9929343D01*
X-2272254Y10010046D01*
X-2367151Y10073454D01*
X-2472595Y10117131D01*
X-2584534Y10139397D01*
X-2698666Y10139397D01*
X-2810605Y10117131D01*
X-2916049Y10073454D01*
X-3010946Y10010046D01*
X-3081278Y9939714D01*
X-3084493Y9939397D01*
X-3084496Y9939397D01*
X-3140239Y9933907D01*
X-3195111Y9917261D01*
X-3211757Y9912212D01*
X-3277667Y9876982D01*
X-3302194Y9856853D01*
X-3335438Y9829571D01*
X-3347314Y9815100D01*
X-5011812Y8150602D01*
X-5046543Y8234449D01*
X-5109951Y8329346D01*
X-5190654Y8410049D01*
X-5285551Y8473457D01*
X-5390995Y8517134D01*
X-5502934Y8539400D01*
X-5617066Y8539400D01*
X-5729005Y8517134D01*
X-5834449Y8473457D01*
X-5929346Y8410049D01*
X-6010049Y8329346D01*
X-6073457Y8234449D01*
X-6117134Y8129005D01*
X-6139400Y8017066D01*
X-6139400Y7917152D01*
X-8055102Y6001450D01*
X-8069573Y5989574D01*
X-8081449Y5975103D01*
X-8081451Y5975101D01*
X-8116985Y5931803D01*
X-8152214Y5865892D01*
X-8173909Y5794374D01*
X-8181235Y5720000D01*
X-8179399Y5701361D01*
X-8179400Y3591218D01*
X-8212995Y3605134D01*
X-8324934Y3627400D01*
X-8439066Y3627400D01*
X-8551005Y3605134D01*
X-8656449Y3561457D01*
X-8751346Y3498049D01*
X-8801379Y3448016D01*
X-8809842Y3460682D01*
X-8890545Y3541385D01*
X-8985442Y3604793D01*
X-9090886Y3648470D01*
X-9202825Y3670736D01*
X-9316957Y3670736D01*
X-9428896Y3648470D01*
X-9534340Y3604793D01*
X-9629237Y3541385D01*
X-9669001Y3501621D01*
X-9758551Y3561457D01*
X-9863995Y3605134D01*
X-9975934Y3627400D01*
X-10090066Y3627400D01*
X-10202005Y3605134D01*
X-10307449Y3561457D01*
X-10402346Y3498049D01*
X-10414000Y3486395D01*
X-10425654Y3498049D01*
X-10520551Y3561457D01*
X-10625995Y3605134D01*
X-10737934Y3627400D01*
X-10852066Y3627400D01*
X-10964005Y3605134D01*
X-11069449Y3561457D01*
X-11164346Y3498049D01*
X-11199257Y3463138D01*
X-11199257Y3701053D01*
X-11128608Y3771702D01*
X-11065200Y3866599D01*
X-11021523Y3972043D01*
X-10999257Y4083982D01*
X-10999257Y4198114D01*
X-11021523Y4310053D01*
X-11065200Y4415497D01*
X-11128608Y4510394D01*
X-11209311Y4591097D01*
X-11304208Y4654505D01*
X-11409652Y4698182D01*
X-11413227Y4698893D01*
X-11409400Y4718134D01*
X-11409400Y4832266D01*
X-11431666Y4944205D01*
X-11475343Y5049649D01*
X-11538751Y5144546D01*
X-11619454Y5225249D01*
X-11714351Y5288657D01*
X-11819795Y5332334D01*
X-11931734Y5354600D01*
X-12045866Y5354600D01*
X-12157805Y5332334D01*
X-12263249Y5288657D01*
X-12358146Y5225249D01*
X-12438849Y5144546D01*
X-12502257Y5049649D01*
X-12542661Y4952107D01*
X-12892100Y5301546D01*
X-12892100Y5537066D01*
X-9699400Y5537066D01*
X-9699400Y5422934D01*
X-9677134Y5310995D01*
X-9633457Y5205551D01*
X-9570049Y5110654D01*
X-9489346Y5029951D01*
X-9394449Y4966543D01*
X-9289005Y4922866D01*
X-9177066Y4900600D01*
X-9062934Y4900600D01*
X-8950995Y4922866D01*
X-8845551Y4966543D01*
X-8750654Y5029951D01*
X-8669951Y5110654D01*
X-8606543Y5205551D01*
X-8562866Y5310995D01*
X-8540600Y5422934D01*
X-8540600Y5537066D01*
X-8562866Y5649005D01*
X-8606543Y5754449D01*
X-8669951Y5849346D01*
X-8740600Y5919995D01*
X-8740600Y6072243D01*
X-6632242Y8180600D01*
X-6532329Y8180600D01*
X-6420390Y8202866D01*
X-6314946Y8246543D01*
X-6220049Y8309951D01*
X-6139346Y8390654D01*
X-6075938Y8485551D01*
X-6032261Y8590995D01*
X-6009995Y8702934D01*
X-6009995Y8817066D01*
X-6032261Y8929005D01*
X-6075938Y9034449D01*
X-6139346Y9129346D01*
X-6220049Y9210049D01*
X-6314946Y9273457D01*
X-6420390Y9317134D01*
X-6532329Y9339400D01*
X-6646461Y9339400D01*
X-6758400Y9317134D01*
X-6863844Y9273457D01*
X-6958741Y9210049D01*
X-7039444Y9129346D01*
X-7102852Y9034449D01*
X-7146529Y8929005D01*
X-7168795Y8817066D01*
X-7168795Y8717153D01*
X-9375098Y6510849D01*
X-9389574Y6498969D01*
X-9401451Y6484496D01*
X-9436985Y6441198D01*
X-9446261Y6423843D01*
X-9472215Y6375286D01*
X-9493910Y6303769D01*
X-9499400Y6248027D01*
X-9501235Y6229395D01*
X-9499400Y6210765D01*
X-9499400Y5919995D01*
X-9570049Y5849346D01*
X-9633457Y5754449D01*
X-9677134Y5649005D01*
X-9699400Y5537066D01*
X-12892100Y5537066D01*
X-12892100Y6216566D01*
X-10660900Y6216566D01*
X-10660900Y6102434D01*
X-10638634Y5990495D01*
X-10594957Y5885051D01*
X-10531549Y5790154D01*
X-10450846Y5709451D01*
X-10355949Y5646043D01*
X-10250505Y5602366D01*
X-10138566Y5580100D01*
X-10024434Y5580100D01*
X-9912495Y5602366D01*
X-9807051Y5646043D01*
X-9712154Y5709451D01*
X-9631451Y5790154D01*
X-9568043Y5885051D01*
X-9524366Y5990495D01*
X-9502100Y6102434D01*
X-9502100Y6216566D01*
X-9524366Y6328505D01*
X-9568043Y6433949D01*
X-9631451Y6528846D01*
X-9712154Y6609549D01*
X-9807051Y6672957D01*
X-9912495Y6716634D01*
X-10024434Y6738900D01*
X-10138566Y6738900D01*
X-10250505Y6716634D01*
X-10355949Y6672957D01*
X-10450846Y6609549D01*
X-10531549Y6528846D01*
X-10594957Y6433949D01*
X-10638634Y6328505D01*
X-10660900Y6216566D01*
X-12892100Y6216566D01*
X-12892100Y6989505D01*
X-12821451Y7060154D01*
X-12758043Y7155051D01*
X-12714366Y7260495D01*
X-12692100Y7372434D01*
X-12692100Y7486566D01*
X-12714366Y7598505D01*
X-12758043Y7703949D01*
X-12821451Y7798846D01*
X-12902154Y7879549D01*
X-12997051Y7942957D01*
X-13102495Y7986634D01*
X-13214434Y8008900D01*
X-13328566Y8008900D01*
X-13440505Y7986634D01*
X-13545949Y7942957D01*
X-13612293Y7898627D01*
X-13612293Y8741155D01*
X-13402847Y8950600D01*
X-13302934Y8950600D01*
X-13190995Y8972866D01*
X-13085551Y9016543D01*
X-12990654Y9079951D01*
X-12909951Y9160654D01*
X-12846543Y9255551D01*
X-12802866Y9360995D01*
X-12780600Y9472934D01*
X-12780600Y9587066D01*
X-12802866Y9699005D01*
X-12846543Y9804449D01*
X-12909951Y9899346D01*
X-12960605Y9950000D01*
X-12959951Y9950654D01*
X-12896543Y10045551D01*
X-12852866Y10150995D01*
X-12830600Y10262934D01*
X-12830600Y10377066D01*
X-12852866Y10489005D01*
X-12896543Y10594449D01*
X-12959951Y10689346D01*
X-13040654Y10770049D01*
X-13135551Y10833457D01*
X-13240995Y10877134D01*
X-13326383Y10894119D01*
X-12733436Y11487066D01*
X-12009400Y11487066D01*
X-12009400Y11372934D01*
X-11987134Y11260995D01*
X-11943457Y11155551D01*
X-11880049Y11060654D01*
X-11799346Y10979951D01*
X-11704449Y10916543D01*
X-11599005Y10872866D01*
X-11487066Y10850600D01*
X-11372934Y10850600D01*
X-11260995Y10872866D01*
X-11155551Y10916543D01*
X-11060654Y10979951D01*
X-10979951Y11060654D01*
X-10916543Y11155551D01*
X-10872866Y11260995D01*
X-10850600Y11372934D01*
X-10850600Y11487066D01*
X-10872866Y11599005D01*
X-10916543Y11704449D01*
X-10979951Y11799346D01*
X-11060654Y11880049D01*
X-11155551Y11943457D01*
X-11260995Y11987134D01*
X-11372934Y12009400D01*
X-11487066Y12009400D01*
X-11599005Y11987134D01*
X-11704449Y11943457D01*
X-11799346Y11880049D01*
X-11880049Y11799346D01*
X-11943457Y11704449D01*
X-11987134Y11599005D01*
X-12009400Y11487066D01*
X-12733436Y11487066D01*
X-10974378Y13246124D01*
X-10324485Y13246124D01*
X-10324376Y13246091D01*
X-10268633Y13240601D01*
X-10268630Y13240601D01*
X-10250001Y13238766D01*
X-10231372Y13240601D01*
X-10018628Y13240601D01*
X-9999999Y13238766D01*
X-9981370Y13240601D01*
X-9981367Y13240601D01*
X-9925624Y13246091D01*
X-9854107Y13267786D01*
X-9788196Y13303016D01*
X-9742399Y13340600D01*
X-9642934Y13340600D01*
X-9530995Y13362866D01*
X-9425551Y13406543D01*
X-9358706Y13451207D01*
X-9358706Y12417000D01*
X-11304102Y10471604D01*
X-11318573Y10459728D01*
X-11330449Y10445257D01*
X-11330451Y10445255D01*
X-11365985Y10401957D01*
X-11382878Y10370351D01*
X-11401214Y10336046D01*
X-11410042Y10306943D01*
X-11422909Y10264528D01*
X-11430235Y10190154D01*
X-11428399Y10171515D01*
X-11428400Y9139495D01*
X-11499049Y9068846D01*
X-11562457Y8973949D01*
X-11606134Y8868505D01*
X-11628400Y8756566D01*
X-11628400Y8642434D01*
X-11606134Y8530495D01*
X-11562457Y8425051D01*
X-11499049Y8330154D01*
X-11418346Y8249451D01*
X-11323449Y8186043D01*
X-11218005Y8142366D01*
X-11106066Y8120100D01*
X-10991934Y8120100D01*
X-10879995Y8142366D01*
X-10774551Y8186043D01*
X-10679654Y8249451D01*
X-10598951Y8330154D01*
X-10535543Y8425051D01*
X-10491866Y8530495D01*
X-10469600Y8642434D01*
X-10469600Y8756566D01*
X-10491866Y8868505D01*
X-10535543Y8973949D01*
X-10598951Y9068846D01*
X-10669600Y9139495D01*
X-10669600Y10033002D01*
X-10640206Y10062396D01*
X-10638634Y10054495D01*
X-10594957Y9949051D01*
X-10531549Y9854154D01*
X-10450846Y9773451D01*
X-10355949Y9710043D01*
X-10250505Y9666366D01*
X-10138566Y9644100D01*
X-10024434Y9644100D01*
X-9912495Y9666366D01*
X-9807051Y9710043D01*
X-9712154Y9773451D01*
X-9631451Y9854154D01*
X-9568043Y9949051D01*
X-9524366Y10054495D01*
X-9502100Y10166434D01*
X-9502100Y10280566D01*
X-9524366Y10392505D01*
X-9568043Y10497949D01*
X-9631451Y10592846D01*
X-9712154Y10673549D01*
X-9807051Y10736957D01*
X-9912495Y10780634D01*
X-9920396Y10782206D01*
X-9669757Y11032845D01*
X-9657457Y11003151D01*
X-9594049Y10908254D01*
X-9513346Y10827551D01*
X-9418449Y10764143D01*
X-9313005Y10720466D01*
X-9201066Y10698200D01*
X-9086934Y10698200D01*
X-8974995Y10720466D01*
X-8869551Y10764143D01*
X-8774654Y10827551D01*
X-8693951Y10908254D01*
X-8630543Y11003151D01*
X-8623457Y11020260D01*
X-7072194Y11020260D01*
X-7072194Y10906128D01*
X-7049928Y10794189D01*
X-7006251Y10688745D01*
X-6942843Y10593848D01*
X-6862140Y10513145D01*
X-6767243Y10449737D01*
X-6661799Y10406060D01*
X-6549860Y10383794D01*
X-6435728Y10383794D01*
X-6323789Y10406060D01*
X-6218345Y10449737D01*
X-6123448Y10513145D01*
X-6042745Y10593848D01*
X-5979337Y10688745D01*
X-5935660Y10794189D01*
X-5913394Y10906128D01*
X-5913394Y11020260D01*
X-5935660Y11132199D01*
X-5979337Y11237643D01*
X-6042745Y11332540D01*
X-6123448Y11413243D01*
X-6218345Y11476651D01*
X-6323789Y11520328D01*
X-6435728Y11542594D01*
X-6549860Y11542594D01*
X-6661799Y11520328D01*
X-6767243Y11476651D01*
X-6862140Y11413243D01*
X-6942843Y11332540D01*
X-7006251Y11237643D01*
X-7049928Y11132199D01*
X-7072194Y11020260D01*
X-8623457Y11020260D01*
X-8586866Y11108595D01*
X-8564600Y11220534D01*
X-8564600Y11334666D01*
X-8586866Y11446605D01*
X-8630543Y11552049D01*
X-8693951Y11646946D01*
X-8774654Y11727649D01*
X-8869551Y11791057D01*
X-8899245Y11803357D01*
X-8724207Y11978395D01*
X-8709732Y11990274D01*
X-8680833Y12025487D01*
X-8662321Y12048044D01*
X-8627092Y12113955D01*
X-8627091Y12113956D01*
X-8605396Y12185473D01*
X-8599906Y12241216D01*
X-8599906Y12241225D01*
X-8598072Y12259847D01*
X-8599906Y12278469D01*
X-8599906Y13181849D01*
X-8554849Y13151743D01*
X-8449405Y13108066D01*
X-8337466Y13085800D01*
X-8223334Y13085800D01*
X-8111395Y13108066D01*
X-8005951Y13151743D01*
X-7911054Y13215151D01*
X-7899400Y13226805D01*
X-7887746Y13215151D01*
X-7792849Y13151743D01*
X-7687405Y13108066D01*
X-7575466Y13085800D01*
X-7461334Y13085800D01*
X-7349395Y13108066D01*
X-7243951Y13151743D01*
X-7149054Y13215151D01*
X-7068351Y13295854D01*
X-7004943Y13390751D01*
X-6992643Y13420445D01*
X-5408599Y11836400D01*
X-5408600Y11260395D01*
X-5479249Y11189746D01*
X-5542657Y11094849D01*
X-5586334Y10989405D01*
X-5608600Y10877466D01*
X-5608600Y10763334D01*
X-5586334Y10651395D01*
X-5542657Y10545951D01*
X-5479249Y10451054D01*
X-5398546Y10370351D01*
X-5303649Y10306943D01*
X-5198205Y10263266D01*
X-5086266Y10241000D01*
X-4972134Y10241000D01*
X-4860195Y10263266D01*
X-4754751Y10306943D01*
X-4659854Y10370351D01*
X-4579151Y10451054D01*
X-4515743Y10545951D01*
X-4472066Y10651395D01*
X-4449800Y10763334D01*
X-4449800Y10877466D01*
X-4472066Y10989405D01*
X-4515743Y11094849D01*
X-4579151Y11189746D01*
X-4649800Y11260395D01*
X-4649800Y11974925D01*
X-4647965Y11993554D01*
X-4649800Y12012186D01*
X-4655290Y12067929D01*
X-4676985Y12139446D01*
X-4676985Y12139447D01*
X-4712215Y12205357D01*
X-4747749Y12248656D01*
X-4747750Y12248657D01*
X-4759626Y12263128D01*
X-4774097Y12275004D01*
X-5626442Y13127349D01*
X-5567551Y13151743D01*
X-5472654Y13215151D01*
X-5391951Y13295854D01*
X-5328543Y13390751D01*
X-5284866Y13496195D01*
X-5262600Y13608134D01*
X-5262600Y13722266D01*
X-5284866Y13834205D01*
X-5328543Y13939649D01*
X-5391951Y14034546D01*
X-5472654Y14115249D01*
X-5567551Y14178657D01*
X-5672995Y14222334D01*
X-5784934Y14244600D01*
X-5899066Y14244600D01*
X-6011005Y14222334D01*
X-6116449Y14178657D01*
X-6211346Y14115249D01*
X-6292049Y14034546D01*
X-6355457Y13939649D01*
X-6379851Y13880757D01*
X-7620600Y15121506D01*
X-7620600Y21790653D01*
X-7509069Y21850268D01*
X-7375162Y21960162D01*
X-7265268Y22094068D01*
X-7183609Y22246840D01*
X-7133324Y22412607D01*
X-7120600Y22541798D01*
X-7120600Y23178202D01*
X-7133324Y23307393D01*
X-7183609Y23473160D01*
X-7255688Y23608010D01*
X-4744311Y23608010D01*
X-4816391Y23473160D01*
X-4866676Y23307393D01*
X-4879400Y23178202D01*
X-4879400Y22541799D01*
X-4866676Y22412608D01*
X-4816391Y22246841D01*
X-4734732Y22094069D01*
X-4624838Y21960162D01*
X-4490932Y21850268D01*
X-4379399Y21790652D01*
X-4379400Y18738632D01*
X-4381235Y18720000D01*
X-4379400Y18701371D01*
X-4379400Y18701369D01*
X-4379399Y18701359D01*
X-4379400Y14518500D01*
X-4387569Y14526669D01*
X-4482466Y14590077D01*
X-4587910Y14633754D01*
X-4699849Y14656020D01*
X-4813981Y14656020D01*
X-4925920Y14633754D01*
X-5031364Y14590077D01*
X-5126261Y14526669D01*
X-5206964Y14445966D01*
X-5270372Y14351069D01*
X-5314049Y14245625D01*
X-5336315Y14133686D01*
X-5336315Y14019554D01*
X-5314049Y13907615D01*
X-5270372Y13802171D01*
X-5206964Y13707274D01*
X-5126261Y13626571D01*
X-5031364Y13563163D01*
X-4927044Y13519951D01*
X-4971249Y13475746D01*
X-5034657Y13380849D01*
X-5078334Y13275405D01*
X-5100600Y13163466D01*
X-5100600Y13049334D01*
X-5078334Y12937395D01*
X-5034657Y12831951D01*
X-4971249Y12737054D01*
X-4890546Y12656351D01*
X-4795649Y12592943D01*
X-4690205Y12549266D01*
X-4578266Y12527000D01*
X-4478352Y12527000D01*
X-40309Y8088956D01*
X-103457Y7994449D01*
X-147134Y7889005D01*
X-169400Y7777066D01*
X-169400Y7662934D01*
X-147134Y7550995D01*
X-103457Y7445551D01*
X-40049Y7350654D01*
X40654Y7269951D01*
X135551Y7206543D01*
X240995Y7162866D01*
X278795Y7155347D01*
X2848Y6879400D01*
X-2130005Y6879400D01*
X-2200654Y6950049D01*
X-2295551Y7013457D01*
X-2400995Y7057134D01*
X-2512934Y7079400D01*
X-2627066Y7079400D01*
X-2739005Y7057134D01*
X-2844449Y7013457D01*
X-2939346Y6950049D01*
X-3020049Y6869346D01*
X-3083457Y6774449D01*
X-3127134Y6669005D01*
X-3149400Y6557066D01*
X-3149400Y6442934D01*
X-3127134Y6330995D01*
X-3083457Y6225551D01*
X-3020049Y6130654D01*
X-2939346Y6049951D01*
X-2844449Y5986543D01*
X-2739005Y5942866D01*
X-2627066Y5920600D01*
X-2512934Y5920600D01*
X-2400995Y5942866D01*
X-2295551Y5986543D01*
X-2200654Y6049951D01*
X-2130005Y6120600D01*
X141371Y6120600D01*
X160000Y6118765D01*
X178629Y6120600D01*
X178632Y6120600D01*
X234375Y6126090D01*
X305892Y6147785D01*
X371803Y6183015D01*
X429574Y6230426D01*
X441454Y6244902D01*
X1217500Y7020948D01*
X1231975Y7032827D01*
X1260874Y7068040D01*
X1270825Y7080166D01*
X2885400Y7080166D01*
X2885400Y6966034D01*
X2907666Y6854095D01*
X2951343Y6748651D01*
X3014751Y6653754D01*
X3095454Y6573051D01*
X3190351Y6509643D01*
X3295795Y6465966D01*
X3407734Y6443700D01*
X3521866Y6443700D01*
X3633805Y6465966D01*
X3739249Y6509643D01*
X3834146Y6573051D01*
X3914849Y6653754D01*
X3978257Y6748651D01*
X4021934Y6854095D01*
X4044200Y6966034D01*
X4044200Y7080166D01*
X4021934Y7192105D01*
X3978257Y7297549D01*
X3914849Y7392446D01*
X3834146Y7473149D01*
X3739249Y7536557D01*
X3633805Y7580234D01*
X3521866Y7602500D01*
X3407734Y7602500D01*
X3295795Y7580234D01*
X3190351Y7536557D01*
X3095454Y7473149D01*
X3014751Y7392446D01*
X2951343Y7297549D01*
X2907666Y7192105D01*
X2885400Y7080166D01*
X1270825Y7080166D01*
X1279386Y7090597D01*
X1302820Y7134440D01*
X1314616Y7156509D01*
X1336311Y7228026D01*
X1341801Y7283769D01*
X1341801Y7283778D01*
X1343635Y7302400D01*
X1341801Y7321022D01*
X1341801Y10895249D01*
X2187618Y11741066D01*
X2671800Y11741066D01*
X2671800Y11626934D01*
X2694066Y11514995D01*
X2737743Y11409551D01*
X2801151Y11314654D01*
X2881854Y11233951D01*
X2976751Y11170543D01*
X3082195Y11126866D01*
X3194134Y11104600D01*
X3308266Y11104600D01*
X3420205Y11126866D01*
X3525649Y11170543D01*
X3620546Y11233951D01*
X3701249Y11314654D01*
X3702860Y11317066D01*
X9120600Y11317066D01*
X9120600Y11202934D01*
X9142866Y11090995D01*
X9186543Y10985551D01*
X9249951Y10890654D01*
X9330654Y10809951D01*
X9425551Y10746543D01*
X9530995Y10702866D01*
X9642934Y10680600D01*
X9757066Y10680600D01*
X9869005Y10702866D01*
X9974449Y10746543D01*
X10069346Y10809951D01*
X10150049Y10890654D01*
X10213457Y10985551D01*
X10257134Y11090995D01*
X10279400Y11202934D01*
X10279400Y11317066D01*
X10257134Y11429005D01*
X10213457Y11534449D01*
X10150049Y11629346D01*
X10069346Y11710049D01*
X9974449Y11773457D01*
X9869005Y11817134D01*
X9757066Y11839400D01*
X9642934Y11839400D01*
X9530995Y11817134D01*
X9425551Y11773457D01*
X9330654Y11710049D01*
X9249951Y11629346D01*
X9186543Y11534449D01*
X9142866Y11429005D01*
X9120600Y11317066D01*
X3702860Y11317066D01*
X3764657Y11409551D01*
X3808334Y11514995D01*
X3830600Y11626934D01*
X3830600Y11741066D01*
X3808334Y11853005D01*
X3764657Y11958449D01*
X3701249Y12053346D01*
X3620546Y12134049D01*
X3525649Y12197457D01*
X3420205Y12241134D01*
X3308266Y12263400D01*
X3194134Y12263400D01*
X3082195Y12241134D01*
X2976751Y12197457D01*
X2881854Y12134049D01*
X2801151Y12053346D01*
X2737743Y11958449D01*
X2694066Y11853005D01*
X2671800Y11741066D01*
X2187618Y11741066D01*
X2998304Y12551751D01*
X3012774Y12563626D01*
X3036834Y12592943D01*
X3060185Y12621396D01*
X3082876Y12663849D01*
X3095415Y12687308D01*
X3117110Y12758825D01*
X3122600Y12814568D01*
X3122600Y12814570D01*
X3124435Y12833199D01*
X3122600Y12851828D01*
X3122600Y15104805D01*
X3193249Y15175454D01*
X3256657Y15270351D01*
X3300334Y15375795D01*
X3322600Y15487734D01*
X3322600Y15601866D01*
X3300334Y15713805D01*
X3256657Y15819249D01*
X3193249Y15914146D01*
X3112546Y15994849D01*
X3017649Y16058257D01*
X2912205Y16101934D01*
X2800266Y16124200D01*
X2686134Y16124200D01*
X2574195Y16101934D01*
X2468751Y16058257D01*
X2373854Y15994849D01*
X2293151Y15914146D01*
X2229743Y15819249D01*
X2186066Y15713805D01*
X2163800Y15601866D01*
X2163800Y15487734D01*
X2186066Y15375795D01*
X2229743Y15270351D01*
X2293151Y15175454D01*
X2363801Y15104804D01*
X2363800Y12990353D01*
X1401989Y12028542D01*
X1420734Y12073795D01*
X1443000Y12185734D01*
X1443000Y12299866D01*
X1420734Y12411805D01*
X1377057Y12517249D01*
X1313649Y12612146D01*
X1232946Y12692849D01*
X1141489Y12753959D01*
X1150638Y12776046D01*
X1172904Y12887985D01*
X1172904Y13002117D01*
X1150638Y13114056D01*
X1106961Y13219500D01*
X1043553Y13314397D01*
X983340Y13374610D01*
X1011623Y13416939D01*
X1055300Y13522383D01*
X1077566Y13634322D01*
X1077566Y13748454D01*
X1055300Y13860393D01*
X1033677Y13912595D01*
X1036449Y13913743D01*
X1131346Y13977151D01*
X1212049Y14057854D01*
X1275457Y14152751D01*
X1319134Y14258195D01*
X1341400Y14370134D01*
X1341400Y14484266D01*
X1319134Y14596205D01*
X1275457Y14701649D01*
X1212049Y14796546D01*
X1131346Y14877249D01*
X1036449Y14940657D01*
X931005Y14984334D01*
X819066Y15006600D01*
X704934Y15006600D01*
X592995Y14984334D01*
X487551Y14940657D01*
X392654Y14877249D01*
X311951Y14796546D01*
X248543Y14701649D01*
X204866Y14596205D01*
X182600Y14484266D01*
X182600Y14370134D01*
X204866Y14258195D01*
X226489Y14205993D01*
X223717Y14204845D01*
X128820Y14141437D01*
X48117Y14060734D01*
X-15291Y13965837D01*
X-58968Y13860393D01*
X-81234Y13748454D01*
X-81234Y13634322D01*
X-58968Y13522383D01*
X-15291Y13416939D01*
X48117Y13322042D01*
X108330Y13261829D01*
X80047Y13219500D01*
X36370Y13114056D01*
X14104Y13002117D01*
X14104Y12887985D01*
X36370Y12776046D01*
X80047Y12670602D01*
X143455Y12575705D01*
X224158Y12495002D01*
X315615Y12433892D01*
X306466Y12411805D01*
X284200Y12299866D01*
X284200Y12185734D01*
X306466Y12073795D01*
X350143Y11968351D01*
X413551Y11873454D01*
X494254Y11792751D01*
X589151Y11729343D01*
X694595Y11685666D01*
X806534Y11663400D01*
X920666Y11663400D01*
X1032605Y11685666D01*
X1077859Y11704411D01*
X707299Y11333851D01*
X692828Y11321975D01*
X680952Y11307504D01*
X680950Y11307502D01*
X645416Y11264204D01*
X622075Y11220534D01*
X610187Y11198293D01*
X588520Y11126866D01*
X588492Y11126775D01*
X581166Y11052401D01*
X583002Y11033762D01*
X583001Y8538752D01*
X-925637Y10047390D01*
X-905189Y10047390D01*
X-793250Y10069656D01*
X-687806Y10113333D01*
X-592909Y10176741D01*
X-512206Y10257444D01*
X-448798Y10352341D01*
X-405121Y10457785D01*
X-382855Y10569724D01*
X-382855Y10683856D01*
X-405121Y10795795D01*
X-448798Y10901239D01*
X-512206Y10996136D01*
X-592909Y11076839D01*
X-687806Y11140247D01*
X-793250Y11183924D01*
X-905189Y11206190D01*
X-1005102Y11206190D01*
X-3620600Y13821687D01*
X-3620600Y18562848D01*
X-830257Y21353190D01*
X2403961Y21353190D01*
X2422590Y21351355D01*
X2441219Y21353190D01*
X2441222Y21353190D01*
X2496965Y21358680D01*
X2568482Y21380375D01*
X2634393Y21415605D01*
X2692164Y21463016D01*
X2704044Y21477492D01*
X3297153Y22070600D01*
X3397066Y22070600D01*
X3509005Y22092866D01*
X3614449Y22136543D01*
X3709346Y22199951D01*
X3790049Y22280654D01*
X3853457Y22375551D01*
X3865757Y22405244D01*
X3896102Y22374899D01*
X3907980Y22360426D01*
X3922451Y22348550D01*
X3922452Y22348549D01*
X3965751Y22313015D01*
X4031661Y22277785D01*
X4048307Y22272736D01*
X4103179Y22256090D01*
X4158922Y22250600D01*
X4158925Y22250600D01*
X4177554Y22248765D01*
X4196183Y22250600D01*
X4767727Y22250600D01*
X4676057Y22158930D01*
X4587106Y22025805D01*
X4525835Y21877885D01*
X4494600Y21720854D01*
X4494600Y21560746D01*
X4525835Y21403715D01*
X4587106Y21255795D01*
X4676057Y21122670D01*
X4789270Y21009457D01*
X4922395Y20920506D01*
X5070315Y20859235D01*
X5227346Y20828000D01*
X5387454Y20828000D01*
X5544485Y20859235D01*
X5692405Y20920506D01*
X5825530Y21009457D01*
X5938743Y21122670D01*
X6027694Y21255795D01*
X6088965Y21403715D01*
X6102562Y21472072D01*
X6540601Y21034033D01*
X6540600Y20479995D01*
X6469951Y20409346D01*
X6406543Y20314449D01*
X6362866Y20209005D01*
X6349551Y20142068D01*
X6246510Y20245109D01*
X6005222Y20406333D01*
X5737117Y20517386D01*
X5452498Y20574000D01*
X5162302Y20574000D01*
X4877683Y20517386D01*
X4609578Y20406333D01*
X4368290Y20245109D01*
X4163091Y20039910D01*
X4001867Y19798622D01*
X3890814Y19530517D01*
X3834200Y19245898D01*
X3834200Y18955702D01*
X3890814Y18671083D01*
X4001867Y18402978D01*
X4163091Y18161690D01*
X4368290Y17956491D01*
X4609578Y17795267D01*
X4877683Y17684214D01*
X5162302Y17627600D01*
X5452498Y17627600D01*
X5737117Y17684214D01*
X6005222Y17795267D01*
X6246510Y17956491D01*
X6451709Y18161690D01*
X6612933Y18402978D01*
X6723986Y18671083D01*
X6780600Y18955702D01*
X6780600Y19245898D01*
X6731890Y19490780D01*
X6750995Y19482866D01*
X6862934Y19460600D01*
X6977066Y19460600D01*
X7054990Y19476100D01*
X7009200Y19245898D01*
X7009200Y18955702D01*
X7065814Y18671083D01*
X7176867Y18402978D01*
X7338091Y18161690D01*
X7543290Y17956491D01*
X7784578Y17795267D01*
X8052683Y17684214D01*
X8337302Y17627600D01*
X8627498Y17627600D01*
X8912117Y17684214D01*
X9180222Y17795267D01*
X9421510Y17956491D01*
X9626709Y18161690D01*
X9787933Y18402978D01*
X9898986Y18671083D01*
X9955600Y18955702D01*
X9955600Y19245898D01*
X9898986Y19530517D01*
X9787933Y19798622D01*
X9626709Y20039910D01*
X9421510Y20245109D01*
X9180222Y20406333D01*
X9072740Y20450854D01*
X9574600Y20450854D01*
X9574600Y20290746D01*
X9605835Y20133715D01*
X9667106Y19985795D01*
X9756057Y19852670D01*
X9869270Y19739457D01*
X10002395Y19650506D01*
X10150315Y19589235D01*
X10307346Y19558000D01*
X10467454Y19558000D01*
X10624485Y19589235D01*
X10772405Y19650506D01*
X10905530Y19739457D01*
X11018743Y19852670D01*
X11107694Y19985795D01*
X11168965Y20133715D01*
X11200200Y20290746D01*
X11200200Y20450854D01*
X11168965Y20607885D01*
X11107694Y20755805D01*
X11018743Y20888930D01*
X10905530Y21002143D01*
X10772405Y21091094D01*
X10624485Y21152365D01*
X10467454Y21183600D01*
X10307346Y21183600D01*
X10150315Y21152365D01*
X10002395Y21091094D01*
X9869270Y21002143D01*
X9756057Y20888930D01*
X9667106Y20755805D01*
X9605835Y20607885D01*
X9574600Y20450854D01*
X9072740Y20450854D01*
X8912117Y20517386D01*
X8627498Y20574000D01*
X8337302Y20574000D01*
X8052683Y20517386D01*
X7784578Y20406333D01*
X7543290Y20245109D01*
X7482120Y20183939D01*
X7477134Y20209005D01*
X7433457Y20314449D01*
X7370049Y20409346D01*
X7299400Y20479995D01*
X7299400Y21172558D01*
X7301235Y21191187D01*
X7299400Y21209818D01*
X7293910Y21265561D01*
X7272215Y21337078D01*
X7255815Y21367760D01*
X7236985Y21402990D01*
X7218473Y21425547D01*
X7189574Y21460760D01*
X7175098Y21472640D01*
X5840642Y22807096D01*
X6005222Y22875267D01*
X6246510Y23036491D01*
X6347581Y23137562D01*
X6352866Y23110995D01*
X6396543Y23005551D01*
X6459951Y22910654D01*
X6540654Y22829951D01*
X6635551Y22766543D01*
X6740995Y22722866D01*
X6852934Y22700600D01*
X6967066Y22700600D01*
X7079005Y22722866D01*
X7184449Y22766543D01*
X7279346Y22829951D01*
X7360049Y22910654D01*
X7423457Y23005551D01*
X7467134Y23110995D01*
X7467408Y23112373D01*
X7543290Y23036491D01*
X7784578Y22875267D01*
X8052683Y22764214D01*
X8337302Y22707600D01*
X8627498Y22707600D01*
X8912117Y22764214D01*
X9180222Y22875267D01*
X9353209Y22990854D01*
X9574600Y22990854D01*
X9574600Y22830746D01*
X9605835Y22673715D01*
X9667106Y22525795D01*
X9756057Y22392670D01*
X9869270Y22279457D01*
X10002395Y22190506D01*
X10150315Y22129235D01*
X10307346Y22098000D01*
X10467454Y22098000D01*
X10624485Y22129235D01*
X10772405Y22190506D01*
X10905530Y22279457D01*
X11018743Y22392670D01*
X11107694Y22525795D01*
X11168965Y22673715D01*
X11200200Y22830746D01*
X11200200Y22990854D01*
X11168965Y23147885D01*
X11107694Y23295805D01*
X11018743Y23428930D01*
X10905530Y23542143D01*
X10772405Y23631094D01*
X10624485Y23692365D01*
X10467454Y23723600D01*
X10307346Y23723600D01*
X10150315Y23692365D01*
X10002395Y23631094D01*
X9869270Y23542143D01*
X9756057Y23428930D01*
X9667106Y23295805D01*
X9605835Y23147885D01*
X9574600Y22990854D01*
X9353209Y22990854D01*
X9421510Y23036491D01*
X9626709Y23241690D01*
X9787933Y23482978D01*
X9898986Y23751083D01*
X9955600Y24035702D01*
X9955600Y24325898D01*
X9898986Y24610517D01*
X9787933Y24878622D01*
X9626709Y25119910D01*
X9421510Y25325109D01*
X9180222Y25486333D01*
X8912117Y25597386D01*
X8627498Y25654000D01*
X8337302Y25654000D01*
X8052683Y25597386D01*
X7784578Y25486333D01*
X7543290Y25325109D01*
X7338091Y25119910D01*
X7176867Y24878622D01*
X7065814Y24610517D01*
X7009200Y24325898D01*
X7009200Y24035702D01*
X7047449Y23843411D01*
X6967066Y23859400D01*
X6852934Y23859400D01*
X6741107Y23837156D01*
X6780600Y24035702D01*
X6780600Y24325898D01*
X6723986Y24610517D01*
X6612933Y24878622D01*
X6451709Y25119910D01*
X6246510Y25325109D01*
X6005222Y25486333D01*
X5737117Y25597386D01*
X5452498Y25654000D01*
X5162302Y25654000D01*
X4877683Y25597386D01*
X4609578Y25486333D01*
X4368290Y25325109D01*
X4163091Y25119910D01*
X4001867Y24878622D01*
X3890814Y24610517D01*
X3834200Y24325898D01*
X3834200Y24035702D01*
X3890814Y23751083D01*
X4001867Y23482978D01*
X4163091Y23241690D01*
X4368290Y23036491D01*
X4408834Y23009400D01*
X4334707Y23009400D01*
X3101598Y24242508D01*
X3089718Y24256984D01*
X3031947Y24304395D01*
X2966036Y24339625D01*
X2894519Y24361320D01*
X2838776Y24366810D01*
X2838773Y24366810D01*
X2820144Y24368645D01*
X2801515Y24366810D01*
X-1128961Y24366810D01*
X-1147590Y24368645D01*
X-1166219Y24366810D01*
X-1166222Y24366810D01*
X-1221965Y24361320D01*
X-1293482Y24339625D01*
X-1324164Y24323225D01*
X-1359394Y24304395D01*
X-1396642Y24273826D01*
X-1417164Y24256984D01*
X-1429040Y24242513D01*
X-1706588Y23964965D01*
X-1827607Y24001676D01*
X-2000000Y24018655D01*
X-2172392Y24001676D01*
X-2293412Y23964965D01*
X-2570956Y24242508D01*
X-2582836Y24256984D01*
X-2640607Y24304395D01*
X-2706518Y24339625D01*
X-2778035Y24361320D01*
X-2833778Y24366810D01*
X-2833781Y24366810D01*
X-2852410Y24368645D01*
X-2871039Y24366810D01*
X-8334450Y24366810D01*
X-8353079Y24368645D01*
X-8371708Y24366810D01*
X-8371711Y24366810D01*
X-8427454Y24361320D01*
X-8482326Y24344674D01*
X-8498972Y24339625D01*
X-8564883Y24304395D01*
X-8602131Y24273826D01*
X-8622653Y24256984D01*
X-8634529Y24242513D01*
X-9234409Y23642632D01*
X-9248879Y23630757D01*
X-9260366Y23616760D01*
X-9265268Y23625932D01*
X-9375162Y23759838D01*
X-9509068Y23869732D01*
X-9661840Y23951391D01*
X-9827607Y24001676D01*
X-10000000Y24018655D01*
X-10172392Y24001676D01*
X-10338159Y23951391D01*
X-10490931Y23869732D01*
X-10624837Y23759838D01*
X-10734731Y23625932D01*
X-10816391Y23473160D01*
X-10866676Y23307393D01*
X-10879400Y23178202D01*
X-10879400Y22541799D01*
X-10866676Y22412608D01*
X-10816391Y22246841D01*
X-10734732Y22094069D01*
X-10624838Y21960162D01*
X-10490932Y21850268D01*
X-10379400Y21790652D01*
X-10379399Y15412589D01*
X-12492588Y13299400D01*
X-12520005Y13299400D01*
X-12590654Y13370049D01*
X-12685551Y13433457D01*
X-12790995Y13477134D01*
X-12902934Y13499400D01*
X-13017066Y13499400D01*
X-13129005Y13477134D01*
X-13234449Y13433457D01*
X-13329346Y13370049D01*
X-13410049Y13289346D01*
X-13473457Y13194449D01*
X-13517134Y13089005D01*
X-13539400Y12977066D01*
X-13539400Y12862934D01*
X-13517134Y12750995D01*
X-13473457Y12645551D01*
X-13410049Y12550654D01*
X-13329346Y12469951D01*
X-13234449Y12406543D01*
X-13129005Y12362866D01*
X-13017066Y12340600D01*
X-12953006Y12340600D01*
X-14951615Y10341991D01*
X-14966086Y10330115D01*
X-14977962Y10315644D01*
X-14977964Y10315642D01*
X-15013498Y10272344D01*
X-15041650Y10219673D01*
X-15048727Y10206433D01*
X-15069062Y10139397D01*
X-15070422Y10134915D01*
X-15077748Y10060541D01*
X-15075912Y10041902D01*
X-15075913Y-15057287D01*
X-15077748Y-15075916D01*
X-15075913Y-15094545D01*
X-15075913Y-15094547D01*
X-15070423Y-15150290D01*
X-15048728Y-15221807D01*
X-15041716Y-15234925D01*
X-15013498Y-15287719D01*
X-14995665Y-15309448D01*
X-14966087Y-15345490D01*
X-14951611Y-15357370D01*
X-13470987Y-16837994D01*
X-13565861Y-16856866D01*
X-13671305Y-16900543D01*
X-13766202Y-16963951D01*
X-13846905Y-17044654D01*
X-13902654Y-17128089D01*
X-13906627Y-17118256D01*
X-13908622Y-17114503D01*
X-14002933Y-16940080D01*
X-14018378Y-16917182D01*
X-14033468Y-16894122D01*
X-14036154Y-16890828D01*
X-14162548Y-16738044D01*
X-14182146Y-16718583D01*
X-14201427Y-16698893D01*
X-14204702Y-16696183D01*
X-14358364Y-16570859D01*
X-14381377Y-16555569D01*
X-14404108Y-16540005D01*
X-14407842Y-16537986D01*
X-14407846Y-16537983D01*
X-14407850Y-16537981D01*
X-14582924Y-16444892D01*
X-14608473Y-16434361D01*
X-14633792Y-16423510D01*
X-14637844Y-16422255D01*
X-14637850Y-16422253D01*
X-14637856Y-16422252D01*
X-14827678Y-16364942D01*
X-14854756Y-16359580D01*
X-14881727Y-16353847D01*
X-14885947Y-16353404D01*
X-14885955Y-16353402D01*
X-14885963Y-16353402D01*
X-15083295Y-16334053D01*
X-15083301Y-16334053D01*
X-15098054Y-16332600D01*
X-19670115Y-16332600D01*
X-20168282Y-16283755D01*
X-20633158Y-16143401D01*
X-21061914Y-15915426D01*
X-21438229Y-15608512D01*
X-21747762Y-15234351D01*
X-21978725Y-14807194D01*
X-22122321Y-14343308D01*
X-22174588Y-13846026D01*
X-22174600Y-13842513D01*
X-22174600Y10145115D01*
X-22125755Y10643282D01*
X-21985400Y11108159D01*
X-21757426Y11536914D01*
X-21450511Y11913229D01*
X-21076351Y12222762D01*
X-20649194Y12453725D01*
X-20185308Y12597321D01*
X-19688027Y12649588D01*
X-19684513Y12649600D01*
X-15098054Y12649600D01*
X-15084630Y12650922D01*
X-15078318Y12650878D01*
X-15074088Y12651293D01*
X-14876886Y12672020D01*
X-14849841Y12677571D01*
X-14822761Y12682737D01*
X-14818694Y12683964D01*
X-14818688Y12683966D01*
X-14629271Y12742600D01*
X-14603803Y12753305D01*
X-14578256Y12763627D01*
X-14574513Y12765617D01*
X-14574504Y12765621D01*
X-14574497Y12765626D01*
X-14400080Y12859933D01*
X-14377197Y12875368D01*
X-14354122Y12890468D01*
X-14350828Y12893154D01*
X-14198044Y13019548D01*
X-14178566Y13039162D01*
X-14158893Y13058427D01*
X-14156188Y13061696D01*
X-14156182Y13061702D01*
X-14156178Y13061709D01*
X-14030859Y13215364D01*
X-14015579Y13238361D01*
X-14000005Y13261108D01*
X-13997983Y13264846D01*
X-13904892Y13439924D01*
X-13894356Y13465485D01*
X-13883510Y13490792D01*
X-13882255Y13494844D01*
X-13882253Y13494850D01*
X-13882252Y13494856D01*
X-13824942Y13684678D01*
X-13819583Y13711741D01*
X-13813847Y13738726D01*
X-13813404Y13742947D01*
X-13813402Y13742955D01*
X-13813402Y13742963D01*
X-13794053Y13940295D01*
X-13794053Y13940301D01*
X-13792600Y13955054D01*
X-13792600Y23607115D01*
X-13743755Y24105282D01*
X-13603400Y24570159D01*
X-13375426Y24998914D01*
X-13068511Y25375229D01*
X-12694351Y25684762D01*
X-12267194Y25915725D01*
X-11803308Y26059321D01*
X-11306027Y26111588D01*
X-11302513Y26111600D01*
X10145115Y26111600D01*
X10643282Y26062755D01*
X10643282Y26062755D01*
G37*
X10643282Y26062755D02*
X11108159Y25922400D01*
X11536914Y25694426D01*
X11913229Y25387511D01*
X12222762Y25013351D01*
X12453725Y24586194D01*
X12597321Y24122308D01*
X12649588Y23625027D01*
X12649601Y23621226D01*
X12649600Y13955055D01*
X12650922Y13941631D01*
X12650878Y13935318D01*
X12651293Y13931088D01*
X12672020Y13733886D01*
X12677571Y13706841D01*
X12682737Y13679761D01*
X12683965Y13675692D01*
X12742600Y13486271D01*
X12753305Y13460803D01*
X12763627Y13435256D01*
X12765617Y13431513D01*
X12765621Y13431504D01*
X12765626Y13431497D01*
X12859933Y13257080D01*
X12875365Y13234201D01*
X12890468Y13211122D01*
X12893154Y13207828D01*
X13019548Y13055044D01*
X13039162Y13035566D01*
X13058427Y13015893D01*
X13061696Y13013188D01*
X13061702Y13013182D01*
X13061709Y13013178D01*
X13215364Y12887859D01*
X13238361Y12872579D01*
X13261108Y12857005D01*
X13264846Y12854983D01*
X13439924Y12761892D01*
X13465485Y12751356D01*
X13490792Y12740510D01*
X13494844Y12739255D01*
X13494850Y12739253D01*
X13494856Y12739252D01*
X13684678Y12681942D01*
X13711741Y12676583D01*
X13738726Y12670847D01*
X13742947Y12670404D01*
X13742955Y12670402D01*
X13742963Y12670402D01*
X13940295Y12651053D01*
X13940301Y12651053D01*
X13955054Y12649600D01*
X19670115Y12649600D01*
X20168282Y12600755D01*
X20633159Y12460400D01*
X21061914Y12232426D01*
X21438229Y11925511D01*
X21747762Y11551351D01*
X21978725Y11124194D01*
X22122321Y10660308D01*
X22174588Y10163027D01*
X22174600Y10159513D01*
X22174601Y-13828105D01*
X22125755Y-14326282D01*
X21985401Y-14791158D01*
X21757426Y-15219914D01*
X21450512Y-15596229D01*
X21076351Y-15905762D01*
X20649194Y-16136725D01*
X20185308Y-16280321D01*
X19688026Y-16332588D01*
X19684513Y-16332600D01*
X15098054Y-16332600D01*
X15084630Y-16333922D01*
X15078318Y-16333878D01*
X15074088Y-16334293D01*
X14876886Y-16355020D01*
X14849841Y-16360571D01*
X14822761Y-16365737D01*
X14818697Y-16366964D01*
X14818691Y-16366965D01*
X14818685Y-16366967D01*
X14629271Y-16425600D01*
X14603826Y-16436296D01*
X14578256Y-16446627D01*
X14574503Y-16448622D01*
X14400080Y-16542933D01*
X14377182Y-16558378D01*
X14354122Y-16573468D01*
X14350828Y-16576154D01*
X14198044Y-16702548D01*
X14178583Y-16722146D01*
X14158893Y-16741427D01*
X14156183Y-16744702D01*
X14030859Y-16898364D01*
X14015569Y-16921377D01*
X14000005Y-16944108D01*
X13997986Y-16947842D01*
X13997983Y-16947846D01*
X13997983Y-16947847D01*
X13904892Y-17122924D01*
X13894361Y-17148473D01*
X13883510Y-17173792D01*
X13882255Y-17177844D01*
X13882253Y-17177850D01*
X13882253Y-17177852D01*
X13824942Y-17367678D01*
X13819580Y-17394756D01*
X13813847Y-17421727D01*
X13813404Y-17425947D01*
X13813402Y-17425955D01*
X13813402Y-17425963D01*
X13794053Y-17623295D01*
X13794053Y-17623311D01*
X13792601Y-17638054D01*
X13792600Y-32941615D01*
X13743755Y-33439782D01*
X13603401Y-33904658D01*
X13375426Y-34333414D01*
X13068512Y-34709729D01*
X12694351Y-35019262D01*
X12267194Y-35250225D01*
X11803308Y-35393821D01*
X11306026Y-35446088D01*
X11302513Y-35446100D01*
X8581879Y-35446100D01*
X8583534Y-35442105D01*
X8605800Y-35330166D01*
X8605800Y-35216034D01*
X8583534Y-35104095D01*
X8539857Y-34998651D01*
X8476449Y-34903754D01*
X8395746Y-34823051D01*
X8300849Y-34759643D01*
X8203480Y-34719311D01*
X6956989Y-33472821D01*
X6956989Y-31657536D01*
X8655978Y-33356526D01*
X8655978Y-33456439D01*
X8678244Y-33568378D01*
X8721921Y-33673822D01*
X8785329Y-33768719D01*
X8866032Y-33849422D01*
X8960929Y-33912830D01*
X9066373Y-33956507D01*
X9178312Y-33978773D01*
X9292444Y-33978773D01*
X9404383Y-33956507D01*
X9509827Y-33912830D01*
X9604724Y-33849422D01*
X9685427Y-33768719D01*
X9748835Y-33673822D01*
X9792512Y-33568378D01*
X9814778Y-33456439D01*
X9814778Y-33342307D01*
X9792512Y-33230368D01*
X9748835Y-33124924D01*
X9685427Y-33030027D01*
X9604724Y-32949324D01*
X9509827Y-32885916D01*
X9404383Y-32842239D01*
X9292444Y-32819973D01*
X9192531Y-32819973D01*
X7309400Y-30936843D01*
X7309400Y-23612629D01*
X7311235Y-23594000D01*
X7308769Y-23568961D01*
X7303910Y-23519625D01*
X7287264Y-23464753D01*
X7282215Y-23448107D01*
X7246985Y-23382196D01*
X7211451Y-23338898D01*
X7211450Y-23338897D01*
X7199574Y-23324426D01*
X7185104Y-23312551D01*
X5478004Y-21605452D01*
X5458228Y-21581355D01*
X5458227Y-21581354D01*
X5446351Y-21566883D01*
X5431881Y-21555008D01*
X4966773Y-21089900D01*
X5010066Y-21089900D01*
X5122005Y-21067634D01*
X5227449Y-21023957D01*
X5322346Y-20960549D01*
X5403049Y-20879846D01*
X5466457Y-20784949D01*
X5510134Y-20679505D01*
X5532400Y-20567566D01*
X5532400Y-20464200D01*
X5609495Y-20496134D01*
X5721434Y-20518400D01*
X5835566Y-20518400D01*
X5947505Y-20496134D01*
X6052949Y-20452457D01*
X6093712Y-20425220D01*
X6088100Y-20453434D01*
X6088100Y-20567566D01*
X6110366Y-20679505D01*
X6154043Y-20784949D01*
X6217451Y-20879846D01*
X6298154Y-20960549D01*
X6393051Y-21023957D01*
X6498495Y-21067634D01*
X6610434Y-21089900D01*
X6724566Y-21089900D01*
X6836505Y-21067634D01*
X6941949Y-21023957D01*
X7036846Y-20960549D01*
X7117549Y-20879846D01*
X7180957Y-20784949D01*
X7224634Y-20679505D01*
X7246900Y-20567566D01*
X7246900Y-20464200D01*
X7323995Y-20496134D01*
X7435934Y-20518400D01*
X7550066Y-20518400D01*
X7662005Y-20496134D01*
X7767449Y-20452457D01*
X7862346Y-20389049D01*
X7943049Y-20308346D01*
X8006457Y-20213449D01*
X8050134Y-20108005D01*
X8072400Y-19996066D01*
X8072400Y-19881934D01*
X8050134Y-19769995D01*
X8006457Y-19664551D01*
X7943049Y-19569654D01*
X7862346Y-19488951D01*
X7775616Y-19431000D01*
X7862346Y-19373049D01*
X7943049Y-19292346D01*
X8006457Y-19197449D01*
X8050134Y-19092005D01*
X8072400Y-18980066D01*
X8072400Y-18952570D01*
X8101235Y-18964514D01*
X8213174Y-18986780D01*
X8327306Y-18986780D01*
X8439245Y-18964514D01*
X8544689Y-18920837D01*
X8639586Y-18857429D01*
X8720289Y-18776726D01*
X8745540Y-18738934D01*
X9450600Y-18738934D01*
X9450600Y-18853066D01*
X9472866Y-18965005D01*
X9516543Y-19070449D01*
X9579951Y-19165346D01*
X9660654Y-19246049D01*
X9755551Y-19309457D01*
X9860995Y-19353134D01*
X9972934Y-19375400D01*
X10087066Y-19375400D01*
X10199005Y-19353134D01*
X10304449Y-19309457D01*
X10399346Y-19246049D01*
X10480049Y-19165346D01*
X10543457Y-19070449D01*
X10587134Y-18965005D01*
X10609400Y-18853066D01*
X10609400Y-18738934D01*
X10587134Y-18626995D01*
X10543457Y-18521551D01*
X10480049Y-18426654D01*
X10399346Y-18345951D01*
X10304449Y-18282543D01*
X10199005Y-18238866D01*
X10087066Y-18216600D01*
X9972934Y-18216600D01*
X9860995Y-18238866D01*
X9755551Y-18282543D01*
X9660654Y-18345951D01*
X9579951Y-18426654D01*
X9516543Y-18521551D01*
X9472866Y-18626995D01*
X9450600Y-18738934D01*
X8745540Y-18738934D01*
X8783697Y-18681829D01*
X8827374Y-18576385D01*
X8849640Y-18464446D01*
X8849640Y-18383400D01*
X8897066Y-18383400D01*
X9009005Y-18361134D01*
X9114449Y-18317457D01*
X9209346Y-18254049D01*
X9290049Y-18173346D01*
X9353457Y-18078449D01*
X9397134Y-17973005D01*
X9419400Y-17861066D01*
X9419400Y-17746934D01*
X9397134Y-17634995D01*
X9353457Y-17529551D01*
X9290049Y-17434654D01*
X9209346Y-17353951D01*
X9114449Y-17290543D01*
X9009005Y-17246866D01*
X8897066Y-17224600D01*
X8782934Y-17224600D01*
X8670995Y-17246866D01*
X8565551Y-17290543D01*
X8470654Y-17353951D01*
X8389951Y-17434654D01*
X8326543Y-17529551D01*
X8282866Y-17634995D01*
X8260600Y-17746934D01*
X8260600Y-17827980D01*
X8213174Y-17827980D01*
X8101235Y-17850246D01*
X7995791Y-17893923D01*
X7935811Y-17934000D01*
X7948534Y-17903285D01*
X7970800Y-17791346D01*
X7970800Y-17677214D01*
X7948534Y-17565275D01*
X7904857Y-17459831D01*
X7841449Y-17364934D01*
X7760746Y-17284231D01*
X7665849Y-17220823D01*
X7560405Y-17177146D01*
X7448466Y-17154880D01*
X7334334Y-17154880D01*
X7222395Y-17177146D01*
X7116951Y-17220823D01*
X7022054Y-17284231D01*
X6941351Y-17364934D01*
X6877943Y-17459831D01*
X6834266Y-17565275D01*
X6812000Y-17677214D01*
X6812000Y-17789492D01*
X6724566Y-17772100D01*
X6610434Y-17772100D01*
X6498495Y-17794366D01*
X6393051Y-17838043D01*
X6357900Y-17861530D01*
X6357900Y-17751934D01*
X6335634Y-17639995D01*
X6291957Y-17534551D01*
X6228549Y-17439654D01*
X6147846Y-17358951D01*
X6052949Y-17295543D01*
X5947505Y-17251866D01*
X5835566Y-17229600D01*
X5721434Y-17229600D01*
X5609495Y-17251866D01*
X5532400Y-17283800D01*
X5532400Y-17278434D01*
X5510134Y-17166495D01*
X5466457Y-17061051D01*
X5403049Y-16966154D01*
X5322346Y-16885451D01*
X5227449Y-16822043D01*
X5122005Y-16778366D01*
X5010066Y-16756100D01*
X4895934Y-16756100D01*
X4783995Y-16778366D01*
X4678551Y-16822043D01*
X4583654Y-16885451D01*
X4502951Y-16966154D01*
X4439543Y-17061051D01*
X4395866Y-17166495D01*
X4373600Y-17278434D01*
X4373600Y-17392566D01*
X4395866Y-17504505D01*
X4439543Y-17609949D01*
X4502951Y-17704846D01*
X4583654Y-17785549D01*
X4670384Y-17843500D01*
X4583654Y-17901451D01*
X4502951Y-17982154D01*
X4439543Y-18077051D01*
X4395866Y-18182495D01*
X4373600Y-18294434D01*
X4373600Y-18408566D01*
X4395866Y-18520505D01*
X4439543Y-18625949D01*
X4502951Y-18720846D01*
X4583654Y-18801549D01*
X4678551Y-18864957D01*
X4700382Y-18874000D01*
X4678551Y-18883043D01*
X4583654Y-18946451D01*
X4502951Y-19027154D01*
X4439543Y-19122051D01*
X4395866Y-19227495D01*
X4373600Y-19339434D01*
X4373600Y-19453566D01*
X4395866Y-19565505D01*
X4439543Y-19670949D01*
X4502951Y-19765846D01*
X4583654Y-19846549D01*
X4678551Y-19909957D01*
X4783672Y-19953500D01*
X4678551Y-19997043D01*
X4583654Y-20060451D01*
X4502951Y-20141154D01*
X4439543Y-20236051D01*
X4395866Y-20341495D01*
X4373600Y-20453434D01*
X4373600Y-20496727D01*
X-261386Y-15861742D01*
X-273266Y-15847266D01*
X-331037Y-15799855D01*
X-396948Y-15764625D01*
X-468465Y-15742930D01*
X-524208Y-15737440D01*
X-524211Y-15737440D01*
X-542840Y-15735605D01*
X-561469Y-15737440D01*
X-2920012Y-15737440D01*
X-5062018Y-13595434D01*
X-395210Y-13595434D01*
X-395210Y-13709566D01*
X-372944Y-13821505D01*
X-329267Y-13926949D01*
X-265859Y-14021846D01*
X-185156Y-14102549D01*
X-90259Y-14165957D01*
X15185Y-14209634D01*
X127124Y-14231900D01*
X241256Y-14231900D01*
X353195Y-14209634D01*
X458639Y-14165957D01*
X553536Y-14102549D01*
X634239Y-14021846D01*
X697647Y-13926949D01*
X741324Y-13821505D01*
X763590Y-13709566D01*
X763590Y-13595434D01*
X741324Y-13483495D01*
X697647Y-13378051D01*
X634239Y-13283154D01*
X553536Y-13202451D01*
X458639Y-13139043D01*
X353195Y-13095366D01*
X241256Y-13073100D01*
X127124Y-13073100D01*
X15185Y-13095366D01*
X-90259Y-13139043D01*
X-185156Y-13202451D01*
X-265859Y-13283154D01*
X-329267Y-13378051D01*
X-372944Y-13483495D01*
X-395210Y-13595434D01*
X-5062018Y-13595434D01*
X-5425242Y-13232211D01*
X-4356314Y-13232211D01*
X-4354449Y-13233457D01*
X-4249005Y-13277134D01*
X-4137066Y-13299400D01*
X-4022934Y-13299400D01*
X-3910995Y-13277134D01*
X-3805551Y-13233457D01*
X-3710654Y-13170049D01*
X-3629951Y-13089346D01*
X-3566543Y-12994449D01*
X-3522866Y-12889005D01*
X-3500600Y-12777066D01*
X-3500600Y-12662934D01*
X-3522866Y-12550995D01*
X-3566543Y-12445551D01*
X-3629951Y-12350654D01*
X-3710654Y-12269951D01*
X-3805551Y-12206543D01*
X-3910995Y-12162866D01*
X-4022934Y-12140600D01*
X-4137066Y-12140600D01*
X-4249005Y-12162866D01*
X-4354449Y-12206543D01*
X-4449346Y-12269951D01*
X-4530049Y-12350654D01*
X-4593457Y-12445551D01*
X-4604997Y-12473411D01*
X-5685659Y-12473411D01*
X-6443586Y-11715484D01*
X-6443901Y-11712284D01*
X-6465596Y-11640767D01*
X-6489764Y-11595551D01*
X-6500826Y-11574855D01*
X-6536360Y-11531557D01*
X-6536361Y-11531556D01*
X-6548237Y-11517085D01*
X-6562707Y-11505210D01*
X-8054405Y-10013513D01*
X-8066285Y-9999037D01*
X-8124056Y-9951626D01*
X-8189967Y-9916396D01*
X-8261484Y-9894701D01*
X-8317227Y-9889211D01*
X-8317230Y-9889211D01*
X-8335859Y-9887376D01*
X-8354488Y-9889211D01*
X-8497879Y-9889211D01*
X-9655780Y-8731310D01*
X-9655780Y-8725886D01*
X-9644449Y-8733457D01*
X-9539005Y-8777134D01*
X-9427066Y-8799400D01*
X-9312934Y-8799400D01*
X-9200995Y-8777134D01*
X-9095551Y-8733457D01*
X-9000654Y-8670049D01*
X-8919951Y-8589346D01*
X-8856543Y-8494449D01*
X-8812866Y-8389005D01*
X-8800898Y-8328834D01*
X-2799400Y-8328834D01*
X-2799400Y-8442966D01*
X-2777134Y-8554905D01*
X-2733457Y-8660349D01*
X-2670049Y-8755246D01*
X-2589346Y-8835949D01*
X-2494449Y-8899357D01*
X-2389005Y-8943034D01*
X-2277066Y-8965300D01*
X-2162934Y-8965300D01*
X-2050995Y-8943034D01*
X-1945551Y-8899357D01*
X-1850654Y-8835949D01*
X-1847639Y-8832934D01*
X690600Y-8832934D01*
X690600Y-8947066D01*
X712866Y-9059005D01*
X756543Y-9164449D01*
X819951Y-9259346D01*
X900654Y-9340049D01*
X995551Y-9403457D01*
X1100995Y-9447134D01*
X1212934Y-9469400D01*
X1327066Y-9469400D01*
X1439005Y-9447134D01*
X1544449Y-9403457D01*
X1639346Y-9340049D01*
X1720049Y-9259346D01*
X1783457Y-9164449D01*
X1827134Y-9059005D01*
X1849400Y-8947066D01*
X1849400Y-8832934D01*
X1827134Y-8720995D01*
X1783457Y-8615551D01*
X1720049Y-8520654D01*
X1639346Y-8439951D01*
X1544449Y-8376543D01*
X1439005Y-8332866D01*
X1327066Y-8310600D01*
X1212934Y-8310600D01*
X1100995Y-8332866D01*
X995551Y-8376543D01*
X900654Y-8439951D01*
X819951Y-8520654D01*
X756543Y-8615551D01*
X712866Y-8720995D01*
X690600Y-8832934D01*
X-1847639Y-8832934D01*
X-1769951Y-8755246D01*
X-1706543Y-8660349D01*
X-1662866Y-8554905D01*
X-1640600Y-8442966D01*
X-1640600Y-8328834D01*
X-1662866Y-8216895D01*
X-1706543Y-8111451D01*
X-1769951Y-8016554D01*
X-1850654Y-7935851D01*
X-1945551Y-7872443D01*
X-2050995Y-7828766D01*
X-2162934Y-7806500D01*
X-2277066Y-7806500D01*
X-2389005Y-7828766D01*
X-2494449Y-7872443D01*
X-2589346Y-7935851D01*
X-2670049Y-8016554D01*
X-2733457Y-8111451D01*
X-2777134Y-8216895D01*
X-2799400Y-8328834D01*
X-8800898Y-8328834D01*
X-8790600Y-8277066D01*
X-8790600Y-8162934D01*
X-8810226Y-8064269D01*
X-8740946Y-8133549D01*
X-8646049Y-8196957D01*
X-8540605Y-8240634D01*
X-8428666Y-8262900D01*
X-8314534Y-8262900D01*
X-8202595Y-8240634D01*
X-8097151Y-8196957D01*
X-8002254Y-8133549D01*
X-7921551Y-8052846D01*
X-7858143Y-7957949D01*
X-7814466Y-7852505D01*
X-7792200Y-7740566D01*
X-7792200Y-7653434D01*
X-5900Y-7653434D01*
X-5900Y-7767566D01*
X16366Y-7879505D01*
X60043Y-7984949D01*
X123451Y-8079846D01*
X204154Y-8160549D01*
X299051Y-8223957D01*
X404495Y-8267634D01*
X516434Y-8289900D01*
X630566Y-8289900D01*
X742505Y-8267634D01*
X847949Y-8223957D01*
X942846Y-8160549D01*
X1023549Y-8079846D01*
X1086957Y-7984949D01*
X1130634Y-7879505D01*
X1152900Y-7767566D01*
X1152900Y-7653434D01*
X1130634Y-7541495D01*
X1086957Y-7436051D01*
X1023549Y-7341154D01*
X942846Y-7260451D01*
X847949Y-7197043D01*
X742505Y-7153366D01*
X630566Y-7131100D01*
X516434Y-7131100D01*
X404495Y-7153366D01*
X299051Y-7197043D01*
X204154Y-7260451D01*
X123451Y-7341154D01*
X60043Y-7436051D01*
X16366Y-7541495D01*
X-5900Y-7653434D01*
X-7792200Y-7653434D01*
X-7792200Y-7626434D01*
X-7814466Y-7514495D01*
X-7858143Y-7409051D01*
X-7921551Y-7314154D01*
X-8002254Y-7233451D01*
X-8097151Y-7170043D01*
X-8202595Y-7126366D01*
X-8314534Y-7104100D01*
X-8428666Y-7104100D01*
X-8540605Y-7126366D01*
X-8646049Y-7170043D01*
X-8740946Y-7233451D01*
X-8821649Y-7314154D01*
X-8885057Y-7409051D01*
X-8928734Y-7514495D01*
X-8951000Y-7626434D01*
X-8951000Y-7740566D01*
X-8931374Y-7839231D01*
X-9000654Y-7769951D01*
X-9095551Y-7706543D01*
X-9200995Y-7662866D01*
X-9312934Y-7640600D01*
X-9427066Y-7640600D01*
X-9539005Y-7662866D01*
X-9644449Y-7706543D01*
X-9655780Y-7714114D01*
X-9655780Y-5308268D01*
X-9243445Y-4895934D01*
X2468600Y-4895934D01*
X2468600Y-5010066D01*
X2490866Y-5122005D01*
X2534543Y-5227449D01*
X2597951Y-5322346D01*
X2678654Y-5403049D01*
X2773551Y-5466457D01*
X2878995Y-5510134D01*
X2886132Y-5511554D01*
X2871866Y-5545995D01*
X2849600Y-5657934D01*
X2849600Y-5772066D01*
X2871866Y-5884005D01*
X2886132Y-5918446D01*
X2878995Y-5919866D01*
X2773551Y-5963543D01*
X2678654Y-6026951D01*
X2597951Y-6107654D01*
X2534543Y-6202551D01*
X2490866Y-6307995D01*
X2468600Y-6419934D01*
X2468600Y-6534066D01*
X2490866Y-6646005D01*
X2534543Y-6751449D01*
X2597951Y-6846346D01*
X2678654Y-6927049D01*
X2773551Y-6990457D01*
X2878995Y-7034134D01*
X2886132Y-7035554D01*
X2871866Y-7069995D01*
X2849600Y-7181934D01*
X2849600Y-7296066D01*
X2871866Y-7408005D01*
X2886132Y-7442446D01*
X2878995Y-7443866D01*
X2773551Y-7487543D01*
X2678654Y-7550951D01*
X2597951Y-7631654D01*
X2534543Y-7726551D01*
X2490866Y-7831995D01*
X2468600Y-7943934D01*
X2468600Y-8058066D01*
X2490866Y-8170005D01*
X2534543Y-8275449D01*
X2597951Y-8370346D01*
X2678654Y-8451049D01*
X2773551Y-8514457D01*
X2878995Y-8558134D01*
X2990934Y-8580400D01*
X3105066Y-8580400D01*
X3217005Y-8558134D01*
X3322449Y-8514457D01*
X3417346Y-8451049D01*
X3492500Y-8375895D01*
X3567654Y-8451049D01*
X3662551Y-8514457D01*
X3767995Y-8558134D01*
X3879934Y-8580400D01*
X3994066Y-8580400D01*
X4106005Y-8558134D01*
X4211449Y-8514457D01*
X4306346Y-8451049D01*
X4387049Y-8370346D01*
X4450457Y-8275449D01*
X4494134Y-8170005D01*
X4516400Y-8058066D01*
X4516400Y-7943934D01*
X4494134Y-7831995D01*
X4450457Y-7726551D01*
X4387049Y-7631654D01*
X4306346Y-7550951D01*
X4211449Y-7487543D01*
X4106005Y-7443866D01*
X3994066Y-7421600D01*
X3980503Y-7421600D01*
X3986134Y-7408005D01*
X4008400Y-7296066D01*
X4008400Y-7181934D01*
X3986134Y-7069995D01*
X3980503Y-7056400D01*
X3994066Y-7056400D01*
X4106005Y-7034134D01*
X4211449Y-6990457D01*
X4306346Y-6927049D01*
X4387049Y-6846346D01*
X4450457Y-6751449D01*
X4494134Y-6646005D01*
X4516400Y-6534066D01*
X4516400Y-6419934D01*
X4494134Y-6307995D01*
X4450457Y-6202551D01*
X4387049Y-6107654D01*
X4306346Y-6026951D01*
X4211449Y-5963543D01*
X4106005Y-5919866D01*
X3994066Y-5897600D01*
X3980503Y-5897600D01*
X3986134Y-5884005D01*
X4008400Y-5772066D01*
X4008400Y-5657934D01*
X3986134Y-5545995D01*
X3980503Y-5532400D01*
X3994066Y-5532400D01*
X4106005Y-5510134D01*
X4211449Y-5466457D01*
X4306346Y-5403049D01*
X4387049Y-5322346D01*
X4450457Y-5227449D01*
X4494134Y-5122005D01*
X4516400Y-5010066D01*
X4516400Y-4895934D01*
X4494134Y-4783995D01*
X4450457Y-4678551D01*
X4387049Y-4583654D01*
X4306346Y-4502951D01*
X4211449Y-4439543D01*
X4106005Y-4395866D01*
X3994066Y-4373600D01*
X3879934Y-4373600D01*
X3767995Y-4395866D01*
X3662551Y-4439543D01*
X3567654Y-4502951D01*
X3492500Y-4578105D01*
X3417346Y-4502951D01*
X3322449Y-4439543D01*
X3217005Y-4395866D01*
X3105066Y-4373600D01*
X2990934Y-4373600D01*
X2878995Y-4395866D01*
X2773551Y-4439543D01*
X2678654Y-4502951D01*
X2597951Y-4583654D01*
X2534543Y-4678551D01*
X2490866Y-4783995D01*
X2468600Y-4895934D01*
X-9243445Y-4895934D01*
X-8880085Y-4532575D01*
X-8865615Y-4520700D01*
X-8851049Y-4502951D01*
X-8818204Y-4462930D01*
X-8782975Y-4397019D01*
X-8782974Y-4397018D01*
X-8761279Y-4325501D01*
X-8755789Y-4269758D01*
X-8755789Y-4269756D01*
X-8753954Y-4251127D01*
X-8755789Y-4232498D01*
X-8755789Y-3447502D01*
X-8753954Y-3428873D01*
X-8755789Y-3410242D01*
X-8761279Y-3354499D01*
X-8782974Y-3282982D01*
X-8811065Y-3230427D01*
X-8818204Y-3217070D01*
X-8846153Y-3183015D01*
X-8865615Y-3159300D01*
X-8880091Y-3147420D01*
X-8885203Y-3142308D01*
X-8815551Y-3113457D01*
X-8720654Y-3050049D01*
X-8639951Y-2969346D01*
X-8576543Y-2874449D01*
X-8532866Y-2769005D01*
X-8510600Y-2657066D01*
X-8510600Y-2542934D01*
X-8532866Y-2430995D01*
X-8576543Y-2325551D01*
X-8639951Y-2230654D01*
X-8710283Y-2160322D01*
X-8710600Y-2157104D01*
X-8716090Y-2101361D01*
X-8737785Y-2029844D01*
X-8772782Y-1964368D01*
X-8773015Y-1963932D01*
X-8793905Y-1938478D01*
X-8820426Y-1906162D01*
X-8834902Y-1894282D01*
X-8940600Y-1788584D01*
X-8940600Y-483916D01*
X-6389466Y2067218D01*
X-6296112Y2067218D01*
X-6845102Y1518228D01*
X-6859573Y1506352D01*
X-6871449Y1491881D01*
X-6871451Y1491879D01*
X-6906985Y1448581D01*
X-6920275Y1423716D01*
X-6942214Y1382670D01*
X-6949756Y1357806D01*
X-6963909Y1311152D01*
X-6971235Y1236778D01*
X-6969399Y1218139D01*
X-6969399Y839996D01*
X-7040049Y769346D01*
X-7103457Y674449D01*
X-7147134Y569005D01*
X-7169400Y457066D01*
X-7169400Y342934D01*
X-7147134Y230995D01*
X-7103457Y125551D01*
X-7040049Y30654D01*
X-6959346Y-50049D01*
X-6864449Y-113457D01*
X-6759005Y-157134D01*
X-6679501Y-172948D01*
X-7605102Y-1098550D01*
X-7619573Y-1110426D01*
X-7631449Y-1124897D01*
X-7631451Y-1124899D01*
X-7666985Y-1168197D01*
X-7702214Y-1234108D01*
X-7723909Y-1305626D01*
X-7731235Y-1380000D01*
X-7729399Y-1398639D01*
X-7729400Y-3680005D01*
X-7800049Y-3750654D01*
X-7863457Y-3845551D01*
X-7907134Y-3950995D01*
X-7929400Y-4062934D01*
X-7929400Y-4177066D01*
X-7907134Y-4289005D01*
X-7863457Y-4394449D01*
X-7800049Y-4489346D01*
X-7719346Y-4570049D01*
X-7624449Y-4633457D01*
X-7519005Y-4677134D01*
X-7407066Y-4699400D01*
X-7292934Y-4699400D01*
X-7180995Y-4677134D01*
X-7075551Y-4633457D01*
X-6980654Y-4570049D01*
X-6899951Y-4489346D01*
X-6836543Y-4394449D01*
X-6792866Y-4289005D01*
X-6770600Y-4177066D01*
X-6770600Y-4062934D01*
X-6792866Y-3950995D01*
X-6836543Y-3845551D01*
X-6899951Y-3750654D01*
X-6970600Y-3680005D01*
X-6970600Y-3189534D01*
X9529800Y-3189534D01*
X9529800Y-3303666D01*
X9552066Y-3415605D01*
X9595743Y-3521049D01*
X9659151Y-3615946D01*
X9739854Y-3696649D01*
X9834751Y-3760057D01*
X9940195Y-3803734D01*
X10052134Y-3826000D01*
X10166266Y-3826000D01*
X10278205Y-3803734D01*
X10383649Y-3760057D01*
X10478546Y-3696649D01*
X10559249Y-3615946D01*
X10622657Y-3521049D01*
X10666334Y-3415605D01*
X10688600Y-3303666D01*
X10688600Y-3189534D01*
X10666334Y-3077595D01*
X10622657Y-2972151D01*
X10559249Y-2877254D01*
X10478546Y-2796551D01*
X10383649Y-2733143D01*
X10278205Y-2689466D01*
X10166266Y-2667200D01*
X10052134Y-2667200D01*
X9940195Y-2689466D01*
X9834751Y-2733143D01*
X9739854Y-2796551D01*
X9659151Y-2877254D01*
X9595743Y-2972151D01*
X9552066Y-3077595D01*
X9529800Y-3189534D01*
X-6970600Y-3189534D01*
X-6970600Y-1537152D01*
X-6405082Y-971634D01*
X1869400Y-971634D01*
X1869400Y-1085766D01*
X1891666Y-1197705D01*
X1935343Y-1303149D01*
X1998751Y-1398046D01*
X2079454Y-1478749D01*
X2174351Y-1542157D01*
X2279795Y-1585834D01*
X2391734Y-1608100D01*
X2505866Y-1608100D01*
X2617805Y-1585834D01*
X2723249Y-1542157D01*
X2818146Y-1478749D01*
X2898849Y-1398046D01*
X2953112Y-1316834D01*
X7548600Y-1316834D01*
X7548600Y-1430966D01*
X7570866Y-1542905D01*
X7614543Y-1648349D01*
X7677951Y-1743246D01*
X7758654Y-1823949D01*
X7853551Y-1887357D01*
X7958995Y-1931034D01*
X8070934Y-1953300D01*
X8185066Y-1953300D01*
X8297005Y-1931034D01*
X8402449Y-1887357D01*
X8497346Y-1823949D01*
X8578049Y-1743246D01*
X8641457Y-1648349D01*
X8685134Y-1542905D01*
X8707400Y-1430966D01*
X8707400Y-1316834D01*
X8685134Y-1204895D01*
X8641457Y-1099451D01*
X8578049Y-1004554D01*
X8497346Y-923851D01*
X8402449Y-860443D01*
X8297005Y-816766D01*
X8185066Y-794500D01*
X8070934Y-794500D01*
X7958995Y-816766D01*
X7853551Y-860443D01*
X7758654Y-923851D01*
X7677951Y-1004554D01*
X7614543Y-1099451D01*
X7570866Y-1204895D01*
X7548600Y-1316834D01*
X2953112Y-1316834D01*
X2962257Y-1303149D01*
X3005934Y-1197705D01*
X3028200Y-1085766D01*
X3028200Y-971634D01*
X3005934Y-859695D01*
X2962257Y-754251D01*
X2898849Y-659354D01*
X2818146Y-578651D01*
X2723249Y-515243D01*
X2617805Y-471566D01*
X2505866Y-449300D01*
X2391734Y-449300D01*
X2279795Y-471566D01*
X2174351Y-515243D01*
X2079454Y-578651D01*
X1998751Y-659354D01*
X1935343Y-754251D01*
X1891666Y-859695D01*
X1869400Y-971634D01*
X-6405082Y-971634D01*
X-5694896Y-261449D01*
X-5680426Y-249574D01*
X-5668549Y-235102D01*
X-5633015Y-191804D01*
X-5597786Y-125893D01*
X-5597785Y-125892D01*
X-5576090Y-54375D01*
X-5570600Y1368D01*
X-5570600Y1371D01*
X-5568765Y20000D01*
X-5570600Y38629D01*
X-5570600Y1221244D01*
X-4531497Y2260345D01*
X-4517027Y2272220D01*
X-4505150Y2286692D01*
X-4469616Y2329990D01*
X-4447813Y2370782D01*
X-4434386Y2395902D01*
X-4412691Y2467419D01*
X-4407201Y2523162D01*
X-4407201Y2523164D01*
X-4405366Y2541793D01*
X-4407201Y2560422D01*
X-4407201Y4070266D01*
X944600Y4070266D01*
X944600Y3956134D01*
X966866Y3844195D01*
X1010543Y3738751D01*
X1073951Y3643854D01*
X1154654Y3563151D01*
X1249551Y3499743D01*
X1354995Y3456066D01*
X1466934Y3433800D01*
X1581066Y3433800D01*
X1693005Y3456066D01*
X1798449Y3499743D01*
X1893346Y3563151D01*
X1974049Y3643854D01*
X2037457Y3738751D01*
X2081134Y3844195D01*
X2103400Y3956134D01*
X2103400Y4070266D01*
X2081134Y4182205D01*
X2037457Y4287649D01*
X1974049Y4382546D01*
X1893346Y4463249D01*
X1798449Y4526657D01*
X1693005Y4570334D01*
X1581066Y4592600D01*
X1466934Y4592600D01*
X1354995Y4570334D01*
X1249551Y4526657D01*
X1154654Y4463249D01*
X1073951Y4382546D01*
X1010543Y4287649D01*
X966866Y4182205D01*
X944600Y4070266D01*
X-4407201Y4070266D01*
X-4407201Y5518066D01*
X-4340900Y5518066D01*
X-4340900Y5403934D01*
X-4318634Y5291995D01*
X-4274957Y5186551D01*
X-4211549Y5091654D01*
X-4130846Y5010951D01*
X-4035949Y4947543D01*
X-3930505Y4903866D01*
X-3818566Y4881600D01*
X-3704434Y4881600D01*
X-3592495Y4903866D01*
X-3487051Y4947543D01*
X-3392154Y5010951D01*
X-3311451Y5091654D01*
X-3248043Y5186551D01*
X-3204366Y5291995D01*
X-3182100Y5403934D01*
X-3182100Y5518066D01*
X-3204366Y5630005D01*
X-3248043Y5735449D01*
X-3311451Y5830346D01*
X-3392154Y5911049D01*
X-3487051Y5974457D01*
X-3592495Y6018134D01*
X-3704434Y6040400D01*
X-3818566Y6040400D01*
X-3930505Y6018134D01*
X-4035949Y5974457D01*
X-4130846Y5911049D01*
X-4211549Y5830346D01*
X-4274957Y5735449D01*
X-4318634Y5630005D01*
X-4340900Y5518066D01*
X-4407201Y5518066D01*
X-4407201Y6685344D01*
X-3496344Y7596200D01*
X-3081595Y7596200D01*
X-3010946Y7525551D01*
X-2916049Y7462143D01*
X-2810605Y7418466D01*
X-2698666Y7396200D01*
X-2584534Y7396200D01*
X-2472595Y7418466D01*
X-2367151Y7462143D01*
X-2272254Y7525551D01*
X-2191551Y7606254D01*
X-2128143Y7701151D01*
X-2084466Y7806595D01*
X-2062200Y7918534D01*
X-2062200Y8032666D01*
X-2084466Y8144605D01*
X-2128143Y8250049D01*
X-2191551Y8344946D01*
X-2238202Y8391597D01*
X-2191551Y8438248D01*
X-2128143Y8533145D01*
X-2084466Y8638589D01*
X-2062200Y8750528D01*
X-2062200Y8864660D01*
X-2084466Y8976599D01*
X-2128143Y9082043D01*
X-2191551Y9176940D01*
X-2198407Y9183796D01*
X-2191551Y9190651D01*
X-2128143Y9285548D01*
X-2084466Y9390992D01*
X-2062200Y9502931D01*
X-2062200Y9617063D01*
X-2084466Y9729002D01*
X-2128143Y9834446D01*
X-2191551Y9929343D01*
X-2272254Y10010046D01*
X-2367151Y10073454D01*
X-2472595Y10117131D01*
X-2584534Y10139397D01*
X-2698666Y10139397D01*
X-2810605Y10117131D01*
X-2916049Y10073454D01*
X-3010946Y10010046D01*
X-3081278Y9939714D01*
X-3084493Y9939397D01*
X-3084496Y9939397D01*
X-3140239Y9933907D01*
X-3195111Y9917261D01*
X-3211757Y9912212D01*
X-3277667Y9876982D01*
X-3302194Y9856853D01*
X-3335438Y9829571D01*
X-3347314Y9815100D01*
X-5011812Y8150602D01*
X-5046543Y8234449D01*
X-5109951Y8329346D01*
X-5190654Y8410049D01*
X-5285551Y8473457D01*
X-5390995Y8517134D01*
X-5502934Y8539400D01*
X-5617066Y8539400D01*
X-5729005Y8517134D01*
X-5834449Y8473457D01*
X-5929346Y8410049D01*
X-6010049Y8329346D01*
X-6073457Y8234449D01*
X-6117134Y8129005D01*
X-6139400Y8017066D01*
X-6139400Y7917152D01*
X-8055102Y6001450D01*
X-8069573Y5989574D01*
X-8081449Y5975103D01*
X-8081451Y5975101D01*
X-8116985Y5931803D01*
X-8152214Y5865892D01*
X-8173909Y5794374D01*
X-8181235Y5720000D01*
X-8179399Y5701361D01*
X-8179400Y3591218D01*
X-8212995Y3605134D01*
X-8324934Y3627400D01*
X-8439066Y3627400D01*
X-8551005Y3605134D01*
X-8656449Y3561457D01*
X-8751346Y3498049D01*
X-8801379Y3448016D01*
X-8809842Y3460682D01*
X-8890545Y3541385D01*
X-8985442Y3604793D01*
X-9090886Y3648470D01*
X-9202825Y3670736D01*
X-9316957Y3670736D01*
X-9428896Y3648470D01*
X-9534340Y3604793D01*
X-9629237Y3541385D01*
X-9669001Y3501621D01*
X-9758551Y3561457D01*
X-9863995Y3605134D01*
X-9975934Y3627400D01*
X-10090066Y3627400D01*
X-10202005Y3605134D01*
X-10307449Y3561457D01*
X-10402346Y3498049D01*
X-10414000Y3486395D01*
X-10425654Y3498049D01*
X-10520551Y3561457D01*
X-10625995Y3605134D01*
X-10737934Y3627400D01*
X-10852066Y3627400D01*
X-10964005Y3605134D01*
X-11069449Y3561457D01*
X-11164346Y3498049D01*
X-11199257Y3463138D01*
X-11199257Y3701053D01*
X-11128608Y3771702D01*
X-11065200Y3866599D01*
X-11021523Y3972043D01*
X-10999257Y4083982D01*
X-10999257Y4198114D01*
X-11021523Y4310053D01*
X-11065200Y4415497D01*
X-11128608Y4510394D01*
X-11209311Y4591097D01*
X-11304208Y4654505D01*
X-11409652Y4698182D01*
X-11413227Y4698893D01*
X-11409400Y4718134D01*
X-11409400Y4832266D01*
X-11431666Y4944205D01*
X-11475343Y5049649D01*
X-11538751Y5144546D01*
X-11619454Y5225249D01*
X-11714351Y5288657D01*
X-11819795Y5332334D01*
X-11931734Y5354600D01*
X-12045866Y5354600D01*
X-12157805Y5332334D01*
X-12263249Y5288657D01*
X-12358146Y5225249D01*
X-12438849Y5144546D01*
X-12502257Y5049649D01*
X-12542661Y4952107D01*
X-12892100Y5301546D01*
X-12892100Y5537066D01*
X-9699400Y5537066D01*
X-9699400Y5422934D01*
X-9677134Y5310995D01*
X-9633457Y5205551D01*
X-9570049Y5110654D01*
X-9489346Y5029951D01*
X-9394449Y4966543D01*
X-9289005Y4922866D01*
X-9177066Y4900600D01*
X-9062934Y4900600D01*
X-8950995Y4922866D01*
X-8845551Y4966543D01*
X-8750654Y5029951D01*
X-8669951Y5110654D01*
X-8606543Y5205551D01*
X-8562866Y5310995D01*
X-8540600Y5422934D01*
X-8540600Y5537066D01*
X-8562866Y5649005D01*
X-8606543Y5754449D01*
X-8669951Y5849346D01*
X-8740600Y5919995D01*
X-8740600Y6072243D01*
X-6632242Y8180600D01*
X-6532329Y8180600D01*
X-6420390Y8202866D01*
X-6314946Y8246543D01*
X-6220049Y8309951D01*
X-6139346Y8390654D01*
X-6075938Y8485551D01*
X-6032261Y8590995D01*
X-6009995Y8702934D01*
X-6009995Y8817066D01*
X-6032261Y8929005D01*
X-6075938Y9034449D01*
X-6139346Y9129346D01*
X-6220049Y9210049D01*
X-6314946Y9273457D01*
X-6420390Y9317134D01*
X-6532329Y9339400D01*
X-6646461Y9339400D01*
X-6758400Y9317134D01*
X-6863844Y9273457D01*
X-6958741Y9210049D01*
X-7039444Y9129346D01*
X-7102852Y9034449D01*
X-7146529Y8929005D01*
X-7168795Y8817066D01*
X-7168795Y8717153D01*
X-9375098Y6510849D01*
X-9389574Y6498969D01*
X-9401451Y6484496D01*
X-9436985Y6441198D01*
X-9446261Y6423843D01*
X-9472215Y6375286D01*
X-9493910Y6303769D01*
X-9499400Y6248027D01*
X-9501235Y6229395D01*
X-9499400Y6210765D01*
X-9499400Y5919995D01*
X-9570049Y5849346D01*
X-9633457Y5754449D01*
X-9677134Y5649005D01*
X-9699400Y5537066D01*
X-12892100Y5537066D01*
X-12892100Y6216566D01*
X-10660900Y6216566D01*
X-10660900Y6102434D01*
X-10638634Y5990495D01*
X-10594957Y5885051D01*
X-10531549Y5790154D01*
X-10450846Y5709451D01*
X-10355949Y5646043D01*
X-10250505Y5602366D01*
X-10138566Y5580100D01*
X-10024434Y5580100D01*
X-9912495Y5602366D01*
X-9807051Y5646043D01*
X-9712154Y5709451D01*
X-9631451Y5790154D01*
X-9568043Y5885051D01*
X-9524366Y5990495D01*
X-9502100Y6102434D01*
X-9502100Y6216566D01*
X-9524366Y6328505D01*
X-9568043Y6433949D01*
X-9631451Y6528846D01*
X-9712154Y6609549D01*
X-9807051Y6672957D01*
X-9912495Y6716634D01*
X-10024434Y6738900D01*
X-10138566Y6738900D01*
X-10250505Y6716634D01*
X-10355949Y6672957D01*
X-10450846Y6609549D01*
X-10531549Y6528846D01*
X-10594957Y6433949D01*
X-10638634Y6328505D01*
X-10660900Y6216566D01*
X-12892100Y6216566D01*
X-12892100Y6989505D01*
X-12821451Y7060154D01*
X-12758043Y7155051D01*
X-12714366Y7260495D01*
X-12692100Y7372434D01*
X-12692100Y7486566D01*
X-12714366Y7598505D01*
X-12758043Y7703949D01*
X-12821451Y7798846D01*
X-12902154Y7879549D01*
X-12997051Y7942957D01*
X-13102495Y7986634D01*
X-13214434Y8008900D01*
X-13328566Y8008900D01*
X-13440505Y7986634D01*
X-13545949Y7942957D01*
X-13612293Y7898627D01*
X-13612293Y8741155D01*
X-13402847Y8950600D01*
X-13302934Y8950600D01*
X-13190995Y8972866D01*
X-13085551Y9016543D01*
X-12990654Y9079951D01*
X-12909951Y9160654D01*
X-12846543Y9255551D01*
X-12802866Y9360995D01*
X-12780600Y9472934D01*
X-12780600Y9587066D01*
X-12802866Y9699005D01*
X-12846543Y9804449D01*
X-12909951Y9899346D01*
X-12960605Y9950000D01*
X-12959951Y9950654D01*
X-12896543Y10045551D01*
X-12852866Y10150995D01*
X-12830600Y10262934D01*
X-12830600Y10377066D01*
X-12852866Y10489005D01*
X-12896543Y10594449D01*
X-12959951Y10689346D01*
X-13040654Y10770049D01*
X-13135551Y10833457D01*
X-13240995Y10877134D01*
X-13326383Y10894119D01*
X-12733436Y11487066D01*
X-12009400Y11487066D01*
X-12009400Y11372934D01*
X-11987134Y11260995D01*
X-11943457Y11155551D01*
X-11880049Y11060654D01*
X-11799346Y10979951D01*
X-11704449Y10916543D01*
X-11599005Y10872866D01*
X-11487066Y10850600D01*
X-11372934Y10850600D01*
X-11260995Y10872866D01*
X-11155551Y10916543D01*
X-11060654Y10979951D01*
X-10979951Y11060654D01*
X-10916543Y11155551D01*
X-10872866Y11260995D01*
X-10850600Y11372934D01*
X-10850600Y11487066D01*
X-10872866Y11599005D01*
X-10916543Y11704449D01*
X-10979951Y11799346D01*
X-11060654Y11880049D01*
X-11155551Y11943457D01*
X-11260995Y11987134D01*
X-11372934Y12009400D01*
X-11487066Y12009400D01*
X-11599005Y11987134D01*
X-11704449Y11943457D01*
X-11799346Y11880049D01*
X-11880049Y11799346D01*
X-11943457Y11704449D01*
X-11987134Y11599005D01*
X-12009400Y11487066D01*
X-12733436Y11487066D01*
X-10974378Y13246124D01*
X-10324485Y13246124D01*
X-10324376Y13246091D01*
X-10268633Y13240601D01*
X-10268630Y13240601D01*
X-10250001Y13238766D01*
X-10231372Y13240601D01*
X-10018628Y13240601D01*
X-9999999Y13238766D01*
X-9981370Y13240601D01*
X-9981367Y13240601D01*
X-9925624Y13246091D01*
X-9854107Y13267786D01*
X-9788196Y13303016D01*
X-9742399Y13340600D01*
X-9642934Y13340600D01*
X-9530995Y13362866D01*
X-9425551Y13406543D01*
X-9358706Y13451207D01*
X-9358706Y12417000D01*
X-11304102Y10471604D01*
X-11318573Y10459728D01*
X-11330449Y10445257D01*
X-11330451Y10445255D01*
X-11365985Y10401957D01*
X-11382878Y10370351D01*
X-11401214Y10336046D01*
X-11410042Y10306943D01*
X-11422909Y10264528D01*
X-11430235Y10190154D01*
X-11428399Y10171515D01*
X-11428400Y9139495D01*
X-11499049Y9068846D01*
X-11562457Y8973949D01*
X-11606134Y8868505D01*
X-11628400Y8756566D01*
X-11628400Y8642434D01*
X-11606134Y8530495D01*
X-11562457Y8425051D01*
X-11499049Y8330154D01*
X-11418346Y8249451D01*
X-11323449Y8186043D01*
X-11218005Y8142366D01*
X-11106066Y8120100D01*
X-10991934Y8120100D01*
X-10879995Y8142366D01*
X-10774551Y8186043D01*
X-10679654Y8249451D01*
X-10598951Y8330154D01*
X-10535543Y8425051D01*
X-10491866Y8530495D01*
X-10469600Y8642434D01*
X-10469600Y8756566D01*
X-10491866Y8868505D01*
X-10535543Y8973949D01*
X-10598951Y9068846D01*
X-10669600Y9139495D01*
X-10669600Y10033002D01*
X-10640206Y10062396D01*
X-10638634Y10054495D01*
X-10594957Y9949051D01*
X-10531549Y9854154D01*
X-10450846Y9773451D01*
X-10355949Y9710043D01*
X-10250505Y9666366D01*
X-10138566Y9644100D01*
X-10024434Y9644100D01*
X-9912495Y9666366D01*
X-9807051Y9710043D01*
X-9712154Y9773451D01*
X-9631451Y9854154D01*
X-9568043Y9949051D01*
X-9524366Y10054495D01*
X-9502100Y10166434D01*
X-9502100Y10280566D01*
X-9524366Y10392505D01*
X-9568043Y10497949D01*
X-9631451Y10592846D01*
X-9712154Y10673549D01*
X-9807051Y10736957D01*
X-9912495Y10780634D01*
X-9920396Y10782206D01*
X-9669757Y11032845D01*
X-9657457Y11003151D01*
X-9594049Y10908254D01*
X-9513346Y10827551D01*
X-9418449Y10764143D01*
X-9313005Y10720466D01*
X-9201066Y10698200D01*
X-9086934Y10698200D01*
X-8974995Y10720466D01*
X-8869551Y10764143D01*
X-8774654Y10827551D01*
X-8693951Y10908254D01*
X-8630543Y11003151D01*
X-8623457Y11020260D01*
X-7072194Y11020260D01*
X-7072194Y10906128D01*
X-7049928Y10794189D01*
X-7006251Y10688745D01*
X-6942843Y10593848D01*
X-6862140Y10513145D01*
X-6767243Y10449737D01*
X-6661799Y10406060D01*
X-6549860Y10383794D01*
X-6435728Y10383794D01*
X-6323789Y10406060D01*
X-6218345Y10449737D01*
X-6123448Y10513145D01*
X-6042745Y10593848D01*
X-5979337Y10688745D01*
X-5935660Y10794189D01*
X-5913394Y10906128D01*
X-5913394Y11020260D01*
X-5935660Y11132199D01*
X-5979337Y11237643D01*
X-6042745Y11332540D01*
X-6123448Y11413243D01*
X-6218345Y11476651D01*
X-6323789Y11520328D01*
X-6435728Y11542594D01*
X-6549860Y11542594D01*
X-6661799Y11520328D01*
X-6767243Y11476651D01*
X-6862140Y11413243D01*
X-6942843Y11332540D01*
X-7006251Y11237643D01*
X-7049928Y11132199D01*
X-7072194Y11020260D01*
X-8623457Y11020260D01*
X-8586866Y11108595D01*
X-8564600Y11220534D01*
X-8564600Y11334666D01*
X-8586866Y11446605D01*
X-8630543Y11552049D01*
X-8693951Y11646946D01*
X-8774654Y11727649D01*
X-8869551Y11791057D01*
X-8899245Y11803357D01*
X-8724207Y11978395D01*
X-8709732Y11990274D01*
X-8680833Y12025487D01*
X-8662321Y12048044D01*
X-8627092Y12113955D01*
X-8627091Y12113956D01*
X-8605396Y12185473D01*
X-8599906Y12241216D01*
X-8599906Y12241225D01*
X-8598072Y12259847D01*
X-8599906Y12278469D01*
X-8599906Y13181849D01*
X-8554849Y13151743D01*
X-8449405Y13108066D01*
X-8337466Y13085800D01*
X-8223334Y13085800D01*
X-8111395Y13108066D01*
X-8005951Y13151743D01*
X-7911054Y13215151D01*
X-7899400Y13226805D01*
X-7887746Y13215151D01*
X-7792849Y13151743D01*
X-7687405Y13108066D01*
X-7575466Y13085800D01*
X-7461334Y13085800D01*
X-7349395Y13108066D01*
X-7243951Y13151743D01*
X-7149054Y13215151D01*
X-7068351Y13295854D01*
X-7004943Y13390751D01*
X-6992643Y13420445D01*
X-5408599Y11836400D01*
X-5408600Y11260395D01*
X-5479249Y11189746D01*
X-5542657Y11094849D01*
X-5586334Y10989405D01*
X-5608600Y10877466D01*
X-5608600Y10763334D01*
X-5586334Y10651395D01*
X-5542657Y10545951D01*
X-5479249Y10451054D01*
X-5398546Y10370351D01*
X-5303649Y10306943D01*
X-5198205Y10263266D01*
X-5086266Y10241000D01*
X-4972134Y10241000D01*
X-4860195Y10263266D01*
X-4754751Y10306943D01*
X-4659854Y10370351D01*
X-4579151Y10451054D01*
X-4515743Y10545951D01*
X-4472066Y10651395D01*
X-4449800Y10763334D01*
X-4449800Y10877466D01*
X-4472066Y10989405D01*
X-4515743Y11094849D01*
X-4579151Y11189746D01*
X-4649800Y11260395D01*
X-4649800Y11974925D01*
X-4647965Y11993554D01*
X-4649800Y12012186D01*
X-4655290Y12067929D01*
X-4676985Y12139446D01*
X-4676985Y12139447D01*
X-4712215Y12205357D01*
X-4747749Y12248656D01*
X-4747750Y12248657D01*
X-4759626Y12263128D01*
X-4774097Y12275004D01*
X-5626442Y13127349D01*
X-5567551Y13151743D01*
X-5472654Y13215151D01*
X-5391951Y13295854D01*
X-5328543Y13390751D01*
X-5284866Y13496195D01*
X-5262600Y13608134D01*
X-5262600Y13722266D01*
X-5284866Y13834205D01*
X-5328543Y13939649D01*
X-5391951Y14034546D01*
X-5472654Y14115249D01*
X-5567551Y14178657D01*
X-5672995Y14222334D01*
X-5784934Y14244600D01*
X-5899066Y14244600D01*
X-6011005Y14222334D01*
X-6116449Y14178657D01*
X-6211346Y14115249D01*
X-6292049Y14034546D01*
X-6355457Y13939649D01*
X-6379851Y13880757D01*
X-7620600Y15121506D01*
X-7620600Y21790653D01*
X-7509069Y21850268D01*
X-7375162Y21960162D01*
X-7265268Y22094068D01*
X-7183609Y22246840D01*
X-7133324Y22412607D01*
X-7120600Y22541798D01*
X-7120600Y23178202D01*
X-7133324Y23307393D01*
X-7183609Y23473160D01*
X-7255688Y23608010D01*
X-4744311Y23608010D01*
X-4816391Y23473160D01*
X-4866676Y23307393D01*
X-4879400Y23178202D01*
X-4879400Y22541799D01*
X-4866676Y22412608D01*
X-4816391Y22246841D01*
X-4734732Y22094069D01*
X-4624838Y21960162D01*
X-4490932Y21850268D01*
X-4379399Y21790652D01*
X-4379400Y18738632D01*
X-4381235Y18720000D01*
X-4379400Y18701371D01*
X-4379400Y18701369D01*
X-4379399Y18701359D01*
X-4379400Y14518500D01*
X-4387569Y14526669D01*
X-4482466Y14590077D01*
X-4587910Y14633754D01*
X-4699849Y14656020D01*
X-4813981Y14656020D01*
X-4925920Y14633754D01*
X-5031364Y14590077D01*
X-5126261Y14526669D01*
X-5206964Y14445966D01*
X-5270372Y14351069D01*
X-5314049Y14245625D01*
X-5336315Y14133686D01*
X-5336315Y14019554D01*
X-5314049Y13907615D01*
X-5270372Y13802171D01*
X-5206964Y13707274D01*
X-5126261Y13626571D01*
X-5031364Y13563163D01*
X-4927044Y13519951D01*
X-4971249Y13475746D01*
X-5034657Y13380849D01*
X-5078334Y13275405D01*
X-5100600Y13163466D01*
X-5100600Y13049334D01*
X-5078334Y12937395D01*
X-5034657Y12831951D01*
X-4971249Y12737054D01*
X-4890546Y12656351D01*
X-4795649Y12592943D01*
X-4690205Y12549266D01*
X-4578266Y12527000D01*
X-4478352Y12527000D01*
X-40309Y8088956D01*
X-103457Y7994449D01*
X-147134Y7889005D01*
X-169400Y7777066D01*
X-169400Y7662934D01*
X-147134Y7550995D01*
X-103457Y7445551D01*
X-40049Y7350654D01*
X40654Y7269951D01*
X135551Y7206543D01*
X240995Y7162866D01*
X278795Y7155347D01*
X2848Y6879400D01*
X-2130005Y6879400D01*
X-2200654Y6950049D01*
X-2295551Y7013457D01*
X-2400995Y7057134D01*
X-2512934Y7079400D01*
X-2627066Y7079400D01*
X-2739005Y7057134D01*
X-2844449Y7013457D01*
X-2939346Y6950049D01*
X-3020049Y6869346D01*
X-3083457Y6774449D01*
X-3127134Y6669005D01*
X-3149400Y6557066D01*
X-3149400Y6442934D01*
X-3127134Y6330995D01*
X-3083457Y6225551D01*
X-3020049Y6130654D01*
X-2939346Y6049951D01*
X-2844449Y5986543D01*
X-2739005Y5942866D01*
X-2627066Y5920600D01*
X-2512934Y5920600D01*
X-2400995Y5942866D01*
X-2295551Y5986543D01*
X-2200654Y6049951D01*
X-2130005Y6120600D01*
X141371Y6120600D01*
X160000Y6118765D01*
X178629Y6120600D01*
X178632Y6120600D01*
X234375Y6126090D01*
X305892Y6147785D01*
X371803Y6183015D01*
X429574Y6230426D01*
X441454Y6244902D01*
X1217500Y7020948D01*
X1231975Y7032827D01*
X1260874Y7068040D01*
X1270825Y7080166D01*
X2885400Y7080166D01*
X2885400Y6966034D01*
X2907666Y6854095D01*
X2951343Y6748651D01*
X3014751Y6653754D01*
X3095454Y6573051D01*
X3190351Y6509643D01*
X3295795Y6465966D01*
X3407734Y6443700D01*
X3521866Y6443700D01*
X3633805Y6465966D01*
X3739249Y6509643D01*
X3834146Y6573051D01*
X3914849Y6653754D01*
X3978257Y6748651D01*
X4021934Y6854095D01*
X4044200Y6966034D01*
X4044200Y7080166D01*
X4021934Y7192105D01*
X3978257Y7297549D01*
X3914849Y7392446D01*
X3834146Y7473149D01*
X3739249Y7536557D01*
X3633805Y7580234D01*
X3521866Y7602500D01*
X3407734Y7602500D01*
X3295795Y7580234D01*
X3190351Y7536557D01*
X3095454Y7473149D01*
X3014751Y7392446D01*
X2951343Y7297549D01*
X2907666Y7192105D01*
X2885400Y7080166D01*
X1270825Y7080166D01*
X1279386Y7090597D01*
X1302820Y7134440D01*
X1314616Y7156509D01*
X1336311Y7228026D01*
X1341801Y7283769D01*
X1341801Y7283778D01*
X1343635Y7302400D01*
X1341801Y7321022D01*
X1341801Y10895249D01*
X2187618Y11741066D01*
X2671800Y11741066D01*
X2671800Y11626934D01*
X2694066Y11514995D01*
X2737743Y11409551D01*
X2801151Y11314654D01*
X2881854Y11233951D01*
X2976751Y11170543D01*
X3082195Y11126866D01*
X3194134Y11104600D01*
X3308266Y11104600D01*
X3420205Y11126866D01*
X3525649Y11170543D01*
X3620546Y11233951D01*
X3701249Y11314654D01*
X3702860Y11317066D01*
X9120600Y11317066D01*
X9120600Y11202934D01*
X9142866Y11090995D01*
X9186543Y10985551D01*
X9249951Y10890654D01*
X9330654Y10809951D01*
X9425551Y10746543D01*
X9530995Y10702866D01*
X9642934Y10680600D01*
X9757066Y10680600D01*
X9869005Y10702866D01*
X9974449Y10746543D01*
X10069346Y10809951D01*
X10150049Y10890654D01*
X10213457Y10985551D01*
X10257134Y11090995D01*
X10279400Y11202934D01*
X10279400Y11317066D01*
X10257134Y11429005D01*
X10213457Y11534449D01*
X10150049Y11629346D01*
X10069346Y11710049D01*
X9974449Y11773457D01*
X9869005Y11817134D01*
X9757066Y11839400D01*
X9642934Y11839400D01*
X9530995Y11817134D01*
X9425551Y11773457D01*
X9330654Y11710049D01*
X9249951Y11629346D01*
X9186543Y11534449D01*
X9142866Y11429005D01*
X9120600Y11317066D01*
X3702860Y11317066D01*
X3764657Y11409551D01*
X3808334Y11514995D01*
X3830600Y11626934D01*
X3830600Y11741066D01*
X3808334Y11853005D01*
X3764657Y11958449D01*
X3701249Y12053346D01*
X3620546Y12134049D01*
X3525649Y12197457D01*
X3420205Y12241134D01*
X3308266Y12263400D01*
X3194134Y12263400D01*
X3082195Y12241134D01*
X2976751Y12197457D01*
X2881854Y12134049D01*
X2801151Y12053346D01*
X2737743Y11958449D01*
X2694066Y11853005D01*
X2671800Y11741066D01*
X2187618Y11741066D01*
X2998304Y12551751D01*
X3012774Y12563626D01*
X3036834Y12592943D01*
X3060185Y12621396D01*
X3082876Y12663849D01*
X3095415Y12687308D01*
X3117110Y12758825D01*
X3122600Y12814568D01*
X3122600Y12814570D01*
X3124435Y12833199D01*
X3122600Y12851828D01*
X3122600Y15104805D01*
X3193249Y15175454D01*
X3256657Y15270351D01*
X3300334Y15375795D01*
X3322600Y15487734D01*
X3322600Y15601866D01*
X3300334Y15713805D01*
X3256657Y15819249D01*
X3193249Y15914146D01*
X3112546Y15994849D01*
X3017649Y16058257D01*
X2912205Y16101934D01*
X2800266Y16124200D01*
X2686134Y16124200D01*
X2574195Y16101934D01*
X2468751Y16058257D01*
X2373854Y15994849D01*
X2293151Y15914146D01*
X2229743Y15819249D01*
X2186066Y15713805D01*
X2163800Y15601866D01*
X2163800Y15487734D01*
X2186066Y15375795D01*
X2229743Y15270351D01*
X2293151Y15175454D01*
X2363801Y15104804D01*
X2363800Y12990353D01*
X1401989Y12028542D01*
X1420734Y12073795D01*
X1443000Y12185734D01*
X1443000Y12299866D01*
X1420734Y12411805D01*
X1377057Y12517249D01*
X1313649Y12612146D01*
X1232946Y12692849D01*
X1141489Y12753959D01*
X1150638Y12776046D01*
X1172904Y12887985D01*
X1172904Y13002117D01*
X1150638Y13114056D01*
X1106961Y13219500D01*
X1043553Y13314397D01*
X983340Y13374610D01*
X1011623Y13416939D01*
X1055300Y13522383D01*
X1077566Y13634322D01*
X1077566Y13748454D01*
X1055300Y13860393D01*
X1033677Y13912595D01*
X1036449Y13913743D01*
X1131346Y13977151D01*
X1212049Y14057854D01*
X1275457Y14152751D01*
X1319134Y14258195D01*
X1341400Y14370134D01*
X1341400Y14484266D01*
X1319134Y14596205D01*
X1275457Y14701649D01*
X1212049Y14796546D01*
X1131346Y14877249D01*
X1036449Y14940657D01*
X931005Y14984334D01*
X819066Y15006600D01*
X704934Y15006600D01*
X592995Y14984334D01*
X487551Y14940657D01*
X392654Y14877249D01*
X311951Y14796546D01*
X248543Y14701649D01*
X204866Y14596205D01*
X182600Y14484266D01*
X182600Y14370134D01*
X204866Y14258195D01*
X226489Y14205993D01*
X223717Y14204845D01*
X128820Y14141437D01*
X48117Y14060734D01*
X-15291Y13965837D01*
X-58968Y13860393D01*
X-81234Y13748454D01*
X-81234Y13634322D01*
X-58968Y13522383D01*
X-15291Y13416939D01*
X48117Y13322042D01*
X108330Y13261829D01*
X80047Y13219500D01*
X36370Y13114056D01*
X14104Y13002117D01*
X14104Y12887985D01*
X36370Y12776046D01*
X80047Y12670602D01*
X143455Y12575705D01*
X224158Y12495002D01*
X315615Y12433892D01*
X306466Y12411805D01*
X284200Y12299866D01*
X284200Y12185734D01*
X306466Y12073795D01*
X350143Y11968351D01*
X413551Y11873454D01*
X494254Y11792751D01*
X589151Y11729343D01*
X694595Y11685666D01*
X806534Y11663400D01*
X920666Y11663400D01*
X1032605Y11685666D01*
X1077859Y11704411D01*
X707299Y11333851D01*
X692828Y11321975D01*
X680952Y11307504D01*
X680950Y11307502D01*
X645416Y11264204D01*
X622075Y11220534D01*
X610187Y11198293D01*
X588520Y11126866D01*
X588492Y11126775D01*
X581166Y11052401D01*
X583002Y11033762D01*
X583001Y8538752D01*
X-925637Y10047390D01*
X-905189Y10047390D01*
X-793250Y10069656D01*
X-687806Y10113333D01*
X-592909Y10176741D01*
X-512206Y10257444D01*
X-448798Y10352341D01*
X-405121Y10457785D01*
X-382855Y10569724D01*
X-382855Y10683856D01*
X-405121Y10795795D01*
X-448798Y10901239D01*
X-512206Y10996136D01*
X-592909Y11076839D01*
X-687806Y11140247D01*
X-793250Y11183924D01*
X-905189Y11206190D01*
X-1005102Y11206190D01*
X-3620600Y13821687D01*
X-3620600Y18562848D01*
X-830257Y21353190D01*
X2403961Y21353190D01*
X2422590Y21351355D01*
X2441219Y21353190D01*
X2441222Y21353190D01*
X2496965Y21358680D01*
X2568482Y21380375D01*
X2634393Y21415605D01*
X2692164Y21463016D01*
X2704044Y21477492D01*
X3297153Y22070600D01*
X3397066Y22070600D01*
X3509005Y22092866D01*
X3614449Y22136543D01*
X3709346Y22199951D01*
X3790049Y22280654D01*
X3853457Y22375551D01*
X3865757Y22405244D01*
X3896102Y22374899D01*
X3907980Y22360426D01*
X3922451Y22348550D01*
X3922452Y22348549D01*
X3965751Y22313015D01*
X4031661Y22277785D01*
X4048307Y22272736D01*
X4103179Y22256090D01*
X4158922Y22250600D01*
X4158925Y22250600D01*
X4177554Y22248765D01*
X4196183Y22250600D01*
X4767727Y22250600D01*
X4676057Y22158930D01*
X4587106Y22025805D01*
X4525835Y21877885D01*
X4494600Y21720854D01*
X4494600Y21560746D01*
X4525835Y21403715D01*
X4587106Y21255795D01*
X4676057Y21122670D01*
X4789270Y21009457D01*
X4922395Y20920506D01*
X5070315Y20859235D01*
X5227346Y20828000D01*
X5387454Y20828000D01*
X5544485Y20859235D01*
X5692405Y20920506D01*
X5825530Y21009457D01*
X5938743Y21122670D01*
X6027694Y21255795D01*
X6088965Y21403715D01*
X6102562Y21472072D01*
X6540601Y21034033D01*
X6540600Y20479995D01*
X6469951Y20409346D01*
X6406543Y20314449D01*
X6362866Y20209005D01*
X6349551Y20142068D01*
X6246510Y20245109D01*
X6005222Y20406333D01*
X5737117Y20517386D01*
X5452498Y20574000D01*
X5162302Y20574000D01*
X4877683Y20517386D01*
X4609578Y20406333D01*
X4368290Y20245109D01*
X4163091Y20039910D01*
X4001867Y19798622D01*
X3890814Y19530517D01*
X3834200Y19245898D01*
X3834200Y18955702D01*
X3890814Y18671083D01*
X4001867Y18402978D01*
X4163091Y18161690D01*
X4368290Y17956491D01*
X4609578Y17795267D01*
X4877683Y17684214D01*
X5162302Y17627600D01*
X5452498Y17627600D01*
X5737117Y17684214D01*
X6005222Y17795267D01*
X6246510Y17956491D01*
X6451709Y18161690D01*
X6612933Y18402978D01*
X6723986Y18671083D01*
X6780600Y18955702D01*
X6780600Y19245898D01*
X6731890Y19490780D01*
X6750995Y19482866D01*
X6862934Y19460600D01*
X6977066Y19460600D01*
X7054990Y19476100D01*
X7009200Y19245898D01*
X7009200Y18955702D01*
X7065814Y18671083D01*
X7176867Y18402978D01*
X7338091Y18161690D01*
X7543290Y17956491D01*
X7784578Y17795267D01*
X8052683Y17684214D01*
X8337302Y17627600D01*
X8627498Y17627600D01*
X8912117Y17684214D01*
X9180222Y17795267D01*
X9421510Y17956491D01*
X9626709Y18161690D01*
X9787933Y18402978D01*
X9898986Y18671083D01*
X9955600Y18955702D01*
X9955600Y19245898D01*
X9898986Y19530517D01*
X9787933Y19798622D01*
X9626709Y20039910D01*
X9421510Y20245109D01*
X9180222Y20406333D01*
X9072740Y20450854D01*
X9574600Y20450854D01*
X9574600Y20290746D01*
X9605835Y20133715D01*
X9667106Y19985795D01*
X9756057Y19852670D01*
X9869270Y19739457D01*
X10002395Y19650506D01*
X10150315Y19589235D01*
X10307346Y19558000D01*
X10467454Y19558000D01*
X10624485Y19589235D01*
X10772405Y19650506D01*
X10905530Y19739457D01*
X11018743Y19852670D01*
X11107694Y19985795D01*
X11168965Y20133715D01*
X11200200Y20290746D01*
X11200200Y20450854D01*
X11168965Y20607885D01*
X11107694Y20755805D01*
X11018743Y20888930D01*
X10905530Y21002143D01*
X10772405Y21091094D01*
X10624485Y21152365D01*
X10467454Y21183600D01*
X10307346Y21183600D01*
X10150315Y21152365D01*
X10002395Y21091094D01*
X9869270Y21002143D01*
X9756057Y20888930D01*
X9667106Y20755805D01*
X9605835Y20607885D01*
X9574600Y20450854D01*
X9072740Y20450854D01*
X8912117Y20517386D01*
X8627498Y20574000D01*
X8337302Y20574000D01*
X8052683Y20517386D01*
X7784578Y20406333D01*
X7543290Y20245109D01*
X7482120Y20183939D01*
X7477134Y20209005D01*
X7433457Y20314449D01*
X7370049Y20409346D01*
X7299400Y20479995D01*
X7299400Y21172558D01*
X7301235Y21191187D01*
X7299400Y21209818D01*
X7293910Y21265561D01*
X7272215Y21337078D01*
X7255815Y21367760D01*
X7236985Y21402990D01*
X7218473Y21425547D01*
X7189574Y21460760D01*
X7175098Y21472640D01*
X5840642Y22807096D01*
X6005222Y22875267D01*
X6246510Y23036491D01*
X6347581Y23137562D01*
X6352866Y23110995D01*
X6396543Y23005551D01*
X6459951Y22910654D01*
X6540654Y22829951D01*
X6635551Y22766543D01*
X6740995Y22722866D01*
X6852934Y22700600D01*
X6967066Y22700600D01*
X7079005Y22722866D01*
X7184449Y22766543D01*
X7279346Y22829951D01*
X7360049Y22910654D01*
X7423457Y23005551D01*
X7467134Y23110995D01*
X7467408Y23112373D01*
X7543290Y23036491D01*
X7784578Y22875267D01*
X8052683Y22764214D01*
X8337302Y22707600D01*
X8627498Y22707600D01*
X8912117Y22764214D01*
X9180222Y22875267D01*
X9353209Y22990854D01*
X9574600Y22990854D01*
X9574600Y22830746D01*
X9605835Y22673715D01*
X9667106Y22525795D01*
X9756057Y22392670D01*
X9869270Y22279457D01*
X10002395Y22190506D01*
X10150315Y22129235D01*
X10307346Y22098000D01*
X10467454Y22098000D01*
X10624485Y22129235D01*
X10772405Y22190506D01*
X10905530Y22279457D01*
X11018743Y22392670D01*
X11107694Y22525795D01*
X11168965Y22673715D01*
X11200200Y22830746D01*
X11200200Y22990854D01*
X11168965Y23147885D01*
X11107694Y23295805D01*
X11018743Y23428930D01*
X10905530Y23542143D01*
X10772405Y23631094D01*
X10624485Y23692365D01*
X10467454Y23723600D01*
X10307346Y23723600D01*
X10150315Y23692365D01*
X10002395Y23631094D01*
X9869270Y23542143D01*
X9756057Y23428930D01*
X9667106Y23295805D01*
X9605835Y23147885D01*
X9574600Y22990854D01*
X9353209Y22990854D01*
X9421510Y23036491D01*
X9626709Y23241690D01*
X9787933Y23482978D01*
X9898986Y23751083D01*
X9955600Y24035702D01*
X9955600Y24325898D01*
X9898986Y24610517D01*
X9787933Y24878622D01*
X9626709Y25119910D01*
X9421510Y25325109D01*
X9180222Y25486333D01*
X8912117Y25597386D01*
X8627498Y25654000D01*
X8337302Y25654000D01*
X8052683Y25597386D01*
X7784578Y25486333D01*
X7543290Y25325109D01*
X7338091Y25119910D01*
X7176867Y24878622D01*
X7065814Y24610517D01*
X7009200Y24325898D01*
X7009200Y24035702D01*
X7047449Y23843411D01*
X6967066Y23859400D01*
X6852934Y23859400D01*
X6741107Y23837156D01*
X6780600Y24035702D01*
X6780600Y24325898D01*
X6723986Y24610517D01*
X6612933Y24878622D01*
X6451709Y25119910D01*
X6246510Y25325109D01*
X6005222Y25486333D01*
X5737117Y25597386D01*
X5452498Y25654000D01*
X5162302Y25654000D01*
X4877683Y25597386D01*
X4609578Y25486333D01*
X4368290Y25325109D01*
X4163091Y25119910D01*
X4001867Y24878622D01*
X3890814Y24610517D01*
X3834200Y24325898D01*
X3834200Y24035702D01*
X3890814Y23751083D01*
X4001867Y23482978D01*
X4163091Y23241690D01*
X4368290Y23036491D01*
X4408834Y23009400D01*
X4334707Y23009400D01*
X3101598Y24242508D01*
X3089718Y24256984D01*
X3031947Y24304395D01*
X2966036Y24339625D01*
X2894519Y24361320D01*
X2838776Y24366810D01*
X2838773Y24366810D01*
X2820144Y24368645D01*
X2801515Y24366810D01*
X-1128961Y24366810D01*
X-1147590Y24368645D01*
X-1166219Y24366810D01*
X-1166222Y24366810D01*
X-1221965Y24361320D01*
X-1293482Y24339625D01*
X-1324164Y24323225D01*
X-1359394Y24304395D01*
X-1396642Y24273826D01*
X-1417164Y24256984D01*
X-1429040Y24242513D01*
X-1706588Y23964965D01*
X-1827607Y24001676D01*
X-2000000Y24018655D01*
X-2172392Y24001676D01*
X-2293412Y23964965D01*
X-2570956Y24242508D01*
X-2582836Y24256984D01*
X-2640607Y24304395D01*
X-2706518Y24339625D01*
X-2778035Y24361320D01*
X-2833778Y24366810D01*
X-2833781Y24366810D01*
X-2852410Y24368645D01*
X-2871039Y24366810D01*
X-8334450Y24366810D01*
X-8353079Y24368645D01*
X-8371708Y24366810D01*
X-8371711Y24366810D01*
X-8427454Y24361320D01*
X-8482326Y24344674D01*
X-8498972Y24339625D01*
X-8564883Y24304395D01*
X-8602131Y24273826D01*
X-8622653Y24256984D01*
X-8634529Y24242513D01*
X-9234409Y23642632D01*
X-9248879Y23630757D01*
X-9260366Y23616760D01*
X-9265268Y23625932D01*
X-9375162Y23759838D01*
X-9509068Y23869732D01*
X-9661840Y23951391D01*
X-9827607Y24001676D01*
X-10000000Y24018655D01*
X-10172392Y24001676D01*
X-10338159Y23951391D01*
X-10490931Y23869732D01*
X-10624837Y23759838D01*
X-10734731Y23625932D01*
X-10816391Y23473160D01*
X-10866676Y23307393D01*
X-10879400Y23178202D01*
X-10879400Y22541799D01*
X-10866676Y22412608D01*
X-10816391Y22246841D01*
X-10734732Y22094069D01*
X-10624838Y21960162D01*
X-10490932Y21850268D01*
X-10379400Y21790652D01*
X-10379399Y15412589D01*
X-12492588Y13299400D01*
X-12520005Y13299400D01*
X-12590654Y13370049D01*
X-12685551Y13433457D01*
X-12790995Y13477134D01*
X-12902934Y13499400D01*
X-13017066Y13499400D01*
X-13129005Y13477134D01*
X-13234449Y13433457D01*
X-13329346Y13370049D01*
X-13410049Y13289346D01*
X-13473457Y13194449D01*
X-13517134Y13089005D01*
X-13539400Y12977066D01*
X-13539400Y12862934D01*
X-13517134Y12750995D01*
X-13473457Y12645551D01*
X-13410049Y12550654D01*
X-13329346Y12469951D01*
X-13234449Y12406543D01*
X-13129005Y12362866D01*
X-13017066Y12340600D01*
X-12953006Y12340600D01*
X-14951615Y10341991D01*
X-14966086Y10330115D01*
X-14977962Y10315644D01*
X-14977964Y10315642D01*
X-15013498Y10272344D01*
X-15041650Y10219673D01*
X-15048727Y10206433D01*
X-15069062Y10139397D01*
X-15070422Y10134915D01*
X-15077748Y10060541D01*
X-15075912Y10041902D01*
X-15075913Y-15057287D01*
X-15077748Y-15075916D01*
X-15075913Y-15094545D01*
X-15075913Y-15094547D01*
X-15070423Y-15150290D01*
X-15048728Y-15221807D01*
X-15041716Y-15234925D01*
X-15013498Y-15287719D01*
X-14995665Y-15309448D01*
X-14966087Y-15345490D01*
X-14951611Y-15357370D01*
X-13470987Y-16837994D01*
X-13565861Y-16856866D01*
X-13671305Y-16900543D01*
X-13766202Y-16963951D01*
X-13846905Y-17044654D01*
X-13902654Y-17128089D01*
X-13906627Y-17118256D01*
X-13908622Y-17114503D01*
X-14002933Y-16940080D01*
X-14018378Y-16917182D01*
X-14033468Y-16894122D01*
X-14036154Y-16890828D01*
X-14162548Y-16738044D01*
X-14182146Y-16718583D01*
X-14201427Y-16698893D01*
X-14204702Y-16696183D01*
X-14358364Y-16570859D01*
X-14381377Y-16555569D01*
X-14404108Y-16540005D01*
X-14407842Y-16537986D01*
X-14407846Y-16537983D01*
X-14407850Y-16537981D01*
X-14582924Y-16444892D01*
X-14608473Y-16434361D01*
X-14633792Y-16423510D01*
X-14637844Y-16422255D01*
X-14637850Y-16422253D01*
X-14637856Y-16422252D01*
X-14827678Y-16364942D01*
X-14854756Y-16359580D01*
X-14881727Y-16353847D01*
X-14885947Y-16353404D01*
X-14885955Y-16353402D01*
X-14885963Y-16353402D01*
X-15083295Y-16334053D01*
X-15083301Y-16334053D01*
X-15098054Y-16332600D01*
X-19670115Y-16332600D01*
X-20168282Y-16283755D01*
X-20633158Y-16143401D01*
X-21061914Y-15915426D01*
X-21438229Y-15608512D01*
X-21747762Y-15234351D01*
X-21978725Y-14807194D01*
X-22122321Y-14343308D01*
X-22174588Y-13846026D01*
X-22174600Y-13842513D01*
X-22174600Y10145115D01*
X-22125755Y10643282D01*
X-21985400Y11108159D01*
X-21757426Y11536914D01*
X-21450511Y11913229D01*
X-21076351Y12222762D01*
X-20649194Y12453725D01*
X-20185308Y12597321D01*
X-19688027Y12649588D01*
X-19684513Y12649600D01*
X-15098054Y12649600D01*
X-15084630Y12650922D01*
X-15078318Y12650878D01*
X-15074088Y12651293D01*
X-14876886Y12672020D01*
X-14849841Y12677571D01*
X-14822761Y12682737D01*
X-14818694Y12683964D01*
X-14818688Y12683966D01*
X-14629271Y12742600D01*
X-14603803Y12753305D01*
X-14578256Y12763627D01*
X-14574513Y12765617D01*
X-14574504Y12765621D01*
X-14574497Y12765626D01*
X-14400080Y12859933D01*
X-14377197Y12875368D01*
X-14354122Y12890468D01*
X-14350828Y12893154D01*
X-14198044Y13019548D01*
X-14178566Y13039162D01*
X-14158893Y13058427D01*
X-14156188Y13061696D01*
X-14156182Y13061702D01*
X-14156178Y13061709D01*
X-14030859Y13215364D01*
X-14015579Y13238361D01*
X-14000005Y13261108D01*
X-13997983Y13264846D01*
X-13904892Y13439924D01*
X-13894356Y13465485D01*
X-13883510Y13490792D01*
X-13882255Y13494844D01*
X-13882253Y13494850D01*
X-13882252Y13494856D01*
X-13824942Y13684678D01*
X-13819583Y13711741D01*
X-13813847Y13738726D01*
X-13813404Y13742947D01*
X-13813402Y13742955D01*
X-13813402Y13742963D01*
X-13794053Y13940295D01*
X-13794053Y13940301D01*
X-13792600Y13955054D01*
X-13792600Y23607115D01*
X-13743755Y24105282D01*
X-13603400Y24570159D01*
X-13375426Y24998914D01*
X-13068511Y25375229D01*
X-12694351Y25684762D01*
X-12267194Y25915725D01*
X-11803308Y26059321D01*
X-11306027Y26111588D01*
X-11302513Y26111600D01*
X10145115Y26111600D01*
X10643282Y26062755D01*
G36*
X-13776262Y-29287337D02*
G01*
X-13695559Y-29368040D01*
X-13600662Y-29431448D01*
X-13495218Y-29475125D01*
X-13383279Y-29497391D01*
X-13269147Y-29497391D01*
X-13157208Y-29475125D01*
X-13153204Y-29473467D01*
X-13153205Y-32934798D01*
X-13155040Y-32953427D01*
X-13153205Y-32972056D01*
X-13153205Y-32972058D01*
X-13147715Y-33027801D01*
X-13126020Y-33099318D01*
X-13111527Y-33126432D01*
X-13090790Y-33165230D01*
X-13066292Y-33195080D01*
X-13046030Y-33219771D01*
X-13095979Y-33294525D01*
X-13139656Y-33399969D01*
X-13161922Y-33511908D01*
X-13161922Y-33626040D01*
X-13139656Y-33737979D01*
X-13095979Y-33843423D01*
X-13032571Y-33938320D01*
X-12951868Y-34019023D01*
X-12856971Y-34082431D01*
X-12751527Y-34126108D01*
X-12639588Y-34148374D01*
X-12525456Y-34148374D01*
X-12413517Y-34126108D01*
X-12308073Y-34082431D01*
X-12213176Y-34019023D01*
X-12132473Y-33938320D01*
X-12130357Y-33935153D01*
X-12117445Y-33943781D01*
X-12012001Y-33987458D01*
X-11900062Y-34009724D01*
X-11785930Y-34009724D01*
X-11673991Y-33987458D01*
X-11648288Y-33976811D01*
X-11637954Y-34001759D01*
X-11574546Y-34096656D01*
X-11493843Y-34177359D01*
X-11398946Y-34240767D01*
X-11293502Y-34284444D01*
X-11181563Y-34306710D01*
X-11067431Y-34306710D01*
X-10955492Y-34284444D01*
X-10850048Y-34240767D01*
X-10770471Y-34187595D01*
X-10708240Y-34249826D01*
X-10613343Y-34313234D01*
X-10507899Y-34356911D01*
X-10395960Y-34379177D01*
X-10281828Y-34379177D01*
X-10169889Y-34356911D01*
X-10064445Y-34313234D01*
X-9969548Y-34249826D01*
X-9888845Y-34169123D01*
X-9825437Y-34074226D01*
X-9793036Y-33996005D01*
X-9742590Y-34006039D01*
X-9628458Y-34006039D01*
X-9516519Y-33983773D01*
X-9411075Y-33940096D01*
X-9316178Y-33876688D01*
X-9235475Y-33795985D01*
X-9172067Y-33701088D01*
X-9128390Y-33595644D01*
X-9110055Y-33503467D01*
X-9051961Y-33503467D01*
X-8940022Y-33481201D01*
X-8834578Y-33437524D01*
X-8739681Y-33374116D01*
X-8658978Y-33293413D01*
X-8595570Y-33198516D01*
X-8551893Y-33093072D01*
X-8549728Y-33082186D01*
X-8508936Y-33086203D01*
X-8508927Y-33086203D01*
X-8482934Y-33088763D01*
X-8456941Y-33086203D01*
X-8249141Y-33086203D01*
X-6449078Y-34886267D01*
X-6433798Y-34936637D01*
X-6384639Y-35028606D01*
X-6318483Y-35109217D01*
X-6298286Y-35125792D01*
X-5977978Y-35446100D01*
X-11288115Y-35446100D01*
X-11786282Y-35397255D01*
X-12251158Y-35256901D01*
X-12679914Y-35028926D01*
X-13056229Y-34722012D01*
X-13365762Y-34347851D01*
X-13596725Y-33920694D01*
X-13740321Y-33456808D01*
X-13792588Y-32959526D01*
X-13792600Y-32955985D01*
X-13792600Y-29262885D01*
X-13776262Y-29287337D01*
X-13776262Y-29287337D01*
G37*
X-13776262Y-29287337D02*
X-13695559Y-29368040D01*
X-13600662Y-29431448D01*
X-13495218Y-29475125D01*
X-13383279Y-29497391D01*
X-13269147Y-29497391D01*
X-13157208Y-29475125D01*
X-13153204Y-29473467D01*
X-13153205Y-32934798D01*
X-13155040Y-32953427D01*
X-13153205Y-32972056D01*
X-13153205Y-32972058D01*
X-13147715Y-33027801D01*
X-13126020Y-33099318D01*
X-13111527Y-33126432D01*
X-13090790Y-33165230D01*
X-13066292Y-33195080D01*
X-13046030Y-33219771D01*
X-13095979Y-33294525D01*
X-13139656Y-33399969D01*
X-13161922Y-33511908D01*
X-13161922Y-33626040D01*
X-13139656Y-33737979D01*
X-13095979Y-33843423D01*
X-13032571Y-33938320D01*
X-12951868Y-34019023D01*
X-12856971Y-34082431D01*
X-12751527Y-34126108D01*
X-12639588Y-34148374D01*
X-12525456Y-34148374D01*
X-12413517Y-34126108D01*
X-12308073Y-34082431D01*
X-12213176Y-34019023D01*
X-12132473Y-33938320D01*
X-12130357Y-33935153D01*
X-12117445Y-33943781D01*
X-12012001Y-33987458D01*
X-11900062Y-34009724D01*
X-11785930Y-34009724D01*
X-11673991Y-33987458D01*
X-11648288Y-33976811D01*
X-11637954Y-34001759D01*
X-11574546Y-34096656D01*
X-11493843Y-34177359D01*
X-11398946Y-34240767D01*
X-11293502Y-34284444D01*
X-11181563Y-34306710D01*
X-11067431Y-34306710D01*
X-10955492Y-34284444D01*
X-10850048Y-34240767D01*
X-10770471Y-34187595D01*
X-10708240Y-34249826D01*
X-10613343Y-34313234D01*
X-10507899Y-34356911D01*
X-10395960Y-34379177D01*
X-10281828Y-34379177D01*
X-10169889Y-34356911D01*
X-10064445Y-34313234D01*
X-9969548Y-34249826D01*
X-9888845Y-34169123D01*
X-9825437Y-34074226D01*
X-9793036Y-33996005D01*
X-9742590Y-34006039D01*
X-9628458Y-34006039D01*
X-9516519Y-33983773D01*
X-9411075Y-33940096D01*
X-9316178Y-33876688D01*
X-9235475Y-33795985D01*
X-9172067Y-33701088D01*
X-9128390Y-33595644D01*
X-9110055Y-33503467D01*
X-9051961Y-33503467D01*
X-8940022Y-33481201D01*
X-8834578Y-33437524D01*
X-8739681Y-33374116D01*
X-8658978Y-33293413D01*
X-8595570Y-33198516D01*
X-8551893Y-33093072D01*
X-8549728Y-33082186D01*
X-8508936Y-33086203D01*
X-8508927Y-33086203D01*
X-8482934Y-33088763D01*
X-8456941Y-33086203D01*
X-8249141Y-33086203D01*
X-6449078Y-34886267D01*
X-6433798Y-34936637D01*
X-6384639Y-35028606D01*
X-6318483Y-35109217D01*
X-6298286Y-35125792D01*
X-5977978Y-35446100D01*
X-11288115Y-35446100D01*
X-11786282Y-35397255D01*
X-12251158Y-35256901D01*
X-12679914Y-35028926D01*
X-13056229Y-34722012D01*
X-13365762Y-34347851D01*
X-13596725Y-33920694D01*
X-13740321Y-33456808D01*
X-13792588Y-32959526D01*
X-13792600Y-32955985D01*
X-13792600Y-29262885D01*
X-13776262Y-29287337D01*
G36*
X-4921145Y-17331324D02*
G01*
X-4949005Y-17336866D01*
X-5054449Y-17380543D01*
X-5149346Y-17443951D01*
X-5230049Y-17524654D01*
X-5293457Y-17619551D01*
X-5337134Y-17724995D01*
X-5359400Y-17836934D01*
X-5359400Y-17951066D01*
X-5337134Y-18063005D01*
X-5293457Y-18168449D01*
X-5230049Y-18263346D01*
X-5149346Y-18344049D01*
X-5054449Y-18407457D01*
X-4949005Y-18451134D01*
X-4837066Y-18473400D01*
X-4722934Y-18473400D01*
X-4610995Y-18451134D01*
X-4505551Y-18407457D01*
X-4410654Y-18344049D01*
X-4329951Y-18263346D01*
X-4266543Y-18168449D01*
X-4222866Y-18063005D01*
X-4217324Y-18035145D01*
X-4118473Y-18133996D01*
X-4106595Y-18148469D01*
X-4092124Y-18160345D01*
X-4092123Y-18160346D01*
X-4048825Y-18195880D01*
X-3982914Y-18231110D01*
X-3966268Y-18236159D01*
X-3911396Y-18252805D01*
X-3855653Y-18258295D01*
X-3855650Y-18258295D01*
X-3837021Y-18260130D01*
X-3818392Y-18258295D01*
X-1534445Y-18258295D01*
X4321770Y-24114511D01*
X4297551Y-24124543D01*
X4202654Y-24187951D01*
X4121951Y-24268654D01*
X4058543Y-24363551D01*
X4014866Y-24468995D01*
X3992600Y-24580934D01*
X3992600Y-24695066D01*
X4014866Y-24807005D01*
X4058543Y-24912449D01*
X4121951Y-25007346D01*
X4202654Y-25088049D01*
X4289384Y-25146000D01*
X4202654Y-25203951D01*
X4121951Y-25284654D01*
X4058543Y-25379551D01*
X4014866Y-25484995D01*
X3992600Y-25596934D01*
X3992600Y-25711066D01*
X4014866Y-25823005D01*
X4058543Y-25928449D01*
X4121951Y-26023346D01*
X4202654Y-26104049D01*
X4297551Y-26167457D01*
X4402995Y-26211134D01*
X4514934Y-26233400D01*
X4629066Y-26233400D01*
X4741005Y-26211134D01*
X4788548Y-26191441D01*
X4788548Y-27595500D01*
X-460780Y-32844828D01*
X-557448Y-32825600D01*
X-712552Y-32825600D01*
X-720837Y-32827248D01*
X-712866Y-32808005D01*
X-690600Y-32696066D01*
X-690600Y-32581934D01*
X-712866Y-32469995D01*
X-756543Y-32364551D01*
X-819951Y-32269654D01*
X-900654Y-32188951D01*
X-995551Y-32125543D01*
X-1100995Y-32081866D01*
X-1212934Y-32059600D01*
X-1327066Y-32059600D01*
X-1439005Y-32081866D01*
X-1544449Y-32125543D01*
X-1639346Y-32188951D01*
X-1709995Y-32259600D01*
X-2223771Y-32259600D01*
X-2242400Y-32257765D01*
X-2250401Y-32258553D01*
X-2258401Y-32257765D01*
X-2277030Y-32259600D01*
X-2277032Y-32259600D01*
X-2332775Y-32265090D01*
X-2404292Y-32286785D01*
X-2421094Y-32295766D01*
X-2470204Y-32322015D01*
X-2513502Y-32357549D01*
X-2527974Y-32369426D01*
X-2539850Y-32383897D01*
X-3000781Y-32844828D01*
X-3097448Y-32825600D01*
X-3252552Y-32825600D01*
X-3404676Y-32855859D01*
X-3547974Y-32915215D01*
X-3676938Y-33001386D01*
X-3786614Y-33111062D01*
X-3810000Y-33146062D01*
X-3833386Y-33111062D01*
X-3943062Y-33001386D01*
X-4072026Y-32915215D01*
X-4215324Y-32855859D01*
X-4367448Y-32825600D01*
X-4522552Y-32825600D01*
X-4674676Y-32855859D01*
X-4817974Y-32915215D01*
X-4946938Y-33001386D01*
X-5056614Y-33111062D01*
X-5142785Y-33240026D01*
X-5202141Y-33383324D01*
X-5232400Y-33535448D01*
X-5232400Y-33690552D01*
X-5202141Y-33842676D01*
X-5142785Y-33985974D01*
X-5056614Y-34114938D01*
X-4946938Y-34224614D01*
X-4911938Y-34248000D01*
X-4946938Y-34271386D01*
X-5056614Y-34381062D01*
X-5142785Y-34510026D01*
X-5202141Y-34653324D01*
X-5213961Y-34712749D01*
X-5435582Y-34491128D01*
X-5450862Y-34440757D01*
X-5457215Y-34428871D01*
X-5500021Y-34348787D01*
X-5549601Y-34288374D01*
X-5549605Y-34288370D01*
X-5566177Y-34268177D01*
X-5586370Y-34251605D01*
X-7637129Y-32200847D01*
X-7653704Y-32180650D01*
X-7662248Y-32173638D01*
X-7632323Y-32128851D01*
X-7588646Y-32023407D01*
X-7566380Y-31911468D01*
X-7566380Y-31797336D01*
X-7588646Y-31685397D01*
X-7632323Y-31579953D01*
X-7695731Y-31485056D01*
X-7776434Y-31404353D01*
X-7871331Y-31340945D01*
X-7976775Y-31297268D01*
X-8088714Y-31275002D01*
X-8202846Y-31275002D01*
X-8314785Y-31297268D01*
X-8420229Y-31340945D01*
X-8515126Y-31404353D01*
X-8595829Y-31485056D01*
X-8659237Y-31579953D01*
X-8675119Y-31618294D01*
X-8722365Y-31579520D01*
X-8814334Y-31530361D01*
X-8914127Y-31500089D01*
X-8991904Y-31492429D01*
X-8991914Y-31492429D01*
X-9017907Y-31489869D01*
X-9043900Y-31492429D01*
X-9531567Y-31492429D01*
X-9557560Y-31489869D01*
X-9583553Y-31492429D01*
X-9583563Y-31492429D01*
X-9661340Y-31500089D01*
X-9761133Y-31530361D01*
X-9851852Y-31578851D01*
X-9979942Y-31450761D01*
X-9979942Y-30364918D01*
X-9975945Y-30366574D01*
X-9864006Y-30388840D01*
X-9749874Y-30388840D01*
X-9637935Y-30366574D01*
X-9532491Y-30322897D01*
X-9437594Y-30259489D01*
X-9356891Y-30178786D01*
X-9293483Y-30083889D01*
X-9249806Y-29978445D01*
X-9227540Y-29866506D01*
X-9227540Y-29766592D01*
X-7031714Y-27570767D01*
X-7017243Y-27558891D01*
X-7002438Y-27540851D01*
X-6969832Y-27501121D01*
X-6935638Y-27437147D01*
X-6934602Y-27435209D01*
X-6912907Y-27363692D01*
X-6907417Y-27307949D01*
X-6907417Y-27307947D01*
X-6905582Y-27289318D01*
X-6907417Y-27270689D01*
X-6907417Y-23358896D01*
X-6836768Y-23288247D01*
X-6773360Y-23193350D01*
X-6729683Y-23087906D01*
X-6707417Y-22975967D01*
X-6707417Y-22861835D01*
X-6729683Y-22749896D01*
X-6773360Y-22644452D01*
X-6836768Y-22549555D01*
X-6917471Y-22468852D01*
X-7012368Y-22405444D01*
X-7117812Y-22361767D01*
X-7229751Y-22339501D01*
X-7343883Y-22339501D01*
X-7455822Y-22361767D01*
X-7561266Y-22405444D01*
X-7656163Y-22468852D01*
X-7736866Y-22549555D01*
X-7800274Y-22644452D01*
X-7843951Y-22749896D01*
X-7866217Y-22861835D01*
X-7866217Y-22975967D01*
X-7843951Y-23087906D01*
X-7800274Y-23193350D01*
X-7736866Y-23288247D01*
X-7666217Y-23358896D01*
X-7666216Y-26485745D01*
X-7666217Y-26485755D01*
X-7666216Y-27132163D01*
X-9298199Y-28764147D01*
X-9298199Y-22802339D01*
X-9269647Y-22855756D01*
X-9233116Y-22900269D01*
X-9212863Y-22924948D01*
X-9195528Y-22939174D01*
X-9151055Y-22983647D01*
X-9130317Y-23087906D01*
X-9086640Y-23193350D01*
X-9023232Y-23288247D01*
X-8942529Y-23368950D01*
X-8847632Y-23432358D01*
X-8742188Y-23476035D01*
X-8630249Y-23498301D01*
X-8516117Y-23498301D01*
X-8404178Y-23476035D01*
X-8298734Y-23432358D01*
X-8203837Y-23368950D01*
X-8123134Y-23288247D01*
X-8059726Y-23193350D01*
X-8016049Y-23087906D01*
X-7993783Y-22975967D01*
X-7993783Y-22861835D01*
X-8016049Y-22749896D01*
X-8059726Y-22644452D01*
X-8123134Y-22549555D01*
X-8203837Y-22468852D01*
X-8298734Y-22405444D01*
X-8404178Y-22361767D01*
X-8435600Y-22355517D01*
X-8435600Y-19137704D01*
X-8381224Y-19219084D01*
X-8300521Y-19299787D01*
X-8205624Y-19363195D01*
X-8187810Y-19370574D01*
X-6185979Y-21372406D01*
X-6185980Y-26334980D01*
X-6213714Y-26401935D01*
X-6235980Y-26513874D01*
X-6235980Y-26628006D01*
X-6213714Y-26739945D01*
X-6170037Y-26845389D01*
X-6106629Y-26940286D01*
X-6025926Y-27020989D01*
X-5931029Y-27084397D01*
X-5825585Y-27128074D01*
X-5713646Y-27150340D01*
X-5599514Y-27150340D01*
X-5487575Y-27128074D01*
X-5382131Y-27084397D01*
X-5381670Y-27084089D01*
X-5426408Y-27128827D01*
X-5468231Y-27132946D01*
X-5539748Y-27154641D01*
X-5605659Y-27189871D01*
X-5663430Y-27237282D01*
X-5710841Y-27295053D01*
X-5746071Y-27360964D01*
X-5767766Y-27432481D01*
X-5775091Y-27506856D01*
X-5767766Y-27581231D01*
X-5763609Y-27594934D01*
X-6109079Y-27940405D01*
X-6125294Y-27937180D01*
X-6239426Y-27937180D01*
X-6351365Y-27959446D01*
X-6456809Y-28003123D01*
X-6551706Y-28066531D01*
X-6632409Y-28147234D01*
X-6695817Y-28242131D01*
X-6739494Y-28347575D01*
X-6761760Y-28459514D01*
X-6761760Y-28573646D01*
X-6739494Y-28685585D01*
X-6695817Y-28791029D01*
X-6632409Y-28885926D01*
X-6551706Y-28966629D01*
X-6456809Y-29030037D01*
X-6351365Y-29073714D01*
X-6239426Y-29095980D01*
X-6125294Y-29095980D01*
X-6013355Y-29073714D01*
X-5907911Y-29030037D01*
X-5813014Y-28966629D01*
X-5732311Y-28885926D01*
X-5668903Y-28791029D01*
X-5625226Y-28685585D01*
X-5602960Y-28573646D01*
X-5602960Y-28459514D01*
X-5606185Y-28443299D01*
X-5205544Y-28042659D01*
X-5154047Y-28063990D01*
X-5042108Y-28086256D01*
X-4927976Y-28086256D01*
X-4816037Y-28063990D01*
X-4710593Y-28020313D01*
X-4615696Y-27956905D01*
X-4534993Y-27876202D01*
X-4471585Y-27781305D01*
X-4427908Y-27675861D01*
X-4405642Y-27563922D01*
X-4405642Y-27449790D01*
X-4423714Y-27358934D01*
X-1433498Y-27358934D01*
X-1433498Y-27473066D01*
X-1411232Y-27585005D01*
X-1367555Y-27690449D01*
X-1304147Y-27785346D01*
X-1223444Y-27866049D01*
X-1128547Y-27929457D01*
X-1023103Y-27973134D01*
X-911164Y-27995400D01*
X-797032Y-27995400D01*
X-685093Y-27973134D01*
X-579649Y-27929457D01*
X-484752Y-27866049D01*
X-404049Y-27785346D01*
X-340641Y-27690449D01*
X-296964Y-27585005D01*
X-274698Y-27473066D01*
X-274698Y-27358934D01*
X-296964Y-27246995D01*
X-325169Y-27178902D01*
X608010Y-27178902D01*
X608010Y-27293034D01*
X630276Y-27404973D01*
X673953Y-27510417D01*
X737361Y-27605314D01*
X818064Y-27686017D01*
X912961Y-27749425D01*
X1018405Y-27793102D01*
X1130344Y-27815368D01*
X1244476Y-27815368D01*
X1356415Y-27793102D01*
X1461859Y-27749425D01*
X1556756Y-27686017D01*
X1637459Y-27605314D01*
X1700867Y-27510417D01*
X1744544Y-27404973D01*
X1766810Y-27293034D01*
X1766810Y-27178902D01*
X1744544Y-27066963D01*
X1700867Y-26961519D01*
X1637459Y-26866622D01*
X1556756Y-26785919D01*
X1461859Y-26722511D01*
X1356415Y-26678834D01*
X1244476Y-26656568D01*
X1130344Y-26656568D01*
X1018405Y-26678834D01*
X912961Y-26722511D01*
X818064Y-26785919D01*
X737361Y-26866622D01*
X673953Y-26961519D01*
X630276Y-27066963D01*
X608010Y-27178902D01*
X-325169Y-27178902D01*
X-340641Y-27141551D01*
X-404049Y-27046654D01*
X-484752Y-26965951D01*
X-579649Y-26902543D01*
X-685093Y-26858866D01*
X-797032Y-26836600D01*
X-911164Y-26836600D01*
X-1023103Y-26858866D01*
X-1128547Y-26902543D01*
X-1223444Y-26965951D01*
X-1304147Y-27046654D01*
X-1367555Y-27141551D01*
X-1411232Y-27246995D01*
X-1433498Y-27358934D01*
X-4423714Y-27358934D01*
X-4427908Y-27337851D01*
X-4471585Y-27232407D01*
X-4534993Y-27137510D01*
X-4615696Y-27056807D01*
X-4710593Y-26993399D01*
X-4816037Y-26949722D01*
X-4927976Y-26927456D01*
X-5042108Y-26927456D01*
X-5154047Y-26949722D01*
X-5259491Y-26993399D01*
X-5259952Y-26993707D01*
X-5206531Y-26940286D01*
X-5143123Y-26845389D01*
X-5099446Y-26739945D01*
X-5077180Y-26628006D01*
X-5077180Y-26513874D01*
X-5099446Y-26401935D01*
X-5127180Y-26334980D01*
X-5127180Y-26160490D01*
X-5122005Y-26162634D01*
X-5010066Y-26184900D01*
X-4895934Y-26184900D01*
X-4783995Y-26162634D01*
X-4678551Y-26118957D01*
X-4583654Y-26055549D01*
X-4502951Y-25974846D01*
X-4439543Y-25879949D01*
X-4395866Y-25774505D01*
X-4373600Y-25662566D01*
X-4373600Y-25548434D01*
X-4395866Y-25436495D01*
X-4439543Y-25331051D01*
X-4502951Y-25236154D01*
X-4583654Y-25155451D01*
X-4678551Y-25092043D01*
X-4783995Y-25048366D01*
X-4895934Y-25026100D01*
X-5010066Y-25026100D01*
X-5122005Y-25048366D01*
X-5127180Y-25050510D01*
X-5127180Y-24580934D01*
X-3119400Y-24580934D01*
X-3119400Y-24695066D01*
X-3097134Y-24807005D01*
X-3053457Y-24912449D01*
X-2990049Y-25007346D01*
X-2909346Y-25088049D01*
X-2822616Y-25146000D01*
X-2909346Y-25203951D01*
X-2990049Y-25284654D01*
X-3053457Y-25379551D01*
X-3097134Y-25484995D01*
X-3119400Y-25596934D01*
X-3119400Y-25711066D01*
X-3097134Y-25823005D01*
X-3053457Y-25928449D01*
X-2990049Y-26023346D01*
X-2909346Y-26104049D01*
X-2814449Y-26167457D01*
X-2709005Y-26211134D01*
X-2597066Y-26233400D01*
X-2482934Y-26233400D01*
X-2370995Y-26211134D01*
X-2265551Y-26167457D01*
X-2170654Y-26104049D01*
X-2089951Y-26023346D01*
X-2026543Y-25928449D01*
X-1982866Y-25823005D01*
X-1960600Y-25711066D01*
X-1960600Y-25596934D01*
X-1963238Y-25583671D01*
X-1901449Y-25624957D01*
X-1796005Y-25668634D01*
X-1684066Y-25690900D01*
X-1569934Y-25690900D01*
X-1457995Y-25668634D01*
X-1352551Y-25624957D01*
X-1341400Y-25617506D01*
X-1341400Y-25711066D01*
X-1319134Y-25823005D01*
X-1275457Y-25928449D01*
X-1212049Y-26023346D01*
X-1131346Y-26104049D01*
X-1036449Y-26167457D01*
X-931005Y-26211134D01*
X-819066Y-26233400D01*
X-704934Y-26233400D01*
X-592995Y-26211134D01*
X-487551Y-26167457D01*
X-392654Y-26104049D01*
X-311951Y-26023346D01*
X-248543Y-25928449D01*
X-204866Y-25823005D01*
X-182600Y-25711066D01*
X-182600Y-25596934D01*
X-185238Y-25583671D01*
X-123449Y-25624957D01*
X-18005Y-25668634D01*
X93934Y-25690900D01*
X208066Y-25690900D01*
X320005Y-25668634D01*
X425449Y-25624957D01*
X436600Y-25617506D01*
X436600Y-25711066D01*
X458866Y-25823005D01*
X502543Y-25928449D01*
X565951Y-26023346D01*
X646654Y-26104049D01*
X741551Y-26167457D01*
X846995Y-26211134D01*
X958934Y-26233400D01*
X1073066Y-26233400D01*
X1185005Y-26211134D01*
X1290449Y-26167457D01*
X1385346Y-26104049D01*
X1466049Y-26023346D01*
X1529457Y-25928449D01*
X1573134Y-25823005D01*
X1595400Y-25711066D01*
X1595400Y-25596934D01*
X1592762Y-25583671D01*
X1654551Y-25624957D01*
X1759995Y-25668634D01*
X1871934Y-25690900D01*
X1986066Y-25690900D01*
X2098005Y-25668634D01*
X2203449Y-25624957D01*
X2214600Y-25617506D01*
X2214600Y-25711066D01*
X2236866Y-25823005D01*
X2280543Y-25928449D01*
X2343951Y-26023346D01*
X2424654Y-26104049D01*
X2519551Y-26167457D01*
X2624995Y-26211134D01*
X2736934Y-26233400D01*
X2851066Y-26233400D01*
X2963005Y-26211134D01*
X3068449Y-26167457D01*
X3163346Y-26104049D01*
X3244049Y-26023346D01*
X3307457Y-25928449D01*
X3351134Y-25823005D01*
X3373400Y-25711066D01*
X3373400Y-25623915D01*
X3431722Y-25635516D01*
X3545854Y-25635516D01*
X3657793Y-25613250D01*
X3763237Y-25569573D01*
X3858134Y-25506165D01*
X3938837Y-25425462D01*
X4002245Y-25330565D01*
X4045922Y-25225121D01*
X4068188Y-25113182D01*
X4068188Y-24999050D01*
X4045922Y-24887111D01*
X4002245Y-24781667D01*
X3938837Y-24686770D01*
X3858134Y-24606067D01*
X3763237Y-24542659D01*
X3657793Y-24498982D01*
X3545854Y-24476716D01*
X3431722Y-24476716D01*
X3355679Y-24491842D01*
X3351134Y-24468995D01*
X3307457Y-24363551D01*
X3244049Y-24268654D01*
X3163346Y-24187951D01*
X3068449Y-24124543D01*
X2963005Y-24080866D01*
X2851066Y-24058600D01*
X2736934Y-24058600D01*
X2624995Y-24080866D01*
X2519551Y-24124543D01*
X2424654Y-24187951D01*
X2343951Y-24268654D01*
X2280543Y-24363551D01*
X2236866Y-24468995D01*
X2214600Y-24580934D01*
X2214600Y-24605494D01*
X2203449Y-24598043D01*
X2098005Y-24554366D01*
X1986066Y-24532100D01*
X1871934Y-24532100D01*
X1759995Y-24554366D01*
X1654551Y-24598043D01*
X1595400Y-24637566D01*
X1595400Y-24580934D01*
X1573134Y-24468995D01*
X1529457Y-24363551D01*
X1466049Y-24268654D01*
X1385346Y-24187951D01*
X1290449Y-24124543D01*
X1185005Y-24080866D01*
X1073066Y-24058600D01*
X958934Y-24058600D01*
X846995Y-24080866D01*
X741551Y-24124543D01*
X646654Y-24187951D01*
X565951Y-24268654D01*
X502543Y-24363551D01*
X458866Y-24468995D01*
X436600Y-24580934D01*
X436600Y-24605494D01*
X425449Y-24598043D01*
X320005Y-24554366D01*
X208066Y-24532100D01*
X93934Y-24532100D01*
X-18005Y-24554366D01*
X-123449Y-24598043D01*
X-182600Y-24637566D01*
X-182600Y-24580934D01*
X-204866Y-24468995D01*
X-248543Y-24363551D01*
X-311951Y-24268654D01*
X-392654Y-24187951D01*
X-487551Y-24124543D01*
X-592995Y-24080866D01*
X-704934Y-24058600D01*
X-819066Y-24058600D01*
X-931005Y-24080866D01*
X-1036449Y-24124543D01*
X-1131346Y-24187951D01*
X-1212049Y-24268654D01*
X-1275457Y-24363551D01*
X-1319134Y-24468995D01*
X-1341400Y-24580934D01*
X-1341400Y-24605494D01*
X-1352551Y-24598043D01*
X-1457995Y-24554366D01*
X-1569934Y-24532100D01*
X-1684066Y-24532100D01*
X-1796005Y-24554366D01*
X-1901449Y-24598043D01*
X-1960600Y-24637566D01*
X-1960600Y-24580934D01*
X-1982866Y-24468995D01*
X-2026543Y-24363551D01*
X-2089951Y-24268654D01*
X-2170654Y-24187951D01*
X-2265551Y-24124543D01*
X-2370995Y-24080866D01*
X-2482934Y-24058600D01*
X-2597066Y-24058600D01*
X-2709005Y-24080866D01*
X-2814449Y-24124543D01*
X-2909346Y-24187951D01*
X-2990049Y-24268654D01*
X-3053457Y-24363551D01*
X-3097134Y-24468995D01*
X-3119400Y-24580934D01*
X-5127180Y-24580934D01*
X-5127180Y-21179113D01*
X-5124620Y-21153120D01*
X-5127180Y-21127127D01*
X-5127180Y-21127117D01*
X-5134840Y-21049340D01*
X-5165112Y-20949547D01*
X-5202368Y-20879846D01*
X-5214271Y-20857577D01*
X-5263851Y-20797164D01*
X-5263855Y-20797160D01*
X-5280427Y-20776967D01*
X-5300620Y-20760395D01*
X-7372491Y-18688525D01*
X-7374041Y-18680733D01*
X-7417718Y-18575289D01*
X-7481126Y-18480392D01*
X-7561829Y-18399689D01*
X-7656726Y-18336281D01*
X-7762170Y-18292604D01*
X-7814293Y-18282236D01*
X-7848960Y-18271720D01*
X-7952740Y-18261499D01*
X-8056519Y-18271720D01*
X-8156312Y-18301992D01*
X-8248281Y-18351151D01*
X-8328893Y-18417307D01*
X-8378111Y-18477279D01*
X-8381224Y-18480392D01*
X-8383670Y-18484053D01*
X-8395049Y-18497918D01*
X-8403505Y-18513738D01*
X-8435600Y-18561772D01*
X-8435600Y-14665334D01*
X-8376543Y-14576949D01*
X-8332866Y-14471505D01*
X-8310600Y-14359566D01*
X-8310600Y-14245434D01*
X-8332866Y-14133495D01*
X-8358331Y-14072018D01*
X-8180450Y-14072018D01*
X-4921145Y-17331324D01*
X-4921145Y-17331324D01*
G37*
X-4921145Y-17331324D02*
X-4949005Y-17336866D01*
X-5054449Y-17380543D01*
X-5149346Y-17443951D01*
X-5230049Y-17524654D01*
X-5293457Y-17619551D01*
X-5337134Y-17724995D01*
X-5359400Y-17836934D01*
X-5359400Y-17951066D01*
X-5337134Y-18063005D01*
X-5293457Y-18168449D01*
X-5230049Y-18263346D01*
X-5149346Y-18344049D01*
X-5054449Y-18407457D01*
X-4949005Y-18451134D01*
X-4837066Y-18473400D01*
X-4722934Y-18473400D01*
X-4610995Y-18451134D01*
X-4505551Y-18407457D01*
X-4410654Y-18344049D01*
X-4329951Y-18263346D01*
X-4266543Y-18168449D01*
X-4222866Y-18063005D01*
X-4217324Y-18035145D01*
X-4118473Y-18133996D01*
X-4106595Y-18148469D01*
X-4092124Y-18160345D01*
X-4092123Y-18160346D01*
X-4048825Y-18195880D01*
X-3982914Y-18231110D01*
X-3966268Y-18236159D01*
X-3911396Y-18252805D01*
X-3855653Y-18258295D01*
X-3855650Y-18258295D01*
X-3837021Y-18260130D01*
X-3818392Y-18258295D01*
X-1534445Y-18258295D01*
X4321770Y-24114511D01*
X4297551Y-24124543D01*
X4202654Y-24187951D01*
X4121951Y-24268654D01*
X4058543Y-24363551D01*
X4014866Y-24468995D01*
X3992600Y-24580934D01*
X3992600Y-24695066D01*
X4014866Y-24807005D01*
X4058543Y-24912449D01*
X4121951Y-25007346D01*
X4202654Y-25088049D01*
X4289384Y-25146000D01*
X4202654Y-25203951D01*
X4121951Y-25284654D01*
X4058543Y-25379551D01*
X4014866Y-25484995D01*
X3992600Y-25596934D01*
X3992600Y-25711066D01*
X4014866Y-25823005D01*
X4058543Y-25928449D01*
X4121951Y-26023346D01*
X4202654Y-26104049D01*
X4297551Y-26167457D01*
X4402995Y-26211134D01*
X4514934Y-26233400D01*
X4629066Y-26233400D01*
X4741005Y-26211134D01*
X4788548Y-26191441D01*
X4788548Y-27595500D01*
X-460780Y-32844828D01*
X-557448Y-32825600D01*
X-712552Y-32825600D01*
X-720837Y-32827248D01*
X-712866Y-32808005D01*
X-690600Y-32696066D01*
X-690600Y-32581934D01*
X-712866Y-32469995D01*
X-756543Y-32364551D01*
X-819951Y-32269654D01*
X-900654Y-32188951D01*
X-995551Y-32125543D01*
X-1100995Y-32081866D01*
X-1212934Y-32059600D01*
X-1327066Y-32059600D01*
X-1439005Y-32081866D01*
X-1544449Y-32125543D01*
X-1639346Y-32188951D01*
X-1709995Y-32259600D01*
X-2223771Y-32259600D01*
X-2242400Y-32257765D01*
X-2250401Y-32258553D01*
X-2258401Y-32257765D01*
X-2277030Y-32259600D01*
X-2277032Y-32259600D01*
X-2332775Y-32265090D01*
X-2404292Y-32286785D01*
X-2421094Y-32295766D01*
X-2470204Y-32322015D01*
X-2513502Y-32357549D01*
X-2527974Y-32369426D01*
X-2539850Y-32383897D01*
X-3000781Y-32844828D01*
X-3097448Y-32825600D01*
X-3252552Y-32825600D01*
X-3404676Y-32855859D01*
X-3547974Y-32915215D01*
X-3676938Y-33001386D01*
X-3786614Y-33111062D01*
X-3810000Y-33146062D01*
X-3833386Y-33111062D01*
X-3943062Y-33001386D01*
X-4072026Y-32915215D01*
X-4215324Y-32855859D01*
X-4367448Y-32825600D01*
X-4522552Y-32825600D01*
X-4674676Y-32855859D01*
X-4817974Y-32915215D01*
X-4946938Y-33001386D01*
X-5056614Y-33111062D01*
X-5142785Y-33240026D01*
X-5202141Y-33383324D01*
X-5232400Y-33535448D01*
X-5232400Y-33690552D01*
X-5202141Y-33842676D01*
X-5142785Y-33985974D01*
X-5056614Y-34114938D01*
X-4946938Y-34224614D01*
X-4911938Y-34248000D01*
X-4946938Y-34271386D01*
X-5056614Y-34381062D01*
X-5142785Y-34510026D01*
X-5202141Y-34653324D01*
X-5213961Y-34712749D01*
X-5435582Y-34491128D01*
X-5450862Y-34440757D01*
X-5457215Y-34428871D01*
X-5500021Y-34348787D01*
X-5549601Y-34288374D01*
X-5549605Y-34288370D01*
X-5566177Y-34268177D01*
X-5586370Y-34251605D01*
X-7637129Y-32200847D01*
X-7653704Y-32180650D01*
X-7662248Y-32173638D01*
X-7632323Y-32128851D01*
X-7588646Y-32023407D01*
X-7566380Y-31911468D01*
X-7566380Y-31797336D01*
X-7588646Y-31685397D01*
X-7632323Y-31579953D01*
X-7695731Y-31485056D01*
X-7776434Y-31404353D01*
X-7871331Y-31340945D01*
X-7976775Y-31297268D01*
X-8088714Y-31275002D01*
X-8202846Y-31275002D01*
X-8314785Y-31297268D01*
X-8420229Y-31340945D01*
X-8515126Y-31404353D01*
X-8595829Y-31485056D01*
X-8659237Y-31579953D01*
X-8675119Y-31618294D01*
X-8722365Y-31579520D01*
X-8814334Y-31530361D01*
X-8914127Y-31500089D01*
X-8991904Y-31492429D01*
X-8991914Y-31492429D01*
X-9017907Y-31489869D01*
X-9043900Y-31492429D01*
X-9531567Y-31492429D01*
X-9557560Y-31489869D01*
X-9583553Y-31492429D01*
X-9583563Y-31492429D01*
X-9661340Y-31500089D01*
X-9761133Y-31530361D01*
X-9851852Y-31578851D01*
X-9979942Y-31450761D01*
X-9979942Y-30364918D01*
X-9975945Y-30366574D01*
X-9864006Y-30388840D01*
X-9749874Y-30388840D01*
X-9637935Y-30366574D01*
X-9532491Y-30322897D01*
X-9437594Y-30259489D01*
X-9356891Y-30178786D01*
X-9293483Y-30083889D01*
X-9249806Y-29978445D01*
X-9227540Y-29866506D01*
X-9227540Y-29766592D01*
X-7031714Y-27570767D01*
X-7017243Y-27558891D01*
X-7002438Y-27540851D01*
X-6969832Y-27501121D01*
X-6935638Y-27437147D01*
X-6934602Y-27435209D01*
X-6912907Y-27363692D01*
X-6907417Y-27307949D01*
X-6907417Y-27307947D01*
X-6905582Y-27289318D01*
X-6907417Y-27270689D01*
X-6907417Y-23358896D01*
X-6836768Y-23288247D01*
X-6773360Y-23193350D01*
X-6729683Y-23087906D01*
X-6707417Y-22975967D01*
X-6707417Y-22861835D01*
X-6729683Y-22749896D01*
X-6773360Y-22644452D01*
X-6836768Y-22549555D01*
X-6917471Y-22468852D01*
X-7012368Y-22405444D01*
X-7117812Y-22361767D01*
X-7229751Y-22339501D01*
X-7343883Y-22339501D01*
X-7455822Y-22361767D01*
X-7561266Y-22405444D01*
X-7656163Y-22468852D01*
X-7736866Y-22549555D01*
X-7800274Y-22644452D01*
X-7843951Y-22749896D01*
X-7866217Y-22861835D01*
X-7866217Y-22975967D01*
X-7843951Y-23087906D01*
X-7800274Y-23193350D01*
X-7736866Y-23288247D01*
X-7666217Y-23358896D01*
X-7666216Y-26485745D01*
X-7666217Y-26485755D01*
X-7666216Y-27132163D01*
X-9298199Y-28764147D01*
X-9298199Y-22802339D01*
X-9269647Y-22855756D01*
X-9233116Y-22900269D01*
X-9212863Y-22924948D01*
X-9195528Y-22939174D01*
X-9151055Y-22983647D01*
X-9130317Y-23087906D01*
X-9086640Y-23193350D01*
X-9023232Y-23288247D01*
X-8942529Y-23368950D01*
X-8847632Y-23432358D01*
X-8742188Y-23476035D01*
X-8630249Y-23498301D01*
X-8516117Y-23498301D01*
X-8404178Y-23476035D01*
X-8298734Y-23432358D01*
X-8203837Y-23368950D01*
X-8123134Y-23288247D01*
X-8059726Y-23193350D01*
X-8016049Y-23087906D01*
X-7993783Y-22975967D01*
X-7993783Y-22861835D01*
X-8016049Y-22749896D01*
X-8059726Y-22644452D01*
X-8123134Y-22549555D01*
X-8203837Y-22468852D01*
X-8298734Y-22405444D01*
X-8404178Y-22361767D01*
X-8435600Y-22355517D01*
X-8435600Y-19137704D01*
X-8381224Y-19219084D01*
X-8300521Y-19299787D01*
X-8205624Y-19363195D01*
X-8187810Y-19370574D01*
X-6185979Y-21372406D01*
X-6185980Y-26334980D01*
X-6213714Y-26401935D01*
X-6235980Y-26513874D01*
X-6235980Y-26628006D01*
X-6213714Y-26739945D01*
X-6170037Y-26845389D01*
X-6106629Y-26940286D01*
X-6025926Y-27020989D01*
X-5931029Y-27084397D01*
X-5825585Y-27128074D01*
X-5713646Y-27150340D01*
X-5599514Y-27150340D01*
X-5487575Y-27128074D01*
X-5382131Y-27084397D01*
X-5381670Y-27084089D01*
X-5426408Y-27128827D01*
X-5468231Y-27132946D01*
X-5539748Y-27154641D01*
X-5605659Y-27189871D01*
X-5663430Y-27237282D01*
X-5710841Y-27295053D01*
X-5746071Y-27360964D01*
X-5767766Y-27432481D01*
X-5775091Y-27506856D01*
X-5767766Y-27581231D01*
X-5763609Y-27594934D01*
X-6109079Y-27940405D01*
X-6125294Y-27937180D01*
X-6239426Y-27937180D01*
X-6351365Y-27959446D01*
X-6456809Y-28003123D01*
X-6551706Y-28066531D01*
X-6632409Y-28147234D01*
X-6695817Y-28242131D01*
X-6739494Y-28347575D01*
X-6761760Y-28459514D01*
X-6761760Y-28573646D01*
X-6739494Y-28685585D01*
X-6695817Y-28791029D01*
X-6632409Y-28885926D01*
X-6551706Y-28966629D01*
X-6456809Y-29030037D01*
X-6351365Y-29073714D01*
X-6239426Y-29095980D01*
X-6125294Y-29095980D01*
X-6013355Y-29073714D01*
X-5907911Y-29030037D01*
X-5813014Y-28966629D01*
X-5732311Y-28885926D01*
X-5668903Y-28791029D01*
X-5625226Y-28685585D01*
X-5602960Y-28573646D01*
X-5602960Y-28459514D01*
X-5606185Y-28443299D01*
X-5205544Y-28042659D01*
X-5154047Y-28063990D01*
X-5042108Y-28086256D01*
X-4927976Y-28086256D01*
X-4816037Y-28063990D01*
X-4710593Y-28020313D01*
X-4615696Y-27956905D01*
X-4534993Y-27876202D01*
X-4471585Y-27781305D01*
X-4427908Y-27675861D01*
X-4405642Y-27563922D01*
X-4405642Y-27449790D01*
X-4423714Y-27358934D01*
X-1433498Y-27358934D01*
X-1433498Y-27473066D01*
X-1411232Y-27585005D01*
X-1367555Y-27690449D01*
X-1304147Y-27785346D01*
X-1223444Y-27866049D01*
X-1128547Y-27929457D01*
X-1023103Y-27973134D01*
X-911164Y-27995400D01*
X-797032Y-27995400D01*
X-685093Y-27973134D01*
X-579649Y-27929457D01*
X-484752Y-27866049D01*
X-404049Y-27785346D01*
X-340641Y-27690449D01*
X-296964Y-27585005D01*
X-274698Y-27473066D01*
X-274698Y-27358934D01*
X-296964Y-27246995D01*
X-325169Y-27178902D01*
X608010Y-27178902D01*
X608010Y-27293034D01*
X630276Y-27404973D01*
X673953Y-27510417D01*
X737361Y-27605314D01*
X818064Y-27686017D01*
X912961Y-27749425D01*
X1018405Y-27793102D01*
X1130344Y-27815368D01*
X1244476Y-27815368D01*
X1356415Y-27793102D01*
X1461859Y-27749425D01*
X1556756Y-27686017D01*
X1637459Y-27605314D01*
X1700867Y-27510417D01*
X1744544Y-27404973D01*
X1766810Y-27293034D01*
X1766810Y-27178902D01*
X1744544Y-27066963D01*
X1700867Y-26961519D01*
X1637459Y-26866622D01*
X1556756Y-26785919D01*
X1461859Y-26722511D01*
X1356415Y-26678834D01*
X1244476Y-26656568D01*
X1130344Y-26656568D01*
X1018405Y-26678834D01*
X912961Y-26722511D01*
X818064Y-26785919D01*
X737361Y-26866622D01*
X673953Y-26961519D01*
X630276Y-27066963D01*
X608010Y-27178902D01*
X-325169Y-27178902D01*
X-340641Y-27141551D01*
X-404049Y-27046654D01*
X-484752Y-26965951D01*
X-579649Y-26902543D01*
X-685093Y-26858866D01*
X-797032Y-26836600D01*
X-911164Y-26836600D01*
X-1023103Y-26858866D01*
X-1128547Y-26902543D01*
X-1223444Y-26965951D01*
X-1304147Y-27046654D01*
X-1367555Y-27141551D01*
X-1411232Y-27246995D01*
X-1433498Y-27358934D01*
X-4423714Y-27358934D01*
X-4427908Y-27337851D01*
X-4471585Y-27232407D01*
X-4534993Y-27137510D01*
X-4615696Y-27056807D01*
X-4710593Y-26993399D01*
X-4816037Y-26949722D01*
X-4927976Y-26927456D01*
X-5042108Y-26927456D01*
X-5154047Y-26949722D01*
X-5259491Y-26993399D01*
X-5259952Y-26993707D01*
X-5206531Y-26940286D01*
X-5143123Y-26845389D01*
X-5099446Y-26739945D01*
X-5077180Y-26628006D01*
X-5077180Y-26513874D01*
X-5099446Y-26401935D01*
X-5127180Y-26334980D01*
X-5127180Y-26160490D01*
X-5122005Y-26162634D01*
X-5010066Y-26184900D01*
X-4895934Y-26184900D01*
X-4783995Y-26162634D01*
X-4678551Y-26118957D01*
X-4583654Y-26055549D01*
X-4502951Y-25974846D01*
X-4439543Y-25879949D01*
X-4395866Y-25774505D01*
X-4373600Y-25662566D01*
X-4373600Y-25548434D01*
X-4395866Y-25436495D01*
X-4439543Y-25331051D01*
X-4502951Y-25236154D01*
X-4583654Y-25155451D01*
X-4678551Y-25092043D01*
X-4783995Y-25048366D01*
X-4895934Y-25026100D01*
X-5010066Y-25026100D01*
X-5122005Y-25048366D01*
X-5127180Y-25050510D01*
X-5127180Y-24580934D01*
X-3119400Y-24580934D01*
X-3119400Y-24695066D01*
X-3097134Y-24807005D01*
X-3053457Y-24912449D01*
X-2990049Y-25007346D01*
X-2909346Y-25088049D01*
X-2822616Y-25146000D01*
X-2909346Y-25203951D01*
X-2990049Y-25284654D01*
X-3053457Y-25379551D01*
X-3097134Y-25484995D01*
X-3119400Y-25596934D01*
X-3119400Y-25711066D01*
X-3097134Y-25823005D01*
X-3053457Y-25928449D01*
X-2990049Y-26023346D01*
X-2909346Y-26104049D01*
X-2814449Y-26167457D01*
X-2709005Y-26211134D01*
X-2597066Y-26233400D01*
X-2482934Y-26233400D01*
X-2370995Y-26211134D01*
X-2265551Y-26167457D01*
X-2170654Y-26104049D01*
X-2089951Y-26023346D01*
X-2026543Y-25928449D01*
X-1982866Y-25823005D01*
X-1960600Y-25711066D01*
X-1960600Y-25596934D01*
X-1963238Y-25583671D01*
X-1901449Y-25624957D01*
X-1796005Y-25668634D01*
X-1684066Y-25690900D01*
X-1569934Y-25690900D01*
X-1457995Y-25668634D01*
X-1352551Y-25624957D01*
X-1341400Y-25617506D01*
X-1341400Y-25711066D01*
X-1319134Y-25823005D01*
X-1275457Y-25928449D01*
X-1212049Y-26023346D01*
X-1131346Y-26104049D01*
X-1036449Y-26167457D01*
X-931005Y-26211134D01*
X-819066Y-26233400D01*
X-704934Y-26233400D01*
X-592995Y-26211134D01*
X-487551Y-26167457D01*
X-392654Y-26104049D01*
X-311951Y-26023346D01*
X-248543Y-25928449D01*
X-204866Y-25823005D01*
X-182600Y-25711066D01*
X-182600Y-25596934D01*
X-185238Y-25583671D01*
X-123449Y-25624957D01*
X-18005Y-25668634D01*
X93934Y-25690900D01*
X208066Y-25690900D01*
X320005Y-25668634D01*
X425449Y-25624957D01*
X436600Y-25617506D01*
X436600Y-25711066D01*
X458866Y-25823005D01*
X502543Y-25928449D01*
X565951Y-26023346D01*
X646654Y-26104049D01*
X741551Y-26167457D01*
X846995Y-26211134D01*
X958934Y-26233400D01*
X1073066Y-26233400D01*
X1185005Y-26211134D01*
X1290449Y-26167457D01*
X1385346Y-26104049D01*
X1466049Y-26023346D01*
X1529457Y-25928449D01*
X1573134Y-25823005D01*
X1595400Y-25711066D01*
X1595400Y-25596934D01*
X1592762Y-25583671D01*
X1654551Y-25624957D01*
X1759995Y-25668634D01*
X1871934Y-25690900D01*
X1986066Y-25690900D01*
X2098005Y-25668634D01*
X2203449Y-25624957D01*
X2214600Y-25617506D01*
X2214600Y-25711066D01*
X2236866Y-25823005D01*
X2280543Y-25928449D01*
X2343951Y-26023346D01*
X2424654Y-26104049D01*
X2519551Y-26167457D01*
X2624995Y-26211134D01*
X2736934Y-26233400D01*
X2851066Y-26233400D01*
X2963005Y-26211134D01*
X3068449Y-26167457D01*
X3163346Y-26104049D01*
X3244049Y-26023346D01*
X3307457Y-25928449D01*
X3351134Y-25823005D01*
X3373400Y-25711066D01*
X3373400Y-25623915D01*
X3431722Y-25635516D01*
X3545854Y-25635516D01*
X3657793Y-25613250D01*
X3763237Y-25569573D01*
X3858134Y-25506165D01*
X3938837Y-25425462D01*
X4002245Y-25330565D01*
X4045922Y-25225121D01*
X4068188Y-25113182D01*
X4068188Y-24999050D01*
X4045922Y-24887111D01*
X4002245Y-24781667D01*
X3938837Y-24686770D01*
X3858134Y-24606067D01*
X3763237Y-24542659D01*
X3657793Y-24498982D01*
X3545854Y-24476716D01*
X3431722Y-24476716D01*
X3355679Y-24491842D01*
X3351134Y-24468995D01*
X3307457Y-24363551D01*
X3244049Y-24268654D01*
X3163346Y-24187951D01*
X3068449Y-24124543D01*
X2963005Y-24080866D01*
X2851066Y-24058600D01*
X2736934Y-24058600D01*
X2624995Y-24080866D01*
X2519551Y-24124543D01*
X2424654Y-24187951D01*
X2343951Y-24268654D01*
X2280543Y-24363551D01*
X2236866Y-24468995D01*
X2214600Y-24580934D01*
X2214600Y-24605494D01*
X2203449Y-24598043D01*
X2098005Y-24554366D01*
X1986066Y-24532100D01*
X1871934Y-24532100D01*
X1759995Y-24554366D01*
X1654551Y-24598043D01*
X1595400Y-24637566D01*
X1595400Y-24580934D01*
X1573134Y-24468995D01*
X1529457Y-24363551D01*
X1466049Y-24268654D01*
X1385346Y-24187951D01*
X1290449Y-24124543D01*
X1185005Y-24080866D01*
X1073066Y-24058600D01*
X958934Y-24058600D01*
X846995Y-24080866D01*
X741551Y-24124543D01*
X646654Y-24187951D01*
X565951Y-24268654D01*
X502543Y-24363551D01*
X458866Y-24468995D01*
X436600Y-24580934D01*
X436600Y-24605494D01*
X425449Y-24598043D01*
X320005Y-24554366D01*
X208066Y-24532100D01*
X93934Y-24532100D01*
X-18005Y-24554366D01*
X-123449Y-24598043D01*
X-182600Y-24637566D01*
X-182600Y-24580934D01*
X-204866Y-24468995D01*
X-248543Y-24363551D01*
X-311951Y-24268654D01*
X-392654Y-24187951D01*
X-487551Y-24124543D01*
X-592995Y-24080866D01*
X-704934Y-24058600D01*
X-819066Y-24058600D01*
X-931005Y-24080866D01*
X-1036449Y-24124543D01*
X-1131346Y-24187951D01*
X-1212049Y-24268654D01*
X-1275457Y-24363551D01*
X-1319134Y-24468995D01*
X-1341400Y-24580934D01*
X-1341400Y-24605494D01*
X-1352551Y-24598043D01*
X-1457995Y-24554366D01*
X-1569934Y-24532100D01*
X-1684066Y-24532100D01*
X-1796005Y-24554366D01*
X-1901449Y-24598043D01*
X-1960600Y-24637566D01*
X-1960600Y-24580934D01*
X-1982866Y-24468995D01*
X-2026543Y-24363551D01*
X-2089951Y-24268654D01*
X-2170654Y-24187951D01*
X-2265551Y-24124543D01*
X-2370995Y-24080866D01*
X-2482934Y-24058600D01*
X-2597066Y-24058600D01*
X-2709005Y-24080866D01*
X-2814449Y-24124543D01*
X-2909346Y-24187951D01*
X-2990049Y-24268654D01*
X-3053457Y-24363551D01*
X-3097134Y-24468995D01*
X-3119400Y-24580934D01*
X-5127180Y-24580934D01*
X-5127180Y-21179113D01*
X-5124620Y-21153120D01*
X-5127180Y-21127127D01*
X-5127180Y-21127117D01*
X-5134840Y-21049340D01*
X-5165112Y-20949547D01*
X-5202368Y-20879846D01*
X-5214271Y-20857577D01*
X-5263851Y-20797164D01*
X-5263855Y-20797160D01*
X-5280427Y-20776967D01*
X-5300620Y-20760395D01*
X-7372491Y-18688525D01*
X-7374041Y-18680733D01*
X-7417718Y-18575289D01*
X-7481126Y-18480392D01*
X-7561829Y-18399689D01*
X-7656726Y-18336281D01*
X-7762170Y-18292604D01*
X-7814293Y-18282236D01*
X-7848960Y-18271720D01*
X-7952740Y-18261499D01*
X-8056519Y-18271720D01*
X-8156312Y-18301992D01*
X-8248281Y-18351151D01*
X-8328893Y-18417307D01*
X-8378111Y-18477279D01*
X-8381224Y-18480392D01*
X-8383670Y-18484053D01*
X-8395049Y-18497918D01*
X-8403505Y-18513738D01*
X-8435600Y-18561772D01*
X-8435600Y-14665334D01*
X-8376543Y-14576949D01*
X-8332866Y-14471505D01*
X-8310600Y-14359566D01*
X-8310600Y-14245434D01*
X-8332866Y-14133495D01*
X-8358331Y-14072018D01*
X-8180450Y-14072018D01*
X-4921145Y-17331324D01*
G36*
X-13430511Y-28061472D02*
G01*
X-13581311Y-28212273D01*
X-13595787Y-28224153D01*
X-13614870Y-28247406D01*
X-13643198Y-28281924D01*
X-13658756Y-28311032D01*
X-13678428Y-28347836D01*
X-13700123Y-28419353D01*
X-13705548Y-28474439D01*
X-13705930Y-28478313D01*
X-13776262Y-28548645D01*
X-13792600Y-28573097D01*
X-13792600Y-23799914D01*
X-13785148Y-23803001D01*
X-13673209Y-23825267D01*
X-13559077Y-23825267D01*
X-13447138Y-23803001D01*
X-13430512Y-23796114D01*
X-13430511Y-28061472D01*
X-13430511Y-28061472D01*
G37*
X-13430511Y-28061472D02*
X-13581311Y-28212273D01*
X-13595787Y-28224153D01*
X-13614870Y-28247406D01*
X-13643198Y-28281924D01*
X-13658756Y-28311032D01*
X-13678428Y-28347836D01*
X-13700123Y-28419353D01*
X-13705548Y-28474439D01*
X-13705930Y-28478313D01*
X-13776262Y-28548645D01*
X-13792600Y-28573097D01*
X-13792600Y-23799914D01*
X-13785148Y-23803001D01*
X-13673209Y-23825267D01*
X-13559077Y-23825267D01*
X-13447138Y-23803001D01*
X-13430512Y-23796114D01*
X-13430511Y-28061472D01*
G36*
X-13430512Y-20306307D02*
G01*
X-13430512Y-22695620D01*
X-13447138Y-22688733D01*
X-13559077Y-22666467D01*
X-13673209Y-22666467D01*
X-13785148Y-22688733D01*
X-13792600Y-22691820D01*
X-13792600Y-19944218D01*
X-13430512Y-20306307D01*
X-13430512Y-20306307D01*
G37*
X-13430512Y-20306307D02*
X-13430512Y-22695620D01*
X-13447138Y-22688733D01*
X-13559077Y-22666467D01*
X-13673209Y-22666467D01*
X-13785148Y-22688733D01*
X-13792600Y-22691820D01*
X-13792600Y-19944218D01*
X-13430512Y-20306307D01*
G36*
X-2829965Y23428413D02*
G01*
X-2866676Y23307393D01*
X-2879400Y23178202D01*
X-2879400Y22541799D01*
X-2866676Y22412608D01*
X-2816391Y22246841D01*
X-2734732Y22094069D01*
X-2624838Y21960162D01*
X-2490932Y21850268D01*
X-2338160Y21768609D01*
X-2172393Y21718324D01*
X-2000000Y21701345D01*
X-1827608Y21718324D01*
X-1661841Y21768609D01*
X-1509069Y21850268D01*
X-1375162Y21960162D01*
X-1265268Y22094068D01*
X-1183609Y22246840D01*
X-1133324Y22412607D01*
X-1120600Y22541798D01*
X-1120600Y23178202D01*
X-1133324Y23307393D01*
X-1170035Y23428412D01*
X-990437Y23608010D01*
X2662992Y23608010D01*
X3095245Y23175757D01*
X3065551Y23163457D01*
X2970654Y23100049D01*
X2889951Y23019346D01*
X2826543Y22924449D01*
X2782866Y22819005D01*
X2760600Y22707066D01*
X2760600Y22607153D01*
X2265438Y22111990D01*
X-968781Y22111990D01*
X-987410Y22113825D01*
X-1006039Y22111990D01*
X-1006042Y22111990D01*
X-1061785Y22106500D01*
X-1106729Y22092866D01*
X-1133303Y22084805D01*
X-1159878Y22070600D01*
X-1199213Y22049575D01*
X-1256984Y22002164D01*
X-1268860Y21987693D01*
X-3620600Y19635952D01*
X-3620600Y21790653D01*
X-3509069Y21850268D01*
X-3375162Y21960162D01*
X-3265268Y22094068D01*
X-3183609Y22246840D01*
X-3133324Y22412607D01*
X-3120600Y22541798D01*
X-3120600Y23178202D01*
X-3133324Y23307393D01*
X-3183609Y23473160D01*
X-3255688Y23608010D01*
X-3009562Y23608010D01*
X-2829965Y23428413D01*
X-2829965Y23428413D01*
G37*
X-2829965Y23428413D02*
X-2866676Y23307393D01*
X-2879400Y23178202D01*
X-2879400Y22541799D01*
X-2866676Y22412608D01*
X-2816391Y22246841D01*
X-2734732Y22094069D01*
X-2624838Y21960162D01*
X-2490932Y21850268D01*
X-2338160Y21768609D01*
X-2172393Y21718324D01*
X-2000000Y21701345D01*
X-1827608Y21718324D01*
X-1661841Y21768609D01*
X-1509069Y21850268D01*
X-1375162Y21960162D01*
X-1265268Y22094068D01*
X-1183609Y22246840D01*
X-1133324Y22412607D01*
X-1120600Y22541798D01*
X-1120600Y23178202D01*
X-1133324Y23307393D01*
X-1170035Y23428412D01*
X-990437Y23608010D01*
X2662992Y23608010D01*
X3095245Y23175757D01*
X3065551Y23163457D01*
X2970654Y23100049D01*
X2889951Y23019346D01*
X2826543Y22924449D01*
X2782866Y22819005D01*
X2760600Y22707066D01*
X2760600Y22607153D01*
X2265438Y22111990D01*
X-968781Y22111990D01*
X-987410Y22113825D01*
X-1006039Y22111990D01*
X-1006042Y22111990D01*
X-1061785Y22106500D01*
X-1106729Y22092866D01*
X-1133303Y22084805D01*
X-1159878Y22070600D01*
X-1199213Y22049575D01*
X-1256984Y22002164D01*
X-1268860Y21987693D01*
X-3620600Y19635952D01*
X-3620600Y21790653D01*
X-3509069Y21850268D01*
X-3375162Y21960162D01*
X-3265268Y22094068D01*
X-3183609Y22246840D01*
X-3133324Y22412607D01*
X-3120600Y22541798D01*
X-3120600Y23178202D01*
X-3133324Y23307393D01*
X-3183609Y23473160D01*
X-3255688Y23608010D01*
X-3009562Y23608010D01*
X-2829965Y23428413D01*
M02*
