G04 #@! TF.GenerationSoftware,KiCad,Pcbnew,(5.1.4)-1*
G04 #@! TF.CreationDate,2020-10-23T12:06:06-10:00*
G04 #@! TF.ProjectId,SkateLightLEDBoard,536b6174-654c-4696-9768-744c4544426f,rev?*
G04 #@! TF.SameCoordinates,Original*
G04 #@! TF.FileFunction,Legend,Bot*
G04 #@! TF.FilePolarity,Positive*
%FSLAX46Y46*%
G04 Gerber Fmt 4.6, Leading zero omitted, Abs format (unit mm)*
G04 Created by KiCad (PCBNEW (5.1.4)-1) date 2020-10-23 12:06:06*
%MOMM*%
%LPD*%
G04 APERTURE LIST*
%ADD10C,0.127000*%
%ADD11C,0.120000*%
G04 APERTURE END LIST*
D10*
X-21626285Y3791857D02*
X-22388285Y3791857D01*
X-22388285Y3610428D01*
X-22352000Y3501571D01*
X-22279428Y3429000D01*
X-22206857Y3392714D01*
X-22061714Y3356428D01*
X-21952857Y3356428D01*
X-21807714Y3392714D01*
X-21735142Y3429000D01*
X-21662571Y3501571D01*
X-21626285Y3610428D01*
X-21626285Y3791857D01*
X-21844000Y3066142D02*
X-21844000Y2703285D01*
X-21626285Y3138714D02*
X-22388285Y2884714D01*
X-21626285Y2630714D01*
X-21626285Y1397000D02*
X-21626285Y1832428D01*
X-21626285Y1614714D02*
X-22388285Y1614714D01*
X-22279428Y1687285D01*
X-22206857Y1759857D01*
X-22170571Y1832428D01*
X-22388285Y925285D02*
X-22388285Y852714D01*
X-22352000Y780142D01*
X-22315714Y743857D01*
X-22243142Y707571D01*
X-22098000Y671285D01*
X-21916571Y671285D01*
X-21771428Y707571D01*
X-21698857Y743857D01*
X-21662571Y780142D01*
X-21626285Y852714D01*
X-21626285Y925285D01*
X-21662571Y997857D01*
X-21698857Y1034142D01*
X-21771428Y1070428D01*
X-21916571Y1106714D01*
X-22098000Y1106714D01*
X-22243142Y1070428D01*
X-22315714Y1034142D01*
X-22352000Y997857D01*
X-22388285Y925285D01*
X-22424571Y-199571D02*
X-21444857Y453571D01*
X-22315714Y-417285D02*
X-22352000Y-453571D01*
X-22388285Y-526142D01*
X-22388285Y-707571D01*
X-22352000Y-780142D01*
X-22315714Y-816428D01*
X-22243142Y-852714D01*
X-22170571Y-852714D01*
X-22061714Y-816428D01*
X-21626285Y-381000D01*
X-21626285Y-852714D01*
X-22388285Y-1106714D02*
X-22388285Y-1578428D01*
X-22098000Y-1324428D01*
X-22098000Y-1433285D01*
X-22061714Y-1505857D01*
X-22025428Y-1542142D01*
X-21952857Y-1578428D01*
X-21771428Y-1578428D01*
X-21698857Y-1542142D01*
X-21662571Y-1505857D01*
X-21626285Y-1433285D01*
X-21626285Y-1215571D01*
X-21662571Y-1143000D01*
X-21698857Y-1106714D01*
X-22424571Y-2449285D02*
X-21444857Y-1796142D01*
X-22315714Y-2667000D02*
X-22352000Y-2703285D01*
X-22388285Y-2775857D01*
X-22388285Y-2957285D01*
X-22352000Y-3029857D01*
X-22315714Y-3066142D01*
X-22243142Y-3102428D01*
X-22170571Y-3102428D01*
X-22061714Y-3066142D01*
X-21626285Y-2630714D01*
X-21626285Y-3102428D01*
X-22388285Y-3574142D02*
X-22388285Y-3646714D01*
X-22352000Y-3719285D01*
X-22315714Y-3755571D01*
X-22243142Y-3791857D01*
X-22098000Y-3828142D01*
X-21916571Y-3828142D01*
X-21771428Y-3791857D01*
X-21698857Y-3755571D01*
X-21662571Y-3719285D01*
X-21626285Y-3646714D01*
X-21626285Y-3574142D01*
X-21662571Y-3501571D01*
X-21698857Y-3465285D01*
X-21771428Y-3429000D01*
X-21916571Y-3392714D01*
X-22098000Y-3392714D01*
X-22243142Y-3429000D01*
X-22315714Y-3465285D01*
X-22352000Y-3501571D01*
X-22388285Y-3574142D01*
D11*
X22760000Y-6250000D02*
X10260000Y-6250000D01*
X10260000Y-6250000D02*
X10260000Y6250000D01*
X10260000Y6250000D02*
X22760000Y6250000D01*
X22760000Y6250000D02*
X22760000Y-6250000D01*
X-10260000Y6250000D02*
X-10260000Y-6250000D01*
X-22760000Y6250000D02*
X-10260000Y6250000D01*
X-22760000Y-6250000D02*
X-22760000Y6250000D01*
X-10260000Y-6250000D02*
X-22760000Y-6250000D01*
X6250000Y-6250000D02*
X-6250000Y-6250000D01*
X6250000Y6250000D02*
X6250000Y-6250000D01*
X-6250000Y6250000D02*
X6250000Y6250000D01*
X-6250000Y-6250000D02*
X-6250000Y6250000D01*
X10033000Y-2540000D02*
X10033000Y2540000D01*
X6477000Y-2540000D02*
X10033000Y-2540000D01*
X6477000Y2540000D02*
X6477000Y-2540000D01*
X10033000Y2540000D02*
X6477000Y2540000D01*
X-6477000Y-2540000D02*
X-6477000Y2540000D01*
X-10033000Y-2540000D02*
X-6477000Y-2540000D01*
X-10033000Y2540000D02*
X-10033000Y-2540000D01*
X-6477000Y2540000D02*
X-10033000Y2540000D01*
M02*
