G04 #@! TF.GenerationSoftware,KiCad,Pcbnew,(5.1.4)-1*
G04 #@! TF.CreationDate,2020-10-23T12:06:06-10:00*
G04 #@! TF.ProjectId,SkateLightLEDBoard,536b6174-654c-4696-9768-744c4544426f,rev?*
G04 #@! TF.SameCoordinates,Original*
G04 #@! TF.FileFunction,Copper,L1,Top*
G04 #@! TF.FilePolarity,Positive*
%FSLAX46Y46*%
G04 Gerber Fmt 4.6, Leading zero omitted, Abs format (unit mm)*
G04 Created by KiCad (PCBNEW (5.1.4)-1) date 2020-10-23 12:06:06*
%MOMM*%
%LPD*%
G04 APERTURE LIST*
%ADD10C,1.800000*%
%ADD11C,1.016000*%
%ADD12C,2.921000*%
%ADD13C,0.800000*%
%ADD14C,0.100000*%
%ADD15C,0.590000*%
%ADD16C,0.875000*%
%ADD17C,0.600000*%
%ADD18C,0.350000*%
%ADD19C,0.200000*%
%ADD20C,0.500000*%
%ADD21C,1.000000*%
%ADD22C,0.152400*%
G04 APERTURE END LIST*
D10*
X12087000Y-4423000D03*
X20933000Y4423000D03*
X-12087000Y4423000D03*
X-20933000Y-4423000D03*
X4423000Y-4423000D03*
X-4423000Y4423000D03*
D11*
X7620000Y-1905000D03*
X8890000Y-1905000D03*
X7620000Y-635000D03*
X8890000Y-635000D03*
X7620000Y635000D03*
X8890000Y635000D03*
X7620000Y1905000D03*
X8890000Y1905000D03*
D12*
X8255000Y-4953000D03*
X8255000Y4953000D03*
X-8255000Y-4953000D03*
X-8255000Y4953000D03*
D11*
X-8890000Y-1905000D03*
X-7620000Y-1905000D03*
X-8890000Y-635000D03*
X-7620000Y-635000D03*
X-8890000Y635000D03*
X-7620000Y635000D03*
X-8890000Y1905000D03*
X-7620000Y1905000D03*
D12*
X23812500Y5207000D03*
X23812500Y-5207000D03*
X-23812500Y5207000D03*
X-23812500Y-5207000D03*
D13*
X-11230893Y-5279107D03*
D14*
G36*
X-11831934Y-5243752D02*
G01*
X-11266248Y-4678066D01*
X-10629852Y-5314462D01*
X-11195538Y-5880148D01*
X-11831934Y-5243752D01*
X-11831934Y-5243752D01*
G37*
D13*
X-13316858Y-4536645D03*
D14*
G36*
X-13917899Y-4501290D02*
G01*
X-13352213Y-3935604D01*
X-12715817Y-4572000D01*
X-13281503Y-5137686D01*
X-13917899Y-4501290D01*
X-13917899Y-4501290D01*
G37*
D13*
X-11973355Y-3193142D03*
D14*
G36*
X-12574396Y-3157787D02*
G01*
X-12008710Y-2592101D01*
X-11372314Y-3228497D01*
X-11938000Y-3794183D01*
X-12574396Y-3157787D01*
X-12574396Y-3157787D01*
G37*
D13*
X11230893Y5152107D03*
D14*
G36*
X11831934Y5116752D02*
G01*
X11266248Y4551066D01*
X10629852Y5187462D01*
X11195538Y5753148D01*
X11831934Y5116752D01*
X11831934Y5116752D01*
G37*
D13*
X13316858Y4409645D03*
D14*
G36*
X13917899Y4374290D02*
G01*
X13352213Y3808604D01*
X12715817Y4445000D01*
X13281503Y5010686D01*
X13917899Y4374290D01*
X13917899Y4374290D01*
G37*
D13*
X11973355Y3066142D03*
D14*
G36*
X12574396Y3030787D02*
G01*
X12008710Y2465101D01*
X11372314Y3101497D01*
X11938000Y3667183D01*
X12574396Y3030787D01*
X12574396Y3030787D01*
G37*
G36*
X-5093702Y352850D02*
G01*
X-5079384Y350726D01*
X-5065343Y347209D01*
X-5051714Y342332D01*
X-5038629Y336143D01*
X-5026213Y328702D01*
X-5014587Y320079D01*
X-5003862Y310358D01*
X-4994141Y299633D01*
X-4985518Y288007D01*
X-4978077Y275591D01*
X-4971888Y262506D01*
X-4967011Y248877D01*
X-4963494Y234836D01*
X-4961370Y220518D01*
X-4960660Y206060D01*
X-4960660Y-88940D01*
X-4961370Y-103398D01*
X-4963494Y-117716D01*
X-4967011Y-131757D01*
X-4971888Y-145386D01*
X-4978077Y-158471D01*
X-4985518Y-170887D01*
X-4994141Y-182513D01*
X-5003862Y-193238D01*
X-5014587Y-202959D01*
X-5026213Y-211582D01*
X-5038629Y-219023D01*
X-5051714Y-225212D01*
X-5065343Y-230089D01*
X-5079384Y-233606D01*
X-5093702Y-235730D01*
X-5108160Y-236440D01*
X-5453160Y-236440D01*
X-5467618Y-235730D01*
X-5481936Y-233606D01*
X-5495977Y-230089D01*
X-5509606Y-225212D01*
X-5522691Y-219023D01*
X-5535107Y-211582D01*
X-5546733Y-202959D01*
X-5557458Y-193238D01*
X-5567179Y-182513D01*
X-5575802Y-170887D01*
X-5583243Y-158471D01*
X-5589432Y-145386D01*
X-5594309Y-131757D01*
X-5597826Y-117716D01*
X-5599950Y-103398D01*
X-5600660Y-88940D01*
X-5600660Y206060D01*
X-5599950Y220518D01*
X-5597826Y234836D01*
X-5594309Y248877D01*
X-5589432Y262506D01*
X-5583243Y275591D01*
X-5575802Y288007D01*
X-5567179Y299633D01*
X-5557458Y310358D01*
X-5546733Y320079D01*
X-5535107Y328702D01*
X-5522691Y336143D01*
X-5509606Y342332D01*
X-5495977Y347209D01*
X-5481936Y350726D01*
X-5467618Y352850D01*
X-5453160Y353560D01*
X-5108160Y353560D01*
X-5093702Y352850D01*
X-5093702Y352850D01*
G37*
D15*
X-5280660Y58560D03*
D14*
G36*
X-5093702Y1322850D02*
G01*
X-5079384Y1320726D01*
X-5065343Y1317209D01*
X-5051714Y1312332D01*
X-5038629Y1306143D01*
X-5026213Y1298702D01*
X-5014587Y1290079D01*
X-5003862Y1280358D01*
X-4994141Y1269633D01*
X-4985518Y1258007D01*
X-4978077Y1245591D01*
X-4971888Y1232506D01*
X-4967011Y1218877D01*
X-4963494Y1204836D01*
X-4961370Y1190518D01*
X-4960660Y1176060D01*
X-4960660Y881060D01*
X-4961370Y866602D01*
X-4963494Y852284D01*
X-4967011Y838243D01*
X-4971888Y824614D01*
X-4978077Y811529D01*
X-4985518Y799113D01*
X-4994141Y787487D01*
X-5003862Y776762D01*
X-5014587Y767041D01*
X-5026213Y758418D01*
X-5038629Y750977D01*
X-5051714Y744788D01*
X-5065343Y739911D01*
X-5079384Y736394D01*
X-5093702Y734270D01*
X-5108160Y733560D01*
X-5453160Y733560D01*
X-5467618Y734270D01*
X-5481936Y736394D01*
X-5495977Y739911D01*
X-5509606Y744788D01*
X-5522691Y750977D01*
X-5535107Y758418D01*
X-5546733Y767041D01*
X-5557458Y776762D01*
X-5567179Y787487D01*
X-5575802Y799113D01*
X-5583243Y811529D01*
X-5589432Y824614D01*
X-5594309Y838243D01*
X-5597826Y852284D01*
X-5599950Y866602D01*
X-5600660Y881060D01*
X-5600660Y1176060D01*
X-5599950Y1190518D01*
X-5597826Y1204836D01*
X-5594309Y1218877D01*
X-5589432Y1232506D01*
X-5583243Y1245591D01*
X-5575802Y1258007D01*
X-5567179Y1269633D01*
X-5557458Y1280358D01*
X-5546733Y1290079D01*
X-5535107Y1298702D01*
X-5522691Y1306143D01*
X-5509606Y1312332D01*
X-5495977Y1317209D01*
X-5481936Y1320726D01*
X-5467618Y1322850D01*
X-5453160Y1323560D01*
X-5108160Y1323560D01*
X-5093702Y1322850D01*
X-5093702Y1322850D01*
G37*
D15*
X-5280660Y1028560D03*
D14*
G36*
X-6109702Y1322850D02*
G01*
X-6095384Y1320726D01*
X-6081343Y1317209D01*
X-6067714Y1312332D01*
X-6054629Y1306143D01*
X-6042213Y1298702D01*
X-6030587Y1290079D01*
X-6019862Y1280358D01*
X-6010141Y1269633D01*
X-6001518Y1258007D01*
X-5994077Y1245591D01*
X-5987888Y1232506D01*
X-5983011Y1218877D01*
X-5979494Y1204836D01*
X-5977370Y1190518D01*
X-5976660Y1176060D01*
X-5976660Y881060D01*
X-5977370Y866602D01*
X-5979494Y852284D01*
X-5983011Y838243D01*
X-5987888Y824614D01*
X-5994077Y811529D01*
X-6001518Y799113D01*
X-6010141Y787487D01*
X-6019862Y776762D01*
X-6030587Y767041D01*
X-6042213Y758418D01*
X-6054629Y750977D01*
X-6067714Y744788D01*
X-6081343Y739911D01*
X-6095384Y736394D01*
X-6109702Y734270D01*
X-6124160Y733560D01*
X-6469160Y733560D01*
X-6483618Y734270D01*
X-6497936Y736394D01*
X-6511977Y739911D01*
X-6525606Y744788D01*
X-6538691Y750977D01*
X-6551107Y758418D01*
X-6562733Y767041D01*
X-6573458Y776762D01*
X-6583179Y787487D01*
X-6591802Y799113D01*
X-6599243Y811529D01*
X-6605432Y824614D01*
X-6610309Y838243D01*
X-6613826Y852284D01*
X-6615950Y866602D01*
X-6616660Y881060D01*
X-6616660Y1176060D01*
X-6615950Y1190518D01*
X-6613826Y1204836D01*
X-6610309Y1218877D01*
X-6605432Y1232506D01*
X-6599243Y1245591D01*
X-6591802Y1258007D01*
X-6583179Y1269633D01*
X-6573458Y1280358D01*
X-6562733Y1290079D01*
X-6551107Y1298702D01*
X-6538691Y1306143D01*
X-6525606Y1312332D01*
X-6511977Y1317209D01*
X-6497936Y1320726D01*
X-6483618Y1322850D01*
X-6469160Y1323560D01*
X-6124160Y1323560D01*
X-6109702Y1322850D01*
X-6109702Y1322850D01*
G37*
D15*
X-6296660Y1028560D03*
D14*
G36*
X-6109702Y352850D02*
G01*
X-6095384Y350726D01*
X-6081343Y347209D01*
X-6067714Y342332D01*
X-6054629Y336143D01*
X-6042213Y328702D01*
X-6030587Y320079D01*
X-6019862Y310358D01*
X-6010141Y299633D01*
X-6001518Y288007D01*
X-5994077Y275591D01*
X-5987888Y262506D01*
X-5983011Y248877D01*
X-5979494Y234836D01*
X-5977370Y220518D01*
X-5976660Y206060D01*
X-5976660Y-88940D01*
X-5977370Y-103398D01*
X-5979494Y-117716D01*
X-5983011Y-131757D01*
X-5987888Y-145386D01*
X-5994077Y-158471D01*
X-6001518Y-170887D01*
X-6010141Y-182513D01*
X-6019862Y-193238D01*
X-6030587Y-202959D01*
X-6042213Y-211582D01*
X-6054629Y-219023D01*
X-6067714Y-225212D01*
X-6081343Y-230089D01*
X-6095384Y-233606D01*
X-6109702Y-235730D01*
X-6124160Y-236440D01*
X-6469160Y-236440D01*
X-6483618Y-235730D01*
X-6497936Y-233606D01*
X-6511977Y-230089D01*
X-6525606Y-225212D01*
X-6538691Y-219023D01*
X-6551107Y-211582D01*
X-6562733Y-202959D01*
X-6573458Y-193238D01*
X-6583179Y-182513D01*
X-6591802Y-170887D01*
X-6599243Y-158471D01*
X-6605432Y-145386D01*
X-6610309Y-131757D01*
X-6613826Y-117716D01*
X-6615950Y-103398D01*
X-6616660Y-88940D01*
X-6616660Y206060D01*
X-6615950Y220518D01*
X-6613826Y234836D01*
X-6610309Y248877D01*
X-6605432Y262506D01*
X-6599243Y275591D01*
X-6591802Y288007D01*
X-6583179Y299633D01*
X-6573458Y310358D01*
X-6562733Y320079D01*
X-6551107Y328702D01*
X-6538691Y336143D01*
X-6525606Y342332D01*
X-6511977Y347209D01*
X-6497936Y350726D01*
X-6483618Y352850D01*
X-6469160Y353560D01*
X-6124160Y353560D01*
X-6109702Y352850D01*
X-6109702Y352850D01*
G37*
D15*
X-6296660Y58560D03*
D14*
G36*
X-10072809Y-351053D02*
G01*
X-10051574Y-354203D01*
X-10030750Y-359419D01*
X-10010538Y-366651D01*
X-9991132Y-375830D01*
X-9972719Y-386866D01*
X-9955476Y-399654D01*
X-9939570Y-414070D01*
X-9925154Y-429976D01*
X-9912366Y-447219D01*
X-9901330Y-465632D01*
X-9892151Y-485038D01*
X-9884919Y-505250D01*
X-9879703Y-526074D01*
X-9876553Y-547309D01*
X-9875500Y-568750D01*
X-9875500Y-1006250D01*
X-9876553Y-1027691D01*
X-9879703Y-1048926D01*
X-9884919Y-1069750D01*
X-9892151Y-1089962D01*
X-9901330Y-1109368D01*
X-9912366Y-1127781D01*
X-9925154Y-1145024D01*
X-9939570Y-1160930D01*
X-9955476Y-1175346D01*
X-9972719Y-1188134D01*
X-9991132Y-1199170D01*
X-10010538Y-1208349D01*
X-10030750Y-1215581D01*
X-10051574Y-1220797D01*
X-10072809Y-1223947D01*
X-10094250Y-1225000D01*
X-10606750Y-1225000D01*
X-10628191Y-1223947D01*
X-10649426Y-1220797D01*
X-10670250Y-1215581D01*
X-10690462Y-1208349D01*
X-10709868Y-1199170D01*
X-10728281Y-1188134D01*
X-10745524Y-1175346D01*
X-10761430Y-1160930D01*
X-10775846Y-1145024D01*
X-10788634Y-1127781D01*
X-10799670Y-1109368D01*
X-10808849Y-1089962D01*
X-10816081Y-1069750D01*
X-10821297Y-1048926D01*
X-10824447Y-1027691D01*
X-10825500Y-1006250D01*
X-10825500Y-568750D01*
X-10824447Y-547309D01*
X-10821297Y-526074D01*
X-10816081Y-505250D01*
X-10808849Y-485038D01*
X-10799670Y-465632D01*
X-10788634Y-447219D01*
X-10775846Y-429976D01*
X-10761430Y-414070D01*
X-10745524Y-399654D01*
X-10728281Y-386866D01*
X-10709868Y-375830D01*
X-10690462Y-366651D01*
X-10670250Y-359419D01*
X-10649426Y-354203D01*
X-10628191Y-351053D01*
X-10606750Y-350000D01*
X-10094250Y-350000D01*
X-10072809Y-351053D01*
X-10072809Y-351053D01*
G37*
D16*
X-10350500Y-787500D03*
D14*
G36*
X-10072809Y1223947D02*
G01*
X-10051574Y1220797D01*
X-10030750Y1215581D01*
X-10010538Y1208349D01*
X-9991132Y1199170D01*
X-9972719Y1188134D01*
X-9955476Y1175346D01*
X-9939570Y1160930D01*
X-9925154Y1145024D01*
X-9912366Y1127781D01*
X-9901330Y1109368D01*
X-9892151Y1089962D01*
X-9884919Y1069750D01*
X-9879703Y1048926D01*
X-9876553Y1027691D01*
X-9875500Y1006250D01*
X-9875500Y568750D01*
X-9876553Y547309D01*
X-9879703Y526074D01*
X-9884919Y505250D01*
X-9892151Y485038D01*
X-9901330Y465632D01*
X-9912366Y447219D01*
X-9925154Y429976D01*
X-9939570Y414070D01*
X-9955476Y399654D01*
X-9972719Y386866D01*
X-9991132Y375830D01*
X-10010538Y366651D01*
X-10030750Y359419D01*
X-10051574Y354203D01*
X-10072809Y351053D01*
X-10094250Y350000D01*
X-10606750Y350000D01*
X-10628191Y351053D01*
X-10649426Y354203D01*
X-10670250Y359419D01*
X-10690462Y366651D01*
X-10709868Y375830D01*
X-10728281Y386866D01*
X-10745524Y399654D01*
X-10761430Y414070D01*
X-10775846Y429976D01*
X-10788634Y447219D01*
X-10799670Y465632D01*
X-10808849Y485038D01*
X-10816081Y505250D01*
X-10821297Y526074D01*
X-10824447Y547309D01*
X-10825500Y568750D01*
X-10825500Y1006250D01*
X-10824447Y1027691D01*
X-10821297Y1048926D01*
X-10816081Y1069750D01*
X-10808849Y1089962D01*
X-10799670Y1109368D01*
X-10788634Y1127781D01*
X-10775846Y1145024D01*
X-10761430Y1160930D01*
X-10745524Y1175346D01*
X-10728281Y1188134D01*
X-10709868Y1199170D01*
X-10690462Y1208349D01*
X-10670250Y1215581D01*
X-10649426Y1220797D01*
X-10628191Y1223947D01*
X-10606750Y1225000D01*
X-10094250Y1225000D01*
X-10072809Y1223947D01*
X-10072809Y1223947D01*
G37*
D16*
X-10350500Y787500D03*
D14*
G36*
X10628191Y-351053D02*
G01*
X10649426Y-354203D01*
X10670250Y-359419D01*
X10690462Y-366651D01*
X10709868Y-375830D01*
X10728281Y-386866D01*
X10745524Y-399654D01*
X10761430Y-414070D01*
X10775846Y-429976D01*
X10788634Y-447219D01*
X10799670Y-465632D01*
X10808849Y-485038D01*
X10816081Y-505250D01*
X10821297Y-526074D01*
X10824447Y-547309D01*
X10825500Y-568750D01*
X10825500Y-1006250D01*
X10824447Y-1027691D01*
X10821297Y-1048926D01*
X10816081Y-1069750D01*
X10808849Y-1089962D01*
X10799670Y-1109368D01*
X10788634Y-1127781D01*
X10775846Y-1145024D01*
X10761430Y-1160930D01*
X10745524Y-1175346D01*
X10728281Y-1188134D01*
X10709868Y-1199170D01*
X10690462Y-1208349D01*
X10670250Y-1215581D01*
X10649426Y-1220797D01*
X10628191Y-1223947D01*
X10606750Y-1225000D01*
X10094250Y-1225000D01*
X10072809Y-1223947D01*
X10051574Y-1220797D01*
X10030750Y-1215581D01*
X10010538Y-1208349D01*
X9991132Y-1199170D01*
X9972719Y-1188134D01*
X9955476Y-1175346D01*
X9939570Y-1160930D01*
X9925154Y-1145024D01*
X9912366Y-1127781D01*
X9901330Y-1109368D01*
X9892151Y-1089962D01*
X9884919Y-1069750D01*
X9879703Y-1048926D01*
X9876553Y-1027691D01*
X9875500Y-1006250D01*
X9875500Y-568750D01*
X9876553Y-547309D01*
X9879703Y-526074D01*
X9884919Y-505250D01*
X9892151Y-485038D01*
X9901330Y-465632D01*
X9912366Y-447219D01*
X9925154Y-429976D01*
X9939570Y-414070D01*
X9955476Y-399654D01*
X9972719Y-386866D01*
X9991132Y-375830D01*
X10010538Y-366651D01*
X10030750Y-359419D01*
X10051574Y-354203D01*
X10072809Y-351053D01*
X10094250Y-350000D01*
X10606750Y-350000D01*
X10628191Y-351053D01*
X10628191Y-351053D01*
G37*
D16*
X10350500Y-787500D03*
D14*
G36*
X10628191Y1223947D02*
G01*
X10649426Y1220797D01*
X10670250Y1215581D01*
X10690462Y1208349D01*
X10709868Y1199170D01*
X10728281Y1188134D01*
X10745524Y1175346D01*
X10761430Y1160930D01*
X10775846Y1145024D01*
X10788634Y1127781D01*
X10799670Y1109368D01*
X10808849Y1089962D01*
X10816081Y1069750D01*
X10821297Y1048926D01*
X10824447Y1027691D01*
X10825500Y1006250D01*
X10825500Y568750D01*
X10824447Y547309D01*
X10821297Y526074D01*
X10816081Y505250D01*
X10808849Y485038D01*
X10799670Y465632D01*
X10788634Y447219D01*
X10775846Y429976D01*
X10761430Y414070D01*
X10745524Y399654D01*
X10728281Y386866D01*
X10709868Y375830D01*
X10690462Y366651D01*
X10670250Y359419D01*
X10649426Y354203D01*
X10628191Y351053D01*
X10606750Y350000D01*
X10094250Y350000D01*
X10072809Y351053D01*
X10051574Y354203D01*
X10030750Y359419D01*
X10010538Y366651D01*
X9991132Y375830D01*
X9972719Y386866D01*
X9955476Y399654D01*
X9939570Y414070D01*
X9925154Y429976D01*
X9912366Y447219D01*
X9901330Y465632D01*
X9892151Y485038D01*
X9884919Y505250D01*
X9879703Y526074D01*
X9876553Y547309D01*
X9875500Y568750D01*
X9875500Y1006250D01*
X9876553Y1027691D01*
X9879703Y1048926D01*
X9884919Y1069750D01*
X9892151Y1089962D01*
X9901330Y1109368D01*
X9912366Y1127781D01*
X9925154Y1145024D01*
X9939570Y1160930D01*
X9955476Y1175346D01*
X9972719Y1188134D01*
X9991132Y1199170D01*
X10010538Y1208349D01*
X10030750Y1215581D01*
X10051574Y1220797D01*
X10072809Y1223947D01*
X10094250Y1225000D01*
X10606750Y1225000D01*
X10628191Y1223947D01*
X10628191Y1223947D01*
G37*
D16*
X10350500Y787500D03*
D14*
G36*
X-10864042Y2351290D02*
G01*
X-10849724Y2349166D01*
X-10835683Y2345649D01*
X-10822054Y2340772D01*
X-10808969Y2334583D01*
X-10796553Y2327142D01*
X-10784927Y2318519D01*
X-10774202Y2308798D01*
X-10764481Y2298073D01*
X-10755858Y2286447D01*
X-10748417Y2274031D01*
X-10742228Y2260946D01*
X-10737351Y2247317D01*
X-10733834Y2233276D01*
X-10731710Y2218958D01*
X-10731000Y2204500D01*
X-10731000Y1859500D01*
X-10731710Y1845042D01*
X-10733834Y1830724D01*
X-10737351Y1816683D01*
X-10742228Y1803054D01*
X-10748417Y1789969D01*
X-10755858Y1777553D01*
X-10764481Y1765927D01*
X-10774202Y1755202D01*
X-10784927Y1745481D01*
X-10796553Y1736858D01*
X-10808969Y1729417D01*
X-10822054Y1723228D01*
X-10835683Y1718351D01*
X-10849724Y1714834D01*
X-10864042Y1712710D01*
X-10878500Y1712000D01*
X-11173500Y1712000D01*
X-11187958Y1712710D01*
X-11202276Y1714834D01*
X-11216317Y1718351D01*
X-11229946Y1723228D01*
X-11243031Y1729417D01*
X-11255447Y1736858D01*
X-11267073Y1745481D01*
X-11277798Y1755202D01*
X-11287519Y1765927D01*
X-11296142Y1777553D01*
X-11303583Y1789969D01*
X-11309772Y1803054D01*
X-11314649Y1816683D01*
X-11318166Y1830724D01*
X-11320290Y1845042D01*
X-11321000Y1859500D01*
X-11321000Y2204500D01*
X-11320290Y2218958D01*
X-11318166Y2233276D01*
X-11314649Y2247317D01*
X-11309772Y2260946D01*
X-11303583Y2274031D01*
X-11296142Y2286447D01*
X-11287519Y2298073D01*
X-11277798Y2308798D01*
X-11267073Y2318519D01*
X-11255447Y2327142D01*
X-11243031Y2334583D01*
X-11229946Y2340772D01*
X-11216317Y2345649D01*
X-11202276Y2349166D01*
X-11187958Y2351290D01*
X-11173500Y2352000D01*
X-10878500Y2352000D01*
X-10864042Y2351290D01*
X-10864042Y2351290D01*
G37*
D15*
X-11026000Y2032000D03*
D14*
G36*
X-9894042Y2351290D02*
G01*
X-9879724Y2349166D01*
X-9865683Y2345649D01*
X-9852054Y2340772D01*
X-9838969Y2334583D01*
X-9826553Y2327142D01*
X-9814927Y2318519D01*
X-9804202Y2308798D01*
X-9794481Y2298073D01*
X-9785858Y2286447D01*
X-9778417Y2274031D01*
X-9772228Y2260946D01*
X-9767351Y2247317D01*
X-9763834Y2233276D01*
X-9761710Y2218958D01*
X-9761000Y2204500D01*
X-9761000Y1859500D01*
X-9761710Y1845042D01*
X-9763834Y1830724D01*
X-9767351Y1816683D01*
X-9772228Y1803054D01*
X-9778417Y1789969D01*
X-9785858Y1777553D01*
X-9794481Y1765927D01*
X-9804202Y1755202D01*
X-9814927Y1745481D01*
X-9826553Y1736858D01*
X-9838969Y1729417D01*
X-9852054Y1723228D01*
X-9865683Y1718351D01*
X-9879724Y1714834D01*
X-9894042Y1712710D01*
X-9908500Y1712000D01*
X-10203500Y1712000D01*
X-10217958Y1712710D01*
X-10232276Y1714834D01*
X-10246317Y1718351D01*
X-10259946Y1723228D01*
X-10273031Y1729417D01*
X-10285447Y1736858D01*
X-10297073Y1745481D01*
X-10307798Y1755202D01*
X-10317519Y1765927D01*
X-10326142Y1777553D01*
X-10333583Y1789969D01*
X-10339772Y1803054D01*
X-10344649Y1816683D01*
X-10348166Y1830724D01*
X-10350290Y1845042D01*
X-10351000Y1859500D01*
X-10351000Y2204500D01*
X-10350290Y2218958D01*
X-10348166Y2233276D01*
X-10344649Y2247317D01*
X-10339772Y2260946D01*
X-10333583Y2274031D01*
X-10326142Y2286447D01*
X-10317519Y2298073D01*
X-10307798Y2308798D01*
X-10297073Y2318519D01*
X-10285447Y2327142D01*
X-10273031Y2334583D01*
X-10259946Y2340772D01*
X-10246317Y2345649D01*
X-10232276Y2349166D01*
X-10217958Y2351290D01*
X-10203500Y2352000D01*
X-9908500Y2352000D01*
X-9894042Y2351290D01*
X-9894042Y2351290D01*
G37*
D15*
X-10056000Y2032000D03*
D14*
G36*
X10217958Y-1712710D02*
G01*
X10232276Y-1714834D01*
X10246317Y-1718351D01*
X10259946Y-1723228D01*
X10273031Y-1729417D01*
X10285447Y-1736858D01*
X10297073Y-1745481D01*
X10307798Y-1755202D01*
X10317519Y-1765927D01*
X10326142Y-1777553D01*
X10333583Y-1789969D01*
X10339772Y-1803054D01*
X10344649Y-1816683D01*
X10348166Y-1830724D01*
X10350290Y-1845042D01*
X10351000Y-1859500D01*
X10351000Y-2204500D01*
X10350290Y-2218958D01*
X10348166Y-2233276D01*
X10344649Y-2247317D01*
X10339772Y-2260946D01*
X10333583Y-2274031D01*
X10326142Y-2286447D01*
X10317519Y-2298073D01*
X10307798Y-2308798D01*
X10297073Y-2318519D01*
X10285447Y-2327142D01*
X10273031Y-2334583D01*
X10259946Y-2340772D01*
X10246317Y-2345649D01*
X10232276Y-2349166D01*
X10217958Y-2351290D01*
X10203500Y-2352000D01*
X9908500Y-2352000D01*
X9894042Y-2351290D01*
X9879724Y-2349166D01*
X9865683Y-2345649D01*
X9852054Y-2340772D01*
X9838969Y-2334583D01*
X9826553Y-2327142D01*
X9814927Y-2318519D01*
X9804202Y-2308798D01*
X9794481Y-2298073D01*
X9785858Y-2286447D01*
X9778417Y-2274031D01*
X9772228Y-2260946D01*
X9767351Y-2247317D01*
X9763834Y-2233276D01*
X9761710Y-2218958D01*
X9761000Y-2204500D01*
X9761000Y-1859500D01*
X9761710Y-1845042D01*
X9763834Y-1830724D01*
X9767351Y-1816683D01*
X9772228Y-1803054D01*
X9778417Y-1789969D01*
X9785858Y-1777553D01*
X9794481Y-1765927D01*
X9804202Y-1755202D01*
X9814927Y-1745481D01*
X9826553Y-1736858D01*
X9838969Y-1729417D01*
X9852054Y-1723228D01*
X9865683Y-1718351D01*
X9879724Y-1714834D01*
X9894042Y-1712710D01*
X9908500Y-1712000D01*
X10203500Y-1712000D01*
X10217958Y-1712710D01*
X10217958Y-1712710D01*
G37*
D15*
X10056000Y-2032000D03*
D14*
G36*
X11187958Y-1712710D02*
G01*
X11202276Y-1714834D01*
X11216317Y-1718351D01*
X11229946Y-1723228D01*
X11243031Y-1729417D01*
X11255447Y-1736858D01*
X11267073Y-1745481D01*
X11277798Y-1755202D01*
X11287519Y-1765927D01*
X11296142Y-1777553D01*
X11303583Y-1789969D01*
X11309772Y-1803054D01*
X11314649Y-1816683D01*
X11318166Y-1830724D01*
X11320290Y-1845042D01*
X11321000Y-1859500D01*
X11321000Y-2204500D01*
X11320290Y-2218958D01*
X11318166Y-2233276D01*
X11314649Y-2247317D01*
X11309772Y-2260946D01*
X11303583Y-2274031D01*
X11296142Y-2286447D01*
X11287519Y-2298073D01*
X11277798Y-2308798D01*
X11267073Y-2318519D01*
X11255447Y-2327142D01*
X11243031Y-2334583D01*
X11229946Y-2340772D01*
X11216317Y-2345649D01*
X11202276Y-2349166D01*
X11187958Y-2351290D01*
X11173500Y-2352000D01*
X10878500Y-2352000D01*
X10864042Y-2351290D01*
X10849724Y-2349166D01*
X10835683Y-2345649D01*
X10822054Y-2340772D01*
X10808969Y-2334583D01*
X10796553Y-2327142D01*
X10784927Y-2318519D01*
X10774202Y-2308798D01*
X10764481Y-2298073D01*
X10755858Y-2286447D01*
X10748417Y-2274031D01*
X10742228Y-2260946D01*
X10737351Y-2247317D01*
X10733834Y-2233276D01*
X10731710Y-2218958D01*
X10731000Y-2204500D01*
X10731000Y-1859500D01*
X10731710Y-1845042D01*
X10733834Y-1830724D01*
X10737351Y-1816683D01*
X10742228Y-1803054D01*
X10748417Y-1789969D01*
X10755858Y-1777553D01*
X10764481Y-1765927D01*
X10774202Y-1755202D01*
X10784927Y-1745481D01*
X10796553Y-1736858D01*
X10808969Y-1729417D01*
X10822054Y-1723228D01*
X10835683Y-1718351D01*
X10849724Y-1714834D01*
X10864042Y-1712710D01*
X10878500Y-1712000D01*
X11173500Y-1712000D01*
X11187958Y-1712710D01*
X11187958Y-1712710D01*
G37*
D15*
X11026000Y-2032000D03*
D14*
G36*
X-5093702Y-1615650D02*
G01*
X-5079384Y-1617774D01*
X-5065343Y-1621291D01*
X-5051714Y-1626168D01*
X-5038629Y-1632357D01*
X-5026213Y-1639798D01*
X-5014587Y-1648421D01*
X-5003862Y-1658142D01*
X-4994141Y-1668867D01*
X-4985518Y-1680493D01*
X-4978077Y-1692909D01*
X-4971888Y-1705994D01*
X-4967011Y-1719623D01*
X-4963494Y-1733664D01*
X-4961370Y-1747982D01*
X-4960660Y-1762440D01*
X-4960660Y-2057440D01*
X-4961370Y-2071898D01*
X-4963494Y-2086216D01*
X-4967011Y-2100257D01*
X-4971888Y-2113886D01*
X-4978077Y-2126971D01*
X-4985518Y-2139387D01*
X-4994141Y-2151013D01*
X-5003862Y-2161738D01*
X-5014587Y-2171459D01*
X-5026213Y-2180082D01*
X-5038629Y-2187523D01*
X-5051714Y-2193712D01*
X-5065343Y-2198589D01*
X-5079384Y-2202106D01*
X-5093702Y-2204230D01*
X-5108160Y-2204940D01*
X-5453160Y-2204940D01*
X-5467618Y-2204230D01*
X-5481936Y-2202106D01*
X-5495977Y-2198589D01*
X-5509606Y-2193712D01*
X-5522691Y-2187523D01*
X-5535107Y-2180082D01*
X-5546733Y-2171459D01*
X-5557458Y-2161738D01*
X-5567179Y-2151013D01*
X-5575802Y-2139387D01*
X-5583243Y-2126971D01*
X-5589432Y-2113886D01*
X-5594309Y-2100257D01*
X-5597826Y-2086216D01*
X-5599950Y-2071898D01*
X-5600660Y-2057440D01*
X-5600660Y-1762440D01*
X-5599950Y-1747982D01*
X-5597826Y-1733664D01*
X-5594309Y-1719623D01*
X-5589432Y-1705994D01*
X-5583243Y-1692909D01*
X-5575802Y-1680493D01*
X-5567179Y-1668867D01*
X-5557458Y-1658142D01*
X-5546733Y-1648421D01*
X-5535107Y-1639798D01*
X-5522691Y-1632357D01*
X-5509606Y-1626168D01*
X-5495977Y-1621291D01*
X-5481936Y-1617774D01*
X-5467618Y-1615650D01*
X-5453160Y-1614940D01*
X-5108160Y-1614940D01*
X-5093702Y-1615650D01*
X-5093702Y-1615650D01*
G37*
D15*
X-5280660Y-1909940D03*
D14*
G36*
X-5093702Y-645650D02*
G01*
X-5079384Y-647774D01*
X-5065343Y-651291D01*
X-5051714Y-656168D01*
X-5038629Y-662357D01*
X-5026213Y-669798D01*
X-5014587Y-678421D01*
X-5003862Y-688142D01*
X-4994141Y-698867D01*
X-4985518Y-710493D01*
X-4978077Y-722909D01*
X-4971888Y-735994D01*
X-4967011Y-749623D01*
X-4963494Y-763664D01*
X-4961370Y-777982D01*
X-4960660Y-792440D01*
X-4960660Y-1087440D01*
X-4961370Y-1101898D01*
X-4963494Y-1116216D01*
X-4967011Y-1130257D01*
X-4971888Y-1143886D01*
X-4978077Y-1156971D01*
X-4985518Y-1169387D01*
X-4994141Y-1181013D01*
X-5003862Y-1191738D01*
X-5014587Y-1201459D01*
X-5026213Y-1210082D01*
X-5038629Y-1217523D01*
X-5051714Y-1223712D01*
X-5065343Y-1228589D01*
X-5079384Y-1232106D01*
X-5093702Y-1234230D01*
X-5108160Y-1234940D01*
X-5453160Y-1234940D01*
X-5467618Y-1234230D01*
X-5481936Y-1232106D01*
X-5495977Y-1228589D01*
X-5509606Y-1223712D01*
X-5522691Y-1217523D01*
X-5535107Y-1210082D01*
X-5546733Y-1201459D01*
X-5557458Y-1191738D01*
X-5567179Y-1181013D01*
X-5575802Y-1169387D01*
X-5583243Y-1156971D01*
X-5589432Y-1143886D01*
X-5594309Y-1130257D01*
X-5597826Y-1116216D01*
X-5599950Y-1101898D01*
X-5600660Y-1087440D01*
X-5600660Y-792440D01*
X-5599950Y-777982D01*
X-5597826Y-763664D01*
X-5594309Y-749623D01*
X-5589432Y-735994D01*
X-5583243Y-722909D01*
X-5575802Y-710493D01*
X-5567179Y-698867D01*
X-5557458Y-688142D01*
X-5546733Y-678421D01*
X-5535107Y-669798D01*
X-5522691Y-662357D01*
X-5509606Y-656168D01*
X-5495977Y-651291D01*
X-5481936Y-647774D01*
X-5467618Y-645650D01*
X-5453160Y-644940D01*
X-5108160Y-644940D01*
X-5093702Y-645650D01*
X-5093702Y-645650D01*
G37*
D15*
X-5280660Y-939940D03*
D14*
G36*
X-6109702Y-645650D02*
G01*
X-6095384Y-647774D01*
X-6081343Y-651291D01*
X-6067714Y-656168D01*
X-6054629Y-662357D01*
X-6042213Y-669798D01*
X-6030587Y-678421D01*
X-6019862Y-688142D01*
X-6010141Y-698867D01*
X-6001518Y-710493D01*
X-5994077Y-722909D01*
X-5987888Y-735994D01*
X-5983011Y-749623D01*
X-5979494Y-763664D01*
X-5977370Y-777982D01*
X-5976660Y-792440D01*
X-5976660Y-1087440D01*
X-5977370Y-1101898D01*
X-5979494Y-1116216D01*
X-5983011Y-1130257D01*
X-5987888Y-1143886D01*
X-5994077Y-1156971D01*
X-6001518Y-1169387D01*
X-6010141Y-1181013D01*
X-6019862Y-1191738D01*
X-6030587Y-1201459D01*
X-6042213Y-1210082D01*
X-6054629Y-1217523D01*
X-6067714Y-1223712D01*
X-6081343Y-1228589D01*
X-6095384Y-1232106D01*
X-6109702Y-1234230D01*
X-6124160Y-1234940D01*
X-6469160Y-1234940D01*
X-6483618Y-1234230D01*
X-6497936Y-1232106D01*
X-6511977Y-1228589D01*
X-6525606Y-1223712D01*
X-6538691Y-1217523D01*
X-6551107Y-1210082D01*
X-6562733Y-1201459D01*
X-6573458Y-1191738D01*
X-6583179Y-1181013D01*
X-6591802Y-1169387D01*
X-6599243Y-1156971D01*
X-6605432Y-1143886D01*
X-6610309Y-1130257D01*
X-6613826Y-1116216D01*
X-6615950Y-1101898D01*
X-6616660Y-1087440D01*
X-6616660Y-792440D01*
X-6615950Y-777982D01*
X-6613826Y-763664D01*
X-6610309Y-749623D01*
X-6605432Y-735994D01*
X-6599243Y-722909D01*
X-6591802Y-710493D01*
X-6583179Y-698867D01*
X-6573458Y-688142D01*
X-6562733Y-678421D01*
X-6551107Y-669798D01*
X-6538691Y-662357D01*
X-6525606Y-656168D01*
X-6511977Y-651291D01*
X-6497936Y-647774D01*
X-6483618Y-645650D01*
X-6469160Y-644940D01*
X-6124160Y-644940D01*
X-6109702Y-645650D01*
X-6109702Y-645650D01*
G37*
D15*
X-6296660Y-939940D03*
D14*
G36*
X-6109702Y-1615650D02*
G01*
X-6095384Y-1617774D01*
X-6081343Y-1621291D01*
X-6067714Y-1626168D01*
X-6054629Y-1632357D01*
X-6042213Y-1639798D01*
X-6030587Y-1648421D01*
X-6019862Y-1658142D01*
X-6010141Y-1668867D01*
X-6001518Y-1680493D01*
X-5994077Y-1692909D01*
X-5987888Y-1705994D01*
X-5983011Y-1719623D01*
X-5979494Y-1733664D01*
X-5977370Y-1747982D01*
X-5976660Y-1762440D01*
X-5976660Y-2057440D01*
X-5977370Y-2071898D01*
X-5979494Y-2086216D01*
X-5983011Y-2100257D01*
X-5987888Y-2113886D01*
X-5994077Y-2126971D01*
X-6001518Y-2139387D01*
X-6010141Y-2151013D01*
X-6019862Y-2161738D01*
X-6030587Y-2171459D01*
X-6042213Y-2180082D01*
X-6054629Y-2187523D01*
X-6067714Y-2193712D01*
X-6081343Y-2198589D01*
X-6095384Y-2202106D01*
X-6109702Y-2204230D01*
X-6124160Y-2204940D01*
X-6469160Y-2204940D01*
X-6483618Y-2204230D01*
X-6497936Y-2202106D01*
X-6511977Y-2198589D01*
X-6525606Y-2193712D01*
X-6538691Y-2187523D01*
X-6551107Y-2180082D01*
X-6562733Y-2171459D01*
X-6573458Y-2161738D01*
X-6583179Y-2151013D01*
X-6591802Y-2139387D01*
X-6599243Y-2126971D01*
X-6605432Y-2113886D01*
X-6610309Y-2100257D01*
X-6613826Y-2086216D01*
X-6615950Y-2071898D01*
X-6616660Y-2057440D01*
X-6616660Y-1762440D01*
X-6615950Y-1747982D01*
X-6613826Y-1733664D01*
X-6610309Y-1719623D01*
X-6605432Y-1705994D01*
X-6599243Y-1692909D01*
X-6591802Y-1680493D01*
X-6583179Y-1668867D01*
X-6573458Y-1658142D01*
X-6562733Y-1648421D01*
X-6551107Y-1639798D01*
X-6538691Y-1632357D01*
X-6525606Y-1626168D01*
X-6511977Y-1621291D01*
X-6497936Y-1617774D01*
X-6483618Y-1615650D01*
X-6469160Y-1614940D01*
X-6124160Y-1614940D01*
X-6109702Y-1615650D01*
X-6109702Y-1615650D01*
G37*
D15*
X-6296660Y-1909940D03*
D17*
X-5170000Y-2000000D03*
X-4693920Y2131060D03*
X-2024380Y4871720D03*
X14340840Y-4838700D03*
X1710000Y-5810000D03*
X-5080000Y-4826000D03*
X6210000Y-1630000D03*
X6010000Y980000D03*
X11026000Y-2032000D03*
X4218940Y4970780D03*
X-13204301Y-4490862D03*
X12334240Y3954780D03*
X10764520Y4203700D03*
X12542520Y5278120D03*
X10589260Y3169920D03*
X14569440Y5069840D03*
X16520160Y5255260D03*
X18514060Y5092700D03*
X9966960Y-3807460D03*
X6479540Y-3860800D03*
X-19140000Y-5460000D03*
X-17010000Y-5760000D03*
X-14754860Y-5232400D03*
X-11980000Y-4600000D03*
X-6675120Y-3469640D03*
X11306854Y-3147411D03*
D18*
X-10056000Y1082000D02*
X-10350500Y787500D01*
X-10056000Y2032000D02*
X-10056000Y1082000D01*
X-10198000Y635000D02*
X-10350500Y787500D01*
X-8890000Y635000D02*
X-10198000Y635000D01*
D19*
X10350500Y-1737500D02*
X10056000Y-2032000D01*
X10350500Y-787500D02*
X10350500Y-1737500D01*
X9017000Y-2032000D02*
X8890000Y-1905000D01*
X10056000Y-2032000D02*
X9017000Y-2032000D01*
X-9255000Y-5522000D02*
X-9255000Y-4922000D01*
X-7255000Y-4572000D02*
X-7255000Y-5172000D01*
D20*
X22457891Y-3852391D02*
X23812500Y-5207000D01*
X22457891Y3852391D02*
X22457891Y1867891D01*
X23812500Y5207000D02*
X22457891Y3852391D01*
X23812500Y5207000D02*
X22994099Y6025401D01*
D21*
X11230893Y5152107D02*
X10807798Y5575202D01*
X8877202Y5575202D02*
X8255000Y4953000D01*
X10807798Y5575202D02*
X8877202Y5575202D01*
D19*
X-8581107Y-5279107D02*
X-8255000Y-4953000D01*
X-11230893Y-5279107D02*
X-8581107Y-5279107D01*
X-5260060Y-1909940D02*
X-5170000Y-2000000D01*
X-6296660Y-1909940D02*
X-5260060Y-1909940D01*
D20*
X22457891Y1867891D02*
X22457891Y-3852391D01*
X22771100Y6238240D02*
X9583420Y6238240D01*
X23812500Y5207000D02*
X23802340Y5207000D01*
X9583420Y6238240D02*
X8298180Y4953000D01*
X23802340Y5207000D02*
X22771100Y6238240D01*
X8298180Y4953000D02*
X8255000Y4953000D01*
X22740620Y-5207000D02*
X21973540Y-5974080D01*
X23812500Y-5207000D02*
X22740620Y-5207000D01*
D18*
X-4993919Y2431059D02*
X-4693920Y2131060D01*
X-5303261Y2740401D02*
X-4993919Y2431059D01*
X-10339225Y2740401D02*
X-5303261Y2740401D01*
X-10691832Y2387794D02*
X-10339225Y2740401D01*
X-10691832Y2366168D02*
X-10691832Y2387794D01*
X-11026000Y2032000D02*
X-10691832Y2366168D01*
D19*
X12861993Y3954780D02*
X13316858Y4409645D01*
X12334240Y3954780D02*
X12861993Y3954780D01*
X10660380Y4099560D02*
X10764520Y4203700D01*
X6859599Y2269993D02*
X7829705Y3240099D01*
X7829705Y3240099D02*
X8983039Y3240099D01*
X6859599Y1395401D02*
X6859599Y2269993D01*
X8983039Y3240099D02*
X9842500Y4099560D01*
X7620000Y635000D02*
X6859599Y1395401D01*
X9842500Y4099560D02*
X10660380Y4099560D01*
X-6690220Y635000D02*
X-6296660Y1028560D01*
X-7620000Y635000D02*
X-6690220Y635000D01*
X-6157100Y1905000D02*
X-5280660Y1028560D01*
X-7620000Y1905000D02*
X-6157100Y1905000D01*
X-5280660Y58560D02*
X-5280660Y-939940D01*
X-6296660Y58560D02*
X-6296660Y-939940D01*
D18*
X11760603Y-1387243D02*
X11562080Y-1188720D01*
D19*
X11387880Y325120D02*
X11562080Y325120D01*
X10925500Y787500D02*
X11387880Y325120D01*
X10350500Y787500D02*
X10925500Y787500D01*
D18*
X11562080Y-1188720D02*
X11562080Y325120D01*
D19*
X11619802Y382842D02*
X11562080Y325120D01*
X11619802Y2712589D02*
X11619802Y382842D01*
X11973355Y3066142D02*
X11619802Y2712589D01*
D18*
X11760603Y-2693662D02*
X11306854Y-3147411D01*
X11760603Y-1689503D02*
X11760603Y-2693662D01*
X11760603Y-1689503D02*
X11760603Y-1387243D01*
X-10198000Y-635000D02*
X-10350500Y-787500D01*
X-8890000Y-635000D02*
X-10198000Y-635000D01*
X-11973355Y-2410355D02*
X-10350500Y-787500D01*
X-11973355Y-3193142D02*
X-11973355Y-2410355D01*
D22*
G36*
X8407400Y3568699D02*
G01*
X7845836Y3568699D01*
X7829704Y3570288D01*
X7813572Y3568699D01*
X7813570Y3568699D01*
X7765288Y3563944D01*
X7712139Y3547821D01*
X7703347Y3545154D01*
X7646261Y3514641D01*
X7608758Y3483863D01*
X7596226Y3473578D01*
X7585943Y3461048D01*
X6638651Y2513755D01*
X6626121Y2503472D01*
X6615838Y2490942D01*
X6615835Y2490939D01*
X6585057Y2453436D01*
X6554544Y2396350D01*
X6535755Y2334409D01*
X6529410Y2269993D01*
X6531000Y2253851D01*
X6530999Y1411533D01*
X6529410Y1395401D01*
X6530999Y1379269D01*
X6530999Y1379267D01*
X6535754Y1330985D01*
X6548865Y1287766D01*
X6554544Y1269044D01*
X6585057Y1211958D01*
X6600573Y1193052D01*
X6626120Y1161922D01*
X6638655Y1151635D01*
X6920120Y870169D01*
X6911707Y849858D01*
X6883400Y707549D01*
X6883400Y562451D01*
X6911707Y420142D01*
X6967234Y286089D01*
X7047845Y165445D01*
X7150445Y62845D01*
X7244500Y0D01*
X7150445Y-62845D01*
X7047845Y-165445D01*
X6967234Y-286089D01*
X6911707Y-420142D01*
X6883400Y-562451D01*
X6883400Y-707549D01*
X6911707Y-849858D01*
X6967234Y-983911D01*
X7047845Y-1104555D01*
X7150445Y-1207155D01*
X7244500Y-1270000D01*
X7150445Y-1332845D01*
X7047845Y-1435445D01*
X6967234Y-1556089D01*
X6911707Y-1690142D01*
X6883400Y-1832451D01*
X6883400Y-1977549D01*
X6911707Y-2119858D01*
X6938441Y-2184400D01*
X5080000Y-2184400D01*
X5035402Y-2188792D01*
X4992519Y-2201801D01*
X4952997Y-2222926D01*
X4918355Y-2251355D01*
X2632355Y-4537355D01*
X2603926Y-4571997D01*
X2582801Y-4611519D01*
X2569792Y-4654402D01*
X2565400Y-4699000D01*
X2565400Y-6413500D01*
X-6121400Y-6413500D01*
X-6121400Y-1464374D01*
X-6050571Y-1457398D01*
X-5979810Y-1435933D01*
X-5914596Y-1401075D01*
X-5857435Y-1354165D01*
X-5810525Y-1297004D01*
X-5788660Y-1256098D01*
X-5766795Y-1297004D01*
X-5719885Y-1354165D01*
X-5662724Y-1401075D01*
X-5597510Y-1435933D01*
X-5526749Y-1457398D01*
X-5453160Y-1464646D01*
X-5108160Y-1464646D01*
X-5034571Y-1457398D01*
X-4963810Y-1435933D01*
X-4898596Y-1401075D01*
X-4841435Y-1354165D01*
X-4794525Y-1297004D01*
X-4759667Y-1231790D01*
X-4738202Y-1161029D01*
X-4730954Y-1087440D01*
X-4730954Y-966477D01*
X-4643040Y-1408451D01*
X-4279050Y-2287200D01*
X-3750619Y-3078053D01*
X-3078053Y-3750619D01*
X-2287200Y-4279050D01*
X-1408451Y-4643040D01*
X-475576Y-4828600D01*
X475576Y-4828600D01*
X1408451Y-4643040D01*
X2287200Y-4279050D01*
X3078053Y-3750619D01*
X3750619Y-3078053D01*
X4279050Y-2287200D01*
X4643040Y-1408451D01*
X4828600Y-475576D01*
X4828600Y475576D01*
X4643040Y1408451D01*
X4279050Y2287200D01*
X3750619Y3078053D01*
X3078053Y3750619D01*
X2287200Y4279050D01*
X1408451Y4643040D01*
X475576Y4828600D01*
X-475576Y4828600D01*
X-1408451Y4643040D01*
X-2287200Y4279050D01*
X-3078053Y3750619D01*
X-3750619Y3078053D01*
X-4279050Y2287200D01*
X-4643040Y1408451D01*
X-4730954Y966477D01*
X-4730954Y1176060D01*
X-4738202Y1249649D01*
X-4759667Y1320410D01*
X-4794525Y1385624D01*
X-4841435Y1442785D01*
X-4898596Y1489695D01*
X-4963810Y1524553D01*
X-5034571Y1546018D01*
X-5108160Y1553266D01*
X-5340655Y1553266D01*
X-5913334Y2125944D01*
X-5923621Y2138479D01*
X-5973657Y2179542D01*
X-5982746Y2184400D01*
X-5080000Y2184400D01*
X-5035402Y2188792D01*
X-4992519Y2201801D01*
X-4952997Y2222926D01*
X-4918355Y2251355D01*
X-2632355Y4537355D01*
X-2603926Y4571997D01*
X-2582801Y4611519D01*
X-2569792Y4654402D01*
X-2565400Y4699000D01*
X-2565400Y6413500D01*
X8407400Y6413500D01*
X8407400Y3568699D01*
X8407400Y3568699D01*
G37*
X8407400Y3568699D02*
X7845836Y3568699D01*
X7829704Y3570288D01*
X7813572Y3568699D01*
X7813570Y3568699D01*
X7765288Y3563944D01*
X7712139Y3547821D01*
X7703347Y3545154D01*
X7646261Y3514641D01*
X7608758Y3483863D01*
X7596226Y3473578D01*
X7585943Y3461048D01*
X6638651Y2513755D01*
X6626121Y2503472D01*
X6615838Y2490942D01*
X6615835Y2490939D01*
X6585057Y2453436D01*
X6554544Y2396350D01*
X6535755Y2334409D01*
X6529410Y2269993D01*
X6531000Y2253851D01*
X6530999Y1411533D01*
X6529410Y1395401D01*
X6530999Y1379269D01*
X6530999Y1379267D01*
X6535754Y1330985D01*
X6548865Y1287766D01*
X6554544Y1269044D01*
X6585057Y1211958D01*
X6600573Y1193052D01*
X6626120Y1161922D01*
X6638655Y1151635D01*
X6920120Y870169D01*
X6911707Y849858D01*
X6883400Y707549D01*
X6883400Y562451D01*
X6911707Y420142D01*
X6967234Y286089D01*
X7047845Y165445D01*
X7150445Y62845D01*
X7244500Y0D01*
X7150445Y-62845D01*
X7047845Y-165445D01*
X6967234Y-286089D01*
X6911707Y-420142D01*
X6883400Y-562451D01*
X6883400Y-707549D01*
X6911707Y-849858D01*
X6967234Y-983911D01*
X7047845Y-1104555D01*
X7150445Y-1207155D01*
X7244500Y-1270000D01*
X7150445Y-1332845D01*
X7047845Y-1435445D01*
X6967234Y-1556089D01*
X6911707Y-1690142D01*
X6883400Y-1832451D01*
X6883400Y-1977549D01*
X6911707Y-2119858D01*
X6938441Y-2184400D01*
X5080000Y-2184400D01*
X5035402Y-2188792D01*
X4992519Y-2201801D01*
X4952997Y-2222926D01*
X4918355Y-2251355D01*
X2632355Y-4537355D01*
X2603926Y-4571997D01*
X2582801Y-4611519D01*
X2569792Y-4654402D01*
X2565400Y-4699000D01*
X2565400Y-6413500D01*
X-6121400Y-6413500D01*
X-6121400Y-1464374D01*
X-6050571Y-1457398D01*
X-5979810Y-1435933D01*
X-5914596Y-1401075D01*
X-5857435Y-1354165D01*
X-5810525Y-1297004D01*
X-5788660Y-1256098D01*
X-5766795Y-1297004D01*
X-5719885Y-1354165D01*
X-5662724Y-1401075D01*
X-5597510Y-1435933D01*
X-5526749Y-1457398D01*
X-5453160Y-1464646D01*
X-5108160Y-1464646D01*
X-5034571Y-1457398D01*
X-4963810Y-1435933D01*
X-4898596Y-1401075D01*
X-4841435Y-1354165D01*
X-4794525Y-1297004D01*
X-4759667Y-1231790D01*
X-4738202Y-1161029D01*
X-4730954Y-1087440D01*
X-4730954Y-966477D01*
X-4643040Y-1408451D01*
X-4279050Y-2287200D01*
X-3750619Y-3078053D01*
X-3078053Y-3750619D01*
X-2287200Y-4279050D01*
X-1408451Y-4643040D01*
X-475576Y-4828600D01*
X475576Y-4828600D01*
X1408451Y-4643040D01*
X2287200Y-4279050D01*
X3078053Y-3750619D01*
X3750619Y-3078053D01*
X4279050Y-2287200D01*
X4643040Y-1408451D01*
X4828600Y-475576D01*
X4828600Y475576D01*
X4643040Y1408451D01*
X4279050Y2287200D01*
X3750619Y3078053D01*
X3078053Y3750619D01*
X2287200Y4279050D01*
X1408451Y4643040D01*
X475576Y4828600D01*
X-475576Y4828600D01*
X-1408451Y4643040D01*
X-2287200Y4279050D01*
X-3078053Y3750619D01*
X-3750619Y3078053D01*
X-4279050Y2287200D01*
X-4643040Y1408451D01*
X-4730954Y966477D01*
X-4730954Y1176060D01*
X-4738202Y1249649D01*
X-4759667Y1320410D01*
X-4794525Y1385624D01*
X-4841435Y1442785D01*
X-4898596Y1489695D01*
X-4963810Y1524553D01*
X-5034571Y1546018D01*
X-5108160Y1553266D01*
X-5340655Y1553266D01*
X-5913334Y2125944D01*
X-5923621Y2138479D01*
X-5973657Y2179542D01*
X-5982746Y2184400D01*
X-5080000Y2184400D01*
X-5035402Y2188792D01*
X-4992519Y2201801D01*
X-4952997Y2222926D01*
X-4918355Y2251355D01*
X-2632355Y4537355D01*
X-2603926Y4571997D01*
X-2582801Y4611519D01*
X-2569792Y4654402D01*
X-2565400Y4699000D01*
X-2565400Y6413500D01*
X8407400Y6413500D01*
X8407400Y3568699D01*
G36*
X22632925Y12469D02*
G01*
X22632924Y-3003064D01*
X22633436Y-3008265D01*
X22635559Y-3061562D01*
X22637717Y-3077155D01*
X22638755Y-3092856D01*
X22639357Y-3096351D01*
X22665644Y-3242726D01*
X22671922Y-3264941D01*
X22677857Y-3287118D01*
X22679126Y-3290429D01*
X22733343Y-3428910D01*
X22743804Y-3449458D01*
X22753945Y-3470085D01*
X22755830Y-3473082D01*
X22755833Y-3473087D01*
X22755836Y-3473091D01*
X22835915Y-3598399D01*
X22850183Y-3616543D01*
X22864123Y-3634788D01*
X22866553Y-3637361D01*
X22866558Y-3637367D01*
X22866563Y-3637372D01*
X22969455Y-3744738D01*
X22986929Y-3759726D01*
X23004193Y-3774956D01*
X23007083Y-3777011D01*
X23128876Y-3862352D01*
X23148955Y-3873675D01*
X23168822Y-3885247D01*
X23172056Y-3886702D01*
X23308105Y-3946761D01*
X23330039Y-3953981D01*
X23351737Y-3961460D01*
X23355182Y-3962257D01*
X23355192Y-3962260D01*
X23355202Y-3962261D01*
X23500315Y-3994749D01*
X23523186Y-3997565D01*
X23545972Y-4000694D01*
X23549516Y-4000807D01*
X23549517Y-4000807D01*
X23698188Y-4004490D01*
X23698411Y-4004474D01*
X23698937Y-4004490D01*
X23958976Y-4010759D01*
X24188536Y-4061991D01*
X24403777Y-4156838D01*
X24596491Y-4291682D01*
X24759348Y-4461395D01*
X24886136Y-4659503D01*
X24972031Y-4878466D01*
X25013761Y-5109946D01*
X25009734Y-5345124D01*
X24960106Y-5575033D01*
X24866765Y-5790929D01*
X24733268Y-5984583D01*
X24564699Y-6148619D01*
X24367480Y-6276788D01*
X24149119Y-6364210D01*
X23911139Y-6408829D01*
X23804981Y-6413500D01*
X13817600Y-6413500D01*
X13817600Y-4572000D01*
X13813208Y-4527402D01*
X13800199Y-4484519D01*
X13779074Y-4444997D01*
X13750645Y-4410355D01*
X12147821Y-2807531D01*
X12158362Y-2772781D01*
X12164203Y-2713480D01*
X12166155Y-2693662D01*
X12164203Y-2673844D01*
X12164203Y-2126059D01*
X12230950Y-2287200D01*
X12759381Y-3078053D01*
X13431947Y-3750619D01*
X14222800Y-4279050D01*
X15101549Y-4643040D01*
X16034424Y-4828600D01*
X16985576Y-4828600D01*
X17918451Y-4643040D01*
X18797200Y-4279050D01*
X19588053Y-3750619D01*
X20260619Y-3078053D01*
X20789050Y-2287200D01*
X21153040Y-1408451D01*
X21338600Y-475576D01*
X21338600Y475576D01*
X21153040Y1408451D01*
X20789050Y2287200D01*
X20688021Y2438400D01*
X22632924Y2438400D01*
X22632925Y12469D01*
X22632925Y12469D01*
G37*
X22632925Y12469D02*
X22632924Y-3003064D01*
X22633436Y-3008265D01*
X22635559Y-3061562D01*
X22637717Y-3077155D01*
X22638755Y-3092856D01*
X22639357Y-3096351D01*
X22665644Y-3242726D01*
X22671922Y-3264941D01*
X22677857Y-3287118D01*
X22679126Y-3290429D01*
X22733343Y-3428910D01*
X22743804Y-3449458D01*
X22753945Y-3470085D01*
X22755830Y-3473082D01*
X22755833Y-3473087D01*
X22755836Y-3473091D01*
X22835915Y-3598399D01*
X22850183Y-3616543D01*
X22864123Y-3634788D01*
X22866553Y-3637361D01*
X22866558Y-3637367D01*
X22866563Y-3637372D01*
X22969455Y-3744738D01*
X22986929Y-3759726D01*
X23004193Y-3774956D01*
X23007083Y-3777011D01*
X23128876Y-3862352D01*
X23148955Y-3873675D01*
X23168822Y-3885247D01*
X23172056Y-3886702D01*
X23308105Y-3946761D01*
X23330039Y-3953981D01*
X23351737Y-3961460D01*
X23355182Y-3962257D01*
X23355192Y-3962260D01*
X23355202Y-3962261D01*
X23500315Y-3994749D01*
X23523186Y-3997565D01*
X23545972Y-4000694D01*
X23549516Y-4000807D01*
X23549517Y-4000807D01*
X23698188Y-4004490D01*
X23698411Y-4004474D01*
X23698937Y-4004490D01*
X23958976Y-4010759D01*
X24188536Y-4061991D01*
X24403777Y-4156838D01*
X24596491Y-4291682D01*
X24759348Y-4461395D01*
X24886136Y-4659503D01*
X24972031Y-4878466D01*
X25013761Y-5109946D01*
X25009734Y-5345124D01*
X24960106Y-5575033D01*
X24866765Y-5790929D01*
X24733268Y-5984583D01*
X24564699Y-6148619D01*
X24367480Y-6276788D01*
X24149119Y-6364210D01*
X23911139Y-6408829D01*
X23804981Y-6413500D01*
X13817600Y-6413500D01*
X13817600Y-4572000D01*
X13813208Y-4527402D01*
X13800199Y-4484519D01*
X13779074Y-4444997D01*
X13750645Y-4410355D01*
X12147821Y-2807531D01*
X12158362Y-2772781D01*
X12164203Y-2713480D01*
X12166155Y-2693662D01*
X12164203Y-2673844D01*
X12164203Y-2126059D01*
X12230950Y-2287200D01*
X12759381Y-3078053D01*
X13431947Y-3750619D01*
X14222800Y-4279050D01*
X15101549Y-4643040D01*
X16034424Y-4828600D01*
X16985576Y-4828600D01*
X17918451Y-4643040D01*
X18797200Y-4279050D01*
X19588053Y-3750619D01*
X20260619Y-3078053D01*
X20789050Y-2287200D01*
X21153040Y-1408451D01*
X21338600Y-475576D01*
X21338600Y475576D01*
X21153040Y1408451D01*
X20789050Y2287200D01*
X20688021Y2438400D01*
X22632924Y2438400D01*
X22632925Y12469D01*
G36*
X-13817600Y4572000D02*
G01*
X-13813208Y4527402D01*
X-13800199Y4484519D01*
X-13779074Y4444997D01*
X-13750645Y4410355D01*
X-11591645Y2251355D01*
X-11557003Y2222926D01*
X-11517481Y2201801D01*
X-11474598Y2188792D01*
X-11430000Y2184400D01*
X-10580706Y2184400D01*
X-10580706Y1859500D01*
X-10573458Y1785911D01*
X-10551993Y1715150D01*
X-10517135Y1649936D01*
X-10470225Y1592775D01*
X-10459600Y1584055D01*
X-10459599Y1454706D01*
X-10606750Y1454706D01*
X-10694239Y1446089D01*
X-10778367Y1420569D01*
X-10855899Y1379128D01*
X-10923856Y1323356D01*
X-10979628Y1255399D01*
X-11021069Y1177867D01*
X-11046589Y1093739D01*
X-11055206Y1006250D01*
X-11055206Y568750D01*
X-11046589Y481261D01*
X-11021069Y397133D01*
X-10979628Y319601D01*
X-10923856Y251644D01*
X-10855899Y195872D01*
X-10778367Y154431D01*
X-10694239Y128911D01*
X-10606750Y120294D01*
X-10094250Y120294D01*
X-10006761Y128911D01*
X-9922633Y154431D01*
X-9845101Y195872D01*
X-9801811Y231400D01*
X-9506224Y231400D01*
X-9462155Y165445D01*
X-9359555Y62845D01*
X-9265500Y0D01*
X-9359555Y-62845D01*
X-9462155Y-165445D01*
X-9506224Y-231400D01*
X-9801811Y-231400D01*
X-9845101Y-195872D01*
X-9922633Y-154431D01*
X-10006761Y-128911D01*
X-10094250Y-120294D01*
X-10606750Y-120294D01*
X-10694239Y-128911D01*
X-10778367Y-154431D01*
X-10855899Y-195872D01*
X-10923856Y-251644D01*
X-10979628Y-319601D01*
X-11021069Y-397133D01*
X-11046589Y-481261D01*
X-11055206Y-568750D01*
X-11055206Y-921430D01*
X-12096582Y-1962807D01*
X-11866960Y-1408451D01*
X-11681400Y-475576D01*
X-11681400Y475576D01*
X-11866960Y1408451D01*
X-12230950Y2287200D01*
X-12759381Y3078053D01*
X-13431947Y3750619D01*
X-14222800Y4279050D01*
X-15101549Y4643040D01*
X-16034424Y4828600D01*
X-16985576Y4828600D01*
X-17918451Y4643040D01*
X-18797200Y4279050D01*
X-19588053Y3750619D01*
X-20260619Y3078053D01*
X-20789050Y2287200D01*
X-21153040Y1408451D01*
X-21338600Y475576D01*
X-21338600Y-475576D01*
X-21153040Y-1408451D01*
X-20789050Y-2287200D01*
X-20688021Y-2438400D01*
X-22632924Y-2438400D01*
X-22632924Y3003065D01*
X-22633436Y3008266D01*
X-22635559Y3061562D01*
X-22637717Y3077155D01*
X-22638755Y3092856D01*
X-22639357Y3096350D01*
X-22665644Y3242726D01*
X-22671922Y3264941D01*
X-22677857Y3287118D01*
X-22679126Y3290429D01*
X-22733343Y3428910D01*
X-22743804Y3449458D01*
X-22753945Y3470085D01*
X-22755830Y3473082D01*
X-22755833Y3473087D01*
X-22755836Y3473091D01*
X-22835915Y3598399D01*
X-22850210Y3616578D01*
X-22864123Y3634789D01*
X-22866553Y3637361D01*
X-22866558Y3637367D01*
X-22866563Y3637372D01*
X-22969455Y3744738D01*
X-22986951Y3759744D01*
X-23004193Y3774955D01*
X-23007083Y3777011D01*
X-23128876Y3862352D01*
X-23148955Y3873675D01*
X-23168822Y3885247D01*
X-23172047Y3886697D01*
X-23172056Y3886702D01*
X-23172065Y3886705D01*
X-23308105Y3946761D01*
X-23330049Y3953984D01*
X-23351737Y3961460D01*
X-23355182Y3962257D01*
X-23355192Y3962260D01*
X-23355202Y3962261D01*
X-23500316Y3994749D01*
X-23523210Y3997568D01*
X-23545972Y4000694D01*
X-23549506Y4000807D01*
X-23549517Y4000808D01*
X-23549527Y4000807D01*
X-23698188Y4004490D01*
X-23698411Y4004474D01*
X-23698936Y4004490D01*
X-23958976Y4010759D01*
X-24188535Y4061991D01*
X-24403777Y4156838D01*
X-24596491Y4291682D01*
X-24759348Y4461395D01*
X-24886136Y4659503D01*
X-24972031Y4878466D01*
X-25013761Y5109947D01*
X-25009734Y5345124D01*
X-24960106Y5575033D01*
X-24866764Y5790931D01*
X-24733264Y5984587D01*
X-24564697Y6148620D01*
X-24367478Y6276789D01*
X-24149119Y6364210D01*
X-23911139Y6408829D01*
X-23804982Y6413500D01*
X-13817600Y6413500D01*
X-13817600Y4572000D01*
X-13817600Y4572000D01*
G37*
X-13817600Y4572000D02*
X-13813208Y4527402D01*
X-13800199Y4484519D01*
X-13779074Y4444997D01*
X-13750645Y4410355D01*
X-11591645Y2251355D01*
X-11557003Y2222926D01*
X-11517481Y2201801D01*
X-11474598Y2188792D01*
X-11430000Y2184400D01*
X-10580706Y2184400D01*
X-10580706Y1859500D01*
X-10573458Y1785911D01*
X-10551993Y1715150D01*
X-10517135Y1649936D01*
X-10470225Y1592775D01*
X-10459600Y1584055D01*
X-10459599Y1454706D01*
X-10606750Y1454706D01*
X-10694239Y1446089D01*
X-10778367Y1420569D01*
X-10855899Y1379128D01*
X-10923856Y1323356D01*
X-10979628Y1255399D01*
X-11021069Y1177867D01*
X-11046589Y1093739D01*
X-11055206Y1006250D01*
X-11055206Y568750D01*
X-11046589Y481261D01*
X-11021069Y397133D01*
X-10979628Y319601D01*
X-10923856Y251644D01*
X-10855899Y195872D01*
X-10778367Y154431D01*
X-10694239Y128911D01*
X-10606750Y120294D01*
X-10094250Y120294D01*
X-10006761Y128911D01*
X-9922633Y154431D01*
X-9845101Y195872D01*
X-9801811Y231400D01*
X-9506224Y231400D01*
X-9462155Y165445D01*
X-9359555Y62845D01*
X-9265500Y0D01*
X-9359555Y-62845D01*
X-9462155Y-165445D01*
X-9506224Y-231400D01*
X-9801811Y-231400D01*
X-9845101Y-195872D01*
X-9922633Y-154431D01*
X-10006761Y-128911D01*
X-10094250Y-120294D01*
X-10606750Y-120294D01*
X-10694239Y-128911D01*
X-10778367Y-154431D01*
X-10855899Y-195872D01*
X-10923856Y-251644D01*
X-10979628Y-319601D01*
X-11021069Y-397133D01*
X-11046589Y-481261D01*
X-11055206Y-568750D01*
X-11055206Y-921430D01*
X-12096582Y-1962807D01*
X-11866960Y-1408451D01*
X-11681400Y-475576D01*
X-11681400Y475576D01*
X-11866960Y1408451D01*
X-12230950Y2287200D01*
X-12759381Y3078053D01*
X-13431947Y3750619D01*
X-14222800Y4279050D01*
X-15101549Y4643040D01*
X-16034424Y4828600D01*
X-16985576Y4828600D01*
X-17918451Y4643040D01*
X-18797200Y4279050D01*
X-19588053Y3750619D01*
X-20260619Y3078053D01*
X-20789050Y2287200D01*
X-21153040Y1408451D01*
X-21338600Y475576D01*
X-21338600Y-475576D01*
X-21153040Y-1408451D01*
X-20789050Y-2287200D01*
X-20688021Y-2438400D01*
X-22632924Y-2438400D01*
X-22632924Y3003065D01*
X-22633436Y3008266D01*
X-22635559Y3061562D01*
X-22637717Y3077155D01*
X-22638755Y3092856D01*
X-22639357Y3096350D01*
X-22665644Y3242726D01*
X-22671922Y3264941D01*
X-22677857Y3287118D01*
X-22679126Y3290429D01*
X-22733343Y3428910D01*
X-22743804Y3449458D01*
X-22753945Y3470085D01*
X-22755830Y3473082D01*
X-22755833Y3473087D01*
X-22755836Y3473091D01*
X-22835915Y3598399D01*
X-22850210Y3616578D01*
X-22864123Y3634789D01*
X-22866553Y3637361D01*
X-22866558Y3637367D01*
X-22866563Y3637372D01*
X-22969455Y3744738D01*
X-22986951Y3759744D01*
X-23004193Y3774955D01*
X-23007083Y3777011D01*
X-23128876Y3862352D01*
X-23148955Y3873675D01*
X-23168822Y3885247D01*
X-23172047Y3886697D01*
X-23172056Y3886702D01*
X-23172065Y3886705D01*
X-23308105Y3946761D01*
X-23330049Y3953984D01*
X-23351737Y3961460D01*
X-23355182Y3962257D01*
X-23355192Y3962260D01*
X-23355202Y3962261D01*
X-23500316Y3994749D01*
X-23523210Y3997568D01*
X-23545972Y4000694D01*
X-23549506Y4000807D01*
X-23549517Y4000808D01*
X-23549527Y4000807D01*
X-23698188Y4004490D01*
X-23698411Y4004474D01*
X-23698936Y4004490D01*
X-23958976Y4010759D01*
X-24188535Y4061991D01*
X-24403777Y4156838D01*
X-24596491Y4291682D01*
X-24759348Y4461395D01*
X-24886136Y4659503D01*
X-24972031Y4878466D01*
X-25013761Y5109947D01*
X-25009734Y5345124D01*
X-24960106Y5575033D01*
X-24866764Y5790931D01*
X-24733264Y5984587D01*
X-24564697Y6148620D01*
X-24367478Y6276789D01*
X-24149119Y6364210D01*
X-23911139Y6408829D01*
X-23804982Y6413500D01*
X-13817600Y6413500D01*
X-13817600Y4572000D01*
G36*
X11144118Y104171D02*
G01*
X11154401Y91641D01*
X11158481Y88293D01*
X11158480Y-1168902D01*
X11156528Y-1188720D01*
X11158480Y-1208537D01*
X11164321Y-1267838D01*
X11187399Y-1343917D01*
X11224876Y-1414032D01*
X11275311Y-1475489D01*
X11290718Y-1488133D01*
X11357003Y-1554418D01*
X11357003Y-2184400D01*
X10580706Y-2184400D01*
X10580706Y-1973665D01*
X10583979Y-1970979D01*
X10594264Y-1958447D01*
X10625042Y-1920944D01*
X10655555Y-1863858D01*
X10656877Y-1859500D01*
X10674345Y-1801917D01*
X10679100Y-1753635D01*
X10679100Y-1753632D01*
X10680689Y-1737500D01*
X10679100Y-1721368D01*
X10679100Y-1447580D01*
X10694239Y-1446089D01*
X10778367Y-1420569D01*
X10855899Y-1379128D01*
X10923856Y-1323356D01*
X10979628Y-1255399D01*
X11021069Y-1177867D01*
X11046589Y-1093739D01*
X11055206Y-1006250D01*
X11055206Y-568750D01*
X11046589Y-481261D01*
X11021069Y-397133D01*
X10979628Y-319601D01*
X10923856Y-251644D01*
X10855899Y-195872D01*
X10778367Y-154431D01*
X10694239Y-128911D01*
X10606750Y-120294D01*
X10094250Y-120294D01*
X10006761Y-128911D01*
X9922633Y-154431D01*
X9845101Y-195872D01*
X9777144Y-251644D01*
X9721372Y-319601D01*
X9679931Y-397133D01*
X9654411Y-481261D01*
X9645794Y-568750D01*
X9645794Y-1006250D01*
X9654411Y-1093739D01*
X9679931Y-1177867D01*
X9721372Y-1255399D01*
X9777144Y-1323356D01*
X9845101Y-1379128D01*
X9922633Y-1420569D01*
X10006761Y-1446089D01*
X10021901Y-1447580D01*
X10021901Y-1482294D01*
X9908500Y-1482294D01*
X9834911Y-1489542D01*
X9764150Y-1511007D01*
X9698936Y-1545865D01*
X9641775Y-1592775D01*
X9594865Y-1649936D01*
X9587413Y-1663877D01*
X9542766Y-1556089D01*
X9462155Y-1435445D01*
X9359555Y-1332845D01*
X9238911Y-1252234D01*
X9104858Y-1196707D01*
X8962549Y-1168400D01*
X8817451Y-1168400D01*
X8675142Y-1196707D01*
X8541089Y-1252234D01*
X8420445Y-1332845D01*
X8317845Y-1435445D01*
X8255000Y-1529500D01*
X8192155Y-1435445D01*
X8089555Y-1332845D01*
X7995500Y-1270000D01*
X8089555Y-1207155D01*
X8192155Y-1104555D01*
X8272766Y-983911D01*
X8328293Y-849858D01*
X8356600Y-707549D01*
X8356600Y-562451D01*
X8328293Y-420142D01*
X8272766Y-286089D01*
X8192155Y-165445D01*
X8089555Y-62845D01*
X7995500Y0D01*
X8089555Y62845D01*
X8169710Y143000D01*
X8474355Y-161645D01*
X8508997Y-190074D01*
X8548519Y-211199D01*
X8591402Y-224208D01*
X8636000Y-228600D01*
X9652000Y-228600D01*
X9696598Y-224208D01*
X9739481Y-211199D01*
X9779003Y-190074D01*
X9813645Y-161645D01*
X10095584Y120294D01*
X10606750Y120294D01*
X10694239Y128911D01*
X10778367Y154431D01*
X10855899Y195872D01*
X10923856Y251644D01*
X10956667Y291623D01*
X11144118Y104171D01*
X11144118Y104171D01*
G37*
X11144118Y104171D02*
X11154401Y91641D01*
X11158481Y88293D01*
X11158480Y-1168902D01*
X11156528Y-1188720D01*
X11158480Y-1208537D01*
X11164321Y-1267838D01*
X11187399Y-1343917D01*
X11224876Y-1414032D01*
X11275311Y-1475489D01*
X11290718Y-1488133D01*
X11357003Y-1554418D01*
X11357003Y-2184400D01*
X10580706Y-2184400D01*
X10580706Y-1973665D01*
X10583979Y-1970979D01*
X10594264Y-1958447D01*
X10625042Y-1920944D01*
X10655555Y-1863858D01*
X10656877Y-1859500D01*
X10674345Y-1801917D01*
X10679100Y-1753635D01*
X10679100Y-1753632D01*
X10680689Y-1737500D01*
X10679100Y-1721368D01*
X10679100Y-1447580D01*
X10694239Y-1446089D01*
X10778367Y-1420569D01*
X10855899Y-1379128D01*
X10923856Y-1323356D01*
X10979628Y-1255399D01*
X11021069Y-1177867D01*
X11046589Y-1093739D01*
X11055206Y-1006250D01*
X11055206Y-568750D01*
X11046589Y-481261D01*
X11021069Y-397133D01*
X10979628Y-319601D01*
X10923856Y-251644D01*
X10855899Y-195872D01*
X10778367Y-154431D01*
X10694239Y-128911D01*
X10606750Y-120294D01*
X10094250Y-120294D01*
X10006761Y-128911D01*
X9922633Y-154431D01*
X9845101Y-195872D01*
X9777144Y-251644D01*
X9721372Y-319601D01*
X9679931Y-397133D01*
X9654411Y-481261D01*
X9645794Y-568750D01*
X9645794Y-1006250D01*
X9654411Y-1093739D01*
X9679931Y-1177867D01*
X9721372Y-1255399D01*
X9777144Y-1323356D01*
X9845101Y-1379128D01*
X9922633Y-1420569D01*
X10006761Y-1446089D01*
X10021901Y-1447580D01*
X10021901Y-1482294D01*
X9908500Y-1482294D01*
X9834911Y-1489542D01*
X9764150Y-1511007D01*
X9698936Y-1545865D01*
X9641775Y-1592775D01*
X9594865Y-1649936D01*
X9587413Y-1663877D01*
X9542766Y-1556089D01*
X9462155Y-1435445D01*
X9359555Y-1332845D01*
X9238911Y-1252234D01*
X9104858Y-1196707D01*
X8962549Y-1168400D01*
X8817451Y-1168400D01*
X8675142Y-1196707D01*
X8541089Y-1252234D01*
X8420445Y-1332845D01*
X8317845Y-1435445D01*
X8255000Y-1529500D01*
X8192155Y-1435445D01*
X8089555Y-1332845D01*
X7995500Y-1270000D01*
X8089555Y-1207155D01*
X8192155Y-1104555D01*
X8272766Y-983911D01*
X8328293Y-849858D01*
X8356600Y-707549D01*
X8356600Y-562451D01*
X8328293Y-420142D01*
X8272766Y-286089D01*
X8192155Y-165445D01*
X8089555Y-62845D01*
X7995500Y0D01*
X8089555Y62845D01*
X8169710Y143000D01*
X8474355Y-161645D01*
X8508997Y-190074D01*
X8548519Y-211199D01*
X8591402Y-224208D01*
X8636000Y-228600D01*
X9652000Y-228600D01*
X9696598Y-224208D01*
X9739481Y-211199D01*
X9779003Y-190074D01*
X9813645Y-161645D01*
X10095584Y120294D01*
X10606750Y120294D01*
X10694239Y128911D01*
X10778367Y154431D01*
X10855899Y195872D01*
X10923856Y251644D01*
X10956667Y291623D01*
X11144118Y104171D01*
G36*
X-9331739Y6265010D02*
G01*
X-9567010Y6029739D01*
X-9751861Y5753089D01*
X-9879189Y5445692D01*
X-9944100Y5119362D01*
X-9944100Y4786638D01*
X-9879189Y4460308D01*
X-9751861Y4152911D01*
X-9567010Y3876261D01*
X-9331739Y3640990D01*
X-9055089Y3456139D01*
X-8747692Y3328811D01*
X-8421362Y3263900D01*
X-8088638Y3263900D01*
X-7762308Y3328811D01*
X-7454911Y3456139D01*
X-7178261Y3640990D01*
X-6942990Y3876261D01*
X-6758139Y4152911D01*
X-6630811Y4460308D01*
X-6565900Y4786638D01*
X-6565900Y5119362D01*
X-6630811Y5445692D01*
X-6758139Y5753089D01*
X-6942990Y6029739D01*
X-7178261Y6265010D01*
X-7400493Y6413500D01*
X-2870200Y6413500D01*
X-2870200Y4730564D01*
X-4796424Y2804340D01*
X-5003848Y3011763D01*
X-5016492Y3027170D01*
X-5077948Y3077605D01*
X-5148063Y3115082D01*
X-5224142Y3138160D01*
X-5283443Y3144001D01*
X-5303261Y3145953D01*
X-5323079Y3144001D01*
X-10319407Y3144001D01*
X-10339225Y3145953D01*
X-10359043Y3144001D01*
X-10418344Y3138160D01*
X-10494423Y3115082D01*
X-10564538Y3077605D01*
X-10625994Y3027170D01*
X-10638630Y3011773D01*
X-10963196Y2687205D01*
X-10978601Y2674563D01*
X-11029036Y2613107D01*
X-11044385Y2584391D01*
X-11047070Y2581706D01*
X-11173500Y2581706D01*
X-11247089Y2574458D01*
X-11317850Y2552993D01*
X-11383064Y2518135D01*
X-11407400Y2498164D01*
X-13512800Y4603564D01*
X-13512800Y6413500D01*
X-9109507Y6413500D01*
X-9331739Y6265010D01*
X-9331739Y6265010D01*
G37*
X-9331739Y6265010D02*
X-9567010Y6029739D01*
X-9751861Y5753089D01*
X-9879189Y5445692D01*
X-9944100Y5119362D01*
X-9944100Y4786638D01*
X-9879189Y4460308D01*
X-9751861Y4152911D01*
X-9567010Y3876261D01*
X-9331739Y3640990D01*
X-9055089Y3456139D01*
X-8747692Y3328811D01*
X-8421362Y3263900D01*
X-8088638Y3263900D01*
X-7762308Y3328811D01*
X-7454911Y3456139D01*
X-7178261Y3640990D01*
X-6942990Y3876261D01*
X-6758139Y4152911D01*
X-6630811Y4460308D01*
X-6565900Y4786638D01*
X-6565900Y5119362D01*
X-6630811Y5445692D01*
X-6758139Y5753089D01*
X-6942990Y6029739D01*
X-7178261Y6265010D01*
X-7400493Y6413500D01*
X-2870200Y6413500D01*
X-2870200Y4730564D01*
X-4796424Y2804340D01*
X-5003848Y3011763D01*
X-5016492Y3027170D01*
X-5077948Y3077605D01*
X-5148063Y3115082D01*
X-5224142Y3138160D01*
X-5283443Y3144001D01*
X-5303261Y3145953D01*
X-5323079Y3144001D01*
X-10319407Y3144001D01*
X-10339225Y3145953D01*
X-10359043Y3144001D01*
X-10418344Y3138160D01*
X-10494423Y3115082D01*
X-10564538Y3077605D01*
X-10625994Y3027170D01*
X-10638630Y3011773D01*
X-10963196Y2687205D01*
X-10978601Y2674563D01*
X-11029036Y2613107D01*
X-11044385Y2584391D01*
X-11047070Y2581706D01*
X-11173500Y2581706D01*
X-11247089Y2574458D01*
X-11317850Y2552993D01*
X-11383064Y2518135D01*
X-11407400Y2498164D01*
X-13512800Y4603564D01*
X-13512800Y6413500D01*
X-9109507Y6413500D01*
X-9331739Y6265010D01*
G36*
X7271089Y-2557766D02*
G01*
X7405142Y-2613293D01*
X7547451Y-2641600D01*
X7692549Y-2641600D01*
X7834858Y-2613293D01*
X7968911Y-2557766D01*
X8071528Y-2489200D01*
X8438472Y-2489200D01*
X8541089Y-2557766D01*
X8675142Y-2613293D01*
X8817451Y-2641600D01*
X8962549Y-2641600D01*
X9104858Y-2613293D01*
X9238911Y-2557766D01*
X9341528Y-2489200D01*
X9663678Y-2489200D01*
X9698936Y-2518135D01*
X9764150Y-2552993D01*
X9834911Y-2574458D01*
X9908500Y-2581706D01*
X10203500Y-2581706D01*
X10277089Y-2574458D01*
X10347850Y-2552993D01*
X10413064Y-2518135D01*
X10448322Y-2489200D01*
X10633678Y-2489200D01*
X10668936Y-2518135D01*
X10734150Y-2552993D01*
X10804911Y-2574458D01*
X10878500Y-2581706D01*
X11173500Y-2581706D01*
X11247089Y-2574458D01*
X11317850Y-2552993D01*
X11345018Y-2538471D01*
X11264678Y-2618811D01*
X11254791Y-2618811D01*
X11152667Y-2639124D01*
X11056468Y-2678971D01*
X10969891Y-2736820D01*
X10896263Y-2810448D01*
X10838414Y-2897025D01*
X10798567Y-2993224D01*
X10778254Y-3095348D01*
X10778254Y-3199474D01*
X10798567Y-3301598D01*
X10838414Y-3397797D01*
X10896263Y-3484374D01*
X10969891Y-3558002D01*
X11056468Y-3615851D01*
X11152667Y-3655698D01*
X11254791Y-3676011D01*
X11358917Y-3676011D01*
X11461041Y-3655698D01*
X11557240Y-3615851D01*
X11643817Y-3558002D01*
X11717445Y-3484374D01*
X11775294Y-3397797D01*
X11815141Y-3301598D01*
X11835454Y-3199474D01*
X11835454Y-3189587D01*
X11967139Y-3057903D01*
X13512800Y-4603564D01*
X13512800Y-6413500D01*
X9109507Y-6413500D01*
X9331739Y-6265010D01*
X9567010Y-6029739D01*
X9751861Y-5753089D01*
X9879189Y-5445692D01*
X9944100Y-5119362D01*
X9944100Y-4786638D01*
X9879189Y-4460308D01*
X9751861Y-4152911D01*
X9567010Y-3876261D01*
X9331739Y-3640990D01*
X9055089Y-3456139D01*
X8747692Y-3328811D01*
X8421362Y-3263900D01*
X8088638Y-3263900D01*
X7762308Y-3328811D01*
X7454911Y-3456139D01*
X7178261Y-3640990D01*
X6942990Y-3876261D01*
X6758139Y-4152911D01*
X6630811Y-4460308D01*
X6565900Y-4786638D01*
X6565900Y-5119362D01*
X6630811Y-5445692D01*
X6758139Y-5753089D01*
X6942990Y-6029739D01*
X7178261Y-6265010D01*
X7400493Y-6413500D01*
X2870200Y-6413500D01*
X2870200Y-4730564D01*
X5111564Y-2489200D01*
X7168472Y-2489200D01*
X7271089Y-2557766D01*
X7271089Y-2557766D01*
G37*
X7271089Y-2557766D02*
X7405142Y-2613293D01*
X7547451Y-2641600D01*
X7692549Y-2641600D01*
X7834858Y-2613293D01*
X7968911Y-2557766D01*
X8071528Y-2489200D01*
X8438472Y-2489200D01*
X8541089Y-2557766D01*
X8675142Y-2613293D01*
X8817451Y-2641600D01*
X8962549Y-2641600D01*
X9104858Y-2613293D01*
X9238911Y-2557766D01*
X9341528Y-2489200D01*
X9663678Y-2489200D01*
X9698936Y-2518135D01*
X9764150Y-2552993D01*
X9834911Y-2574458D01*
X9908500Y-2581706D01*
X10203500Y-2581706D01*
X10277089Y-2574458D01*
X10347850Y-2552993D01*
X10413064Y-2518135D01*
X10448322Y-2489200D01*
X10633678Y-2489200D01*
X10668936Y-2518135D01*
X10734150Y-2552993D01*
X10804911Y-2574458D01*
X10878500Y-2581706D01*
X11173500Y-2581706D01*
X11247089Y-2574458D01*
X11317850Y-2552993D01*
X11345018Y-2538471D01*
X11264678Y-2618811D01*
X11254791Y-2618811D01*
X11152667Y-2639124D01*
X11056468Y-2678971D01*
X10969891Y-2736820D01*
X10896263Y-2810448D01*
X10838414Y-2897025D01*
X10798567Y-2993224D01*
X10778254Y-3095348D01*
X10778254Y-3199474D01*
X10798567Y-3301598D01*
X10838414Y-3397797D01*
X10896263Y-3484374D01*
X10969891Y-3558002D01*
X11056468Y-3615851D01*
X11152667Y-3655698D01*
X11254791Y-3676011D01*
X11358917Y-3676011D01*
X11461041Y-3655698D01*
X11557240Y-3615851D01*
X11643817Y-3558002D01*
X11717445Y-3484374D01*
X11775294Y-3397797D01*
X11815141Y-3301598D01*
X11835454Y-3199474D01*
X11835454Y-3189587D01*
X11967139Y-3057903D01*
X13512800Y-4603564D01*
X13512800Y-6413500D01*
X9109507Y-6413500D01*
X9331739Y-6265010D01*
X9567010Y-6029739D01*
X9751861Y-5753089D01*
X9879189Y-5445692D01*
X9944100Y-5119362D01*
X9944100Y-4786638D01*
X9879189Y-4460308D01*
X9751861Y-4152911D01*
X9567010Y-3876261D01*
X9331739Y-3640990D01*
X9055089Y-3456139D01*
X8747692Y-3328811D01*
X8421362Y-3263900D01*
X8088638Y-3263900D01*
X7762308Y-3328811D01*
X7454911Y-3456139D01*
X7178261Y-3640990D01*
X6942990Y-3876261D01*
X6758139Y-4152911D01*
X6630811Y-4460308D01*
X6565900Y-4786638D01*
X6565900Y-5119362D01*
X6630811Y-5445692D01*
X6758139Y-5753089D01*
X6942990Y-6029739D01*
X7178261Y-6265010D01*
X7400493Y-6413500D01*
X2870200Y-6413500D01*
X2870200Y-4730564D01*
X5111564Y-2489200D01*
X7168472Y-2489200D01*
X7271089Y-2557766D01*
G36*
X22188311Y5699692D02*
G01*
X22123400Y5373362D01*
X22123400Y5040638D01*
X22188311Y4714308D01*
X22315639Y4406911D01*
X22323622Y4394964D01*
X22136091Y4207433D01*
X22117833Y4192449D01*
X22058025Y4119573D01*
X22013583Y4036428D01*
X21986217Y3946212D01*
X21979291Y3875894D01*
X21979291Y3875887D01*
X21976977Y3852391D01*
X21979291Y3828895D01*
X21979292Y2743200D01*
X20484361Y2743200D01*
X20260619Y3078053D01*
X19588053Y3750619D01*
X18797200Y4279050D01*
X17918451Y4643040D01*
X16985576Y4828600D01*
X16034424Y4828600D01*
X15101549Y4643040D01*
X14222800Y4279050D01*
X13995910Y4127447D01*
X14080326Y4211863D01*
X14108893Y4246672D01*
X14130120Y4286385D01*
X14143191Y4329477D01*
X14147605Y4374290D01*
X14143191Y4419103D01*
X14130120Y4462195D01*
X14108893Y4501908D01*
X14080326Y4536717D01*
X13443930Y5173113D01*
X13409121Y5201680D01*
X13369408Y5222907D01*
X13326316Y5235978D01*
X13281503Y5240392D01*
X13236690Y5235978D01*
X13193598Y5222907D01*
X13153885Y5201680D01*
X13119076Y5173113D01*
X12553390Y4607427D01*
X12524823Y4572618D01*
X12503596Y4532905D01*
X12490525Y4489813D01*
X12487901Y4463172D01*
X12386303Y4483380D01*
X12282177Y4483380D01*
X12180053Y4463067D01*
X12083854Y4423220D01*
X11997277Y4365371D01*
X11923649Y4291743D01*
X11865800Y4205166D01*
X11825953Y4108967D01*
X11805640Y4006843D01*
X11805640Y3902717D01*
X11814104Y3860166D01*
X11810382Y3858177D01*
X11775573Y3829610D01*
X11209887Y3263924D01*
X11181320Y3229115D01*
X11160093Y3189402D01*
X11147022Y3146310D01*
X11142608Y3101497D01*
X11147022Y3056684D01*
X11160093Y3013592D01*
X11181320Y2973879D01*
X11209887Y2939070D01*
X11313645Y2835312D01*
X11295957Y2777005D01*
X11292628Y2743200D01*
X10795000Y2743200D01*
X10780134Y2741736D01*
X10765840Y2737400D01*
X10752666Y2730358D01*
X10741118Y2720882D01*
X10106118Y2085882D01*
X10096642Y2074334D01*
X10089600Y2061160D01*
X10085264Y2046866D01*
X10083800Y2032000D01*
X10083800Y1453677D01*
X10006761Y1446089D01*
X9922633Y1420569D01*
X9845101Y1379128D01*
X9777144Y1323356D01*
X9721372Y1255399D01*
X9679931Y1177867D01*
X9654411Y1093739D01*
X9645794Y1006250D01*
X9645794Y568750D01*
X9654411Y481261D01*
X9679931Y397133D01*
X9721372Y319601D01*
X9777144Y251644D01*
X9787435Y243199D01*
X9620436Y76200D01*
X9090244Y76200D01*
X8962549Y101600D01*
X8817451Y101600D01*
X8689756Y76200D01*
X8667564Y76200D01*
X8326925Y416839D01*
X8328293Y420142D01*
X8356600Y562451D01*
X8356600Y707549D01*
X8328293Y849858D01*
X8272766Y983911D01*
X8192155Y1104555D01*
X8089555Y1207155D01*
X7968911Y1287766D01*
X7834858Y1343293D01*
X7692549Y1371600D01*
X7547451Y1371600D01*
X7405142Y1343293D01*
X7401839Y1341925D01*
X7188200Y1555564D01*
X7188200Y2133884D01*
X7965816Y2911499D01*
X8966907Y2911499D01*
X8983039Y2909910D01*
X8999171Y2911499D01*
X8999174Y2911499D01*
X9047456Y2916254D01*
X9109397Y2935044D01*
X9166482Y2965557D01*
X9216518Y3006620D01*
X9226805Y3019155D01*
X9978611Y3770960D01*
X10460705Y3770960D01*
X10514134Y3735260D01*
X10610333Y3695413D01*
X10712457Y3675100D01*
X10816583Y3675100D01*
X10918707Y3695413D01*
X11014906Y3735260D01*
X11101483Y3793109D01*
X11175111Y3866737D01*
X11232960Y3953314D01*
X11272807Y4049513D01*
X11293120Y4151637D01*
X11293120Y4255763D01*
X11279807Y4322696D01*
X11311061Y4325774D01*
X11354153Y4338845D01*
X11393866Y4360072D01*
X11428675Y4388639D01*
X11521126Y4481090D01*
X11637639Y4543368D01*
X11748583Y4634417D01*
X11839632Y4745361D01*
X11901910Y4861874D01*
X11994361Y4954325D01*
X12022928Y4989134D01*
X12044155Y5028847D01*
X12057226Y5071939D01*
X12061640Y5116752D01*
X12057226Y5161565D01*
X12044155Y5204657D01*
X12022928Y5244370D01*
X11994361Y5279179D01*
X11936038Y5337502D01*
X11907288Y5432279D01*
X11839632Y5558853D01*
X11771397Y5641998D01*
X11653755Y5759640D01*
X22213142Y5759640D01*
X22188311Y5699692D01*
X22188311Y5699692D01*
G37*
X22188311Y5699692D02*
X22123400Y5373362D01*
X22123400Y5040638D01*
X22188311Y4714308D01*
X22315639Y4406911D01*
X22323622Y4394964D01*
X22136091Y4207433D01*
X22117833Y4192449D01*
X22058025Y4119573D01*
X22013583Y4036428D01*
X21986217Y3946212D01*
X21979291Y3875894D01*
X21979291Y3875887D01*
X21976977Y3852391D01*
X21979291Y3828895D01*
X21979292Y2743200D01*
X20484361Y2743200D01*
X20260619Y3078053D01*
X19588053Y3750619D01*
X18797200Y4279050D01*
X17918451Y4643040D01*
X16985576Y4828600D01*
X16034424Y4828600D01*
X15101549Y4643040D01*
X14222800Y4279050D01*
X13995910Y4127447D01*
X14080326Y4211863D01*
X14108893Y4246672D01*
X14130120Y4286385D01*
X14143191Y4329477D01*
X14147605Y4374290D01*
X14143191Y4419103D01*
X14130120Y4462195D01*
X14108893Y4501908D01*
X14080326Y4536717D01*
X13443930Y5173113D01*
X13409121Y5201680D01*
X13369408Y5222907D01*
X13326316Y5235978D01*
X13281503Y5240392D01*
X13236690Y5235978D01*
X13193598Y5222907D01*
X13153885Y5201680D01*
X13119076Y5173113D01*
X12553390Y4607427D01*
X12524823Y4572618D01*
X12503596Y4532905D01*
X12490525Y4489813D01*
X12487901Y4463172D01*
X12386303Y4483380D01*
X12282177Y4483380D01*
X12180053Y4463067D01*
X12083854Y4423220D01*
X11997277Y4365371D01*
X11923649Y4291743D01*
X11865800Y4205166D01*
X11825953Y4108967D01*
X11805640Y4006843D01*
X11805640Y3902717D01*
X11814104Y3860166D01*
X11810382Y3858177D01*
X11775573Y3829610D01*
X11209887Y3263924D01*
X11181320Y3229115D01*
X11160093Y3189402D01*
X11147022Y3146310D01*
X11142608Y3101497D01*
X11147022Y3056684D01*
X11160093Y3013592D01*
X11181320Y2973879D01*
X11209887Y2939070D01*
X11313645Y2835312D01*
X11295957Y2777005D01*
X11292628Y2743200D01*
X10795000Y2743200D01*
X10780134Y2741736D01*
X10765840Y2737400D01*
X10752666Y2730358D01*
X10741118Y2720882D01*
X10106118Y2085882D01*
X10096642Y2074334D01*
X10089600Y2061160D01*
X10085264Y2046866D01*
X10083800Y2032000D01*
X10083800Y1453677D01*
X10006761Y1446089D01*
X9922633Y1420569D01*
X9845101Y1379128D01*
X9777144Y1323356D01*
X9721372Y1255399D01*
X9679931Y1177867D01*
X9654411Y1093739D01*
X9645794Y1006250D01*
X9645794Y568750D01*
X9654411Y481261D01*
X9679931Y397133D01*
X9721372Y319601D01*
X9777144Y251644D01*
X9787435Y243199D01*
X9620436Y76200D01*
X9090244Y76200D01*
X8962549Y101600D01*
X8817451Y101600D01*
X8689756Y76200D01*
X8667564Y76200D01*
X8326925Y416839D01*
X8328293Y420142D01*
X8356600Y562451D01*
X8356600Y707549D01*
X8328293Y849858D01*
X8272766Y983911D01*
X8192155Y1104555D01*
X8089555Y1207155D01*
X7968911Y1287766D01*
X7834858Y1343293D01*
X7692549Y1371600D01*
X7547451Y1371600D01*
X7405142Y1343293D01*
X7401839Y1341925D01*
X7188200Y1555564D01*
X7188200Y2133884D01*
X7965816Y2911499D01*
X8966907Y2911499D01*
X8983039Y2909910D01*
X8999171Y2911499D01*
X8999174Y2911499D01*
X9047456Y2916254D01*
X9109397Y2935044D01*
X9166482Y2965557D01*
X9216518Y3006620D01*
X9226805Y3019155D01*
X9978611Y3770960D01*
X10460705Y3770960D01*
X10514134Y3735260D01*
X10610333Y3695413D01*
X10712457Y3675100D01*
X10816583Y3675100D01*
X10918707Y3695413D01*
X11014906Y3735260D01*
X11101483Y3793109D01*
X11175111Y3866737D01*
X11232960Y3953314D01*
X11272807Y4049513D01*
X11293120Y4151637D01*
X11293120Y4255763D01*
X11279807Y4322696D01*
X11311061Y4325774D01*
X11354153Y4338845D01*
X11393866Y4360072D01*
X11428675Y4388639D01*
X11521126Y4481090D01*
X11637639Y4543368D01*
X11748583Y4634417D01*
X11839632Y4745361D01*
X11901910Y4861874D01*
X11994361Y4954325D01*
X12022928Y4989134D01*
X12044155Y5028847D01*
X12057226Y5071939D01*
X12061640Y5116752D01*
X12057226Y5161565D01*
X12044155Y5204657D01*
X12022928Y5244370D01*
X11994361Y5279179D01*
X11936038Y5337502D01*
X11907288Y5432279D01*
X11839632Y5558853D01*
X11771397Y5641998D01*
X11653755Y5759640D01*
X22213142Y5759640D01*
X22188311Y5699692D01*
G36*
X-7692549Y-101600D02*
G01*
X-7547451Y-101600D01*
X-7419756Y-76200D01*
X-6846366Y-76200D01*
X-6846366Y-88940D01*
X-6839118Y-162529D01*
X-6817653Y-233290D01*
X-6782795Y-298504D01*
X-6735885Y-355665D01*
X-6678724Y-402575D01*
X-6625260Y-431153D01*
X-6625259Y-450227D01*
X-6678724Y-478805D01*
X-6735885Y-525715D01*
X-6782795Y-582876D01*
X-6817653Y-648090D01*
X-6839118Y-718851D01*
X-6846366Y-792440D01*
X-6846366Y-1087440D01*
X-6839118Y-1161029D01*
X-6817653Y-1231790D01*
X-6782795Y-1297004D01*
X-6735885Y-1354165D01*
X-6678724Y-1401075D01*
X-6634076Y-1424940D01*
X-6678724Y-1448805D01*
X-6735885Y-1495715D01*
X-6782795Y-1552876D01*
X-6817653Y-1618090D01*
X-6839118Y-1688851D01*
X-6846366Y-1762440D01*
X-6846366Y-2057440D01*
X-6839118Y-2131029D01*
X-6817653Y-2201790D01*
X-6782795Y-2267004D01*
X-6735885Y-2324165D01*
X-6678724Y-2371075D01*
X-6613510Y-2405933D01*
X-6542749Y-2427398D01*
X-6469160Y-2434646D01*
X-6426200Y-2434646D01*
X-6426200Y-6413500D01*
X-7400493Y-6413500D01*
X-7178261Y-6265010D01*
X-6942990Y-6029739D01*
X-6758139Y-5753089D01*
X-6630811Y-5445692D01*
X-6565900Y-5119362D01*
X-6565900Y-4786638D01*
X-6630811Y-4460308D01*
X-6758139Y-4152911D01*
X-6942990Y-3876261D01*
X-7178261Y-3640990D01*
X-7454911Y-3456139D01*
X-7762308Y-3328811D01*
X-8088638Y-3263900D01*
X-8421362Y-3263900D01*
X-8747692Y-3328811D01*
X-9055089Y-3456139D01*
X-9331739Y-3640990D01*
X-9567010Y-3876261D01*
X-9751861Y-4152911D01*
X-9879189Y-4460308D01*
X-9944100Y-4786638D01*
X-9944100Y-4950507D01*
X-10668953Y-4950507D01*
X-11103821Y-4515639D01*
X-11138630Y-4487072D01*
X-11178343Y-4465845D01*
X-11221435Y-4452774D01*
X-11266248Y-4448360D01*
X-11311061Y-4452774D01*
X-11354153Y-4465845D01*
X-11393866Y-4487072D01*
X-11428675Y-4515639D01*
X-11994361Y-5081325D01*
X-12022928Y-5116134D01*
X-12044155Y-5155847D01*
X-12057226Y-5198939D01*
X-12061640Y-5243752D01*
X-12057226Y-5288565D01*
X-12044155Y-5331657D01*
X-12022928Y-5371370D01*
X-11994361Y-5406179D01*
X-11357965Y-6042575D01*
X-11323156Y-6071142D01*
X-11283443Y-6092369D01*
X-11240351Y-6105440D01*
X-11195538Y-6109854D01*
X-11150725Y-6105440D01*
X-11107633Y-6092369D01*
X-11067920Y-6071142D01*
X-11033111Y-6042575D01*
X-10598243Y-5607707D01*
X-9812080Y-5607707D01*
X-9751861Y-5753089D01*
X-9567010Y-6029739D01*
X-9331739Y-6265010D01*
X-9109507Y-6413500D01*
X-22630251Y-6413500D01*
X-22500490Y-6283739D01*
X-22315639Y-6007089D01*
X-22188311Y-5699692D01*
X-22123400Y-5373362D01*
X-22123400Y-5040638D01*
X-22188311Y-4714308D01*
X-22315639Y-4406911D01*
X-22500490Y-4130261D01*
X-22735761Y-3894990D01*
X-22967108Y-3740410D01*
X-22946081Y-3723003D01*
X-22929839Y-3706637D01*
X-22913423Y-3690550D01*
X-22911163Y-3687817D01*
X-22817208Y-3572540D01*
X-22804442Y-3553312D01*
X-22791474Y-3534359D01*
X-22789788Y-3531240D01*
X-22720014Y-3399908D01*
X-22711215Y-3378539D01*
X-22702187Y-3357457D01*
X-22701139Y-3354069D01*
X-22658203Y-3211685D01*
X-22653723Y-3189024D01*
X-22648961Y-3166582D01*
X-22648592Y-3163064D01*
X-22648590Y-3163054D01*
X-22648590Y-3163045D01*
X-22636607Y-3040411D01*
X-22636600Y-3040389D01*
X-22632924Y-3003065D01*
X-22632924Y-2743200D01*
X-20484361Y-2743200D01*
X-20260619Y-3078053D01*
X-19588053Y-3750619D01*
X-18797200Y-4279050D01*
X-17918451Y-4643040D01*
X-16985576Y-4828600D01*
X-16034424Y-4828600D01*
X-15101549Y-4643040D01*
X-14222800Y-4279050D01*
X-13613174Y-3871711D01*
X-14080326Y-4338863D01*
X-14108893Y-4373672D01*
X-14130120Y-4413385D01*
X-14143191Y-4456477D01*
X-14147605Y-4501290D01*
X-14143191Y-4546103D01*
X-14130120Y-4589195D01*
X-14108893Y-4628908D01*
X-14080326Y-4663717D01*
X-13443930Y-5300113D01*
X-13409121Y-5328680D01*
X-13369408Y-5349907D01*
X-13326316Y-5362978D01*
X-13281503Y-5367392D01*
X-13236690Y-5362978D01*
X-13193598Y-5349907D01*
X-13153885Y-5328680D01*
X-13119076Y-5300113D01*
X-12553390Y-4734427D01*
X-12524823Y-4699618D01*
X-12503596Y-4659905D01*
X-12490525Y-4616813D01*
X-12486111Y-4572000D01*
X-12490525Y-4527187D01*
X-12503596Y-4484095D01*
X-12524823Y-4444382D01*
X-12553390Y-4409573D01*
X-12762792Y-4200171D01*
X-12793710Y-4153899D01*
X-12867338Y-4080271D01*
X-12913610Y-4049353D01*
X-13189786Y-3773177D01*
X-13224595Y-3744610D01*
X-13264308Y-3723383D01*
X-13307400Y-3710312D01*
X-13352213Y-3705898D01*
X-13391052Y-3709724D01*
X-12800276Y-3118948D01*
X-12804102Y-3157787D01*
X-12799688Y-3202600D01*
X-12786617Y-3245692D01*
X-12765390Y-3285405D01*
X-12736823Y-3320214D01*
X-12100427Y-3956610D01*
X-12065618Y-3985177D01*
X-12025905Y-4006404D01*
X-11982813Y-4019475D01*
X-11938000Y-4023889D01*
X-11893187Y-4019475D01*
X-11850095Y-4006404D01*
X-11810382Y-3985177D01*
X-11775573Y-3956610D01*
X-11209887Y-3390924D01*
X-11181320Y-3356115D01*
X-11160093Y-3316402D01*
X-11147022Y-3273310D01*
X-11142608Y-3228497D01*
X-11147022Y-3183684D01*
X-11160093Y-3140592D01*
X-11181320Y-3100879D01*
X-11209887Y-3066070D01*
X-11532757Y-2743200D01*
X-9652000Y-2743200D01*
X-9637134Y-2741736D01*
X-9622840Y-2737400D01*
X-9609666Y-2730358D01*
X-9598118Y-2720882D01*
X-9588642Y-2709334D01*
X-9581600Y-2696160D01*
X-9577264Y-2681866D01*
X-9575800Y-2667000D01*
X-9575800Y-1809564D01*
X-9112436Y-1346200D01*
X-9090244Y-1346200D01*
X-8962549Y-1371600D01*
X-8817451Y-1371600D01*
X-8689756Y-1346200D01*
X-8636000Y-1346200D01*
X-8621134Y-1344736D01*
X-8606840Y-1340400D01*
X-8592689Y-1332694D01*
X-8225014Y-1078694D01*
X-8213615Y-1069040D01*
X-8204319Y-1057348D01*
X-8197482Y-1044066D01*
X-8193368Y-1029706D01*
X-8192132Y-1016999D01*
X-8190209Y-870384D01*
X-8181707Y-849858D01*
X-8153400Y-707549D01*
X-8153400Y-562451D01*
X-8181707Y-420142D01*
X-8184224Y-414065D01*
X-8179793Y-76200D01*
X-7820244Y-76200D01*
X-7692549Y-101600D01*
X-7692549Y-101600D01*
G37*
X-7692549Y-101600D02*
X-7547451Y-101600D01*
X-7419756Y-76200D01*
X-6846366Y-76200D01*
X-6846366Y-88940D01*
X-6839118Y-162529D01*
X-6817653Y-233290D01*
X-6782795Y-298504D01*
X-6735885Y-355665D01*
X-6678724Y-402575D01*
X-6625260Y-431153D01*
X-6625259Y-450227D01*
X-6678724Y-478805D01*
X-6735885Y-525715D01*
X-6782795Y-582876D01*
X-6817653Y-648090D01*
X-6839118Y-718851D01*
X-6846366Y-792440D01*
X-6846366Y-1087440D01*
X-6839118Y-1161029D01*
X-6817653Y-1231790D01*
X-6782795Y-1297004D01*
X-6735885Y-1354165D01*
X-6678724Y-1401075D01*
X-6634076Y-1424940D01*
X-6678724Y-1448805D01*
X-6735885Y-1495715D01*
X-6782795Y-1552876D01*
X-6817653Y-1618090D01*
X-6839118Y-1688851D01*
X-6846366Y-1762440D01*
X-6846366Y-2057440D01*
X-6839118Y-2131029D01*
X-6817653Y-2201790D01*
X-6782795Y-2267004D01*
X-6735885Y-2324165D01*
X-6678724Y-2371075D01*
X-6613510Y-2405933D01*
X-6542749Y-2427398D01*
X-6469160Y-2434646D01*
X-6426200Y-2434646D01*
X-6426200Y-6413500D01*
X-7400493Y-6413500D01*
X-7178261Y-6265010D01*
X-6942990Y-6029739D01*
X-6758139Y-5753089D01*
X-6630811Y-5445692D01*
X-6565900Y-5119362D01*
X-6565900Y-4786638D01*
X-6630811Y-4460308D01*
X-6758139Y-4152911D01*
X-6942990Y-3876261D01*
X-7178261Y-3640990D01*
X-7454911Y-3456139D01*
X-7762308Y-3328811D01*
X-8088638Y-3263900D01*
X-8421362Y-3263900D01*
X-8747692Y-3328811D01*
X-9055089Y-3456139D01*
X-9331739Y-3640990D01*
X-9567010Y-3876261D01*
X-9751861Y-4152911D01*
X-9879189Y-4460308D01*
X-9944100Y-4786638D01*
X-9944100Y-4950507D01*
X-10668953Y-4950507D01*
X-11103821Y-4515639D01*
X-11138630Y-4487072D01*
X-11178343Y-4465845D01*
X-11221435Y-4452774D01*
X-11266248Y-4448360D01*
X-11311061Y-4452774D01*
X-11354153Y-4465845D01*
X-11393866Y-4487072D01*
X-11428675Y-4515639D01*
X-11994361Y-5081325D01*
X-12022928Y-5116134D01*
X-12044155Y-5155847D01*
X-12057226Y-5198939D01*
X-12061640Y-5243752D01*
X-12057226Y-5288565D01*
X-12044155Y-5331657D01*
X-12022928Y-5371370D01*
X-11994361Y-5406179D01*
X-11357965Y-6042575D01*
X-11323156Y-6071142D01*
X-11283443Y-6092369D01*
X-11240351Y-6105440D01*
X-11195538Y-6109854D01*
X-11150725Y-6105440D01*
X-11107633Y-6092369D01*
X-11067920Y-6071142D01*
X-11033111Y-6042575D01*
X-10598243Y-5607707D01*
X-9812080Y-5607707D01*
X-9751861Y-5753089D01*
X-9567010Y-6029739D01*
X-9331739Y-6265010D01*
X-9109507Y-6413500D01*
X-22630251Y-6413500D01*
X-22500490Y-6283739D01*
X-22315639Y-6007089D01*
X-22188311Y-5699692D01*
X-22123400Y-5373362D01*
X-22123400Y-5040638D01*
X-22188311Y-4714308D01*
X-22315639Y-4406911D01*
X-22500490Y-4130261D01*
X-22735761Y-3894990D01*
X-22967108Y-3740410D01*
X-22946081Y-3723003D01*
X-22929839Y-3706637D01*
X-22913423Y-3690550D01*
X-22911163Y-3687817D01*
X-22817208Y-3572540D01*
X-22804442Y-3553312D01*
X-22791474Y-3534359D01*
X-22789788Y-3531240D01*
X-22720014Y-3399908D01*
X-22711215Y-3378539D01*
X-22702187Y-3357457D01*
X-22701139Y-3354069D01*
X-22658203Y-3211685D01*
X-22653723Y-3189024D01*
X-22648961Y-3166582D01*
X-22648592Y-3163064D01*
X-22648590Y-3163054D01*
X-22648590Y-3163045D01*
X-22636607Y-3040411D01*
X-22636600Y-3040389D01*
X-22632924Y-3003065D01*
X-22632924Y-2743200D01*
X-20484361Y-2743200D01*
X-20260619Y-3078053D01*
X-19588053Y-3750619D01*
X-18797200Y-4279050D01*
X-17918451Y-4643040D01*
X-16985576Y-4828600D01*
X-16034424Y-4828600D01*
X-15101549Y-4643040D01*
X-14222800Y-4279050D01*
X-13613174Y-3871711D01*
X-14080326Y-4338863D01*
X-14108893Y-4373672D01*
X-14130120Y-4413385D01*
X-14143191Y-4456477D01*
X-14147605Y-4501290D01*
X-14143191Y-4546103D01*
X-14130120Y-4589195D01*
X-14108893Y-4628908D01*
X-14080326Y-4663717D01*
X-13443930Y-5300113D01*
X-13409121Y-5328680D01*
X-13369408Y-5349907D01*
X-13326316Y-5362978D01*
X-13281503Y-5367392D01*
X-13236690Y-5362978D01*
X-13193598Y-5349907D01*
X-13153885Y-5328680D01*
X-13119076Y-5300113D01*
X-12553390Y-4734427D01*
X-12524823Y-4699618D01*
X-12503596Y-4659905D01*
X-12490525Y-4616813D01*
X-12486111Y-4572000D01*
X-12490525Y-4527187D01*
X-12503596Y-4484095D01*
X-12524823Y-4444382D01*
X-12553390Y-4409573D01*
X-12762792Y-4200171D01*
X-12793710Y-4153899D01*
X-12867338Y-4080271D01*
X-12913610Y-4049353D01*
X-13189786Y-3773177D01*
X-13224595Y-3744610D01*
X-13264308Y-3723383D01*
X-13307400Y-3710312D01*
X-13352213Y-3705898D01*
X-13391052Y-3709724D01*
X-12800276Y-3118948D01*
X-12804102Y-3157787D01*
X-12799688Y-3202600D01*
X-12786617Y-3245692D01*
X-12765390Y-3285405D01*
X-12736823Y-3320214D01*
X-12100427Y-3956610D01*
X-12065618Y-3985177D01*
X-12025905Y-4006404D01*
X-11982813Y-4019475D01*
X-11938000Y-4023889D01*
X-11893187Y-4019475D01*
X-11850095Y-4006404D01*
X-11810382Y-3985177D01*
X-11775573Y-3956610D01*
X-11209887Y-3390924D01*
X-11181320Y-3356115D01*
X-11160093Y-3316402D01*
X-11147022Y-3273310D01*
X-11142608Y-3228497D01*
X-11147022Y-3183684D01*
X-11160093Y-3140592D01*
X-11181320Y-3100879D01*
X-11209887Y-3066070D01*
X-11532757Y-2743200D01*
X-9652000Y-2743200D01*
X-9637134Y-2741736D01*
X-9622840Y-2737400D01*
X-9609666Y-2730358D01*
X-9598118Y-2720882D01*
X-9588642Y-2709334D01*
X-9581600Y-2696160D01*
X-9577264Y-2681866D01*
X-9575800Y-2667000D01*
X-9575800Y-1809564D01*
X-9112436Y-1346200D01*
X-9090244Y-1346200D01*
X-8962549Y-1371600D01*
X-8817451Y-1371600D01*
X-8689756Y-1346200D01*
X-8636000Y-1346200D01*
X-8621134Y-1344736D01*
X-8606840Y-1340400D01*
X-8592689Y-1332694D01*
X-8225014Y-1078694D01*
X-8213615Y-1069040D01*
X-8204319Y-1057348D01*
X-8197482Y-1044066D01*
X-8193368Y-1029706D01*
X-8192132Y-1016999D01*
X-8190209Y-870384D01*
X-8181707Y-849858D01*
X-8153400Y-707549D01*
X-8153400Y-562451D01*
X-8181707Y-420142D01*
X-8184224Y-414065D01*
X-8179793Y-76200D01*
X-7820244Y-76200D01*
X-7692549Y-101600D01*
M02*
