G04 #@! TF.GenerationSoftware,KiCad,Pcbnew,(5.1.4)-1*
G04 #@! TF.CreationDate,2020-10-23T12:06:06-10:00*
G04 #@! TF.ProjectId,SkateLightLEDBoard,536b6174-654c-4696-9768-744c4544426f,rev?*
G04 #@! TF.SameCoordinates,Original*
G04 #@! TF.FileFunction,Legend,Top*
G04 #@! TF.FilePolarity,Positive*
%FSLAX46Y46*%
G04 Gerber Fmt 4.6, Leading zero omitted, Abs format (unit mm)*
G04 Created by KiCad (PCBNEW (5.1.4)-1) date 2020-10-23 12:06:06*
%MOMM*%
%LPD*%
G04 APERTURE LIST*
%ADD10C,0.127000*%
%ADD11C,0.120000*%
%ADD12C,0.100000*%
%ADD13C,0.150000*%
G04 APERTURE END LIST*
D10*
X21916571Y-3102428D02*
X21952857Y-2993571D01*
X21989142Y-2957285D01*
X22061714Y-2921000D01*
X22170571Y-2921000D01*
X22243142Y-2957285D01*
X22279428Y-2993571D01*
X22315714Y-3066142D01*
X22315714Y-3356428D01*
X21553714Y-3356428D01*
X21553714Y-3102428D01*
X21590000Y-3029857D01*
X21626285Y-2993571D01*
X21698857Y-2957285D01*
X21771428Y-2957285D01*
X21844000Y-2993571D01*
X21880285Y-3029857D01*
X21916571Y-3102428D01*
X21916571Y-3356428D01*
X22315714Y-2231571D02*
X22315714Y-2594428D01*
X21553714Y-2594428D01*
X22315714Y-1034142D02*
X22315714Y-1397000D01*
X21553714Y-1397000D01*
X21916571Y-780142D02*
X21916571Y-526142D01*
X22315714Y-417285D02*
X22315714Y-780142D01*
X21553714Y-780142D01*
X21553714Y-417285D01*
X22315714Y-90714D02*
X21553714Y-90714D01*
X21553714Y90714D01*
X21590000Y199571D01*
X21662571Y272142D01*
X21735142Y308428D01*
X21880285Y344714D01*
X21989142Y344714D01*
X22134285Y308428D01*
X22206857Y272142D01*
X22279428Y199571D01*
X22315714Y90714D01*
X22315714Y-90714D01*
X21553714Y1143000D02*
X22315714Y1397000D01*
X21553714Y1651000D01*
X22315714Y2304142D02*
X22315714Y1868714D01*
X22315714Y2086428D02*
X21553714Y2086428D01*
X21662571Y2013857D01*
X21735142Y1941285D01*
X21771428Y1868714D01*
X22243142Y2630714D02*
X22279428Y2667000D01*
X22315714Y2630714D01*
X22279428Y2594428D01*
X22243142Y2630714D01*
X22315714Y2630714D01*
X21553714Y3320142D02*
X21553714Y3175000D01*
X21590000Y3102428D01*
X21626285Y3066142D01*
X21735142Y2993571D01*
X21880285Y2957285D01*
X22170571Y2957285D01*
X22243142Y2993571D01*
X22279428Y3029857D01*
X22315714Y3102428D01*
X22315714Y3247571D01*
X22279428Y3320142D01*
X22243142Y3356428D01*
X22170571Y3392714D01*
X21989142Y3392714D01*
X21916571Y3356428D01*
X21880285Y3320142D01*
X21844000Y3247571D01*
X21844000Y3102428D01*
X21880285Y3029857D01*
X21916571Y2993571D01*
X21989142Y2957285D01*
D11*
X13970000Y-4572000D02*
X13970000Y-5588000D01*
X19050000Y5588000D02*
X19050000Y4572000D01*
X19558000Y5080000D02*
X18542000Y5080000D01*
X-13462000Y5080000D02*
X-14478000Y5080000D01*
X-13970000Y5588000D02*
X-13970000Y4572000D01*
X-19050000Y-4572000D02*
X-19050000Y-5588000D01*
X5080000Y-3048000D02*
X5080000Y-2032000D01*
X5588000Y-2540000D02*
X4572000Y-2540000D01*
X-4572000Y2540000D02*
X-5588000Y2540000D01*
X-12517828Y-6226630D02*
X-13550203Y-5194254D01*
X-10283370Y-3992172D02*
X-11810721Y-2464822D01*
X-10283370Y-3992172D02*
X-10940979Y-4649782D01*
X-12517828Y-6226630D02*
X-11860218Y-5569021D01*
X12517828Y6099630D02*
X13550203Y5067254D01*
X10283370Y3865172D02*
X11810721Y2337822D01*
X10283370Y3865172D02*
X10940979Y4522782D01*
X12517828Y6099630D02*
X11860218Y5442021D01*
D12*
X-5230660Y-546440D02*
G75*
G03X-5230660Y-546440I-50000J0D01*
G01*
X-6246660Y-546440D02*
G75*
G03X-6246660Y-546440I-50000J0D01*
G01*
D11*
X-11085500Y1485000D02*
X-11085500Y-800000D01*
X-9615500Y1485000D02*
X-11085500Y1485000D01*
X-9615500Y-800000D02*
X-9615500Y1485000D01*
X9615500Y800000D02*
X9615500Y-1485000D01*
X9615500Y-1485000D02*
X11085500Y-1485000D01*
X11085500Y-1485000D02*
X11085500Y800000D01*
D13*
X17182380Y-1458095D02*
X16182380Y-1458095D01*
X16182380Y-1220000D01*
X16230000Y-1077142D01*
X16325238Y-981904D01*
X16420476Y-934285D01*
X16610952Y-886666D01*
X16753809Y-886666D01*
X16944285Y-934285D01*
X17039523Y-981904D01*
X17134761Y-1077142D01*
X17182380Y-1220000D01*
X17182380Y-1458095D01*
X16182380Y18095D02*
X16182380Y-458095D01*
X16658571Y-505714D01*
X16610952Y-458095D01*
X16563333Y-362857D01*
X16563333Y-124761D01*
X16610952Y-29523D01*
X16658571Y18095D01*
X16753809Y65714D01*
X16991904Y65714D01*
X17087142Y18095D01*
X17134761Y-29523D01*
X17182380Y-124761D01*
X17182380Y-362857D01*
X17134761Y-458095D01*
X17087142Y-505714D01*
X-16557619Y-738095D02*
X-17557619Y-738095D01*
X-17557619Y-499999D01*
X-17510000Y-357142D01*
X-17414761Y-261904D01*
X-17319523Y-214285D01*
X-17129047Y-166666D01*
X-16986190Y-166666D01*
X-16795714Y-214285D01*
X-16700476Y-261904D01*
X-16605238Y-357142D01*
X-16557619Y-500000D01*
X-16557619Y-738095D01*
X-17557619Y166666D02*
X-17557619Y785714D01*
X-17176666Y452380D01*
X-17176666Y595238D01*
X-17129047Y690476D01*
X-17081428Y738095D01*
X-16986190Y785714D01*
X-16748095Y785714D01*
X-16652857Y738095D01*
X-16605238Y690476D01*
X-16557619Y595238D01*
X-16557619Y309523D01*
X-16605238Y214285D01*
X-16652857Y166666D01*
X7493095Y-5905380D02*
X7493095Y-4905380D01*
X7493095Y-5381571D02*
X8064523Y-5381571D01*
X8064523Y-5905380D02*
X8064523Y-4905380D01*
X8683571Y-5333952D02*
X8588333Y-5286333D01*
X8540714Y-5238714D01*
X8493095Y-5143476D01*
X8493095Y-5095857D01*
X8540714Y-5000619D01*
X8588333Y-4953000D01*
X8683571Y-4905380D01*
X8874047Y-4905380D01*
X8969285Y-4953000D01*
X9016904Y-5000619D01*
X9064523Y-5095857D01*
X9064523Y-5143476D01*
X9016904Y-5238714D01*
X8969285Y-5286333D01*
X8874047Y-5333952D01*
X8683571Y-5333952D01*
X8588333Y-5381571D01*
X8540714Y-5429190D01*
X8493095Y-5524428D01*
X8493095Y-5714904D01*
X8540714Y-5810142D01*
X8588333Y-5857761D01*
X8683571Y-5905380D01*
X8874047Y-5905380D01*
X8969285Y-5857761D01*
X9016904Y-5810142D01*
X9064523Y-5714904D01*
X9064523Y-5524428D01*
X9016904Y-5429190D01*
X8969285Y-5381571D01*
X8874047Y-5333952D01*
X7493095Y4000619D02*
X7493095Y5000619D01*
X7493095Y4524428D02*
X8064523Y4524428D01*
X8064523Y4000619D02*
X8064523Y5000619D01*
X8445476Y5000619D02*
X9112142Y5000619D01*
X8683571Y4000619D01*
X-9016904Y-5905380D02*
X-9016904Y-4905380D01*
X-9016904Y-5381571D02*
X-8445476Y-5381571D01*
X-8445476Y-5905380D02*
X-8445476Y-4905380D01*
X-7540714Y-4905380D02*
X-7731190Y-4905380D01*
X-7826428Y-4953000D01*
X-7874047Y-5000619D01*
X-7969285Y-5143476D01*
X-8016904Y-5333952D01*
X-8016904Y-5714904D01*
X-7969285Y-5810142D01*
X-7921666Y-5857761D01*
X-7826428Y-5905380D01*
X-7635952Y-5905380D01*
X-7540714Y-5857761D01*
X-7493095Y-5810142D01*
X-7445476Y-5714904D01*
X-7445476Y-5476809D01*
X-7493095Y-5381571D01*
X-7540714Y-5333952D01*
X-7635952Y-5286333D01*
X-7826428Y-5286333D01*
X-7921666Y-5333952D01*
X-7969285Y-5381571D01*
X-8016904Y-5476809D01*
X-9016904Y4000619D02*
X-9016904Y5000619D01*
X-9016904Y4524428D02*
X-8445476Y4524428D01*
X-8445476Y4000619D02*
X-8445476Y5000619D01*
X-7493095Y5000619D02*
X-7969285Y5000619D01*
X-8016904Y4524428D01*
X-7969285Y4572047D01*
X-7874047Y4619666D01*
X-7635952Y4619666D01*
X-7540714Y4572047D01*
X-7493095Y4524428D01*
X-7445476Y4429190D01*
X-7445476Y4191095D01*
X-7493095Y4095857D01*
X-7540714Y4048238D01*
X-7635952Y4000619D01*
X-7874047Y4000619D01*
X-7969285Y4048238D01*
X-8016904Y4095857D01*
X23050595Y5254619D02*
X23050595Y6254619D01*
X23050595Y5778428D02*
X23622023Y5778428D01*
X23622023Y5254619D02*
X23622023Y6254619D01*
X24622023Y5254619D02*
X24050595Y5254619D01*
X24336309Y5254619D02*
X24336309Y6254619D01*
X24241071Y6111761D01*
X24145833Y6016523D01*
X24050595Y5968904D01*
X23050595Y-5159380D02*
X23050595Y-4159380D01*
X23050595Y-4635571D02*
X23622023Y-4635571D01*
X23622023Y-5159380D02*
X23622023Y-4159380D01*
X24050595Y-4254619D02*
X24098214Y-4207000D01*
X24193452Y-4159380D01*
X24431547Y-4159380D01*
X24526785Y-4207000D01*
X24574404Y-4254619D01*
X24622023Y-4349857D01*
X24622023Y-4445095D01*
X24574404Y-4587952D01*
X24002976Y-5159380D01*
X24622023Y-5159380D01*
X-24574404Y5254619D02*
X-24574404Y6254619D01*
X-24574404Y5778428D02*
X-24002976Y5778428D01*
X-24002976Y5254619D02*
X-24002976Y6254619D01*
X-23622023Y6254619D02*
X-23002976Y6254619D01*
X-23336309Y5873666D01*
X-23193452Y5873666D01*
X-23098214Y5826047D01*
X-23050595Y5778428D01*
X-23002976Y5683190D01*
X-23002976Y5445095D01*
X-23050595Y5349857D01*
X-23098214Y5302238D01*
X-23193452Y5254619D01*
X-23479166Y5254619D01*
X-23574404Y5302238D01*
X-23622023Y5349857D01*
X-24574404Y-5159380D02*
X-24574404Y-4159380D01*
X-24574404Y-4635571D02*
X-24002976Y-4635571D01*
X-24002976Y-5159380D02*
X-24002976Y-4159380D01*
X-23098214Y-4492714D02*
X-23098214Y-5159380D01*
X-23336309Y-4111761D02*
X-23574404Y-4826047D01*
X-22955357Y-4826047D01*
D10*
X-14012877Y-5236227D02*
X-14376363Y-5599713D01*
X-14397745Y-5663858D01*
X-14397745Y-5706621D01*
X-14376363Y-5770766D01*
X-14290837Y-5856292D01*
X-14226692Y-5877673D01*
X-14183929Y-5877673D01*
X-14119784Y-5856292D01*
X-13756298Y-5492805D01*
X-13756298Y-6390831D02*
X-14012877Y-6134252D01*
X-13884587Y-6262542D02*
X-13435574Y-5813529D01*
X-13542482Y-5834910D01*
X-13628008Y-5834910D01*
X-13692153Y-5813529D01*
X13609622Y6323312D02*
X13246136Y5959826D01*
X13224754Y5895681D01*
X13224754Y5852918D01*
X13246136Y5788773D01*
X13331662Y5703247D01*
X13395807Y5681866D01*
X13438570Y5681866D01*
X13502715Y5703247D01*
X13866201Y6066734D01*
X14015872Y5831537D02*
X14058635Y5831537D01*
X14122780Y5810155D01*
X14229688Y5703247D01*
X14251069Y5639102D01*
X14251069Y5596339D01*
X14229688Y5532195D01*
X14186925Y5489432D01*
X14101398Y5446668D01*
X13588241Y5446668D01*
X13866201Y5168708D01*
X-5051818Y1639509D02*
X-5686818Y1639509D01*
X-5686818Y1790700D01*
X-5656580Y1881414D01*
X-5596103Y1941890D01*
X-5535627Y1972128D01*
X-5414675Y2002366D01*
X-5323960Y2002366D01*
X-5203008Y1972128D01*
X-5142532Y1941890D01*
X-5082056Y1881414D01*
X-5051818Y1790700D01*
X-5051818Y1639509D01*
X-5051818Y2607128D02*
X-5051818Y2244271D01*
X-5051818Y2425700D02*
X-5686818Y2425700D01*
X-5596103Y2365223D01*
X-5535627Y2304747D01*
X-5505389Y2244271D01*
X-6138938Y1626809D02*
X-6773938Y1626809D01*
X-6773938Y1778000D01*
X-6743700Y1868714D01*
X-6683223Y1929190D01*
X-6622747Y1959428D01*
X-6501795Y1989666D01*
X-6411080Y1989666D01*
X-6290128Y1959428D01*
X-6229652Y1929190D01*
X-6169176Y1868714D01*
X-6138938Y1778000D01*
X-6138938Y1626809D01*
X-6713461Y2231571D02*
X-6743700Y2261809D01*
X-6773938Y2322285D01*
X-6773938Y2473476D01*
X-6743700Y2533952D01*
X-6713461Y2564190D01*
X-6652985Y2594428D01*
X-6592509Y2594428D01*
X-6501795Y2564190D01*
X-6138938Y2201333D01*
X-6138938Y2594428D01*
X-10052261Y-2060476D02*
X-10082500Y-2120952D01*
X-10142976Y-2181428D01*
X-10233690Y-2272142D01*
X-10263928Y-2332619D01*
X-10263928Y-2393095D01*
X-10112738Y-2362857D02*
X-10142976Y-2423333D01*
X-10203452Y-2483809D01*
X-10324404Y-2514047D01*
X-10536071Y-2514047D01*
X-10657023Y-2483809D01*
X-10717500Y-2423333D01*
X-10747738Y-2362857D01*
X-10747738Y-2241904D01*
X-10717500Y-2181428D01*
X-10657023Y-2120952D01*
X-10536071Y-2090714D01*
X-10324404Y-2090714D01*
X-10203452Y-2120952D01*
X-10142976Y-2181428D01*
X-10112738Y-2241904D01*
X-10112738Y-2362857D01*
X-10112738Y-1485952D02*
X-10112738Y-1848809D01*
X-10112738Y-1667380D02*
X-10747738Y-1667380D01*
X-10657023Y-1727857D01*
X-10596547Y-1788333D01*
X-10566309Y-1848809D01*
X10447738Y2139523D02*
X10417500Y2079047D01*
X10357023Y2018571D01*
X10266309Y1927857D01*
X10236071Y1867380D01*
X10236071Y1806904D01*
X10387261Y1837142D02*
X10357023Y1776666D01*
X10296547Y1716190D01*
X10175595Y1685952D01*
X9963928Y1685952D01*
X9842976Y1716190D01*
X9782500Y1776666D01*
X9752261Y1837142D01*
X9752261Y1958095D01*
X9782500Y2018571D01*
X9842976Y2079047D01*
X9963928Y2109285D01*
X10175595Y2109285D01*
X10296547Y2079047D01*
X10357023Y2018571D01*
X10387261Y1958095D01*
X10387261Y1837142D01*
X9812738Y2351190D02*
X9782500Y2381428D01*
X9752261Y2441904D01*
X9752261Y2593095D01*
X9782500Y2653571D01*
X9812738Y2683809D01*
X9873214Y2714047D01*
X9933690Y2714047D01*
X10024404Y2683809D01*
X10387261Y2320952D01*
X10387261Y2714047D01*
X-10656993Y2783598D02*
X-10868660Y3085979D01*
X-11019850Y2783598D02*
X-11019850Y3418598D01*
X-10777945Y3418598D01*
X-10717469Y3388360D01*
X-10687231Y3358121D01*
X-10656993Y3297645D01*
X-10656993Y3206931D01*
X-10687231Y3146455D01*
X-10717469Y3116217D01*
X-10777945Y3085979D01*
X-11019850Y3085979D01*
X-10445326Y3418598D02*
X-10052231Y3418598D01*
X-10263898Y3176693D01*
X-10173183Y3176693D01*
X-10112707Y3146455D01*
X-10082469Y3116217D01*
X-10052231Y3055740D01*
X-10052231Y2904550D01*
X-10082469Y2844074D01*
X-10112707Y2813836D01*
X-10173183Y2783598D01*
X-10354612Y2783598D01*
X-10415088Y2813836D01*
X-10445326Y2844074D01*
X10310706Y-3332721D02*
X10099040Y-3030340D01*
X9947849Y-3332721D02*
X9947849Y-2697721D01*
X10189754Y-2697721D01*
X10250230Y-2727960D01*
X10280468Y-2758198D01*
X10310706Y-2818674D01*
X10310706Y-2909388D01*
X10280468Y-2969864D01*
X10250230Y-3000102D01*
X10189754Y-3030340D01*
X9947849Y-3030340D01*
X10854992Y-2909388D02*
X10854992Y-3332721D01*
X10703801Y-2667483D02*
X10552611Y-3121055D01*
X10945706Y-3121055D01*
X-4724158Y-3100493D02*
X-5026539Y-3312160D01*
X-4724158Y-3463350D02*
X-5359158Y-3463350D01*
X-5359158Y-3221445D01*
X-5328920Y-3160969D01*
X-5298681Y-3130731D01*
X-5238205Y-3100493D01*
X-5147491Y-3100493D01*
X-5087015Y-3130731D01*
X-5056777Y-3160969D01*
X-5026539Y-3221445D01*
X-5026539Y-3463350D01*
X-4724158Y-2495731D02*
X-4724158Y-2858588D01*
X-4724158Y-2677160D02*
X-5359158Y-2677160D01*
X-5268443Y-2737636D01*
X-5207967Y-2798112D01*
X-5177729Y-2858588D01*
X-5674118Y-3097953D02*
X-5976499Y-3309620D01*
X-5674118Y-3460810D02*
X-6309118Y-3460810D01*
X-6309118Y-3218905D01*
X-6278880Y-3158429D01*
X-6248641Y-3128191D01*
X-6188165Y-3097953D01*
X-6097451Y-3097953D01*
X-6036975Y-3128191D01*
X-6006737Y-3158429D01*
X-5976499Y-3218905D01*
X-5976499Y-3460810D01*
X-6248641Y-2856048D02*
X-6278880Y-2825810D01*
X-6309118Y-2765334D01*
X-6309118Y-2614143D01*
X-6278880Y-2553667D01*
X-6248641Y-2523429D01*
X-6188165Y-2493191D01*
X-6127689Y-2493191D01*
X-6036975Y-2523429D01*
X-5674118Y-2886286D01*
X-5674118Y-2493191D01*
M02*
