G04 #@! TF.GenerationSoftware,KiCad,Pcbnew,(5.1.4)-1*
G04 #@! TF.CreationDate,2020-07-19T23:42:20-07:00*
G04 #@! TF.ProjectId,SkateLightBackLEDBoard,536b6174-654c-4696-9768-744261636b4c,rev?*
G04 #@! TF.SameCoordinates,Original*
G04 #@! TF.FileFunction,Paste,Bot*
G04 #@! TF.FilePolarity,Positive*
%FSLAX46Y46*%
G04 Gerber Fmt 4.6, Leading zero omitted, Abs format (unit mm)*
G04 Created by KiCad (PCBNEW (5.1.4)-1) date 2020-07-19 23:42:20*
%MOMM*%
%LPD*%
G04 APERTURE LIST*
%ADD10C,0.100000*%
%ADD11C,8.636000*%
G04 APERTURE END LIST*
D10*
G36*
X-12589952Y4313842D02*
G01*
X-12506120Y4301406D01*
X-12423910Y4280814D01*
X-12344115Y4252262D01*
X-12267502Y4216027D01*
X-12194810Y4172457D01*
X-12126738Y4121972D01*
X-12063943Y4065057D01*
X-12007028Y4002262D01*
X-11956543Y3934190D01*
X-11912973Y3861498D01*
X-11876738Y3784885D01*
X-11848186Y3705090D01*
X-11827594Y3622880D01*
X-11815158Y3539048D01*
X-11811000Y3454400D01*
X-11811000Y-3454400D01*
X-11815158Y-3539048D01*
X-11827594Y-3622880D01*
X-11848186Y-3705090D01*
X-11876738Y-3784885D01*
X-11912973Y-3861498D01*
X-11956543Y-3934190D01*
X-12007028Y-4002262D01*
X-12063943Y-4065057D01*
X-12126738Y-4121972D01*
X-12194810Y-4172457D01*
X-12267502Y-4216027D01*
X-12344115Y-4252262D01*
X-12423910Y-4280814D01*
X-12506120Y-4301406D01*
X-12589952Y-4313842D01*
X-12674600Y-4318000D01*
X-20345400Y-4318000D01*
X-20430048Y-4313842D01*
X-20513880Y-4301406D01*
X-20596090Y-4280814D01*
X-20675885Y-4252262D01*
X-20752498Y-4216027D01*
X-20825190Y-4172457D01*
X-20893262Y-4121972D01*
X-20956057Y-4065057D01*
X-21012972Y-4002262D01*
X-21063457Y-3934190D01*
X-21107027Y-3861498D01*
X-21143262Y-3784885D01*
X-21171814Y-3705090D01*
X-21192406Y-3622880D01*
X-21204842Y-3539048D01*
X-21209000Y-3454400D01*
X-21209000Y3454400D01*
X-21204842Y3539048D01*
X-21192406Y3622880D01*
X-21171814Y3705090D01*
X-21143262Y3784885D01*
X-21107027Y3861498D01*
X-21063457Y3934190D01*
X-21012972Y4002262D01*
X-20956057Y4065057D01*
X-20893262Y4121972D01*
X-20825190Y4172457D01*
X-20752498Y4216027D01*
X-20675885Y4252262D01*
X-20596090Y4280814D01*
X-20513880Y4301406D01*
X-20430048Y4313842D01*
X-20345400Y4318000D01*
X-12674600Y4318000D01*
X-12589952Y4313842D01*
X-12589952Y4313842D01*
G37*
D11*
X-16510000Y0D03*
D10*
G36*
X3920048Y4313842D02*
G01*
X4003880Y4301406D01*
X4086090Y4280814D01*
X4165885Y4252262D01*
X4242498Y4216027D01*
X4315190Y4172457D01*
X4383262Y4121972D01*
X4446057Y4065057D01*
X4502972Y4002262D01*
X4553457Y3934190D01*
X4597027Y3861498D01*
X4633262Y3784885D01*
X4661814Y3705090D01*
X4682406Y3622880D01*
X4694842Y3539048D01*
X4699000Y3454400D01*
X4699000Y-3454400D01*
X4694842Y-3539048D01*
X4682406Y-3622880D01*
X4661814Y-3705090D01*
X4633262Y-3784885D01*
X4597027Y-3861498D01*
X4553457Y-3934190D01*
X4502972Y-4002262D01*
X4446057Y-4065057D01*
X4383262Y-4121972D01*
X4315190Y-4172457D01*
X4242498Y-4216027D01*
X4165885Y-4252262D01*
X4086090Y-4280814D01*
X4003880Y-4301406D01*
X3920048Y-4313842D01*
X3835400Y-4318000D01*
X-3835400Y-4318000D01*
X-3920048Y-4313842D01*
X-4003880Y-4301406D01*
X-4086090Y-4280814D01*
X-4165885Y-4252262D01*
X-4242498Y-4216027D01*
X-4315190Y-4172457D01*
X-4383262Y-4121972D01*
X-4446057Y-4065057D01*
X-4502972Y-4002262D01*
X-4553457Y-3934190D01*
X-4597027Y-3861498D01*
X-4633262Y-3784885D01*
X-4661814Y-3705090D01*
X-4682406Y-3622880D01*
X-4694842Y-3539048D01*
X-4699000Y-3454400D01*
X-4699000Y3454400D01*
X-4694842Y3539048D01*
X-4682406Y3622880D01*
X-4661814Y3705090D01*
X-4633262Y3784885D01*
X-4597027Y3861498D01*
X-4553457Y3934190D01*
X-4502972Y4002262D01*
X-4446057Y4065057D01*
X-4383262Y4121972D01*
X-4315190Y4172457D01*
X-4242498Y4216027D01*
X-4165885Y4252262D01*
X-4086090Y4280814D01*
X-4003880Y4301406D01*
X-3920048Y4313842D01*
X-3835400Y4318000D01*
X3835400Y4318000D01*
X3920048Y4313842D01*
X3920048Y4313842D01*
G37*
D11*
X0Y0D03*
D10*
G36*
X20430048Y4313842D02*
G01*
X20513880Y4301406D01*
X20596090Y4280814D01*
X20675885Y4252262D01*
X20752498Y4216027D01*
X20825190Y4172457D01*
X20893262Y4121972D01*
X20956057Y4065057D01*
X21012972Y4002262D01*
X21063457Y3934190D01*
X21107027Y3861498D01*
X21143262Y3784885D01*
X21171814Y3705090D01*
X21192406Y3622880D01*
X21204842Y3539048D01*
X21209000Y3454400D01*
X21209000Y-3454400D01*
X21204842Y-3539048D01*
X21192406Y-3622880D01*
X21171814Y-3705090D01*
X21143262Y-3784885D01*
X21107027Y-3861498D01*
X21063457Y-3934190D01*
X21012972Y-4002262D01*
X20956057Y-4065057D01*
X20893262Y-4121972D01*
X20825190Y-4172457D01*
X20752498Y-4216027D01*
X20675885Y-4252262D01*
X20596090Y-4280814D01*
X20513880Y-4301406D01*
X20430048Y-4313842D01*
X20345400Y-4318000D01*
X12674600Y-4318000D01*
X12589952Y-4313842D01*
X12506120Y-4301406D01*
X12423910Y-4280814D01*
X12344115Y-4252262D01*
X12267502Y-4216027D01*
X12194810Y-4172457D01*
X12126738Y-4121972D01*
X12063943Y-4065057D01*
X12007028Y-4002262D01*
X11956543Y-3934190D01*
X11912973Y-3861498D01*
X11876738Y-3784885D01*
X11848186Y-3705090D01*
X11827594Y-3622880D01*
X11815158Y-3539048D01*
X11811000Y-3454400D01*
X11811000Y3454400D01*
X11815158Y3539048D01*
X11827594Y3622880D01*
X11848186Y3705090D01*
X11876738Y3784885D01*
X11912973Y3861498D01*
X11956543Y3934190D01*
X12007028Y4002262D01*
X12063943Y4065057D01*
X12126738Y4121972D01*
X12194810Y4172457D01*
X12267502Y4216027D01*
X12344115Y4252262D01*
X12423910Y4280814D01*
X12506120Y4301406D01*
X12589952Y4313842D01*
X12674600Y4318000D01*
X20345400Y4318000D01*
X20430048Y4313842D01*
X20430048Y4313842D01*
G37*
D11*
X16510000Y0D03*
M02*
