M48
; DRILL file {KiCad (5.1.4)-1} date 7/19/2020 11:42:23 PM
; FORMAT={2:4/ absolute / inch / suppress leading zeros}
; #@! TF.CreationDate,2020-07-19T23:42:23-07:00
; #@! TF.GenerationSoftware,Kicad,Pcbnew,(5.1.4)-1
FMAT,2
INCH,TZ
T1C0.0118
T2C0.0240
T3C0.0650
%
G90
G05
T1
X-8750Y750
X-8750Y0
X-8750Y-750
X-8500Y2250
X-8500Y-2250
X-7500Y2250
X-7500Y1400
X-7500Y1000
X-7500Y600
X-7500Y0
X-7500Y-600
X-7500Y-1000
X-7500Y-1400
X-7500Y-2250
X-6500Y2250
X-6500Y0
X-6500Y-2250
X-5500Y2250
X-5500Y1400
X-5500Y1000
X-5500Y600
X-5500Y0
X-5500Y-600
X-5500Y-1000
X-5500Y-1400
X-5500Y-2250
X-4500Y2250
X-4500Y-2250
X-4319Y-1142
X-4008Y-1142
X-3836Y926
X-3250Y-2250
X-2000Y2250
X-2000Y-2250
X-1750Y0
X-1000Y2250
X-1000Y1400
X-1000Y1000
X-1000Y600
X-1000Y-600
X-1000Y-1000
X-1000Y-1400
X-1000Y-2250
X0Y2250
X0Y-2250
X1000Y2250
X1000Y1400
X1000Y1000
X1000Y600
X1000Y-600
X1000Y-1000
X1000Y-1400
X1000Y-2250
X2000Y2250
X2000Y-2250
X2100Y-650
X2250Y1250
X2876Y1456
X3250Y2250
X3851Y-934
X4150Y310
X4500Y2250
X4500Y-2250
X5500Y2250
X5500Y1400
X5500Y1000
X5500Y600
X5500Y0
X5500Y-600
X5500Y-1000
X5500Y-1400
X5500Y-2250
X6500Y2250
X6500Y0
X6500Y-2250
X7500Y2250
X7500Y1400
X7500Y1000
X7500Y600
X7500Y0
X7500Y-600
X7500Y-1000
X7500Y-1400
X7500Y-2250
X8500Y2250
X8500Y-2250
X8750Y750
X8750Y0
X8750Y-750
T2
X-3500Y750
X-3500Y250
X-3500Y-250
X-3500Y-750
X-3000Y750
X-3000Y250
X-3000Y-250
X-3000Y-750
X3000Y750
X3000Y250
X3000Y-250
X3000Y-750
X3500Y750
X3500Y250
X3500Y-250
X3500Y-750
T3
X-9375Y2050
X9375Y2050
X-3250Y1950
X-9375Y-2050
X3250Y-1950
X9375Y-2050
T0
M30
