G04 #@! TF.GenerationSoftware,KiCad,Pcbnew,(5.1.4)-1*
G04 #@! TF.CreationDate,2020-07-19T23:42:20-07:00*
G04 #@! TF.ProjectId,SkateLightBackLEDBoard,536b6174-654c-4696-9768-744261636b4c,rev?*
G04 #@! TF.SameCoordinates,Original*
G04 #@! TF.FileFunction,Copper,L2,Bot*
G04 #@! TF.FilePolarity,Positive*
%FSLAX46Y46*%
G04 Gerber Fmt 4.6, Leading zero omitted, Abs format (unit mm)*
G04 Created by KiCad (PCBNEW (5.1.4)-1) date 2020-07-19 23:42:20*
%MOMM*%
%LPD*%
G04 APERTURE LIST*
%ADD10C,1.016000*%
%ADD11C,2.921000*%
%ADD12C,0.100000*%
%ADD13C,8.636000*%
%ADD14C,0.600000*%
%ADD15C,0.200000*%
%ADD16C,0.350000*%
G04 APERTURE END LIST*
D10*
X7620000Y-1905000D03*
X8890000Y-1905000D03*
X7620000Y-635000D03*
X8890000Y-635000D03*
X7620000Y635000D03*
X8890000Y635000D03*
X7620000Y1905000D03*
X8890000Y1905000D03*
D11*
X8255000Y-4953000D03*
X-8255000Y4953000D03*
D10*
X-8890000Y-1905000D03*
X-7620000Y-1905000D03*
X-8890000Y-635000D03*
X-7620000Y-635000D03*
X-8890000Y635000D03*
X-7620000Y635000D03*
X-8890000Y1905000D03*
X-7620000Y1905000D03*
D11*
X23812500Y5207000D03*
X23812500Y-5207000D03*
X-23812500Y5207000D03*
X-23812500Y-5207000D03*
D12*
G36*
X-12589952Y4313842D02*
G01*
X-12506120Y4301406D01*
X-12423910Y4280814D01*
X-12344115Y4252262D01*
X-12267502Y4216027D01*
X-12194810Y4172457D01*
X-12126738Y4121972D01*
X-12063943Y4065057D01*
X-12007028Y4002262D01*
X-11956543Y3934190D01*
X-11912973Y3861498D01*
X-11876738Y3784885D01*
X-11848186Y3705090D01*
X-11827594Y3622880D01*
X-11815158Y3539048D01*
X-11811000Y3454400D01*
X-11811000Y-3454400D01*
X-11815158Y-3539048D01*
X-11827594Y-3622880D01*
X-11848186Y-3705090D01*
X-11876738Y-3784885D01*
X-11912973Y-3861498D01*
X-11956543Y-3934190D01*
X-12007028Y-4002262D01*
X-12063943Y-4065057D01*
X-12126738Y-4121972D01*
X-12194810Y-4172457D01*
X-12267502Y-4216027D01*
X-12344115Y-4252262D01*
X-12423910Y-4280814D01*
X-12506120Y-4301406D01*
X-12589952Y-4313842D01*
X-12674600Y-4318000D01*
X-20345400Y-4318000D01*
X-20430048Y-4313842D01*
X-20513880Y-4301406D01*
X-20596090Y-4280814D01*
X-20675885Y-4252262D01*
X-20752498Y-4216027D01*
X-20825190Y-4172457D01*
X-20893262Y-4121972D01*
X-20956057Y-4065057D01*
X-21012972Y-4002262D01*
X-21063457Y-3934190D01*
X-21107027Y-3861498D01*
X-21143262Y-3784885D01*
X-21171814Y-3705090D01*
X-21192406Y-3622880D01*
X-21204842Y-3539048D01*
X-21209000Y-3454400D01*
X-21209000Y3454400D01*
X-21204842Y3539048D01*
X-21192406Y3622880D01*
X-21171814Y3705090D01*
X-21143262Y3784885D01*
X-21107027Y3861498D01*
X-21063457Y3934190D01*
X-21012972Y4002262D01*
X-20956057Y4065057D01*
X-20893262Y4121972D01*
X-20825190Y4172457D01*
X-20752498Y4216027D01*
X-20675885Y4252262D01*
X-20596090Y4280814D01*
X-20513880Y4301406D01*
X-20430048Y4313842D01*
X-20345400Y4318000D01*
X-12674600Y4318000D01*
X-12589952Y4313842D01*
X-12589952Y4313842D01*
G37*
D13*
X-16510000Y0D03*
D12*
G36*
X3920048Y4313842D02*
G01*
X4003880Y4301406D01*
X4086090Y4280814D01*
X4165885Y4252262D01*
X4242498Y4216027D01*
X4315190Y4172457D01*
X4383262Y4121972D01*
X4446057Y4065057D01*
X4502972Y4002262D01*
X4553457Y3934190D01*
X4597027Y3861498D01*
X4633262Y3784885D01*
X4661814Y3705090D01*
X4682406Y3622880D01*
X4694842Y3539048D01*
X4699000Y3454400D01*
X4699000Y-3454400D01*
X4694842Y-3539048D01*
X4682406Y-3622880D01*
X4661814Y-3705090D01*
X4633262Y-3784885D01*
X4597027Y-3861498D01*
X4553457Y-3934190D01*
X4502972Y-4002262D01*
X4446057Y-4065057D01*
X4383262Y-4121972D01*
X4315190Y-4172457D01*
X4242498Y-4216027D01*
X4165885Y-4252262D01*
X4086090Y-4280814D01*
X4003880Y-4301406D01*
X3920048Y-4313842D01*
X3835400Y-4318000D01*
X-3835400Y-4318000D01*
X-3920048Y-4313842D01*
X-4003880Y-4301406D01*
X-4086090Y-4280814D01*
X-4165885Y-4252262D01*
X-4242498Y-4216027D01*
X-4315190Y-4172457D01*
X-4383262Y-4121972D01*
X-4446057Y-4065057D01*
X-4502972Y-4002262D01*
X-4553457Y-3934190D01*
X-4597027Y-3861498D01*
X-4633262Y-3784885D01*
X-4661814Y-3705090D01*
X-4682406Y-3622880D01*
X-4694842Y-3539048D01*
X-4699000Y-3454400D01*
X-4699000Y3454400D01*
X-4694842Y3539048D01*
X-4682406Y3622880D01*
X-4661814Y3705090D01*
X-4633262Y3784885D01*
X-4597027Y3861498D01*
X-4553457Y3934190D01*
X-4502972Y4002262D01*
X-4446057Y4065057D01*
X-4383262Y4121972D01*
X-4315190Y4172457D01*
X-4242498Y4216027D01*
X-4165885Y4252262D01*
X-4086090Y4280814D01*
X-4003880Y4301406D01*
X-3920048Y4313842D01*
X-3835400Y4318000D01*
X3835400Y4318000D01*
X3920048Y4313842D01*
X3920048Y4313842D01*
G37*
D13*
X0Y0D03*
D12*
G36*
X20430048Y4313842D02*
G01*
X20513880Y4301406D01*
X20596090Y4280814D01*
X20675885Y4252262D01*
X20752498Y4216027D01*
X20825190Y4172457D01*
X20893262Y4121972D01*
X20956057Y4065057D01*
X21012972Y4002262D01*
X21063457Y3934190D01*
X21107027Y3861498D01*
X21143262Y3784885D01*
X21171814Y3705090D01*
X21192406Y3622880D01*
X21204842Y3539048D01*
X21209000Y3454400D01*
X21209000Y-3454400D01*
X21204842Y-3539048D01*
X21192406Y-3622880D01*
X21171814Y-3705090D01*
X21143262Y-3784885D01*
X21107027Y-3861498D01*
X21063457Y-3934190D01*
X21012972Y-4002262D01*
X20956057Y-4065057D01*
X20893262Y-4121972D01*
X20825190Y-4172457D01*
X20752498Y-4216027D01*
X20675885Y-4252262D01*
X20596090Y-4280814D01*
X20513880Y-4301406D01*
X20430048Y-4313842D01*
X20345400Y-4318000D01*
X12674600Y-4318000D01*
X12589952Y-4313842D01*
X12506120Y-4301406D01*
X12423910Y-4280814D01*
X12344115Y-4252262D01*
X12267502Y-4216027D01*
X12194810Y-4172457D01*
X12126738Y-4121972D01*
X12063943Y-4065057D01*
X12007028Y-4002262D01*
X11956543Y-3934190D01*
X11912973Y-3861498D01*
X11876738Y-3784885D01*
X11848186Y-3705090D01*
X11827594Y-3622880D01*
X11815158Y-3539048D01*
X11811000Y-3454400D01*
X11811000Y3454400D01*
X11815158Y3539048D01*
X11827594Y3622880D01*
X11848186Y3705090D01*
X11876738Y3784885D01*
X11912973Y3861498D01*
X11956543Y3934190D01*
X12007028Y4002262D01*
X12063943Y4065057D01*
X12126738Y4121972D01*
X12194810Y4172457D01*
X12267502Y4216027D01*
X12344115Y4252262D01*
X12423910Y4280814D01*
X12506120Y4301406D01*
X12589952Y4313842D01*
X12674600Y4318000D01*
X20345400Y4318000D01*
X20430048Y4313842D01*
X20430048Y4313842D01*
G37*
D13*
X16510000Y0D03*
D14*
X-8255000Y-5715000D03*
X8255000Y5715000D03*
X-19050000Y5715000D03*
X-19050000Y-5715000D03*
X-13970000Y-5715000D03*
X-2540000Y-5715000D03*
X2540000Y-5715000D03*
X-2540000Y5715000D03*
X2540000Y5715000D03*
X13970000Y5715000D03*
X19050000Y5715000D03*
X19050000Y-5715000D03*
X13970000Y-5715000D03*
X-13970000Y5715000D03*
X-19050000Y0D03*
X-13970000Y0D03*
X13970000Y0D03*
X19050000Y0D03*
X22225000Y0D03*
X-22225000Y0D03*
X16510000Y5715000D03*
X11430000Y5715000D03*
X5080000Y5715000D03*
X0Y5715000D03*
X-5080000Y5715000D03*
X-11430000Y5715000D03*
X-16510000Y5715000D03*
X-21590000Y5715000D03*
X-21590000Y-5715000D03*
X-16510000Y-5715000D03*
X-11430000Y-5715000D03*
X0Y-5715000D03*
X5080000Y-5715000D03*
X11430000Y-5715000D03*
X16510000Y-5715000D03*
X21590000Y-5715000D03*
X21590000Y5715000D03*
X-13970000Y-3556000D03*
X-13970000Y-1524000D03*
X-19050000Y-3556000D03*
X-19050000Y-1524000D03*
X-19050000Y3556000D03*
X-19050000Y1524000D03*
X-13970000Y3556000D03*
X-13970000Y1524000D03*
X-16510000Y0D03*
X-22225000Y1905000D03*
X-22225000Y-1905000D03*
X-2540000Y3556000D03*
X-2540000Y1524000D03*
X-2540000Y-3556000D03*
X-2540000Y-1524000D03*
X2540000Y-3556000D03*
X2540000Y-1524000D03*
X2540000Y1524000D03*
X2540000Y3556000D03*
X5715000Y3175000D03*
X13970000Y3556000D03*
X13970000Y1524000D03*
X13970000Y-1524000D03*
X13970000Y-3556000D03*
X19050000Y-3556000D03*
X19050000Y-1524000D03*
X16510000Y0D03*
X19050000Y1524000D03*
X19050000Y3556000D03*
X22225000Y1905000D03*
X22225000Y-1905000D03*
X-4445000Y0D03*
X5334000Y-1651000D03*
X9781540Y-2372360D03*
X-9743440Y2352040D03*
X-19050000Y2540000D03*
X-13970000Y2540000D03*
X-19050000Y-2540000D03*
X-13970000Y-2540000D03*
X-2540000Y-2540000D03*
X2540000Y-2540000D03*
X-2540000Y2540000D03*
X2540000Y2540000D03*
X-5080000Y-5715000D03*
X13970000Y2540000D03*
X19050000Y2540000D03*
X13970000Y-2540000D03*
X19050000Y-2540000D03*
X-10970000Y-2900000D03*
X-10180000Y-2900000D03*
X10541000Y787500D03*
X7305000Y3699000D03*
D15*
X9781540Y-1526540D02*
X8890000Y-635000D01*
X9781540Y-2372360D02*
X9781540Y-1526540D01*
X-8255000Y3840480D02*
X-8255000Y4953000D01*
X-9743440Y2352040D02*
X-8255000Y3840480D01*
X-10970000Y-175000D02*
X-9397999Y1397001D01*
X-9397999Y1397001D02*
X-8890000Y1905000D01*
X-10970000Y-2900000D02*
X-10970000Y-175000D01*
X-9975000Y-635000D02*
X-8890000Y-635000D01*
X-10479999Y-2600001D02*
X-10479999Y-1139999D01*
X-10180000Y-2900000D02*
X-10479999Y-2600001D01*
X-10479999Y-1139999D02*
X-9975000Y-635000D01*
X10541000Y1379394D02*
X10541000Y787500D01*
X7305000Y3699000D02*
X8221394Y3699000D01*
X8221394Y3699000D02*
X10541000Y1379394D01*
D16*
X7305000Y3649000D02*
X7305000Y3699000D01*
X6223000Y2567000D02*
X7305000Y3649000D01*
X6223000Y-3175000D02*
X6223000Y2567000D01*
X4752590Y-4645410D02*
X6223000Y-3175000D01*
X-8890000Y-635000D02*
X-9725401Y-1470401D01*
X-9725401Y-1470401D02*
X-9725401Y-2305993D01*
X-7713153Y-2740401D02*
X-5808144Y-4645410D01*
X-9725401Y-2305993D02*
X-9290993Y-2740401D01*
X-9290993Y-2740401D02*
X-7713153Y-2740401D01*
X-5808144Y-4645410D02*
X4752590Y-4645410D01*
M02*
