G04 #@! TF.GenerationSoftware,KiCad,Pcbnew,(5.1.4)-1*
G04 #@! TF.CreationDate,2019-11-14T22:55:44-08:00*
G04 #@! TF.ProjectId,SkateLightLEDBoard,536b6174-654c-4696-9768-744c4544426f,rev?*
G04 #@! TF.SameCoordinates,Original*
G04 #@! TF.FileFunction,Copper,L2,Bot*
G04 #@! TF.FilePolarity,Positive*
%FSLAX46Y46*%
G04 Gerber Fmt 4.6, Leading zero omitted, Abs format (unit mm)*
G04 Created by KiCad (PCBNEW (5.1.4)-1) date 2019-11-14 22:55:44*
%MOMM*%
%LPD*%
G04 APERTURE LIST*
%ADD10C,1.016000*%
%ADD11C,2.921000*%
%ADD12C,2.400000*%
%ADD13C,0.800000*%
%ADD14C,0.250000*%
%ADD15C,1.000000*%
%ADD16C,0.200000*%
%ADD17C,0.152400*%
G04 APERTURE END LIST*
D10*
X-8890000Y-1905000D03*
X-7620000Y-1905000D03*
X-8890000Y-635000D03*
X-7620000Y-635000D03*
X-8890000Y635000D03*
X-7620000Y635000D03*
X-8890000Y1905000D03*
X-7620000Y1905000D03*
D11*
X8255000Y-4953000D03*
X8255000Y4953000D03*
X-8255000Y-4953000D03*
X-8255000Y4953000D03*
D10*
X7620000Y-1905000D03*
X8890000Y-1905000D03*
X7620000Y-635000D03*
X8890000Y-635000D03*
X7620000Y635000D03*
X8890000Y635000D03*
X7620000Y1905000D03*
X8890000Y1905000D03*
D11*
X23812500Y5207000D03*
X23812500Y-5207000D03*
X-23812500Y5207000D03*
X-23812500Y-5207000D03*
D12*
X20933000Y4423000D03*
X12087000Y-4423000D03*
X4423000Y4423000D03*
X-4423000Y-4423000D03*
X-12087000Y4423000D03*
X-20933000Y-4423000D03*
D13*
X9786398Y2556260D03*
X5102860Y2176780D03*
X7236460Y2923540D03*
X10716260Y4036060D03*
D14*
X7620000Y1905000D02*
X8577688Y2862688D01*
X8577688Y2862688D02*
X9479970Y2862688D01*
X9479970Y2862688D02*
X9786398Y2556260D01*
D15*
X6155262Y1381318D02*
X6901580Y635000D01*
X6901580Y635000D02*
X7620000Y635000D01*
X6155262Y2690738D02*
X6155262Y1381318D01*
X4423000Y4423000D02*
X6155262Y2690738D01*
X9608420Y-635000D02*
X8890000Y-635000D01*
X10887001Y-1913581D02*
X9608420Y-635000D01*
X10887001Y-3223001D02*
X10887001Y-1913581D01*
X12087000Y-4423000D02*
X10887001Y-3223001D01*
X14596419Y5622999D02*
X9608420Y635000D01*
X9608420Y635000D02*
X8890000Y635000D01*
X19733001Y5622999D02*
X14596419Y5622999D01*
X20933000Y4423000D02*
X19733001Y5622999D01*
X-6901580Y-635000D02*
X-7620000Y-635000D01*
X-5622999Y-1913581D02*
X-6901580Y-635000D01*
X-5622999Y-3223001D02*
X-5622999Y-1913581D01*
X-4423000Y-4423000D02*
X-5622999Y-3223001D01*
X-9608420Y635000D02*
X-8890000Y635000D01*
X-10887001Y1913581D02*
X-9608420Y635000D01*
X-10887001Y3223001D02*
X-10887001Y1913581D01*
X-12087000Y4423000D02*
X-10887001Y3223001D01*
X-13286999Y-5622999D02*
X-12087000Y-4423000D01*
X-19733001Y-5622999D02*
X-13286999Y-5622999D01*
X-20933000Y-4423000D02*
X-19733001Y-5622999D01*
X-9608420Y-635000D02*
X-8890000Y-635000D01*
X-10887001Y-1913581D02*
X-9608420Y-635000D01*
X-10887001Y-3223001D02*
X-10887001Y-1913581D01*
X-12087000Y-4423000D02*
X-10887001Y-3223001D01*
D16*
X5102860Y-513254D02*
X5102860Y2176780D01*
X8890000Y-1905000D02*
X8129599Y-2665401D01*
X7255007Y-2665401D02*
X5102860Y-513254D01*
X8129599Y-2665401D02*
X7255007Y-2665401D01*
X8118704Y3240099D02*
X9513899Y3240099D01*
X7802145Y2923540D02*
X8118704Y3240099D01*
X7236460Y2923540D02*
X7802145Y2923540D01*
X9513899Y3240099D02*
X10309860Y4036060D01*
X10309860Y4036060D02*
X10716260Y4036060D01*
D17*
G36*
X24046977Y6389146D02*
G01*
X24272131Y6321087D01*
X24479769Y6210594D01*
X24661994Y6061874D01*
X24811861Y5880592D01*
X24923662Y5673655D01*
X24993142Y5448940D01*
X25017650Y5215015D01*
X24996254Y4980779D01*
X24929769Y4755161D01*
X24820727Y4546751D01*
X24673283Y4363494D01*
X24493052Y4212365D01*
X24286898Y4099120D01*
X24062680Y4028077D01*
X23822046Y4001168D01*
X23712678Y4004450D01*
X23712535Y4004440D01*
X23651689Y4006439D01*
X23635983Y4005418D01*
X23620244Y4005523D01*
X23616715Y4005176D01*
X23468818Y3989581D01*
X23446230Y3984936D01*
X23423658Y3980623D01*
X23420268Y3979598D01*
X23420262Y3979597D01*
X23420256Y3979595D01*
X23278212Y3935573D01*
X23256947Y3926626D01*
X23235651Y3918014D01*
X23232529Y3916352D01*
X23232519Y3916348D01*
X23232511Y3916343D01*
X23101726Y3845572D01*
X23082657Y3832700D01*
X23063383Y3820079D01*
X23060636Y3817837D01*
X22946080Y3723003D01*
X22929824Y3706622D01*
X22913422Y3690550D01*
X22911168Y3687823D01*
X22911161Y3687816D01*
X22911156Y3687808D01*
X22817208Y3572539D01*
X22804438Y3553306D01*
X22791474Y3534359D01*
X22789794Y3531250D01*
X22789788Y3531241D01*
X22789784Y3531232D01*
X22720014Y3399908D01*
X22711225Y3378563D01*
X22702187Y3357457D01*
X22701139Y3354069D01*
X22658203Y3211685D01*
X22653723Y3189024D01*
X22648961Y3166582D01*
X22648592Y3163064D01*
X22648590Y3163054D01*
X22648590Y3163045D01*
X22636607Y3040410D01*
X22636600Y3040388D01*
X22632924Y3003064D01*
X22632925Y12469D01*
X22632924Y-3003064D01*
X22633436Y-3008265D01*
X22635559Y-3061562D01*
X22637717Y-3077155D01*
X22638755Y-3092856D01*
X22639357Y-3096351D01*
X22665644Y-3242726D01*
X22671922Y-3264941D01*
X22677857Y-3287118D01*
X22679126Y-3290429D01*
X22733343Y-3428910D01*
X22743804Y-3449458D01*
X22753945Y-3470085D01*
X22755830Y-3473082D01*
X22755833Y-3473087D01*
X22755836Y-3473091D01*
X22835915Y-3598399D01*
X22850183Y-3616543D01*
X22864123Y-3634788D01*
X22866553Y-3637361D01*
X22866558Y-3637367D01*
X22866563Y-3637372D01*
X22969455Y-3744738D01*
X22986929Y-3759726D01*
X23004193Y-3774956D01*
X23007083Y-3777011D01*
X23128876Y-3862352D01*
X23148955Y-3873675D01*
X23168822Y-3885247D01*
X23172056Y-3886702D01*
X23308105Y-3946761D01*
X23330039Y-3953981D01*
X23351737Y-3961460D01*
X23355182Y-3962257D01*
X23355192Y-3962260D01*
X23355202Y-3962261D01*
X23500315Y-3994749D01*
X23523186Y-3997565D01*
X23545972Y-4000694D01*
X23549516Y-4000807D01*
X23549517Y-4000807D01*
X23698188Y-4004490D01*
X23698411Y-4004474D01*
X23698937Y-4004490D01*
X23958976Y-4010759D01*
X24188536Y-4061991D01*
X24403777Y-4156838D01*
X24596491Y-4291682D01*
X24759348Y-4461395D01*
X24886136Y-4659503D01*
X24972031Y-4878466D01*
X25013761Y-5109946D01*
X25009734Y-5345124D01*
X24960106Y-5575033D01*
X24866765Y-5790929D01*
X24733268Y-5984583D01*
X24564699Y-6148619D01*
X24367480Y-6276788D01*
X24149119Y-6364210D01*
X23911139Y-6408829D01*
X23804981Y-6413500D01*
X-23799449Y-6413500D01*
X-24046977Y-6389146D01*
X-24272129Y-6321087D01*
X-24479766Y-6210596D01*
X-24661992Y-6061876D01*
X-24811860Y-5880595D01*
X-24923662Y-5673655D01*
X-24993142Y-5448937D01*
X-25017650Y-5215014D01*
X-24996254Y-4980779D01*
X-24929769Y-4755161D01*
X-24820728Y-4546754D01*
X-24673284Y-4363496D01*
X-24576449Y-4282295D01*
X-22361600Y-4282295D01*
X-22361600Y-4563705D01*
X-22306699Y-4839707D01*
X-22199009Y-5099696D01*
X-22042666Y-5333679D01*
X-21843679Y-5532666D01*
X-21609696Y-5689009D01*
X-21349707Y-5796699D01*
X-21073705Y-5851600D01*
X-20792295Y-5851600D01*
X-20577518Y-5808878D01*
X-20273510Y-6112885D01*
X-20250692Y-6140690D01*
X-20139748Y-6231739D01*
X-20024363Y-6293413D01*
X-20013173Y-6299394D01*
X-19875832Y-6341056D01*
X-19733001Y-6355124D01*
X-19697212Y-6351599D01*
X-13322788Y-6351599D01*
X-13286999Y-6355124D01*
X-13251210Y-6351599D01*
X-13144168Y-6341056D01*
X-13006827Y-6299394D01*
X-12880252Y-6231739D01*
X-12769308Y-6140690D01*
X-12746485Y-6112880D01*
X-11546496Y-4912892D01*
X-11546492Y-4912887D01*
X-10397110Y-3763506D01*
X-10369311Y-3740692D01*
X-10278261Y-3629748D01*
X-10210606Y-3503173D01*
X-10168944Y-3365832D01*
X-10158401Y-3258790D01*
X-10158401Y-3258789D01*
X-10154876Y-3223001D01*
X-10158401Y-3187212D01*
X-10158401Y-2215376D01*
X-9306624Y-1363600D01*
X-9002768Y-1363600D01*
X-8962549Y-1371600D01*
X-8817451Y-1371600D01*
X-8675142Y-1343293D01*
X-8541089Y-1287766D01*
X-8420445Y-1207155D01*
X-8317845Y-1104555D01*
X-8255000Y-1010500D01*
X-8192155Y-1104555D01*
X-8089555Y-1207155D01*
X-7995500Y-1270000D01*
X-8089555Y-1332845D01*
X-8192155Y-1435445D01*
X-8272766Y-1556089D01*
X-8328293Y-1690142D01*
X-8356600Y-1832451D01*
X-8356600Y-1977549D01*
X-8328293Y-2119858D01*
X-8272766Y-2253911D01*
X-8192155Y-2374555D01*
X-8089555Y-2477155D01*
X-7968911Y-2557766D01*
X-7834858Y-2613293D01*
X-7692549Y-2641600D01*
X-7547451Y-2641600D01*
X-7405142Y-2613293D01*
X-7271089Y-2557766D01*
X-7150445Y-2477155D01*
X-7047845Y-2374555D01*
X-6967234Y-2253911D01*
X-6911707Y-2119858D01*
X-6883400Y-1977549D01*
X-6883400Y-1832451D01*
X-6911707Y-1690142D01*
X-6936367Y-1630609D01*
X-6351598Y-2215378D01*
X-6351599Y-3187212D01*
X-6355124Y-3223001D01*
X-6348041Y-3294909D01*
X-6341056Y-3365831D01*
X-6299394Y-3503172D01*
X-6231739Y-3629747D01*
X-6140690Y-3740691D01*
X-6112885Y-3763511D01*
X-5808878Y-4067518D01*
X-5851600Y-4282295D01*
X-5851600Y-4563705D01*
X-5796699Y-4839707D01*
X-5689009Y-5099696D01*
X-5532666Y-5333679D01*
X-5333679Y-5532666D01*
X-5099696Y-5689009D01*
X-4839707Y-5796699D01*
X-4563705Y-5851600D01*
X-4282295Y-5851600D01*
X-4006293Y-5796699D01*
X-3746304Y-5689009D01*
X-3512321Y-5532666D01*
X-3313334Y-5333679D01*
X-3156991Y-5099696D01*
X-3049301Y-4839707D01*
X-2994400Y-4563705D01*
X-2994400Y-4282295D01*
X-3049301Y-4006293D01*
X-3156991Y-3746304D01*
X-3307259Y-3521413D01*
X-3078053Y-3750619D01*
X-2287200Y-4279050D01*
X-1408451Y-4643040D01*
X-475576Y-4828600D01*
X475576Y-4828600D01*
X1408451Y-4643040D01*
X2287200Y-4279050D01*
X3078053Y-3750619D01*
X3750619Y-3078053D01*
X4279050Y-2287200D01*
X4643040Y-1408451D01*
X4796698Y-635960D01*
X4797805Y-639611D01*
X4828318Y-696697D01*
X4852120Y-725700D01*
X4869381Y-746733D01*
X4881916Y-757020D01*
X7011245Y-2886350D01*
X7021528Y-2898880D01*
X7034058Y-2909163D01*
X7034060Y-2909165D01*
X7071563Y-2939943D01*
X7102076Y-2956252D01*
X7128649Y-2970456D01*
X7190590Y-2989246D01*
X7238872Y-2994001D01*
X7238884Y-2994001D01*
X7255006Y-2995589D01*
X7271128Y-2994001D01*
X8113467Y-2994001D01*
X8129599Y-2995590D01*
X8145731Y-2994001D01*
X8145734Y-2994001D01*
X8194016Y-2989246D01*
X8255957Y-2970456D01*
X8313042Y-2939943D01*
X8363078Y-2898880D01*
X8373365Y-2886345D01*
X8654831Y-2604880D01*
X8675142Y-2613293D01*
X8817451Y-2641600D01*
X8962549Y-2641600D01*
X9104858Y-2613293D01*
X9238911Y-2557766D01*
X9359555Y-2477155D01*
X9462155Y-2374555D01*
X9542766Y-2253911D01*
X9598293Y-2119858D01*
X9626600Y-1977549D01*
X9626600Y-1832451D01*
X9598293Y-1690142D01*
X9573633Y-1630609D01*
X10158402Y-2215378D01*
X10158401Y-3187212D01*
X10154876Y-3223001D01*
X10161959Y-3294909D01*
X10168944Y-3365831D01*
X10210606Y-3503172D01*
X10278261Y-3629747D01*
X10369310Y-3740691D01*
X10397115Y-3763511D01*
X10701122Y-4067518D01*
X10658400Y-4282295D01*
X10658400Y-4563705D01*
X10713301Y-4839707D01*
X10820991Y-5099696D01*
X10977334Y-5333679D01*
X11176321Y-5532666D01*
X11410304Y-5689009D01*
X11670293Y-5796699D01*
X11946295Y-5851600D01*
X12227705Y-5851600D01*
X12503707Y-5796699D01*
X12763696Y-5689009D01*
X12997679Y-5532666D01*
X13196666Y-5333679D01*
X13353009Y-5099696D01*
X13460699Y-4839707D01*
X13515600Y-4563705D01*
X13515600Y-4282295D01*
X13460699Y-4006293D01*
X13353009Y-3746304D01*
X13202741Y-3521413D01*
X13431947Y-3750619D01*
X14222800Y-4279050D01*
X15101549Y-4643040D01*
X16034424Y-4828600D01*
X16985576Y-4828600D01*
X17918451Y-4643040D01*
X18797200Y-4279050D01*
X19588053Y-3750619D01*
X20260619Y-3078053D01*
X20789050Y-2287200D01*
X21153040Y-1408451D01*
X21338600Y-475576D01*
X21338600Y475576D01*
X21153040Y1408451D01*
X20789050Y2287200D01*
X20260619Y3078053D01*
X20031413Y3307259D01*
X20256304Y3156991D01*
X20516293Y3049301D01*
X20792295Y2994400D01*
X21073705Y2994400D01*
X21349707Y3049301D01*
X21609696Y3156991D01*
X21843679Y3313334D01*
X22042666Y3512321D01*
X22199009Y3746304D01*
X22306699Y4006293D01*
X22361600Y4282295D01*
X22361600Y4563705D01*
X22306699Y4839707D01*
X22199009Y5099696D01*
X22042666Y5333679D01*
X21843679Y5532666D01*
X21609696Y5689009D01*
X21349707Y5796699D01*
X21073705Y5851600D01*
X20792295Y5851600D01*
X20577518Y5808878D01*
X20273515Y6112880D01*
X20250692Y6140690D01*
X20139748Y6231739D01*
X20013173Y6299394D01*
X19875832Y6341056D01*
X19768790Y6351599D01*
X19733001Y6355124D01*
X19697212Y6351599D01*
X14632208Y6351599D01*
X14596419Y6355124D01*
X14560630Y6351599D01*
X14453588Y6341056D01*
X14316247Y6299394D01*
X14189672Y6231739D01*
X14078728Y6140690D01*
X14055910Y6112886D01*
X10409442Y2466418D01*
X10414998Y2494348D01*
X10414998Y2618172D01*
X10390842Y2739616D01*
X10343457Y2854014D01*
X10274664Y2956969D01*
X10187107Y3044526D01*
X10084152Y3113319D01*
X9969754Y3160704D01*
X9910917Y3172407D01*
X10300928Y3562417D01*
X10315551Y3547794D01*
X10418506Y3479001D01*
X10532904Y3431616D01*
X10654348Y3407460D01*
X10778172Y3407460D01*
X10899616Y3431616D01*
X11014014Y3479001D01*
X11116969Y3547794D01*
X11204526Y3635351D01*
X11273319Y3738306D01*
X11320704Y3852704D01*
X11344860Y3974148D01*
X11344860Y4097972D01*
X11320704Y4219416D01*
X11273319Y4333814D01*
X11204526Y4436769D01*
X11116969Y4524326D01*
X11014014Y4593119D01*
X10899616Y4640504D01*
X10778172Y4664660D01*
X10654348Y4664660D01*
X10532904Y4640504D01*
X10418506Y4593119D01*
X10315551Y4524326D01*
X10227994Y4436769D01*
X10159201Y4333814D01*
X10156175Y4326508D01*
X10126416Y4310602D01*
X10096502Y4286052D01*
X10076381Y4269539D01*
X10066098Y4257009D01*
X9377789Y3568699D01*
X8134835Y3568699D01*
X8118703Y3570288D01*
X8102571Y3568699D01*
X8102569Y3568699D01*
X8054287Y3563944D01*
X8001138Y3547821D01*
X7992346Y3545154D01*
X7935260Y3514641D01*
X7897757Y3483863D01*
X7885225Y3473578D01*
X7874942Y3461048D01*
X7730100Y3316206D01*
X7724726Y3324249D01*
X7637169Y3411806D01*
X7534214Y3480599D01*
X7419816Y3527984D01*
X7298372Y3552140D01*
X7174548Y3552140D01*
X7053104Y3527984D01*
X6938706Y3480599D01*
X6835751Y3411806D01*
X6748194Y3324249D01*
X6679401Y3221294D01*
X6673696Y3207522D01*
X6672952Y3208429D01*
X6645153Y3231243D01*
X5808878Y4067518D01*
X5851600Y4282295D01*
X5851600Y4563705D01*
X5796699Y4839707D01*
X5689009Y5099696D01*
X5532666Y5333679D01*
X5333679Y5532666D01*
X5099696Y5689009D01*
X4839707Y5796699D01*
X4563705Y5851600D01*
X4282295Y5851600D01*
X4006293Y5796699D01*
X3746304Y5689009D01*
X3512321Y5532666D01*
X3313334Y5333679D01*
X3156991Y5099696D01*
X3049301Y4839707D01*
X2994400Y4563705D01*
X2994400Y4282295D01*
X3049301Y4006293D01*
X3156991Y3746304D01*
X3307259Y3521413D01*
X3078053Y3750619D01*
X2287200Y4279050D01*
X1408451Y4643040D01*
X475576Y4828600D01*
X-475576Y4828600D01*
X-1408451Y4643040D01*
X-2287200Y4279050D01*
X-3078053Y3750619D01*
X-3750619Y3078053D01*
X-4279050Y2287200D01*
X-4643040Y1408451D01*
X-4828600Y475576D01*
X-4828600Y-475576D01*
X-4643040Y-1408451D01*
X-4279050Y-2287200D01*
X-3750619Y-3078053D01*
X-3521413Y-3307259D01*
X-3746304Y-3156991D01*
X-4006293Y-3049301D01*
X-4282295Y-2994400D01*
X-4563705Y-2994400D01*
X-4778482Y-3037122D01*
X-4894399Y-2921206D01*
X-4894399Y-1949372D01*
X-4890874Y-1913581D01*
X-4904941Y-1770750D01*
X-4946604Y-1633409D01*
X-4974534Y-1581156D01*
X-5014259Y-1506834D01*
X-5105308Y-1395890D01*
X-5133113Y-1373072D01*
X-6361066Y-145119D01*
X-6383889Y-117309D01*
X-6494833Y-26260D01*
X-6621408Y41395D01*
X-6758749Y83057D01*
X-6865791Y93600D01*
X-6901580Y97125D01*
X-6937369Y93600D01*
X-7119690Y93600D01*
X-7047845Y165445D01*
X-6967234Y286089D01*
X-6911707Y420142D01*
X-6883400Y562451D01*
X-6883400Y707549D01*
X-6911707Y849858D01*
X-6967234Y983911D01*
X-7047845Y1104555D01*
X-7150445Y1207155D01*
X-7244500Y1270000D01*
X-7150445Y1332845D01*
X-7047845Y1435445D01*
X-6967234Y1556089D01*
X-6911707Y1690142D01*
X-6883400Y1832451D01*
X-6883400Y1977549D01*
X-6911707Y2119858D01*
X-6967234Y2253911D01*
X-7047845Y2374555D01*
X-7150445Y2477155D01*
X-7271089Y2557766D01*
X-7405142Y2613293D01*
X-7547451Y2641600D01*
X-7692549Y2641600D01*
X-7834858Y2613293D01*
X-7968911Y2557766D01*
X-8089555Y2477155D01*
X-8192155Y2374555D01*
X-8255000Y2280500D01*
X-8317845Y2374555D01*
X-8420445Y2477155D01*
X-8541089Y2557766D01*
X-8675142Y2613293D01*
X-8817451Y2641600D01*
X-8962549Y2641600D01*
X-9104858Y2613293D01*
X-9238911Y2557766D01*
X-9359555Y2477155D01*
X-9462155Y2374555D01*
X-9542766Y2253911D01*
X-9598293Y2119858D01*
X-9626600Y1977549D01*
X-9626600Y1832451D01*
X-9598293Y1690142D01*
X-9573633Y1630609D01*
X-10158401Y2215376D01*
X-10158401Y3187212D01*
X-10154876Y3223001D01*
X-10168944Y3365832D01*
X-10210606Y3503173D01*
X-10224510Y3529186D01*
X-10278261Y3629748D01*
X-10369311Y3740692D01*
X-10397110Y3763506D01*
X-10701122Y4067518D01*
X-10658400Y4282295D01*
X-10658400Y4563705D01*
X-10713301Y4839707D01*
X-10820991Y5099696D01*
X-10977334Y5333679D01*
X-11176321Y5532666D01*
X-11410304Y5689009D01*
X-11670293Y5796699D01*
X-11946295Y5851600D01*
X-12227705Y5851600D01*
X-12503707Y5796699D01*
X-12763696Y5689009D01*
X-12997679Y5532666D01*
X-13196666Y5333679D01*
X-13353009Y5099696D01*
X-13460699Y4839707D01*
X-13515600Y4563705D01*
X-13515600Y4282295D01*
X-13460699Y4006293D01*
X-13353009Y3746304D01*
X-13202741Y3521413D01*
X-13431947Y3750619D01*
X-14222800Y4279050D01*
X-15101549Y4643040D01*
X-16034424Y4828600D01*
X-16985576Y4828600D01*
X-17918451Y4643040D01*
X-18797200Y4279050D01*
X-19588053Y3750619D01*
X-20260619Y3078053D01*
X-20789050Y2287200D01*
X-21153040Y1408451D01*
X-21338600Y475576D01*
X-21338600Y-475576D01*
X-21153040Y-1408451D01*
X-20789050Y-2287200D01*
X-20260619Y-3078053D01*
X-20031413Y-3307259D01*
X-20256304Y-3156991D01*
X-20516293Y-3049301D01*
X-20792295Y-2994400D01*
X-21073705Y-2994400D01*
X-21349707Y-3049301D01*
X-21609696Y-3156991D01*
X-21843679Y-3313334D01*
X-22042666Y-3512321D01*
X-22199009Y-3746304D01*
X-22306699Y-4006293D01*
X-22361600Y-4282295D01*
X-24576449Y-4282295D01*
X-24493057Y-4212368D01*
X-24286899Y-4099121D01*
X-24062680Y-4028077D01*
X-23822052Y-4001167D01*
X-23712678Y-4004450D01*
X-23712535Y-4004440D01*
X-23651689Y-4006439D01*
X-23635983Y-4005418D01*
X-23620244Y-4005523D01*
X-23616714Y-4005176D01*
X-23468818Y-3989581D01*
X-23446193Y-3984929D01*
X-23423658Y-3980622D01*
X-23420265Y-3979598D01*
X-23420259Y-3979596D01*
X-23278212Y-3935573D01*
X-23256934Y-3926620D01*
X-23235652Y-3918014D01*
X-23232529Y-3916352D01*
X-23232519Y-3916348D01*
X-23232511Y-3916343D01*
X-23101727Y-3845572D01*
X-23082619Y-3832675D01*
X-23063384Y-3820079D01*
X-23060636Y-3817837D01*
X-22946081Y-3723003D01*
X-22929839Y-3706637D01*
X-22913423Y-3690550D01*
X-22911163Y-3687817D01*
X-22817208Y-3572540D01*
X-22804442Y-3553312D01*
X-22791474Y-3534359D01*
X-22789788Y-3531240D01*
X-22720014Y-3399908D01*
X-22711215Y-3378539D01*
X-22702187Y-3357457D01*
X-22701139Y-3354069D01*
X-22658203Y-3211685D01*
X-22653723Y-3189024D01*
X-22648961Y-3166582D01*
X-22648592Y-3163064D01*
X-22648590Y-3163054D01*
X-22648590Y-3163045D01*
X-22636607Y-3040411D01*
X-22636600Y-3040389D01*
X-22632924Y-3003065D01*
X-22632924Y3003065D01*
X-22633436Y3008266D01*
X-22635559Y3061562D01*
X-22637717Y3077155D01*
X-22638755Y3092856D01*
X-22639357Y3096350D01*
X-22665644Y3242726D01*
X-22671922Y3264941D01*
X-22677857Y3287118D01*
X-22679126Y3290429D01*
X-22733343Y3428910D01*
X-22743804Y3449458D01*
X-22753945Y3470085D01*
X-22755830Y3473082D01*
X-22755833Y3473087D01*
X-22755836Y3473091D01*
X-22835915Y3598399D01*
X-22850210Y3616578D01*
X-22864123Y3634789D01*
X-22866553Y3637361D01*
X-22866558Y3637367D01*
X-22866563Y3637372D01*
X-22969455Y3744738D01*
X-22986951Y3759744D01*
X-23004193Y3774955D01*
X-23007083Y3777011D01*
X-23128876Y3862352D01*
X-23148955Y3873675D01*
X-23168822Y3885247D01*
X-23172047Y3886697D01*
X-23172056Y3886702D01*
X-23172065Y3886705D01*
X-23308105Y3946761D01*
X-23330049Y3953984D01*
X-23351737Y3961460D01*
X-23355182Y3962257D01*
X-23355192Y3962260D01*
X-23355202Y3962261D01*
X-23500316Y3994749D01*
X-23523210Y3997568D01*
X-23545972Y4000694D01*
X-23549506Y4000807D01*
X-23549517Y4000808D01*
X-23549527Y4000807D01*
X-23698188Y4004490D01*
X-23698411Y4004474D01*
X-23698936Y4004490D01*
X-23958976Y4010759D01*
X-24188535Y4061991D01*
X-24403777Y4156838D01*
X-24596491Y4291682D01*
X-24759348Y4461395D01*
X-24886136Y4659503D01*
X-24972031Y4878466D01*
X-25013761Y5109947D01*
X-25009734Y5345124D01*
X-24960106Y5575033D01*
X-24866764Y5790931D01*
X-24733264Y5984587D01*
X-24564697Y6148620D01*
X-24367478Y6276789D01*
X-24149119Y6364210D01*
X-23911139Y6408829D01*
X-23804982Y6413500D01*
X23799449Y6413500D01*
X24046977Y6389146D01*
X24046977Y6389146D01*
G37*
X24046977Y6389146D02*
X24272131Y6321087D01*
X24479769Y6210594D01*
X24661994Y6061874D01*
X24811861Y5880592D01*
X24923662Y5673655D01*
X24993142Y5448940D01*
X25017650Y5215015D01*
X24996254Y4980779D01*
X24929769Y4755161D01*
X24820727Y4546751D01*
X24673283Y4363494D01*
X24493052Y4212365D01*
X24286898Y4099120D01*
X24062680Y4028077D01*
X23822046Y4001168D01*
X23712678Y4004450D01*
X23712535Y4004440D01*
X23651689Y4006439D01*
X23635983Y4005418D01*
X23620244Y4005523D01*
X23616715Y4005176D01*
X23468818Y3989581D01*
X23446230Y3984936D01*
X23423658Y3980623D01*
X23420268Y3979598D01*
X23420262Y3979597D01*
X23420256Y3979595D01*
X23278212Y3935573D01*
X23256947Y3926626D01*
X23235651Y3918014D01*
X23232529Y3916352D01*
X23232519Y3916348D01*
X23232511Y3916343D01*
X23101726Y3845572D01*
X23082657Y3832700D01*
X23063383Y3820079D01*
X23060636Y3817837D01*
X22946080Y3723003D01*
X22929824Y3706622D01*
X22913422Y3690550D01*
X22911168Y3687823D01*
X22911161Y3687816D01*
X22911156Y3687808D01*
X22817208Y3572539D01*
X22804438Y3553306D01*
X22791474Y3534359D01*
X22789794Y3531250D01*
X22789788Y3531241D01*
X22789784Y3531232D01*
X22720014Y3399908D01*
X22711225Y3378563D01*
X22702187Y3357457D01*
X22701139Y3354069D01*
X22658203Y3211685D01*
X22653723Y3189024D01*
X22648961Y3166582D01*
X22648592Y3163064D01*
X22648590Y3163054D01*
X22648590Y3163045D01*
X22636607Y3040410D01*
X22636600Y3040388D01*
X22632924Y3003064D01*
X22632925Y12469D01*
X22632924Y-3003064D01*
X22633436Y-3008265D01*
X22635559Y-3061562D01*
X22637717Y-3077155D01*
X22638755Y-3092856D01*
X22639357Y-3096351D01*
X22665644Y-3242726D01*
X22671922Y-3264941D01*
X22677857Y-3287118D01*
X22679126Y-3290429D01*
X22733343Y-3428910D01*
X22743804Y-3449458D01*
X22753945Y-3470085D01*
X22755830Y-3473082D01*
X22755833Y-3473087D01*
X22755836Y-3473091D01*
X22835915Y-3598399D01*
X22850183Y-3616543D01*
X22864123Y-3634788D01*
X22866553Y-3637361D01*
X22866558Y-3637367D01*
X22866563Y-3637372D01*
X22969455Y-3744738D01*
X22986929Y-3759726D01*
X23004193Y-3774956D01*
X23007083Y-3777011D01*
X23128876Y-3862352D01*
X23148955Y-3873675D01*
X23168822Y-3885247D01*
X23172056Y-3886702D01*
X23308105Y-3946761D01*
X23330039Y-3953981D01*
X23351737Y-3961460D01*
X23355182Y-3962257D01*
X23355192Y-3962260D01*
X23355202Y-3962261D01*
X23500315Y-3994749D01*
X23523186Y-3997565D01*
X23545972Y-4000694D01*
X23549516Y-4000807D01*
X23549517Y-4000807D01*
X23698188Y-4004490D01*
X23698411Y-4004474D01*
X23698937Y-4004490D01*
X23958976Y-4010759D01*
X24188536Y-4061991D01*
X24403777Y-4156838D01*
X24596491Y-4291682D01*
X24759348Y-4461395D01*
X24886136Y-4659503D01*
X24972031Y-4878466D01*
X25013761Y-5109946D01*
X25009734Y-5345124D01*
X24960106Y-5575033D01*
X24866765Y-5790929D01*
X24733268Y-5984583D01*
X24564699Y-6148619D01*
X24367480Y-6276788D01*
X24149119Y-6364210D01*
X23911139Y-6408829D01*
X23804981Y-6413500D01*
X-23799449Y-6413500D01*
X-24046977Y-6389146D01*
X-24272129Y-6321087D01*
X-24479766Y-6210596D01*
X-24661992Y-6061876D01*
X-24811860Y-5880595D01*
X-24923662Y-5673655D01*
X-24993142Y-5448937D01*
X-25017650Y-5215014D01*
X-24996254Y-4980779D01*
X-24929769Y-4755161D01*
X-24820728Y-4546754D01*
X-24673284Y-4363496D01*
X-24576449Y-4282295D01*
X-22361600Y-4282295D01*
X-22361600Y-4563705D01*
X-22306699Y-4839707D01*
X-22199009Y-5099696D01*
X-22042666Y-5333679D01*
X-21843679Y-5532666D01*
X-21609696Y-5689009D01*
X-21349707Y-5796699D01*
X-21073705Y-5851600D01*
X-20792295Y-5851600D01*
X-20577518Y-5808878D01*
X-20273510Y-6112885D01*
X-20250692Y-6140690D01*
X-20139748Y-6231739D01*
X-20024363Y-6293413D01*
X-20013173Y-6299394D01*
X-19875832Y-6341056D01*
X-19733001Y-6355124D01*
X-19697212Y-6351599D01*
X-13322788Y-6351599D01*
X-13286999Y-6355124D01*
X-13251210Y-6351599D01*
X-13144168Y-6341056D01*
X-13006827Y-6299394D01*
X-12880252Y-6231739D01*
X-12769308Y-6140690D01*
X-12746485Y-6112880D01*
X-11546496Y-4912892D01*
X-11546492Y-4912887D01*
X-10397110Y-3763506D01*
X-10369311Y-3740692D01*
X-10278261Y-3629748D01*
X-10210606Y-3503173D01*
X-10168944Y-3365832D01*
X-10158401Y-3258790D01*
X-10158401Y-3258789D01*
X-10154876Y-3223001D01*
X-10158401Y-3187212D01*
X-10158401Y-2215376D01*
X-9306624Y-1363600D01*
X-9002768Y-1363600D01*
X-8962549Y-1371600D01*
X-8817451Y-1371600D01*
X-8675142Y-1343293D01*
X-8541089Y-1287766D01*
X-8420445Y-1207155D01*
X-8317845Y-1104555D01*
X-8255000Y-1010500D01*
X-8192155Y-1104555D01*
X-8089555Y-1207155D01*
X-7995500Y-1270000D01*
X-8089555Y-1332845D01*
X-8192155Y-1435445D01*
X-8272766Y-1556089D01*
X-8328293Y-1690142D01*
X-8356600Y-1832451D01*
X-8356600Y-1977549D01*
X-8328293Y-2119858D01*
X-8272766Y-2253911D01*
X-8192155Y-2374555D01*
X-8089555Y-2477155D01*
X-7968911Y-2557766D01*
X-7834858Y-2613293D01*
X-7692549Y-2641600D01*
X-7547451Y-2641600D01*
X-7405142Y-2613293D01*
X-7271089Y-2557766D01*
X-7150445Y-2477155D01*
X-7047845Y-2374555D01*
X-6967234Y-2253911D01*
X-6911707Y-2119858D01*
X-6883400Y-1977549D01*
X-6883400Y-1832451D01*
X-6911707Y-1690142D01*
X-6936367Y-1630609D01*
X-6351598Y-2215378D01*
X-6351599Y-3187212D01*
X-6355124Y-3223001D01*
X-6348041Y-3294909D01*
X-6341056Y-3365831D01*
X-6299394Y-3503172D01*
X-6231739Y-3629747D01*
X-6140690Y-3740691D01*
X-6112885Y-3763511D01*
X-5808878Y-4067518D01*
X-5851600Y-4282295D01*
X-5851600Y-4563705D01*
X-5796699Y-4839707D01*
X-5689009Y-5099696D01*
X-5532666Y-5333679D01*
X-5333679Y-5532666D01*
X-5099696Y-5689009D01*
X-4839707Y-5796699D01*
X-4563705Y-5851600D01*
X-4282295Y-5851600D01*
X-4006293Y-5796699D01*
X-3746304Y-5689009D01*
X-3512321Y-5532666D01*
X-3313334Y-5333679D01*
X-3156991Y-5099696D01*
X-3049301Y-4839707D01*
X-2994400Y-4563705D01*
X-2994400Y-4282295D01*
X-3049301Y-4006293D01*
X-3156991Y-3746304D01*
X-3307259Y-3521413D01*
X-3078053Y-3750619D01*
X-2287200Y-4279050D01*
X-1408451Y-4643040D01*
X-475576Y-4828600D01*
X475576Y-4828600D01*
X1408451Y-4643040D01*
X2287200Y-4279050D01*
X3078053Y-3750619D01*
X3750619Y-3078053D01*
X4279050Y-2287200D01*
X4643040Y-1408451D01*
X4796698Y-635960D01*
X4797805Y-639611D01*
X4828318Y-696697D01*
X4852120Y-725700D01*
X4869381Y-746733D01*
X4881916Y-757020D01*
X7011245Y-2886350D01*
X7021528Y-2898880D01*
X7034058Y-2909163D01*
X7034060Y-2909165D01*
X7071563Y-2939943D01*
X7102076Y-2956252D01*
X7128649Y-2970456D01*
X7190590Y-2989246D01*
X7238872Y-2994001D01*
X7238884Y-2994001D01*
X7255006Y-2995589D01*
X7271128Y-2994001D01*
X8113467Y-2994001D01*
X8129599Y-2995590D01*
X8145731Y-2994001D01*
X8145734Y-2994001D01*
X8194016Y-2989246D01*
X8255957Y-2970456D01*
X8313042Y-2939943D01*
X8363078Y-2898880D01*
X8373365Y-2886345D01*
X8654831Y-2604880D01*
X8675142Y-2613293D01*
X8817451Y-2641600D01*
X8962549Y-2641600D01*
X9104858Y-2613293D01*
X9238911Y-2557766D01*
X9359555Y-2477155D01*
X9462155Y-2374555D01*
X9542766Y-2253911D01*
X9598293Y-2119858D01*
X9626600Y-1977549D01*
X9626600Y-1832451D01*
X9598293Y-1690142D01*
X9573633Y-1630609D01*
X10158402Y-2215378D01*
X10158401Y-3187212D01*
X10154876Y-3223001D01*
X10161959Y-3294909D01*
X10168944Y-3365831D01*
X10210606Y-3503172D01*
X10278261Y-3629747D01*
X10369310Y-3740691D01*
X10397115Y-3763511D01*
X10701122Y-4067518D01*
X10658400Y-4282295D01*
X10658400Y-4563705D01*
X10713301Y-4839707D01*
X10820991Y-5099696D01*
X10977334Y-5333679D01*
X11176321Y-5532666D01*
X11410304Y-5689009D01*
X11670293Y-5796699D01*
X11946295Y-5851600D01*
X12227705Y-5851600D01*
X12503707Y-5796699D01*
X12763696Y-5689009D01*
X12997679Y-5532666D01*
X13196666Y-5333679D01*
X13353009Y-5099696D01*
X13460699Y-4839707D01*
X13515600Y-4563705D01*
X13515600Y-4282295D01*
X13460699Y-4006293D01*
X13353009Y-3746304D01*
X13202741Y-3521413D01*
X13431947Y-3750619D01*
X14222800Y-4279050D01*
X15101549Y-4643040D01*
X16034424Y-4828600D01*
X16985576Y-4828600D01*
X17918451Y-4643040D01*
X18797200Y-4279050D01*
X19588053Y-3750619D01*
X20260619Y-3078053D01*
X20789050Y-2287200D01*
X21153040Y-1408451D01*
X21338600Y-475576D01*
X21338600Y475576D01*
X21153040Y1408451D01*
X20789050Y2287200D01*
X20260619Y3078053D01*
X20031413Y3307259D01*
X20256304Y3156991D01*
X20516293Y3049301D01*
X20792295Y2994400D01*
X21073705Y2994400D01*
X21349707Y3049301D01*
X21609696Y3156991D01*
X21843679Y3313334D01*
X22042666Y3512321D01*
X22199009Y3746304D01*
X22306699Y4006293D01*
X22361600Y4282295D01*
X22361600Y4563705D01*
X22306699Y4839707D01*
X22199009Y5099696D01*
X22042666Y5333679D01*
X21843679Y5532666D01*
X21609696Y5689009D01*
X21349707Y5796699D01*
X21073705Y5851600D01*
X20792295Y5851600D01*
X20577518Y5808878D01*
X20273515Y6112880D01*
X20250692Y6140690D01*
X20139748Y6231739D01*
X20013173Y6299394D01*
X19875832Y6341056D01*
X19768790Y6351599D01*
X19733001Y6355124D01*
X19697212Y6351599D01*
X14632208Y6351599D01*
X14596419Y6355124D01*
X14560630Y6351599D01*
X14453588Y6341056D01*
X14316247Y6299394D01*
X14189672Y6231739D01*
X14078728Y6140690D01*
X14055910Y6112886D01*
X10409442Y2466418D01*
X10414998Y2494348D01*
X10414998Y2618172D01*
X10390842Y2739616D01*
X10343457Y2854014D01*
X10274664Y2956969D01*
X10187107Y3044526D01*
X10084152Y3113319D01*
X9969754Y3160704D01*
X9910917Y3172407D01*
X10300928Y3562417D01*
X10315551Y3547794D01*
X10418506Y3479001D01*
X10532904Y3431616D01*
X10654348Y3407460D01*
X10778172Y3407460D01*
X10899616Y3431616D01*
X11014014Y3479001D01*
X11116969Y3547794D01*
X11204526Y3635351D01*
X11273319Y3738306D01*
X11320704Y3852704D01*
X11344860Y3974148D01*
X11344860Y4097972D01*
X11320704Y4219416D01*
X11273319Y4333814D01*
X11204526Y4436769D01*
X11116969Y4524326D01*
X11014014Y4593119D01*
X10899616Y4640504D01*
X10778172Y4664660D01*
X10654348Y4664660D01*
X10532904Y4640504D01*
X10418506Y4593119D01*
X10315551Y4524326D01*
X10227994Y4436769D01*
X10159201Y4333814D01*
X10156175Y4326508D01*
X10126416Y4310602D01*
X10096502Y4286052D01*
X10076381Y4269539D01*
X10066098Y4257009D01*
X9377789Y3568699D01*
X8134835Y3568699D01*
X8118703Y3570288D01*
X8102571Y3568699D01*
X8102569Y3568699D01*
X8054287Y3563944D01*
X8001138Y3547821D01*
X7992346Y3545154D01*
X7935260Y3514641D01*
X7897757Y3483863D01*
X7885225Y3473578D01*
X7874942Y3461048D01*
X7730100Y3316206D01*
X7724726Y3324249D01*
X7637169Y3411806D01*
X7534214Y3480599D01*
X7419816Y3527984D01*
X7298372Y3552140D01*
X7174548Y3552140D01*
X7053104Y3527984D01*
X6938706Y3480599D01*
X6835751Y3411806D01*
X6748194Y3324249D01*
X6679401Y3221294D01*
X6673696Y3207522D01*
X6672952Y3208429D01*
X6645153Y3231243D01*
X5808878Y4067518D01*
X5851600Y4282295D01*
X5851600Y4563705D01*
X5796699Y4839707D01*
X5689009Y5099696D01*
X5532666Y5333679D01*
X5333679Y5532666D01*
X5099696Y5689009D01*
X4839707Y5796699D01*
X4563705Y5851600D01*
X4282295Y5851600D01*
X4006293Y5796699D01*
X3746304Y5689009D01*
X3512321Y5532666D01*
X3313334Y5333679D01*
X3156991Y5099696D01*
X3049301Y4839707D01*
X2994400Y4563705D01*
X2994400Y4282295D01*
X3049301Y4006293D01*
X3156991Y3746304D01*
X3307259Y3521413D01*
X3078053Y3750619D01*
X2287200Y4279050D01*
X1408451Y4643040D01*
X475576Y4828600D01*
X-475576Y4828600D01*
X-1408451Y4643040D01*
X-2287200Y4279050D01*
X-3078053Y3750619D01*
X-3750619Y3078053D01*
X-4279050Y2287200D01*
X-4643040Y1408451D01*
X-4828600Y475576D01*
X-4828600Y-475576D01*
X-4643040Y-1408451D01*
X-4279050Y-2287200D01*
X-3750619Y-3078053D01*
X-3521413Y-3307259D01*
X-3746304Y-3156991D01*
X-4006293Y-3049301D01*
X-4282295Y-2994400D01*
X-4563705Y-2994400D01*
X-4778482Y-3037122D01*
X-4894399Y-2921206D01*
X-4894399Y-1949372D01*
X-4890874Y-1913581D01*
X-4904941Y-1770750D01*
X-4946604Y-1633409D01*
X-4974534Y-1581156D01*
X-5014259Y-1506834D01*
X-5105308Y-1395890D01*
X-5133113Y-1373072D01*
X-6361066Y-145119D01*
X-6383889Y-117309D01*
X-6494833Y-26260D01*
X-6621408Y41395D01*
X-6758749Y83057D01*
X-6865791Y93600D01*
X-6901580Y97125D01*
X-6937369Y93600D01*
X-7119690Y93600D01*
X-7047845Y165445D01*
X-6967234Y286089D01*
X-6911707Y420142D01*
X-6883400Y562451D01*
X-6883400Y707549D01*
X-6911707Y849858D01*
X-6967234Y983911D01*
X-7047845Y1104555D01*
X-7150445Y1207155D01*
X-7244500Y1270000D01*
X-7150445Y1332845D01*
X-7047845Y1435445D01*
X-6967234Y1556089D01*
X-6911707Y1690142D01*
X-6883400Y1832451D01*
X-6883400Y1977549D01*
X-6911707Y2119858D01*
X-6967234Y2253911D01*
X-7047845Y2374555D01*
X-7150445Y2477155D01*
X-7271089Y2557766D01*
X-7405142Y2613293D01*
X-7547451Y2641600D01*
X-7692549Y2641600D01*
X-7834858Y2613293D01*
X-7968911Y2557766D01*
X-8089555Y2477155D01*
X-8192155Y2374555D01*
X-8255000Y2280500D01*
X-8317845Y2374555D01*
X-8420445Y2477155D01*
X-8541089Y2557766D01*
X-8675142Y2613293D01*
X-8817451Y2641600D01*
X-8962549Y2641600D01*
X-9104858Y2613293D01*
X-9238911Y2557766D01*
X-9359555Y2477155D01*
X-9462155Y2374555D01*
X-9542766Y2253911D01*
X-9598293Y2119858D01*
X-9626600Y1977549D01*
X-9626600Y1832451D01*
X-9598293Y1690142D01*
X-9573633Y1630609D01*
X-10158401Y2215376D01*
X-10158401Y3187212D01*
X-10154876Y3223001D01*
X-10168944Y3365832D01*
X-10210606Y3503173D01*
X-10224510Y3529186D01*
X-10278261Y3629748D01*
X-10369311Y3740692D01*
X-10397110Y3763506D01*
X-10701122Y4067518D01*
X-10658400Y4282295D01*
X-10658400Y4563705D01*
X-10713301Y4839707D01*
X-10820991Y5099696D01*
X-10977334Y5333679D01*
X-11176321Y5532666D01*
X-11410304Y5689009D01*
X-11670293Y5796699D01*
X-11946295Y5851600D01*
X-12227705Y5851600D01*
X-12503707Y5796699D01*
X-12763696Y5689009D01*
X-12997679Y5532666D01*
X-13196666Y5333679D01*
X-13353009Y5099696D01*
X-13460699Y4839707D01*
X-13515600Y4563705D01*
X-13515600Y4282295D01*
X-13460699Y4006293D01*
X-13353009Y3746304D01*
X-13202741Y3521413D01*
X-13431947Y3750619D01*
X-14222800Y4279050D01*
X-15101549Y4643040D01*
X-16034424Y4828600D01*
X-16985576Y4828600D01*
X-17918451Y4643040D01*
X-18797200Y4279050D01*
X-19588053Y3750619D01*
X-20260619Y3078053D01*
X-20789050Y2287200D01*
X-21153040Y1408451D01*
X-21338600Y475576D01*
X-21338600Y-475576D01*
X-21153040Y-1408451D01*
X-20789050Y-2287200D01*
X-20260619Y-3078053D01*
X-20031413Y-3307259D01*
X-20256304Y-3156991D01*
X-20516293Y-3049301D01*
X-20792295Y-2994400D01*
X-21073705Y-2994400D01*
X-21349707Y-3049301D01*
X-21609696Y-3156991D01*
X-21843679Y-3313334D01*
X-22042666Y-3512321D01*
X-22199009Y-3746304D01*
X-22306699Y-4006293D01*
X-22361600Y-4282295D01*
X-24576449Y-4282295D01*
X-24493057Y-4212368D01*
X-24286899Y-4099121D01*
X-24062680Y-4028077D01*
X-23822052Y-4001167D01*
X-23712678Y-4004450D01*
X-23712535Y-4004440D01*
X-23651689Y-4006439D01*
X-23635983Y-4005418D01*
X-23620244Y-4005523D01*
X-23616714Y-4005176D01*
X-23468818Y-3989581D01*
X-23446193Y-3984929D01*
X-23423658Y-3980622D01*
X-23420265Y-3979598D01*
X-23420259Y-3979596D01*
X-23278212Y-3935573D01*
X-23256934Y-3926620D01*
X-23235652Y-3918014D01*
X-23232529Y-3916352D01*
X-23232519Y-3916348D01*
X-23232511Y-3916343D01*
X-23101727Y-3845572D01*
X-23082619Y-3832675D01*
X-23063384Y-3820079D01*
X-23060636Y-3817837D01*
X-22946081Y-3723003D01*
X-22929839Y-3706637D01*
X-22913423Y-3690550D01*
X-22911163Y-3687817D01*
X-22817208Y-3572540D01*
X-22804442Y-3553312D01*
X-22791474Y-3534359D01*
X-22789788Y-3531240D01*
X-22720014Y-3399908D01*
X-22711215Y-3378539D01*
X-22702187Y-3357457D01*
X-22701139Y-3354069D01*
X-22658203Y-3211685D01*
X-22653723Y-3189024D01*
X-22648961Y-3166582D01*
X-22648592Y-3163064D01*
X-22648590Y-3163054D01*
X-22648590Y-3163045D01*
X-22636607Y-3040411D01*
X-22636600Y-3040389D01*
X-22632924Y-3003065D01*
X-22632924Y3003065D01*
X-22633436Y3008266D01*
X-22635559Y3061562D01*
X-22637717Y3077155D01*
X-22638755Y3092856D01*
X-22639357Y3096350D01*
X-22665644Y3242726D01*
X-22671922Y3264941D01*
X-22677857Y3287118D01*
X-22679126Y3290429D01*
X-22733343Y3428910D01*
X-22743804Y3449458D01*
X-22753945Y3470085D01*
X-22755830Y3473082D01*
X-22755833Y3473087D01*
X-22755836Y3473091D01*
X-22835915Y3598399D01*
X-22850210Y3616578D01*
X-22864123Y3634789D01*
X-22866553Y3637361D01*
X-22866558Y3637367D01*
X-22866563Y3637372D01*
X-22969455Y3744738D01*
X-22986951Y3759744D01*
X-23004193Y3774955D01*
X-23007083Y3777011D01*
X-23128876Y3862352D01*
X-23148955Y3873675D01*
X-23168822Y3885247D01*
X-23172047Y3886697D01*
X-23172056Y3886702D01*
X-23172065Y3886705D01*
X-23308105Y3946761D01*
X-23330049Y3953984D01*
X-23351737Y3961460D01*
X-23355182Y3962257D01*
X-23355192Y3962260D01*
X-23355202Y3962261D01*
X-23500316Y3994749D01*
X-23523210Y3997568D01*
X-23545972Y4000694D01*
X-23549506Y4000807D01*
X-23549517Y4000808D01*
X-23549527Y4000807D01*
X-23698188Y4004490D01*
X-23698411Y4004474D01*
X-23698936Y4004490D01*
X-23958976Y4010759D01*
X-24188535Y4061991D01*
X-24403777Y4156838D01*
X-24596491Y4291682D01*
X-24759348Y4461395D01*
X-24886136Y4659503D01*
X-24972031Y4878466D01*
X-25013761Y5109947D01*
X-25009734Y5345124D01*
X-24960106Y5575033D01*
X-24866764Y5790931D01*
X-24733264Y5984587D01*
X-24564697Y6148620D01*
X-24367478Y6276789D01*
X-24149119Y6364210D01*
X-23911139Y6408829D01*
X-23804982Y6413500D01*
X23799449Y6413500D01*
X24046977Y6389146D01*
G36*
X5437205Y1238488D02*
G01*
X5478867Y1101147D01*
X5478868Y1101146D01*
X5546523Y974571D01*
X5637572Y863627D01*
X5665376Y840809D01*
X6361070Y145114D01*
X6383889Y117309D01*
X6494833Y26260D01*
X6621408Y-41395D01*
X6758749Y-83057D01*
X6901579Y-97125D01*
X6937368Y-93600D01*
X7119690Y-93600D01*
X7047845Y-165445D01*
X6967234Y-286089D01*
X6911707Y-420142D01*
X6883400Y-562451D01*
X6883400Y-707549D01*
X6911707Y-849858D01*
X6967234Y-983911D01*
X7047845Y-1104555D01*
X7150445Y-1207155D01*
X7271089Y-1287766D01*
X7405142Y-1343293D01*
X7547451Y-1371600D01*
X7692549Y-1371600D01*
X7834858Y-1343293D01*
X7968911Y-1287766D01*
X8089555Y-1207155D01*
X8192155Y-1104555D01*
X8255000Y-1010500D01*
X8317845Y-1104555D01*
X8420445Y-1207155D01*
X8514500Y-1270000D01*
X8420445Y-1332845D01*
X8317845Y-1435445D01*
X8237234Y-1556089D01*
X8181707Y-1690142D01*
X8153400Y-1832451D01*
X8153400Y-1977549D01*
X8181707Y-2119858D01*
X8190120Y-2140169D01*
X7993489Y-2336801D01*
X7391118Y-2336801D01*
X5431460Y-377144D01*
X5431460Y1296816D01*
X5437205Y1238488D01*
X5437205Y1238488D01*
G37*
X5437205Y1238488D02*
X5478867Y1101147D01*
X5478868Y1101146D01*
X5546523Y974571D01*
X5637572Y863627D01*
X5665376Y840809D01*
X6361070Y145114D01*
X6383889Y117309D01*
X6494833Y26260D01*
X6621408Y-41395D01*
X6758749Y-83057D01*
X6901579Y-97125D01*
X6937368Y-93600D01*
X7119690Y-93600D01*
X7047845Y-165445D01*
X6967234Y-286089D01*
X6911707Y-420142D01*
X6883400Y-562451D01*
X6883400Y-707549D01*
X6911707Y-849858D01*
X6967234Y-983911D01*
X7047845Y-1104555D01*
X7150445Y-1207155D01*
X7271089Y-1287766D01*
X7405142Y-1343293D01*
X7547451Y-1371600D01*
X7692549Y-1371600D01*
X7834858Y-1343293D01*
X7968911Y-1287766D01*
X8089555Y-1207155D01*
X8192155Y-1104555D01*
X8255000Y-1010500D01*
X8317845Y-1104555D01*
X8420445Y-1207155D01*
X8514500Y-1270000D01*
X8420445Y-1332845D01*
X8317845Y-1435445D01*
X8237234Y-1556089D01*
X8181707Y-1690142D01*
X8153400Y-1832451D01*
X8153400Y-1977549D01*
X8181707Y-2119858D01*
X8190120Y-2140169D01*
X7993489Y-2336801D01*
X7391118Y-2336801D01*
X5431460Y-377144D01*
X5431460Y1296816D01*
X5437205Y1238488D01*
M02*
