G04 #@! TF.GenerationSoftware,KiCad,Pcbnew,(5.1.4)-1*
G04 #@! TF.CreationDate,2019-11-14T22:55:44-08:00*
G04 #@! TF.ProjectId,SkateLightLEDBoard,536b6174-654c-4696-9768-744c4544426f,rev?*
G04 #@! TF.SameCoordinates,Original*
G04 #@! TF.FileFunction,Legend,Top*
G04 #@! TF.FilePolarity,Positive*
%FSLAX46Y46*%
G04 Gerber Fmt 4.6, Leading zero omitted, Abs format (unit mm)*
G04 Created by KiCad (PCBNEW (5.1.4)-1) date 2019-11-14 22:55:44*
%MOMM*%
%LPD*%
G04 APERTURE LIST*
%ADD10C,0.127000*%
%ADD11C,0.120000*%
%ADD12C,0.150000*%
G04 APERTURE END LIST*
D10*
X22299748Y-3989251D02*
X22336034Y-3880394D01*
X22336034Y-3698965D01*
X22299748Y-3626394D01*
X22263462Y-3590108D01*
X22190891Y-3553822D01*
X22118320Y-3553822D01*
X22045748Y-3590108D01*
X22009462Y-3626394D01*
X21973177Y-3698965D01*
X21936891Y-3844108D01*
X21900605Y-3916679D01*
X21864320Y-3952965D01*
X21791748Y-3989251D01*
X21719177Y-3989251D01*
X21646605Y-3952965D01*
X21610320Y-3916679D01*
X21574034Y-3844108D01*
X21574034Y-3662679D01*
X21610320Y-3553822D01*
X22336034Y-2864394D02*
X22336034Y-3227251D01*
X21574034Y-3227251D01*
X22336034Y-1666965D02*
X22336034Y-2029822D01*
X21574034Y-2029822D01*
X21936891Y-1412965D02*
X21936891Y-1158965D01*
X22336034Y-1050108D02*
X22336034Y-1412965D01*
X21574034Y-1412965D01*
X21574034Y-1050108D01*
X22336034Y-723537D02*
X21574034Y-723537D01*
X21574034Y-542108D01*
X21610320Y-433251D01*
X21682891Y-360680D01*
X21755462Y-324394D01*
X21900605Y-288108D01*
X22009462Y-288108D01*
X22154605Y-324394D01*
X22227177Y-360680D01*
X22299748Y-433251D01*
X22336034Y-542108D01*
X22336034Y-723537D01*
X21574034Y510177D02*
X22336034Y764177D01*
X21574034Y1018177D01*
X22336034Y1671320D02*
X22336034Y1235891D01*
X22336034Y1453605D02*
X21574034Y1453605D01*
X21682891Y1381034D01*
X21755462Y1308462D01*
X21791748Y1235891D01*
X22263462Y1997891D02*
X22299748Y2034177D01*
X22336034Y1997891D01*
X22299748Y1961605D01*
X22263462Y1997891D01*
X22336034Y1997891D01*
X22336034Y2759891D02*
X22336034Y2324462D01*
X22336034Y2542177D02*
X21574034Y2542177D01*
X21682891Y2469605D01*
X21755462Y2397034D01*
X21791748Y2324462D01*
D11*
X11755000Y-1685000D02*
X11755000Y1000000D01*
X9835000Y-1685000D02*
X11755000Y-1685000D01*
X9835000Y1000000D02*
X9835000Y-1685000D01*
X-11755000Y1685000D02*
X-11755000Y-1000000D01*
X-9835000Y1685000D02*
X-11755000Y1685000D01*
X-9835000Y-1000000D02*
X-9835000Y1685000D01*
X5005000Y258578D02*
X5005000Y-258578D01*
X6425000Y258578D02*
X6425000Y-258578D01*
X-6425000Y258578D02*
X-6425000Y-258578D01*
X-5005000Y258578D02*
X-5005000Y-258578D01*
X12517828Y6226630D02*
X13550203Y5194254D01*
X10283370Y3992172D02*
X11810721Y2464822D01*
X10283370Y3992172D02*
X10940979Y4649782D01*
X12517828Y6226630D02*
X11860218Y5569021D01*
X-12517828Y-6226630D02*
X-13550203Y-5194254D01*
X-10283370Y-3992172D02*
X-11810721Y-2464822D01*
X-10283370Y-3992172D02*
X-10940979Y-4649782D01*
X-12517828Y-6226630D02*
X-11860218Y-5569021D01*
X19050000Y4572000D02*
X19050000Y5588000D01*
X13970000Y4572000D02*
X13970000Y5588000D01*
X19050000Y-5588000D02*
X19050000Y-4572000D01*
X18542000Y-5080000D02*
X19558000Y-5080000D01*
X13970000Y-5588000D02*
X13970000Y-4572000D01*
X13462000Y-5080000D02*
X14478000Y-5080000D01*
X10260000Y6250000D02*
X22760000Y6250000D01*
X22760000Y6250000D02*
X22760000Y-6250000D01*
X22760000Y-6250000D02*
X10260000Y-6250000D01*
X10260000Y-6250000D02*
X10260000Y6250000D01*
X2540000Y4572000D02*
X2540000Y5588000D01*
X-2540000Y4572000D02*
X-2540000Y5588000D01*
X2540000Y-5588000D02*
X2540000Y-4572000D01*
X2032000Y-5080000D02*
X3048000Y-5080000D01*
X-2540000Y-5588000D02*
X-2540000Y-4572000D01*
X-3048000Y-5080000D02*
X-2032000Y-5080000D01*
X-6250000Y6250000D02*
X6250000Y6250000D01*
X6250000Y6250000D02*
X6250000Y-6250000D01*
X6250000Y-6250000D02*
X-6250000Y-6250000D01*
X-6250000Y-6250000D02*
X-6250000Y6250000D01*
X-13970000Y4572000D02*
X-13970000Y5588000D01*
X-19050000Y4572000D02*
X-19050000Y5588000D01*
X-13970000Y-5588000D02*
X-13970000Y-4572000D01*
X-14478000Y-5080000D02*
X-13462000Y-5080000D01*
X-19050000Y-5588000D02*
X-19050000Y-4572000D01*
X-19558000Y-5080000D02*
X-18542000Y-5080000D01*
X-22760000Y6250000D02*
X-10260000Y6250000D01*
X-10260000Y6250000D02*
X-10260000Y-6250000D01*
X-10260000Y-6250000D02*
X-22760000Y-6250000D01*
X-22760000Y-6250000D02*
X-22760000Y6250000D01*
D12*
X7493095Y-5905380D02*
X7493095Y-4905380D01*
X7493095Y-5381571D02*
X8064523Y-5381571D01*
X8064523Y-5905380D02*
X8064523Y-4905380D01*
X8683571Y-5333952D02*
X8588333Y-5286333D01*
X8540714Y-5238714D01*
X8493095Y-5143476D01*
X8493095Y-5095857D01*
X8540714Y-5000619D01*
X8588333Y-4953000D01*
X8683571Y-4905380D01*
X8874047Y-4905380D01*
X8969285Y-4953000D01*
X9016904Y-5000619D01*
X9064523Y-5095857D01*
X9064523Y-5143476D01*
X9016904Y-5238714D01*
X8969285Y-5286333D01*
X8874047Y-5333952D01*
X8683571Y-5333952D01*
X8588333Y-5381571D01*
X8540714Y-5429190D01*
X8493095Y-5524428D01*
X8493095Y-5714904D01*
X8540714Y-5810142D01*
X8588333Y-5857761D01*
X8683571Y-5905380D01*
X8874047Y-5905380D01*
X8969285Y-5857761D01*
X9016904Y-5810142D01*
X9064523Y-5714904D01*
X9064523Y-5524428D01*
X9016904Y-5429190D01*
X8969285Y-5381571D01*
X8874047Y-5333952D01*
X7493095Y4000619D02*
X7493095Y5000619D01*
X7493095Y4524428D02*
X8064523Y4524428D01*
X8064523Y4000619D02*
X8064523Y5000619D01*
X8445476Y5000619D02*
X9112142Y5000619D01*
X8683571Y4000619D01*
X-9016904Y-5905380D02*
X-9016904Y-4905380D01*
X-9016904Y-5381571D02*
X-8445476Y-5381571D01*
X-8445476Y-5905380D02*
X-8445476Y-4905380D01*
X-7540714Y-4905380D02*
X-7731190Y-4905380D01*
X-7826428Y-4953000D01*
X-7874047Y-5000619D01*
X-7969285Y-5143476D01*
X-8016904Y-5333952D01*
X-8016904Y-5714904D01*
X-7969285Y-5810142D01*
X-7921666Y-5857761D01*
X-7826428Y-5905380D01*
X-7635952Y-5905380D01*
X-7540714Y-5857761D01*
X-7493095Y-5810142D01*
X-7445476Y-5714904D01*
X-7445476Y-5476809D01*
X-7493095Y-5381571D01*
X-7540714Y-5333952D01*
X-7635952Y-5286333D01*
X-7826428Y-5286333D01*
X-7921666Y-5333952D01*
X-7969285Y-5381571D01*
X-8016904Y-5476809D01*
X-9016904Y4000619D02*
X-9016904Y5000619D01*
X-9016904Y4524428D02*
X-8445476Y4524428D01*
X-8445476Y4000619D02*
X-8445476Y5000619D01*
X-7493095Y5000619D02*
X-7969285Y5000619D01*
X-8016904Y4524428D01*
X-7969285Y4572047D01*
X-7874047Y4619666D01*
X-7635952Y4619666D01*
X-7540714Y4572047D01*
X-7493095Y4524428D01*
X-7445476Y4429190D01*
X-7445476Y4191095D01*
X-7493095Y4095857D01*
X-7540714Y4048238D01*
X-7635952Y4000619D01*
X-7874047Y4000619D01*
X-7969285Y4048238D01*
X-8016904Y4095857D01*
X23050595Y5254619D02*
X23050595Y6254619D01*
X23050595Y5778428D02*
X23622023Y5778428D01*
X23622023Y5254619D02*
X23622023Y6254619D01*
X24622023Y5254619D02*
X24050595Y5254619D01*
X24336309Y5254619D02*
X24336309Y6254619D01*
X24241071Y6111761D01*
X24145833Y6016523D01*
X24050595Y5968904D01*
X23050595Y-5159380D02*
X23050595Y-4159380D01*
X23050595Y-4635571D02*
X23622023Y-4635571D01*
X23622023Y-5159380D02*
X23622023Y-4159380D01*
X24050595Y-4254619D02*
X24098214Y-4207000D01*
X24193452Y-4159380D01*
X24431547Y-4159380D01*
X24526785Y-4207000D01*
X24574404Y-4254619D01*
X24622023Y-4349857D01*
X24622023Y-4445095D01*
X24574404Y-4587952D01*
X24002976Y-5159380D01*
X24622023Y-5159380D01*
X-24574404Y5254619D02*
X-24574404Y6254619D01*
X-24574404Y5778428D02*
X-24002976Y5778428D01*
X-24002976Y5254619D02*
X-24002976Y6254619D01*
X-23622023Y6254619D02*
X-23002976Y6254619D01*
X-23336309Y5873666D01*
X-23193452Y5873666D01*
X-23098214Y5826047D01*
X-23050595Y5778428D01*
X-23002976Y5683190D01*
X-23002976Y5445095D01*
X-23050595Y5349857D01*
X-23098214Y5302238D01*
X-23193452Y5254619D01*
X-23479166Y5254619D01*
X-23574404Y5302238D01*
X-23622023Y5349857D01*
X-24574404Y-5159380D02*
X-24574404Y-4159380D01*
X-24574404Y-4635571D02*
X-24002976Y-4635571D01*
X-24002976Y-5159380D02*
X-24002976Y-4159380D01*
X-23098214Y-4492714D02*
X-23098214Y-5159380D01*
X-23336309Y-4111761D02*
X-23574404Y-4826047D01*
X-22955357Y-4826047D01*
X10018710Y3730206D02*
X9446290Y3157786D01*
X9412618Y3056771D01*
X9412618Y2989427D01*
X9446290Y2888412D01*
X9580977Y2753725D01*
X9681992Y2720053D01*
X9749336Y2720053D01*
X9850351Y2753725D01*
X10422771Y3326145D01*
X10826832Y2450679D02*
X10355427Y1979275D01*
X10927847Y2888412D02*
X10254412Y2551694D01*
X10692145Y2113962D01*
X-10321755Y-1878259D02*
X-10894175Y-2450679D01*
X-10927847Y-2551694D01*
X-10927847Y-2619038D01*
X-10894175Y-2720053D01*
X-10759488Y-2854740D01*
X-10658473Y-2888412D01*
X-10591129Y-2888412D01*
X-10490114Y-2854740D01*
X-9917694Y-2282320D01*
X-9244259Y-2955755D02*
X-9580977Y-2619038D01*
X-9951366Y-2922084D01*
X-9884023Y-2922084D01*
X-9783007Y-2955755D01*
X-9614649Y-3124114D01*
X-9580977Y-3225129D01*
X-9580977Y-3292473D01*
X-9614649Y-3393488D01*
X-9783007Y-3561847D01*
X-9884023Y-3595519D01*
X-9951366Y-3595519D01*
X-10052381Y-3561847D01*
X-10220740Y-3393488D01*
X-10254412Y-3292473D01*
X-10254412Y-3225129D01*
X17462380Y-738095D02*
X16462380Y-738095D01*
X16462380Y-499999D01*
X16510000Y-357142D01*
X16605238Y-261904D01*
X16700476Y-214285D01*
X16890952Y-166666D01*
X17033809Y-166666D01*
X17224285Y-214285D01*
X17319523Y-261904D01*
X17414761Y-357142D01*
X17462380Y-500000D01*
X17462380Y-738095D01*
X16462380Y166666D02*
X16462380Y785714D01*
X16843333Y452380D01*
X16843333Y595238D01*
X16890952Y690476D01*
X16938571Y738095D01*
X17033809Y785714D01*
X17271904Y785714D01*
X17367142Y738095D01*
X17414761Y690476D01*
X17462380Y595238D01*
X17462380Y309523D01*
X17414761Y214285D01*
X17367142Y166666D01*
X952380Y-738095D02*
X-47619Y-738095D01*
X-47619Y-500000D01*
X0Y-357142D01*
X95238Y-261904D01*
X190476Y-214285D01*
X380952Y-166666D01*
X523809Y-166666D01*
X714285Y-214285D01*
X809523Y-261904D01*
X904761Y-357142D01*
X952380Y-500000D01*
X952380Y-738095D01*
X285714Y690476D02*
X952380Y690476D01*
X-95238Y452380D02*
X619047Y214285D01*
X619047Y833333D01*
X-15557619Y-738095D02*
X-16557619Y-738095D01*
X-16557619Y-500000D01*
X-16510000Y-357142D01*
X-16414761Y-261904D01*
X-16319523Y-214285D01*
X-16129047Y-166666D01*
X-15986190Y-166666D01*
X-15795714Y-214285D01*
X-15700476Y-261904D01*
X-15605238Y-357142D01*
X-15557619Y-500000D01*
X-15557619Y-738095D01*
X-16557619Y738095D02*
X-16557619Y261904D01*
X-16081428Y214285D01*
X-16129047Y261904D01*
X-16176666Y357142D01*
X-16176666Y595238D01*
X-16129047Y690476D01*
X-16081428Y738095D01*
X-15986190Y785714D01*
X-15748095Y785714D01*
X-15652857Y738095D01*
X-15605238Y690476D01*
X-15557619Y595238D01*
X-15557619Y357142D01*
X-15605238Y261904D01*
X-15652857Y214285D01*
M02*
