M48
; DRILL file {KiCad (5.1.4)-1} date 11/14/2019 10:55:45 PM
; FORMAT={2:4/ absolute / inch / suppress leading zeros}
; #@! TF.CreationDate,2019-11-14T22:55:45-08:00
; #@! TF.GenerationSoftware,Kicad,Pcbnew,(5.1.4)-1
FMAT,2
INCH,TZ
T1C0.0157
T2C0.0240
T3C0.0606
T4C0.0650
T5C0.3622
%
G90
G05
T1
X2009Y857
X2849Y1151
X3853Y1006
X4219Y1589
T2
X3000Y750
X3000Y250
X3000Y-250
X3000Y-750
X3500Y750
X3500Y250
X3500Y-250
X3500Y-750
X-3500Y750
X-3500Y250
X-3500Y-250
X-3500Y-750
X-3000Y750
X-3000Y250
X-3000Y-250
X-3000Y-750
T3
X-1741Y-1741
X1741Y1741
X-8241Y-1741
X-4759Y1741
X4759Y-1741
X8241Y1741
T4
X-3250Y1950
X9375Y-2050
X-9375Y-2050
X-3250Y-1950
X9375Y2050
X3250Y-1950
X-9375Y2050
X3250Y1950
T5
X0Y0
X-6500Y0
X6500Y0
T0
M30
