G04 #@! TF.GenerationSoftware,KiCad,Pcbnew,(5.1.4)-1*
G04 #@! TF.CreationDate,2019-11-14T22:55:44-08:00*
G04 #@! TF.ProjectId,SkateLightLEDBoard,536b6174-654c-4696-9768-744c4544426f,rev?*
G04 #@! TF.SameCoordinates,Original*
G04 #@! TF.FileFunction,Copper,L1,Top*
G04 #@! TF.FilePolarity,Positive*
%FSLAX46Y46*%
G04 Gerber Fmt 4.6, Leading zero omitted, Abs format (unit mm)*
G04 Created by KiCad (PCBNEW (5.1.4)-1) date 2019-11-14 22:55:44*
%MOMM*%
%LPD*%
G04 APERTURE LIST*
%ADD10C,1.016000*%
%ADD11C,2.921000*%
%ADD12C,0.100000*%
%ADD13C,0.975000*%
%ADD14C,0.800000*%
%ADD15C,2.400000*%
%ADD16C,0.250000*%
%ADD17C,0.200000*%
%ADD18C,0.500000*%
%ADD19C,0.152400*%
G04 APERTURE END LIST*
D10*
X-8890000Y-1905000D03*
X-7620000Y-1905000D03*
X-8890000Y-635000D03*
X-7620000Y-635000D03*
X-8890000Y635000D03*
X-7620000Y635000D03*
X-8890000Y1905000D03*
X-7620000Y1905000D03*
D11*
X8255000Y-4953000D03*
X8255000Y4953000D03*
X-8255000Y-4953000D03*
X-8255000Y4953000D03*
D10*
X7620000Y-1905000D03*
X8890000Y-1905000D03*
X7620000Y-635000D03*
X8890000Y-635000D03*
X7620000Y635000D03*
X8890000Y635000D03*
X7620000Y1905000D03*
X8890000Y1905000D03*
D12*
G36*
X11275142Y1423826D02*
G01*
X11298803Y1420316D01*
X11322007Y1414504D01*
X11344529Y1406446D01*
X11366153Y1396218D01*
X11386670Y1383921D01*
X11405883Y1369671D01*
X11423607Y1353607D01*
X11439671Y1335883D01*
X11453921Y1316670D01*
X11466218Y1296153D01*
X11476446Y1274529D01*
X11484504Y1252007D01*
X11490316Y1228803D01*
X11493826Y1205142D01*
X11495000Y1181250D01*
X11495000Y693750D01*
X11493826Y669858D01*
X11490316Y646197D01*
X11484504Y622993D01*
X11476446Y600471D01*
X11466218Y578847D01*
X11453921Y558330D01*
X11439671Y539117D01*
X11423607Y521393D01*
X11405883Y505329D01*
X11386670Y491079D01*
X11366153Y478782D01*
X11344529Y468554D01*
X11322007Y460496D01*
X11298803Y454684D01*
X11275142Y451174D01*
X11251250Y450000D01*
X10338750Y450000D01*
X10314858Y451174D01*
X10291197Y454684D01*
X10267993Y460496D01*
X10245471Y468554D01*
X10223847Y478782D01*
X10203330Y491079D01*
X10184117Y505329D01*
X10166393Y521393D01*
X10150329Y539117D01*
X10136079Y558330D01*
X10123782Y578847D01*
X10113554Y600471D01*
X10105496Y622993D01*
X10099684Y646197D01*
X10096174Y669858D01*
X10095000Y693750D01*
X10095000Y1181250D01*
X10096174Y1205142D01*
X10099684Y1228803D01*
X10105496Y1252007D01*
X10113554Y1274529D01*
X10123782Y1296153D01*
X10136079Y1316670D01*
X10150329Y1335883D01*
X10166393Y1353607D01*
X10184117Y1369671D01*
X10203330Y1383921D01*
X10223847Y1396218D01*
X10245471Y1406446D01*
X10267993Y1414504D01*
X10291197Y1420316D01*
X10314858Y1423826D01*
X10338750Y1425000D01*
X11251250Y1425000D01*
X11275142Y1423826D01*
X11275142Y1423826D01*
G37*
D13*
X10795000Y937500D03*
D12*
G36*
X11275142Y-451174D02*
G01*
X11298803Y-454684D01*
X11322007Y-460496D01*
X11344529Y-468554D01*
X11366153Y-478782D01*
X11386670Y-491079D01*
X11405883Y-505329D01*
X11423607Y-521393D01*
X11439671Y-539117D01*
X11453921Y-558330D01*
X11466218Y-578847D01*
X11476446Y-600471D01*
X11484504Y-622993D01*
X11490316Y-646197D01*
X11493826Y-669858D01*
X11495000Y-693750D01*
X11495000Y-1181250D01*
X11493826Y-1205142D01*
X11490316Y-1228803D01*
X11484504Y-1252007D01*
X11476446Y-1274529D01*
X11466218Y-1296153D01*
X11453921Y-1316670D01*
X11439671Y-1335883D01*
X11423607Y-1353607D01*
X11405883Y-1369671D01*
X11386670Y-1383921D01*
X11366153Y-1396218D01*
X11344529Y-1406446D01*
X11322007Y-1414504D01*
X11298803Y-1420316D01*
X11275142Y-1423826D01*
X11251250Y-1425000D01*
X10338750Y-1425000D01*
X10314858Y-1423826D01*
X10291197Y-1420316D01*
X10267993Y-1414504D01*
X10245471Y-1406446D01*
X10223847Y-1396218D01*
X10203330Y-1383921D01*
X10184117Y-1369671D01*
X10166393Y-1353607D01*
X10150329Y-1335883D01*
X10136079Y-1316670D01*
X10123782Y-1296153D01*
X10113554Y-1274529D01*
X10105496Y-1252007D01*
X10099684Y-1228803D01*
X10096174Y-1205142D01*
X10095000Y-1181250D01*
X10095000Y-693750D01*
X10096174Y-669858D01*
X10099684Y-646197D01*
X10105496Y-622993D01*
X10113554Y-600471D01*
X10123782Y-578847D01*
X10136079Y-558330D01*
X10150329Y-539117D01*
X10166393Y-521393D01*
X10184117Y-505329D01*
X10203330Y-491079D01*
X10223847Y-478782D01*
X10245471Y-468554D01*
X10267993Y-460496D01*
X10291197Y-454684D01*
X10314858Y-451174D01*
X10338750Y-450000D01*
X11251250Y-450000D01*
X11275142Y-451174D01*
X11275142Y-451174D01*
G37*
D13*
X10795000Y-937500D03*
D12*
G36*
X-10314858Y-451174D02*
G01*
X-10291197Y-454684D01*
X-10267993Y-460496D01*
X-10245471Y-468554D01*
X-10223847Y-478782D01*
X-10203330Y-491079D01*
X-10184117Y-505329D01*
X-10166393Y-521393D01*
X-10150329Y-539117D01*
X-10136079Y-558330D01*
X-10123782Y-578847D01*
X-10113554Y-600471D01*
X-10105496Y-622993D01*
X-10099684Y-646197D01*
X-10096174Y-669858D01*
X-10095000Y-693750D01*
X-10095000Y-1181250D01*
X-10096174Y-1205142D01*
X-10099684Y-1228803D01*
X-10105496Y-1252007D01*
X-10113554Y-1274529D01*
X-10123782Y-1296153D01*
X-10136079Y-1316670D01*
X-10150329Y-1335883D01*
X-10166393Y-1353607D01*
X-10184117Y-1369671D01*
X-10203330Y-1383921D01*
X-10223847Y-1396218D01*
X-10245471Y-1406446D01*
X-10267993Y-1414504D01*
X-10291197Y-1420316D01*
X-10314858Y-1423826D01*
X-10338750Y-1425000D01*
X-11251250Y-1425000D01*
X-11275142Y-1423826D01*
X-11298803Y-1420316D01*
X-11322007Y-1414504D01*
X-11344529Y-1406446D01*
X-11366153Y-1396218D01*
X-11386670Y-1383921D01*
X-11405883Y-1369671D01*
X-11423607Y-1353607D01*
X-11439671Y-1335883D01*
X-11453921Y-1316670D01*
X-11466218Y-1296153D01*
X-11476446Y-1274529D01*
X-11484504Y-1252007D01*
X-11490316Y-1228803D01*
X-11493826Y-1205142D01*
X-11495000Y-1181250D01*
X-11495000Y-693750D01*
X-11493826Y-669858D01*
X-11490316Y-646197D01*
X-11484504Y-622993D01*
X-11476446Y-600471D01*
X-11466218Y-578847D01*
X-11453921Y-558330D01*
X-11439671Y-539117D01*
X-11423607Y-521393D01*
X-11405883Y-505329D01*
X-11386670Y-491079D01*
X-11366153Y-478782D01*
X-11344529Y-468554D01*
X-11322007Y-460496D01*
X-11298803Y-454684D01*
X-11275142Y-451174D01*
X-11251250Y-450000D01*
X-10338750Y-450000D01*
X-10314858Y-451174D01*
X-10314858Y-451174D01*
G37*
D13*
X-10795000Y-937500D03*
D12*
G36*
X-10314858Y1423826D02*
G01*
X-10291197Y1420316D01*
X-10267993Y1414504D01*
X-10245471Y1406446D01*
X-10223847Y1396218D01*
X-10203330Y1383921D01*
X-10184117Y1369671D01*
X-10166393Y1353607D01*
X-10150329Y1335883D01*
X-10136079Y1316670D01*
X-10123782Y1296153D01*
X-10113554Y1274529D01*
X-10105496Y1252007D01*
X-10099684Y1228803D01*
X-10096174Y1205142D01*
X-10095000Y1181250D01*
X-10095000Y693750D01*
X-10096174Y669858D01*
X-10099684Y646197D01*
X-10105496Y622993D01*
X-10113554Y600471D01*
X-10123782Y578847D01*
X-10136079Y558330D01*
X-10150329Y539117D01*
X-10166393Y521393D01*
X-10184117Y505329D01*
X-10203330Y491079D01*
X-10223847Y478782D01*
X-10245471Y468554D01*
X-10267993Y460496D01*
X-10291197Y454684D01*
X-10314858Y451174D01*
X-10338750Y450000D01*
X-11251250Y450000D01*
X-11275142Y451174D01*
X-11298803Y454684D01*
X-11322007Y460496D01*
X-11344529Y468554D01*
X-11366153Y478782D01*
X-11386670Y491079D01*
X-11405883Y505329D01*
X-11423607Y521393D01*
X-11439671Y539117D01*
X-11453921Y558330D01*
X-11466218Y578847D01*
X-11476446Y600471D01*
X-11484504Y622993D01*
X-11490316Y646197D01*
X-11493826Y669858D01*
X-11495000Y693750D01*
X-11495000Y1181250D01*
X-11493826Y1205142D01*
X-11490316Y1228803D01*
X-11484504Y1252007D01*
X-11476446Y1274529D01*
X-11466218Y1296153D01*
X-11453921Y1316670D01*
X-11439671Y1335883D01*
X-11423607Y1353607D01*
X-11405883Y1369671D01*
X-11386670Y1383921D01*
X-11366153Y1396218D01*
X-11344529Y1406446D01*
X-11322007Y1414504D01*
X-11298803Y1420316D01*
X-11275142Y1423826D01*
X-11251250Y1425000D01*
X-10338750Y1425000D01*
X-10314858Y1423826D01*
X-10314858Y1423826D01*
G37*
D13*
X-10795000Y937500D03*
D11*
X23812500Y5207000D03*
X23812500Y-5207000D03*
X-23812500Y5207000D03*
X-23812500Y-5207000D03*
D12*
G36*
X6195142Y-451174D02*
G01*
X6218803Y-454684D01*
X6242007Y-460496D01*
X6264529Y-468554D01*
X6286153Y-478782D01*
X6306670Y-491079D01*
X6325883Y-505329D01*
X6343607Y-521393D01*
X6359671Y-539117D01*
X6373921Y-558330D01*
X6386218Y-578847D01*
X6396446Y-600471D01*
X6404504Y-622993D01*
X6410316Y-646197D01*
X6413826Y-669858D01*
X6415000Y-693750D01*
X6415000Y-1181250D01*
X6413826Y-1205142D01*
X6410316Y-1228803D01*
X6404504Y-1252007D01*
X6396446Y-1274529D01*
X6386218Y-1296153D01*
X6373921Y-1316670D01*
X6359671Y-1335883D01*
X6343607Y-1353607D01*
X6325883Y-1369671D01*
X6306670Y-1383921D01*
X6286153Y-1396218D01*
X6264529Y-1406446D01*
X6242007Y-1414504D01*
X6218803Y-1420316D01*
X6195142Y-1423826D01*
X6171250Y-1425000D01*
X5258750Y-1425000D01*
X5234858Y-1423826D01*
X5211197Y-1420316D01*
X5187993Y-1414504D01*
X5165471Y-1406446D01*
X5143847Y-1396218D01*
X5123330Y-1383921D01*
X5104117Y-1369671D01*
X5086393Y-1353607D01*
X5070329Y-1335883D01*
X5056079Y-1316670D01*
X5043782Y-1296153D01*
X5033554Y-1274529D01*
X5025496Y-1252007D01*
X5019684Y-1228803D01*
X5016174Y-1205142D01*
X5015000Y-1181250D01*
X5015000Y-693750D01*
X5016174Y-669858D01*
X5019684Y-646197D01*
X5025496Y-622993D01*
X5033554Y-600471D01*
X5043782Y-578847D01*
X5056079Y-558330D01*
X5070329Y-539117D01*
X5086393Y-521393D01*
X5104117Y-505329D01*
X5123330Y-491079D01*
X5143847Y-478782D01*
X5165471Y-468554D01*
X5187993Y-460496D01*
X5211197Y-454684D01*
X5234858Y-451174D01*
X5258750Y-450000D01*
X6171250Y-450000D01*
X6195142Y-451174D01*
X6195142Y-451174D01*
G37*
D13*
X5715000Y-937500D03*
D12*
G36*
X6195142Y1423826D02*
G01*
X6218803Y1420316D01*
X6242007Y1414504D01*
X6264529Y1406446D01*
X6286153Y1396218D01*
X6306670Y1383921D01*
X6325883Y1369671D01*
X6343607Y1353607D01*
X6359671Y1335883D01*
X6373921Y1316670D01*
X6386218Y1296153D01*
X6396446Y1274529D01*
X6404504Y1252007D01*
X6410316Y1228803D01*
X6413826Y1205142D01*
X6415000Y1181250D01*
X6415000Y693750D01*
X6413826Y669858D01*
X6410316Y646197D01*
X6404504Y622993D01*
X6396446Y600471D01*
X6386218Y578847D01*
X6373921Y558330D01*
X6359671Y539117D01*
X6343607Y521393D01*
X6325883Y505329D01*
X6306670Y491079D01*
X6286153Y478782D01*
X6264529Y468554D01*
X6242007Y460496D01*
X6218803Y454684D01*
X6195142Y451174D01*
X6171250Y450000D01*
X5258750Y450000D01*
X5234858Y451174D01*
X5211197Y454684D01*
X5187993Y460496D01*
X5165471Y468554D01*
X5143847Y478782D01*
X5123330Y491079D01*
X5104117Y505329D01*
X5086393Y521393D01*
X5070329Y539117D01*
X5056079Y558330D01*
X5043782Y578847D01*
X5033554Y600471D01*
X5025496Y622993D01*
X5019684Y646197D01*
X5016174Y669858D01*
X5015000Y693750D01*
X5015000Y1181250D01*
X5016174Y1205142D01*
X5019684Y1228803D01*
X5025496Y1252007D01*
X5033554Y1274529D01*
X5043782Y1296153D01*
X5056079Y1316670D01*
X5070329Y1335883D01*
X5086393Y1353607D01*
X5104117Y1369671D01*
X5123330Y1383921D01*
X5143847Y1396218D01*
X5165471Y1406446D01*
X5187993Y1414504D01*
X5211197Y1420316D01*
X5234858Y1423826D01*
X5258750Y1425000D01*
X6171250Y1425000D01*
X6195142Y1423826D01*
X6195142Y1423826D01*
G37*
D13*
X5715000Y937500D03*
D12*
G36*
X-5234858Y-451174D02*
G01*
X-5211197Y-454684D01*
X-5187993Y-460496D01*
X-5165471Y-468554D01*
X-5143847Y-478782D01*
X-5123330Y-491079D01*
X-5104117Y-505329D01*
X-5086393Y-521393D01*
X-5070329Y-539117D01*
X-5056079Y-558330D01*
X-5043782Y-578847D01*
X-5033554Y-600471D01*
X-5025496Y-622993D01*
X-5019684Y-646197D01*
X-5016174Y-669858D01*
X-5015000Y-693750D01*
X-5015000Y-1181250D01*
X-5016174Y-1205142D01*
X-5019684Y-1228803D01*
X-5025496Y-1252007D01*
X-5033554Y-1274529D01*
X-5043782Y-1296153D01*
X-5056079Y-1316670D01*
X-5070329Y-1335883D01*
X-5086393Y-1353607D01*
X-5104117Y-1369671D01*
X-5123330Y-1383921D01*
X-5143847Y-1396218D01*
X-5165471Y-1406446D01*
X-5187993Y-1414504D01*
X-5211197Y-1420316D01*
X-5234858Y-1423826D01*
X-5258750Y-1425000D01*
X-6171250Y-1425000D01*
X-6195142Y-1423826D01*
X-6218803Y-1420316D01*
X-6242007Y-1414504D01*
X-6264529Y-1406446D01*
X-6286153Y-1396218D01*
X-6306670Y-1383921D01*
X-6325883Y-1369671D01*
X-6343607Y-1353607D01*
X-6359671Y-1335883D01*
X-6373921Y-1316670D01*
X-6386218Y-1296153D01*
X-6396446Y-1274529D01*
X-6404504Y-1252007D01*
X-6410316Y-1228803D01*
X-6413826Y-1205142D01*
X-6415000Y-1181250D01*
X-6415000Y-693750D01*
X-6413826Y-669858D01*
X-6410316Y-646197D01*
X-6404504Y-622993D01*
X-6396446Y-600471D01*
X-6386218Y-578847D01*
X-6373921Y-558330D01*
X-6359671Y-539117D01*
X-6343607Y-521393D01*
X-6325883Y-505329D01*
X-6306670Y-491079D01*
X-6286153Y-478782D01*
X-6264529Y-468554D01*
X-6242007Y-460496D01*
X-6218803Y-454684D01*
X-6195142Y-451174D01*
X-6171250Y-450000D01*
X-5258750Y-450000D01*
X-5234858Y-451174D01*
X-5234858Y-451174D01*
G37*
D13*
X-5715000Y-937500D03*
D12*
G36*
X-5234858Y1423826D02*
G01*
X-5211197Y1420316D01*
X-5187993Y1414504D01*
X-5165471Y1406446D01*
X-5143847Y1396218D01*
X-5123330Y1383921D01*
X-5104117Y1369671D01*
X-5086393Y1353607D01*
X-5070329Y1335883D01*
X-5056079Y1316670D01*
X-5043782Y1296153D01*
X-5033554Y1274529D01*
X-5025496Y1252007D01*
X-5019684Y1228803D01*
X-5016174Y1205142D01*
X-5015000Y1181250D01*
X-5015000Y693750D01*
X-5016174Y669858D01*
X-5019684Y646197D01*
X-5025496Y622993D01*
X-5033554Y600471D01*
X-5043782Y578847D01*
X-5056079Y558330D01*
X-5070329Y539117D01*
X-5086393Y521393D01*
X-5104117Y505329D01*
X-5123330Y491079D01*
X-5143847Y478782D01*
X-5165471Y468554D01*
X-5187993Y460496D01*
X-5211197Y454684D01*
X-5234858Y451174D01*
X-5258750Y450000D01*
X-6171250Y450000D01*
X-6195142Y451174D01*
X-6218803Y454684D01*
X-6242007Y460496D01*
X-6264529Y468554D01*
X-6286153Y478782D01*
X-6306670Y491079D01*
X-6325883Y505329D01*
X-6343607Y521393D01*
X-6359671Y539117D01*
X-6373921Y558330D01*
X-6386218Y578847D01*
X-6396446Y600471D01*
X-6404504Y622993D01*
X-6410316Y646197D01*
X-6413826Y669858D01*
X-6415000Y693750D01*
X-6415000Y1181250D01*
X-6413826Y1205142D01*
X-6410316Y1228803D01*
X-6404504Y1252007D01*
X-6396446Y1274529D01*
X-6386218Y1296153D01*
X-6373921Y1316670D01*
X-6359671Y1335883D01*
X-6343607Y1353607D01*
X-6325883Y1369671D01*
X-6306670Y1383921D01*
X-6286153Y1396218D01*
X-6264529Y1406446D01*
X-6242007Y1414504D01*
X-6218803Y1420316D01*
X-6195142Y1423826D01*
X-6171250Y1425000D01*
X-5258750Y1425000D01*
X-5234858Y1423826D01*
X-5234858Y1423826D01*
G37*
D13*
X-5715000Y937500D03*
D14*
X11230893Y5279107D03*
D12*
G36*
X11831934Y5243752D02*
G01*
X11266248Y4678066D01*
X10629852Y5314462D01*
X11195538Y5880148D01*
X11831934Y5243752D01*
X11831934Y5243752D01*
G37*
D14*
X13316858Y4536645D03*
D12*
G36*
X13917899Y4501290D02*
G01*
X13352213Y3935604D01*
X12715817Y4572000D01*
X13281503Y5137686D01*
X13917899Y4501290D01*
X13917899Y4501290D01*
G37*
D14*
X11973355Y3193142D03*
D12*
G36*
X12574396Y3157787D02*
G01*
X12008710Y2592101D01*
X11372314Y3228497D01*
X11938000Y3794183D01*
X12574396Y3157787D01*
X12574396Y3157787D01*
G37*
D14*
X-11230893Y-5279107D03*
D12*
G36*
X-11831934Y-5243752D02*
G01*
X-11266248Y-4678066D01*
X-10629852Y-5314462D01*
X-11195538Y-5880148D01*
X-11831934Y-5243752D01*
X-11831934Y-5243752D01*
G37*
D14*
X-13316858Y-4536645D03*
D12*
G36*
X-13917899Y-4501290D02*
G01*
X-13352213Y-3935604D01*
X-12715817Y-4572000D01*
X-13281503Y-5137686D01*
X-13917899Y-4501290D01*
X-13917899Y-4501290D01*
G37*
D14*
X-11973355Y-3193142D03*
D12*
G36*
X-12574396Y-3157787D02*
G01*
X-12008710Y-2592101D01*
X-11372314Y-3228497D01*
X-11938000Y-3794183D01*
X-12574396Y-3157787D01*
X-12574396Y-3157787D01*
G37*
D15*
X20933000Y4423000D03*
X12087000Y-4423000D03*
X4423000Y4423000D03*
X-4423000Y-4423000D03*
X-12087000Y4423000D03*
X-20933000Y-4423000D03*
D14*
X9786398Y2556260D03*
X5102860Y2176780D03*
X7236460Y2923540D03*
X10716260Y4036060D03*
D16*
X10238763Y-381263D02*
X10795000Y-937500D01*
X9769990Y87510D02*
X10238763Y-381263D01*
X9769990Y1974167D02*
X9769990Y87510D01*
X9786398Y1990575D02*
X9769990Y1974167D01*
X9786398Y2556260D02*
X9786398Y1990575D01*
D17*
X5715000Y937500D02*
X6652500Y937500D01*
X7112001Y1397001D02*
X7620000Y1905000D01*
X6652500Y937500D02*
X7112001Y1397001D01*
D16*
X-8127999Y2412999D02*
X-7620000Y1905000D01*
X-8453001Y2738001D02*
X-8127999Y2412999D01*
X-9289841Y2738001D02*
X-8453001Y2738001D01*
X-10238763Y1789079D02*
X-9289841Y2738001D01*
X-10238763Y1493737D02*
X-10238763Y1789079D01*
X-10795000Y937500D02*
X-10238763Y1493737D01*
X-6682500Y1905000D02*
X-5715000Y937500D01*
X-7620000Y1905000D02*
X-6682500Y1905000D01*
D17*
X-7317500Y4356000D02*
X-7317500Y5588000D01*
D18*
X23812500Y-5207000D02*
X22740620Y-5207000D01*
X22740620Y-5207000D02*
X21973540Y-5974080D01*
D17*
X-9255000Y-5522000D02*
X-9255000Y-4922000D01*
X-7255000Y-4572000D02*
X-7255000Y-5172000D01*
D16*
X10795000Y937500D02*
X10795000Y2750820D01*
X10795000Y2750820D02*
X10144760Y3401060D01*
X10144760Y3401060D02*
X9372600Y3401060D01*
X8890000Y2918460D02*
X8890000Y1905000D01*
X9372600Y3401060D02*
X8890000Y2918460D01*
D17*
X10795000Y2014787D02*
X10795000Y937500D01*
X11973355Y3193142D02*
X10795000Y2014787D01*
D16*
X-9397999Y1397001D02*
X-8890000Y1905000D01*
X-9769990Y1025010D02*
X-9397999Y1397001D01*
X-9769990Y87510D02*
X-9769990Y1025010D01*
X-10795000Y-937500D02*
X-9769990Y87510D01*
D17*
X-11973355Y-2115855D02*
X-10795000Y-937500D01*
X-11973355Y-3193142D02*
X-11973355Y-2115855D01*
X6489700Y2176780D02*
X7236460Y2923540D01*
X5102860Y2176780D02*
X6489700Y2176780D01*
X12651172Y4536645D02*
X13316858Y4536645D01*
X11782530Y4536645D02*
X12651172Y4536645D01*
X11281945Y4036060D02*
X11782530Y4536645D01*
X10716260Y4036060D02*
X11281945Y4036060D01*
X-12963305Y-4183092D02*
X-10817572Y-4183092D01*
X-13316858Y-4536645D02*
X-12963305Y-4183092D01*
X-10817572Y-4183092D02*
X-9570720Y-2936240D01*
X-8651240Y-2936240D02*
X-7620000Y-1905000D01*
X-9570720Y-2936240D02*
X-8651240Y-2936240D01*
D19*
G36*
X24046977Y6389146D02*
G01*
X24272131Y6321087D01*
X24479769Y6210594D01*
X24661994Y6061874D01*
X24811861Y5880592D01*
X24923662Y5673655D01*
X24993142Y5448940D01*
X25017650Y5215015D01*
X24996254Y4980779D01*
X24929769Y4755161D01*
X24820727Y4546751D01*
X24673283Y4363494D01*
X24493052Y4212365D01*
X24286898Y4099120D01*
X24062680Y4028077D01*
X23822046Y4001168D01*
X23712678Y4004450D01*
X23712535Y4004440D01*
X23651689Y4006439D01*
X23635983Y4005418D01*
X23620244Y4005523D01*
X23616715Y4005176D01*
X23468818Y3989581D01*
X23446230Y3984936D01*
X23423658Y3980623D01*
X23420268Y3979598D01*
X23420262Y3979597D01*
X23420256Y3979595D01*
X23278212Y3935573D01*
X23256947Y3926626D01*
X23235651Y3918014D01*
X23232529Y3916352D01*
X23232519Y3916348D01*
X23232511Y3916343D01*
X23101726Y3845572D01*
X23082657Y3832700D01*
X23063383Y3820079D01*
X23060636Y3817837D01*
X22946080Y3723003D01*
X22929824Y3706622D01*
X22913422Y3690550D01*
X22911168Y3687823D01*
X22911161Y3687816D01*
X22911156Y3687808D01*
X22817208Y3572539D01*
X22804438Y3553306D01*
X22791474Y3534359D01*
X22789794Y3531250D01*
X22789788Y3531241D01*
X22789784Y3531232D01*
X22720014Y3399908D01*
X22711225Y3378563D01*
X22702187Y3357457D01*
X22701139Y3354069D01*
X22658203Y3211685D01*
X22653723Y3189024D01*
X22648961Y3166582D01*
X22648592Y3163064D01*
X22648590Y3163054D01*
X22648590Y3163045D01*
X22636607Y3040410D01*
X22636600Y3040388D01*
X22632924Y3003064D01*
X22632925Y12469D01*
X22632924Y-3003064D01*
X22633436Y-3008265D01*
X22635559Y-3061562D01*
X22637717Y-3077155D01*
X22638755Y-3092856D01*
X22639357Y-3096351D01*
X22665644Y-3242726D01*
X22671922Y-3264941D01*
X22677857Y-3287118D01*
X22679126Y-3290429D01*
X22733343Y-3428910D01*
X22743804Y-3449458D01*
X22753945Y-3470085D01*
X22755830Y-3473082D01*
X22755833Y-3473087D01*
X22755836Y-3473091D01*
X22835915Y-3598399D01*
X22850183Y-3616543D01*
X22864123Y-3634788D01*
X22866553Y-3637361D01*
X22866558Y-3637367D01*
X22866563Y-3637372D01*
X22969455Y-3744738D01*
X22986929Y-3759726D01*
X23004193Y-3774956D01*
X23007083Y-3777011D01*
X23128876Y-3862352D01*
X23148955Y-3873675D01*
X23168822Y-3885247D01*
X23172056Y-3886702D01*
X23308105Y-3946761D01*
X23330039Y-3953981D01*
X23351737Y-3961460D01*
X23355182Y-3962257D01*
X23355192Y-3962260D01*
X23355202Y-3962261D01*
X23500315Y-3994749D01*
X23523186Y-3997565D01*
X23545972Y-4000694D01*
X23549516Y-4000807D01*
X23549517Y-4000807D01*
X23698188Y-4004490D01*
X23698411Y-4004474D01*
X23698937Y-4004490D01*
X23958976Y-4010759D01*
X24188536Y-4061991D01*
X24403777Y-4156838D01*
X24596491Y-4291682D01*
X24759348Y-4461395D01*
X24886136Y-4659503D01*
X24972031Y-4878466D01*
X25013761Y-5109946D01*
X25009734Y-5345124D01*
X24960106Y-5575033D01*
X24866765Y-5790929D01*
X24733268Y-5984583D01*
X24564699Y-6148619D01*
X24367480Y-6276788D01*
X24149119Y-6364210D01*
X23911139Y-6408829D01*
X23804981Y-6413500D01*
X-23799449Y-6413500D01*
X-24046977Y-6389146D01*
X-24272129Y-6321087D01*
X-24479766Y-6210596D01*
X-24661992Y-6061876D01*
X-24811860Y-5880595D01*
X-24923662Y-5673655D01*
X-24993142Y-5448937D01*
X-25017650Y-5215014D01*
X-24996254Y-4980779D01*
X-24929769Y-4755161D01*
X-24820728Y-4546754D01*
X-24673284Y-4363496D01*
X-24576449Y-4282295D01*
X-22361600Y-4282295D01*
X-22361600Y-4563705D01*
X-22306699Y-4839707D01*
X-22199009Y-5099696D01*
X-22042666Y-5333679D01*
X-21843679Y-5532666D01*
X-21609696Y-5689009D01*
X-21349707Y-5796699D01*
X-21073705Y-5851600D01*
X-20792295Y-5851600D01*
X-20516293Y-5796699D01*
X-20256304Y-5689009D01*
X-20022321Y-5532666D01*
X-19823334Y-5333679D01*
X-19666991Y-5099696D01*
X-19559301Y-4839707D01*
X-19504400Y-4563705D01*
X-19504400Y-4282295D01*
X-19559301Y-4006293D01*
X-19666991Y-3746304D01*
X-19817259Y-3521413D01*
X-19588053Y-3750619D01*
X-18797200Y-4279050D01*
X-17918451Y-4643040D01*
X-16985576Y-4828600D01*
X-16034424Y-4828600D01*
X-15101549Y-4643040D01*
X-14222800Y-4279050D01*
X-13613174Y-3871711D01*
X-14080326Y-4338863D01*
X-14108893Y-4373672D01*
X-14130120Y-4413385D01*
X-14143191Y-4456477D01*
X-14147605Y-4501290D01*
X-14143191Y-4546103D01*
X-14130120Y-4589195D01*
X-14108893Y-4628908D01*
X-14080326Y-4663717D01*
X-13443930Y-5300113D01*
X-13409121Y-5328680D01*
X-13369408Y-5349907D01*
X-13326316Y-5362978D01*
X-13281503Y-5367392D01*
X-13236690Y-5362978D01*
X-13193598Y-5349907D01*
X-13153885Y-5328680D01*
X-13119076Y-5300113D01*
X-12553390Y-4734427D01*
X-12524823Y-4699618D01*
X-12503596Y-4659905D01*
X-12490525Y-4616813D01*
X-12486111Y-4572000D01*
X-12490525Y-4527187D01*
X-12495225Y-4511692D01*
X-10833704Y-4511692D01*
X-10817572Y-4513281D01*
X-10801440Y-4511692D01*
X-10801437Y-4511692D01*
X-10753155Y-4506937D01*
X-10691214Y-4488147D01*
X-10634129Y-4457634D01*
X-10584093Y-4416571D01*
X-10573806Y-4404036D01*
X-9434609Y-3264840D01*
X-8667372Y-3264840D01*
X-8651240Y-3266429D01*
X-8635108Y-3264840D01*
X-8635105Y-3264840D01*
X-8586823Y-3260085D01*
X-8524882Y-3241295D01*
X-8467797Y-3210782D01*
X-8417761Y-3169719D01*
X-8407474Y-3157184D01*
X-7855170Y-2604880D01*
X-7834858Y-2613293D01*
X-7692549Y-2641600D01*
X-7547451Y-2641600D01*
X-7405142Y-2613293D01*
X-7271089Y-2557766D01*
X-7150445Y-2477155D01*
X-7047845Y-2374555D01*
X-6967234Y-2253911D01*
X-6911707Y-2119858D01*
X-6883400Y-1977549D01*
X-6883400Y-1832451D01*
X-6911707Y-1690142D01*
X-6967234Y-1556089D01*
X-7047845Y-1435445D01*
X-7150445Y-1332845D01*
X-7244500Y-1270000D01*
X-7150445Y-1207155D01*
X-7047845Y-1104555D01*
X-6967234Y-983911D01*
X-6911707Y-849858D01*
X-6883400Y-707549D01*
X-6883400Y-562451D01*
X-6911707Y-420142D01*
X-6967234Y-286089D01*
X-7047845Y-165445D01*
X-7150445Y-62845D01*
X-7244500Y0D01*
X-7150445Y62845D01*
X-7047845Y165445D01*
X-6967234Y286089D01*
X-6911707Y420142D01*
X-6883400Y562451D01*
X-6883400Y707549D01*
X-6911707Y849858D01*
X-6967234Y983911D01*
X-7047845Y1104555D01*
X-7150445Y1207155D01*
X-7244500Y1270000D01*
X-7150445Y1332845D01*
X-7047845Y1435445D01*
X-6970367Y1551400D01*
X-6828965Y1551400D01*
X-6615959Y1338393D01*
X-6635609Y1273617D01*
X-6644706Y1181250D01*
X-6644706Y693750D01*
X-6635609Y601383D01*
X-6608666Y512566D01*
X-6564914Y430712D01*
X-6506034Y358966D01*
X-6434288Y300086D01*
X-6352434Y256334D01*
X-6263617Y229391D01*
X-6171250Y220294D01*
X-5258750Y220294D01*
X-5166383Y229391D01*
X-5077566Y256334D01*
X-4995712Y300086D01*
X-4923966Y358966D01*
X-4865086Y430712D01*
X-4821334Y512566D01*
X-4821067Y513445D01*
X-4828600Y475576D01*
X-4828600Y-475576D01*
X-4643040Y-1408451D01*
X-4279050Y-2287200D01*
X-3750619Y-3078053D01*
X-3521413Y-3307259D01*
X-3746304Y-3156991D01*
X-4006293Y-3049301D01*
X-4282295Y-2994400D01*
X-4563705Y-2994400D01*
X-4839707Y-3049301D01*
X-5099696Y-3156991D01*
X-5333679Y-3313334D01*
X-5532666Y-3512321D01*
X-5689009Y-3746304D01*
X-5796699Y-4006293D01*
X-5851600Y-4282295D01*
X-5851600Y-4563705D01*
X-5796699Y-4839707D01*
X-5689009Y-5099696D01*
X-5532666Y-5333679D01*
X-5333679Y-5532666D01*
X-5099696Y-5689009D01*
X-4839707Y-5796699D01*
X-4563705Y-5851600D01*
X-4282295Y-5851600D01*
X-4006293Y-5796699D01*
X-3746304Y-5689009D01*
X-3512321Y-5532666D01*
X-3313334Y-5333679D01*
X-3156991Y-5099696D01*
X-3049301Y-4839707D01*
X-2994400Y-4563705D01*
X-2994400Y-4282295D01*
X-3049301Y-4006293D01*
X-3156991Y-3746304D01*
X-3307259Y-3521413D01*
X-3078053Y-3750619D01*
X-2287200Y-4279050D01*
X-1408451Y-4643040D01*
X-475576Y-4828600D01*
X475576Y-4828600D01*
X1408451Y-4643040D01*
X2287200Y-4279050D01*
X3078053Y-3750619D01*
X3750619Y-3078053D01*
X4279050Y-2287200D01*
X4643040Y-1408451D01*
X4828600Y-475576D01*
X4828600Y475576D01*
X4821067Y513445D01*
X4821334Y512566D01*
X4865086Y430712D01*
X4923966Y358966D01*
X4995712Y300086D01*
X5077566Y256334D01*
X5166383Y229391D01*
X5258750Y220294D01*
X6171250Y220294D01*
X6263617Y229391D01*
X6352434Y256334D01*
X6434288Y300086D01*
X6506034Y358966D01*
X6564914Y430712D01*
X6608666Y512566D01*
X6635609Y601383D01*
X6636349Y608900D01*
X6636368Y608900D01*
X6652500Y607311D01*
X6668632Y608900D01*
X6668635Y608900D01*
X6716917Y613655D01*
X6778858Y632445D01*
X6835943Y662958D01*
X6883400Y701904D01*
X6883400Y562451D01*
X6911707Y420142D01*
X6967234Y286089D01*
X7047845Y165445D01*
X7150445Y62845D01*
X7244500Y0D01*
X7150445Y-62845D01*
X7047845Y-165445D01*
X6967234Y-286089D01*
X6911707Y-420142D01*
X6883400Y-562451D01*
X6883400Y-707549D01*
X6911707Y-849858D01*
X6967234Y-983911D01*
X7047845Y-1104555D01*
X7150445Y-1207155D01*
X7271089Y-1287766D01*
X7405142Y-1343293D01*
X7547451Y-1371600D01*
X7692549Y-1371600D01*
X7834858Y-1343293D01*
X7968911Y-1287766D01*
X8089555Y-1207155D01*
X8192155Y-1104555D01*
X8255000Y-1010500D01*
X8317845Y-1104555D01*
X8420445Y-1207155D01*
X8514500Y-1270000D01*
X8420445Y-1332845D01*
X8317845Y-1435445D01*
X8237234Y-1556089D01*
X8181707Y-1690142D01*
X8153400Y-1832451D01*
X8153400Y-1977549D01*
X8181707Y-2119858D01*
X8237234Y-2253911D01*
X8317845Y-2374555D01*
X8420445Y-2477155D01*
X8541089Y-2557766D01*
X8675142Y-2613293D01*
X8817451Y-2641600D01*
X8962549Y-2641600D01*
X9104858Y-2613293D01*
X9238911Y-2557766D01*
X9359555Y-2477155D01*
X9462155Y-2374555D01*
X9542766Y-2253911D01*
X9598293Y-2119858D01*
X9626600Y-1977549D01*
X9626600Y-1832451D01*
X9598293Y-1690142D01*
X9542766Y-1556089D01*
X9462155Y-1435445D01*
X9359555Y-1332845D01*
X9265500Y-1270000D01*
X9359555Y-1207155D01*
X9462155Y-1104555D01*
X9542766Y-983911D01*
X9598293Y-849858D01*
X9626600Y-707549D01*
X9626600Y-562451D01*
X9598293Y-420142D01*
X9542766Y-286089D01*
X9462155Y-165445D01*
X9359555Y-62845D01*
X9265500Y0D01*
X9359555Y62845D01*
X9416391Y119681D01*
X9416391Y104872D01*
X9414681Y87510D01*
X9416391Y70149D01*
X9416391Y70148D01*
X9421508Y18192D01*
X9430809Y-12469D01*
X9441727Y-48461D01*
X9474561Y-109889D01*
X9482001Y-118954D01*
X9518749Y-163732D01*
X9532233Y-174798D01*
X9894041Y-536607D01*
X9874391Y-601383D01*
X9865294Y-693750D01*
X9865294Y-1181250D01*
X9874391Y-1273617D01*
X9901334Y-1362434D01*
X9945086Y-1444288D01*
X10003966Y-1516034D01*
X10075712Y-1574914D01*
X10157566Y-1618666D01*
X10246383Y-1645609D01*
X10338750Y-1654706D01*
X11251250Y-1654706D01*
X11343617Y-1645609D01*
X11432434Y-1618666D01*
X11514288Y-1574914D01*
X11586034Y-1516034D01*
X11644914Y-1444288D01*
X11688666Y-1362434D01*
X11715609Y-1273617D01*
X11724706Y-1181250D01*
X11724706Y-693750D01*
X11724616Y-692840D01*
X11866960Y-1408451D01*
X12230950Y-2287200D01*
X12759381Y-3078053D01*
X12988587Y-3307259D01*
X12763696Y-3156991D01*
X12503707Y-3049301D01*
X12227705Y-2994400D01*
X11946295Y-2994400D01*
X11670293Y-3049301D01*
X11410304Y-3156991D01*
X11176321Y-3313334D01*
X10977334Y-3512321D01*
X10820991Y-3746304D01*
X10713301Y-4006293D01*
X10658400Y-4282295D01*
X10658400Y-4563705D01*
X10713301Y-4839707D01*
X10820991Y-5099696D01*
X10977334Y-5333679D01*
X11176321Y-5532666D01*
X11410304Y-5689009D01*
X11670293Y-5796699D01*
X11946295Y-5851600D01*
X12227705Y-5851600D01*
X12503707Y-5796699D01*
X12763696Y-5689009D01*
X12997679Y-5532666D01*
X13196666Y-5333679D01*
X13353009Y-5099696D01*
X13460699Y-4839707D01*
X13515600Y-4563705D01*
X13515600Y-4282295D01*
X13460699Y-4006293D01*
X13353009Y-3746304D01*
X13202741Y-3521413D01*
X13431947Y-3750619D01*
X14222800Y-4279050D01*
X15101549Y-4643040D01*
X16034424Y-4828600D01*
X16985576Y-4828600D01*
X17918451Y-4643040D01*
X18797200Y-4279050D01*
X19588053Y-3750619D01*
X20260619Y-3078053D01*
X20789050Y-2287200D01*
X21153040Y-1408451D01*
X21338600Y-475576D01*
X21338600Y475576D01*
X21153040Y1408451D01*
X20789050Y2287200D01*
X20260619Y3078053D01*
X20031413Y3307259D01*
X20256304Y3156991D01*
X20516293Y3049301D01*
X20792295Y2994400D01*
X21073705Y2994400D01*
X21349707Y3049301D01*
X21609696Y3156991D01*
X21843679Y3313334D01*
X22042666Y3512321D01*
X22199009Y3746304D01*
X22306699Y4006293D01*
X22361600Y4282295D01*
X22361600Y4563705D01*
X22306699Y4839707D01*
X22199009Y5099696D01*
X22042666Y5333679D01*
X21843679Y5532666D01*
X21609696Y5689009D01*
X21349707Y5796699D01*
X21073705Y5851600D01*
X20792295Y5851600D01*
X20516293Y5796699D01*
X20256304Y5689009D01*
X20022321Y5532666D01*
X19823334Y5333679D01*
X19666991Y5099696D01*
X19559301Y4839707D01*
X19504400Y4563705D01*
X19504400Y4282295D01*
X19559301Y4006293D01*
X19666991Y3746304D01*
X19817259Y3521413D01*
X19588053Y3750619D01*
X18797200Y4279050D01*
X17918451Y4643040D01*
X16985576Y4828600D01*
X16034424Y4828600D01*
X15101549Y4643040D01*
X14222800Y4279050D01*
X13613174Y3871711D01*
X14080326Y4338863D01*
X14108893Y4373672D01*
X14130120Y4413385D01*
X14143191Y4456477D01*
X14147605Y4501290D01*
X14143191Y4546103D01*
X14130120Y4589195D01*
X14108893Y4628908D01*
X14080326Y4663717D01*
X13443930Y5300113D01*
X13409121Y5328680D01*
X13369408Y5349907D01*
X13326316Y5362978D01*
X13281503Y5367392D01*
X13236690Y5362978D01*
X13193598Y5349907D01*
X13153885Y5328680D01*
X13119076Y5300113D01*
X12684208Y4865245D01*
X11798661Y4865245D01*
X11782529Y4866834D01*
X11766397Y4865245D01*
X11766395Y4865245D01*
X11718113Y4860490D01*
X11656172Y4841700D01*
X11618971Y4821815D01*
X11599086Y4811187D01*
X11561583Y4780409D01*
X11549051Y4770124D01*
X11538768Y4757594D01*
X11209900Y4428726D01*
X11204526Y4436769D01*
X11116969Y4524326D01*
X11014014Y4593119D01*
X10899616Y4640504D01*
X10778172Y4664660D01*
X10654348Y4664660D01*
X10532904Y4640504D01*
X10418506Y4593119D01*
X10315551Y4524326D01*
X10227994Y4436769D01*
X10159201Y4333814D01*
X10111816Y4219416D01*
X10087660Y4097972D01*
X10087660Y3974148D01*
X10111816Y3852704D01*
X10152015Y3755654D01*
X10144760Y3756369D01*
X10127408Y3754660D01*
X9389951Y3754660D01*
X9372599Y3756369D01*
X9355247Y3754660D01*
X9355238Y3754660D01*
X9303282Y3749543D01*
X9236629Y3729324D01*
X9236627Y3729323D01*
X9175200Y3696489D01*
X9134985Y3663485D01*
X9121358Y3652302D01*
X9110292Y3638818D01*
X8652243Y3180768D01*
X8638758Y3169701D01*
X8627692Y3156217D01*
X8627691Y3156216D01*
X8622440Y3149818D01*
X8594571Y3115859D01*
X8561736Y3054430D01*
X8541517Y2987777D01*
X8536400Y2935821D01*
X8536400Y2935812D01*
X8534691Y2918460D01*
X8536400Y2901108D01*
X8536400Y2554633D01*
X8420445Y2477155D01*
X8317845Y2374555D01*
X8255000Y2280500D01*
X8192155Y2374555D01*
X8089555Y2477155D01*
X7968911Y2557766D01*
X7834858Y2613293D01*
X7791000Y2622017D01*
X7793519Y2625786D01*
X7840904Y2740184D01*
X7865060Y2861628D01*
X7865060Y2985452D01*
X7840904Y3106896D01*
X7793519Y3221294D01*
X7724726Y3324249D01*
X7637169Y3411806D01*
X7534214Y3480599D01*
X7419816Y3527984D01*
X7298372Y3552140D01*
X7174548Y3552140D01*
X7053104Y3527984D01*
X6938706Y3480599D01*
X6835751Y3411806D01*
X6748194Y3324249D01*
X6679401Y3221294D01*
X6632016Y3106896D01*
X6607860Y2985452D01*
X6607860Y2861628D01*
X6624779Y2776569D01*
X6353590Y2505380D01*
X5639308Y2505380D01*
X5591126Y2577489D01*
X5503569Y2665046D01*
X5400614Y2733839D01*
X5286216Y2781224D01*
X5164772Y2805380D01*
X5040948Y2805380D01*
X4919504Y2781224D01*
X4805106Y2733839D01*
X4702151Y2665046D01*
X4614594Y2577489D01*
X4545801Y2474534D01*
X4498416Y2360136D01*
X4474260Y2238692D01*
X4474260Y2114868D01*
X4498416Y1993424D01*
X4545801Y1879026D01*
X4614594Y1776071D01*
X4702151Y1688514D01*
X4805106Y1619721D01*
X4919504Y1572336D01*
X4978316Y1560638D01*
X4923966Y1516034D01*
X4865086Y1444288D01*
X4821334Y1362434D01*
X4794391Y1273617D01*
X4785294Y1181250D01*
X4785294Y693750D01*
X4785384Y692840D01*
X4643040Y1408451D01*
X4279050Y2287200D01*
X3750619Y3078053D01*
X3521413Y3307259D01*
X3746304Y3156991D01*
X4006293Y3049301D01*
X4282295Y2994400D01*
X4563705Y2994400D01*
X4839707Y3049301D01*
X5099696Y3156991D01*
X5333679Y3313334D01*
X5532666Y3512321D01*
X5689009Y3746304D01*
X5796699Y4006293D01*
X5851600Y4282295D01*
X5851600Y4563705D01*
X5796699Y4839707D01*
X5689009Y5099696D01*
X5532666Y5333679D01*
X5333679Y5532666D01*
X5099696Y5689009D01*
X4839707Y5796699D01*
X4563705Y5851600D01*
X4282295Y5851600D01*
X4006293Y5796699D01*
X3746304Y5689009D01*
X3512321Y5532666D01*
X3313334Y5333679D01*
X3156991Y5099696D01*
X3049301Y4839707D01*
X2994400Y4563705D01*
X2994400Y4282295D01*
X3049301Y4006293D01*
X3156991Y3746304D01*
X3307259Y3521413D01*
X3078053Y3750619D01*
X2287200Y4279050D01*
X1408451Y4643040D01*
X475576Y4828600D01*
X-475576Y4828600D01*
X-1408451Y4643040D01*
X-2287200Y4279050D01*
X-3078053Y3750619D01*
X-3750619Y3078053D01*
X-4279050Y2287200D01*
X-4643040Y1408451D01*
X-4785384Y692840D01*
X-4785294Y693750D01*
X-4785294Y1181250D01*
X-4794391Y1273617D01*
X-4821334Y1362434D01*
X-4865086Y1444288D01*
X-4923966Y1516034D01*
X-4995712Y1574914D01*
X-5077566Y1618666D01*
X-5166383Y1645609D01*
X-5258750Y1654706D01*
X-5932140Y1654706D01*
X-6420187Y2142752D01*
X-6431258Y2156242D01*
X-6485100Y2200429D01*
X-6546529Y2233264D01*
X-6613182Y2253483D01*
X-6665138Y2258600D01*
X-6665148Y2258600D01*
X-6682500Y2260309D01*
X-6699852Y2258600D01*
X-6970367Y2258600D01*
X-7047845Y2374555D01*
X-7150445Y2477155D01*
X-7271089Y2557766D01*
X-7405142Y2613293D01*
X-7547451Y2641600D01*
X-7692549Y2641600D01*
X-7829328Y2614393D01*
X-7865686Y2650751D01*
X-7865690Y2650756D01*
X-8190689Y2975754D01*
X-8201759Y2989243D01*
X-8255601Y3033430D01*
X-8317030Y3066265D01*
X-8383683Y3086484D01*
X-8435639Y3091601D01*
X-8435649Y3091601D01*
X-8453001Y3093310D01*
X-8470353Y3091601D01*
X-9272490Y3091601D01*
X-9289842Y3093310D01*
X-9307194Y3091601D01*
X-9307203Y3091601D01*
X-9359159Y3086484D01*
X-9425812Y3066265D01*
X-9487241Y3033430D01*
X-9541083Y2989243D01*
X-9552149Y2975759D01*
X-10476520Y2051387D01*
X-10490004Y2040321D01*
X-10501070Y2026837D01*
X-10501072Y2026835D01*
X-10534192Y1986478D01*
X-10540693Y1974316D01*
X-10567027Y1925050D01*
X-10587246Y1858397D01*
X-10592363Y1806441D01*
X-10592363Y1806431D01*
X-10594072Y1789079D01*
X-10592363Y1771727D01*
X-10592363Y1654706D01*
X-11251250Y1654706D01*
X-11343617Y1645609D01*
X-11432434Y1618666D01*
X-11514288Y1574914D01*
X-11586034Y1516034D01*
X-11644914Y1444288D01*
X-11688666Y1362434D01*
X-11715609Y1273617D01*
X-11724706Y1181250D01*
X-11724706Y693750D01*
X-11724616Y692840D01*
X-11866960Y1408451D01*
X-12230950Y2287200D01*
X-12759381Y3078053D01*
X-12988587Y3307259D01*
X-12763696Y3156991D01*
X-12503707Y3049301D01*
X-12227705Y2994400D01*
X-11946295Y2994400D01*
X-11670293Y3049301D01*
X-11410304Y3156991D01*
X-11176321Y3313334D01*
X-10977334Y3512321D01*
X-10820991Y3746304D01*
X-10713301Y4006293D01*
X-10658400Y4282295D01*
X-10658400Y4563705D01*
X-10713301Y4839707D01*
X-10820991Y5099696D01*
X-10977334Y5333679D01*
X-11176321Y5532666D01*
X-11410304Y5689009D01*
X-11670293Y5796699D01*
X-11946295Y5851600D01*
X-12227705Y5851600D01*
X-12503707Y5796699D01*
X-12763696Y5689009D01*
X-12997679Y5532666D01*
X-13196666Y5333679D01*
X-13353009Y5099696D01*
X-13460699Y4839707D01*
X-13515600Y4563705D01*
X-13515600Y4282295D01*
X-13460699Y4006293D01*
X-13353009Y3746304D01*
X-13202741Y3521413D01*
X-13431947Y3750619D01*
X-14222800Y4279050D01*
X-15101549Y4643040D01*
X-16034424Y4828600D01*
X-16985576Y4828600D01*
X-17918451Y4643040D01*
X-18797200Y4279050D01*
X-19588053Y3750619D01*
X-20260619Y3078053D01*
X-20789050Y2287200D01*
X-21153040Y1408451D01*
X-21338600Y475576D01*
X-21338600Y-475576D01*
X-21153040Y-1408451D01*
X-20789050Y-2287200D01*
X-20260619Y-3078053D01*
X-20031413Y-3307259D01*
X-20256304Y-3156991D01*
X-20516293Y-3049301D01*
X-20792295Y-2994400D01*
X-21073705Y-2994400D01*
X-21349707Y-3049301D01*
X-21609696Y-3156991D01*
X-21843679Y-3313334D01*
X-22042666Y-3512321D01*
X-22199009Y-3746304D01*
X-22306699Y-4006293D01*
X-22361600Y-4282295D01*
X-24576449Y-4282295D01*
X-24493057Y-4212368D01*
X-24286899Y-4099121D01*
X-24062680Y-4028077D01*
X-23822052Y-4001167D01*
X-23712678Y-4004450D01*
X-23712535Y-4004440D01*
X-23651689Y-4006439D01*
X-23635983Y-4005418D01*
X-23620244Y-4005523D01*
X-23616714Y-4005176D01*
X-23468818Y-3989581D01*
X-23446193Y-3984929D01*
X-23423658Y-3980622D01*
X-23420265Y-3979598D01*
X-23420259Y-3979596D01*
X-23278212Y-3935573D01*
X-23256934Y-3926620D01*
X-23235652Y-3918014D01*
X-23232529Y-3916352D01*
X-23232519Y-3916348D01*
X-23232511Y-3916343D01*
X-23101727Y-3845572D01*
X-23082619Y-3832675D01*
X-23063384Y-3820079D01*
X-23060636Y-3817837D01*
X-22946081Y-3723003D01*
X-22929839Y-3706637D01*
X-22913423Y-3690550D01*
X-22911163Y-3687817D01*
X-22817208Y-3572540D01*
X-22804442Y-3553312D01*
X-22791474Y-3534359D01*
X-22789788Y-3531240D01*
X-22720014Y-3399908D01*
X-22711215Y-3378539D01*
X-22702187Y-3357457D01*
X-22701139Y-3354069D01*
X-22658203Y-3211685D01*
X-22653723Y-3189024D01*
X-22648961Y-3166582D01*
X-22648592Y-3163064D01*
X-22648590Y-3163054D01*
X-22648590Y-3163045D01*
X-22636607Y-3040411D01*
X-22636600Y-3040389D01*
X-22632924Y-3003065D01*
X-22632924Y3003065D01*
X-22633436Y3008266D01*
X-22635559Y3061562D01*
X-22637717Y3077155D01*
X-22638755Y3092856D01*
X-22639357Y3096350D01*
X-22665644Y3242726D01*
X-22671922Y3264941D01*
X-22677857Y3287118D01*
X-22679126Y3290429D01*
X-22733343Y3428910D01*
X-22743804Y3449458D01*
X-22753945Y3470085D01*
X-22755830Y3473082D01*
X-22755833Y3473087D01*
X-22755836Y3473091D01*
X-22835915Y3598399D01*
X-22850210Y3616578D01*
X-22864123Y3634789D01*
X-22866553Y3637361D01*
X-22866558Y3637367D01*
X-22866563Y3637372D01*
X-22969455Y3744738D01*
X-22986951Y3759744D01*
X-23004193Y3774955D01*
X-23007083Y3777011D01*
X-23128876Y3862352D01*
X-23148955Y3873675D01*
X-23168822Y3885247D01*
X-23172047Y3886697D01*
X-23172056Y3886702D01*
X-23172065Y3886705D01*
X-23308105Y3946761D01*
X-23330049Y3953984D01*
X-23351737Y3961460D01*
X-23355182Y3962257D01*
X-23355192Y3962260D01*
X-23355202Y3962261D01*
X-23500316Y3994749D01*
X-23523210Y3997568D01*
X-23545972Y4000694D01*
X-23549506Y4000807D01*
X-23549517Y4000808D01*
X-23549527Y4000807D01*
X-23698188Y4004490D01*
X-23698411Y4004474D01*
X-23698936Y4004490D01*
X-23958976Y4010759D01*
X-24188535Y4061991D01*
X-24403777Y4156838D01*
X-24596491Y4291682D01*
X-24759348Y4461395D01*
X-24886136Y4659503D01*
X-24972031Y4878466D01*
X-25013761Y5109947D01*
X-25009734Y5345124D01*
X-24960106Y5575033D01*
X-24866764Y5790931D01*
X-24733264Y5984587D01*
X-24564697Y6148620D01*
X-24367478Y6276789D01*
X-24149119Y6364210D01*
X-23911139Y6408829D01*
X-23804982Y6413500D01*
X23799449Y6413500D01*
X24046977Y6389146D01*
X24046977Y6389146D01*
G37*
X24046977Y6389146D02*
X24272131Y6321087D01*
X24479769Y6210594D01*
X24661994Y6061874D01*
X24811861Y5880592D01*
X24923662Y5673655D01*
X24993142Y5448940D01*
X25017650Y5215015D01*
X24996254Y4980779D01*
X24929769Y4755161D01*
X24820727Y4546751D01*
X24673283Y4363494D01*
X24493052Y4212365D01*
X24286898Y4099120D01*
X24062680Y4028077D01*
X23822046Y4001168D01*
X23712678Y4004450D01*
X23712535Y4004440D01*
X23651689Y4006439D01*
X23635983Y4005418D01*
X23620244Y4005523D01*
X23616715Y4005176D01*
X23468818Y3989581D01*
X23446230Y3984936D01*
X23423658Y3980623D01*
X23420268Y3979598D01*
X23420262Y3979597D01*
X23420256Y3979595D01*
X23278212Y3935573D01*
X23256947Y3926626D01*
X23235651Y3918014D01*
X23232529Y3916352D01*
X23232519Y3916348D01*
X23232511Y3916343D01*
X23101726Y3845572D01*
X23082657Y3832700D01*
X23063383Y3820079D01*
X23060636Y3817837D01*
X22946080Y3723003D01*
X22929824Y3706622D01*
X22913422Y3690550D01*
X22911168Y3687823D01*
X22911161Y3687816D01*
X22911156Y3687808D01*
X22817208Y3572539D01*
X22804438Y3553306D01*
X22791474Y3534359D01*
X22789794Y3531250D01*
X22789788Y3531241D01*
X22789784Y3531232D01*
X22720014Y3399908D01*
X22711225Y3378563D01*
X22702187Y3357457D01*
X22701139Y3354069D01*
X22658203Y3211685D01*
X22653723Y3189024D01*
X22648961Y3166582D01*
X22648592Y3163064D01*
X22648590Y3163054D01*
X22648590Y3163045D01*
X22636607Y3040410D01*
X22636600Y3040388D01*
X22632924Y3003064D01*
X22632925Y12469D01*
X22632924Y-3003064D01*
X22633436Y-3008265D01*
X22635559Y-3061562D01*
X22637717Y-3077155D01*
X22638755Y-3092856D01*
X22639357Y-3096351D01*
X22665644Y-3242726D01*
X22671922Y-3264941D01*
X22677857Y-3287118D01*
X22679126Y-3290429D01*
X22733343Y-3428910D01*
X22743804Y-3449458D01*
X22753945Y-3470085D01*
X22755830Y-3473082D01*
X22755833Y-3473087D01*
X22755836Y-3473091D01*
X22835915Y-3598399D01*
X22850183Y-3616543D01*
X22864123Y-3634788D01*
X22866553Y-3637361D01*
X22866558Y-3637367D01*
X22866563Y-3637372D01*
X22969455Y-3744738D01*
X22986929Y-3759726D01*
X23004193Y-3774956D01*
X23007083Y-3777011D01*
X23128876Y-3862352D01*
X23148955Y-3873675D01*
X23168822Y-3885247D01*
X23172056Y-3886702D01*
X23308105Y-3946761D01*
X23330039Y-3953981D01*
X23351737Y-3961460D01*
X23355182Y-3962257D01*
X23355192Y-3962260D01*
X23355202Y-3962261D01*
X23500315Y-3994749D01*
X23523186Y-3997565D01*
X23545972Y-4000694D01*
X23549516Y-4000807D01*
X23549517Y-4000807D01*
X23698188Y-4004490D01*
X23698411Y-4004474D01*
X23698937Y-4004490D01*
X23958976Y-4010759D01*
X24188536Y-4061991D01*
X24403777Y-4156838D01*
X24596491Y-4291682D01*
X24759348Y-4461395D01*
X24886136Y-4659503D01*
X24972031Y-4878466D01*
X25013761Y-5109946D01*
X25009734Y-5345124D01*
X24960106Y-5575033D01*
X24866765Y-5790929D01*
X24733268Y-5984583D01*
X24564699Y-6148619D01*
X24367480Y-6276788D01*
X24149119Y-6364210D01*
X23911139Y-6408829D01*
X23804981Y-6413500D01*
X-23799449Y-6413500D01*
X-24046977Y-6389146D01*
X-24272129Y-6321087D01*
X-24479766Y-6210596D01*
X-24661992Y-6061876D01*
X-24811860Y-5880595D01*
X-24923662Y-5673655D01*
X-24993142Y-5448937D01*
X-25017650Y-5215014D01*
X-24996254Y-4980779D01*
X-24929769Y-4755161D01*
X-24820728Y-4546754D01*
X-24673284Y-4363496D01*
X-24576449Y-4282295D01*
X-22361600Y-4282295D01*
X-22361600Y-4563705D01*
X-22306699Y-4839707D01*
X-22199009Y-5099696D01*
X-22042666Y-5333679D01*
X-21843679Y-5532666D01*
X-21609696Y-5689009D01*
X-21349707Y-5796699D01*
X-21073705Y-5851600D01*
X-20792295Y-5851600D01*
X-20516293Y-5796699D01*
X-20256304Y-5689009D01*
X-20022321Y-5532666D01*
X-19823334Y-5333679D01*
X-19666991Y-5099696D01*
X-19559301Y-4839707D01*
X-19504400Y-4563705D01*
X-19504400Y-4282295D01*
X-19559301Y-4006293D01*
X-19666991Y-3746304D01*
X-19817259Y-3521413D01*
X-19588053Y-3750619D01*
X-18797200Y-4279050D01*
X-17918451Y-4643040D01*
X-16985576Y-4828600D01*
X-16034424Y-4828600D01*
X-15101549Y-4643040D01*
X-14222800Y-4279050D01*
X-13613174Y-3871711D01*
X-14080326Y-4338863D01*
X-14108893Y-4373672D01*
X-14130120Y-4413385D01*
X-14143191Y-4456477D01*
X-14147605Y-4501290D01*
X-14143191Y-4546103D01*
X-14130120Y-4589195D01*
X-14108893Y-4628908D01*
X-14080326Y-4663717D01*
X-13443930Y-5300113D01*
X-13409121Y-5328680D01*
X-13369408Y-5349907D01*
X-13326316Y-5362978D01*
X-13281503Y-5367392D01*
X-13236690Y-5362978D01*
X-13193598Y-5349907D01*
X-13153885Y-5328680D01*
X-13119076Y-5300113D01*
X-12553390Y-4734427D01*
X-12524823Y-4699618D01*
X-12503596Y-4659905D01*
X-12490525Y-4616813D01*
X-12486111Y-4572000D01*
X-12490525Y-4527187D01*
X-12495225Y-4511692D01*
X-10833704Y-4511692D01*
X-10817572Y-4513281D01*
X-10801440Y-4511692D01*
X-10801437Y-4511692D01*
X-10753155Y-4506937D01*
X-10691214Y-4488147D01*
X-10634129Y-4457634D01*
X-10584093Y-4416571D01*
X-10573806Y-4404036D01*
X-9434609Y-3264840D01*
X-8667372Y-3264840D01*
X-8651240Y-3266429D01*
X-8635108Y-3264840D01*
X-8635105Y-3264840D01*
X-8586823Y-3260085D01*
X-8524882Y-3241295D01*
X-8467797Y-3210782D01*
X-8417761Y-3169719D01*
X-8407474Y-3157184D01*
X-7855170Y-2604880D01*
X-7834858Y-2613293D01*
X-7692549Y-2641600D01*
X-7547451Y-2641600D01*
X-7405142Y-2613293D01*
X-7271089Y-2557766D01*
X-7150445Y-2477155D01*
X-7047845Y-2374555D01*
X-6967234Y-2253911D01*
X-6911707Y-2119858D01*
X-6883400Y-1977549D01*
X-6883400Y-1832451D01*
X-6911707Y-1690142D01*
X-6967234Y-1556089D01*
X-7047845Y-1435445D01*
X-7150445Y-1332845D01*
X-7244500Y-1270000D01*
X-7150445Y-1207155D01*
X-7047845Y-1104555D01*
X-6967234Y-983911D01*
X-6911707Y-849858D01*
X-6883400Y-707549D01*
X-6883400Y-562451D01*
X-6911707Y-420142D01*
X-6967234Y-286089D01*
X-7047845Y-165445D01*
X-7150445Y-62845D01*
X-7244500Y0D01*
X-7150445Y62845D01*
X-7047845Y165445D01*
X-6967234Y286089D01*
X-6911707Y420142D01*
X-6883400Y562451D01*
X-6883400Y707549D01*
X-6911707Y849858D01*
X-6967234Y983911D01*
X-7047845Y1104555D01*
X-7150445Y1207155D01*
X-7244500Y1270000D01*
X-7150445Y1332845D01*
X-7047845Y1435445D01*
X-6970367Y1551400D01*
X-6828965Y1551400D01*
X-6615959Y1338393D01*
X-6635609Y1273617D01*
X-6644706Y1181250D01*
X-6644706Y693750D01*
X-6635609Y601383D01*
X-6608666Y512566D01*
X-6564914Y430712D01*
X-6506034Y358966D01*
X-6434288Y300086D01*
X-6352434Y256334D01*
X-6263617Y229391D01*
X-6171250Y220294D01*
X-5258750Y220294D01*
X-5166383Y229391D01*
X-5077566Y256334D01*
X-4995712Y300086D01*
X-4923966Y358966D01*
X-4865086Y430712D01*
X-4821334Y512566D01*
X-4821067Y513445D01*
X-4828600Y475576D01*
X-4828600Y-475576D01*
X-4643040Y-1408451D01*
X-4279050Y-2287200D01*
X-3750619Y-3078053D01*
X-3521413Y-3307259D01*
X-3746304Y-3156991D01*
X-4006293Y-3049301D01*
X-4282295Y-2994400D01*
X-4563705Y-2994400D01*
X-4839707Y-3049301D01*
X-5099696Y-3156991D01*
X-5333679Y-3313334D01*
X-5532666Y-3512321D01*
X-5689009Y-3746304D01*
X-5796699Y-4006293D01*
X-5851600Y-4282295D01*
X-5851600Y-4563705D01*
X-5796699Y-4839707D01*
X-5689009Y-5099696D01*
X-5532666Y-5333679D01*
X-5333679Y-5532666D01*
X-5099696Y-5689009D01*
X-4839707Y-5796699D01*
X-4563705Y-5851600D01*
X-4282295Y-5851600D01*
X-4006293Y-5796699D01*
X-3746304Y-5689009D01*
X-3512321Y-5532666D01*
X-3313334Y-5333679D01*
X-3156991Y-5099696D01*
X-3049301Y-4839707D01*
X-2994400Y-4563705D01*
X-2994400Y-4282295D01*
X-3049301Y-4006293D01*
X-3156991Y-3746304D01*
X-3307259Y-3521413D01*
X-3078053Y-3750619D01*
X-2287200Y-4279050D01*
X-1408451Y-4643040D01*
X-475576Y-4828600D01*
X475576Y-4828600D01*
X1408451Y-4643040D01*
X2287200Y-4279050D01*
X3078053Y-3750619D01*
X3750619Y-3078053D01*
X4279050Y-2287200D01*
X4643040Y-1408451D01*
X4828600Y-475576D01*
X4828600Y475576D01*
X4821067Y513445D01*
X4821334Y512566D01*
X4865086Y430712D01*
X4923966Y358966D01*
X4995712Y300086D01*
X5077566Y256334D01*
X5166383Y229391D01*
X5258750Y220294D01*
X6171250Y220294D01*
X6263617Y229391D01*
X6352434Y256334D01*
X6434288Y300086D01*
X6506034Y358966D01*
X6564914Y430712D01*
X6608666Y512566D01*
X6635609Y601383D01*
X6636349Y608900D01*
X6636368Y608900D01*
X6652500Y607311D01*
X6668632Y608900D01*
X6668635Y608900D01*
X6716917Y613655D01*
X6778858Y632445D01*
X6835943Y662958D01*
X6883400Y701904D01*
X6883400Y562451D01*
X6911707Y420142D01*
X6967234Y286089D01*
X7047845Y165445D01*
X7150445Y62845D01*
X7244500Y0D01*
X7150445Y-62845D01*
X7047845Y-165445D01*
X6967234Y-286089D01*
X6911707Y-420142D01*
X6883400Y-562451D01*
X6883400Y-707549D01*
X6911707Y-849858D01*
X6967234Y-983911D01*
X7047845Y-1104555D01*
X7150445Y-1207155D01*
X7271089Y-1287766D01*
X7405142Y-1343293D01*
X7547451Y-1371600D01*
X7692549Y-1371600D01*
X7834858Y-1343293D01*
X7968911Y-1287766D01*
X8089555Y-1207155D01*
X8192155Y-1104555D01*
X8255000Y-1010500D01*
X8317845Y-1104555D01*
X8420445Y-1207155D01*
X8514500Y-1270000D01*
X8420445Y-1332845D01*
X8317845Y-1435445D01*
X8237234Y-1556089D01*
X8181707Y-1690142D01*
X8153400Y-1832451D01*
X8153400Y-1977549D01*
X8181707Y-2119858D01*
X8237234Y-2253911D01*
X8317845Y-2374555D01*
X8420445Y-2477155D01*
X8541089Y-2557766D01*
X8675142Y-2613293D01*
X8817451Y-2641600D01*
X8962549Y-2641600D01*
X9104858Y-2613293D01*
X9238911Y-2557766D01*
X9359555Y-2477155D01*
X9462155Y-2374555D01*
X9542766Y-2253911D01*
X9598293Y-2119858D01*
X9626600Y-1977549D01*
X9626600Y-1832451D01*
X9598293Y-1690142D01*
X9542766Y-1556089D01*
X9462155Y-1435445D01*
X9359555Y-1332845D01*
X9265500Y-1270000D01*
X9359555Y-1207155D01*
X9462155Y-1104555D01*
X9542766Y-983911D01*
X9598293Y-849858D01*
X9626600Y-707549D01*
X9626600Y-562451D01*
X9598293Y-420142D01*
X9542766Y-286089D01*
X9462155Y-165445D01*
X9359555Y-62845D01*
X9265500Y0D01*
X9359555Y62845D01*
X9416391Y119681D01*
X9416391Y104872D01*
X9414681Y87510D01*
X9416391Y70149D01*
X9416391Y70148D01*
X9421508Y18192D01*
X9430809Y-12469D01*
X9441727Y-48461D01*
X9474561Y-109889D01*
X9482001Y-118954D01*
X9518749Y-163732D01*
X9532233Y-174798D01*
X9894041Y-536607D01*
X9874391Y-601383D01*
X9865294Y-693750D01*
X9865294Y-1181250D01*
X9874391Y-1273617D01*
X9901334Y-1362434D01*
X9945086Y-1444288D01*
X10003966Y-1516034D01*
X10075712Y-1574914D01*
X10157566Y-1618666D01*
X10246383Y-1645609D01*
X10338750Y-1654706D01*
X11251250Y-1654706D01*
X11343617Y-1645609D01*
X11432434Y-1618666D01*
X11514288Y-1574914D01*
X11586034Y-1516034D01*
X11644914Y-1444288D01*
X11688666Y-1362434D01*
X11715609Y-1273617D01*
X11724706Y-1181250D01*
X11724706Y-693750D01*
X11724616Y-692840D01*
X11866960Y-1408451D01*
X12230950Y-2287200D01*
X12759381Y-3078053D01*
X12988587Y-3307259D01*
X12763696Y-3156991D01*
X12503707Y-3049301D01*
X12227705Y-2994400D01*
X11946295Y-2994400D01*
X11670293Y-3049301D01*
X11410304Y-3156991D01*
X11176321Y-3313334D01*
X10977334Y-3512321D01*
X10820991Y-3746304D01*
X10713301Y-4006293D01*
X10658400Y-4282295D01*
X10658400Y-4563705D01*
X10713301Y-4839707D01*
X10820991Y-5099696D01*
X10977334Y-5333679D01*
X11176321Y-5532666D01*
X11410304Y-5689009D01*
X11670293Y-5796699D01*
X11946295Y-5851600D01*
X12227705Y-5851600D01*
X12503707Y-5796699D01*
X12763696Y-5689009D01*
X12997679Y-5532666D01*
X13196666Y-5333679D01*
X13353009Y-5099696D01*
X13460699Y-4839707D01*
X13515600Y-4563705D01*
X13515600Y-4282295D01*
X13460699Y-4006293D01*
X13353009Y-3746304D01*
X13202741Y-3521413D01*
X13431947Y-3750619D01*
X14222800Y-4279050D01*
X15101549Y-4643040D01*
X16034424Y-4828600D01*
X16985576Y-4828600D01*
X17918451Y-4643040D01*
X18797200Y-4279050D01*
X19588053Y-3750619D01*
X20260619Y-3078053D01*
X20789050Y-2287200D01*
X21153040Y-1408451D01*
X21338600Y-475576D01*
X21338600Y475576D01*
X21153040Y1408451D01*
X20789050Y2287200D01*
X20260619Y3078053D01*
X20031413Y3307259D01*
X20256304Y3156991D01*
X20516293Y3049301D01*
X20792295Y2994400D01*
X21073705Y2994400D01*
X21349707Y3049301D01*
X21609696Y3156991D01*
X21843679Y3313334D01*
X22042666Y3512321D01*
X22199009Y3746304D01*
X22306699Y4006293D01*
X22361600Y4282295D01*
X22361600Y4563705D01*
X22306699Y4839707D01*
X22199009Y5099696D01*
X22042666Y5333679D01*
X21843679Y5532666D01*
X21609696Y5689009D01*
X21349707Y5796699D01*
X21073705Y5851600D01*
X20792295Y5851600D01*
X20516293Y5796699D01*
X20256304Y5689009D01*
X20022321Y5532666D01*
X19823334Y5333679D01*
X19666991Y5099696D01*
X19559301Y4839707D01*
X19504400Y4563705D01*
X19504400Y4282295D01*
X19559301Y4006293D01*
X19666991Y3746304D01*
X19817259Y3521413D01*
X19588053Y3750619D01*
X18797200Y4279050D01*
X17918451Y4643040D01*
X16985576Y4828600D01*
X16034424Y4828600D01*
X15101549Y4643040D01*
X14222800Y4279050D01*
X13613174Y3871711D01*
X14080326Y4338863D01*
X14108893Y4373672D01*
X14130120Y4413385D01*
X14143191Y4456477D01*
X14147605Y4501290D01*
X14143191Y4546103D01*
X14130120Y4589195D01*
X14108893Y4628908D01*
X14080326Y4663717D01*
X13443930Y5300113D01*
X13409121Y5328680D01*
X13369408Y5349907D01*
X13326316Y5362978D01*
X13281503Y5367392D01*
X13236690Y5362978D01*
X13193598Y5349907D01*
X13153885Y5328680D01*
X13119076Y5300113D01*
X12684208Y4865245D01*
X11798661Y4865245D01*
X11782529Y4866834D01*
X11766397Y4865245D01*
X11766395Y4865245D01*
X11718113Y4860490D01*
X11656172Y4841700D01*
X11618971Y4821815D01*
X11599086Y4811187D01*
X11561583Y4780409D01*
X11549051Y4770124D01*
X11538768Y4757594D01*
X11209900Y4428726D01*
X11204526Y4436769D01*
X11116969Y4524326D01*
X11014014Y4593119D01*
X10899616Y4640504D01*
X10778172Y4664660D01*
X10654348Y4664660D01*
X10532904Y4640504D01*
X10418506Y4593119D01*
X10315551Y4524326D01*
X10227994Y4436769D01*
X10159201Y4333814D01*
X10111816Y4219416D01*
X10087660Y4097972D01*
X10087660Y3974148D01*
X10111816Y3852704D01*
X10152015Y3755654D01*
X10144760Y3756369D01*
X10127408Y3754660D01*
X9389951Y3754660D01*
X9372599Y3756369D01*
X9355247Y3754660D01*
X9355238Y3754660D01*
X9303282Y3749543D01*
X9236629Y3729324D01*
X9236627Y3729323D01*
X9175200Y3696489D01*
X9134985Y3663485D01*
X9121358Y3652302D01*
X9110292Y3638818D01*
X8652243Y3180768D01*
X8638758Y3169701D01*
X8627692Y3156217D01*
X8627691Y3156216D01*
X8622440Y3149818D01*
X8594571Y3115859D01*
X8561736Y3054430D01*
X8541517Y2987777D01*
X8536400Y2935821D01*
X8536400Y2935812D01*
X8534691Y2918460D01*
X8536400Y2901108D01*
X8536400Y2554633D01*
X8420445Y2477155D01*
X8317845Y2374555D01*
X8255000Y2280500D01*
X8192155Y2374555D01*
X8089555Y2477155D01*
X7968911Y2557766D01*
X7834858Y2613293D01*
X7791000Y2622017D01*
X7793519Y2625786D01*
X7840904Y2740184D01*
X7865060Y2861628D01*
X7865060Y2985452D01*
X7840904Y3106896D01*
X7793519Y3221294D01*
X7724726Y3324249D01*
X7637169Y3411806D01*
X7534214Y3480599D01*
X7419816Y3527984D01*
X7298372Y3552140D01*
X7174548Y3552140D01*
X7053104Y3527984D01*
X6938706Y3480599D01*
X6835751Y3411806D01*
X6748194Y3324249D01*
X6679401Y3221294D01*
X6632016Y3106896D01*
X6607860Y2985452D01*
X6607860Y2861628D01*
X6624779Y2776569D01*
X6353590Y2505380D01*
X5639308Y2505380D01*
X5591126Y2577489D01*
X5503569Y2665046D01*
X5400614Y2733839D01*
X5286216Y2781224D01*
X5164772Y2805380D01*
X5040948Y2805380D01*
X4919504Y2781224D01*
X4805106Y2733839D01*
X4702151Y2665046D01*
X4614594Y2577489D01*
X4545801Y2474534D01*
X4498416Y2360136D01*
X4474260Y2238692D01*
X4474260Y2114868D01*
X4498416Y1993424D01*
X4545801Y1879026D01*
X4614594Y1776071D01*
X4702151Y1688514D01*
X4805106Y1619721D01*
X4919504Y1572336D01*
X4978316Y1560638D01*
X4923966Y1516034D01*
X4865086Y1444288D01*
X4821334Y1362434D01*
X4794391Y1273617D01*
X4785294Y1181250D01*
X4785294Y693750D01*
X4785384Y692840D01*
X4643040Y1408451D01*
X4279050Y2287200D01*
X3750619Y3078053D01*
X3521413Y3307259D01*
X3746304Y3156991D01*
X4006293Y3049301D01*
X4282295Y2994400D01*
X4563705Y2994400D01*
X4839707Y3049301D01*
X5099696Y3156991D01*
X5333679Y3313334D01*
X5532666Y3512321D01*
X5689009Y3746304D01*
X5796699Y4006293D01*
X5851600Y4282295D01*
X5851600Y4563705D01*
X5796699Y4839707D01*
X5689009Y5099696D01*
X5532666Y5333679D01*
X5333679Y5532666D01*
X5099696Y5689009D01*
X4839707Y5796699D01*
X4563705Y5851600D01*
X4282295Y5851600D01*
X4006293Y5796699D01*
X3746304Y5689009D01*
X3512321Y5532666D01*
X3313334Y5333679D01*
X3156991Y5099696D01*
X3049301Y4839707D01*
X2994400Y4563705D01*
X2994400Y4282295D01*
X3049301Y4006293D01*
X3156991Y3746304D01*
X3307259Y3521413D01*
X3078053Y3750619D01*
X2287200Y4279050D01*
X1408451Y4643040D01*
X475576Y4828600D01*
X-475576Y4828600D01*
X-1408451Y4643040D01*
X-2287200Y4279050D01*
X-3078053Y3750619D01*
X-3750619Y3078053D01*
X-4279050Y2287200D01*
X-4643040Y1408451D01*
X-4785384Y692840D01*
X-4785294Y693750D01*
X-4785294Y1181250D01*
X-4794391Y1273617D01*
X-4821334Y1362434D01*
X-4865086Y1444288D01*
X-4923966Y1516034D01*
X-4995712Y1574914D01*
X-5077566Y1618666D01*
X-5166383Y1645609D01*
X-5258750Y1654706D01*
X-5932140Y1654706D01*
X-6420187Y2142752D01*
X-6431258Y2156242D01*
X-6485100Y2200429D01*
X-6546529Y2233264D01*
X-6613182Y2253483D01*
X-6665138Y2258600D01*
X-6665148Y2258600D01*
X-6682500Y2260309D01*
X-6699852Y2258600D01*
X-6970367Y2258600D01*
X-7047845Y2374555D01*
X-7150445Y2477155D01*
X-7271089Y2557766D01*
X-7405142Y2613293D01*
X-7547451Y2641600D01*
X-7692549Y2641600D01*
X-7829328Y2614393D01*
X-7865686Y2650751D01*
X-7865690Y2650756D01*
X-8190689Y2975754D01*
X-8201759Y2989243D01*
X-8255601Y3033430D01*
X-8317030Y3066265D01*
X-8383683Y3086484D01*
X-8435639Y3091601D01*
X-8435649Y3091601D01*
X-8453001Y3093310D01*
X-8470353Y3091601D01*
X-9272490Y3091601D01*
X-9289842Y3093310D01*
X-9307194Y3091601D01*
X-9307203Y3091601D01*
X-9359159Y3086484D01*
X-9425812Y3066265D01*
X-9487241Y3033430D01*
X-9541083Y2989243D01*
X-9552149Y2975759D01*
X-10476520Y2051387D01*
X-10490004Y2040321D01*
X-10501070Y2026837D01*
X-10501072Y2026835D01*
X-10534192Y1986478D01*
X-10540693Y1974316D01*
X-10567027Y1925050D01*
X-10587246Y1858397D01*
X-10592363Y1806441D01*
X-10592363Y1806431D01*
X-10594072Y1789079D01*
X-10592363Y1771727D01*
X-10592363Y1654706D01*
X-11251250Y1654706D01*
X-11343617Y1645609D01*
X-11432434Y1618666D01*
X-11514288Y1574914D01*
X-11586034Y1516034D01*
X-11644914Y1444288D01*
X-11688666Y1362434D01*
X-11715609Y1273617D01*
X-11724706Y1181250D01*
X-11724706Y693750D01*
X-11724616Y692840D01*
X-11866960Y1408451D01*
X-12230950Y2287200D01*
X-12759381Y3078053D01*
X-12988587Y3307259D01*
X-12763696Y3156991D01*
X-12503707Y3049301D01*
X-12227705Y2994400D01*
X-11946295Y2994400D01*
X-11670293Y3049301D01*
X-11410304Y3156991D01*
X-11176321Y3313334D01*
X-10977334Y3512321D01*
X-10820991Y3746304D01*
X-10713301Y4006293D01*
X-10658400Y4282295D01*
X-10658400Y4563705D01*
X-10713301Y4839707D01*
X-10820991Y5099696D01*
X-10977334Y5333679D01*
X-11176321Y5532666D01*
X-11410304Y5689009D01*
X-11670293Y5796699D01*
X-11946295Y5851600D01*
X-12227705Y5851600D01*
X-12503707Y5796699D01*
X-12763696Y5689009D01*
X-12997679Y5532666D01*
X-13196666Y5333679D01*
X-13353009Y5099696D01*
X-13460699Y4839707D01*
X-13515600Y4563705D01*
X-13515600Y4282295D01*
X-13460699Y4006293D01*
X-13353009Y3746304D01*
X-13202741Y3521413D01*
X-13431947Y3750619D01*
X-14222800Y4279050D01*
X-15101549Y4643040D01*
X-16034424Y4828600D01*
X-16985576Y4828600D01*
X-17918451Y4643040D01*
X-18797200Y4279050D01*
X-19588053Y3750619D01*
X-20260619Y3078053D01*
X-20789050Y2287200D01*
X-21153040Y1408451D01*
X-21338600Y475576D01*
X-21338600Y-475576D01*
X-21153040Y-1408451D01*
X-20789050Y-2287200D01*
X-20260619Y-3078053D01*
X-20031413Y-3307259D01*
X-20256304Y-3156991D01*
X-20516293Y-3049301D01*
X-20792295Y-2994400D01*
X-21073705Y-2994400D01*
X-21349707Y-3049301D01*
X-21609696Y-3156991D01*
X-21843679Y-3313334D01*
X-22042666Y-3512321D01*
X-22199009Y-3746304D01*
X-22306699Y-4006293D01*
X-22361600Y-4282295D01*
X-24576449Y-4282295D01*
X-24493057Y-4212368D01*
X-24286899Y-4099121D01*
X-24062680Y-4028077D01*
X-23822052Y-4001167D01*
X-23712678Y-4004450D01*
X-23712535Y-4004440D01*
X-23651689Y-4006439D01*
X-23635983Y-4005418D01*
X-23620244Y-4005523D01*
X-23616714Y-4005176D01*
X-23468818Y-3989581D01*
X-23446193Y-3984929D01*
X-23423658Y-3980622D01*
X-23420265Y-3979598D01*
X-23420259Y-3979596D01*
X-23278212Y-3935573D01*
X-23256934Y-3926620D01*
X-23235652Y-3918014D01*
X-23232529Y-3916352D01*
X-23232519Y-3916348D01*
X-23232511Y-3916343D01*
X-23101727Y-3845572D01*
X-23082619Y-3832675D01*
X-23063384Y-3820079D01*
X-23060636Y-3817837D01*
X-22946081Y-3723003D01*
X-22929839Y-3706637D01*
X-22913423Y-3690550D01*
X-22911163Y-3687817D01*
X-22817208Y-3572540D01*
X-22804442Y-3553312D01*
X-22791474Y-3534359D01*
X-22789788Y-3531240D01*
X-22720014Y-3399908D01*
X-22711215Y-3378539D01*
X-22702187Y-3357457D01*
X-22701139Y-3354069D01*
X-22658203Y-3211685D01*
X-22653723Y-3189024D01*
X-22648961Y-3166582D01*
X-22648592Y-3163064D01*
X-22648590Y-3163054D01*
X-22648590Y-3163045D01*
X-22636607Y-3040411D01*
X-22636600Y-3040389D01*
X-22632924Y-3003065D01*
X-22632924Y3003065D01*
X-22633436Y3008266D01*
X-22635559Y3061562D01*
X-22637717Y3077155D01*
X-22638755Y3092856D01*
X-22639357Y3096350D01*
X-22665644Y3242726D01*
X-22671922Y3264941D01*
X-22677857Y3287118D01*
X-22679126Y3290429D01*
X-22733343Y3428910D01*
X-22743804Y3449458D01*
X-22753945Y3470085D01*
X-22755830Y3473082D01*
X-22755833Y3473087D01*
X-22755836Y3473091D01*
X-22835915Y3598399D01*
X-22850210Y3616578D01*
X-22864123Y3634789D01*
X-22866553Y3637361D01*
X-22866558Y3637367D01*
X-22866563Y3637372D01*
X-22969455Y3744738D01*
X-22986951Y3759744D01*
X-23004193Y3774955D01*
X-23007083Y3777011D01*
X-23128876Y3862352D01*
X-23148955Y3873675D01*
X-23168822Y3885247D01*
X-23172047Y3886697D01*
X-23172056Y3886702D01*
X-23172065Y3886705D01*
X-23308105Y3946761D01*
X-23330049Y3953984D01*
X-23351737Y3961460D01*
X-23355182Y3962257D01*
X-23355192Y3962260D01*
X-23355202Y3962261D01*
X-23500316Y3994749D01*
X-23523210Y3997568D01*
X-23545972Y4000694D01*
X-23549506Y4000807D01*
X-23549517Y4000808D01*
X-23549527Y4000807D01*
X-23698188Y4004490D01*
X-23698411Y4004474D01*
X-23698936Y4004490D01*
X-23958976Y4010759D01*
X-24188535Y4061991D01*
X-24403777Y4156838D01*
X-24596491Y4291682D01*
X-24759348Y4461395D01*
X-24886136Y4659503D01*
X-24972031Y4878466D01*
X-25013761Y5109947D01*
X-25009734Y5345124D01*
X-24960106Y5575033D01*
X-24866764Y5790931D01*
X-24733264Y5984587D01*
X-24564697Y6148620D01*
X-24367478Y6276789D01*
X-24149119Y6364210D01*
X-23911139Y6408829D01*
X-23804982Y6413500D01*
X23799449Y6413500D01*
X24046977Y6389146D01*
G36*
X-9359555Y62845D02*
G01*
X-9265500Y0D01*
X-9359555Y-62845D01*
X-9462155Y-165445D01*
X-9542766Y-286089D01*
X-9598293Y-420142D01*
X-9626600Y-562451D01*
X-9626600Y-707549D01*
X-9598293Y-849858D01*
X-9542766Y-983911D01*
X-9462155Y-1104555D01*
X-9359555Y-1207155D01*
X-9238911Y-1287766D01*
X-9104858Y-1343293D01*
X-8962549Y-1371600D01*
X-8817451Y-1371600D01*
X-8675142Y-1343293D01*
X-8541089Y-1287766D01*
X-8420445Y-1207155D01*
X-8317845Y-1104555D01*
X-8255000Y-1010500D01*
X-8192155Y-1104555D01*
X-8089555Y-1207155D01*
X-7995500Y-1270000D01*
X-8089555Y-1332845D01*
X-8192155Y-1435445D01*
X-8272766Y-1556089D01*
X-8328293Y-1690142D01*
X-8356600Y-1832451D01*
X-8356600Y-1977549D01*
X-8328293Y-2119858D01*
X-8319880Y-2140170D01*
X-8787350Y-2607640D01*
X-9554589Y-2607640D01*
X-9570721Y-2606051D01*
X-9586853Y-2607640D01*
X-9586855Y-2607640D01*
X-9635137Y-2612395D01*
X-9697078Y-2631185D01*
X-9754164Y-2661698D01*
X-9791667Y-2692476D01*
X-9804199Y-2702761D01*
X-9814482Y-2715291D01*
X-10953682Y-3854492D01*
X-11673455Y-3854492D01*
X-11209887Y-3390924D01*
X-11181320Y-3356115D01*
X-11160093Y-3316402D01*
X-11147022Y-3273310D01*
X-11142608Y-3228497D01*
X-11147022Y-3183684D01*
X-11160093Y-3140592D01*
X-11181320Y-3100879D01*
X-11209887Y-3066070D01*
X-11644755Y-2631202D01*
X-11644755Y-2251965D01*
X-11047496Y-1654706D01*
X-10338750Y-1654706D01*
X-10246383Y-1645609D01*
X-10157566Y-1618666D01*
X-10075712Y-1574914D01*
X-10003966Y-1516034D01*
X-9945086Y-1444288D01*
X-9901334Y-1362434D01*
X-9874391Y-1273617D01*
X-9865294Y-1181250D01*
X-9865294Y-693750D01*
X-9874391Y-601383D01*
X-9894041Y-536607D01*
X-9532228Y-174794D01*
X-9518749Y-163732D01*
X-9507686Y-150252D01*
X-9507681Y-150247D01*
X-9474561Y-109890D01*
X-9449415Y-62845D01*
X-9441726Y-48461D01*
X-9421507Y18192D01*
X-9416390Y70148D01*
X-9416390Y70157D01*
X-9414681Y87509D01*
X-9416390Y104861D01*
X-9416390Y119680D01*
X-9359555Y62845D01*
X-9359555Y62845D01*
G37*
X-9359555Y62845D02*
X-9265500Y0D01*
X-9359555Y-62845D01*
X-9462155Y-165445D01*
X-9542766Y-286089D01*
X-9598293Y-420142D01*
X-9626600Y-562451D01*
X-9626600Y-707549D01*
X-9598293Y-849858D01*
X-9542766Y-983911D01*
X-9462155Y-1104555D01*
X-9359555Y-1207155D01*
X-9238911Y-1287766D01*
X-9104858Y-1343293D01*
X-8962549Y-1371600D01*
X-8817451Y-1371600D01*
X-8675142Y-1343293D01*
X-8541089Y-1287766D01*
X-8420445Y-1207155D01*
X-8317845Y-1104555D01*
X-8255000Y-1010500D01*
X-8192155Y-1104555D01*
X-8089555Y-1207155D01*
X-7995500Y-1270000D01*
X-8089555Y-1332845D01*
X-8192155Y-1435445D01*
X-8272766Y-1556089D01*
X-8328293Y-1690142D01*
X-8356600Y-1832451D01*
X-8356600Y-1977549D01*
X-8328293Y-2119858D01*
X-8319880Y-2140170D01*
X-8787350Y-2607640D01*
X-9554589Y-2607640D01*
X-9570721Y-2606051D01*
X-9586853Y-2607640D01*
X-9586855Y-2607640D01*
X-9635137Y-2612395D01*
X-9697078Y-2631185D01*
X-9754164Y-2661698D01*
X-9791667Y-2692476D01*
X-9804199Y-2702761D01*
X-9814482Y-2715291D01*
X-10953682Y-3854492D01*
X-11673455Y-3854492D01*
X-11209887Y-3390924D01*
X-11181320Y-3356115D01*
X-11160093Y-3316402D01*
X-11147022Y-3273310D01*
X-11142608Y-3228497D01*
X-11147022Y-3183684D01*
X-11160093Y-3140592D01*
X-11181320Y-3100879D01*
X-11209887Y-3066070D01*
X-11644755Y-2631202D01*
X-11644755Y-2251965D01*
X-11047496Y-1654706D01*
X-10338750Y-1654706D01*
X-10246383Y-1645609D01*
X-10157566Y-1618666D01*
X-10075712Y-1574914D01*
X-10003966Y-1516034D01*
X-9945086Y-1444288D01*
X-9901334Y-1362434D01*
X-9874391Y-1273617D01*
X-9865294Y-1181250D01*
X-9865294Y-693750D01*
X-9874391Y-601383D01*
X-9894041Y-536607D01*
X-9532228Y-174794D01*
X-9518749Y-163732D01*
X-9507686Y-150252D01*
X-9507681Y-150247D01*
X-9474561Y-109890D01*
X-9449415Y-62845D01*
X-9441726Y-48461D01*
X-9421507Y18192D01*
X-9416390Y70148D01*
X-9416390Y70157D01*
X-9414681Y87509D01*
X-9416390Y104861D01*
X-9416390Y119680D01*
X-9359555Y62845D01*
M02*
