G04 #@! TF.GenerationSoftware,KiCad,Pcbnew,(5.1.4)-1*
G04 #@! TF.CreationDate,2020-08-09T23:36:34-07:00*
G04 #@! TF.ProjectId,SkateLightLEDBoard,536b6174-654c-4696-9768-744c4544426f,rev?*
G04 #@! TF.SameCoordinates,Original*
G04 #@! TF.FileFunction,Legend,Bot*
G04 #@! TF.FilePolarity,Positive*
%FSLAX46Y46*%
G04 Gerber Fmt 4.6, Leading zero omitted, Abs format (unit mm)*
G04 Created by KiCad (PCBNEW (5.1.4)-1) date 2020-08-09 23:36:34*
%MOMM*%
%LPD*%
G04 APERTURE LIST*
%ADD10C,0.127000*%
%ADD11C,0.120000*%
G04 APERTURE END LIST*
D10*
X-21626285Y3429000D02*
X-22388285Y3429000D01*
X-22388285Y3247571D01*
X-22352000Y3138714D01*
X-22279428Y3066142D01*
X-22206857Y3029857D01*
X-22061714Y2993571D01*
X-21952857Y2993571D01*
X-21807714Y3029857D01*
X-21735142Y3066142D01*
X-21662571Y3138714D01*
X-21626285Y3247571D01*
X-21626285Y3429000D01*
X-21844000Y2703285D02*
X-21844000Y2340428D01*
X-21626285Y2775857D02*
X-22388285Y2521857D01*
X-21626285Y2267857D01*
X-22388285Y1505857D02*
X-22388285Y997857D01*
X-21626285Y1324428D01*
X-22424571Y163285D02*
X-21444857Y816428D01*
X-21626285Y-489857D02*
X-21626285Y-54428D01*
X-21626285Y-272142D02*
X-22388285Y-272142D01*
X-22279428Y-199571D01*
X-22206857Y-126999D01*
X-22170571Y-54428D01*
X-21626285Y-852714D02*
X-21626285Y-997857D01*
X-21662571Y-1070428D01*
X-21698857Y-1106714D01*
X-21807714Y-1179285D01*
X-21952857Y-1215571D01*
X-22243142Y-1215571D01*
X-22315714Y-1179285D01*
X-22352000Y-1143000D01*
X-22388285Y-1070428D01*
X-22388285Y-925285D01*
X-22352000Y-852714D01*
X-22315714Y-816428D01*
X-22243142Y-780142D01*
X-22061714Y-780142D01*
X-21989142Y-816428D01*
X-21952857Y-852714D01*
X-21916571Y-925285D01*
X-21916571Y-1070428D01*
X-21952857Y-1143000D01*
X-21989142Y-1179285D01*
X-22061714Y-1215571D01*
X-22424571Y-2086428D02*
X-21444857Y-1433285D01*
X-22315714Y-2304142D02*
X-22352000Y-2340428D01*
X-22388285Y-2413000D01*
X-22388285Y-2594428D01*
X-22352000Y-2667000D01*
X-22315714Y-2703285D01*
X-22243142Y-2739571D01*
X-22170571Y-2739571D01*
X-22061714Y-2703285D01*
X-21626285Y-2267857D01*
X-21626285Y-2739571D01*
X-22388285Y-3211285D02*
X-22388285Y-3283857D01*
X-22352000Y-3356428D01*
X-22315714Y-3392714D01*
X-22243142Y-3429000D01*
X-22098000Y-3465285D01*
X-21916571Y-3465285D01*
X-21771428Y-3429000D01*
X-21698857Y-3392714D01*
X-21662571Y-3356428D01*
X-21626285Y-3283857D01*
X-21626285Y-3211285D01*
X-21662571Y-3138714D01*
X-21698857Y-3102428D01*
X-21771428Y-3066142D01*
X-21916571Y-3029857D01*
X-22098000Y-3029857D01*
X-22243142Y-3066142D01*
X-22315714Y-3102428D01*
X-22352000Y-3138714D01*
X-22388285Y-3211285D01*
D11*
X-10260000Y6250000D02*
X-10260000Y-6250000D01*
X-22760000Y6250000D02*
X-10260000Y6250000D01*
X-22760000Y-6250000D02*
X-22760000Y6250000D01*
X-10260000Y-6250000D02*
X-22760000Y-6250000D01*
X6250000Y-6250000D02*
X-6250000Y-6250000D01*
X6250000Y6250000D02*
X6250000Y-6250000D01*
X-6250000Y6250000D02*
X6250000Y6250000D01*
X-6250000Y-6250000D02*
X-6250000Y6250000D01*
X22760000Y-6250000D02*
X10260000Y-6250000D01*
X10260000Y-6250000D02*
X10260000Y6250000D01*
X10260000Y6250000D02*
X22760000Y6250000D01*
X22760000Y6250000D02*
X22760000Y-6250000D01*
X10033000Y-2540000D02*
X10033000Y2540000D01*
X6477000Y-2540000D02*
X10033000Y-2540000D01*
X6477000Y2540000D02*
X6477000Y-2540000D01*
X10033000Y2540000D02*
X6477000Y2540000D01*
X-6477000Y-2540000D02*
X-6477000Y2540000D01*
X-10033000Y-2540000D02*
X-6477000Y-2540000D01*
X-10033000Y2540000D02*
X-10033000Y-2540000D01*
X-6477000Y2540000D02*
X-10033000Y2540000D01*
M02*
