G04 #@! TF.GenerationSoftware,KiCad,Pcbnew,(5.1.4)-1*
G04 #@! TF.CreationDate,2020-09-02T11:10:04-07:00*
G04 #@! TF.ProjectId,SkateLightLEDBoard,536b6174-654c-4696-9768-744c4544426f,rev?*
G04 #@! TF.SameCoordinates,Original*
G04 #@! TF.FileFunction,Soldermask,Bot*
G04 #@! TF.FilePolarity,Negative*
%FSLAX46Y46*%
G04 Gerber Fmt 4.6, Leading zero omitted, Abs format (unit mm)*
G04 Created by KiCad (PCBNEW (5.1.4)-1) date 2020-09-02 11:10:04*
%MOMM*%
%LPD*%
G04 APERTURE LIST*
%ADD10C,0.100000*%
G04 APERTURE END LIST*
D10*
G36*
X24107379Y-3724543D02*
G01*
X24253388Y-3753586D01*
X24528464Y-3867526D01*
X24776025Y-4032941D01*
X24986559Y-4243475D01*
X25151974Y-4491036D01*
X25265914Y-4766112D01*
X25265914Y-4766113D01*
X25318251Y-5029225D01*
X25324000Y-5058130D01*
X25324000Y-5355870D01*
X25265914Y-5647888D01*
X25151974Y-5922964D01*
X24986559Y-6170525D01*
X24776025Y-6381059D01*
X24528464Y-6546474D01*
X24253388Y-6660414D01*
X24107379Y-6689457D01*
X23961371Y-6718500D01*
X23663629Y-6718500D01*
X23517621Y-6689457D01*
X23371612Y-6660414D01*
X23096536Y-6546474D01*
X22848975Y-6381059D01*
X22638441Y-6170525D01*
X22473026Y-5922964D01*
X22359086Y-5647888D01*
X22301000Y-5355870D01*
X22301000Y-5058130D01*
X22306750Y-5029225D01*
X22359086Y-4766113D01*
X22359086Y-4766112D01*
X22473026Y-4491036D01*
X22638441Y-4243475D01*
X22848975Y-4032941D01*
X23096536Y-3867526D01*
X23371612Y-3753586D01*
X23517621Y-3724543D01*
X23663629Y-3695500D01*
X23961371Y-3695500D01*
X24107379Y-3724543D01*
X24107379Y-3724543D01*
G37*
G36*
X-23517621Y-3724543D02*
G01*
X-23371612Y-3753586D01*
X-23096536Y-3867526D01*
X-22848975Y-4032941D01*
X-22638441Y-4243475D01*
X-22473026Y-4491036D01*
X-22359086Y-4766112D01*
X-22359086Y-4766113D01*
X-22306749Y-5029225D01*
X-22301000Y-5058130D01*
X-22301000Y-5355870D01*
X-22359086Y-5647888D01*
X-22473026Y-5922964D01*
X-22638441Y-6170525D01*
X-22848975Y-6381059D01*
X-23096536Y-6546474D01*
X-23371612Y-6660414D01*
X-23517621Y-6689457D01*
X-23663629Y-6718500D01*
X-23961371Y-6718500D01*
X-24107379Y-6689457D01*
X-24253388Y-6660414D01*
X-24528464Y-6546474D01*
X-24776025Y-6381059D01*
X-24986559Y-6170525D01*
X-25151974Y-5922964D01*
X-25265914Y-5647888D01*
X-25324000Y-5355870D01*
X-25324000Y-5058130D01*
X-25318250Y-5029225D01*
X-25265914Y-4766113D01*
X-25265914Y-4766112D01*
X-25151974Y-4491036D01*
X-24986559Y-4243475D01*
X-24776025Y-4032941D01*
X-24528464Y-3867526D01*
X-24253388Y-3753586D01*
X-24107379Y-3724543D01*
X-23961371Y-3695500D01*
X-23663629Y-3695500D01*
X-23517621Y-3724543D01*
X-23517621Y-3724543D01*
G37*
G36*
X8549879Y-3470543D02*
G01*
X8695888Y-3499586D01*
X8970964Y-3613526D01*
X9218525Y-3778941D01*
X9429059Y-3989475D01*
X9594474Y-4237036D01*
X9708414Y-4512112D01*
X9766500Y-4804130D01*
X9766500Y-5101870D01*
X9708414Y-5393888D01*
X9594474Y-5668964D01*
X9429059Y-5916525D01*
X9218525Y-6127059D01*
X8970964Y-6292474D01*
X8695888Y-6406414D01*
X8549879Y-6435457D01*
X8403871Y-6464500D01*
X8106129Y-6464500D01*
X7960121Y-6435457D01*
X7814112Y-6406414D01*
X7539036Y-6292474D01*
X7291475Y-6127059D01*
X7080941Y-5916525D01*
X6915526Y-5668964D01*
X6801586Y-5393888D01*
X6743500Y-5101870D01*
X6743500Y-4804130D01*
X6801586Y-4512112D01*
X6915526Y-4237036D01*
X7080941Y-3989475D01*
X7291475Y-3778941D01*
X7539036Y-3613526D01*
X7814112Y-3499586D01*
X7960121Y-3470543D01*
X8106129Y-3441500D01*
X8403871Y-3441500D01*
X8549879Y-3470543D01*
X8549879Y-3470543D01*
G37*
G36*
X-7960121Y-3470543D02*
G01*
X-7814112Y-3499586D01*
X-7539036Y-3613526D01*
X-7291475Y-3778941D01*
X-7080941Y-3989475D01*
X-6915526Y-4237036D01*
X-6801586Y-4512112D01*
X-6743500Y-4804130D01*
X-6743500Y-5101870D01*
X-6801586Y-5393888D01*
X-6915526Y-5668964D01*
X-7080941Y-5916525D01*
X-7291475Y-6127059D01*
X-7539036Y-6292474D01*
X-7814112Y-6406414D01*
X-7960121Y-6435457D01*
X-8106129Y-6464500D01*
X-8403871Y-6464500D01*
X-8549879Y-6435457D01*
X-8695888Y-6406414D01*
X-8970964Y-6292474D01*
X-9218525Y-6127059D01*
X-9429059Y-5916525D01*
X-9594474Y-5668964D01*
X-9708414Y-5393888D01*
X-9766500Y-5101870D01*
X-9766500Y-4804130D01*
X-9708414Y-4512112D01*
X-9594474Y-4237036D01*
X-9429059Y-3989475D01*
X-9218525Y-3778941D01*
X-8970964Y-3613526D01*
X-8695888Y-3499586D01*
X-8549879Y-3470543D01*
X-8403871Y-3441500D01*
X-8106129Y-3441500D01*
X-7960121Y-3470543D01*
X-7960121Y-3470543D01*
G37*
G36*
X4700395Y-3508546D02*
G01*
X4873466Y-3580234D01*
X4873467Y-3580235D01*
X5029227Y-3684310D01*
X5161690Y-3816773D01*
X5161691Y-3816775D01*
X5265766Y-3972534D01*
X5337454Y-4145605D01*
X5374000Y-4329333D01*
X5374000Y-4516667D01*
X5337454Y-4700395D01*
X5265766Y-4873466D01*
X5265765Y-4873467D01*
X5161690Y-5029227D01*
X5029227Y-5161690D01*
X4950818Y-5214081D01*
X4873466Y-5265766D01*
X4700395Y-5337454D01*
X4516667Y-5374000D01*
X4329333Y-5374000D01*
X4145605Y-5337454D01*
X3972534Y-5265766D01*
X3895182Y-5214081D01*
X3816773Y-5161690D01*
X3684310Y-5029227D01*
X3580235Y-4873467D01*
X3580234Y-4873466D01*
X3508546Y-4700395D01*
X3472000Y-4516667D01*
X3472000Y-4329333D01*
X3508546Y-4145605D01*
X3580234Y-3972534D01*
X3684309Y-3816775D01*
X3684310Y-3816773D01*
X3816773Y-3684310D01*
X3972533Y-3580235D01*
X3972534Y-3580234D01*
X4145605Y-3508546D01*
X4329333Y-3472000D01*
X4516667Y-3472000D01*
X4700395Y-3508546D01*
X4700395Y-3508546D01*
G37*
G36*
X12364395Y-3508546D02*
G01*
X12537466Y-3580234D01*
X12537467Y-3580235D01*
X12693227Y-3684310D01*
X12825690Y-3816773D01*
X12825691Y-3816775D01*
X12929766Y-3972534D01*
X13001454Y-4145605D01*
X13038000Y-4329333D01*
X13038000Y-4516667D01*
X13001454Y-4700395D01*
X12929766Y-4873466D01*
X12929765Y-4873467D01*
X12825690Y-5029227D01*
X12693227Y-5161690D01*
X12614818Y-5214081D01*
X12537466Y-5265766D01*
X12364395Y-5337454D01*
X12180667Y-5374000D01*
X11993333Y-5374000D01*
X11809605Y-5337454D01*
X11636534Y-5265766D01*
X11559182Y-5214081D01*
X11480773Y-5161690D01*
X11348310Y-5029227D01*
X11244235Y-4873467D01*
X11244234Y-4873466D01*
X11172546Y-4700395D01*
X11136000Y-4516667D01*
X11136000Y-4329333D01*
X11172546Y-4145605D01*
X11244234Y-3972534D01*
X11348309Y-3816775D01*
X11348310Y-3816773D01*
X11480773Y-3684310D01*
X11636533Y-3580235D01*
X11636534Y-3580234D01*
X11809605Y-3508546D01*
X11993333Y-3472000D01*
X12180667Y-3472000D01*
X12364395Y-3508546D01*
X12364395Y-3508546D01*
G37*
G36*
X-20655605Y-3508546D02*
G01*
X-20482534Y-3580234D01*
X-20482533Y-3580235D01*
X-20326773Y-3684310D01*
X-20194310Y-3816773D01*
X-20194309Y-3816775D01*
X-20090234Y-3972534D01*
X-20018546Y-4145605D01*
X-19982000Y-4329333D01*
X-19982000Y-4516667D01*
X-20018546Y-4700395D01*
X-20090234Y-4873466D01*
X-20090235Y-4873467D01*
X-20194310Y-5029227D01*
X-20326773Y-5161690D01*
X-20405182Y-5214081D01*
X-20482534Y-5265766D01*
X-20655605Y-5337454D01*
X-20839333Y-5374000D01*
X-21026667Y-5374000D01*
X-21210395Y-5337454D01*
X-21383466Y-5265766D01*
X-21460818Y-5214081D01*
X-21539227Y-5161690D01*
X-21671690Y-5029227D01*
X-21775765Y-4873467D01*
X-21775766Y-4873466D01*
X-21847454Y-4700395D01*
X-21884000Y-4516667D01*
X-21884000Y-4329333D01*
X-21847454Y-4145605D01*
X-21775766Y-3972534D01*
X-21671691Y-3816775D01*
X-21671690Y-3816773D01*
X-21539227Y-3684310D01*
X-21383467Y-3580235D01*
X-21383466Y-3580234D01*
X-21210395Y-3508546D01*
X-21026667Y-3472000D01*
X-20839333Y-3472000D01*
X-20655605Y-3508546D01*
X-20655605Y-3508546D01*
G37*
G36*
X-15153354Y4472265D02*
G01*
X-14808291Y4329335D01*
X-14306925Y4121663D01*
X-13756060Y3753586D01*
X-13546445Y3613526D01*
X-13545160Y3612667D01*
X-12897333Y2964840D01*
X-12388337Y2203075D01*
X-12207350Y1766133D01*
X-12037735Y1356646D01*
X-11859000Y458085D01*
X-11859000Y-458085D01*
X-12037735Y-1356646D01*
X-12155192Y-1640211D01*
X-12388337Y-2203075D01*
X-12796087Y-2813315D01*
X-12897332Y-2964839D01*
X-13545161Y-3612668D01*
X-13652381Y-3684310D01*
X-14306925Y-4121663D01*
X-14802751Y-4327041D01*
X-15153354Y-4472265D01*
X-16051915Y-4651000D01*
X-16968085Y-4651000D01*
X-17866646Y-4472265D01*
X-18217249Y-4327041D01*
X-18713075Y-4121663D01*
X-19367619Y-3684310D01*
X-19474839Y-3612668D01*
X-20122668Y-2964839D01*
X-20223913Y-2813315D01*
X-20631663Y-2203075D01*
X-20864808Y-1640211D01*
X-20982265Y-1356646D01*
X-21161000Y-458085D01*
X-21161000Y458085D01*
X-20982265Y1356646D01*
X-20812650Y1766133D01*
X-20631663Y2203075D01*
X-20122667Y2964840D01*
X-19474840Y3612667D01*
X-19473554Y3613526D01*
X-19263940Y3753586D01*
X-18713075Y4121663D01*
X-18211709Y4329335D01*
X-17866646Y4472265D01*
X-16968085Y4651000D01*
X-16051915Y4651000D01*
X-15153354Y4472265D01*
X-15153354Y4472265D01*
G37*
G36*
X17866646Y4472265D02*
G01*
X18211709Y4329335D01*
X18713075Y4121663D01*
X19263940Y3753586D01*
X19473555Y3613526D01*
X19474840Y3612667D01*
X20122667Y2964840D01*
X20631663Y2203075D01*
X20812650Y1766133D01*
X20982265Y1356646D01*
X21161000Y458085D01*
X21161000Y-458085D01*
X20982265Y-1356646D01*
X20864808Y-1640211D01*
X20631663Y-2203075D01*
X20223913Y-2813315D01*
X20122668Y-2964839D01*
X19474839Y-3612668D01*
X19367619Y-3684310D01*
X18713075Y-4121663D01*
X18217249Y-4327041D01*
X17866646Y-4472265D01*
X16968085Y-4651000D01*
X16051915Y-4651000D01*
X15153354Y-4472265D01*
X14802751Y-4327041D01*
X14306925Y-4121663D01*
X13652381Y-3684310D01*
X13545161Y-3612668D01*
X12897332Y-2964839D01*
X12796087Y-2813315D01*
X12388337Y-2203075D01*
X12155192Y-1640211D01*
X12037735Y-1356646D01*
X11859000Y-458085D01*
X11859000Y458085D01*
X12037735Y1356646D01*
X12207350Y1766133D01*
X12388337Y2203075D01*
X12897333Y2964840D01*
X13545160Y3612667D01*
X13546446Y3613526D01*
X13756060Y3753586D01*
X14306925Y4121663D01*
X14808291Y4329335D01*
X15153354Y4472265D01*
X16051915Y4651000D01*
X16968085Y4651000D01*
X17866646Y4472265D01*
X17866646Y4472265D01*
G37*
G36*
X1356646Y4472265D02*
G01*
X1701709Y4329335D01*
X2203075Y4121663D01*
X2753940Y3753586D01*
X2963555Y3613526D01*
X2964840Y3612667D01*
X3612667Y2964840D01*
X4121663Y2203075D01*
X4302650Y1766133D01*
X4472265Y1356646D01*
X4651000Y458085D01*
X4651000Y-458085D01*
X4472265Y-1356646D01*
X4354808Y-1640211D01*
X4121663Y-2203075D01*
X3713913Y-2813315D01*
X3612668Y-2964839D01*
X2964839Y-3612668D01*
X2857619Y-3684310D01*
X2203075Y-4121663D01*
X1707249Y-4327041D01*
X1356646Y-4472265D01*
X458085Y-4651000D01*
X-458085Y-4651000D01*
X-1356646Y-4472265D01*
X-1707249Y-4327041D01*
X-2203075Y-4121663D01*
X-2857619Y-3684310D01*
X-2964839Y-3612668D01*
X-3612668Y-2964839D01*
X-3713913Y-2813315D01*
X-4121663Y-2203075D01*
X-4354808Y-1640211D01*
X-4472265Y-1356646D01*
X-4651000Y-458085D01*
X-4651000Y458085D01*
X-4472265Y1356646D01*
X-4302650Y1766133D01*
X-4121663Y2203075D01*
X-3612667Y2964840D01*
X-2964840Y3612667D01*
X-2963554Y3613526D01*
X-2753940Y3753586D01*
X-2203075Y4121663D01*
X-1701709Y4329335D01*
X-1356646Y4472265D01*
X-458085Y4651000D01*
X458085Y4651000D01*
X1356646Y4472265D01*
X1356646Y4472265D01*
G37*
G36*
X7783051Y2442520D02*
G01*
X7833920Y2421449D01*
X7884786Y2400380D01*
X7976342Y2339204D01*
X8054204Y2261342D01*
X8115380Y2169786D01*
X8139516Y2111515D01*
X8151068Y2089905D01*
X8166613Y2070963D01*
X8185555Y2055418D01*
X8207166Y2043867D01*
X8230615Y2036754D01*
X8255001Y2034352D01*
X8279387Y2036754D01*
X8302836Y2043867D01*
X8324446Y2055419D01*
X8343388Y2070964D01*
X8358933Y2089906D01*
X8370484Y2111515D01*
X8394620Y2169786D01*
X8455796Y2261342D01*
X8533658Y2339204D01*
X8625214Y2400380D01*
X8676080Y2421449D01*
X8726949Y2442520D01*
X8834941Y2464000D01*
X8945059Y2464000D01*
X9053051Y2442520D01*
X9103920Y2421449D01*
X9154786Y2400380D01*
X9246342Y2339204D01*
X9324204Y2261342D01*
X9385380Y2169786D01*
X9406449Y2118920D01*
X9427520Y2068051D01*
X9449000Y1960059D01*
X9449000Y1849941D01*
X9427520Y1741949D01*
X9418467Y1720094D01*
X9385380Y1640214D01*
X9324204Y1548658D01*
X9246342Y1470796D01*
X9154786Y1409620D01*
X9096515Y1385484D01*
X9074905Y1373932D01*
X9055963Y1358387D01*
X9040418Y1339445D01*
X9028867Y1317834D01*
X9021754Y1294385D01*
X9019352Y1269999D01*
X9021754Y1245613D01*
X9028867Y1222164D01*
X9040419Y1200554D01*
X9055964Y1181612D01*
X9074906Y1166067D01*
X9096513Y1154517D01*
X9154786Y1130380D01*
X9246342Y1069204D01*
X9324204Y991342D01*
X9385380Y899786D01*
X9406449Y848920D01*
X9427520Y798051D01*
X9449000Y690059D01*
X9449000Y579941D01*
X9427520Y471949D01*
X9418467Y450094D01*
X9385380Y370214D01*
X9324204Y278658D01*
X9246342Y200796D01*
X9154786Y139620D01*
X9096515Y115484D01*
X9074905Y103932D01*
X9055963Y88387D01*
X9040418Y69445D01*
X9028867Y47834D01*
X9021754Y24385D01*
X9019352Y-1D01*
X9021754Y-24387D01*
X9028867Y-47836D01*
X9040419Y-69446D01*
X9055964Y-88388D01*
X9074906Y-103933D01*
X9096513Y-115483D01*
X9154786Y-139620D01*
X9246342Y-200796D01*
X9324204Y-278658D01*
X9385380Y-370214D01*
X9406449Y-421080D01*
X9427520Y-471949D01*
X9449000Y-579941D01*
X9449000Y-690059D01*
X9427520Y-798051D01*
X9418467Y-819906D01*
X9385380Y-899786D01*
X9324204Y-991342D01*
X9246342Y-1069204D01*
X9154786Y-1130380D01*
X9096515Y-1154516D01*
X9074905Y-1166068D01*
X9055963Y-1181613D01*
X9040418Y-1200555D01*
X9028867Y-1222166D01*
X9021754Y-1245615D01*
X9019352Y-1270001D01*
X9021754Y-1294387D01*
X9028867Y-1317836D01*
X9040419Y-1339446D01*
X9055964Y-1358388D01*
X9074906Y-1373933D01*
X9096513Y-1385483D01*
X9154786Y-1409620D01*
X9246342Y-1470796D01*
X9324204Y-1548658D01*
X9385380Y-1640214D01*
X9406449Y-1691080D01*
X9427520Y-1741949D01*
X9449000Y-1849941D01*
X9449000Y-1960059D01*
X9427520Y-2068051D01*
X9418467Y-2089906D01*
X9385380Y-2169786D01*
X9324204Y-2261342D01*
X9246342Y-2339204D01*
X9154786Y-2400380D01*
X9103920Y-2421449D01*
X9053051Y-2442520D01*
X8945059Y-2464000D01*
X8834941Y-2464000D01*
X8726949Y-2442520D01*
X8676080Y-2421449D01*
X8625214Y-2400380D01*
X8533658Y-2339204D01*
X8455796Y-2261342D01*
X8394620Y-2169786D01*
X8370483Y-2111513D01*
X8358932Y-2089905D01*
X8343387Y-2070963D01*
X8324445Y-2055418D01*
X8302834Y-2043867D01*
X8279385Y-2036754D01*
X8254999Y-2034352D01*
X8230613Y-2036754D01*
X8207164Y-2043867D01*
X8185554Y-2055419D01*
X8166612Y-2070964D01*
X8151067Y-2089906D01*
X8139517Y-2111513D01*
X8115380Y-2169786D01*
X8054204Y-2261342D01*
X7976342Y-2339204D01*
X7884786Y-2400380D01*
X7833920Y-2421449D01*
X7783051Y-2442520D01*
X7675059Y-2464000D01*
X7564941Y-2464000D01*
X7456949Y-2442520D01*
X7406080Y-2421449D01*
X7355214Y-2400380D01*
X7263658Y-2339204D01*
X7185796Y-2261342D01*
X7124620Y-2169786D01*
X7091533Y-2089906D01*
X7082480Y-2068051D01*
X7061000Y-1960059D01*
X7061000Y-1849941D01*
X7082480Y-1741949D01*
X7103551Y-1691080D01*
X7124620Y-1640214D01*
X7185796Y-1548658D01*
X7263658Y-1470796D01*
X7355214Y-1409620D01*
X7413487Y-1385483D01*
X7435095Y-1373932D01*
X7454037Y-1358387D01*
X7469582Y-1339445D01*
X7481133Y-1317834D01*
X7488246Y-1294385D01*
X7490647Y-1270001D01*
X7749352Y-1270001D01*
X7751754Y-1294387D01*
X7758867Y-1317836D01*
X7770419Y-1339446D01*
X7785964Y-1358388D01*
X7804906Y-1373933D01*
X7826513Y-1385483D01*
X7884786Y-1409620D01*
X7976342Y-1470796D01*
X8054204Y-1548658D01*
X8115380Y-1640214D01*
X8139516Y-1698485D01*
X8151068Y-1720095D01*
X8166613Y-1739037D01*
X8185555Y-1754582D01*
X8207166Y-1766133D01*
X8230615Y-1773246D01*
X8255001Y-1775648D01*
X8279387Y-1773246D01*
X8302836Y-1766133D01*
X8324446Y-1754581D01*
X8343388Y-1739036D01*
X8358933Y-1720094D01*
X8370484Y-1698485D01*
X8394620Y-1640214D01*
X8455796Y-1548658D01*
X8533658Y-1470796D01*
X8625214Y-1409620D01*
X8683487Y-1385483D01*
X8705095Y-1373932D01*
X8724037Y-1358387D01*
X8739582Y-1339445D01*
X8751133Y-1317834D01*
X8758246Y-1294385D01*
X8760648Y-1269999D01*
X8758246Y-1245613D01*
X8751133Y-1222164D01*
X8739581Y-1200554D01*
X8724036Y-1181612D01*
X8705094Y-1166067D01*
X8683485Y-1154516D01*
X8625214Y-1130380D01*
X8533658Y-1069204D01*
X8455796Y-991342D01*
X8394620Y-899786D01*
X8370483Y-841513D01*
X8358932Y-819905D01*
X8343387Y-800963D01*
X8324445Y-785418D01*
X8302834Y-773867D01*
X8279385Y-766754D01*
X8254999Y-764352D01*
X8230613Y-766754D01*
X8207164Y-773867D01*
X8185554Y-785419D01*
X8166612Y-800964D01*
X8151067Y-819906D01*
X8139517Y-841513D01*
X8115380Y-899786D01*
X8054204Y-991342D01*
X7976342Y-1069204D01*
X7884786Y-1130380D01*
X7826515Y-1154516D01*
X7804905Y-1166068D01*
X7785963Y-1181613D01*
X7770418Y-1200555D01*
X7758867Y-1222166D01*
X7751754Y-1245615D01*
X7749352Y-1270001D01*
X7490647Y-1270001D01*
X7490648Y-1269999D01*
X7488246Y-1245613D01*
X7481133Y-1222164D01*
X7469581Y-1200554D01*
X7454036Y-1181612D01*
X7435094Y-1166067D01*
X7413485Y-1154516D01*
X7355214Y-1130380D01*
X7263658Y-1069204D01*
X7185796Y-991342D01*
X7124620Y-899786D01*
X7091533Y-819906D01*
X7082480Y-798051D01*
X7061000Y-690059D01*
X7061000Y-579941D01*
X7082480Y-471949D01*
X7103551Y-421080D01*
X7124620Y-370214D01*
X7185796Y-278658D01*
X7263658Y-200796D01*
X7355214Y-139620D01*
X7413487Y-115483D01*
X7435095Y-103932D01*
X7454037Y-88387D01*
X7469582Y-69445D01*
X7481133Y-47834D01*
X7488246Y-24385D01*
X7490647Y-1D01*
X7749352Y-1D01*
X7751754Y-24387D01*
X7758867Y-47836D01*
X7770419Y-69446D01*
X7785964Y-88388D01*
X7804906Y-103933D01*
X7826513Y-115483D01*
X7884786Y-139620D01*
X7976342Y-200796D01*
X8054204Y-278658D01*
X8115380Y-370214D01*
X8139516Y-428485D01*
X8151068Y-450095D01*
X8166613Y-469037D01*
X8185555Y-484582D01*
X8207166Y-496133D01*
X8230615Y-503246D01*
X8255001Y-505648D01*
X8279387Y-503246D01*
X8302836Y-496133D01*
X8324446Y-484581D01*
X8343388Y-469036D01*
X8358933Y-450094D01*
X8370484Y-428485D01*
X8394620Y-370214D01*
X8455796Y-278658D01*
X8533658Y-200796D01*
X8625214Y-139620D01*
X8683487Y-115483D01*
X8705095Y-103932D01*
X8724037Y-88387D01*
X8739582Y-69445D01*
X8751133Y-47834D01*
X8758246Y-24385D01*
X8760648Y1D01*
X8758246Y24387D01*
X8751133Y47836D01*
X8739581Y69446D01*
X8724036Y88388D01*
X8705094Y103933D01*
X8683485Y115484D01*
X8625214Y139620D01*
X8533658Y200796D01*
X8455796Y278658D01*
X8394620Y370214D01*
X8370483Y428487D01*
X8358932Y450095D01*
X8343387Y469037D01*
X8324445Y484582D01*
X8302834Y496133D01*
X8279385Y503246D01*
X8254999Y505648D01*
X8230613Y503246D01*
X8207164Y496133D01*
X8185554Y484581D01*
X8166612Y469036D01*
X8151067Y450094D01*
X8139517Y428487D01*
X8115380Y370214D01*
X8054204Y278658D01*
X7976342Y200796D01*
X7884786Y139620D01*
X7826515Y115484D01*
X7804905Y103932D01*
X7785963Y88387D01*
X7770418Y69445D01*
X7758867Y47834D01*
X7751754Y24385D01*
X7749352Y-1D01*
X7490647Y-1D01*
X7490648Y1D01*
X7488246Y24387D01*
X7481133Y47836D01*
X7469581Y69446D01*
X7454036Y88388D01*
X7435094Y103933D01*
X7413485Y115484D01*
X7355214Y139620D01*
X7263658Y200796D01*
X7185796Y278658D01*
X7124620Y370214D01*
X7091533Y450094D01*
X7082480Y471949D01*
X7061000Y579941D01*
X7061000Y690059D01*
X7082480Y798051D01*
X7103551Y848920D01*
X7124620Y899786D01*
X7185796Y991342D01*
X7263658Y1069204D01*
X7355214Y1130380D01*
X7413487Y1154517D01*
X7435095Y1166068D01*
X7454037Y1181613D01*
X7469582Y1200555D01*
X7481133Y1222166D01*
X7488246Y1245615D01*
X7490647Y1269999D01*
X7749352Y1269999D01*
X7751754Y1245613D01*
X7758867Y1222164D01*
X7770419Y1200554D01*
X7785964Y1181612D01*
X7804906Y1166067D01*
X7826513Y1154517D01*
X7884786Y1130380D01*
X7976342Y1069204D01*
X8054204Y991342D01*
X8115380Y899786D01*
X8139516Y841515D01*
X8151068Y819905D01*
X8166613Y800963D01*
X8185555Y785418D01*
X8207166Y773867D01*
X8230615Y766754D01*
X8255001Y764352D01*
X8279387Y766754D01*
X8302836Y773867D01*
X8324446Y785419D01*
X8343388Y800964D01*
X8358933Y819906D01*
X8370484Y841515D01*
X8394620Y899786D01*
X8455796Y991342D01*
X8533658Y1069204D01*
X8625214Y1130380D01*
X8683487Y1154517D01*
X8705095Y1166068D01*
X8724037Y1181613D01*
X8739582Y1200555D01*
X8751133Y1222166D01*
X8758246Y1245615D01*
X8760648Y1270001D01*
X8758246Y1294387D01*
X8751133Y1317836D01*
X8739581Y1339446D01*
X8724036Y1358388D01*
X8705094Y1373933D01*
X8683485Y1385484D01*
X8625214Y1409620D01*
X8533658Y1470796D01*
X8455796Y1548658D01*
X8394620Y1640214D01*
X8370483Y1698487D01*
X8358932Y1720095D01*
X8343387Y1739037D01*
X8324445Y1754582D01*
X8302834Y1766133D01*
X8279385Y1773246D01*
X8254999Y1775648D01*
X8230613Y1773246D01*
X8207164Y1766133D01*
X8185554Y1754581D01*
X8166612Y1739036D01*
X8151067Y1720094D01*
X8139517Y1698487D01*
X8115380Y1640214D01*
X8054204Y1548658D01*
X7976342Y1470796D01*
X7884786Y1409620D01*
X7826515Y1385484D01*
X7804905Y1373932D01*
X7785963Y1358387D01*
X7770418Y1339445D01*
X7758867Y1317834D01*
X7751754Y1294385D01*
X7749352Y1269999D01*
X7490647Y1269999D01*
X7490648Y1270001D01*
X7488246Y1294387D01*
X7481133Y1317836D01*
X7469581Y1339446D01*
X7454036Y1358388D01*
X7435094Y1373933D01*
X7413485Y1385484D01*
X7355214Y1409620D01*
X7263658Y1470796D01*
X7185796Y1548658D01*
X7124620Y1640214D01*
X7091533Y1720094D01*
X7082480Y1741949D01*
X7061000Y1849941D01*
X7061000Y1960059D01*
X7082480Y2068051D01*
X7103551Y2118920D01*
X7124620Y2169786D01*
X7185796Y2261342D01*
X7263658Y2339204D01*
X7355214Y2400380D01*
X7406080Y2421449D01*
X7456949Y2442520D01*
X7564941Y2464000D01*
X7675059Y2464000D01*
X7783051Y2442520D01*
X7783051Y2442520D01*
G37*
G36*
X-8726949Y2442520D02*
G01*
X-8676080Y2421449D01*
X-8625214Y2400380D01*
X-8533658Y2339204D01*
X-8455796Y2261342D01*
X-8394620Y2169786D01*
X-8370484Y2111515D01*
X-8358932Y2089905D01*
X-8343387Y2070963D01*
X-8324445Y2055418D01*
X-8302834Y2043867D01*
X-8279385Y2036754D01*
X-8254999Y2034352D01*
X-8230613Y2036754D01*
X-8207164Y2043867D01*
X-8185554Y2055419D01*
X-8166612Y2070964D01*
X-8151067Y2089906D01*
X-8139516Y2111515D01*
X-8115380Y2169786D01*
X-8054204Y2261342D01*
X-7976342Y2339204D01*
X-7884786Y2400380D01*
X-7833920Y2421449D01*
X-7783051Y2442520D01*
X-7675059Y2464000D01*
X-7564941Y2464000D01*
X-7456949Y2442520D01*
X-7406080Y2421449D01*
X-7355214Y2400380D01*
X-7263658Y2339204D01*
X-7185796Y2261342D01*
X-7124620Y2169786D01*
X-7103551Y2118920D01*
X-7082480Y2068051D01*
X-7061000Y1960059D01*
X-7061000Y1849941D01*
X-7082480Y1741949D01*
X-7091533Y1720094D01*
X-7124620Y1640214D01*
X-7185796Y1548658D01*
X-7263658Y1470796D01*
X-7355214Y1409620D01*
X-7413485Y1385484D01*
X-7435095Y1373932D01*
X-7454037Y1358387D01*
X-7469582Y1339445D01*
X-7481133Y1317834D01*
X-7488246Y1294385D01*
X-7490648Y1269999D01*
X-7488246Y1245613D01*
X-7481133Y1222164D01*
X-7469581Y1200554D01*
X-7454036Y1181612D01*
X-7435094Y1166067D01*
X-7413487Y1154517D01*
X-7355214Y1130380D01*
X-7263658Y1069204D01*
X-7185796Y991342D01*
X-7124620Y899786D01*
X-7103551Y848920D01*
X-7082480Y798051D01*
X-7061000Y690059D01*
X-7061000Y579941D01*
X-7082480Y471949D01*
X-7091533Y450094D01*
X-7124620Y370214D01*
X-7185796Y278658D01*
X-7263658Y200796D01*
X-7355214Y139620D01*
X-7413485Y115484D01*
X-7435095Y103932D01*
X-7454037Y88387D01*
X-7469582Y69445D01*
X-7481133Y47834D01*
X-7488246Y24385D01*
X-7490648Y-1D01*
X-7488246Y-24387D01*
X-7481133Y-47836D01*
X-7469581Y-69446D01*
X-7454036Y-88388D01*
X-7435094Y-103933D01*
X-7413487Y-115483D01*
X-7355214Y-139620D01*
X-7263658Y-200796D01*
X-7185796Y-278658D01*
X-7124620Y-370214D01*
X-7103551Y-421080D01*
X-7082480Y-471949D01*
X-7061000Y-579941D01*
X-7061000Y-690059D01*
X-7082480Y-798051D01*
X-7091533Y-819906D01*
X-7124620Y-899786D01*
X-7185796Y-991342D01*
X-7263658Y-1069204D01*
X-7355214Y-1130380D01*
X-7413485Y-1154516D01*
X-7435095Y-1166068D01*
X-7454037Y-1181613D01*
X-7469582Y-1200555D01*
X-7481133Y-1222166D01*
X-7488246Y-1245615D01*
X-7490648Y-1270001D01*
X-7488246Y-1294387D01*
X-7481133Y-1317836D01*
X-7469581Y-1339446D01*
X-7454036Y-1358388D01*
X-7435094Y-1373933D01*
X-7413487Y-1385483D01*
X-7355214Y-1409620D01*
X-7263658Y-1470796D01*
X-7185796Y-1548658D01*
X-7124620Y-1640214D01*
X-7103551Y-1691080D01*
X-7082480Y-1741949D01*
X-7061000Y-1849941D01*
X-7061000Y-1960059D01*
X-7082480Y-2068051D01*
X-7091533Y-2089906D01*
X-7124620Y-2169786D01*
X-7185796Y-2261342D01*
X-7263658Y-2339204D01*
X-7355214Y-2400380D01*
X-7406080Y-2421449D01*
X-7456949Y-2442520D01*
X-7564941Y-2464000D01*
X-7675059Y-2464000D01*
X-7783051Y-2442520D01*
X-7833920Y-2421449D01*
X-7884786Y-2400380D01*
X-7976342Y-2339204D01*
X-8054204Y-2261342D01*
X-8115380Y-2169786D01*
X-8139517Y-2111513D01*
X-8151068Y-2089905D01*
X-8166613Y-2070963D01*
X-8185555Y-2055418D01*
X-8207166Y-2043867D01*
X-8230615Y-2036754D01*
X-8255001Y-2034352D01*
X-8279387Y-2036754D01*
X-8302836Y-2043867D01*
X-8324446Y-2055419D01*
X-8343388Y-2070964D01*
X-8358933Y-2089906D01*
X-8370483Y-2111513D01*
X-8394620Y-2169786D01*
X-8455796Y-2261342D01*
X-8533658Y-2339204D01*
X-8625214Y-2400380D01*
X-8676080Y-2421449D01*
X-8726949Y-2442520D01*
X-8834941Y-2464000D01*
X-8945059Y-2464000D01*
X-9053051Y-2442520D01*
X-9103920Y-2421449D01*
X-9154786Y-2400380D01*
X-9246342Y-2339204D01*
X-9324204Y-2261342D01*
X-9385380Y-2169786D01*
X-9418467Y-2089906D01*
X-9427520Y-2068051D01*
X-9449000Y-1960059D01*
X-9449000Y-1849941D01*
X-9427520Y-1741949D01*
X-9406449Y-1691080D01*
X-9385380Y-1640214D01*
X-9324204Y-1548658D01*
X-9246342Y-1470796D01*
X-9154786Y-1409620D01*
X-9096513Y-1385483D01*
X-9074905Y-1373932D01*
X-9055963Y-1358387D01*
X-9040418Y-1339445D01*
X-9028867Y-1317834D01*
X-9021754Y-1294385D01*
X-9019353Y-1270001D01*
X-8760648Y-1270001D01*
X-8758246Y-1294387D01*
X-8751133Y-1317836D01*
X-8739581Y-1339446D01*
X-8724036Y-1358388D01*
X-8705094Y-1373933D01*
X-8683487Y-1385483D01*
X-8625214Y-1409620D01*
X-8533658Y-1470796D01*
X-8455796Y-1548658D01*
X-8394620Y-1640214D01*
X-8370484Y-1698485D01*
X-8358932Y-1720095D01*
X-8343387Y-1739037D01*
X-8324445Y-1754582D01*
X-8302834Y-1766133D01*
X-8279385Y-1773246D01*
X-8254999Y-1775648D01*
X-8230613Y-1773246D01*
X-8207164Y-1766133D01*
X-8185554Y-1754581D01*
X-8166612Y-1739036D01*
X-8151067Y-1720094D01*
X-8139516Y-1698485D01*
X-8115380Y-1640214D01*
X-8054204Y-1548658D01*
X-7976342Y-1470796D01*
X-7884786Y-1409620D01*
X-7826513Y-1385483D01*
X-7804905Y-1373932D01*
X-7785963Y-1358387D01*
X-7770418Y-1339445D01*
X-7758867Y-1317834D01*
X-7751754Y-1294385D01*
X-7749352Y-1269999D01*
X-7751754Y-1245613D01*
X-7758867Y-1222164D01*
X-7770419Y-1200554D01*
X-7785964Y-1181612D01*
X-7804906Y-1166067D01*
X-7826515Y-1154516D01*
X-7884786Y-1130380D01*
X-7976342Y-1069204D01*
X-8054204Y-991342D01*
X-8115380Y-899786D01*
X-8139517Y-841513D01*
X-8151068Y-819905D01*
X-8166613Y-800963D01*
X-8185555Y-785418D01*
X-8207166Y-773867D01*
X-8230615Y-766754D01*
X-8255001Y-764352D01*
X-8279387Y-766754D01*
X-8302836Y-773867D01*
X-8324446Y-785419D01*
X-8343388Y-800964D01*
X-8358933Y-819906D01*
X-8370483Y-841513D01*
X-8394620Y-899786D01*
X-8455796Y-991342D01*
X-8533658Y-1069204D01*
X-8625214Y-1130380D01*
X-8683485Y-1154516D01*
X-8705095Y-1166068D01*
X-8724037Y-1181613D01*
X-8739582Y-1200555D01*
X-8751133Y-1222166D01*
X-8758246Y-1245615D01*
X-8760648Y-1270001D01*
X-9019353Y-1270001D01*
X-9019352Y-1269999D01*
X-9021754Y-1245613D01*
X-9028867Y-1222164D01*
X-9040419Y-1200554D01*
X-9055964Y-1181612D01*
X-9074906Y-1166067D01*
X-9096515Y-1154516D01*
X-9154786Y-1130380D01*
X-9246342Y-1069204D01*
X-9324204Y-991342D01*
X-9385380Y-899786D01*
X-9418467Y-819906D01*
X-9427520Y-798051D01*
X-9449000Y-690059D01*
X-9449000Y-579941D01*
X-9427520Y-471949D01*
X-9406449Y-421080D01*
X-9385380Y-370214D01*
X-9324204Y-278658D01*
X-9246342Y-200796D01*
X-9154786Y-139620D01*
X-9096513Y-115483D01*
X-9074905Y-103932D01*
X-9055963Y-88387D01*
X-9040418Y-69445D01*
X-9028867Y-47834D01*
X-9021754Y-24385D01*
X-9019353Y-1D01*
X-8760648Y-1D01*
X-8758246Y-24387D01*
X-8751133Y-47836D01*
X-8739581Y-69446D01*
X-8724036Y-88388D01*
X-8705094Y-103933D01*
X-8683487Y-115483D01*
X-8625214Y-139620D01*
X-8533658Y-200796D01*
X-8455796Y-278658D01*
X-8394620Y-370214D01*
X-8370484Y-428485D01*
X-8358932Y-450095D01*
X-8343387Y-469037D01*
X-8324445Y-484582D01*
X-8302834Y-496133D01*
X-8279385Y-503246D01*
X-8254999Y-505648D01*
X-8230613Y-503246D01*
X-8207164Y-496133D01*
X-8185554Y-484581D01*
X-8166612Y-469036D01*
X-8151067Y-450094D01*
X-8139516Y-428485D01*
X-8115380Y-370214D01*
X-8054204Y-278658D01*
X-7976342Y-200796D01*
X-7884786Y-139620D01*
X-7826513Y-115483D01*
X-7804905Y-103932D01*
X-7785963Y-88387D01*
X-7770418Y-69445D01*
X-7758867Y-47834D01*
X-7751754Y-24385D01*
X-7749352Y1D01*
X-7751754Y24387D01*
X-7758867Y47836D01*
X-7770419Y69446D01*
X-7785964Y88388D01*
X-7804906Y103933D01*
X-7826515Y115484D01*
X-7884786Y139620D01*
X-7976342Y200796D01*
X-8054204Y278658D01*
X-8115380Y370214D01*
X-8139517Y428487D01*
X-8151068Y450095D01*
X-8166613Y469037D01*
X-8185555Y484582D01*
X-8207166Y496133D01*
X-8230615Y503246D01*
X-8255001Y505648D01*
X-8279387Y503246D01*
X-8302836Y496133D01*
X-8324446Y484581D01*
X-8343388Y469036D01*
X-8358933Y450094D01*
X-8370483Y428487D01*
X-8394620Y370214D01*
X-8455796Y278658D01*
X-8533658Y200796D01*
X-8625214Y139620D01*
X-8683485Y115484D01*
X-8705095Y103932D01*
X-8724037Y88387D01*
X-8739582Y69445D01*
X-8751133Y47834D01*
X-8758246Y24385D01*
X-8760648Y-1D01*
X-9019353Y-1D01*
X-9019352Y1D01*
X-9021754Y24387D01*
X-9028867Y47836D01*
X-9040419Y69446D01*
X-9055964Y88388D01*
X-9074906Y103933D01*
X-9096515Y115484D01*
X-9154786Y139620D01*
X-9246342Y200796D01*
X-9324204Y278658D01*
X-9385380Y370214D01*
X-9418467Y450094D01*
X-9427520Y471949D01*
X-9449000Y579941D01*
X-9449000Y690059D01*
X-9427520Y798051D01*
X-9406449Y848920D01*
X-9385380Y899786D01*
X-9324204Y991342D01*
X-9246342Y1069204D01*
X-9154786Y1130380D01*
X-9096513Y1154517D01*
X-9074905Y1166068D01*
X-9055963Y1181613D01*
X-9040418Y1200555D01*
X-9028867Y1222166D01*
X-9021754Y1245615D01*
X-9019353Y1269999D01*
X-8760648Y1269999D01*
X-8758246Y1245613D01*
X-8751133Y1222164D01*
X-8739581Y1200554D01*
X-8724036Y1181612D01*
X-8705094Y1166067D01*
X-8683487Y1154517D01*
X-8625214Y1130380D01*
X-8533658Y1069204D01*
X-8455796Y991342D01*
X-8394620Y899786D01*
X-8370484Y841515D01*
X-8358932Y819905D01*
X-8343387Y800963D01*
X-8324445Y785418D01*
X-8302834Y773867D01*
X-8279385Y766754D01*
X-8254999Y764352D01*
X-8230613Y766754D01*
X-8207164Y773867D01*
X-8185554Y785419D01*
X-8166612Y800964D01*
X-8151067Y819906D01*
X-8139516Y841515D01*
X-8115380Y899786D01*
X-8054204Y991342D01*
X-7976342Y1069204D01*
X-7884786Y1130380D01*
X-7826513Y1154517D01*
X-7804905Y1166068D01*
X-7785963Y1181613D01*
X-7770418Y1200555D01*
X-7758867Y1222166D01*
X-7751754Y1245615D01*
X-7749352Y1270001D01*
X-7751754Y1294387D01*
X-7758867Y1317836D01*
X-7770419Y1339446D01*
X-7785964Y1358388D01*
X-7804906Y1373933D01*
X-7826515Y1385484D01*
X-7884786Y1409620D01*
X-7976342Y1470796D01*
X-8054204Y1548658D01*
X-8115380Y1640214D01*
X-8139517Y1698487D01*
X-8151068Y1720095D01*
X-8166613Y1739037D01*
X-8185555Y1754582D01*
X-8207166Y1766133D01*
X-8230615Y1773246D01*
X-8255001Y1775648D01*
X-8279387Y1773246D01*
X-8302836Y1766133D01*
X-8324446Y1754581D01*
X-8343388Y1739036D01*
X-8358933Y1720094D01*
X-8370483Y1698487D01*
X-8394620Y1640214D01*
X-8455796Y1548658D01*
X-8533658Y1470796D01*
X-8625214Y1409620D01*
X-8683485Y1385484D01*
X-8705095Y1373932D01*
X-8724037Y1358387D01*
X-8739582Y1339445D01*
X-8751133Y1317834D01*
X-8758246Y1294385D01*
X-8760648Y1269999D01*
X-9019353Y1269999D01*
X-9019352Y1270001D01*
X-9021754Y1294387D01*
X-9028867Y1317836D01*
X-9040419Y1339446D01*
X-9055964Y1358388D01*
X-9074906Y1373933D01*
X-9096515Y1385484D01*
X-9154786Y1409620D01*
X-9246342Y1470796D01*
X-9324204Y1548658D01*
X-9385380Y1640214D01*
X-9418467Y1720094D01*
X-9427520Y1741949D01*
X-9449000Y1849941D01*
X-9449000Y1960059D01*
X-9427520Y2068051D01*
X-9406449Y2118920D01*
X-9385380Y2169786D01*
X-9324204Y2261342D01*
X-9246342Y2339204D01*
X-9154786Y2400380D01*
X-9103920Y2421449D01*
X-9053051Y2442520D01*
X-8945059Y2464000D01*
X-8834941Y2464000D01*
X-8726949Y2442520D01*
X-8726949Y2442520D01*
G37*
G36*
X-7960121Y6435457D02*
G01*
X-7814112Y6406414D01*
X-7539036Y6292474D01*
X-7291475Y6127059D01*
X-7080941Y5916525D01*
X-6915526Y5668964D01*
X-6801586Y5393888D01*
X-6743500Y5101870D01*
X-6743500Y4804130D01*
X-6801586Y4512112D01*
X-6915526Y4237036D01*
X-7080941Y3989475D01*
X-7291475Y3778941D01*
X-7539036Y3613526D01*
X-7814112Y3499586D01*
X-7952796Y3472000D01*
X-8106129Y3441500D01*
X-8403871Y3441500D01*
X-8557204Y3472000D01*
X-8695888Y3499586D01*
X-8970964Y3613526D01*
X-9218525Y3778941D01*
X-9429059Y3989475D01*
X-9594474Y4237036D01*
X-9708414Y4512112D01*
X-9766500Y4804130D01*
X-9766500Y5101870D01*
X-9708414Y5393888D01*
X-9594474Y5668964D01*
X-9429059Y5916525D01*
X-9218525Y6127059D01*
X-8970964Y6292474D01*
X-8695888Y6406414D01*
X-8549879Y6435457D01*
X-8403871Y6464500D01*
X-8106129Y6464500D01*
X-7960121Y6435457D01*
X-7960121Y6435457D01*
G37*
G36*
X8549879Y6435457D02*
G01*
X8695888Y6406414D01*
X8970964Y6292474D01*
X9218525Y6127059D01*
X9429059Y5916525D01*
X9594474Y5668964D01*
X9708414Y5393888D01*
X9766500Y5101870D01*
X9766500Y4804130D01*
X9708414Y4512112D01*
X9594474Y4237036D01*
X9429059Y3989475D01*
X9218525Y3778941D01*
X8970964Y3613526D01*
X8695888Y3499586D01*
X8557204Y3472000D01*
X8403871Y3441500D01*
X8106129Y3441500D01*
X7952796Y3472000D01*
X7814112Y3499586D01*
X7539036Y3613526D01*
X7291475Y3778941D01*
X7080941Y3989475D01*
X6915526Y4237036D01*
X6801586Y4512112D01*
X6743500Y4804130D01*
X6743500Y5101870D01*
X6801586Y5393888D01*
X6915526Y5668964D01*
X7080941Y5916525D01*
X7291475Y6127059D01*
X7539036Y6292474D01*
X7814112Y6406414D01*
X7960121Y6435457D01*
X8106129Y6464500D01*
X8403871Y6464500D01*
X8549879Y6435457D01*
X8549879Y6435457D01*
G37*
G36*
X-11809605Y5337454D02*
G01*
X-11636534Y5265766D01*
X-11636533Y5265765D01*
X-11480773Y5161690D01*
X-11348310Y5029227D01*
X-11348309Y5029225D01*
X-11244234Y4873466D01*
X-11172546Y4700395D01*
X-11136000Y4516667D01*
X-11136000Y4329333D01*
X-11172546Y4145605D01*
X-11244234Y3972534D01*
X-11244235Y3972533D01*
X-11348310Y3816773D01*
X-11480773Y3684310D01*
X-11559182Y3631919D01*
X-11636534Y3580234D01*
X-11809605Y3508546D01*
X-11993333Y3472000D01*
X-12180667Y3472000D01*
X-12364395Y3508546D01*
X-12537466Y3580234D01*
X-12614818Y3631919D01*
X-12693227Y3684310D01*
X-12825690Y3816773D01*
X-12929765Y3972533D01*
X-12929766Y3972534D01*
X-13001454Y4145605D01*
X-13038000Y4329333D01*
X-13038000Y4516667D01*
X-13001454Y4700395D01*
X-12929766Y4873466D01*
X-12825691Y5029225D01*
X-12825690Y5029227D01*
X-12693227Y5161690D01*
X-12537467Y5265765D01*
X-12537466Y5265766D01*
X-12364395Y5337454D01*
X-12180667Y5374000D01*
X-11993333Y5374000D01*
X-11809605Y5337454D01*
X-11809605Y5337454D01*
G37*
G36*
X-4145605Y5337454D02*
G01*
X-3972534Y5265766D01*
X-3972533Y5265765D01*
X-3816773Y5161690D01*
X-3684310Y5029227D01*
X-3684309Y5029225D01*
X-3580234Y4873466D01*
X-3508546Y4700395D01*
X-3472000Y4516667D01*
X-3472000Y4329333D01*
X-3508546Y4145605D01*
X-3580234Y3972534D01*
X-3580235Y3972533D01*
X-3684310Y3816773D01*
X-3816773Y3684310D01*
X-3895182Y3631919D01*
X-3972534Y3580234D01*
X-4145605Y3508546D01*
X-4329333Y3472000D01*
X-4516667Y3472000D01*
X-4700395Y3508546D01*
X-4873466Y3580234D01*
X-4950818Y3631919D01*
X-5029227Y3684310D01*
X-5161690Y3816773D01*
X-5265765Y3972533D01*
X-5265766Y3972534D01*
X-5337454Y4145605D01*
X-5374000Y4329333D01*
X-5374000Y4516667D01*
X-5337454Y4700395D01*
X-5265766Y4873466D01*
X-5161691Y5029225D01*
X-5161690Y5029227D01*
X-5029227Y5161690D01*
X-4873467Y5265765D01*
X-4873466Y5265766D01*
X-4700395Y5337454D01*
X-4516667Y5374000D01*
X-4329333Y5374000D01*
X-4145605Y5337454D01*
X-4145605Y5337454D01*
G37*
G36*
X21210395Y5337454D02*
G01*
X21383466Y5265766D01*
X21383467Y5265765D01*
X21539227Y5161690D01*
X21671690Y5029227D01*
X21671691Y5029225D01*
X21775766Y4873466D01*
X21847454Y4700395D01*
X21884000Y4516667D01*
X21884000Y4329333D01*
X21847454Y4145605D01*
X21775766Y3972534D01*
X21775765Y3972533D01*
X21671690Y3816773D01*
X21539227Y3684310D01*
X21460818Y3631919D01*
X21383466Y3580234D01*
X21210395Y3508546D01*
X21026667Y3472000D01*
X20839333Y3472000D01*
X20655605Y3508546D01*
X20482534Y3580234D01*
X20405182Y3631919D01*
X20326773Y3684310D01*
X20194310Y3816773D01*
X20090235Y3972533D01*
X20090234Y3972534D01*
X20018546Y4145605D01*
X19982000Y4329333D01*
X19982000Y4516667D01*
X20018546Y4700395D01*
X20090234Y4873466D01*
X20194309Y5029225D01*
X20194310Y5029227D01*
X20326773Y5161690D01*
X20482533Y5265765D01*
X20482534Y5265766D01*
X20655605Y5337454D01*
X20839333Y5374000D01*
X21026667Y5374000D01*
X21210395Y5337454D01*
X21210395Y5337454D01*
G37*
G36*
X-23517621Y6689457D02*
G01*
X-23371612Y6660414D01*
X-23096536Y6546474D01*
X-22848975Y6381059D01*
X-22638441Y6170525D01*
X-22473026Y5922964D01*
X-22359086Y5647888D01*
X-22359086Y5647887D01*
X-22301000Y5355871D01*
X-22301000Y5058129D01*
X-22330043Y4912121D01*
X-22359086Y4766112D01*
X-22473026Y4491036D01*
X-22638441Y4243475D01*
X-22848975Y4032941D01*
X-23096536Y3867526D01*
X-23371612Y3753586D01*
X-23517621Y3724543D01*
X-23663629Y3695500D01*
X-23961371Y3695500D01*
X-24107379Y3724543D01*
X-24253388Y3753586D01*
X-24528464Y3867526D01*
X-24776025Y4032941D01*
X-24986559Y4243475D01*
X-25151974Y4491036D01*
X-25265914Y4766112D01*
X-25294957Y4912121D01*
X-25324000Y5058129D01*
X-25324000Y5355871D01*
X-25265914Y5647887D01*
X-25265914Y5647888D01*
X-25151974Y5922964D01*
X-24986559Y6170525D01*
X-24776025Y6381059D01*
X-24528464Y6546474D01*
X-24253388Y6660414D01*
X-24107379Y6689457D01*
X-23961371Y6718500D01*
X-23663629Y6718500D01*
X-23517621Y6689457D01*
X-23517621Y6689457D01*
G37*
G36*
X24107379Y6689457D02*
G01*
X24253388Y6660414D01*
X24528464Y6546474D01*
X24776025Y6381059D01*
X24986559Y6170525D01*
X25151974Y5922964D01*
X25265914Y5647888D01*
X25265914Y5647887D01*
X25324000Y5355871D01*
X25324000Y5058129D01*
X25294957Y4912121D01*
X25265914Y4766112D01*
X25151974Y4491036D01*
X24986559Y4243475D01*
X24776025Y4032941D01*
X24528464Y3867526D01*
X24253388Y3753586D01*
X24107379Y3724543D01*
X23961371Y3695500D01*
X23663629Y3695500D01*
X23517621Y3724543D01*
X23371612Y3753586D01*
X23096536Y3867526D01*
X22848975Y4032941D01*
X22638441Y4243475D01*
X22473026Y4491036D01*
X22359086Y4766112D01*
X22330043Y4912121D01*
X22301000Y5058129D01*
X22301000Y5355871D01*
X22359086Y5647887D01*
X22359086Y5647888D01*
X22473026Y5922964D01*
X22638441Y6170525D01*
X22848975Y6381059D01*
X23096536Y6546474D01*
X23371612Y6660414D01*
X23517621Y6689457D01*
X23663629Y6718500D01*
X23961371Y6718500D01*
X24107379Y6689457D01*
X24107379Y6689457D01*
G37*
M02*
