M48
; DRILL file {KiCad (5.1.4)-1} date 9/2/2020 11:10:06 AM
; FORMAT={2:4/ absolute / inch / suppress leading zeros}
; #@! TF.CreationDate,2020-09-02T11:10:06-07:00
; #@! TF.GenerationSoftware,Kicad,Pcbnew,(5.1.4)-1
FMAT,2
INCH,TZ
T1C0.0118
T2C0.0240
T3C0.0606
T4C0.0650
T5C0.3622
%
G90
G05
T1
X-7535Y-2150
X-6697Y-2268
X-5809Y-2060
X-5199Y-1768
X-4717Y-1811
X-2628Y-1366
X-2035Y-787
X-2000Y-1900
X-1848Y839
X-797Y1918
X673Y-2287
X1661Y1957
X2366Y386
X2445Y-642
X2551Y-1520
X3924Y-1499
X4169Y1248
X4238Y1655
X4341Y-800
X4452Y-1239
X4856Y1557
X4938Y2078
X5646Y-1905
X5736Y1996
X6433Y-2197
X6504Y2069
X7289Y2005
X7575Y-2008
X8370Y-1370
X8587Y602
X8594Y-484
T2
X-3500Y750
X-3500Y250
X-3500Y-250
X-3500Y-750
X-3000Y750
X-3000Y250
X-3000Y-250
X-3000Y-750
X3000Y750
X3000Y250
X3000Y-250
X3000Y-750
X3500Y750
X3500Y250
X3500Y-250
X3500Y-750
T3
X4759Y-1741
X8241Y1741
X-8241Y-1741
X-4759Y1741
X-1741Y1741
X1741Y-1741
T4
X-3250Y-1950
X-3250Y1950
X3250Y1950
X9375Y-2050
X3250Y-1950
X9375Y2050
X-9375Y-2050
X-9375Y2050
T5
X0Y0
X6500Y0
X-6500Y0
T0
M30
