G04 #@! TF.GenerationSoftware,KiCad,Pcbnew,(5.1.4)-1*
G04 #@! TF.CreationDate,2020-09-02T11:10:04-07:00*
G04 #@! TF.ProjectId,SkateLightLEDBoard,536b6174-654c-4696-9768-744c4544426f,rev?*
G04 #@! TF.SameCoordinates,Original*
G04 #@! TF.FileFunction,Legend,Bot*
G04 #@! TF.FilePolarity,Positive*
%FSLAX46Y46*%
G04 Gerber Fmt 4.6, Leading zero omitted, Abs format (unit mm)*
G04 Created by KiCad (PCBNEW (5.1.4)-1) date 2020-09-02 11:10:04*
%MOMM*%
%LPD*%
G04 APERTURE LIST*
%ADD10C,0.127000*%
%ADD11C,0.120000*%
G04 APERTURE END LIST*
D10*
X-21626285Y3066142D02*
X-22388285Y3066142D01*
X-22388285Y2884714D01*
X-22352000Y2775857D01*
X-22279428Y2703285D01*
X-22206857Y2667000D01*
X-22061714Y2630714D01*
X-21952857Y2630714D01*
X-21807714Y2667000D01*
X-21735142Y2703285D01*
X-21662571Y2775857D01*
X-21626285Y2884714D01*
X-21626285Y3066142D01*
X-21844000Y2340428D02*
X-21844000Y1977571D01*
X-21626285Y2413000D02*
X-22388285Y2159000D01*
X-21626285Y1905000D01*
X-21626285Y1034142D02*
X-21626285Y889000D01*
X-21662571Y816428D01*
X-21698857Y780142D01*
X-21807714Y707571D01*
X-21952857Y671285D01*
X-22243142Y671285D01*
X-22315714Y707571D01*
X-22352000Y743857D01*
X-22388285Y816428D01*
X-22388285Y961571D01*
X-22352000Y1034142D01*
X-22315714Y1070428D01*
X-22243142Y1106714D01*
X-22061714Y1106714D01*
X-21989142Y1070428D01*
X-21952857Y1034142D01*
X-21916571Y961571D01*
X-21916571Y816428D01*
X-21952857Y743857D01*
X-21989142Y707571D01*
X-22061714Y671285D01*
X-22424571Y-199571D02*
X-21444857Y453571D01*
X-22315714Y-417285D02*
X-22352000Y-453571D01*
X-22388285Y-526142D01*
X-22388285Y-707571D01*
X-22352000Y-780142D01*
X-22315714Y-816428D01*
X-22243142Y-852714D01*
X-22170571Y-852714D01*
X-22061714Y-816428D01*
X-21626285Y-381000D01*
X-21626285Y-852714D01*
X-22424571Y-1723571D02*
X-21444857Y-1070428D01*
X-22315714Y-1941285D02*
X-22352000Y-1977571D01*
X-22388285Y-2050142D01*
X-22388285Y-2231571D01*
X-22352000Y-2304142D01*
X-22315714Y-2340428D01*
X-22243142Y-2376714D01*
X-22170571Y-2376714D01*
X-22061714Y-2340428D01*
X-21626285Y-1905000D01*
X-21626285Y-2376714D01*
X-22388285Y-2848428D02*
X-22388285Y-2921000D01*
X-22352000Y-2993571D01*
X-22315714Y-3029857D01*
X-22243142Y-3066142D01*
X-22098000Y-3102428D01*
X-21916571Y-3102428D01*
X-21771428Y-3066142D01*
X-21698857Y-3029857D01*
X-21662571Y-2993571D01*
X-21626285Y-2921000D01*
X-21626285Y-2848428D01*
X-21662571Y-2775857D01*
X-21698857Y-2739571D01*
X-21771428Y-2703285D01*
X-21916571Y-2667000D01*
X-22098000Y-2667000D01*
X-22243142Y-2703285D01*
X-22315714Y-2739571D01*
X-22352000Y-2775857D01*
X-22388285Y-2848428D01*
D11*
X-10260000Y6250000D02*
X-10260000Y-6250000D01*
X-22760000Y6250000D02*
X-10260000Y6250000D01*
X-22760000Y-6250000D02*
X-22760000Y6250000D01*
X-10260000Y-6250000D02*
X-22760000Y-6250000D01*
X6250000Y-6250000D02*
X-6250000Y-6250000D01*
X6250000Y6250000D02*
X6250000Y-6250000D01*
X-6250000Y6250000D02*
X6250000Y6250000D01*
X-6250000Y-6250000D02*
X-6250000Y6250000D01*
X22760000Y-6250000D02*
X10260000Y-6250000D01*
X10260000Y-6250000D02*
X10260000Y6250000D01*
X10260000Y6250000D02*
X22760000Y6250000D01*
X22760000Y6250000D02*
X22760000Y-6250000D01*
X10033000Y-2540000D02*
X10033000Y2540000D01*
X6477000Y-2540000D02*
X10033000Y-2540000D01*
X6477000Y2540000D02*
X6477000Y-2540000D01*
X10033000Y2540000D02*
X6477000Y2540000D01*
X-6477000Y-2540000D02*
X-6477000Y2540000D01*
X-10033000Y-2540000D02*
X-6477000Y-2540000D01*
X-10033000Y2540000D02*
X-10033000Y-2540000D01*
X-6477000Y2540000D02*
X-10033000Y2540000D01*
M02*
