G04 #@! TF.GenerationSoftware,KiCad,Pcbnew,(5.1.4)-1*
G04 #@! TF.CreationDate,2020-06-09T22:24:04-07:00*
G04 #@! TF.ProjectId,SkateLightConnBoard,536b6174-654c-4696-9768-74436f6e6e42,rev?*
G04 #@! TF.SameCoordinates,Original*
G04 #@! TF.FileFunction,Copper,L1,Top*
G04 #@! TF.FilePolarity,Positive*
%FSLAX46Y46*%
G04 Gerber Fmt 4.6, Leading zero omitted, Abs format (unit mm)*
G04 Created by KiCad (PCBNEW (5.1.4)-1) date 2020-06-09 22:24:04*
%MOMM*%
%LPD*%
G04 APERTURE LIST*
%ADD10C,1.016000*%
%ADD11C,0.600000*%
%ADD12C,0.500000*%
%ADD13C,0.152400*%
%ADD14C,0.254000*%
G04 APERTURE END LIST*
D10*
X-7620000Y-1905000D03*
X-8890000Y-1905000D03*
X-7620000Y-635000D03*
X-8890000Y-635000D03*
X-7620000Y635000D03*
X-8890000Y635000D03*
X-7620000Y1905000D03*
X-8890000Y1905000D03*
X4445000Y-2171700D03*
X4445000Y-901700D03*
X3175000Y-2171700D03*
X3175000Y-901700D03*
X1905000Y-2171700D03*
X1905000Y-901700D03*
X635000Y-2171700D03*
X635000Y-901700D03*
X-635000Y-2171700D03*
X-635000Y-901700D03*
X-1905000Y-2171700D03*
X-1905000Y-901700D03*
X-3175000Y-2171700D03*
X-3175000Y-901700D03*
X-4445000Y-2171700D03*
X-4445000Y-901700D03*
X7620000Y1905000D03*
X8890000Y1905000D03*
X7620000Y635000D03*
X8890000Y635000D03*
X7620000Y-635000D03*
X8890000Y-635000D03*
X7620000Y-1905000D03*
X8890000Y-1905000D03*
D11*
X-6013021Y-3513021D03*
X700000Y1060000D03*
X-11430000Y3683000D03*
X-1780000Y-5190000D03*
X-9380000Y-4960000D03*
X-11490000Y-3430000D03*
X-11800000Y40000D03*
X-6970000Y4110000D03*
X7670000Y3900000D03*
X-1270000Y762000D03*
X6350000Y1524000D03*
X1270000Y-5334000D03*
X11176000Y3900000D03*
X5730000Y-1730000D03*
X-6500000Y500000D03*
D12*
X-9800401Y-2341993D02*
X-8629373Y-3513021D01*
X-9800401Y-826981D02*
X-9800401Y-2341993D01*
X-9608420Y-635000D02*
X-9800401Y-826981D01*
X-8890000Y-635000D02*
X-9608420Y-635000D01*
X-8629373Y-3513021D02*
X-6013021Y-3513021D01*
X-635000Y-275000D02*
X700000Y1060000D01*
X-635000Y-901700D02*
X-635000Y-275000D01*
X-9608420Y1905000D02*
X-8890000Y1905000D01*
X-10452811Y-2612230D02*
X-10452811Y1060609D01*
X-8849618Y-4215422D02*
X-10452811Y-2612230D01*
X-2613376Y-4215422D02*
X-8849618Y-4215422D01*
X-10452811Y1060609D02*
X-9608420Y1905000D01*
X-1142999Y-2745045D02*
X-2613376Y-4215422D01*
X-1142999Y-2679699D02*
X-1142999Y-2745045D01*
X-635000Y-2171700D02*
X-1142999Y-2679699D01*
X5981700Y635000D02*
X7620000Y635000D01*
X4445000Y-901700D02*
X5981700Y635000D01*
X-1905000Y-183280D02*
X-1905000Y-901700D01*
X-3485281Y1397001D02*
X-1905000Y-183280D01*
X-7112001Y1397001D02*
X-3485281Y1397001D01*
X-7620000Y1905000D02*
X-7112001Y1397001D01*
X6825000Y-635000D02*
X7620000Y-635000D01*
X5730000Y-1730000D02*
X6825000Y-635000D01*
X-7620000Y635000D02*
X-6635000Y635000D01*
X-6635000Y635000D02*
X-6500000Y500000D01*
X7620000Y1905000D02*
X8890000Y1905000D01*
X8890000Y1905000D02*
X8890000Y635000D01*
X4952999Y-2679699D02*
X4445000Y-2171700D01*
X5088701Y-2815401D02*
X4952999Y-2679699D01*
X9326993Y-2815401D02*
X5088701Y-2815401D01*
X9800401Y-2341993D02*
X9326993Y-2815401D01*
X9800401Y-198007D02*
X9800401Y-2341993D01*
X9326993Y275401D02*
X9800401Y-198007D01*
X9164599Y275401D02*
X9326993Y275401D01*
X8890000Y550000D02*
X9164599Y275401D01*
X8890000Y635000D02*
X8890000Y550000D01*
X4445000Y-2171700D02*
X3175000Y-2171700D01*
X3175000Y-2171700D02*
X1905000Y-2171700D01*
D13*
G36*
X-6401322Y5141489D02*
G01*
X-6389613Y5137954D01*
X-6378812Y5132211D01*
X-6369329Y5124477D01*
X-6361534Y5115055D01*
X-6355713Y5104289D01*
X-6352097Y5092608D01*
X-6349600Y5068853D01*
X-6349599Y3162541D01*
X-6348534Y3151732D01*
X-6348548Y3149799D01*
X-6348203Y3146275D01*
X-6341726Y3084650D01*
X-6337098Y3062106D01*
X-6332797Y3039559D01*
X-6331774Y3036169D01*
X-6313451Y2976975D01*
X-6304544Y2955785D01*
X-6295932Y2934470D01*
X-6294270Y2931344D01*
X-6264797Y2876836D01*
X-6251937Y2857771D01*
X-6239359Y2838550D01*
X-6237121Y2835806D01*
X-6197623Y2788061D01*
X-6181310Y2771861D01*
X-6165231Y2755442D01*
X-6162503Y2753184D01*
X-6114484Y2714022D01*
X-6095352Y2701310D01*
X-6076375Y2688317D01*
X-6073263Y2686634D01*
X-6073255Y2686630D01*
X-6018549Y2657542D01*
X-5997276Y2648774D01*
X-5976171Y2639728D01*
X-5972792Y2638682D01*
X-5972786Y2638680D01*
X-5913467Y2620771D01*
X-5890921Y2616307D01*
X-5868439Y2611528D01*
X-5864917Y2611157D01*
X-5803248Y2605110D01*
X-5803245Y2605110D01*
X-5790959Y2603900D01*
X5790959Y2603900D01*
X5801778Y2604965D01*
X5803701Y2604952D01*
X5807225Y2605297D01*
X5868850Y2611774D01*
X5891394Y2616402D01*
X5913941Y2620703D01*
X5917331Y2621726D01*
X5976525Y2640049D01*
X5997715Y2648956D01*
X6019030Y2657568D01*
X6022156Y2659230D01*
X6076664Y2688703D01*
X6095729Y2701563D01*
X6114950Y2714141D01*
X6117694Y2716379D01*
X6117697Y2716381D01*
X6117700Y2716384D01*
X6165439Y2755877D01*
X6181639Y2772190D01*
X6198058Y2788269D01*
X6200316Y2790997D01*
X6239478Y2839016D01*
X6252190Y2858148D01*
X6265183Y2877125D01*
X6266867Y2880240D01*
X6295958Y2934951D01*
X6304726Y2956224D01*
X6313772Y2977329D01*
X6314819Y2980712D01*
X6332729Y3040033D01*
X6337193Y3062579D01*
X6341972Y3085061D01*
X6342343Y3088583D01*
X6348390Y3150252D01*
X6348390Y3150255D01*
X6349600Y3162541D01*
X6349600Y5067592D01*
X6352011Y5092178D01*
X6355546Y5103887D01*
X6361289Y5114688D01*
X6369023Y5124171D01*
X6378445Y5131966D01*
X6389211Y5137787D01*
X6400892Y5141403D01*
X6424652Y5143900D01*
X10147594Y5143900D01*
X10603864Y5099162D01*
X11030813Y4970259D01*
X11424599Y4760880D01*
X11770220Y4478999D01*
X12054501Y4135361D01*
X12266626Y3743045D01*
X12391556Y3339464D01*
X6880794Y3358599D01*
X6834241Y3353973D01*
X6791425Y3340743D01*
X6752014Y3319413D01*
X6717520Y3290805D01*
X6689271Y3256017D01*
X6668351Y3216386D01*
X6655564Y3173435D01*
X6651403Y3128816D01*
X6661403Y1198816D01*
X6666815Y1150540D01*
X6678903Y1113600D01*
X6005196Y1113600D01*
X5981700Y1115914D01*
X5958204Y1113600D01*
X5958196Y1113600D01*
X5887878Y1106674D01*
X5797662Y1079308D01*
X5761538Y1059999D01*
X5714518Y1034866D01*
X5659898Y990041D01*
X5659894Y990037D01*
X5641642Y975058D01*
X5626662Y956805D01*
X4504758Y-165100D01*
X4372451Y-165100D01*
X4230142Y-193407D01*
X4096089Y-248934D01*
X3975445Y-329545D01*
X3872845Y-432145D01*
X3810000Y-526200D01*
X3747155Y-432145D01*
X3644555Y-329545D01*
X3523911Y-248934D01*
X3389858Y-193407D01*
X3247549Y-165100D01*
X3102451Y-165100D01*
X2960142Y-193407D01*
X2826089Y-248934D01*
X2705445Y-329545D01*
X2602845Y-432145D01*
X2540000Y-526200D01*
X2477155Y-432145D01*
X2374555Y-329545D01*
X2253911Y-248934D01*
X2119858Y-193407D01*
X1977549Y-165100D01*
X1832451Y-165100D01*
X1690142Y-193407D01*
X1556089Y-248934D01*
X1435445Y-329545D01*
X1332845Y-432145D01*
X1252234Y-552789D01*
X1196707Y-686842D01*
X1168400Y-829151D01*
X1168400Y-974249D01*
X1196707Y-1116558D01*
X1252234Y-1250611D01*
X1332845Y-1371255D01*
X1435445Y-1473855D01*
X1529500Y-1536700D01*
X1521988Y-1541719D01*
X1029169Y-1549174D01*
X983911Y-1518934D01*
X849858Y-1463407D01*
X707549Y-1435100D01*
X562451Y-1435100D01*
X420142Y-1463407D01*
X286089Y-1518934D01*
X165445Y-1599545D01*
X62845Y-1702145D01*
X0Y-1796200D01*
X-62845Y-1702145D01*
X-165445Y-1599545D01*
X-259500Y-1536700D01*
X-165445Y-1473855D01*
X-62845Y-1371255D01*
X17766Y-1250611D01*
X73293Y-1116558D01*
X101600Y-974249D01*
X101600Y-829151D01*
X73293Y-686842D01*
X17766Y-552789D01*
X-62845Y-432145D01*
X-89074Y-405916D01*
X878716Y561873D01*
X950386Y591560D01*
X1036963Y649409D01*
X1110591Y723037D01*
X1168440Y809614D01*
X1208287Y905813D01*
X1228600Y1007937D01*
X1228600Y1112063D01*
X1208287Y1214187D01*
X1168440Y1310386D01*
X1110591Y1396963D01*
X1036963Y1470591D01*
X950386Y1528440D01*
X854187Y1568287D01*
X752063Y1588600D01*
X647937Y1588600D01*
X545813Y1568287D01*
X449614Y1528440D01*
X363037Y1470591D01*
X289409Y1396963D01*
X231560Y1310386D01*
X201873Y1238716D01*
X-956805Y80037D01*
X-975057Y65058D01*
X-990036Y46806D01*
X-990041Y46801D01*
X-1034866Y-7819D01*
X-1079307Y-90962D01*
X-1106674Y-181179D01*
X-1115914Y-275000D01*
X-1113599Y-298505D01*
X-1113599Y-338589D01*
X-1207155Y-432145D01*
X-1270000Y-526200D01*
X-1332845Y-432145D01*
X-1426400Y-338590D01*
X-1426400Y-206776D01*
X-1424086Y-183280D01*
X-1426400Y-159784D01*
X-1426400Y-159776D01*
X-1433326Y-89458D01*
X-1460692Y758D01*
X-1505134Y83902D01*
X-1519658Y101600D01*
X-1549959Y138522D01*
X-1549963Y138526D01*
X-1564942Y156778D01*
X-1583195Y171758D01*
X-3130241Y1718803D01*
X-3145223Y1737059D01*
X-3218099Y1796867D01*
X-3301243Y1841309D01*
X-3391459Y1868675D01*
X-3461777Y1875601D01*
X-3461785Y1875601D01*
X-3485281Y1877915D01*
X-3508777Y1875601D01*
X-6883400Y1875601D01*
X-6883400Y1977549D01*
X-6911707Y2119858D01*
X-6967234Y2253911D01*
X-7047845Y2374555D01*
X-7150445Y2477155D01*
X-7271089Y2557766D01*
X-7405142Y2613293D01*
X-7547451Y2641600D01*
X-7692549Y2641600D01*
X-7834858Y2613293D01*
X-7968911Y2557766D01*
X-8089555Y2477155D01*
X-8192155Y2374555D01*
X-8255000Y2280500D01*
X-8317845Y2374555D01*
X-8420445Y2477155D01*
X-8541089Y2557766D01*
X-8675142Y2613293D01*
X-8817451Y2641600D01*
X-8962549Y2641600D01*
X-9104858Y2613293D01*
X-9238911Y2557766D01*
X-9359555Y2477155D01*
X-9453110Y2383600D01*
X-9584925Y2383600D01*
X-9608421Y2385914D01*
X-9631917Y2383600D01*
X-9631924Y2383600D01*
X-9702242Y2376674D01*
X-9792458Y2349308D01*
X-9875602Y2304866D01*
X-9948478Y2245058D01*
X-9963462Y2226800D01*
X-10774616Y1415646D01*
X-10792868Y1400667D01*
X-10807847Y1382415D01*
X-10807852Y1382410D01*
X-10852677Y1327790D01*
X-10897118Y1244647D01*
X-10924485Y1154430D01*
X-10933725Y1060609D01*
X-10931410Y1037103D01*
X-10931411Y-2588734D01*
X-10933725Y-2612230D01*
X-10931411Y-2635726D01*
X-10931411Y-2635733D01*
X-10924485Y-2706051D01*
X-10897119Y-2796267D01*
X-10852677Y-2879412D01*
X-10792869Y-2952288D01*
X-10774611Y-2967272D01*
X-9204655Y-4537228D01*
X-9189676Y-4555480D01*
X-9171424Y-4570459D01*
X-9171420Y-4570463D01*
X-9116800Y-4615288D01*
X-9033657Y-4659730D01*
X-8988680Y-4673373D01*
X-8943440Y-4687096D01*
X-8873122Y-4694022D01*
X-8873114Y-4694022D01*
X-8849618Y-4696336D01*
X-8826122Y-4694022D01*
X-2636872Y-4694022D01*
X-2613376Y-4696336D01*
X-2589880Y-4694022D01*
X-2589872Y-4694022D01*
X-2519554Y-4687096D01*
X-2429338Y-4659730D01*
X-2346194Y-4615288D01*
X-2273318Y-4555480D01*
X-2258334Y-4537222D01*
X-821194Y-3100083D01*
X-802941Y-3085103D01*
X-787962Y-3066851D01*
X-787958Y-3066847D01*
X-761609Y-3034740D01*
X-743133Y-3012227D01*
X-698691Y-2929082D01*
X-692387Y-2908300D01*
X-562451Y-2908300D01*
X-420142Y-2879993D01*
X-286089Y-2824466D01*
X-165445Y-2743855D01*
X-62845Y-2641255D01*
X0Y-2547200D01*
X62845Y-2641255D01*
X165445Y-2743855D01*
X286089Y-2824466D01*
X420142Y-2879993D01*
X562451Y-2908300D01*
X707549Y-2908300D01*
X787400Y-2892417D01*
X787400Y-3810000D01*
X791389Y-3852518D01*
X803999Y-3895520D01*
X824757Y-3935236D01*
X852864Y-3970139D01*
X2628403Y-5778900D01*
X-10147594Y-5778900D01*
X-10603863Y-5734162D01*
X-11030813Y-5605259D01*
X-11424602Y-5395877D01*
X-11770222Y-5113997D01*
X-12054501Y-4770361D01*
X-12266626Y-4378046D01*
X-12398509Y-3951998D01*
X-12446385Y-3496493D01*
X-12446400Y-3492185D01*
X-12446400Y2845094D01*
X-12401662Y3301364D01*
X-12272759Y3728313D01*
X-12063380Y4122099D01*
X-11781499Y4467720D01*
X-11437861Y4752001D01*
X-11045545Y4964126D01*
X-10619503Y5096009D01*
X-10163992Y5143885D01*
X-10159685Y5143900D01*
X-6425908Y5143900D01*
X-6401322Y5141489D01*
X-6401322Y5141489D01*
G37*
X-6401322Y5141489D02*
X-6389613Y5137954D01*
X-6378812Y5132211D01*
X-6369329Y5124477D01*
X-6361534Y5115055D01*
X-6355713Y5104289D01*
X-6352097Y5092608D01*
X-6349600Y5068853D01*
X-6349599Y3162541D01*
X-6348534Y3151732D01*
X-6348548Y3149799D01*
X-6348203Y3146275D01*
X-6341726Y3084650D01*
X-6337098Y3062106D01*
X-6332797Y3039559D01*
X-6331774Y3036169D01*
X-6313451Y2976975D01*
X-6304544Y2955785D01*
X-6295932Y2934470D01*
X-6294270Y2931344D01*
X-6264797Y2876836D01*
X-6251937Y2857771D01*
X-6239359Y2838550D01*
X-6237121Y2835806D01*
X-6197623Y2788061D01*
X-6181310Y2771861D01*
X-6165231Y2755442D01*
X-6162503Y2753184D01*
X-6114484Y2714022D01*
X-6095352Y2701310D01*
X-6076375Y2688317D01*
X-6073263Y2686634D01*
X-6073255Y2686630D01*
X-6018549Y2657542D01*
X-5997276Y2648774D01*
X-5976171Y2639728D01*
X-5972792Y2638682D01*
X-5972786Y2638680D01*
X-5913467Y2620771D01*
X-5890921Y2616307D01*
X-5868439Y2611528D01*
X-5864917Y2611157D01*
X-5803248Y2605110D01*
X-5803245Y2605110D01*
X-5790959Y2603900D01*
X5790959Y2603900D01*
X5801778Y2604965D01*
X5803701Y2604952D01*
X5807225Y2605297D01*
X5868850Y2611774D01*
X5891394Y2616402D01*
X5913941Y2620703D01*
X5917331Y2621726D01*
X5976525Y2640049D01*
X5997715Y2648956D01*
X6019030Y2657568D01*
X6022156Y2659230D01*
X6076664Y2688703D01*
X6095729Y2701563D01*
X6114950Y2714141D01*
X6117694Y2716379D01*
X6117697Y2716381D01*
X6117700Y2716384D01*
X6165439Y2755877D01*
X6181639Y2772190D01*
X6198058Y2788269D01*
X6200316Y2790997D01*
X6239478Y2839016D01*
X6252190Y2858148D01*
X6265183Y2877125D01*
X6266867Y2880240D01*
X6295958Y2934951D01*
X6304726Y2956224D01*
X6313772Y2977329D01*
X6314819Y2980712D01*
X6332729Y3040033D01*
X6337193Y3062579D01*
X6341972Y3085061D01*
X6342343Y3088583D01*
X6348390Y3150252D01*
X6348390Y3150255D01*
X6349600Y3162541D01*
X6349600Y5067592D01*
X6352011Y5092178D01*
X6355546Y5103887D01*
X6361289Y5114688D01*
X6369023Y5124171D01*
X6378445Y5131966D01*
X6389211Y5137787D01*
X6400892Y5141403D01*
X6424652Y5143900D01*
X10147594Y5143900D01*
X10603864Y5099162D01*
X11030813Y4970259D01*
X11424599Y4760880D01*
X11770220Y4478999D01*
X12054501Y4135361D01*
X12266626Y3743045D01*
X12391556Y3339464D01*
X6880794Y3358599D01*
X6834241Y3353973D01*
X6791425Y3340743D01*
X6752014Y3319413D01*
X6717520Y3290805D01*
X6689271Y3256017D01*
X6668351Y3216386D01*
X6655564Y3173435D01*
X6651403Y3128816D01*
X6661403Y1198816D01*
X6666815Y1150540D01*
X6678903Y1113600D01*
X6005196Y1113600D01*
X5981700Y1115914D01*
X5958204Y1113600D01*
X5958196Y1113600D01*
X5887878Y1106674D01*
X5797662Y1079308D01*
X5761538Y1059999D01*
X5714518Y1034866D01*
X5659898Y990041D01*
X5659894Y990037D01*
X5641642Y975058D01*
X5626662Y956805D01*
X4504758Y-165100D01*
X4372451Y-165100D01*
X4230142Y-193407D01*
X4096089Y-248934D01*
X3975445Y-329545D01*
X3872845Y-432145D01*
X3810000Y-526200D01*
X3747155Y-432145D01*
X3644555Y-329545D01*
X3523911Y-248934D01*
X3389858Y-193407D01*
X3247549Y-165100D01*
X3102451Y-165100D01*
X2960142Y-193407D01*
X2826089Y-248934D01*
X2705445Y-329545D01*
X2602845Y-432145D01*
X2540000Y-526200D01*
X2477155Y-432145D01*
X2374555Y-329545D01*
X2253911Y-248934D01*
X2119858Y-193407D01*
X1977549Y-165100D01*
X1832451Y-165100D01*
X1690142Y-193407D01*
X1556089Y-248934D01*
X1435445Y-329545D01*
X1332845Y-432145D01*
X1252234Y-552789D01*
X1196707Y-686842D01*
X1168400Y-829151D01*
X1168400Y-974249D01*
X1196707Y-1116558D01*
X1252234Y-1250611D01*
X1332845Y-1371255D01*
X1435445Y-1473855D01*
X1529500Y-1536700D01*
X1521988Y-1541719D01*
X1029169Y-1549174D01*
X983911Y-1518934D01*
X849858Y-1463407D01*
X707549Y-1435100D01*
X562451Y-1435100D01*
X420142Y-1463407D01*
X286089Y-1518934D01*
X165445Y-1599545D01*
X62845Y-1702145D01*
X0Y-1796200D01*
X-62845Y-1702145D01*
X-165445Y-1599545D01*
X-259500Y-1536700D01*
X-165445Y-1473855D01*
X-62845Y-1371255D01*
X17766Y-1250611D01*
X73293Y-1116558D01*
X101600Y-974249D01*
X101600Y-829151D01*
X73293Y-686842D01*
X17766Y-552789D01*
X-62845Y-432145D01*
X-89074Y-405916D01*
X878716Y561873D01*
X950386Y591560D01*
X1036963Y649409D01*
X1110591Y723037D01*
X1168440Y809614D01*
X1208287Y905813D01*
X1228600Y1007937D01*
X1228600Y1112063D01*
X1208287Y1214187D01*
X1168440Y1310386D01*
X1110591Y1396963D01*
X1036963Y1470591D01*
X950386Y1528440D01*
X854187Y1568287D01*
X752063Y1588600D01*
X647937Y1588600D01*
X545813Y1568287D01*
X449614Y1528440D01*
X363037Y1470591D01*
X289409Y1396963D01*
X231560Y1310386D01*
X201873Y1238716D01*
X-956805Y80037D01*
X-975057Y65058D01*
X-990036Y46806D01*
X-990041Y46801D01*
X-1034866Y-7819D01*
X-1079307Y-90962D01*
X-1106674Y-181179D01*
X-1115914Y-275000D01*
X-1113599Y-298505D01*
X-1113599Y-338589D01*
X-1207155Y-432145D01*
X-1270000Y-526200D01*
X-1332845Y-432145D01*
X-1426400Y-338590D01*
X-1426400Y-206776D01*
X-1424086Y-183280D01*
X-1426400Y-159784D01*
X-1426400Y-159776D01*
X-1433326Y-89458D01*
X-1460692Y758D01*
X-1505134Y83902D01*
X-1519658Y101600D01*
X-1549959Y138522D01*
X-1549963Y138526D01*
X-1564942Y156778D01*
X-1583195Y171758D01*
X-3130241Y1718803D01*
X-3145223Y1737059D01*
X-3218099Y1796867D01*
X-3301243Y1841309D01*
X-3391459Y1868675D01*
X-3461777Y1875601D01*
X-3461785Y1875601D01*
X-3485281Y1877915D01*
X-3508777Y1875601D01*
X-6883400Y1875601D01*
X-6883400Y1977549D01*
X-6911707Y2119858D01*
X-6967234Y2253911D01*
X-7047845Y2374555D01*
X-7150445Y2477155D01*
X-7271089Y2557766D01*
X-7405142Y2613293D01*
X-7547451Y2641600D01*
X-7692549Y2641600D01*
X-7834858Y2613293D01*
X-7968911Y2557766D01*
X-8089555Y2477155D01*
X-8192155Y2374555D01*
X-8255000Y2280500D01*
X-8317845Y2374555D01*
X-8420445Y2477155D01*
X-8541089Y2557766D01*
X-8675142Y2613293D01*
X-8817451Y2641600D01*
X-8962549Y2641600D01*
X-9104858Y2613293D01*
X-9238911Y2557766D01*
X-9359555Y2477155D01*
X-9453110Y2383600D01*
X-9584925Y2383600D01*
X-9608421Y2385914D01*
X-9631917Y2383600D01*
X-9631924Y2383600D01*
X-9702242Y2376674D01*
X-9792458Y2349308D01*
X-9875602Y2304866D01*
X-9948478Y2245058D01*
X-9963462Y2226800D01*
X-10774616Y1415646D01*
X-10792868Y1400667D01*
X-10807847Y1382415D01*
X-10807852Y1382410D01*
X-10852677Y1327790D01*
X-10897118Y1244647D01*
X-10924485Y1154430D01*
X-10933725Y1060609D01*
X-10931410Y1037103D01*
X-10931411Y-2588734D01*
X-10933725Y-2612230D01*
X-10931411Y-2635726D01*
X-10931411Y-2635733D01*
X-10924485Y-2706051D01*
X-10897119Y-2796267D01*
X-10852677Y-2879412D01*
X-10792869Y-2952288D01*
X-10774611Y-2967272D01*
X-9204655Y-4537228D01*
X-9189676Y-4555480D01*
X-9171424Y-4570459D01*
X-9171420Y-4570463D01*
X-9116800Y-4615288D01*
X-9033657Y-4659730D01*
X-8988680Y-4673373D01*
X-8943440Y-4687096D01*
X-8873122Y-4694022D01*
X-8873114Y-4694022D01*
X-8849618Y-4696336D01*
X-8826122Y-4694022D01*
X-2636872Y-4694022D01*
X-2613376Y-4696336D01*
X-2589880Y-4694022D01*
X-2589872Y-4694022D01*
X-2519554Y-4687096D01*
X-2429338Y-4659730D01*
X-2346194Y-4615288D01*
X-2273318Y-4555480D01*
X-2258334Y-4537222D01*
X-821194Y-3100083D01*
X-802941Y-3085103D01*
X-787962Y-3066851D01*
X-787958Y-3066847D01*
X-761609Y-3034740D01*
X-743133Y-3012227D01*
X-698691Y-2929082D01*
X-692387Y-2908300D01*
X-562451Y-2908300D01*
X-420142Y-2879993D01*
X-286089Y-2824466D01*
X-165445Y-2743855D01*
X-62845Y-2641255D01*
X0Y-2547200D01*
X62845Y-2641255D01*
X165445Y-2743855D01*
X286089Y-2824466D01*
X420142Y-2879993D01*
X562451Y-2908300D01*
X707549Y-2908300D01*
X787400Y-2892417D01*
X787400Y-3810000D01*
X791389Y-3852518D01*
X803999Y-3895520D01*
X824757Y-3935236D01*
X852864Y-3970139D01*
X2628403Y-5778900D01*
X-10147594Y-5778900D01*
X-10603863Y-5734162D01*
X-11030813Y-5605259D01*
X-11424602Y-5395877D01*
X-11770222Y-5113997D01*
X-12054501Y-4770361D01*
X-12266626Y-4378046D01*
X-12398509Y-3951998D01*
X-12446385Y-3496493D01*
X-12446400Y-3492185D01*
X-12446400Y2845094D01*
X-12401662Y3301364D01*
X-12272759Y3728313D01*
X-12063380Y4122099D01*
X-11781499Y4467720D01*
X-11437861Y4752001D01*
X-11045545Y4964126D01*
X-10619503Y5096009D01*
X-10163992Y5143885D01*
X-10159685Y5143900D01*
X-6425908Y5143900D01*
X-6401322Y5141489D01*
G36*
X8272961Y-111433D02*
G01*
X8291287Y-134252D01*
X8324622Y-164203D01*
X8363159Y-187074D01*
X8405418Y-201988D01*
X8449774Y-208371D01*
X9038074Y-234713D01*
X9321801Y-489587D01*
X9321802Y-1307619D01*
X9238911Y-1252234D01*
X9104858Y-1196707D01*
X8962549Y-1168400D01*
X8817451Y-1168400D01*
X8675142Y-1196707D01*
X8541089Y-1252234D01*
X8420445Y-1332845D01*
X8317845Y-1435445D01*
X8255000Y-1529500D01*
X8192155Y-1435445D01*
X8089555Y-1332845D01*
X7995500Y-1270000D01*
X8089555Y-1207155D01*
X8192155Y-1104555D01*
X8272766Y-983911D01*
X8328293Y-849858D01*
X8356600Y-707549D01*
X8356600Y-562451D01*
X8328293Y-420142D01*
X8272766Y-286089D01*
X8192155Y-165445D01*
X8089555Y-62845D01*
X7995500Y0D01*
X8089555Y62845D01*
X8125345Y98635D01*
X8272961Y-111433D01*
X8272961Y-111433D01*
G37*
X8272961Y-111433D02*
X8291287Y-134252D01*
X8324622Y-164203D01*
X8363159Y-187074D01*
X8405418Y-201988D01*
X8449774Y-208371D01*
X9038074Y-234713D01*
X9321801Y-489587D01*
X9321802Y-1307619D01*
X9238911Y-1252234D01*
X9104858Y-1196707D01*
X8962549Y-1168400D01*
X8817451Y-1168400D01*
X8675142Y-1196707D01*
X8541089Y-1252234D01*
X8420445Y-1332845D01*
X8317845Y-1435445D01*
X8255000Y-1529500D01*
X8192155Y-1435445D01*
X8089555Y-1332845D01*
X7995500Y-1270000D01*
X8089555Y-1207155D01*
X8192155Y-1104555D01*
X8272766Y-983911D01*
X8328293Y-849858D01*
X8356600Y-707549D01*
X8356600Y-562451D01*
X8328293Y-420142D01*
X8272766Y-286089D01*
X8192155Y-165445D01*
X8089555Y-62845D01*
X7995500Y0D01*
X8089555Y62845D01*
X8125345Y98635D01*
X8272961Y-111433D01*
D14*
G36*
X-3877000Y-302606D02*
G01*
X-3877000Y-538902D01*
X-3932141Y-672024D01*
X-3962400Y-824148D01*
X-3962400Y-979252D01*
X-3932141Y-1131376D01*
X-3875127Y-1269020D01*
X-3874560Y-1274776D01*
X-3867333Y-1298601D01*
X-3855597Y-1320557D01*
X-3839803Y-1339803D01*
X-3808052Y-1371554D01*
X-3786614Y-1403638D01*
X-3676938Y-1513314D01*
X-3644854Y-1534752D01*
X-3589803Y-1589803D01*
X-3570557Y-1605597D01*
X-3548601Y-1617333D01*
X-3524776Y-1624560D01*
X-3500000Y-1627000D01*
X-3481547Y-1627000D01*
X-3404676Y-1658841D01*
X-3252552Y-1689100D01*
X-3097448Y-1689100D01*
X-3008249Y-1671357D01*
X-2674657Y-2004949D01*
X-2692400Y-2094148D01*
X-2692400Y-2249252D01*
X-2662141Y-2401376D01*
X-2627000Y-2486214D01*
X-2627000Y-2947394D01*
X-3365628Y-3686022D01*
X-5457542Y-3686022D01*
X-5455887Y-3682026D01*
X-5433621Y-3570087D01*
X-5433621Y-3455955D01*
X-5455887Y-3344016D01*
X-5499564Y-3238572D01*
X-5562972Y-3143675D01*
X-5643675Y-3062972D01*
X-5738572Y-2999564D01*
X-5844016Y-2955887D01*
X-5955955Y-2933621D01*
X-6070087Y-2933621D01*
X-6182026Y-2955887D01*
X-6248981Y-2983621D01*
X-8410088Y-2983621D01*
X-9271001Y-2122709D01*
X-9271001Y-1377000D01*
X-9156230Y-1377000D01*
X-9119676Y-1392141D01*
X-8967552Y-1422400D01*
X-8812448Y-1422400D01*
X-8660324Y-1392141D01*
X-8517026Y-1332785D01*
X-8388062Y-1246614D01*
X-8278386Y-1136938D01*
X-8192215Y-1007974D01*
X-8132859Y-864676D01*
X-8102600Y-712552D01*
X-8102600Y-557448D01*
X-8123000Y-454889D01*
X-8123000Y-302606D01*
X-7947394Y-127000D01*
X-7825248Y-127000D01*
X-7697552Y-152400D01*
X-7542448Y-152400D01*
X-7414752Y-127000D01*
X-7250000Y-127000D01*
X-7225224Y-124560D01*
X-7201399Y-117333D01*
X-7179443Y-105597D01*
X-7160197Y-89803D01*
X-6964794Y105600D01*
X-6924995Y105600D01*
X-6869346Y49951D01*
X-6774449Y-13457D01*
X-6669005Y-57134D01*
X-6557066Y-79400D01*
X-6442934Y-79400D01*
X-6330995Y-57134D01*
X-6225551Y-13457D01*
X-6130654Y49951D01*
X-6057605Y123000D01*
X-4302606Y123000D01*
X-3877000Y-302606D01*
X-3877000Y-302606D01*
G37*
X-3877000Y-302606D02*
X-3877000Y-538902D01*
X-3932141Y-672024D01*
X-3962400Y-824148D01*
X-3962400Y-979252D01*
X-3932141Y-1131376D01*
X-3875127Y-1269020D01*
X-3874560Y-1274776D01*
X-3867333Y-1298601D01*
X-3855597Y-1320557D01*
X-3839803Y-1339803D01*
X-3808052Y-1371554D01*
X-3786614Y-1403638D01*
X-3676938Y-1513314D01*
X-3644854Y-1534752D01*
X-3589803Y-1589803D01*
X-3570557Y-1605597D01*
X-3548601Y-1617333D01*
X-3524776Y-1624560D01*
X-3500000Y-1627000D01*
X-3481547Y-1627000D01*
X-3404676Y-1658841D01*
X-3252552Y-1689100D01*
X-3097448Y-1689100D01*
X-3008249Y-1671357D01*
X-2674657Y-2004949D01*
X-2692400Y-2094148D01*
X-2692400Y-2249252D01*
X-2662141Y-2401376D01*
X-2627000Y-2486214D01*
X-2627000Y-2947394D01*
X-3365628Y-3686022D01*
X-5457542Y-3686022D01*
X-5455887Y-3682026D01*
X-5433621Y-3570087D01*
X-5433621Y-3455955D01*
X-5455887Y-3344016D01*
X-5499564Y-3238572D01*
X-5562972Y-3143675D01*
X-5643675Y-3062972D01*
X-5738572Y-2999564D01*
X-5844016Y-2955887D01*
X-5955955Y-2933621D01*
X-6070087Y-2933621D01*
X-6182026Y-2955887D01*
X-6248981Y-2983621D01*
X-8410088Y-2983621D01*
X-9271001Y-2122709D01*
X-9271001Y-1377000D01*
X-9156230Y-1377000D01*
X-9119676Y-1392141D01*
X-8967552Y-1422400D01*
X-8812448Y-1422400D01*
X-8660324Y-1392141D01*
X-8517026Y-1332785D01*
X-8388062Y-1246614D01*
X-8278386Y-1136938D01*
X-8192215Y-1007974D01*
X-8132859Y-864676D01*
X-8102600Y-712552D01*
X-8102600Y-557448D01*
X-8123000Y-454889D01*
X-8123000Y-302606D01*
X-7947394Y-127000D01*
X-7825248Y-127000D01*
X-7697552Y-152400D01*
X-7542448Y-152400D01*
X-7414752Y-127000D01*
X-7250000Y-127000D01*
X-7225224Y-124560D01*
X-7201399Y-117333D01*
X-7179443Y-105597D01*
X-7160197Y-89803D01*
X-6964794Y105600D01*
X-6924995Y105600D01*
X-6869346Y49951D01*
X-6774449Y-13457D01*
X-6669005Y-57134D01*
X-6557066Y-79400D01*
X-6442934Y-79400D01*
X-6330995Y-57134D01*
X-6225551Y-13457D01*
X-6130654Y49951D01*
X-6057605Y123000D01*
X-4302606Y123000D01*
X-3877000Y-302606D01*
D13*
G36*
X12428198Y3034535D02*
G01*
X12446385Y2861492D01*
X12446401Y2856900D01*
X12446400Y-3480093D01*
X12401662Y-3936363D01*
X12272759Y-4363313D01*
X12245765Y-4414081D01*
X11290534Y-5466661D01*
X11045546Y-5599126D01*
X10678431Y-5712766D01*
X2972055Y-5693878D01*
X1092200Y-3778849D01*
X1092200Y-2752110D01*
X1104555Y-2743855D01*
X1207155Y-2641255D01*
X1287766Y-2520611D01*
X1343293Y-2386558D01*
X1371600Y-2244249D01*
X1371600Y-2099151D01*
X1343293Y-1956842D01*
X1299007Y-1849927D01*
X5087727Y-1792613D01*
X5219648Y-1873804D01*
X5221713Y-1884187D01*
X5261560Y-1980386D01*
X5319409Y-2066963D01*
X5393037Y-2140591D01*
X5479614Y-2198440D01*
X5575813Y-2238287D01*
X5677937Y-2258600D01*
X5782063Y-2258600D01*
X5829534Y-2249158D01*
X6391296Y-2594894D01*
X6404723Y-2601439D01*
X6419170Y-2605239D01*
X6430403Y-2606195D01*
X7423974Y-2617039D01*
X7547451Y-2641600D01*
X7692549Y-2641600D01*
X7795634Y-2621095D01*
X8767702Y-2631704D01*
X8817451Y-2641600D01*
X8962549Y-2641600D01*
X8999576Y-2634235D01*
X9179168Y-2636195D01*
X9194049Y-2634894D01*
X9208390Y-2630714D01*
X9221640Y-2623816D01*
X9232815Y-2614927D01*
X9752815Y-2114927D01*
X9762516Y-2103568D01*
X9769814Y-2090535D01*
X9774430Y-2076328D01*
X9776193Y-2061003D01*
X9796193Y-541003D01*
X9794925Y-526119D01*
X9790777Y-511768D01*
X9783909Y-498503D01*
X9770922Y-483313D01*
X9529847Y-266754D01*
X9462155Y-165445D01*
X9359555Y-62845D01*
X9238911Y17766D01*
X9191046Y37592D01*
X9180922Y46687D01*
X9168885Y55532D01*
X9155353Y61859D01*
X9133409Y66124D01*
X9120803Y66688D01*
X9104858Y73293D01*
X8962549Y101600D01*
X8817451Y101600D01*
X8729927Y84190D01*
X8500817Y94449D01*
X8307398Y369698D01*
X8328293Y420142D01*
X8356600Y562451D01*
X8356600Y707549D01*
X8328293Y849858D01*
X8272766Y983911D01*
X8192155Y1104555D01*
X8089555Y1207155D01*
X7968911Y1287766D01*
X7834858Y1343293D01*
X7692549Y1371600D01*
X7547451Y1371600D01*
X7405142Y1343293D01*
X7271089Y1287766D01*
X7266041Y1284393D01*
X6965798Y1277866D01*
X6956597Y3053533D01*
X12428198Y3034535D01*
X12428198Y3034535D01*
G37*
X12428198Y3034535D02*
X12446385Y2861492D01*
X12446401Y2856900D01*
X12446400Y-3480093D01*
X12401662Y-3936363D01*
X12272759Y-4363313D01*
X12245765Y-4414081D01*
X11290534Y-5466661D01*
X11045546Y-5599126D01*
X10678431Y-5712766D01*
X2972055Y-5693878D01*
X1092200Y-3778849D01*
X1092200Y-2752110D01*
X1104555Y-2743855D01*
X1207155Y-2641255D01*
X1287766Y-2520611D01*
X1343293Y-2386558D01*
X1371600Y-2244249D01*
X1371600Y-2099151D01*
X1343293Y-1956842D01*
X1299007Y-1849927D01*
X5087727Y-1792613D01*
X5219648Y-1873804D01*
X5221713Y-1884187D01*
X5261560Y-1980386D01*
X5319409Y-2066963D01*
X5393037Y-2140591D01*
X5479614Y-2198440D01*
X5575813Y-2238287D01*
X5677937Y-2258600D01*
X5782063Y-2258600D01*
X5829534Y-2249158D01*
X6391296Y-2594894D01*
X6404723Y-2601439D01*
X6419170Y-2605239D01*
X6430403Y-2606195D01*
X7423974Y-2617039D01*
X7547451Y-2641600D01*
X7692549Y-2641600D01*
X7795634Y-2621095D01*
X8767702Y-2631704D01*
X8817451Y-2641600D01*
X8962549Y-2641600D01*
X8999576Y-2634235D01*
X9179168Y-2636195D01*
X9194049Y-2634894D01*
X9208390Y-2630714D01*
X9221640Y-2623816D01*
X9232815Y-2614927D01*
X9752815Y-2114927D01*
X9762516Y-2103568D01*
X9769814Y-2090535D01*
X9774430Y-2076328D01*
X9776193Y-2061003D01*
X9796193Y-541003D01*
X9794925Y-526119D01*
X9790777Y-511768D01*
X9783909Y-498503D01*
X9770922Y-483313D01*
X9529847Y-266754D01*
X9462155Y-165445D01*
X9359555Y-62845D01*
X9238911Y17766D01*
X9191046Y37592D01*
X9180922Y46687D01*
X9168885Y55532D01*
X9155353Y61859D01*
X9133409Y66124D01*
X9120803Y66688D01*
X9104858Y73293D01*
X8962549Y101600D01*
X8817451Y101600D01*
X8729927Y84190D01*
X8500817Y94449D01*
X8307398Y369698D01*
X8328293Y420142D01*
X8356600Y562451D01*
X8356600Y707549D01*
X8328293Y849858D01*
X8272766Y983911D01*
X8192155Y1104555D01*
X8089555Y1207155D01*
X7968911Y1287766D01*
X7834858Y1343293D01*
X7692549Y1371600D01*
X7547451Y1371600D01*
X7405142Y1343293D01*
X7271089Y1287766D01*
X7266041Y1284393D01*
X6965798Y1277866D01*
X6956597Y3053533D01*
X12428198Y3034535D01*
M02*
