M48
; DRILL file {KiCad (5.1.4)-1} date 6/9/2020 10:24:11 PM
; FORMAT={2:4/ absolute / inch / suppress leading zeros}
; #@! TF.CreationDate,2020-06-09T22:24:11-07:00
; #@! TF.GenerationSoftware,Kicad,Pcbnew,(5.1.4)-1
FMAT,2
INCH,TZ
T1C0.0118
T2C0.0240
T3C0.0280
%
G90
G05
T1
X-4646Y16
X-4524Y-1350
X-4500Y1450
X-3693Y-1953
X-2744Y1618
X-2559Y197
X-2367Y-1383
X-701Y-2043
X-500Y300
X276Y417
X500Y-2100
X2256Y-681
X2500Y600
X3020Y1535
X4400Y1535
T2
X-3500Y750
X-3500Y250
X-3500Y-250
X-3500Y-750
X-3000Y750
X-3000Y250
X-3000Y-250
X-3000Y-750
X3000Y750
X3000Y250
X3000Y-250
X3000Y-750
X3500Y750
X3500Y250
X3500Y-250
X3500Y-750
T3
X-1750Y-355
X-1750Y-855
X-1250Y-355
X-1250Y-855
X-750Y-355
X-750Y-855
X-250Y-355
X-250Y-855
X250Y-355
X250Y-855
X750Y-355
X750Y-855
X1250Y-355
X1250Y-855
X1750Y-355
X1750Y-855
T0
M30
