G04 #@! TF.GenerationSoftware,KiCad,Pcbnew,(5.1.4)-1*
G04 #@! TF.CreationDate,2020-06-09T22:24:04-07:00*
G04 #@! TF.ProjectId,SkateLightConnBoard,536b6174-654c-4696-9768-74436f6e6e42,rev?*
G04 #@! TF.SameCoordinates,Original*
G04 #@! TF.FileFunction,Legend,Top*
G04 #@! TF.FilePolarity,Positive*
%FSLAX46Y46*%
G04 Gerber Fmt 4.6, Leading zero omitted, Abs format (unit mm)*
G04 Created by KiCad (PCBNEW (5.1.4)-1) date 2020-06-09 22:24:04*
%MOMM*%
%LPD*%
G04 APERTURE LIST*
%ADD10C,0.203200*%
%ADD11C,0.120000*%
G04 APERTURE END LIST*
D10*
X-4209142Y1977571D02*
X-4064000Y1929190D01*
X-4015619Y1880809D01*
X-3967238Y1784047D01*
X-3967238Y1638904D01*
X-4015619Y1542142D01*
X-4064000Y1493761D01*
X-4160761Y1445380D01*
X-4547809Y1445380D01*
X-4547809Y2461380D01*
X-4209142Y2461380D01*
X-4112380Y2413000D01*
X-4064000Y2364619D01*
X-4015619Y2267857D01*
X-4015619Y2171095D01*
X-4064000Y2074333D01*
X-4112380Y2025952D01*
X-4209142Y1977571D01*
X-4547809Y1977571D01*
X-3048000Y1445380D02*
X-3531809Y1445380D01*
X-3531809Y2461380D01*
X-1354666Y1542142D02*
X-1403047Y1493761D01*
X-1548190Y1445380D01*
X-1644952Y1445380D01*
X-1790095Y1493761D01*
X-1886857Y1590523D01*
X-1935238Y1687285D01*
X-1983619Y1880809D01*
X-1983619Y2025952D01*
X-1935238Y2219476D01*
X-1886857Y2316238D01*
X-1790095Y2413000D01*
X-1644952Y2461380D01*
X-1548190Y2461380D01*
X-1403047Y2413000D01*
X-1354666Y2364619D01*
X-774095Y1445380D02*
X-870857Y1493761D01*
X-919238Y1542142D01*
X-967619Y1638904D01*
X-967619Y1929190D01*
X-919238Y2025952D01*
X-870857Y2074333D01*
X-774095Y2122714D01*
X-628952Y2122714D01*
X-532190Y2074333D01*
X-483809Y2025952D01*
X-435428Y1929190D01*
X-435428Y1638904D01*
X-483809Y1542142D01*
X-532190Y1493761D01*
X-628952Y1445380D01*
X-774095Y1445380D01*
X0Y2122714D02*
X0Y1445380D01*
X0Y2025952D02*
X48380Y2074333D01*
X145142Y2122714D01*
X290285Y2122714D01*
X387047Y2074333D01*
X435428Y1977571D01*
X435428Y1445380D01*
X919238Y2122714D02*
X919238Y1445380D01*
X919238Y2025952D02*
X967619Y2074333D01*
X1064380Y2122714D01*
X1209523Y2122714D01*
X1306285Y2074333D01*
X1354666Y1977571D01*
X1354666Y1445380D01*
X3144761Y1445380D02*
X2564190Y1445380D01*
X2854476Y1445380D02*
X2854476Y2461380D01*
X2757714Y2316238D01*
X2660952Y2219476D01*
X2564190Y2171095D01*
X3580190Y1542142D02*
X3628571Y1493761D01*
X3580190Y1445380D01*
X3531809Y1493761D01*
X3580190Y1542142D01*
X3580190Y1445380D01*
X3967238Y2461380D02*
X4596190Y2461380D01*
X4257523Y2074333D01*
X4402666Y2074333D01*
X4499428Y2025952D01*
X4547809Y1977571D01*
X4596190Y1880809D01*
X4596190Y1638904D01*
X4547809Y1542142D01*
X4499428Y1493761D01*
X4402666Y1445380D01*
X4112380Y1445380D01*
X4015619Y1493761D01*
X3967238Y1542142D01*
D11*
X-10033000Y-2540000D02*
X-10033000Y2540000D01*
X-6477000Y-2540000D02*
X-10033000Y-2540000D01*
X-6477000Y2540000D02*
X-6477000Y-2540000D01*
X-10033000Y2540000D02*
X-6477000Y2540000D01*
X6477000Y2540000D02*
X10033000Y2540000D01*
X10033000Y2540000D02*
X10033000Y-2540000D01*
X10033000Y-2540000D02*
X6477000Y-2540000D01*
X6477000Y-2540000D02*
X6477000Y2540000D01*
M02*
