G04 #@! TF.GenerationSoftware,KiCad,Pcbnew,(5.1.4)-1*
G04 #@! TF.CreationDate,2020-06-09T22:28:14-07:00*
G04 #@! TF.ProjectId,SkateLightMainBoard,536b6174-654c-4696-9768-744d61696e42,rev?*
G04 #@! TF.SameCoordinates,Original*
G04 #@! TF.FileFunction,Legend,Bot*
G04 #@! TF.FilePolarity,Positive*
%FSLAX46Y46*%
G04 Gerber Fmt 4.6, Leading zero omitted, Abs format (unit mm)*
G04 Created by KiCad (PCBNEW (5.1.4)-1) date 2020-06-09 22:28:14*
%MOMM*%
%LPD*%
G04 APERTURE LIST*
%ADD10C,0.150000*%
%ADD11C,0.203200*%
%ADD12C,0.152400*%
%ADD13C,0.120000*%
G04 APERTURE END LIST*
D10*
X1458123Y24617419D02*
X1458123Y25617419D01*
X1458123Y25141228D02*
X886695Y25141228D01*
X886695Y24617419D02*
X886695Y25617419D01*
X-18066Y24617419D02*
X-18066Y25141228D01*
X29552Y25236466D01*
X124790Y25284085D01*
X315266Y25284085D01*
X410504Y25236466D01*
X-18066Y24665038D02*
X77171Y24617419D01*
X315266Y24617419D01*
X410504Y24665038D01*
X458123Y24760276D01*
X458123Y24855514D01*
X410504Y24950752D01*
X315266Y24998371D01*
X77171Y24998371D01*
X-18066Y25045990D01*
X-494257Y25284085D02*
X-494257Y24284085D01*
X-494257Y25236466D02*
X-589495Y25284085D01*
X-779971Y25284085D01*
X-875209Y25236466D01*
X-922828Y25188847D01*
X-970447Y25093609D01*
X-970447Y24807895D01*
X-922828Y24712657D01*
X-875209Y24665038D01*
X-779971Y24617419D01*
X-589495Y24617419D01*
X-494257Y24665038D01*
X-1399019Y25284085D02*
X-1399019Y24284085D01*
X-1399019Y25236466D02*
X-1494257Y25284085D01*
X-1684733Y25284085D01*
X-1779971Y25236466D01*
X-1827590Y25188847D01*
X-1875209Y25093609D01*
X-1875209Y24807895D01*
X-1827590Y24712657D01*
X-1779971Y24665038D01*
X-1684733Y24617419D01*
X-1494257Y24617419D01*
X-1399019Y24665038D01*
X-2208542Y25284085D02*
X-2446638Y24617419D01*
X-2684733Y25284085D02*
X-2446638Y24617419D01*
X-2351400Y24379323D01*
X-2303780Y24331704D01*
X-2208542Y24284085D01*
X-3827590Y24617419D02*
X-3827590Y25617419D01*
X-3827590Y25141228D02*
X-4399019Y25141228D01*
X-4399019Y24617419D02*
X-4399019Y25617419D01*
X-5303780Y24617419D02*
X-5303780Y25141228D01*
X-5256161Y25236466D01*
X-5160923Y25284085D01*
X-4970447Y25284085D01*
X-4875209Y25236466D01*
X-5303780Y24665038D02*
X-5208542Y24617419D01*
X-4970447Y24617419D01*
X-4875209Y24665038D01*
X-4827590Y24760276D01*
X-4827590Y24855514D01*
X-4875209Y24950752D01*
X-4970447Y24998371D01*
X-5208542Y24998371D01*
X-5303780Y25045990D01*
X-6208542Y24665038D02*
X-6113304Y24617419D01*
X-5922828Y24617419D01*
X-5827590Y24665038D01*
X-5779971Y24712657D01*
X-5732352Y24807895D01*
X-5732352Y25093609D01*
X-5779971Y25188847D01*
X-5827590Y25236466D01*
X-5922828Y25284085D01*
X-6113304Y25284085D01*
X-6208542Y25236466D01*
X-6637114Y24617419D02*
X-6637114Y25617419D01*
X-6732352Y24998371D02*
X-7018066Y24617419D01*
X-7018066Y25284085D02*
X-6637114Y24903133D01*
X-7446638Y24617419D02*
X-7446638Y25284085D01*
X-7446638Y25617419D02*
X-7399019Y25569800D01*
X-7446638Y25522180D01*
X-7494257Y25569800D01*
X-7446638Y25617419D01*
X-7446638Y25522180D01*
X-7922828Y25284085D02*
X-7922828Y24617419D01*
X-7922828Y25188847D02*
X-7970447Y25236466D01*
X-8065685Y25284085D01*
X-8208542Y25284085D01*
X-8303780Y25236466D01*
X-8351400Y25141228D01*
X-8351400Y24617419D01*
X-9256161Y25284085D02*
X-9256161Y24474561D01*
X-9208542Y24379323D01*
X-9160923Y24331704D01*
X-9065685Y24284085D01*
X-8922828Y24284085D01*
X-8827590Y24331704D01*
X-9256161Y24665038D02*
X-9160923Y24617419D01*
X-8970447Y24617419D01*
X-8875209Y24665038D01*
X-8827590Y24712657D01*
X-8779971Y24807895D01*
X-8779971Y25093609D01*
X-8827590Y25188847D01*
X-8875209Y25236466D01*
X-8970447Y25284085D01*
X-9160923Y25284085D01*
X-9256161Y25236466D01*
X-10541876Y24665038D02*
X-10541876Y24617419D01*
X-10494257Y24522180D01*
X-10446638Y24474561D01*
X-10494257Y25236466D02*
X-10541876Y25188847D01*
X-10494257Y25141228D01*
X-10446638Y25188847D01*
X-10494257Y25236466D01*
X-10494257Y25141228D01*
X-10875209Y24236466D02*
X-10922828Y24284085D01*
X-11018066Y24426942D01*
X-11065685Y24522180D01*
X-11113304Y24665038D01*
X-11160923Y24903133D01*
X-11160923Y25093609D01*
X-11113304Y25331704D01*
X-11065685Y25474561D01*
X-11018066Y25569800D01*
X-10922828Y25712657D01*
X-10875209Y25760276D01*
D11*
X11046019Y10119333D02*
X10030019Y10119333D01*
X10030019Y9877428D01*
X10078400Y9732285D01*
X10175161Y9635523D01*
X10271923Y9587142D01*
X10465447Y9538761D01*
X10610590Y9538761D01*
X10804114Y9587142D01*
X10900876Y9635523D01*
X10997638Y9732285D01*
X11046019Y9877428D01*
X11046019Y10119333D01*
X11046019Y8667904D02*
X10513828Y8667904D01*
X10417066Y8716285D01*
X10368685Y8813047D01*
X10368685Y9006571D01*
X10417066Y9103333D01*
X10997638Y8667904D02*
X11046019Y8764666D01*
X11046019Y9006571D01*
X10997638Y9103333D01*
X10900876Y9151714D01*
X10804114Y9151714D01*
X10707352Y9103333D01*
X10658971Y9006571D01*
X10658971Y8764666D01*
X10610590Y8667904D01*
X10368685Y8184095D02*
X11046019Y8184095D01*
X10465447Y8184095D02*
X10417066Y8135714D01*
X10368685Y8038952D01*
X10368685Y7893809D01*
X10417066Y7797047D01*
X10513828Y7748666D01*
X11046019Y7748666D01*
X11046019Y7264857D02*
X10368685Y7264857D01*
X10030019Y7264857D02*
X10078400Y7313238D01*
X10126780Y7264857D01*
X10078400Y7216476D01*
X10030019Y7264857D01*
X10126780Y7264857D01*
X11046019Y6781047D02*
X10368685Y6781047D01*
X10030019Y6781047D02*
X10078400Y6829428D01*
X10126780Y6781047D01*
X10078400Y6732666D01*
X10030019Y6781047D01*
X10126780Y6781047D01*
X11046019Y6152095D02*
X10997638Y6248857D01*
X10900876Y6297238D01*
X10030019Y6297238D01*
X10755733Y5039333D02*
X10755733Y4555523D01*
X11046019Y5136095D02*
X10030019Y4797428D01*
X11046019Y4458761D01*
X10368685Y4120095D02*
X11046019Y4120095D01*
X10465447Y4120095D02*
X10417066Y4071714D01*
X10368685Y3974952D01*
X10368685Y3829809D01*
X10417066Y3733047D01*
X10513828Y3684666D01*
X11046019Y3684666D01*
X11046019Y2765428D02*
X10030019Y2765428D01*
X10997638Y2765428D02*
X11046019Y2862190D01*
X11046019Y3055714D01*
X10997638Y3152476D01*
X10949257Y3200857D01*
X10852495Y3249238D01*
X10562209Y3249238D01*
X10465447Y3200857D01*
X10417066Y3152476D01*
X10368685Y3055714D01*
X10368685Y2862190D01*
X10417066Y2765428D01*
X11046019Y2281619D02*
X10368685Y2281619D01*
X10562209Y2281619D02*
X10465447Y2233238D01*
X10417066Y2184857D01*
X10368685Y2088095D01*
X10368685Y1991333D01*
X10997638Y1265619D02*
X11046019Y1362380D01*
X11046019Y1555904D01*
X10997638Y1652666D01*
X10900876Y1701047D01*
X10513828Y1701047D01*
X10417066Y1652666D01*
X10368685Y1555904D01*
X10368685Y1362380D01*
X10417066Y1265619D01*
X10513828Y1217238D01*
X10610590Y1217238D01*
X10707352Y1701047D01*
X10997638Y394761D02*
X11046019Y491523D01*
X11046019Y685047D01*
X10997638Y781809D01*
X10900876Y830190D01*
X10513828Y830190D01*
X10417066Y781809D01*
X10368685Y685047D01*
X10368685Y491523D01*
X10417066Y394761D01*
X10513828Y346380D01*
X10610590Y346380D01*
X10707352Y830190D01*
X10368685Y7714D02*
X11046019Y-234190D01*
X10368685Y-476095D01*
X11757219Y8159904D02*
X11757219Y8353428D01*
X11805600Y8450190D01*
X11853980Y8498571D01*
X11999123Y8595333D01*
X12192647Y8643714D01*
X12579695Y8643714D01*
X12676457Y8595333D01*
X12724838Y8546952D01*
X12773219Y8450190D01*
X12773219Y8256666D01*
X12724838Y8159904D01*
X12676457Y8111523D01*
X12579695Y8063142D01*
X12337790Y8063142D01*
X12241028Y8111523D01*
X12192647Y8159904D01*
X12144266Y8256666D01*
X12144266Y8450190D01*
X12192647Y8546952D01*
X12241028Y8595333D01*
X12337790Y8643714D01*
X11708838Y6902000D02*
X13015123Y7772857D01*
X12192647Y6418190D02*
X12144266Y6514952D01*
X12095885Y6563333D01*
X11999123Y6611714D01*
X11950742Y6611714D01*
X11853980Y6563333D01*
X11805600Y6514952D01*
X11757219Y6418190D01*
X11757219Y6224666D01*
X11805600Y6127904D01*
X11853980Y6079523D01*
X11950742Y6031142D01*
X11999123Y6031142D01*
X12095885Y6079523D01*
X12144266Y6127904D01*
X12192647Y6224666D01*
X12192647Y6418190D01*
X12241028Y6514952D01*
X12289409Y6563333D01*
X12386171Y6611714D01*
X12579695Y6611714D01*
X12676457Y6563333D01*
X12724838Y6514952D01*
X12773219Y6418190D01*
X12773219Y6224666D01*
X12724838Y6127904D01*
X12676457Y6079523D01*
X12579695Y6031142D01*
X12386171Y6031142D01*
X12289409Y6079523D01*
X12241028Y6127904D01*
X12192647Y6224666D01*
X11708838Y4870000D02*
X13015123Y5740857D01*
X11853980Y4579714D02*
X11805600Y4531333D01*
X11757219Y4434571D01*
X11757219Y4192666D01*
X11805600Y4095904D01*
X11853980Y4047523D01*
X11950742Y3999142D01*
X12047504Y3999142D01*
X12192647Y4047523D01*
X12773219Y4628095D01*
X12773219Y3999142D01*
X11757219Y3370190D02*
X11757219Y3273428D01*
X11805600Y3176666D01*
X11853980Y3128285D01*
X11950742Y3079904D01*
X12144266Y3031523D01*
X12386171Y3031523D01*
X12579695Y3079904D01*
X12676457Y3128285D01*
X12724838Y3176666D01*
X12773219Y3273428D01*
X12773219Y3370190D01*
X12724838Y3466952D01*
X12676457Y3515333D01*
X12579695Y3563714D01*
X12386171Y3612095D01*
X12144266Y3612095D01*
X11950742Y3563714D01*
X11853980Y3515333D01*
X11805600Y3466952D01*
X11757219Y3370190D01*
X11853980Y2644476D02*
X11805600Y2596095D01*
X11757219Y2499333D01*
X11757219Y2257428D01*
X11805600Y2160666D01*
X11853980Y2112285D01*
X11950742Y2063904D01*
X12047504Y2063904D01*
X12192647Y2112285D01*
X12773219Y2692857D01*
X12773219Y2063904D01*
X11757219Y1434952D02*
X11757219Y1338190D01*
X11805600Y1241428D01*
X11853980Y1193047D01*
X11950742Y1144666D01*
X12144266Y1096285D01*
X12386171Y1096285D01*
X12579695Y1144666D01*
X12676457Y1193047D01*
X12724838Y1241428D01*
X12773219Y1338190D01*
X12773219Y1434952D01*
X12724838Y1531714D01*
X12676457Y1580095D01*
X12579695Y1628476D01*
X12386171Y1676857D01*
X12144266Y1676857D01*
X11950742Y1628476D01*
X11853980Y1580095D01*
X11805600Y1531714D01*
X11757219Y1434952D01*
D12*
X-3619500Y-31877000D02*
X-3619500Y-14351000D01*
X-3619500Y-14351000D02*
X-1348740Y-14351000D01*
X13779500Y-14351000D02*
X13779500Y-31877000D01*
X13779500Y-31877000D02*
X11508740Y-31877000D01*
X-1348740Y-31877000D02*
X-3619500Y-31877000D01*
X11508740Y-14351000D02*
X13779500Y-14351000D01*
X5156200Y-33020000D02*
G75*
G03X5156200Y-33020000I-76200J0D01*
G01*
D13*
X-5080000Y-36026000D02*
X5080000Y-36026000D01*
X-5080000Y-32470000D02*
X-5080000Y-36026000D01*
X5080000Y-32470000D02*
X-5080000Y-32470000D01*
X5080000Y-36026000D02*
X5080000Y-32470000D01*
D10*
X-11256140Y-27074460D02*
X-11256140Y-25999460D01*
X-8131140Y-27074460D02*
X-8131140Y-30324460D01*
X-11381140Y-27074460D02*
X-11381140Y-30324460D01*
X-8131140Y-27074460D02*
X-8356140Y-27074460D01*
X-8131140Y-30324460D02*
X-8356140Y-30324460D01*
X-11381140Y-30324460D02*
X-11156140Y-30324460D01*
X-11381140Y-27074460D02*
X-11256140Y-27074460D01*
D13*
X-4215820Y-29294244D02*
X-4215820Y-25190116D01*
X-7635820Y-29294244D02*
X-7635820Y-25190116D01*
X-9402578Y7481500D02*
X-8885422Y7481500D01*
X-9402578Y8901500D02*
X-8885422Y8901500D01*
X-4440422Y4751000D02*
X-4957578Y4751000D01*
X-4440422Y6171000D02*
X-4957578Y6171000D01*
X-9402578Y5449500D02*
X-8885422Y5449500D01*
X-9402578Y6869500D02*
X-8885422Y6869500D01*
X-9402578Y9513500D02*
X-8885422Y9513500D01*
X-9402578Y10933500D02*
X-8885422Y10933500D01*
X9399200Y-2567678D02*
X9399200Y-2050522D01*
X10819200Y-2567678D02*
X10819200Y-2050522D01*
X373300Y8205100D02*
X373300Y9905100D01*
X373300Y9905100D02*
X3523300Y9905100D01*
X373300Y8205100D02*
X3523300Y8205100D01*
X5308600Y-4165600D02*
X5308600Y-8737600D01*
X5308600Y-8737600D02*
X10896600Y-8737600D01*
X10896600Y-8737600D02*
X10896600Y-4165600D01*
X10896600Y-4165600D02*
X5308600Y-4165600D01*
X2268722Y7733100D02*
X2785878Y7733100D01*
X2268722Y6313100D02*
X2785878Y6313100D01*
X2268722Y4306500D02*
X2785878Y4306500D01*
X2268722Y5726500D02*
X2785878Y5726500D01*
X-8885422Y12965500D02*
X-9402578Y12965500D01*
X-8885422Y11545500D02*
X-9402578Y11545500D01*
X6831400Y-2052822D02*
X6831400Y-2569978D01*
X5411400Y-2052822D02*
X5411400Y-2569978D01*
X7418000Y-2052822D02*
X7418000Y-2569978D01*
X8838000Y-2052822D02*
X8838000Y-2569978D01*
X-5384800Y-4165600D02*
X-5384800Y-8737600D01*
X-5384800Y-8737600D02*
X5029200Y-8737600D01*
X5029200Y-8737600D02*
X5029200Y-4165600D01*
X5029200Y-4165600D02*
X-5384800Y-4165600D01*
D10*
X5183166Y-23502880D02*
X5659357Y-23502880D01*
X5659357Y-22502880D01*
X4897452Y-22598119D02*
X4849833Y-22550500D01*
X4754595Y-22502880D01*
X4516500Y-22502880D01*
X4421261Y-22550500D01*
X4373642Y-22598119D01*
X4326023Y-22693357D01*
X4326023Y-22788595D01*
X4373642Y-22931452D01*
X4945071Y-23502880D01*
X4326023Y-23502880D01*
X-9163809Y-25346380D02*
X-9163809Y-24346380D01*
X-10211428Y-25251142D02*
X-10163809Y-25298761D01*
X-10020952Y-25346380D01*
X-9925714Y-25346380D01*
X-9782857Y-25298761D01*
X-9687619Y-25203523D01*
X-9640000Y-25108285D01*
X-9592380Y-24917809D01*
X-9592380Y-24774952D01*
X-9640000Y-24584476D01*
X-9687619Y-24489238D01*
X-9782857Y-24394000D01*
X-9925714Y-24346380D01*
X-10020952Y-24346380D01*
X-10163809Y-24394000D01*
X-10211428Y-24441619D01*
X-10592380Y-24441619D02*
X-10640000Y-24394000D01*
X-10735238Y-24346380D01*
X-10973333Y-24346380D01*
X-11068571Y-24394000D01*
X-11116190Y-24441619D01*
X-11163809Y-24536857D01*
X-11163809Y-24632095D01*
X-11116190Y-24774952D01*
X-10544761Y-25346380D01*
X-11163809Y-25346380D01*
X-5333739Y-21307822D02*
X-5809929Y-20974489D01*
X-5333739Y-20736394D02*
X-6333739Y-20736394D01*
X-6333739Y-21117346D01*
X-6286120Y-21212584D01*
X-6238500Y-21260203D01*
X-6143262Y-21307822D01*
X-6000405Y-21307822D01*
X-5905167Y-21260203D01*
X-5857548Y-21212584D01*
X-5809929Y-21117346D01*
X-5809929Y-20736394D01*
X-6238500Y-21688775D02*
X-6286120Y-21736394D01*
X-6333739Y-21831632D01*
X-6333739Y-22069727D01*
X-6286120Y-22164965D01*
X-6238500Y-22212584D01*
X-6143262Y-22260203D01*
X-6048024Y-22260203D01*
X-5905167Y-22212584D01*
X-5333739Y-21641156D01*
X-5333739Y-22260203D01*
X-6333739Y-22593537D02*
X-6333739Y-23212584D01*
X-5952786Y-22879251D01*
X-5952786Y-23022108D01*
X-5905167Y-23117346D01*
X-5857548Y-23164965D01*
X-5762310Y-23212584D01*
X-5524215Y-23212584D01*
X-5428977Y-23164965D01*
X-5381358Y-23117346D01*
X-5333739Y-23022108D01*
X-5333739Y-22736394D01*
X-5381358Y-22641156D01*
X-5428977Y-22593537D01*
X-11523333Y7472857D02*
X-11475714Y7425238D01*
X-11332857Y7377619D01*
X-11237619Y7377619D01*
X-11094761Y7425238D01*
X-10999523Y7520476D01*
X-10951904Y7615714D01*
X-10904285Y7806190D01*
X-10904285Y7949047D01*
X-10951904Y8139523D01*
X-10999523Y8234761D01*
X-11094761Y8330000D01*
X-11237619Y8377619D01*
X-11332857Y8377619D01*
X-11475714Y8330000D01*
X-11523333Y8282380D01*
X-12428095Y8377619D02*
X-11951904Y8377619D01*
X-11904285Y7901428D01*
X-11951904Y7949047D01*
X-12047142Y7996666D01*
X-12285238Y7996666D01*
X-12380476Y7949047D01*
X-12428095Y7901428D01*
X-12475714Y7806190D01*
X-12475714Y7568095D01*
X-12428095Y7472857D01*
X-12380476Y7425238D01*
X-12285238Y7377619D01*
X-12047142Y7377619D01*
X-11951904Y7425238D01*
X-11904285Y7472857D01*
X-3993333Y6732857D02*
X-3945714Y6685238D01*
X-3802857Y6637619D01*
X-3707619Y6637619D01*
X-3564761Y6685238D01*
X-3469523Y6780476D01*
X-3421904Y6875714D01*
X-3374285Y7066190D01*
X-3374285Y7209047D01*
X-3421904Y7399523D01*
X-3469523Y7494761D01*
X-3564761Y7590000D01*
X-3707619Y7637619D01*
X-3802857Y7637619D01*
X-3945714Y7590000D01*
X-3993333Y7542380D01*
X-4850476Y7637619D02*
X-4659999Y7637619D01*
X-4564761Y7590000D01*
X-4517142Y7542380D01*
X-4421904Y7399523D01*
X-4374285Y7209047D01*
X-4374285Y6828095D01*
X-4421904Y6732857D01*
X-4469523Y6685238D01*
X-4564761Y6637619D01*
X-4755238Y6637619D01*
X-4850476Y6685238D01*
X-4898095Y6732857D01*
X-4945714Y6828095D01*
X-4945714Y7066190D01*
X-4898095Y7161428D01*
X-4850476Y7209047D01*
X-4755238Y7256666D01*
X-4564761Y7256666D01*
X-4469523Y7209047D01*
X-4421904Y7161428D01*
X-4374285Y7066190D01*
X-8977333Y4152357D02*
X-8929714Y4104738D01*
X-8786857Y4057119D01*
X-8691619Y4057119D01*
X-8548761Y4104738D01*
X-8453523Y4199976D01*
X-8405904Y4295214D01*
X-8358285Y4485690D01*
X-8358285Y4628547D01*
X-8405904Y4819023D01*
X-8453523Y4914261D01*
X-8548761Y5009500D01*
X-8691619Y5057119D01*
X-8786857Y5057119D01*
X-8929714Y5009500D01*
X-8977333Y4961880D01*
X-9310666Y5057119D02*
X-9977333Y5057119D01*
X-9548761Y4057119D01*
X-11543333Y9872857D02*
X-11495714Y9825238D01*
X-11352857Y9777619D01*
X-11257619Y9777619D01*
X-11114761Y9825238D01*
X-11019523Y9920476D01*
X-10971904Y10015714D01*
X-10924285Y10206190D01*
X-10924285Y10349047D01*
X-10971904Y10539523D01*
X-11019523Y10634761D01*
X-11114761Y10730000D01*
X-11257619Y10777619D01*
X-11352857Y10777619D01*
X-11495714Y10730000D01*
X-11543333Y10682380D01*
X-12114761Y10349047D02*
X-12019523Y10396666D01*
X-11971904Y10444285D01*
X-11924285Y10539523D01*
X-11924285Y10587142D01*
X-11971904Y10682380D01*
X-12019523Y10730000D01*
X-12114761Y10777619D01*
X-12305238Y10777619D01*
X-12400476Y10730000D01*
X-12448095Y10682380D01*
X-12495714Y10587142D01*
X-12495714Y10539523D01*
X-12448095Y10444285D01*
X-12400476Y10396666D01*
X-12305238Y10349047D01*
X-12114761Y10349047D01*
X-12019523Y10301428D01*
X-11971904Y10253809D01*
X-11924285Y10158571D01*
X-11924285Y9968095D01*
X-11971904Y9872857D01*
X-12019523Y9825238D01*
X-12114761Y9777619D01*
X-12305238Y9777619D01*
X-12400476Y9825238D01*
X-12448095Y9872857D01*
X-12495714Y9968095D01*
X-12495714Y10158571D01*
X-12448095Y10253809D01*
X-12400476Y10301428D01*
X-12305238Y10349047D01*
X13142857Y-2747142D02*
X13190476Y-2794761D01*
X13333333Y-2842380D01*
X13428571Y-2842380D01*
X13571428Y-2794761D01*
X13666666Y-2699523D01*
X13714285Y-2604285D01*
X13761904Y-2413809D01*
X13761904Y-2270952D01*
X13714285Y-2080476D01*
X13666666Y-1985238D01*
X13571428Y-1890000D01*
X13428571Y-1842380D01*
X13333333Y-1842380D01*
X13190476Y-1890000D01*
X13142857Y-1937619D01*
X12761904Y-1937619D02*
X12714285Y-1890000D01*
X12619047Y-1842380D01*
X12380952Y-1842380D01*
X12285714Y-1890000D01*
X12238095Y-1937619D01*
X12190476Y-2032857D01*
X12190476Y-2128095D01*
X12238095Y-2270952D01*
X12809523Y-2842380D01*
X12190476Y-2842380D01*
X11809523Y-1937619D02*
X11761904Y-1890000D01*
X11666666Y-1842380D01*
X11428571Y-1842380D01*
X11333333Y-1890000D01*
X11285714Y-1937619D01*
X11238095Y-2032857D01*
X11238095Y-2128095D01*
X11285714Y-2270952D01*
X11857142Y-2842380D01*
X11238095Y-2842380D01*
X6008095Y8597619D02*
X6008095Y9597619D01*
X5770000Y9597619D01*
X5627142Y9550000D01*
X5531904Y9454761D01*
X5484285Y9359523D01*
X5436666Y9169047D01*
X5436666Y9026190D01*
X5484285Y8835714D01*
X5531904Y8740476D01*
X5627142Y8645238D01*
X5770000Y8597619D01*
X6008095Y8597619D01*
X4484285Y8597619D02*
X5055714Y8597619D01*
X4770000Y8597619D02*
X4770000Y9597619D01*
X4865238Y9454761D01*
X4960476Y9359523D01*
X5055714Y9311904D01*
X5446666Y6607619D02*
X5780000Y7083809D01*
X6018095Y6607619D02*
X6018095Y7607619D01*
X5637142Y7607619D01*
X5541904Y7560000D01*
X5494285Y7512380D01*
X5446666Y7417142D01*
X5446666Y7274285D01*
X5494285Y7179047D01*
X5541904Y7131428D01*
X5637142Y7083809D01*
X6018095Y7083809D01*
X5065714Y7512380D02*
X5018095Y7560000D01*
X4922857Y7607619D01*
X4684761Y7607619D01*
X4589523Y7560000D01*
X4541904Y7512380D01*
X4494285Y7417142D01*
X4494285Y7321904D01*
X4541904Y7179047D01*
X5113333Y6607619D01*
X4494285Y6607619D01*
X5466666Y4557619D02*
X5800000Y5033809D01*
X6038095Y4557619D02*
X6038095Y5557619D01*
X5657142Y5557619D01*
X5561904Y5510000D01*
X5514285Y5462380D01*
X5466666Y5367142D01*
X5466666Y5224285D01*
X5514285Y5129047D01*
X5561904Y5081428D01*
X5657142Y5033809D01*
X6038095Y5033809D01*
X4609523Y5224285D02*
X4609523Y4557619D01*
X4847619Y5605238D02*
X5085714Y4890952D01*
X4466666Y4890952D01*
X-10777142Y13387619D02*
X-10443809Y13863809D01*
X-10205714Y13387619D02*
X-10205714Y14387619D01*
X-10586666Y14387619D01*
X-10681904Y14340000D01*
X-10729523Y14292380D01*
X-10777142Y14197142D01*
X-10777142Y14054285D01*
X-10729523Y13959047D01*
X-10681904Y13911428D01*
X-10586666Y13863809D01*
X-10205714Y13863809D01*
X-11729523Y13387619D02*
X-11158095Y13387619D01*
X-11443809Y13387619D02*
X-11443809Y14387619D01*
X-11348571Y14244761D01*
X-11253333Y14149523D01*
X-11158095Y14101904D01*
X-12300952Y13959047D02*
X-12205714Y14006666D01*
X-12158095Y14054285D01*
X-12110476Y14149523D01*
X-12110476Y14197142D01*
X-12158095Y14292380D01*
X-12205714Y14340000D01*
X-12300952Y14387619D01*
X-12491428Y14387619D01*
X-12586666Y14340000D01*
X-12634285Y14292380D01*
X-12681904Y14197142D01*
X-12681904Y14149523D01*
X-12634285Y14054285D01*
X-12586666Y14006666D01*
X-12491428Y13959047D01*
X-12300952Y13959047D01*
X-12205714Y13911428D01*
X-12158095Y13863809D01*
X-12110476Y13768571D01*
X-12110476Y13578095D01*
X-12158095Y13482857D01*
X-12205714Y13435238D01*
X-12300952Y13387619D01*
X-12491428Y13387619D01*
X-12586666Y13435238D01*
X-12634285Y13482857D01*
X-12681904Y13578095D01*
X-12681904Y13768571D01*
X-12634285Y13863809D01*
X-12586666Y13911428D01*
X-12491428Y13959047D01*
X6599180Y1328657D02*
X6122990Y1661990D01*
X6599180Y1900085D02*
X5599180Y1900085D01*
X5599180Y1519133D01*
X5646800Y1423895D01*
X5694419Y1376276D01*
X5789657Y1328657D01*
X5932514Y1328657D01*
X6027752Y1376276D01*
X6075371Y1423895D01*
X6122990Y1519133D01*
X6122990Y1900085D01*
X5694419Y947704D02*
X5646800Y900085D01*
X5599180Y804847D01*
X5599180Y566752D01*
X5646800Y471514D01*
X5694419Y423895D01*
X5789657Y376276D01*
X5884895Y376276D01*
X6027752Y423895D01*
X6599180Y995323D01*
X6599180Y376276D01*
X6599180Y-576104D02*
X6599180Y-4676D01*
X6599180Y-290390D02*
X5599180Y-290390D01*
X5742038Y-195152D01*
X5837276Y-99914D01*
X5884895Y-4676D01*
X8580380Y1328657D02*
X8104190Y1661990D01*
X8580380Y1900085D02*
X7580380Y1900085D01*
X7580380Y1519133D01*
X7628000Y1423895D01*
X7675619Y1376276D01*
X7770857Y1328657D01*
X7913714Y1328657D01*
X8008952Y1376276D01*
X8056571Y1423895D01*
X8104190Y1519133D01*
X8104190Y1900085D01*
X7675619Y947704D02*
X7628000Y900085D01*
X7580380Y804847D01*
X7580380Y566752D01*
X7628000Y471514D01*
X7675619Y423895D01*
X7770857Y376276D01*
X7866095Y376276D01*
X8008952Y423895D01*
X8580380Y995323D01*
X8580380Y376276D01*
X7675619Y-4676D02*
X7628000Y-52295D01*
X7580380Y-147533D01*
X7580380Y-385628D01*
X7628000Y-480866D01*
X7675619Y-528485D01*
X7770857Y-576104D01*
X7866095Y-576104D01*
X8008952Y-528485D01*
X8580380Y42942D01*
X8580380Y-576104D01*
M02*
