G04 #@! TF.GenerationSoftware,KiCad,Pcbnew,(5.1.4)-1*
G04 #@! TF.CreationDate,2020-06-09T22:28:14-07:00*
G04 #@! TF.ProjectId,SkateLightMainBoard,536b6174-654c-4696-9768-744d61696e42,rev?*
G04 #@! TF.SameCoordinates,Original*
G04 #@! TF.FileFunction,Soldermask,Top*
G04 #@! TF.FilePolarity,Negative*
%FSLAX46Y46*%
G04 Gerber Fmt 4.6, Leading zero omitted, Abs format (unit mm)*
G04 Created by KiCad (PCBNEW (5.1.4)-1) date 2020-06-09 22:28:14*
%MOMM*%
%LPD*%
G04 APERTURE LIST*
%ADD10C,0.100000*%
G04 APERTURE END LIST*
D10*
G36*
X-4281949Y-33075480D02*
G01*
X-4231080Y-33096551D01*
X-4180214Y-33117620D01*
X-4088658Y-33178796D01*
X-4010796Y-33256658D01*
X-3949620Y-33348214D01*
X-3925484Y-33406485D01*
X-3913932Y-33428095D01*
X-3898387Y-33447037D01*
X-3879445Y-33462582D01*
X-3857834Y-33474133D01*
X-3834385Y-33481246D01*
X-3809999Y-33483648D01*
X-3785613Y-33481246D01*
X-3762164Y-33474133D01*
X-3740554Y-33462581D01*
X-3721612Y-33447036D01*
X-3706067Y-33428094D01*
X-3694516Y-33406485D01*
X-3670380Y-33348214D01*
X-3609204Y-33256658D01*
X-3531342Y-33178796D01*
X-3439786Y-33117620D01*
X-3388920Y-33096551D01*
X-3338051Y-33075480D01*
X-3230059Y-33054000D01*
X-3119941Y-33054000D01*
X-3011949Y-33075480D01*
X-2961080Y-33096551D01*
X-2910214Y-33117620D01*
X-2818658Y-33178796D01*
X-2740796Y-33256658D01*
X-2679620Y-33348214D01*
X-2655484Y-33406485D01*
X-2643932Y-33428095D01*
X-2628387Y-33447037D01*
X-2609445Y-33462582D01*
X-2587834Y-33474133D01*
X-2564385Y-33481246D01*
X-2539999Y-33483648D01*
X-2515613Y-33481246D01*
X-2492164Y-33474133D01*
X-2470554Y-33462581D01*
X-2451612Y-33447036D01*
X-2436067Y-33428094D01*
X-2424516Y-33406485D01*
X-2400380Y-33348214D01*
X-2339204Y-33256658D01*
X-2261342Y-33178796D01*
X-2169786Y-33117620D01*
X-2118920Y-33096551D01*
X-2068051Y-33075480D01*
X-1960059Y-33054000D01*
X-1849941Y-33054000D01*
X-1741949Y-33075480D01*
X-1691080Y-33096551D01*
X-1640214Y-33117620D01*
X-1548658Y-33178796D01*
X-1470796Y-33256658D01*
X-1409620Y-33348214D01*
X-1385484Y-33406485D01*
X-1373932Y-33428095D01*
X-1358387Y-33447037D01*
X-1339445Y-33462582D01*
X-1317834Y-33474133D01*
X-1294385Y-33481246D01*
X-1269999Y-33483648D01*
X-1245613Y-33481246D01*
X-1222164Y-33474133D01*
X-1200554Y-33462581D01*
X-1181612Y-33447036D01*
X-1166067Y-33428094D01*
X-1154516Y-33406485D01*
X-1130380Y-33348214D01*
X-1069204Y-33256658D01*
X-991342Y-33178796D01*
X-899786Y-33117620D01*
X-848920Y-33096551D01*
X-798051Y-33075480D01*
X-690059Y-33054000D01*
X-579941Y-33054000D01*
X-471949Y-33075480D01*
X-421080Y-33096551D01*
X-370214Y-33117620D01*
X-278658Y-33178796D01*
X-200796Y-33256658D01*
X-139620Y-33348214D01*
X-115484Y-33406485D01*
X-103932Y-33428095D01*
X-88387Y-33447037D01*
X-69445Y-33462582D01*
X-47834Y-33474133D01*
X-24385Y-33481246D01*
X1Y-33483648D01*
X24387Y-33481246D01*
X47836Y-33474133D01*
X69446Y-33462581D01*
X88388Y-33447036D01*
X103933Y-33428094D01*
X115484Y-33406485D01*
X139620Y-33348214D01*
X200796Y-33256658D01*
X278658Y-33178796D01*
X370214Y-33117620D01*
X421080Y-33096551D01*
X471949Y-33075480D01*
X579941Y-33054000D01*
X690059Y-33054000D01*
X798051Y-33075480D01*
X848920Y-33096551D01*
X899786Y-33117620D01*
X991342Y-33178796D01*
X1069204Y-33256658D01*
X1130380Y-33348214D01*
X1154516Y-33406485D01*
X1166068Y-33428095D01*
X1181613Y-33447037D01*
X1200555Y-33462582D01*
X1222166Y-33474133D01*
X1245615Y-33481246D01*
X1270001Y-33483648D01*
X1294387Y-33481246D01*
X1317836Y-33474133D01*
X1339446Y-33462581D01*
X1358388Y-33447036D01*
X1373933Y-33428094D01*
X1385484Y-33406485D01*
X1409620Y-33348214D01*
X1470796Y-33256658D01*
X1548658Y-33178796D01*
X1640214Y-33117620D01*
X1691080Y-33096551D01*
X1741949Y-33075480D01*
X1849941Y-33054000D01*
X1960059Y-33054000D01*
X2068051Y-33075480D01*
X2118920Y-33096551D01*
X2169786Y-33117620D01*
X2261342Y-33178796D01*
X2339204Y-33256658D01*
X2400380Y-33348214D01*
X2424516Y-33406485D01*
X2436068Y-33428095D01*
X2451613Y-33447037D01*
X2470555Y-33462582D01*
X2492166Y-33474133D01*
X2515615Y-33481246D01*
X2540001Y-33483648D01*
X2564387Y-33481246D01*
X2587836Y-33474133D01*
X2609446Y-33462581D01*
X2628388Y-33447036D01*
X2643933Y-33428094D01*
X2655484Y-33406485D01*
X2679620Y-33348214D01*
X2740796Y-33256658D01*
X2818658Y-33178796D01*
X2910214Y-33117620D01*
X2961080Y-33096551D01*
X3011949Y-33075480D01*
X3119941Y-33054000D01*
X3230059Y-33054000D01*
X3338051Y-33075480D01*
X3388920Y-33096551D01*
X3439786Y-33117620D01*
X3531342Y-33178796D01*
X3609204Y-33256658D01*
X3670380Y-33348214D01*
X3694516Y-33406485D01*
X3706068Y-33428095D01*
X3721613Y-33447037D01*
X3740555Y-33462582D01*
X3762166Y-33474133D01*
X3785615Y-33481246D01*
X3810001Y-33483648D01*
X3834387Y-33481246D01*
X3857836Y-33474133D01*
X3879446Y-33462581D01*
X3898388Y-33447036D01*
X3913933Y-33428094D01*
X3925484Y-33406485D01*
X3949620Y-33348214D01*
X4010796Y-33256658D01*
X4088658Y-33178796D01*
X4180214Y-33117620D01*
X4231080Y-33096551D01*
X4281949Y-33075480D01*
X4389941Y-33054000D01*
X4500059Y-33054000D01*
X4608051Y-33075480D01*
X4658920Y-33096551D01*
X4709786Y-33117620D01*
X4801342Y-33178796D01*
X4879204Y-33256658D01*
X4940380Y-33348214D01*
X4961449Y-33399080D01*
X4982520Y-33449949D01*
X5004000Y-33557941D01*
X5004000Y-33668059D01*
X4982520Y-33776051D01*
X4973467Y-33797906D01*
X4940380Y-33877786D01*
X4879204Y-33969342D01*
X4801342Y-34047204D01*
X4709786Y-34108380D01*
X4651515Y-34132516D01*
X4629905Y-34144068D01*
X4610963Y-34159613D01*
X4595418Y-34178555D01*
X4583867Y-34200166D01*
X4576754Y-34223615D01*
X4574352Y-34248001D01*
X4576754Y-34272387D01*
X4583867Y-34295836D01*
X4595419Y-34317446D01*
X4610964Y-34336388D01*
X4629906Y-34351933D01*
X4651513Y-34363483D01*
X4709786Y-34387620D01*
X4801342Y-34448796D01*
X4879204Y-34526658D01*
X4940380Y-34618214D01*
X4961449Y-34669080D01*
X4982520Y-34719949D01*
X5004000Y-34827941D01*
X5004000Y-34938059D01*
X4982520Y-35046051D01*
X4973467Y-35067906D01*
X4940380Y-35147786D01*
X4879204Y-35239342D01*
X4801342Y-35317204D01*
X4709786Y-35378380D01*
X4658920Y-35399449D01*
X4608051Y-35420520D01*
X4500059Y-35442000D01*
X4389941Y-35442000D01*
X4281949Y-35420520D01*
X4231080Y-35399449D01*
X4180214Y-35378380D01*
X4088658Y-35317204D01*
X4010796Y-35239342D01*
X3949620Y-35147786D01*
X3925483Y-35089513D01*
X3913932Y-35067905D01*
X3898387Y-35048963D01*
X3879445Y-35033418D01*
X3857834Y-35021867D01*
X3834385Y-35014754D01*
X3809999Y-35012352D01*
X3785613Y-35014754D01*
X3762164Y-35021867D01*
X3740554Y-35033419D01*
X3721612Y-35048964D01*
X3706067Y-35067906D01*
X3694517Y-35089513D01*
X3670380Y-35147786D01*
X3609204Y-35239342D01*
X3531342Y-35317204D01*
X3439786Y-35378380D01*
X3388920Y-35399449D01*
X3338051Y-35420520D01*
X3230059Y-35442000D01*
X3119941Y-35442000D01*
X3011949Y-35420520D01*
X2961080Y-35399449D01*
X2910214Y-35378380D01*
X2818658Y-35317204D01*
X2740796Y-35239342D01*
X2679620Y-35147786D01*
X2655483Y-35089513D01*
X2643932Y-35067905D01*
X2628387Y-35048963D01*
X2609445Y-35033418D01*
X2587834Y-35021867D01*
X2564385Y-35014754D01*
X2539999Y-35012352D01*
X2515613Y-35014754D01*
X2492164Y-35021867D01*
X2470554Y-35033419D01*
X2451612Y-35048964D01*
X2436067Y-35067906D01*
X2424517Y-35089513D01*
X2400380Y-35147786D01*
X2339204Y-35239342D01*
X2261342Y-35317204D01*
X2169786Y-35378380D01*
X2118920Y-35399449D01*
X2068051Y-35420520D01*
X1960059Y-35442000D01*
X1849941Y-35442000D01*
X1741949Y-35420520D01*
X1691080Y-35399449D01*
X1640214Y-35378380D01*
X1548658Y-35317204D01*
X1470796Y-35239342D01*
X1409620Y-35147786D01*
X1385483Y-35089513D01*
X1373932Y-35067905D01*
X1358387Y-35048963D01*
X1339445Y-35033418D01*
X1317834Y-35021867D01*
X1294385Y-35014754D01*
X1269999Y-35012352D01*
X1245613Y-35014754D01*
X1222164Y-35021867D01*
X1200554Y-35033419D01*
X1181612Y-35048964D01*
X1166067Y-35067906D01*
X1154517Y-35089513D01*
X1130380Y-35147786D01*
X1069204Y-35239342D01*
X991342Y-35317204D01*
X899786Y-35378380D01*
X848920Y-35399449D01*
X798051Y-35420520D01*
X690059Y-35442000D01*
X579941Y-35442000D01*
X471949Y-35420520D01*
X421080Y-35399449D01*
X370214Y-35378380D01*
X278658Y-35317204D01*
X200796Y-35239342D01*
X139620Y-35147786D01*
X115483Y-35089513D01*
X103932Y-35067905D01*
X88387Y-35048963D01*
X69445Y-35033418D01*
X47834Y-35021867D01*
X24385Y-35014754D01*
X-1Y-35012352D01*
X-24387Y-35014754D01*
X-47836Y-35021867D01*
X-69446Y-35033419D01*
X-88388Y-35048964D01*
X-103933Y-35067906D01*
X-115483Y-35089513D01*
X-139620Y-35147786D01*
X-200796Y-35239342D01*
X-278658Y-35317204D01*
X-370214Y-35378380D01*
X-421080Y-35399449D01*
X-471949Y-35420520D01*
X-579941Y-35442000D01*
X-690059Y-35442000D01*
X-798051Y-35420520D01*
X-848920Y-35399449D01*
X-899786Y-35378380D01*
X-991342Y-35317204D01*
X-1069204Y-35239342D01*
X-1130380Y-35147786D01*
X-1154517Y-35089513D01*
X-1166068Y-35067905D01*
X-1181613Y-35048963D01*
X-1200555Y-35033418D01*
X-1222166Y-35021867D01*
X-1245615Y-35014754D01*
X-1270001Y-35012352D01*
X-1294387Y-35014754D01*
X-1317836Y-35021867D01*
X-1339446Y-35033419D01*
X-1358388Y-35048964D01*
X-1373933Y-35067906D01*
X-1385483Y-35089513D01*
X-1409620Y-35147786D01*
X-1470796Y-35239342D01*
X-1548658Y-35317204D01*
X-1640214Y-35378380D01*
X-1691080Y-35399449D01*
X-1741949Y-35420520D01*
X-1849941Y-35442000D01*
X-1960059Y-35442000D01*
X-2068051Y-35420520D01*
X-2118920Y-35399449D01*
X-2169786Y-35378380D01*
X-2261342Y-35317204D01*
X-2339204Y-35239342D01*
X-2400380Y-35147786D01*
X-2424517Y-35089513D01*
X-2436068Y-35067905D01*
X-2451613Y-35048963D01*
X-2470555Y-35033418D01*
X-2492166Y-35021867D01*
X-2515615Y-35014754D01*
X-2540001Y-35012352D01*
X-2564387Y-35014754D01*
X-2587836Y-35021867D01*
X-2609446Y-35033419D01*
X-2628388Y-35048964D01*
X-2643933Y-35067906D01*
X-2655483Y-35089513D01*
X-2679620Y-35147786D01*
X-2740796Y-35239342D01*
X-2818658Y-35317204D01*
X-2910214Y-35378380D01*
X-2961080Y-35399449D01*
X-3011949Y-35420520D01*
X-3119941Y-35442000D01*
X-3230059Y-35442000D01*
X-3338051Y-35420520D01*
X-3388920Y-35399449D01*
X-3439786Y-35378380D01*
X-3531342Y-35317204D01*
X-3609204Y-35239342D01*
X-3670380Y-35147786D01*
X-3694517Y-35089513D01*
X-3706068Y-35067905D01*
X-3721613Y-35048963D01*
X-3740555Y-35033418D01*
X-3762166Y-35021867D01*
X-3785615Y-35014754D01*
X-3810001Y-35012352D01*
X-3834387Y-35014754D01*
X-3857836Y-35021867D01*
X-3879446Y-35033419D01*
X-3898388Y-35048964D01*
X-3913933Y-35067906D01*
X-3925483Y-35089513D01*
X-3949620Y-35147786D01*
X-4010796Y-35239342D01*
X-4088658Y-35317204D01*
X-4180214Y-35378380D01*
X-4231080Y-35399449D01*
X-4281949Y-35420520D01*
X-4389941Y-35442000D01*
X-4500059Y-35442000D01*
X-4608051Y-35420520D01*
X-4658920Y-35399449D01*
X-4709786Y-35378380D01*
X-4801342Y-35317204D01*
X-4879204Y-35239342D01*
X-4940380Y-35147786D01*
X-4973467Y-35067906D01*
X-4982520Y-35046051D01*
X-5004000Y-34938059D01*
X-5004000Y-34827941D01*
X-4982520Y-34719949D01*
X-4961449Y-34669080D01*
X-4940380Y-34618214D01*
X-4879204Y-34526658D01*
X-4801342Y-34448796D01*
X-4709786Y-34387620D01*
X-4651513Y-34363483D01*
X-4629905Y-34351932D01*
X-4610963Y-34336387D01*
X-4595418Y-34317445D01*
X-4583867Y-34295834D01*
X-4576754Y-34272385D01*
X-4574353Y-34248001D01*
X-4315648Y-34248001D01*
X-4313246Y-34272387D01*
X-4306133Y-34295836D01*
X-4294581Y-34317446D01*
X-4279036Y-34336388D01*
X-4260094Y-34351933D01*
X-4238487Y-34363483D01*
X-4180214Y-34387620D01*
X-4088658Y-34448796D01*
X-4010796Y-34526658D01*
X-3949620Y-34618214D01*
X-3925484Y-34676485D01*
X-3913932Y-34698095D01*
X-3898387Y-34717037D01*
X-3879445Y-34732582D01*
X-3857834Y-34744133D01*
X-3834385Y-34751246D01*
X-3809999Y-34753648D01*
X-3785613Y-34751246D01*
X-3762164Y-34744133D01*
X-3740554Y-34732581D01*
X-3721612Y-34717036D01*
X-3706067Y-34698094D01*
X-3694516Y-34676485D01*
X-3670380Y-34618214D01*
X-3609204Y-34526658D01*
X-3531342Y-34448796D01*
X-3439786Y-34387620D01*
X-3381513Y-34363483D01*
X-3359905Y-34351932D01*
X-3340963Y-34336387D01*
X-3325418Y-34317445D01*
X-3313867Y-34295834D01*
X-3306754Y-34272385D01*
X-3304353Y-34248001D01*
X-3045648Y-34248001D01*
X-3043246Y-34272387D01*
X-3036133Y-34295836D01*
X-3024581Y-34317446D01*
X-3009036Y-34336388D01*
X-2990094Y-34351933D01*
X-2968487Y-34363483D01*
X-2910214Y-34387620D01*
X-2818658Y-34448796D01*
X-2740796Y-34526658D01*
X-2679620Y-34618214D01*
X-2655484Y-34676485D01*
X-2643932Y-34698095D01*
X-2628387Y-34717037D01*
X-2609445Y-34732582D01*
X-2587834Y-34744133D01*
X-2564385Y-34751246D01*
X-2539999Y-34753648D01*
X-2515613Y-34751246D01*
X-2492164Y-34744133D01*
X-2470554Y-34732581D01*
X-2451612Y-34717036D01*
X-2436067Y-34698094D01*
X-2424516Y-34676485D01*
X-2400380Y-34618214D01*
X-2339204Y-34526658D01*
X-2261342Y-34448796D01*
X-2169786Y-34387620D01*
X-2111513Y-34363483D01*
X-2089905Y-34351932D01*
X-2070963Y-34336387D01*
X-2055418Y-34317445D01*
X-2043867Y-34295834D01*
X-2036754Y-34272385D01*
X-2034353Y-34248001D01*
X-1775648Y-34248001D01*
X-1773246Y-34272387D01*
X-1766133Y-34295836D01*
X-1754581Y-34317446D01*
X-1739036Y-34336388D01*
X-1720094Y-34351933D01*
X-1698487Y-34363483D01*
X-1640214Y-34387620D01*
X-1548658Y-34448796D01*
X-1470796Y-34526658D01*
X-1409620Y-34618214D01*
X-1385484Y-34676485D01*
X-1373932Y-34698095D01*
X-1358387Y-34717037D01*
X-1339445Y-34732582D01*
X-1317834Y-34744133D01*
X-1294385Y-34751246D01*
X-1269999Y-34753648D01*
X-1245613Y-34751246D01*
X-1222164Y-34744133D01*
X-1200554Y-34732581D01*
X-1181612Y-34717036D01*
X-1166067Y-34698094D01*
X-1154516Y-34676485D01*
X-1130380Y-34618214D01*
X-1069204Y-34526658D01*
X-991342Y-34448796D01*
X-899786Y-34387620D01*
X-841513Y-34363483D01*
X-819905Y-34351932D01*
X-800963Y-34336387D01*
X-785418Y-34317445D01*
X-773867Y-34295834D01*
X-766754Y-34272385D01*
X-764353Y-34248001D01*
X-505648Y-34248001D01*
X-503246Y-34272387D01*
X-496133Y-34295836D01*
X-484581Y-34317446D01*
X-469036Y-34336388D01*
X-450094Y-34351933D01*
X-428487Y-34363483D01*
X-370214Y-34387620D01*
X-278658Y-34448796D01*
X-200796Y-34526658D01*
X-139620Y-34618214D01*
X-115484Y-34676485D01*
X-103932Y-34698095D01*
X-88387Y-34717037D01*
X-69445Y-34732582D01*
X-47834Y-34744133D01*
X-24385Y-34751246D01*
X1Y-34753648D01*
X24387Y-34751246D01*
X47836Y-34744133D01*
X69446Y-34732581D01*
X88388Y-34717036D01*
X103933Y-34698094D01*
X115484Y-34676485D01*
X139620Y-34618214D01*
X200796Y-34526658D01*
X278658Y-34448796D01*
X370214Y-34387620D01*
X428487Y-34363483D01*
X450095Y-34351932D01*
X469037Y-34336387D01*
X484582Y-34317445D01*
X496133Y-34295834D01*
X503246Y-34272385D01*
X505647Y-34248001D01*
X764352Y-34248001D01*
X766754Y-34272387D01*
X773867Y-34295836D01*
X785419Y-34317446D01*
X800964Y-34336388D01*
X819906Y-34351933D01*
X841513Y-34363483D01*
X899786Y-34387620D01*
X991342Y-34448796D01*
X1069204Y-34526658D01*
X1130380Y-34618214D01*
X1154516Y-34676485D01*
X1166068Y-34698095D01*
X1181613Y-34717037D01*
X1200555Y-34732582D01*
X1222166Y-34744133D01*
X1245615Y-34751246D01*
X1270001Y-34753648D01*
X1294387Y-34751246D01*
X1317836Y-34744133D01*
X1339446Y-34732581D01*
X1358388Y-34717036D01*
X1373933Y-34698094D01*
X1385484Y-34676485D01*
X1409620Y-34618214D01*
X1470796Y-34526658D01*
X1548658Y-34448796D01*
X1640214Y-34387620D01*
X1698487Y-34363483D01*
X1720095Y-34351932D01*
X1739037Y-34336387D01*
X1754582Y-34317445D01*
X1766133Y-34295834D01*
X1773246Y-34272385D01*
X1775647Y-34248001D01*
X2034352Y-34248001D01*
X2036754Y-34272387D01*
X2043867Y-34295836D01*
X2055419Y-34317446D01*
X2070964Y-34336388D01*
X2089906Y-34351933D01*
X2111513Y-34363483D01*
X2169786Y-34387620D01*
X2261342Y-34448796D01*
X2339204Y-34526658D01*
X2400380Y-34618214D01*
X2424516Y-34676485D01*
X2436068Y-34698095D01*
X2451613Y-34717037D01*
X2470555Y-34732582D01*
X2492166Y-34744133D01*
X2515615Y-34751246D01*
X2540001Y-34753648D01*
X2564387Y-34751246D01*
X2587836Y-34744133D01*
X2609446Y-34732581D01*
X2628388Y-34717036D01*
X2643933Y-34698094D01*
X2655484Y-34676485D01*
X2679620Y-34618214D01*
X2740796Y-34526658D01*
X2818658Y-34448796D01*
X2910214Y-34387620D01*
X2968487Y-34363483D01*
X2990095Y-34351932D01*
X3009037Y-34336387D01*
X3024582Y-34317445D01*
X3036133Y-34295834D01*
X3043246Y-34272385D01*
X3045647Y-34248001D01*
X3304352Y-34248001D01*
X3306754Y-34272387D01*
X3313867Y-34295836D01*
X3325419Y-34317446D01*
X3340964Y-34336388D01*
X3359906Y-34351933D01*
X3381513Y-34363483D01*
X3439786Y-34387620D01*
X3531342Y-34448796D01*
X3609204Y-34526658D01*
X3670380Y-34618214D01*
X3694516Y-34676485D01*
X3706068Y-34698095D01*
X3721613Y-34717037D01*
X3740555Y-34732582D01*
X3762166Y-34744133D01*
X3785615Y-34751246D01*
X3810001Y-34753648D01*
X3834387Y-34751246D01*
X3857836Y-34744133D01*
X3879446Y-34732581D01*
X3898388Y-34717036D01*
X3913933Y-34698094D01*
X3925484Y-34676485D01*
X3949620Y-34618214D01*
X4010796Y-34526658D01*
X4088658Y-34448796D01*
X4180214Y-34387620D01*
X4238487Y-34363483D01*
X4260095Y-34351932D01*
X4279037Y-34336387D01*
X4294582Y-34317445D01*
X4306133Y-34295834D01*
X4313246Y-34272385D01*
X4315648Y-34247999D01*
X4313246Y-34223613D01*
X4306133Y-34200164D01*
X4294581Y-34178554D01*
X4279036Y-34159612D01*
X4260094Y-34144067D01*
X4238485Y-34132516D01*
X4180214Y-34108380D01*
X4088658Y-34047204D01*
X4010796Y-33969342D01*
X3949620Y-33877786D01*
X3925483Y-33819513D01*
X3913932Y-33797905D01*
X3898387Y-33778963D01*
X3879445Y-33763418D01*
X3857834Y-33751867D01*
X3834385Y-33744754D01*
X3809999Y-33742352D01*
X3785613Y-33744754D01*
X3762164Y-33751867D01*
X3740554Y-33763419D01*
X3721612Y-33778964D01*
X3706067Y-33797906D01*
X3694517Y-33819513D01*
X3670380Y-33877786D01*
X3609204Y-33969342D01*
X3531342Y-34047204D01*
X3439786Y-34108380D01*
X3381515Y-34132516D01*
X3359905Y-34144068D01*
X3340963Y-34159613D01*
X3325418Y-34178555D01*
X3313867Y-34200166D01*
X3306754Y-34223615D01*
X3304352Y-34248001D01*
X3045647Y-34248001D01*
X3045648Y-34247999D01*
X3043246Y-34223613D01*
X3036133Y-34200164D01*
X3024581Y-34178554D01*
X3009036Y-34159612D01*
X2990094Y-34144067D01*
X2968485Y-34132516D01*
X2910214Y-34108380D01*
X2818658Y-34047204D01*
X2740796Y-33969342D01*
X2679620Y-33877786D01*
X2655483Y-33819513D01*
X2643932Y-33797905D01*
X2628387Y-33778963D01*
X2609445Y-33763418D01*
X2587834Y-33751867D01*
X2564385Y-33744754D01*
X2539999Y-33742352D01*
X2515613Y-33744754D01*
X2492164Y-33751867D01*
X2470554Y-33763419D01*
X2451612Y-33778964D01*
X2436067Y-33797906D01*
X2424517Y-33819513D01*
X2400380Y-33877786D01*
X2339204Y-33969342D01*
X2261342Y-34047204D01*
X2169786Y-34108380D01*
X2111515Y-34132516D01*
X2089905Y-34144068D01*
X2070963Y-34159613D01*
X2055418Y-34178555D01*
X2043867Y-34200166D01*
X2036754Y-34223615D01*
X2034352Y-34248001D01*
X1775647Y-34248001D01*
X1775648Y-34247999D01*
X1773246Y-34223613D01*
X1766133Y-34200164D01*
X1754581Y-34178554D01*
X1739036Y-34159612D01*
X1720094Y-34144067D01*
X1698485Y-34132516D01*
X1640214Y-34108380D01*
X1548658Y-34047204D01*
X1470796Y-33969342D01*
X1409620Y-33877786D01*
X1385483Y-33819513D01*
X1373932Y-33797905D01*
X1358387Y-33778963D01*
X1339445Y-33763418D01*
X1317834Y-33751867D01*
X1294385Y-33744754D01*
X1269999Y-33742352D01*
X1245613Y-33744754D01*
X1222164Y-33751867D01*
X1200554Y-33763419D01*
X1181612Y-33778964D01*
X1166067Y-33797906D01*
X1154517Y-33819513D01*
X1130380Y-33877786D01*
X1069204Y-33969342D01*
X991342Y-34047204D01*
X899786Y-34108380D01*
X841515Y-34132516D01*
X819905Y-34144068D01*
X800963Y-34159613D01*
X785418Y-34178555D01*
X773867Y-34200166D01*
X766754Y-34223615D01*
X764352Y-34248001D01*
X505647Y-34248001D01*
X505648Y-34247999D01*
X503246Y-34223613D01*
X496133Y-34200164D01*
X484581Y-34178554D01*
X469036Y-34159612D01*
X450094Y-34144067D01*
X428485Y-34132516D01*
X370214Y-34108380D01*
X278658Y-34047204D01*
X200796Y-33969342D01*
X139620Y-33877786D01*
X115483Y-33819513D01*
X103932Y-33797905D01*
X88387Y-33778963D01*
X69445Y-33763418D01*
X47834Y-33751867D01*
X24385Y-33744754D01*
X-1Y-33742352D01*
X-24387Y-33744754D01*
X-47836Y-33751867D01*
X-69446Y-33763419D01*
X-88388Y-33778964D01*
X-103933Y-33797906D01*
X-115483Y-33819513D01*
X-139620Y-33877786D01*
X-200796Y-33969342D01*
X-278658Y-34047204D01*
X-370214Y-34108380D01*
X-428485Y-34132516D01*
X-450095Y-34144068D01*
X-469037Y-34159613D01*
X-484582Y-34178555D01*
X-496133Y-34200166D01*
X-503246Y-34223615D01*
X-505648Y-34248001D01*
X-764353Y-34248001D01*
X-764352Y-34247999D01*
X-766754Y-34223613D01*
X-773867Y-34200164D01*
X-785419Y-34178554D01*
X-800964Y-34159612D01*
X-819906Y-34144067D01*
X-841515Y-34132516D01*
X-899786Y-34108380D01*
X-991342Y-34047204D01*
X-1069204Y-33969342D01*
X-1130380Y-33877786D01*
X-1154517Y-33819513D01*
X-1166068Y-33797905D01*
X-1181613Y-33778963D01*
X-1200555Y-33763418D01*
X-1222166Y-33751867D01*
X-1245615Y-33744754D01*
X-1270001Y-33742352D01*
X-1294387Y-33744754D01*
X-1317836Y-33751867D01*
X-1339446Y-33763419D01*
X-1358388Y-33778964D01*
X-1373933Y-33797906D01*
X-1385483Y-33819513D01*
X-1409620Y-33877786D01*
X-1470796Y-33969342D01*
X-1548658Y-34047204D01*
X-1640214Y-34108380D01*
X-1698485Y-34132516D01*
X-1720095Y-34144068D01*
X-1739037Y-34159613D01*
X-1754582Y-34178555D01*
X-1766133Y-34200166D01*
X-1773246Y-34223615D01*
X-1775648Y-34248001D01*
X-2034353Y-34248001D01*
X-2034352Y-34247999D01*
X-2036754Y-34223613D01*
X-2043867Y-34200164D01*
X-2055419Y-34178554D01*
X-2070964Y-34159612D01*
X-2089906Y-34144067D01*
X-2111515Y-34132516D01*
X-2169786Y-34108380D01*
X-2261342Y-34047204D01*
X-2339204Y-33969342D01*
X-2400380Y-33877786D01*
X-2424517Y-33819513D01*
X-2436068Y-33797905D01*
X-2451613Y-33778963D01*
X-2470555Y-33763418D01*
X-2492166Y-33751867D01*
X-2515615Y-33744754D01*
X-2540001Y-33742352D01*
X-2564387Y-33744754D01*
X-2587836Y-33751867D01*
X-2609446Y-33763419D01*
X-2628388Y-33778964D01*
X-2643933Y-33797906D01*
X-2655483Y-33819513D01*
X-2679620Y-33877786D01*
X-2740796Y-33969342D01*
X-2818658Y-34047204D01*
X-2910214Y-34108380D01*
X-2968485Y-34132516D01*
X-2990095Y-34144068D01*
X-3009037Y-34159613D01*
X-3024582Y-34178555D01*
X-3036133Y-34200166D01*
X-3043246Y-34223615D01*
X-3045648Y-34248001D01*
X-3304353Y-34248001D01*
X-3304352Y-34247999D01*
X-3306754Y-34223613D01*
X-3313867Y-34200164D01*
X-3325419Y-34178554D01*
X-3340964Y-34159612D01*
X-3359906Y-34144067D01*
X-3381515Y-34132516D01*
X-3439786Y-34108380D01*
X-3531342Y-34047204D01*
X-3609204Y-33969342D01*
X-3670380Y-33877786D01*
X-3694517Y-33819513D01*
X-3706068Y-33797905D01*
X-3721613Y-33778963D01*
X-3740555Y-33763418D01*
X-3762166Y-33751867D01*
X-3785615Y-33744754D01*
X-3810001Y-33742352D01*
X-3834387Y-33744754D01*
X-3857836Y-33751867D01*
X-3879446Y-33763419D01*
X-3898388Y-33778964D01*
X-3913933Y-33797906D01*
X-3925483Y-33819513D01*
X-3949620Y-33877786D01*
X-4010796Y-33969342D01*
X-4088658Y-34047204D01*
X-4180214Y-34108380D01*
X-4238485Y-34132516D01*
X-4260095Y-34144068D01*
X-4279037Y-34159613D01*
X-4294582Y-34178555D01*
X-4306133Y-34200166D01*
X-4313246Y-34223615D01*
X-4315648Y-34248001D01*
X-4574353Y-34248001D01*
X-4574352Y-34247999D01*
X-4576754Y-34223613D01*
X-4583867Y-34200164D01*
X-4595419Y-34178554D01*
X-4610964Y-34159612D01*
X-4629906Y-34144067D01*
X-4651515Y-34132516D01*
X-4709786Y-34108380D01*
X-4801342Y-34047204D01*
X-4879204Y-33969342D01*
X-4940380Y-33877786D01*
X-4973467Y-33797906D01*
X-4982520Y-33776051D01*
X-5004000Y-33668059D01*
X-5004000Y-33557941D01*
X-4982520Y-33449949D01*
X-4961449Y-33399080D01*
X-4940380Y-33348214D01*
X-4879204Y-33256658D01*
X-4801342Y-33178796D01*
X-4709786Y-33117620D01*
X-4658920Y-33096551D01*
X-4608051Y-33075480D01*
X-4500059Y-33054000D01*
X-4389941Y-33054000D01*
X-4281949Y-33075480D01*
X-4281949Y-33075480D01*
G37*
G36*
X6870968Y-33741065D02*
G01*
X6909638Y-33752796D01*
X6945277Y-33771846D01*
X6976517Y-33797483D01*
X7002154Y-33828723D01*
X7021204Y-33864362D01*
X7032935Y-33903032D01*
X7037500Y-33949388D01*
X7037500Y-34600612D01*
X7032935Y-34646968D01*
X7021204Y-34685638D01*
X7002154Y-34721277D01*
X6976517Y-34752517D01*
X6945277Y-34778154D01*
X6909638Y-34797204D01*
X6870968Y-34808935D01*
X6824612Y-34813500D01*
X5748388Y-34813500D01*
X5702032Y-34808935D01*
X5663362Y-34797204D01*
X5627723Y-34778154D01*
X5596483Y-34752517D01*
X5570846Y-34721277D01*
X5551796Y-34685638D01*
X5540065Y-34646968D01*
X5535500Y-34600612D01*
X5535500Y-33949388D01*
X5540065Y-33903032D01*
X5551796Y-33864362D01*
X5570846Y-33828723D01*
X5596483Y-33797483D01*
X5627723Y-33771846D01*
X5663362Y-33752796D01*
X5702032Y-33741065D01*
X5748388Y-33736500D01*
X6824612Y-33736500D01*
X6870968Y-33741065D01*
X6870968Y-33741065D01*
G37*
G36*
X8839468Y-33741065D02*
G01*
X8878138Y-33752796D01*
X8913777Y-33771846D01*
X8945017Y-33797483D01*
X8970654Y-33828723D01*
X8989704Y-33864362D01*
X9001435Y-33903032D01*
X9006000Y-33949388D01*
X9006000Y-34600612D01*
X9001435Y-34646968D01*
X8989704Y-34685638D01*
X8970654Y-34721277D01*
X8945017Y-34752517D01*
X8913777Y-34778154D01*
X8878138Y-34797204D01*
X8839468Y-34808935D01*
X8793112Y-34813500D01*
X7716888Y-34813500D01*
X7670532Y-34808935D01*
X7631862Y-34797204D01*
X7596223Y-34778154D01*
X7564983Y-34752517D01*
X7539346Y-34721277D01*
X7520296Y-34685638D01*
X7508565Y-34646968D01*
X7504000Y-34600612D01*
X7504000Y-33949388D01*
X7508565Y-33903032D01*
X7520296Y-33864362D01*
X7539346Y-33828723D01*
X7564983Y-33797483D01*
X7596223Y-33771846D01*
X7631862Y-33752796D01*
X7670532Y-33741065D01*
X7716888Y-33736500D01*
X8793112Y-33736500D01*
X8839468Y-33741065D01*
X8839468Y-33741065D01*
G37*
G36*
X8839468Y-31866065D02*
G01*
X8878138Y-31877796D01*
X8913777Y-31896846D01*
X8945017Y-31922483D01*
X8970654Y-31953723D01*
X8989704Y-31989362D01*
X9001435Y-32028032D01*
X9006000Y-32074388D01*
X9006000Y-32725612D01*
X9001435Y-32771968D01*
X8989704Y-32810638D01*
X8970654Y-32846277D01*
X8945017Y-32877517D01*
X8913777Y-32903154D01*
X8878138Y-32922204D01*
X8839468Y-32933935D01*
X8793112Y-32938500D01*
X7716888Y-32938500D01*
X7670532Y-32933935D01*
X7631862Y-32922204D01*
X7596223Y-32903154D01*
X7564983Y-32877517D01*
X7539346Y-32846277D01*
X7520296Y-32810638D01*
X7508565Y-32771968D01*
X7504000Y-32725612D01*
X7504000Y-32074388D01*
X7508565Y-32028032D01*
X7520296Y-31989362D01*
X7539346Y-31953723D01*
X7564983Y-31922483D01*
X7596223Y-31896846D01*
X7631862Y-31877796D01*
X7670532Y-31866065D01*
X7716888Y-31861500D01*
X8793112Y-31861500D01*
X8839468Y-31866065D01*
X8839468Y-31866065D01*
G37*
G36*
X6870968Y-31866065D02*
G01*
X6909638Y-31877796D01*
X6945277Y-31896846D01*
X6976517Y-31922483D01*
X7002154Y-31953723D01*
X7021204Y-31989362D01*
X7032935Y-32028032D01*
X7037500Y-32074388D01*
X7037500Y-32725612D01*
X7032935Y-32771968D01*
X7021204Y-32810638D01*
X7002154Y-32846277D01*
X6976517Y-32877517D01*
X6945277Y-32903154D01*
X6909638Y-32922204D01*
X6870968Y-32933935D01*
X6824612Y-32938500D01*
X5748388Y-32938500D01*
X5702032Y-32933935D01*
X5663362Y-32922204D01*
X5627723Y-32903154D01*
X5596483Y-32877517D01*
X5570846Y-32846277D01*
X5551796Y-32810638D01*
X5540065Y-32771968D01*
X5535500Y-32725612D01*
X5535500Y-32074388D01*
X5540065Y-32028032D01*
X5551796Y-31989362D01*
X5570846Y-31953723D01*
X5596483Y-31922483D01*
X5627723Y-31896846D01*
X5663362Y-31877796D01*
X5702032Y-31866065D01*
X5748388Y-31861500D01*
X6824612Y-31861500D01*
X6870968Y-31866065D01*
X6870968Y-31866065D01*
G37*
G36*
X-12242532Y-30375565D02*
G01*
X-12203862Y-30387296D01*
X-12168223Y-30406346D01*
X-12136983Y-30431983D01*
X-12111346Y-30463223D01*
X-12092296Y-30498862D01*
X-12080565Y-30537532D01*
X-12076000Y-30583888D01*
X-12076000Y-31235112D01*
X-12080565Y-31281468D01*
X-12092296Y-31320138D01*
X-12111346Y-31355777D01*
X-12136983Y-31387017D01*
X-12168223Y-31412654D01*
X-12203862Y-31431704D01*
X-12242532Y-31443435D01*
X-12288888Y-31448000D01*
X-13365112Y-31448000D01*
X-13411468Y-31443435D01*
X-13450138Y-31431704D01*
X-13485777Y-31412654D01*
X-13517017Y-31387017D01*
X-13542654Y-31355777D01*
X-13561704Y-31320138D01*
X-13573435Y-31281468D01*
X-13578000Y-31235112D01*
X-13578000Y-30583888D01*
X-13573435Y-30537532D01*
X-13561704Y-30498862D01*
X-13542654Y-30463223D01*
X-13517017Y-30431983D01*
X-13485777Y-30406346D01*
X-13450138Y-30387296D01*
X-13411468Y-30375565D01*
X-13365112Y-30371000D01*
X-12288888Y-30371000D01*
X-12242532Y-30375565D01*
X-12242532Y-30375565D01*
G37*
G36*
X-6337032Y-30375565D02*
G01*
X-6298362Y-30387296D01*
X-6262723Y-30406346D01*
X-6231483Y-30431983D01*
X-6205846Y-30463223D01*
X-6186796Y-30498862D01*
X-6175065Y-30537532D01*
X-6170500Y-30583888D01*
X-6170500Y-31235112D01*
X-6175065Y-31281468D01*
X-6186796Y-31320138D01*
X-6205846Y-31355777D01*
X-6231483Y-31387017D01*
X-6262723Y-31412654D01*
X-6298362Y-31431704D01*
X-6337032Y-31443435D01*
X-6383388Y-31448000D01*
X-7459612Y-31448000D01*
X-7505968Y-31443435D01*
X-7544638Y-31431704D01*
X-7580277Y-31412654D01*
X-7611517Y-31387017D01*
X-7637154Y-31355777D01*
X-7656204Y-31320138D01*
X-7667935Y-31281468D01*
X-7672500Y-31235112D01*
X-7672500Y-30583888D01*
X-7667935Y-30537532D01*
X-7656204Y-30498862D01*
X-7637154Y-30463223D01*
X-7611517Y-30431983D01*
X-7580277Y-30406346D01*
X-7544638Y-30387296D01*
X-7505968Y-30375565D01*
X-7459612Y-30371000D01*
X-6383388Y-30371000D01*
X-6337032Y-30375565D01*
X-6337032Y-30375565D01*
G37*
G36*
X-10274032Y-30375565D02*
G01*
X-10235362Y-30387296D01*
X-10199723Y-30406346D01*
X-10168483Y-30431983D01*
X-10142846Y-30463223D01*
X-10123796Y-30498862D01*
X-10112065Y-30537532D01*
X-10107500Y-30583888D01*
X-10107500Y-31235112D01*
X-10112065Y-31281468D01*
X-10123796Y-31320138D01*
X-10142846Y-31355777D01*
X-10168483Y-31387017D01*
X-10199723Y-31412654D01*
X-10235362Y-31431704D01*
X-10274032Y-31443435D01*
X-10320388Y-31448000D01*
X-11396612Y-31448000D01*
X-11442968Y-31443435D01*
X-11481638Y-31431704D01*
X-11517277Y-31412654D01*
X-11548517Y-31387017D01*
X-11574154Y-31355777D01*
X-11593204Y-31320138D01*
X-11604935Y-31281468D01*
X-11609500Y-31235112D01*
X-11609500Y-30583888D01*
X-11604935Y-30537532D01*
X-11593204Y-30498862D01*
X-11574154Y-30463223D01*
X-11548517Y-30431983D01*
X-11517277Y-30406346D01*
X-11481638Y-30387296D01*
X-11442968Y-30375565D01*
X-11396612Y-30371000D01*
X-10320388Y-30371000D01*
X-10274032Y-30375565D01*
X-10274032Y-30375565D01*
G37*
G36*
X-4368532Y-30375565D02*
G01*
X-4329862Y-30387296D01*
X-4294223Y-30406346D01*
X-4262983Y-30431983D01*
X-4237346Y-30463223D01*
X-4218296Y-30498862D01*
X-4206565Y-30537532D01*
X-4202000Y-30583888D01*
X-4202000Y-31235112D01*
X-4206565Y-31281468D01*
X-4218296Y-31320138D01*
X-4237346Y-31355777D01*
X-4262983Y-31387017D01*
X-4294223Y-31412654D01*
X-4329862Y-31431704D01*
X-4368532Y-31443435D01*
X-4414888Y-31448000D01*
X-5491112Y-31448000D01*
X-5537468Y-31443435D01*
X-5576138Y-31431704D01*
X-5611777Y-31412654D01*
X-5643017Y-31387017D01*
X-5668654Y-31355777D01*
X-5687704Y-31320138D01*
X-5699435Y-31281468D01*
X-5704000Y-31235112D01*
X-5704000Y-30583888D01*
X-5699435Y-30537532D01*
X-5687704Y-30498862D01*
X-5668654Y-30463223D01*
X-5643017Y-30431983D01*
X-5611777Y-30406346D01*
X-5576138Y-30387296D01*
X-5537468Y-30375565D01*
X-5491112Y-30371000D01*
X-4414888Y-30371000D01*
X-4368532Y-30375565D01*
X-4368532Y-30375565D01*
G37*
G36*
X-8305532Y-30375565D02*
G01*
X-8266862Y-30387296D01*
X-8231223Y-30406346D01*
X-8199983Y-30431983D01*
X-8174346Y-30463223D01*
X-8155296Y-30498862D01*
X-8143565Y-30537532D01*
X-8139000Y-30583888D01*
X-8139000Y-31235112D01*
X-8143565Y-31281468D01*
X-8155296Y-31320138D01*
X-8174346Y-31355777D01*
X-8199983Y-31387017D01*
X-8231223Y-31412654D01*
X-8266862Y-31431704D01*
X-8305532Y-31443435D01*
X-8351888Y-31448000D01*
X-9428112Y-31448000D01*
X-9474468Y-31443435D01*
X-9513138Y-31431704D01*
X-9548777Y-31412654D01*
X-9580017Y-31387017D01*
X-9605654Y-31355777D01*
X-9624704Y-31320138D01*
X-9636435Y-31281468D01*
X-9641000Y-31235112D01*
X-9641000Y-30583888D01*
X-9636435Y-30537532D01*
X-9624704Y-30498862D01*
X-9605654Y-30463223D01*
X-9580017Y-30431983D01*
X-9548777Y-30406346D01*
X-9513138Y-30387296D01*
X-9474468Y-30375565D01*
X-9428112Y-30371000D01*
X-8351888Y-30371000D01*
X-8305532Y-30375565D01*
X-8305532Y-30375565D01*
G37*
G36*
X8140104Y-30001847D02*
G01*
X8176644Y-30012932D01*
X8210321Y-30030933D01*
X8239841Y-30055159D01*
X8264067Y-30084679D01*
X8282068Y-30118356D01*
X8293153Y-30154896D01*
X8297500Y-30199038D01*
X8297500Y-31147962D01*
X8293153Y-31192104D01*
X8282068Y-31228644D01*
X8264067Y-31262321D01*
X8239841Y-31291841D01*
X8210321Y-31316067D01*
X8176644Y-31334068D01*
X8140104Y-31345153D01*
X8095962Y-31349500D01*
X5747038Y-31349500D01*
X5702896Y-31345153D01*
X5666356Y-31334068D01*
X5632679Y-31316067D01*
X5603159Y-31291841D01*
X5578933Y-31262321D01*
X5560932Y-31228644D01*
X5549847Y-31192104D01*
X5545500Y-31147962D01*
X5545500Y-30199038D01*
X5549847Y-30154896D01*
X5560932Y-30118356D01*
X5578933Y-30084679D01*
X5603159Y-30055159D01*
X5632679Y-30030933D01*
X5666356Y-30012932D01*
X5702896Y-30001847D01*
X5747038Y-29997500D01*
X8095962Y-29997500D01*
X8140104Y-30001847D01*
X8140104Y-30001847D01*
G37*
G36*
X11378604Y-30001847D02*
G01*
X11415144Y-30012932D01*
X11448821Y-30030933D01*
X11478341Y-30055159D01*
X11502567Y-30084679D01*
X11520568Y-30118356D01*
X11531653Y-30154896D01*
X11536000Y-30199038D01*
X11536000Y-31147962D01*
X11531653Y-31192104D01*
X11520568Y-31228644D01*
X11502567Y-31262321D01*
X11478341Y-31291841D01*
X11448821Y-31316067D01*
X11415144Y-31334068D01*
X11378604Y-31345153D01*
X11334462Y-31349500D01*
X8985538Y-31349500D01*
X8941396Y-31345153D01*
X8904856Y-31334068D01*
X8871179Y-31316067D01*
X8841659Y-31291841D01*
X8817433Y-31262321D01*
X8799432Y-31228644D01*
X8788347Y-31192104D01*
X8784000Y-31147962D01*
X8784000Y-30199038D01*
X8788347Y-30154896D01*
X8799432Y-30118356D01*
X8817433Y-30084679D01*
X8841659Y-30055159D01*
X8871179Y-30030933D01*
X8904856Y-30012932D01*
X8941396Y-30001847D01*
X8985538Y-29997500D01*
X11334462Y-29997500D01*
X11378604Y-30001847D01*
X11378604Y-30001847D01*
G37*
G36*
X5118000Y-31327500D02*
G01*
X216000Y-31327500D01*
X216000Y-26505500D01*
X5118000Y-26505500D01*
X5118000Y-31327500D01*
X5118000Y-31327500D01*
G37*
G36*
X-10274032Y-28500565D02*
G01*
X-10235362Y-28512296D01*
X-10199723Y-28531346D01*
X-10168483Y-28556983D01*
X-10142846Y-28588223D01*
X-10123796Y-28623862D01*
X-10112065Y-28662532D01*
X-10107500Y-28708888D01*
X-10107500Y-29360112D01*
X-10112065Y-29406468D01*
X-10123796Y-29445138D01*
X-10142846Y-29480777D01*
X-10168483Y-29512017D01*
X-10199723Y-29537654D01*
X-10235362Y-29556704D01*
X-10274032Y-29568435D01*
X-10320388Y-29573000D01*
X-11396612Y-29573000D01*
X-11442968Y-29568435D01*
X-11481638Y-29556704D01*
X-11517277Y-29537654D01*
X-11548517Y-29512017D01*
X-11574154Y-29480777D01*
X-11593204Y-29445138D01*
X-11604935Y-29406468D01*
X-11609500Y-29360112D01*
X-11609500Y-28708888D01*
X-11604935Y-28662532D01*
X-11593204Y-28623862D01*
X-11574154Y-28588223D01*
X-11548517Y-28556983D01*
X-11517277Y-28531346D01*
X-11481638Y-28512296D01*
X-11442968Y-28500565D01*
X-11396612Y-28496000D01*
X-10320388Y-28496000D01*
X-10274032Y-28500565D01*
X-10274032Y-28500565D01*
G37*
G36*
X-8305532Y-28500565D02*
G01*
X-8266862Y-28512296D01*
X-8231223Y-28531346D01*
X-8199983Y-28556983D01*
X-8174346Y-28588223D01*
X-8155296Y-28623862D01*
X-8143565Y-28662532D01*
X-8139000Y-28708888D01*
X-8139000Y-29360112D01*
X-8143565Y-29406468D01*
X-8155296Y-29445138D01*
X-8174346Y-29480777D01*
X-8199983Y-29512017D01*
X-8231223Y-29537654D01*
X-8266862Y-29556704D01*
X-8305532Y-29568435D01*
X-8351888Y-29573000D01*
X-9428112Y-29573000D01*
X-9474468Y-29568435D01*
X-9513138Y-29556704D01*
X-9548777Y-29537654D01*
X-9580017Y-29512017D01*
X-9605654Y-29480777D01*
X-9624704Y-29445138D01*
X-9636435Y-29406468D01*
X-9641000Y-29360112D01*
X-9641000Y-28708888D01*
X-9636435Y-28662532D01*
X-9624704Y-28623862D01*
X-9605654Y-28588223D01*
X-9580017Y-28556983D01*
X-9548777Y-28531346D01*
X-9513138Y-28512296D01*
X-9474468Y-28500565D01*
X-9428112Y-28496000D01*
X-8351888Y-28496000D01*
X-8305532Y-28500565D01*
X-8305532Y-28500565D01*
G37*
G36*
X-6337032Y-28500565D02*
G01*
X-6298362Y-28512296D01*
X-6262723Y-28531346D01*
X-6231483Y-28556983D01*
X-6205846Y-28588223D01*
X-6186796Y-28623862D01*
X-6175065Y-28662532D01*
X-6170500Y-28708888D01*
X-6170500Y-29360112D01*
X-6175065Y-29406468D01*
X-6186796Y-29445138D01*
X-6205846Y-29480777D01*
X-6231483Y-29512017D01*
X-6262723Y-29537654D01*
X-6298362Y-29556704D01*
X-6337032Y-29568435D01*
X-6383388Y-29573000D01*
X-7459612Y-29573000D01*
X-7505968Y-29568435D01*
X-7544638Y-29556704D01*
X-7580277Y-29537654D01*
X-7611517Y-29512017D01*
X-7637154Y-29480777D01*
X-7656204Y-29445138D01*
X-7667935Y-29406468D01*
X-7672500Y-29360112D01*
X-7672500Y-28708888D01*
X-7667935Y-28662532D01*
X-7656204Y-28623862D01*
X-7637154Y-28588223D01*
X-7611517Y-28556983D01*
X-7580277Y-28531346D01*
X-7544638Y-28512296D01*
X-7505968Y-28500565D01*
X-7459612Y-28496000D01*
X-6383388Y-28496000D01*
X-6337032Y-28500565D01*
X-6337032Y-28500565D01*
G37*
G36*
X-4368532Y-28500565D02*
G01*
X-4329862Y-28512296D01*
X-4294223Y-28531346D01*
X-4262983Y-28556983D01*
X-4237346Y-28588223D01*
X-4218296Y-28623862D01*
X-4206565Y-28662532D01*
X-4202000Y-28708888D01*
X-4202000Y-29360112D01*
X-4206565Y-29406468D01*
X-4218296Y-29445138D01*
X-4237346Y-29480777D01*
X-4262983Y-29512017D01*
X-4294223Y-29537654D01*
X-4329862Y-29556704D01*
X-4368532Y-29568435D01*
X-4414888Y-29573000D01*
X-5491112Y-29573000D01*
X-5537468Y-29568435D01*
X-5576138Y-29556704D01*
X-5611777Y-29537654D01*
X-5643017Y-29512017D01*
X-5668654Y-29480777D01*
X-5687704Y-29445138D01*
X-5699435Y-29406468D01*
X-5704000Y-29360112D01*
X-5704000Y-28708888D01*
X-5699435Y-28662532D01*
X-5687704Y-28623862D01*
X-5668654Y-28588223D01*
X-5643017Y-28556983D01*
X-5611777Y-28531346D01*
X-5576138Y-28512296D01*
X-5537468Y-28500565D01*
X-5491112Y-28496000D01*
X-4414888Y-28496000D01*
X-4368532Y-28500565D01*
X-4368532Y-28500565D01*
G37*
G36*
X-12242532Y-28500565D02*
G01*
X-12203862Y-28512296D01*
X-12168223Y-28531346D01*
X-12136983Y-28556983D01*
X-12111346Y-28588223D01*
X-12092296Y-28623862D01*
X-12080565Y-28662532D01*
X-12076000Y-28708888D01*
X-12076000Y-29360112D01*
X-12080565Y-29406468D01*
X-12092296Y-29445138D01*
X-12111346Y-29480777D01*
X-12136983Y-29512017D01*
X-12168223Y-29537654D01*
X-12203862Y-29556704D01*
X-12242532Y-29568435D01*
X-12288888Y-29573000D01*
X-13365112Y-29573000D01*
X-13411468Y-29568435D01*
X-13450138Y-29556704D01*
X-13485777Y-29537654D01*
X-13517017Y-29512017D01*
X-13542654Y-29480777D01*
X-13561704Y-29445138D01*
X-13573435Y-29406468D01*
X-13578000Y-29360112D01*
X-13578000Y-28708888D01*
X-13573435Y-28662532D01*
X-13561704Y-28623862D01*
X-13542654Y-28588223D01*
X-13517017Y-28556983D01*
X-13485777Y-28531346D01*
X-13450138Y-28512296D01*
X-13411468Y-28500565D01*
X-13365112Y-28496000D01*
X-12288888Y-28496000D01*
X-12242532Y-28500565D01*
X-12242532Y-28500565D01*
G37*
G36*
X8140104Y-27201847D02*
G01*
X8176644Y-27212932D01*
X8210321Y-27230933D01*
X8239841Y-27255159D01*
X8264067Y-27284679D01*
X8282068Y-27318356D01*
X8293153Y-27354896D01*
X8297500Y-27399038D01*
X8297500Y-28347962D01*
X8293153Y-28392104D01*
X8282068Y-28428644D01*
X8264067Y-28462321D01*
X8239841Y-28491841D01*
X8210321Y-28516067D01*
X8176644Y-28534068D01*
X8140104Y-28545153D01*
X8095962Y-28549500D01*
X5747038Y-28549500D01*
X5702896Y-28545153D01*
X5666356Y-28534068D01*
X5632679Y-28516067D01*
X5603159Y-28491841D01*
X5578933Y-28462321D01*
X5560932Y-28428644D01*
X5549847Y-28392104D01*
X5545500Y-28347962D01*
X5545500Y-27399038D01*
X5549847Y-27354896D01*
X5560932Y-27318356D01*
X5578933Y-27284679D01*
X5603159Y-27255159D01*
X5632679Y-27230933D01*
X5666356Y-27212932D01*
X5702896Y-27201847D01*
X5747038Y-27197500D01*
X8095962Y-27197500D01*
X8140104Y-27201847D01*
X8140104Y-27201847D01*
G37*
G36*
X11378604Y-27201847D02*
G01*
X11415144Y-27212932D01*
X11448821Y-27230933D01*
X11478341Y-27255159D01*
X11502567Y-27284679D01*
X11520568Y-27318356D01*
X11531653Y-27354896D01*
X11536000Y-27399038D01*
X11536000Y-28347962D01*
X11531653Y-28392104D01*
X11520568Y-28428644D01*
X11502567Y-28462321D01*
X11478341Y-28491841D01*
X11448821Y-28516067D01*
X11415144Y-28534068D01*
X11378604Y-28545153D01*
X11334462Y-28549500D01*
X8985538Y-28549500D01*
X8941396Y-28545153D01*
X8904856Y-28534068D01*
X8871179Y-28516067D01*
X8841659Y-28491841D01*
X8817433Y-28462321D01*
X8799432Y-28428644D01*
X8788347Y-28392104D01*
X8784000Y-28347962D01*
X8784000Y-27399038D01*
X8788347Y-27354896D01*
X8799432Y-27318356D01*
X8817433Y-27284679D01*
X8841659Y-27255159D01*
X8871179Y-27230933D01*
X8904856Y-27212932D01*
X8941396Y-27201847D01*
X8985538Y-27197500D01*
X11334462Y-27197500D01*
X11378604Y-27201847D01*
X11378604Y-27201847D01*
G37*
G36*
X-10274032Y-26946565D02*
G01*
X-10235362Y-26958296D01*
X-10199723Y-26977346D01*
X-10168483Y-27002983D01*
X-10142846Y-27034223D01*
X-10123796Y-27069862D01*
X-10112065Y-27108532D01*
X-10107500Y-27154888D01*
X-10107500Y-27806112D01*
X-10112065Y-27852468D01*
X-10123796Y-27891138D01*
X-10142846Y-27926777D01*
X-10168483Y-27958017D01*
X-10199723Y-27983654D01*
X-10235362Y-28002704D01*
X-10274032Y-28014435D01*
X-10320388Y-28019000D01*
X-11396612Y-28019000D01*
X-11442968Y-28014435D01*
X-11481638Y-28002704D01*
X-11517277Y-27983654D01*
X-11548517Y-27958017D01*
X-11574154Y-27926777D01*
X-11593204Y-27891138D01*
X-11604935Y-27852468D01*
X-11609500Y-27806112D01*
X-11609500Y-27154888D01*
X-11604935Y-27108532D01*
X-11593204Y-27069862D01*
X-11574154Y-27034223D01*
X-11548517Y-27002983D01*
X-11517277Y-26977346D01*
X-11481638Y-26958296D01*
X-11442968Y-26946565D01*
X-11396612Y-26942000D01*
X-10320388Y-26942000D01*
X-10274032Y-26946565D01*
X-10274032Y-26946565D01*
G37*
G36*
X-6337032Y-26946565D02*
G01*
X-6298362Y-26958296D01*
X-6262723Y-26977346D01*
X-6231483Y-27002983D01*
X-6205846Y-27034223D01*
X-6186796Y-27069862D01*
X-6175065Y-27108532D01*
X-6170500Y-27154888D01*
X-6170500Y-27806112D01*
X-6175065Y-27852468D01*
X-6186796Y-27891138D01*
X-6205846Y-27926777D01*
X-6231483Y-27958017D01*
X-6262723Y-27983654D01*
X-6298362Y-28002704D01*
X-6337032Y-28014435D01*
X-6383388Y-28019000D01*
X-7459612Y-28019000D01*
X-7505968Y-28014435D01*
X-7544638Y-28002704D01*
X-7580277Y-27983654D01*
X-7611517Y-27958017D01*
X-7637154Y-27926777D01*
X-7656204Y-27891138D01*
X-7667935Y-27852468D01*
X-7672500Y-27806112D01*
X-7672500Y-27154888D01*
X-7667935Y-27108532D01*
X-7656204Y-27069862D01*
X-7637154Y-27034223D01*
X-7611517Y-27002983D01*
X-7580277Y-26977346D01*
X-7544638Y-26958296D01*
X-7505968Y-26946565D01*
X-7459612Y-26942000D01*
X-6383388Y-26942000D01*
X-6337032Y-26946565D01*
X-6337032Y-26946565D01*
G37*
G36*
X-4368532Y-26946565D02*
G01*
X-4329862Y-26958296D01*
X-4294223Y-26977346D01*
X-4262983Y-27002983D01*
X-4237346Y-27034223D01*
X-4218296Y-27069862D01*
X-4206565Y-27108532D01*
X-4202000Y-27154888D01*
X-4202000Y-27806112D01*
X-4206565Y-27852468D01*
X-4218296Y-27891138D01*
X-4237346Y-27926777D01*
X-4262983Y-27958017D01*
X-4294223Y-27983654D01*
X-4329862Y-28002704D01*
X-4368532Y-28014435D01*
X-4414888Y-28019000D01*
X-5491112Y-28019000D01*
X-5537468Y-28014435D01*
X-5576138Y-28002704D01*
X-5611777Y-27983654D01*
X-5643017Y-27958017D01*
X-5668654Y-27926777D01*
X-5687704Y-27891138D01*
X-5699435Y-27852468D01*
X-5704000Y-27806112D01*
X-5704000Y-27154888D01*
X-5699435Y-27108532D01*
X-5687704Y-27069862D01*
X-5668654Y-27034223D01*
X-5643017Y-27002983D01*
X-5611777Y-26977346D01*
X-5576138Y-26958296D01*
X-5537468Y-26946565D01*
X-5491112Y-26942000D01*
X-4414888Y-26942000D01*
X-4368532Y-26946565D01*
X-4368532Y-26946565D01*
G37*
G36*
X-12242532Y-26946565D02*
G01*
X-12203862Y-26958296D01*
X-12168223Y-26977346D01*
X-12136983Y-27002983D01*
X-12111346Y-27034223D01*
X-12092296Y-27069862D01*
X-12080565Y-27108532D01*
X-12076000Y-27154888D01*
X-12076000Y-27806112D01*
X-12080565Y-27852468D01*
X-12092296Y-27891138D01*
X-12111346Y-27926777D01*
X-12136983Y-27958017D01*
X-12168223Y-27983654D01*
X-12203862Y-28002704D01*
X-12242532Y-28014435D01*
X-12288888Y-28019000D01*
X-13365112Y-28019000D01*
X-13411468Y-28014435D01*
X-13450138Y-28002704D01*
X-13485777Y-27983654D01*
X-13517017Y-27958017D01*
X-13542654Y-27926777D01*
X-13561704Y-27891138D01*
X-13573435Y-27852468D01*
X-13578000Y-27806112D01*
X-13578000Y-27154888D01*
X-13573435Y-27108532D01*
X-13561704Y-27069862D01*
X-13542654Y-27034223D01*
X-13517017Y-27002983D01*
X-13485777Y-26977346D01*
X-13450138Y-26958296D01*
X-13411468Y-26946565D01*
X-13365112Y-26942000D01*
X-12288888Y-26942000D01*
X-12242532Y-26946565D01*
X-12242532Y-26946565D01*
G37*
G36*
X-8305532Y-26946565D02*
G01*
X-8266862Y-26958296D01*
X-8231223Y-26977346D01*
X-8199983Y-27002983D01*
X-8174346Y-27034223D01*
X-8155296Y-27069862D01*
X-8143565Y-27108532D01*
X-8139000Y-27154888D01*
X-8139000Y-27806112D01*
X-8143565Y-27852468D01*
X-8155296Y-27891138D01*
X-8174346Y-27926777D01*
X-8199983Y-27958017D01*
X-8231223Y-27983654D01*
X-8266862Y-28002704D01*
X-8305532Y-28014435D01*
X-8351888Y-28019000D01*
X-9428112Y-28019000D01*
X-9474468Y-28014435D01*
X-9513138Y-28002704D01*
X-9548777Y-27983654D01*
X-9580017Y-27958017D01*
X-9605654Y-27926777D01*
X-9624704Y-27891138D01*
X-9636435Y-27852468D01*
X-9641000Y-27806112D01*
X-9641000Y-27154888D01*
X-9636435Y-27108532D01*
X-9624704Y-27069862D01*
X-9605654Y-27034223D01*
X-9580017Y-27002983D01*
X-9548777Y-26977346D01*
X-9513138Y-26958296D01*
X-9474468Y-26946565D01*
X-9428112Y-26942000D01*
X-8351888Y-26942000D01*
X-8305532Y-26946565D01*
X-8305532Y-26946565D01*
G37*
G36*
X-605500Y-27817000D02*
G01*
X-3077500Y-27817000D01*
X-3077500Y-27015000D01*
X-605500Y-27015000D01*
X-605500Y-27817000D01*
X-605500Y-27817000D01*
G37*
G36*
X-605500Y-26467000D02*
G01*
X-3077500Y-26467000D01*
X-3077500Y-24215000D01*
X-605500Y-24215000D01*
X-605500Y-26467000D01*
X-605500Y-26467000D01*
G37*
G36*
X-6337032Y-25071565D02*
G01*
X-6298362Y-25083296D01*
X-6262723Y-25102346D01*
X-6231483Y-25127983D01*
X-6205846Y-25159223D01*
X-6186796Y-25194862D01*
X-6175065Y-25233532D01*
X-6170500Y-25279888D01*
X-6170500Y-25931112D01*
X-6175065Y-25977468D01*
X-6186796Y-26016138D01*
X-6205846Y-26051777D01*
X-6231483Y-26083017D01*
X-6262723Y-26108654D01*
X-6298362Y-26127704D01*
X-6337032Y-26139435D01*
X-6383388Y-26144000D01*
X-7459612Y-26144000D01*
X-7505968Y-26139435D01*
X-7544638Y-26127704D01*
X-7580277Y-26108654D01*
X-7611517Y-26083017D01*
X-7637154Y-26051777D01*
X-7656204Y-26016138D01*
X-7667935Y-25977468D01*
X-7672500Y-25931112D01*
X-7672500Y-25279888D01*
X-7667935Y-25233532D01*
X-7656204Y-25194862D01*
X-7637154Y-25159223D01*
X-7611517Y-25127983D01*
X-7580277Y-25102346D01*
X-7544638Y-25083296D01*
X-7505968Y-25071565D01*
X-7459612Y-25067000D01*
X-6383388Y-25067000D01*
X-6337032Y-25071565D01*
X-6337032Y-25071565D01*
G37*
G36*
X-8305532Y-25071565D02*
G01*
X-8266862Y-25083296D01*
X-8231223Y-25102346D01*
X-8199983Y-25127983D01*
X-8174346Y-25159223D01*
X-8155296Y-25194862D01*
X-8143565Y-25233532D01*
X-8139000Y-25279888D01*
X-8139000Y-25931112D01*
X-8143565Y-25977468D01*
X-8155296Y-26016138D01*
X-8174346Y-26051777D01*
X-8199983Y-26083017D01*
X-8231223Y-26108654D01*
X-8266862Y-26127704D01*
X-8305532Y-26139435D01*
X-8351888Y-26144000D01*
X-9428112Y-26144000D01*
X-9474468Y-26139435D01*
X-9513138Y-26127704D01*
X-9548777Y-26108654D01*
X-9580017Y-26083017D01*
X-9605654Y-26051777D01*
X-9624704Y-26016138D01*
X-9636435Y-25977468D01*
X-9641000Y-25931112D01*
X-9641000Y-25279888D01*
X-9636435Y-25233532D01*
X-9624704Y-25194862D01*
X-9605654Y-25159223D01*
X-9580017Y-25127983D01*
X-9548777Y-25102346D01*
X-9513138Y-25083296D01*
X-9474468Y-25071565D01*
X-9428112Y-25067000D01*
X-8351888Y-25067000D01*
X-8305532Y-25071565D01*
X-8305532Y-25071565D01*
G37*
G36*
X-10274032Y-25071565D02*
G01*
X-10235362Y-25083296D01*
X-10199723Y-25102346D01*
X-10168483Y-25127983D01*
X-10142846Y-25159223D01*
X-10123796Y-25194862D01*
X-10112065Y-25233532D01*
X-10107500Y-25279888D01*
X-10107500Y-25931112D01*
X-10112065Y-25977468D01*
X-10123796Y-26016138D01*
X-10142846Y-26051777D01*
X-10168483Y-26083017D01*
X-10199723Y-26108654D01*
X-10235362Y-26127704D01*
X-10274032Y-26139435D01*
X-10320388Y-26144000D01*
X-11396612Y-26144000D01*
X-11442968Y-26139435D01*
X-11481638Y-26127704D01*
X-11517277Y-26108654D01*
X-11548517Y-26083017D01*
X-11574154Y-26051777D01*
X-11593204Y-26016138D01*
X-11604935Y-25977468D01*
X-11609500Y-25931112D01*
X-11609500Y-25279888D01*
X-11604935Y-25233532D01*
X-11593204Y-25194862D01*
X-11574154Y-25159223D01*
X-11548517Y-25127983D01*
X-11517277Y-25102346D01*
X-11481638Y-25083296D01*
X-11442968Y-25071565D01*
X-11396612Y-25067000D01*
X-10320388Y-25067000D01*
X-10274032Y-25071565D01*
X-10274032Y-25071565D01*
G37*
G36*
X-4368532Y-25071565D02*
G01*
X-4329862Y-25083296D01*
X-4294223Y-25102346D01*
X-4262983Y-25127983D01*
X-4237346Y-25159223D01*
X-4218296Y-25194862D01*
X-4206565Y-25233532D01*
X-4202000Y-25279888D01*
X-4202000Y-25931112D01*
X-4206565Y-25977468D01*
X-4218296Y-26016138D01*
X-4237346Y-26051777D01*
X-4262983Y-26083017D01*
X-4294223Y-26108654D01*
X-4329862Y-26127704D01*
X-4368532Y-26139435D01*
X-4414888Y-26144000D01*
X-5491112Y-26144000D01*
X-5537468Y-26139435D01*
X-5576138Y-26127704D01*
X-5611777Y-26108654D01*
X-5643017Y-26083017D01*
X-5668654Y-26051777D01*
X-5687704Y-26016138D01*
X-5699435Y-25977468D01*
X-5704000Y-25931112D01*
X-5704000Y-25279888D01*
X-5699435Y-25233532D01*
X-5687704Y-25194862D01*
X-5668654Y-25159223D01*
X-5643017Y-25127983D01*
X-5611777Y-25102346D01*
X-5576138Y-25083296D01*
X-5537468Y-25071565D01*
X-5491112Y-25067000D01*
X-4414888Y-25067000D01*
X-4368532Y-25071565D01*
X-4368532Y-25071565D01*
G37*
G36*
X-12242532Y-25071565D02*
G01*
X-12203862Y-25083296D01*
X-12168223Y-25102346D01*
X-12136983Y-25127983D01*
X-12111346Y-25159223D01*
X-12092296Y-25194862D01*
X-12080565Y-25233532D01*
X-12076000Y-25279888D01*
X-12076000Y-25931112D01*
X-12080565Y-25977468D01*
X-12092296Y-26016138D01*
X-12111346Y-26051777D01*
X-12136983Y-26083017D01*
X-12168223Y-26108654D01*
X-12203862Y-26127704D01*
X-12242532Y-26139435D01*
X-12288888Y-26144000D01*
X-13365112Y-26144000D01*
X-13411468Y-26139435D01*
X-13450138Y-26127704D01*
X-13485777Y-26108654D01*
X-13517017Y-26083017D01*
X-13542654Y-26051777D01*
X-13561704Y-26016138D01*
X-13573435Y-25977468D01*
X-13578000Y-25931112D01*
X-13578000Y-25279888D01*
X-13573435Y-25233532D01*
X-13561704Y-25194862D01*
X-13542654Y-25159223D01*
X-13517017Y-25127983D01*
X-13485777Y-25102346D01*
X-13450138Y-25083296D01*
X-13411468Y-25071565D01*
X-13365112Y-25067000D01*
X-12288888Y-25067000D01*
X-12242532Y-25071565D01*
X-12242532Y-25071565D01*
G37*
G36*
X2378000Y-25797500D02*
G01*
X876000Y-25797500D01*
X876000Y-24425500D01*
X2378000Y-24425500D01*
X2378000Y-25797500D01*
X2378000Y-25797500D01*
G37*
G36*
X4458000Y-25797500D02*
G01*
X2956000Y-25797500D01*
X2956000Y-24425500D01*
X4458000Y-24425500D01*
X4458000Y-25797500D01*
X4458000Y-25797500D01*
G37*
G36*
X-5054000Y-24592500D02*
G01*
X-11456000Y-24592500D01*
X-11456000Y-23040500D01*
X-5054000Y-23040500D01*
X-5054000Y-24592500D01*
X-5054000Y-24592500D01*
G37*
G36*
X-12242532Y-23517565D02*
G01*
X-12203862Y-23529296D01*
X-12168223Y-23548346D01*
X-12136983Y-23573983D01*
X-12111346Y-23605223D01*
X-12092296Y-23640862D01*
X-12080565Y-23679532D01*
X-12076000Y-23725888D01*
X-12076000Y-24377112D01*
X-12080565Y-24423468D01*
X-12092296Y-24462138D01*
X-12111346Y-24497777D01*
X-12136983Y-24529017D01*
X-12168223Y-24554654D01*
X-12203862Y-24573704D01*
X-12242532Y-24585435D01*
X-12288888Y-24590000D01*
X-13365112Y-24590000D01*
X-13411468Y-24585435D01*
X-13450138Y-24573704D01*
X-13485777Y-24554654D01*
X-13517017Y-24529017D01*
X-13542654Y-24497777D01*
X-13561704Y-24462138D01*
X-13573435Y-24423468D01*
X-13578000Y-24377112D01*
X-13578000Y-23725888D01*
X-13573435Y-23679532D01*
X-13561704Y-23640862D01*
X-13542654Y-23605223D01*
X-13517017Y-23573983D01*
X-13485777Y-23548346D01*
X-13450138Y-23529296D01*
X-13411468Y-23517565D01*
X-13365112Y-23513000D01*
X-12288888Y-23513000D01*
X-12242532Y-23517565D01*
X-12242532Y-23517565D01*
G37*
G36*
X-12242532Y-21642565D02*
G01*
X-12203862Y-21654296D01*
X-12168223Y-21673346D01*
X-12136983Y-21698983D01*
X-12111346Y-21730223D01*
X-12092296Y-21765862D01*
X-12080565Y-21804532D01*
X-12076000Y-21850888D01*
X-12076000Y-22502112D01*
X-12080565Y-22548468D01*
X-12092296Y-22587138D01*
X-12111346Y-22622777D01*
X-12136983Y-22654017D01*
X-12168223Y-22679654D01*
X-12203862Y-22698704D01*
X-12242532Y-22710435D01*
X-12288888Y-22715000D01*
X-13365112Y-22715000D01*
X-13411468Y-22710435D01*
X-13450138Y-22698704D01*
X-13485777Y-22679654D01*
X-13517017Y-22654017D01*
X-13542654Y-22622777D01*
X-13561704Y-22587138D01*
X-13573435Y-22548468D01*
X-13578000Y-22502112D01*
X-13578000Y-21850888D01*
X-13573435Y-21804532D01*
X-13561704Y-21765862D01*
X-13542654Y-21730223D01*
X-13517017Y-21698983D01*
X-13485777Y-21673346D01*
X-13450138Y-21654296D01*
X-13411468Y-21642565D01*
X-13365112Y-21638000D01*
X-12288888Y-21638000D01*
X-12242532Y-21642565D01*
X-12242532Y-21642565D01*
G37*
G36*
X-6029000Y-22517500D02*
G01*
X-10481000Y-22517500D01*
X-10481000Y-19265500D01*
X-6029000Y-19265500D01*
X-6029000Y-22517500D01*
X-6029000Y-22517500D01*
G37*
G36*
X5308500Y-21358000D02*
G01*
X406500Y-21358000D01*
X406500Y-16536000D01*
X5308500Y-16536000D01*
X5308500Y-21358000D01*
X5308500Y-21358000D01*
G37*
G36*
X-205202Y-19894747D02*
G01*
X-169633Y-19905537D01*
X-136861Y-19923054D01*
X-108131Y-19946631D01*
X-84554Y-19975361D01*
X-67037Y-20008133D01*
X-56247Y-20043702D01*
X-52000Y-20086825D01*
X-52000Y-21146175D01*
X-56247Y-21189298D01*
X-67037Y-21224867D01*
X-84554Y-21257639D01*
X-108131Y-21286369D01*
X-136861Y-21309946D01*
X-169633Y-21327463D01*
X-205202Y-21338253D01*
X-248325Y-21342500D01*
X-3307675Y-21342500D01*
X-3350798Y-21338253D01*
X-3386367Y-21327463D01*
X-3419139Y-21309946D01*
X-3447869Y-21286369D01*
X-3471446Y-21257639D01*
X-3488963Y-21224867D01*
X-3499753Y-21189298D01*
X-3504000Y-21146175D01*
X-3504000Y-20086825D01*
X-3499753Y-20043702D01*
X-3488963Y-20008133D01*
X-3471446Y-19975361D01*
X-3447869Y-19946631D01*
X-3419139Y-19923054D01*
X-3386367Y-19905537D01*
X-3350798Y-19894747D01*
X-3307675Y-19890500D01*
X-248325Y-19890500D01*
X-205202Y-19894747D01*
X-205202Y-19894747D01*
G37*
G36*
X-12242532Y-20088565D02*
G01*
X-12203862Y-20100296D01*
X-12168223Y-20119346D01*
X-12136983Y-20144983D01*
X-12111346Y-20176223D01*
X-12092296Y-20211862D01*
X-12080565Y-20250532D01*
X-12076000Y-20296888D01*
X-12076000Y-20948112D01*
X-12080565Y-20994468D01*
X-12092296Y-21033138D01*
X-12111346Y-21068777D01*
X-12136983Y-21100017D01*
X-12168223Y-21125654D01*
X-12203862Y-21144704D01*
X-12242532Y-21156435D01*
X-12288888Y-21161000D01*
X-13365112Y-21161000D01*
X-13411468Y-21156435D01*
X-13450138Y-21144704D01*
X-13485777Y-21125654D01*
X-13517017Y-21100017D01*
X-13542654Y-21068777D01*
X-13561704Y-21033138D01*
X-13573435Y-20994468D01*
X-13578000Y-20948112D01*
X-13578000Y-20296888D01*
X-13573435Y-20250532D01*
X-13561704Y-20211862D01*
X-13542654Y-20176223D01*
X-13517017Y-20144983D01*
X-13485777Y-20119346D01*
X-13450138Y-20100296D01*
X-13411468Y-20088565D01*
X-13365112Y-20084000D01*
X-12288888Y-20084000D01*
X-12242532Y-20088565D01*
X-12242532Y-20088565D01*
G37*
G36*
X10548604Y-17424347D02*
G01*
X10585144Y-17435432D01*
X10618821Y-17453433D01*
X10648341Y-17477659D01*
X10672567Y-17507179D01*
X10690568Y-17540856D01*
X10701653Y-17577396D01*
X10706000Y-17621538D01*
X10706000Y-19970462D01*
X10701653Y-20014604D01*
X10690568Y-20051144D01*
X10672567Y-20084821D01*
X10648341Y-20114341D01*
X10618821Y-20138567D01*
X10585144Y-20156568D01*
X10548604Y-20167653D01*
X10504462Y-20172000D01*
X9555538Y-20172000D01*
X9511396Y-20167653D01*
X9474856Y-20156568D01*
X9441179Y-20138567D01*
X9411659Y-20114341D01*
X9387433Y-20084821D01*
X9369432Y-20051144D01*
X9358347Y-20014604D01*
X9354000Y-19970462D01*
X9354000Y-17621538D01*
X9358347Y-17577396D01*
X9369432Y-17540856D01*
X9387433Y-17507179D01*
X9411659Y-17477659D01*
X9441179Y-17453433D01*
X9474856Y-17435432D01*
X9511396Y-17424347D01*
X9555538Y-17420000D01*
X10504462Y-17420000D01*
X10548604Y-17424347D01*
X10548604Y-17424347D01*
G37*
G36*
X13348604Y-17424347D02*
G01*
X13385144Y-17435432D01*
X13418821Y-17453433D01*
X13448341Y-17477659D01*
X13472567Y-17507179D01*
X13490568Y-17540856D01*
X13501653Y-17577396D01*
X13506000Y-17621538D01*
X13506000Y-19970462D01*
X13501653Y-20014604D01*
X13490568Y-20051144D01*
X13472567Y-20084821D01*
X13448341Y-20114341D01*
X13418821Y-20138567D01*
X13385144Y-20156568D01*
X13348604Y-20167653D01*
X13304462Y-20172000D01*
X12355538Y-20172000D01*
X12311396Y-20167653D01*
X12274856Y-20156568D01*
X12241179Y-20138567D01*
X12211659Y-20114341D01*
X12187433Y-20084821D01*
X12169432Y-20051144D01*
X12158347Y-20014604D01*
X12154000Y-19970462D01*
X12154000Y-17621538D01*
X12158347Y-17577396D01*
X12169432Y-17540856D01*
X12187433Y-17507179D01*
X12211659Y-17477659D01*
X12241179Y-17453433D01*
X12274856Y-17435432D01*
X12311396Y-17424347D01*
X12355538Y-17420000D01*
X13304462Y-17420000D01*
X13348604Y-17424347D01*
X13348604Y-17424347D01*
G37*
G36*
X-12242532Y-18213565D02*
G01*
X-12203862Y-18225296D01*
X-12168223Y-18244346D01*
X-12136983Y-18269983D01*
X-12111346Y-18301223D01*
X-12092296Y-18336862D01*
X-12080565Y-18375532D01*
X-12076000Y-18421888D01*
X-12076000Y-19073112D01*
X-12080565Y-19119468D01*
X-12092296Y-19158138D01*
X-12111346Y-19193777D01*
X-12136983Y-19225017D01*
X-12168223Y-19250654D01*
X-12203862Y-19269704D01*
X-12242532Y-19281435D01*
X-12288888Y-19286000D01*
X-13365112Y-19286000D01*
X-13411468Y-19281435D01*
X-13450138Y-19269704D01*
X-13485777Y-19250654D01*
X-13517017Y-19225017D01*
X-13542654Y-19193777D01*
X-13561704Y-19158138D01*
X-13573435Y-19119468D01*
X-13578000Y-19073112D01*
X-13578000Y-18421888D01*
X-13573435Y-18375532D01*
X-13561704Y-18336862D01*
X-13542654Y-18301223D01*
X-13517017Y-18269983D01*
X-13485777Y-18244346D01*
X-13450138Y-18225296D01*
X-13411468Y-18213565D01*
X-13365112Y-18209000D01*
X-12288888Y-18209000D01*
X-12242532Y-18213565D01*
X-12242532Y-18213565D01*
G37*
G36*
X-5054000Y-18742500D02*
G01*
X-11456000Y-18742500D01*
X-11456000Y-17190500D01*
X-5054000Y-17190500D01*
X-5054000Y-18742500D01*
X-5054000Y-18742500D01*
G37*
G36*
X8568500Y-17930000D02*
G01*
X6026500Y-17930000D01*
X6026500Y-17198000D01*
X8568500Y-17198000D01*
X8568500Y-17930000D01*
X8568500Y-17930000D01*
G37*
G36*
X13348604Y-14185847D02*
G01*
X13385144Y-14196932D01*
X13418821Y-14214933D01*
X13448341Y-14239159D01*
X13472567Y-14268679D01*
X13490568Y-14302356D01*
X13501653Y-14338896D01*
X13506000Y-14383038D01*
X13506000Y-16731962D01*
X13501653Y-16776104D01*
X13490568Y-16812644D01*
X13472567Y-16846321D01*
X13448341Y-16875841D01*
X13418821Y-16900067D01*
X13385144Y-16918068D01*
X13348604Y-16929153D01*
X13304462Y-16933500D01*
X12355538Y-16933500D01*
X12311396Y-16929153D01*
X12274856Y-16918068D01*
X12241179Y-16900067D01*
X12211659Y-16875841D01*
X12187433Y-16846321D01*
X12169432Y-16812644D01*
X12158347Y-16776104D01*
X12154000Y-16731962D01*
X12154000Y-14383038D01*
X12158347Y-14338896D01*
X12169432Y-14302356D01*
X12187433Y-14268679D01*
X12211659Y-14239159D01*
X12241179Y-14214933D01*
X12274856Y-14196932D01*
X12311396Y-14185847D01*
X12355538Y-14181500D01*
X13304462Y-14181500D01*
X13348604Y-14185847D01*
X13348604Y-14185847D01*
G37*
G36*
X10548604Y-14185847D02*
G01*
X10585144Y-14196932D01*
X10618821Y-14214933D01*
X10648341Y-14239159D01*
X10672567Y-14268679D01*
X10690568Y-14302356D01*
X10701653Y-14338896D01*
X10706000Y-14383038D01*
X10706000Y-16731962D01*
X10701653Y-16776104D01*
X10690568Y-16812644D01*
X10672567Y-16846321D01*
X10648341Y-16875841D01*
X10618821Y-16900067D01*
X10585144Y-16918068D01*
X10548604Y-16929153D01*
X10504462Y-16933500D01*
X9555538Y-16933500D01*
X9511396Y-16929153D01*
X9474856Y-16918068D01*
X9441179Y-16900067D01*
X9411659Y-16875841D01*
X9387433Y-16846321D01*
X9369432Y-16812644D01*
X9358347Y-16776104D01*
X9354000Y-16731962D01*
X9354000Y-14383038D01*
X9358347Y-14338896D01*
X9369432Y-14302356D01*
X9387433Y-14268679D01*
X9411659Y-14239159D01*
X9441179Y-14214933D01*
X9474856Y-14196932D01*
X9511396Y-14185847D01*
X9555538Y-14181500D01*
X10504462Y-14181500D01*
X10548604Y-14185847D01*
X10548604Y-14185847D01*
G37*
G36*
X8578500Y-16740000D02*
G01*
X6026500Y-16740000D01*
X6026500Y-14328000D01*
X8578500Y-14328000D01*
X8578500Y-16740000D01*
X8578500Y-16740000D01*
G37*
G36*
X-12242532Y-15658565D02*
G01*
X-12203862Y-15670296D01*
X-12168223Y-15689346D01*
X-12136983Y-15714983D01*
X-12111346Y-15746223D01*
X-12092296Y-15781862D01*
X-12080565Y-15820532D01*
X-12076000Y-15866888D01*
X-12076000Y-16518112D01*
X-12080565Y-16564468D01*
X-12092296Y-16603138D01*
X-12111346Y-16638777D01*
X-12136983Y-16670017D01*
X-12168223Y-16695654D01*
X-12203862Y-16714704D01*
X-12242532Y-16726435D01*
X-12288888Y-16731000D01*
X-13365112Y-16731000D01*
X-13411468Y-16726435D01*
X-13450138Y-16714704D01*
X-13485777Y-16695654D01*
X-13517017Y-16670017D01*
X-13542654Y-16638777D01*
X-13561704Y-16603138D01*
X-13573435Y-16564468D01*
X-13578000Y-16518112D01*
X-13578000Y-15866888D01*
X-13573435Y-15820532D01*
X-13561704Y-15781862D01*
X-13542654Y-15746223D01*
X-13517017Y-15714983D01*
X-13485777Y-15689346D01*
X-13450138Y-15670296D01*
X-13411468Y-15658565D01*
X-13365112Y-15654000D01*
X-12288888Y-15654000D01*
X-12242532Y-15658565D01*
X-12242532Y-15658565D01*
G37*
G36*
X-4368532Y-15643565D02*
G01*
X-4329862Y-15655296D01*
X-4294223Y-15674346D01*
X-4262983Y-15699983D01*
X-4237346Y-15731223D01*
X-4218296Y-15766862D01*
X-4206565Y-15805532D01*
X-4202000Y-15851888D01*
X-4202000Y-16503112D01*
X-4206565Y-16549468D01*
X-4218296Y-16588138D01*
X-4237346Y-16623777D01*
X-4262983Y-16655017D01*
X-4294223Y-16680654D01*
X-4329862Y-16699704D01*
X-4368532Y-16711435D01*
X-4414888Y-16716000D01*
X-5491112Y-16716000D01*
X-5537468Y-16711435D01*
X-5576138Y-16699704D01*
X-5611777Y-16680654D01*
X-5643017Y-16655017D01*
X-5668654Y-16623777D01*
X-5687704Y-16588138D01*
X-5699435Y-16549468D01*
X-5704000Y-16503112D01*
X-5704000Y-15851888D01*
X-5699435Y-15805532D01*
X-5687704Y-15766862D01*
X-5668654Y-15731223D01*
X-5643017Y-15699983D01*
X-5611777Y-15674346D01*
X-5576138Y-15655296D01*
X-5537468Y-15643565D01*
X-5491112Y-15639000D01*
X-4414888Y-15639000D01*
X-4368532Y-15643565D01*
X-4368532Y-15643565D01*
G37*
G36*
X-6337032Y-15643565D02*
G01*
X-6298362Y-15655296D01*
X-6262723Y-15674346D01*
X-6231483Y-15699983D01*
X-6205846Y-15731223D01*
X-6186796Y-15766862D01*
X-6175065Y-15805532D01*
X-6170500Y-15851888D01*
X-6170500Y-16503112D01*
X-6175065Y-16549468D01*
X-6186796Y-16588138D01*
X-6205846Y-16623777D01*
X-6231483Y-16655017D01*
X-6262723Y-16680654D01*
X-6298362Y-16699704D01*
X-6337032Y-16711435D01*
X-6383388Y-16716000D01*
X-7459612Y-16716000D01*
X-7505968Y-16711435D01*
X-7544638Y-16699704D01*
X-7580277Y-16680654D01*
X-7611517Y-16655017D01*
X-7637154Y-16623777D01*
X-7656204Y-16588138D01*
X-7667935Y-16549468D01*
X-7672500Y-16503112D01*
X-7672500Y-15851888D01*
X-7667935Y-15805532D01*
X-7656204Y-15766862D01*
X-7637154Y-15731223D01*
X-7611517Y-15699983D01*
X-7580277Y-15674346D01*
X-7544638Y-15655296D01*
X-7505968Y-15643565D01*
X-7459612Y-15639000D01*
X-6383388Y-15639000D01*
X-6337032Y-15643565D01*
X-6337032Y-15643565D01*
G37*
G36*
X-10274032Y-15643565D02*
G01*
X-10235362Y-15655296D01*
X-10199723Y-15674346D01*
X-10168483Y-15699983D01*
X-10142846Y-15731223D01*
X-10123796Y-15766862D01*
X-10112065Y-15805532D01*
X-10107500Y-15851888D01*
X-10107500Y-16503112D01*
X-10112065Y-16549468D01*
X-10123796Y-16588138D01*
X-10142846Y-16623777D01*
X-10168483Y-16655017D01*
X-10199723Y-16680654D01*
X-10235362Y-16699704D01*
X-10274032Y-16711435D01*
X-10320388Y-16716000D01*
X-11396612Y-16716000D01*
X-11442968Y-16711435D01*
X-11481638Y-16699704D01*
X-11517277Y-16680654D01*
X-11548517Y-16655017D01*
X-11574154Y-16623777D01*
X-11593204Y-16588138D01*
X-11604935Y-16549468D01*
X-11609500Y-16503112D01*
X-11609500Y-15851888D01*
X-11604935Y-15805532D01*
X-11593204Y-15766862D01*
X-11574154Y-15731223D01*
X-11548517Y-15699983D01*
X-11517277Y-15674346D01*
X-11481638Y-15655296D01*
X-11442968Y-15643565D01*
X-11396612Y-15639000D01*
X-10320388Y-15639000D01*
X-10274032Y-15643565D01*
X-10274032Y-15643565D01*
G37*
G36*
X-8305532Y-15643565D02*
G01*
X-8266862Y-15655296D01*
X-8231223Y-15674346D01*
X-8199983Y-15699983D01*
X-8174346Y-15731223D01*
X-8155296Y-15766862D01*
X-8143565Y-15805532D01*
X-8139000Y-15851888D01*
X-8139000Y-16503112D01*
X-8143565Y-16549468D01*
X-8155296Y-16588138D01*
X-8174346Y-16623777D01*
X-8199983Y-16655017D01*
X-8231223Y-16680654D01*
X-8266862Y-16699704D01*
X-8305532Y-16711435D01*
X-8351888Y-16716000D01*
X-9428112Y-16716000D01*
X-9474468Y-16711435D01*
X-9513138Y-16699704D01*
X-9548777Y-16680654D01*
X-9580017Y-16655017D01*
X-9605654Y-16623777D01*
X-9624704Y-16588138D01*
X-9636435Y-16549468D01*
X-9641000Y-16503112D01*
X-9641000Y-15851888D01*
X-9636435Y-15805532D01*
X-9624704Y-15766862D01*
X-9605654Y-15731223D01*
X-9580017Y-15699983D01*
X-9548777Y-15674346D01*
X-9513138Y-15655296D01*
X-9474468Y-15643565D01*
X-9428112Y-15639000D01*
X-8351888Y-15639000D01*
X-8305532Y-15643565D01*
X-8305532Y-15643565D01*
G37*
G36*
X20116149Y-11675464D02*
G01*
X20329633Y-11717929D01*
X20496227Y-11786935D01*
X20731826Y-11884523D01*
X20731827Y-11884524D01*
X21093793Y-12126381D01*
X21401619Y-12434207D01*
X21563223Y-12676065D01*
X21643477Y-12796174D01*
X21741065Y-13031773D01*
X21810071Y-13198367D01*
X21895000Y-13625334D01*
X21895000Y-14060666D01*
X21810071Y-14487633D01*
X21751882Y-14628112D01*
X21643477Y-14889826D01*
X21643476Y-14889827D01*
X21401619Y-15251793D01*
X21093793Y-15559619D01*
X20861273Y-15714983D01*
X20731826Y-15801477D01*
X20496227Y-15899065D01*
X20329633Y-15968071D01*
X20116150Y-16010535D01*
X19902667Y-16053000D01*
X19467333Y-16053000D01*
X19253850Y-16010535D01*
X19040367Y-15968071D01*
X18873773Y-15899065D01*
X18638174Y-15801477D01*
X18508727Y-15714983D01*
X18276207Y-15559619D01*
X17968381Y-15251793D01*
X17726524Y-14889827D01*
X17726523Y-14889826D01*
X17618118Y-14628112D01*
X17559929Y-14487633D01*
X17475000Y-14060666D01*
X17475000Y-13625334D01*
X17559929Y-13198367D01*
X17628935Y-13031773D01*
X17726523Y-12796174D01*
X17806777Y-12676065D01*
X17968381Y-12434207D01*
X18276207Y-12126381D01*
X18638173Y-11884524D01*
X18638174Y-11884523D01*
X18873773Y-11786935D01*
X19040367Y-11717929D01*
X19253851Y-11675464D01*
X19467333Y-11633000D01*
X19902667Y-11633000D01*
X20116149Y-11675464D01*
X20116149Y-11675464D01*
G37*
G36*
X-19253851Y-11675464D02*
G01*
X-19040367Y-11717929D01*
X-18873773Y-11786935D01*
X-18638174Y-11884523D01*
X-18638173Y-11884524D01*
X-18276207Y-12126381D01*
X-17968381Y-12434207D01*
X-17806777Y-12676065D01*
X-17726523Y-12796174D01*
X-17628935Y-13031773D01*
X-17559929Y-13198367D01*
X-17475000Y-13625334D01*
X-17475000Y-14060666D01*
X-17559929Y-14487633D01*
X-17618118Y-14628112D01*
X-17726523Y-14889826D01*
X-17726524Y-14889827D01*
X-17968381Y-15251793D01*
X-18276207Y-15559619D01*
X-18508727Y-15714983D01*
X-18638174Y-15801477D01*
X-18873773Y-15899065D01*
X-19040367Y-15968071D01*
X-19253850Y-16010535D01*
X-19467333Y-16053000D01*
X-19902667Y-16053000D01*
X-20116150Y-16010535D01*
X-20329633Y-15968071D01*
X-20496227Y-15899065D01*
X-20731826Y-15801477D01*
X-20861273Y-15714983D01*
X-21093793Y-15559619D01*
X-21401619Y-15251793D01*
X-21643476Y-14889827D01*
X-21643477Y-14889826D01*
X-21751882Y-14628112D01*
X-21810071Y-14487633D01*
X-21895000Y-14060666D01*
X-21895000Y-13625334D01*
X-21810071Y-13198367D01*
X-21741065Y-13031773D01*
X-21643477Y-12796174D01*
X-21563223Y-12676065D01*
X-21401619Y-12434207D01*
X-21093793Y-12126381D01*
X-20731827Y-11884524D01*
X-20731826Y-11884523D01*
X-20496227Y-11786935D01*
X-20329633Y-11717929D01*
X-20116149Y-11675464D01*
X-19902667Y-11633000D01*
X-19467333Y-11633000D01*
X-19253851Y-11675464D01*
X-19253851Y-11675464D01*
G37*
G36*
X4648500Y-15828000D02*
G01*
X3146500Y-15828000D01*
X3146500Y-14456000D01*
X4648500Y-14456000D01*
X4648500Y-15828000D01*
X4648500Y-15828000D01*
G37*
G36*
X2568500Y-15828000D02*
G01*
X1066500Y-15828000D01*
X1066500Y-14456000D01*
X2568500Y-14456000D01*
X2568500Y-15828000D01*
X2568500Y-15828000D01*
G37*
G36*
X-205202Y-14094747D02*
G01*
X-169633Y-14105537D01*
X-136861Y-14123054D01*
X-108131Y-14146631D01*
X-84554Y-14175361D01*
X-67037Y-14208133D01*
X-56247Y-14243702D01*
X-52000Y-14286825D01*
X-52000Y-15346175D01*
X-56247Y-15389298D01*
X-67037Y-15424867D01*
X-84554Y-15457639D01*
X-108131Y-15486369D01*
X-136861Y-15509946D01*
X-169633Y-15527463D01*
X-205202Y-15538253D01*
X-248325Y-15542500D01*
X-3307675Y-15542500D01*
X-3350798Y-15538253D01*
X-3386367Y-15527463D01*
X-3419139Y-15509946D01*
X-3447869Y-15486369D01*
X-3471446Y-15457639D01*
X-3488963Y-15424867D01*
X-3499753Y-15389298D01*
X-3504000Y-15346175D01*
X-3504000Y-14286825D01*
X-3499753Y-14243702D01*
X-3488963Y-14208133D01*
X-3471446Y-14175361D01*
X-3447869Y-14146631D01*
X-3419139Y-14123054D01*
X-3386367Y-14105537D01*
X-3350798Y-14094747D01*
X-3307675Y-14090500D01*
X-248325Y-14090500D01*
X-205202Y-14094747D01*
X-205202Y-14094747D01*
G37*
G36*
X-12242532Y-13783565D02*
G01*
X-12203862Y-13795296D01*
X-12168223Y-13814346D01*
X-12136983Y-13839983D01*
X-12111346Y-13871223D01*
X-12092296Y-13906862D01*
X-12080565Y-13945532D01*
X-12076000Y-13991888D01*
X-12076000Y-14643112D01*
X-12080565Y-14689468D01*
X-12092296Y-14728138D01*
X-12111346Y-14763777D01*
X-12136983Y-14795017D01*
X-12168223Y-14820654D01*
X-12203862Y-14839704D01*
X-12242532Y-14851435D01*
X-12288888Y-14856000D01*
X-13365112Y-14856000D01*
X-13411468Y-14851435D01*
X-13450138Y-14839704D01*
X-13485777Y-14820654D01*
X-13517017Y-14795017D01*
X-13542654Y-14763777D01*
X-13561704Y-14728138D01*
X-13573435Y-14689468D01*
X-13578000Y-14643112D01*
X-13578000Y-13991888D01*
X-13573435Y-13945532D01*
X-13561704Y-13906862D01*
X-13542654Y-13871223D01*
X-13517017Y-13839983D01*
X-13485777Y-13814346D01*
X-13450138Y-13795296D01*
X-13411468Y-13783565D01*
X-13365112Y-13779000D01*
X-12288888Y-13779000D01*
X-12242532Y-13783565D01*
X-12242532Y-13783565D01*
G37*
G36*
X-4368532Y-13768565D02*
G01*
X-4329862Y-13780296D01*
X-4294223Y-13799346D01*
X-4262983Y-13824983D01*
X-4237346Y-13856223D01*
X-4218296Y-13891862D01*
X-4206565Y-13930532D01*
X-4202000Y-13976888D01*
X-4202000Y-14628112D01*
X-4206565Y-14674468D01*
X-4218296Y-14713138D01*
X-4237346Y-14748777D01*
X-4262983Y-14780017D01*
X-4294223Y-14805654D01*
X-4329862Y-14824704D01*
X-4368532Y-14836435D01*
X-4414888Y-14841000D01*
X-5491112Y-14841000D01*
X-5537468Y-14836435D01*
X-5576138Y-14824704D01*
X-5611777Y-14805654D01*
X-5643017Y-14780017D01*
X-5668654Y-14748777D01*
X-5687704Y-14713138D01*
X-5699435Y-14674468D01*
X-5704000Y-14628112D01*
X-5704000Y-13976888D01*
X-5699435Y-13930532D01*
X-5687704Y-13891862D01*
X-5668654Y-13856223D01*
X-5643017Y-13824983D01*
X-5611777Y-13799346D01*
X-5576138Y-13780296D01*
X-5537468Y-13768565D01*
X-5491112Y-13764000D01*
X-4414888Y-13764000D01*
X-4368532Y-13768565D01*
X-4368532Y-13768565D01*
G37*
G36*
X-8305532Y-13768565D02*
G01*
X-8266862Y-13780296D01*
X-8231223Y-13799346D01*
X-8199983Y-13824983D01*
X-8174346Y-13856223D01*
X-8155296Y-13891862D01*
X-8143565Y-13930532D01*
X-8139000Y-13976888D01*
X-8139000Y-14628112D01*
X-8143565Y-14674468D01*
X-8155296Y-14713138D01*
X-8174346Y-14748777D01*
X-8199983Y-14780017D01*
X-8231223Y-14805654D01*
X-8266862Y-14824704D01*
X-8305532Y-14836435D01*
X-8351888Y-14841000D01*
X-9428112Y-14841000D01*
X-9474468Y-14836435D01*
X-9513138Y-14824704D01*
X-9548777Y-14805654D01*
X-9580017Y-14780017D01*
X-9605654Y-14748777D01*
X-9624704Y-14713138D01*
X-9636435Y-14674468D01*
X-9641000Y-14628112D01*
X-9641000Y-13976888D01*
X-9636435Y-13930532D01*
X-9624704Y-13891862D01*
X-9605654Y-13856223D01*
X-9580017Y-13824983D01*
X-9548777Y-13799346D01*
X-9513138Y-13780296D01*
X-9474468Y-13768565D01*
X-9428112Y-13764000D01*
X-8351888Y-13764000D01*
X-8305532Y-13768565D01*
X-8305532Y-13768565D01*
G37*
G36*
X-6337032Y-13768565D02*
G01*
X-6298362Y-13780296D01*
X-6262723Y-13799346D01*
X-6231483Y-13824983D01*
X-6205846Y-13856223D01*
X-6186796Y-13891862D01*
X-6175065Y-13930532D01*
X-6170500Y-13976888D01*
X-6170500Y-14628112D01*
X-6175065Y-14674468D01*
X-6186796Y-14713138D01*
X-6205846Y-14748777D01*
X-6231483Y-14780017D01*
X-6262723Y-14805654D01*
X-6298362Y-14824704D01*
X-6337032Y-14836435D01*
X-6383388Y-14841000D01*
X-7459612Y-14841000D01*
X-7505968Y-14836435D01*
X-7544638Y-14824704D01*
X-7580277Y-14805654D01*
X-7611517Y-14780017D01*
X-7637154Y-14748777D01*
X-7656204Y-14713138D01*
X-7667935Y-14674468D01*
X-7672500Y-14628112D01*
X-7672500Y-13976888D01*
X-7667935Y-13930532D01*
X-7656204Y-13891862D01*
X-7637154Y-13856223D01*
X-7611517Y-13824983D01*
X-7580277Y-13799346D01*
X-7544638Y-13780296D01*
X-7505968Y-13768565D01*
X-7459612Y-13764000D01*
X-6383388Y-13764000D01*
X-6337032Y-13768565D01*
X-6337032Y-13768565D01*
G37*
G36*
X-10274032Y-13768565D02*
G01*
X-10235362Y-13780296D01*
X-10199723Y-13799346D01*
X-10168483Y-13824983D01*
X-10142846Y-13856223D01*
X-10123796Y-13891862D01*
X-10112065Y-13930532D01*
X-10107500Y-13976888D01*
X-10107500Y-14628112D01*
X-10112065Y-14674468D01*
X-10123796Y-14713138D01*
X-10142846Y-14748777D01*
X-10168483Y-14780017D01*
X-10199723Y-14805654D01*
X-10235362Y-14824704D01*
X-10274032Y-14836435D01*
X-10320388Y-14841000D01*
X-11396612Y-14841000D01*
X-11442968Y-14836435D01*
X-11481638Y-14824704D01*
X-11517277Y-14805654D01*
X-11548517Y-14780017D01*
X-11574154Y-14748777D01*
X-11593204Y-14713138D01*
X-11604935Y-14674468D01*
X-11609500Y-14628112D01*
X-11609500Y-13976888D01*
X-11604935Y-13930532D01*
X-11593204Y-13891862D01*
X-11574154Y-13856223D01*
X-11548517Y-13824983D01*
X-11517277Y-13799346D01*
X-11481638Y-13780296D01*
X-11442968Y-13768565D01*
X-11396612Y-13764000D01*
X-10320388Y-13764000D01*
X-10274032Y-13768565D01*
X-10274032Y-13768565D01*
G37*
G36*
X1157068Y-8270565D02*
G01*
X1195738Y-8282296D01*
X1231377Y-8301346D01*
X1262617Y-8326983D01*
X1288254Y-8358223D01*
X1307304Y-8393862D01*
X1319035Y-8432532D01*
X1323600Y-8478888D01*
X1323600Y-9555112D01*
X1319035Y-9601468D01*
X1307304Y-9640138D01*
X1288254Y-9675777D01*
X1262617Y-9707017D01*
X1231377Y-9732654D01*
X1195738Y-9751704D01*
X1157068Y-9763435D01*
X1110712Y-9768000D01*
X459488Y-9768000D01*
X413132Y-9763435D01*
X374462Y-9751704D01*
X338823Y-9732654D01*
X307583Y-9707017D01*
X281946Y-9675777D01*
X262896Y-9640138D01*
X251165Y-9601468D01*
X246600Y-9555112D01*
X246600Y-8478888D01*
X251165Y-8432532D01*
X262896Y-8393862D01*
X281946Y-8358223D01*
X307583Y-8326983D01*
X338823Y-8301346D01*
X374462Y-8282296D01*
X413132Y-8270565D01*
X459488Y-8266000D01*
X1110712Y-8266000D01*
X1157068Y-8270565D01*
X1157068Y-8270565D01*
G37*
G36*
X-717932Y-8270565D02*
G01*
X-679262Y-8282296D01*
X-643623Y-8301346D01*
X-612383Y-8326983D01*
X-586746Y-8358223D01*
X-567696Y-8393862D01*
X-555965Y-8432532D01*
X-551400Y-8478888D01*
X-551400Y-9555112D01*
X-555965Y-9601468D01*
X-567696Y-9640138D01*
X-586746Y-9675777D01*
X-612383Y-9707017D01*
X-643623Y-9732654D01*
X-679262Y-9751704D01*
X-717932Y-9763435D01*
X-764288Y-9768000D01*
X-1415512Y-9768000D01*
X-1461868Y-9763435D01*
X-1500538Y-9751704D01*
X-1536177Y-9732654D01*
X-1567417Y-9707017D01*
X-1593054Y-9675777D01*
X-1612104Y-9640138D01*
X-1623835Y-9601468D01*
X-1628400Y-9555112D01*
X-1628400Y-8478888D01*
X-1623835Y-8432532D01*
X-1612104Y-8393862D01*
X-1593054Y-8358223D01*
X-1567417Y-8326983D01*
X-1536177Y-8301346D01*
X-1500538Y-8282296D01*
X-1461868Y-8270565D01*
X-1415512Y-8266000D01*
X-764288Y-8266000D01*
X-717932Y-8270565D01*
X-717932Y-8270565D01*
G37*
G36*
X-7999632Y-6937065D02*
G01*
X-7960962Y-6948796D01*
X-7925323Y-6967846D01*
X-7894083Y-6993483D01*
X-7868446Y-7024723D01*
X-7849396Y-7060362D01*
X-7837665Y-7099032D01*
X-7833100Y-7145388D01*
X-7833100Y-8221612D01*
X-7837665Y-8267968D01*
X-7849396Y-8306638D01*
X-7868446Y-8342277D01*
X-7894083Y-8373517D01*
X-7925323Y-8399154D01*
X-7960962Y-8418204D01*
X-7999632Y-8429935D01*
X-8045988Y-8434500D01*
X-8697212Y-8434500D01*
X-8743568Y-8429935D01*
X-8782238Y-8418204D01*
X-8817877Y-8399154D01*
X-8849117Y-8373517D01*
X-8874754Y-8342277D01*
X-8893804Y-8306638D01*
X-8905535Y-8267968D01*
X-8910100Y-8221612D01*
X-8910100Y-7145388D01*
X-8905535Y-7099032D01*
X-8893804Y-7060362D01*
X-8874754Y-7024723D01*
X-8849117Y-6993483D01*
X-8817877Y-6967846D01*
X-8782238Y-6948796D01*
X-8743568Y-6937065D01*
X-8697212Y-6932500D01*
X-8045988Y-6932500D01*
X-7999632Y-6937065D01*
X-7999632Y-6937065D01*
G37*
G36*
X-9874632Y-6937065D02*
G01*
X-9835962Y-6948796D01*
X-9800323Y-6967846D01*
X-9769083Y-6993483D01*
X-9743446Y-7024723D01*
X-9724396Y-7060362D01*
X-9712665Y-7099032D01*
X-9708100Y-7145388D01*
X-9708100Y-8221612D01*
X-9712665Y-8267968D01*
X-9724396Y-8306638D01*
X-9743446Y-8342277D01*
X-9769083Y-8373517D01*
X-9800323Y-8399154D01*
X-9835962Y-8418204D01*
X-9874632Y-8429935D01*
X-9920988Y-8434500D01*
X-10572212Y-8434500D01*
X-10618568Y-8429935D01*
X-10657238Y-8418204D01*
X-10692877Y-8399154D01*
X-10724117Y-8373517D01*
X-10749754Y-8342277D01*
X-10768804Y-8306638D01*
X-10780535Y-8267968D01*
X-10785100Y-8221612D01*
X-10785100Y-7145388D01*
X-10780535Y-7099032D01*
X-10768804Y-7060362D01*
X-10749754Y-7024723D01*
X-10724117Y-6993483D01*
X-10692877Y-6967846D01*
X-10657238Y-6948796D01*
X-10618568Y-6937065D01*
X-10572212Y-6932500D01*
X-9920988Y-6932500D01*
X-9874632Y-6937065D01*
X-9874632Y-6937065D01*
G37*
G36*
X-3200132Y-6474165D02*
G01*
X-3161462Y-6485896D01*
X-3125823Y-6504946D01*
X-3094583Y-6530583D01*
X-3068946Y-6561823D01*
X-3049896Y-6597462D01*
X-3038165Y-6636132D01*
X-3033600Y-6682488D01*
X-3033600Y-7333712D01*
X-3038165Y-7380068D01*
X-3049896Y-7418738D01*
X-3068946Y-7454377D01*
X-3094583Y-7485617D01*
X-3125823Y-7511254D01*
X-3161462Y-7530304D01*
X-3200132Y-7542035D01*
X-3246488Y-7546600D01*
X-4322712Y-7546600D01*
X-4369068Y-7542035D01*
X-4407738Y-7530304D01*
X-4443377Y-7511254D01*
X-4474617Y-7485617D01*
X-4500254Y-7454377D01*
X-4519304Y-7418738D01*
X-4531035Y-7380068D01*
X-4535600Y-7333712D01*
X-4535600Y-6682488D01*
X-4531035Y-6636132D01*
X-4519304Y-6597462D01*
X-4500254Y-6561823D01*
X-4474617Y-6530583D01*
X-4443377Y-6504946D01*
X-4407738Y-6485896D01*
X-4369068Y-6474165D01*
X-4322712Y-6469600D01*
X-3246488Y-6469600D01*
X-3200132Y-6474165D01*
X-3200132Y-6474165D01*
G37*
G36*
X-1002200Y-7145000D02*
G01*
X-1704200Y-7145000D01*
X-1704200Y-4793000D01*
X-1002200Y-4793000D01*
X-1002200Y-7145000D01*
X-1002200Y-7145000D01*
G37*
G36*
X1297800Y-7145000D02*
G01*
X595800Y-7145000D01*
X595800Y-4793000D01*
X1297800Y-4793000D01*
X1297800Y-7145000D01*
X1297800Y-7145000D01*
G37*
G36*
X-10885173Y-4460725D02*
G01*
X-10864092Y-4467121D01*
X-10844656Y-4477509D01*
X-10827625Y-4491485D01*
X-10813649Y-4508516D01*
X-10803261Y-4527952D01*
X-10796865Y-4549033D01*
X-10794101Y-4577101D01*
X-10794101Y-6390821D01*
X-10796865Y-6418889D01*
X-10803261Y-6439970D01*
X-10813649Y-6459406D01*
X-10827625Y-6476437D01*
X-10844656Y-6490413D01*
X-10864092Y-6500801D01*
X-10885173Y-6507197D01*
X-10913241Y-6509961D01*
X-11376961Y-6509961D01*
X-11405029Y-6507197D01*
X-11426110Y-6500801D01*
X-11445546Y-6490413D01*
X-11462577Y-6476437D01*
X-11476553Y-6459406D01*
X-11486941Y-6439970D01*
X-11493337Y-6418889D01*
X-11496101Y-6390821D01*
X-11496101Y-4577101D01*
X-11493337Y-4549033D01*
X-11486941Y-4527952D01*
X-11476553Y-4508516D01*
X-11462577Y-4491485D01*
X-11445546Y-4477509D01*
X-11426110Y-4467121D01*
X-11405029Y-4460725D01*
X-11376961Y-4457961D01*
X-10913241Y-4457961D01*
X-10885173Y-4460725D01*
X-10885173Y-4460725D01*
G37*
G36*
X-9615173Y-4460725D02*
G01*
X-9594092Y-4467121D01*
X-9574656Y-4477509D01*
X-9557625Y-4491485D01*
X-9543649Y-4508516D01*
X-9533261Y-4527952D01*
X-9526865Y-4549033D01*
X-9524101Y-4577101D01*
X-9524101Y-6390821D01*
X-9526865Y-6418889D01*
X-9533261Y-6439970D01*
X-9543649Y-6459406D01*
X-9557625Y-6476437D01*
X-9574656Y-6490413D01*
X-9594092Y-6500801D01*
X-9615173Y-6507197D01*
X-9643241Y-6509961D01*
X-10106961Y-6509961D01*
X-10135029Y-6507197D01*
X-10156110Y-6500801D01*
X-10175546Y-6490413D01*
X-10192577Y-6476437D01*
X-10206553Y-6459406D01*
X-10216941Y-6439970D01*
X-10223337Y-6418889D01*
X-10226101Y-6390821D01*
X-10226101Y-4577101D01*
X-10223337Y-4549033D01*
X-10216941Y-4527952D01*
X-10206553Y-4508516D01*
X-10192577Y-4491485D01*
X-10175546Y-4477509D01*
X-10156110Y-4467121D01*
X-10135029Y-4460725D01*
X-10106961Y-4457961D01*
X-9643241Y-4457961D01*
X-9615173Y-4460725D01*
X-9615173Y-4460725D01*
G37*
G36*
X-7075173Y-4460725D02*
G01*
X-7054092Y-4467121D01*
X-7034656Y-4477509D01*
X-7017625Y-4491485D01*
X-7003649Y-4508516D01*
X-6993261Y-4527952D01*
X-6986865Y-4549033D01*
X-6984101Y-4577101D01*
X-6984101Y-6390821D01*
X-6986865Y-6418889D01*
X-6993261Y-6439970D01*
X-7003649Y-6459406D01*
X-7017625Y-6476437D01*
X-7034656Y-6490413D01*
X-7054092Y-6500801D01*
X-7075173Y-6507197D01*
X-7103241Y-6509961D01*
X-7566961Y-6509961D01*
X-7595029Y-6507197D01*
X-7616110Y-6500801D01*
X-7635546Y-6490413D01*
X-7652577Y-6476437D01*
X-7666553Y-6459406D01*
X-7676941Y-6439970D01*
X-7683337Y-6418889D01*
X-7686101Y-6390821D01*
X-7686101Y-4577101D01*
X-7683337Y-4549033D01*
X-7676941Y-4527952D01*
X-7666553Y-4508516D01*
X-7652577Y-4491485D01*
X-7635546Y-4477509D01*
X-7616110Y-4467121D01*
X-7595029Y-4460725D01*
X-7566961Y-4457961D01*
X-7103241Y-4457961D01*
X-7075173Y-4460725D01*
X-7075173Y-4460725D01*
G37*
G36*
X-8345173Y-4460725D02*
G01*
X-8324092Y-4467121D01*
X-8304656Y-4477509D01*
X-8287625Y-4491485D01*
X-8273649Y-4508516D01*
X-8263261Y-4527952D01*
X-8256865Y-4549033D01*
X-8254101Y-4577101D01*
X-8254101Y-6390821D01*
X-8256865Y-6418889D01*
X-8263261Y-6439970D01*
X-8273649Y-6459406D01*
X-8287625Y-6476437D01*
X-8304656Y-6490413D01*
X-8324092Y-6500801D01*
X-8345173Y-6507197D01*
X-8373241Y-6509961D01*
X-8836961Y-6509961D01*
X-8865029Y-6507197D01*
X-8886110Y-6500801D01*
X-8905546Y-6490413D01*
X-8922577Y-6476437D01*
X-8936553Y-6459406D01*
X-8946941Y-6439970D01*
X-8953337Y-6418889D01*
X-8956101Y-6390821D01*
X-8956101Y-4577101D01*
X-8953337Y-4549033D01*
X-8946941Y-4527952D01*
X-8936553Y-4508516D01*
X-8922577Y-4491485D01*
X-8905546Y-4477509D01*
X-8886110Y-4467121D01*
X-8865029Y-4460725D01*
X-8836961Y-4457961D01*
X-8373241Y-4457961D01*
X-8345173Y-4460725D01*
X-8345173Y-4460725D01*
G37*
G36*
X3378468Y-4721565D02*
G01*
X3417138Y-4733296D01*
X3452777Y-4752346D01*
X3484017Y-4777983D01*
X3509654Y-4809223D01*
X3528704Y-4844862D01*
X3540435Y-4883532D01*
X3545000Y-4929888D01*
X3545000Y-5581112D01*
X3540435Y-5627468D01*
X3528704Y-5666138D01*
X3509654Y-5701777D01*
X3484017Y-5733017D01*
X3452777Y-5758654D01*
X3417138Y-5777704D01*
X3378468Y-5789435D01*
X3332112Y-5794000D01*
X2255888Y-5794000D01*
X2209532Y-5789435D01*
X2170862Y-5777704D01*
X2135223Y-5758654D01*
X2103983Y-5733017D01*
X2078346Y-5701777D01*
X2059296Y-5666138D01*
X2047565Y-5627468D01*
X2043000Y-5581112D01*
X2043000Y-4929888D01*
X2047565Y-4883532D01*
X2059296Y-4844862D01*
X2078346Y-4809223D01*
X2103983Y-4777983D01*
X2135223Y-4752346D01*
X2170862Y-4733296D01*
X2209532Y-4721565D01*
X2255888Y-4717000D01*
X3332112Y-4717000D01*
X3378468Y-4721565D01*
X3378468Y-4721565D01*
G37*
G36*
X-3200132Y-4599165D02*
G01*
X-3161462Y-4610896D01*
X-3125823Y-4629946D01*
X-3094583Y-4655583D01*
X-3068946Y-4686823D01*
X-3049896Y-4722462D01*
X-3038165Y-4761132D01*
X-3033600Y-4807488D01*
X-3033600Y-5458712D01*
X-3038165Y-5505068D01*
X-3049896Y-5543738D01*
X-3068946Y-5579377D01*
X-3094583Y-5610617D01*
X-3125823Y-5636254D01*
X-3161462Y-5655304D01*
X-3200132Y-5667035D01*
X-3246488Y-5671600D01*
X-4322712Y-5671600D01*
X-4369068Y-5667035D01*
X-4407738Y-5655304D01*
X-4443377Y-5636254D01*
X-4474617Y-5610617D01*
X-4500254Y-5579377D01*
X-4519304Y-5543738D01*
X-4531035Y-5505068D01*
X-4535600Y-5458712D01*
X-4535600Y-4807488D01*
X-4531035Y-4761132D01*
X-4519304Y-4722462D01*
X-4500254Y-4686823D01*
X-4474617Y-4655583D01*
X-4443377Y-4629946D01*
X-4407738Y-4610896D01*
X-4369068Y-4599165D01*
X-4322712Y-4594600D01*
X-3246488Y-4594600D01*
X-3200132Y-4599165D01*
X-3200132Y-4599165D01*
G37*
G36*
X3378468Y-2846565D02*
G01*
X3417138Y-2858296D01*
X3452777Y-2877346D01*
X3484017Y-2902983D01*
X3509654Y-2934223D01*
X3528704Y-2969862D01*
X3540435Y-3008532D01*
X3545000Y-3054888D01*
X3545000Y-3706112D01*
X3540435Y-3752468D01*
X3528704Y-3791138D01*
X3509654Y-3826777D01*
X3484017Y-3858017D01*
X3452777Y-3883654D01*
X3417138Y-3902704D01*
X3378468Y-3914435D01*
X3332112Y-3919000D01*
X2255888Y-3919000D01*
X2209532Y-3914435D01*
X2170862Y-3902704D01*
X2135223Y-3883654D01*
X2103983Y-3858017D01*
X2078346Y-3826777D01*
X2059296Y-3791138D01*
X2047565Y-3752468D01*
X2043000Y-3706112D01*
X2043000Y-3054888D01*
X2047565Y-3008532D01*
X2059296Y-2969862D01*
X2078346Y-2934223D01*
X2103983Y-2902983D01*
X2135223Y-2877346D01*
X2170862Y-2858296D01*
X2209532Y-2846565D01*
X2255888Y-2842000D01*
X3332112Y-2842000D01*
X3378468Y-2846565D01*
X3378468Y-2846565D01*
G37*
G36*
X-12395532Y-1391065D02*
G01*
X-12356862Y-1402796D01*
X-12321223Y-1421846D01*
X-12289983Y-1447483D01*
X-12264346Y-1478723D01*
X-12245296Y-1514362D01*
X-12233565Y-1553032D01*
X-12229000Y-1599388D01*
X-12229000Y-2250612D01*
X-12233565Y-2296968D01*
X-12245296Y-2335638D01*
X-12264346Y-2371277D01*
X-12289983Y-2402517D01*
X-12321223Y-2428154D01*
X-12356862Y-2447204D01*
X-12395532Y-2458935D01*
X-12441888Y-2463500D01*
X-13518112Y-2463500D01*
X-13564468Y-2458935D01*
X-13603138Y-2447204D01*
X-13638777Y-2428154D01*
X-13670017Y-2402517D01*
X-13695654Y-2371277D01*
X-13714704Y-2335638D01*
X-13726435Y-2296968D01*
X-13731000Y-2250612D01*
X-13731000Y-1599388D01*
X-13726435Y-1553032D01*
X-13714704Y-1514362D01*
X-13695654Y-1478723D01*
X-13670017Y-1447483D01*
X-13638777Y-1421846D01*
X-13603138Y-1402796D01*
X-13564468Y-1391065D01*
X-13518112Y-1386500D01*
X-12441888Y-1386500D01*
X-12395532Y-1391065D01*
X-12395532Y-1391065D01*
G37*
G36*
X2820768Y-282265D02*
G01*
X2859438Y-293996D01*
X2895077Y-313046D01*
X2926317Y-338683D01*
X2951954Y-369923D01*
X2971004Y-405562D01*
X2982735Y-444232D01*
X2987300Y-490588D01*
X2987300Y-1566812D01*
X2982735Y-1613168D01*
X2971004Y-1651838D01*
X2951954Y-1687477D01*
X2926317Y-1718717D01*
X2895077Y-1744354D01*
X2859438Y-1763404D01*
X2820768Y-1775135D01*
X2774412Y-1779700D01*
X2123188Y-1779700D01*
X2076832Y-1775135D01*
X2038162Y-1763404D01*
X2002523Y-1744354D01*
X1971283Y-1718717D01*
X1945646Y-1687477D01*
X1926596Y-1651838D01*
X1914865Y-1613168D01*
X1910300Y-1566812D01*
X1910300Y-490588D01*
X1914865Y-444232D01*
X1926596Y-405562D01*
X1945646Y-369923D01*
X1971283Y-338683D01*
X2002523Y-313046D01*
X2038162Y-293996D01*
X2076832Y-282265D01*
X2123188Y-277700D01*
X2774412Y-277700D01*
X2820768Y-282265D01*
X2820768Y-282265D01*
G37*
G36*
X945768Y-282265D02*
G01*
X984438Y-293996D01*
X1020077Y-313046D01*
X1051317Y-338683D01*
X1076954Y-369923D01*
X1096004Y-405562D01*
X1107735Y-444232D01*
X1112300Y-490588D01*
X1112300Y-1566812D01*
X1107735Y-1613168D01*
X1096004Y-1651838D01*
X1076954Y-1687477D01*
X1051317Y-1718717D01*
X1020077Y-1744354D01*
X984438Y-1763404D01*
X945768Y-1775135D01*
X899412Y-1779700D01*
X248188Y-1779700D01*
X201832Y-1775135D01*
X163162Y-1763404D01*
X127523Y-1744354D01*
X96283Y-1718717D01*
X70646Y-1687477D01*
X51596Y-1651838D01*
X39865Y-1613168D01*
X35300Y-1566812D01*
X35300Y-490588D01*
X39865Y-444232D01*
X51596Y-405562D01*
X70646Y-369923D01*
X96283Y-338683D01*
X127523Y-313046D01*
X163162Y-293996D01*
X201832Y-282265D01*
X248188Y-277700D01*
X899412Y-277700D01*
X945768Y-282265D01*
X945768Y-282265D01*
G37*
G36*
X-608232Y-282265D02*
G01*
X-569562Y-293996D01*
X-533923Y-313046D01*
X-502683Y-338683D01*
X-477046Y-369923D01*
X-457996Y-405562D01*
X-446265Y-444232D01*
X-441700Y-490588D01*
X-441700Y-1566812D01*
X-446265Y-1613168D01*
X-457996Y-1651838D01*
X-477046Y-1687477D01*
X-502683Y-1718717D01*
X-533923Y-1744354D01*
X-569562Y-1763404D01*
X-608232Y-1775135D01*
X-654588Y-1779700D01*
X-1305812Y-1779700D01*
X-1352168Y-1775135D01*
X-1390838Y-1763404D01*
X-1426477Y-1744354D01*
X-1457717Y-1718717D01*
X-1483354Y-1687477D01*
X-1502404Y-1651838D01*
X-1514135Y-1613168D01*
X-1518700Y-1566812D01*
X-1518700Y-490588D01*
X-1514135Y-444232D01*
X-1502404Y-405562D01*
X-1483354Y-369923D01*
X-1457717Y-338683D01*
X-1426477Y-313046D01*
X-1390838Y-293996D01*
X-1352168Y-282265D01*
X-1305812Y-277700D01*
X-654588Y-277700D01*
X-608232Y-282265D01*
X-608232Y-282265D01*
G37*
G36*
X-2483232Y-282265D02*
G01*
X-2444562Y-293996D01*
X-2408923Y-313046D01*
X-2377683Y-338683D01*
X-2352046Y-369923D01*
X-2332996Y-405562D01*
X-2321265Y-444232D01*
X-2316700Y-490588D01*
X-2316700Y-1566812D01*
X-2321265Y-1613168D01*
X-2332996Y-1651838D01*
X-2352046Y-1687477D01*
X-2377683Y-1718717D01*
X-2408923Y-1744354D01*
X-2444562Y-1763404D01*
X-2483232Y-1775135D01*
X-2529588Y-1779700D01*
X-3180812Y-1779700D01*
X-3227168Y-1775135D01*
X-3265838Y-1763404D01*
X-3301477Y-1744354D01*
X-3332717Y-1718717D01*
X-3358354Y-1687477D01*
X-3377404Y-1651838D01*
X-3389135Y-1613168D01*
X-3393700Y-1566812D01*
X-3393700Y-490588D01*
X-3389135Y-444232D01*
X-3377404Y-405562D01*
X-3358354Y-369923D01*
X-3332717Y-338683D01*
X-3301477Y-313046D01*
X-3265838Y-293996D01*
X-3227168Y-282265D01*
X-3180812Y-277700D01*
X-2529588Y-277700D01*
X-2483232Y-282265D01*
X-2483232Y-282265D01*
G37*
G36*
X-9615173Y489275D02*
G01*
X-9594092Y482879D01*
X-9574656Y472491D01*
X-9557625Y458515D01*
X-9543649Y441484D01*
X-9533261Y422048D01*
X-9526865Y400967D01*
X-9524101Y372899D01*
X-9524101Y-1440821D01*
X-9526865Y-1468889D01*
X-9533261Y-1489970D01*
X-9543649Y-1509406D01*
X-9557625Y-1526437D01*
X-9574656Y-1540413D01*
X-9594092Y-1550801D01*
X-9615173Y-1557197D01*
X-9643241Y-1559961D01*
X-10106961Y-1559961D01*
X-10135029Y-1557197D01*
X-10156110Y-1550801D01*
X-10175546Y-1540413D01*
X-10192577Y-1526437D01*
X-10206553Y-1509406D01*
X-10216941Y-1489970D01*
X-10223337Y-1468889D01*
X-10226101Y-1440821D01*
X-10226101Y372899D01*
X-10223337Y400967D01*
X-10216941Y422048D01*
X-10206553Y441484D01*
X-10192577Y458515D01*
X-10175546Y472491D01*
X-10156110Y482879D01*
X-10135029Y489275D01*
X-10106961Y492039D01*
X-9643241Y492039D01*
X-9615173Y489275D01*
X-9615173Y489275D01*
G37*
G36*
X-7075173Y489275D02*
G01*
X-7054092Y482879D01*
X-7034656Y472491D01*
X-7017625Y458515D01*
X-7003649Y441484D01*
X-6993261Y422048D01*
X-6986865Y400967D01*
X-6984101Y372899D01*
X-6984101Y-1440821D01*
X-6986865Y-1468889D01*
X-6993261Y-1489970D01*
X-7003649Y-1509406D01*
X-7017625Y-1526437D01*
X-7034656Y-1540413D01*
X-7054092Y-1550801D01*
X-7075173Y-1557197D01*
X-7103241Y-1559961D01*
X-7566961Y-1559961D01*
X-7595029Y-1557197D01*
X-7616110Y-1550801D01*
X-7635546Y-1540413D01*
X-7652577Y-1526437D01*
X-7666553Y-1509406D01*
X-7676941Y-1489970D01*
X-7683337Y-1468889D01*
X-7686101Y-1440821D01*
X-7686101Y372899D01*
X-7683337Y400967D01*
X-7676941Y422048D01*
X-7666553Y441484D01*
X-7652577Y458515D01*
X-7635546Y472491D01*
X-7616110Y482879D01*
X-7595029Y489275D01*
X-7566961Y492039D01*
X-7103241Y492039D01*
X-7075173Y489275D01*
X-7075173Y489275D01*
G37*
G36*
X-8345173Y489275D02*
G01*
X-8324092Y482879D01*
X-8304656Y472491D01*
X-8287625Y458515D01*
X-8273649Y441484D01*
X-8263261Y422048D01*
X-8256865Y400967D01*
X-8254101Y372899D01*
X-8254101Y-1440821D01*
X-8256865Y-1468889D01*
X-8263261Y-1489970D01*
X-8273649Y-1509406D01*
X-8287625Y-1526437D01*
X-8304656Y-1540413D01*
X-8324092Y-1550801D01*
X-8345173Y-1557197D01*
X-8373241Y-1559961D01*
X-8836961Y-1559961D01*
X-8865029Y-1557197D01*
X-8886110Y-1550801D01*
X-8905546Y-1540413D01*
X-8922577Y-1526437D01*
X-8936553Y-1509406D01*
X-8946941Y-1489970D01*
X-8953337Y-1468889D01*
X-8956101Y-1440821D01*
X-8956101Y372899D01*
X-8953337Y400967D01*
X-8946941Y422048D01*
X-8936553Y441484D01*
X-8922577Y458515D01*
X-8905546Y472491D01*
X-8886110Y482879D01*
X-8865029Y489275D01*
X-8836961Y492039D01*
X-8373241Y492039D01*
X-8345173Y489275D01*
X-8345173Y489275D01*
G37*
G36*
X-10885173Y489275D02*
G01*
X-10864092Y482879D01*
X-10844656Y472491D01*
X-10827625Y458515D01*
X-10813649Y441484D01*
X-10803261Y422048D01*
X-10796865Y400967D01*
X-10794101Y372899D01*
X-10794101Y-1440821D01*
X-10796865Y-1468889D01*
X-10803261Y-1489970D01*
X-10813649Y-1509406D01*
X-10827625Y-1526437D01*
X-10844656Y-1540413D01*
X-10864092Y-1550801D01*
X-10885173Y-1557197D01*
X-10913241Y-1559961D01*
X-11376961Y-1559961D01*
X-11405029Y-1557197D01*
X-11426110Y-1550801D01*
X-11445546Y-1540413D01*
X-11462577Y-1526437D01*
X-11476553Y-1509406D01*
X-11486941Y-1489970D01*
X-11493337Y-1468889D01*
X-11496101Y-1440821D01*
X-11496101Y372899D01*
X-11493337Y400967D01*
X-11486941Y422048D01*
X-11476553Y441484D01*
X-11462577Y458515D01*
X-11445546Y472491D01*
X-11426110Y482879D01*
X-11405029Y489275D01*
X-11376961Y492039D01*
X-10913241Y492039D01*
X-10885173Y489275D01*
X-10885173Y489275D01*
G37*
G36*
X-12395532Y483935D02*
G01*
X-12356862Y472204D01*
X-12321223Y453154D01*
X-12289983Y427517D01*
X-12264346Y396277D01*
X-12245296Y360638D01*
X-12233565Y321968D01*
X-12229000Y275612D01*
X-12229000Y-375612D01*
X-12233565Y-421968D01*
X-12245296Y-460638D01*
X-12264346Y-496277D01*
X-12289983Y-527517D01*
X-12321223Y-553154D01*
X-12356862Y-572204D01*
X-12395532Y-583935D01*
X-12441888Y-588500D01*
X-13518112Y-588500D01*
X-13564468Y-583935D01*
X-13603138Y-572204D01*
X-13638777Y-553154D01*
X-13670017Y-527517D01*
X-13695654Y-496277D01*
X-13714704Y-460638D01*
X-13726435Y-421968D01*
X-13731000Y-375612D01*
X-13731000Y275612D01*
X-13726435Y321968D01*
X-13714704Y360638D01*
X-13695654Y396277D01*
X-13670017Y427517D01*
X-13638777Y453154D01*
X-13603138Y472204D01*
X-13564468Y483935D01*
X-13518112Y488500D01*
X-12441888Y488500D01*
X-12395532Y483935D01*
X-12395532Y483935D01*
G37*
G36*
X945768Y1889435D02*
G01*
X984438Y1877704D01*
X1020077Y1858654D01*
X1051317Y1833017D01*
X1076954Y1801777D01*
X1096004Y1766138D01*
X1107735Y1727468D01*
X1112300Y1681112D01*
X1112300Y604888D01*
X1107735Y558532D01*
X1096004Y519862D01*
X1076954Y484223D01*
X1051317Y452983D01*
X1020077Y427346D01*
X984438Y408296D01*
X945768Y396565D01*
X899412Y392000D01*
X248188Y392000D01*
X201832Y396565D01*
X163162Y408296D01*
X127523Y427346D01*
X96283Y452983D01*
X70646Y484223D01*
X51596Y519862D01*
X39865Y558532D01*
X35300Y604888D01*
X35300Y1681112D01*
X39865Y1727468D01*
X51596Y1766138D01*
X70646Y1801777D01*
X96283Y1833017D01*
X127523Y1858654D01*
X163162Y1877704D01*
X201832Y1889435D01*
X248188Y1894000D01*
X899412Y1894000D01*
X945768Y1889435D01*
X945768Y1889435D01*
G37*
G36*
X-2483232Y1889435D02*
G01*
X-2444562Y1877704D01*
X-2408923Y1858654D01*
X-2377683Y1833017D01*
X-2352046Y1801777D01*
X-2332996Y1766138D01*
X-2321265Y1727468D01*
X-2316700Y1681112D01*
X-2316700Y604888D01*
X-2321265Y558532D01*
X-2332996Y519862D01*
X-2352046Y484223D01*
X-2377683Y452983D01*
X-2408923Y427346D01*
X-2444562Y408296D01*
X-2483232Y396565D01*
X-2529588Y392000D01*
X-3180812Y392000D01*
X-3227168Y396565D01*
X-3265838Y408296D01*
X-3301477Y427346D01*
X-3332717Y452983D01*
X-3358354Y484223D01*
X-3377404Y519862D01*
X-3389135Y558532D01*
X-3393700Y604888D01*
X-3393700Y1681112D01*
X-3389135Y1727468D01*
X-3377404Y1766138D01*
X-3358354Y1801777D01*
X-3332717Y1833017D01*
X-3301477Y1858654D01*
X-3265838Y1877704D01*
X-3227168Y1889435D01*
X-3180812Y1894000D01*
X-2529588Y1894000D01*
X-2483232Y1889435D01*
X-2483232Y1889435D01*
G37*
G36*
X-608232Y1889435D02*
G01*
X-569562Y1877704D01*
X-533923Y1858654D01*
X-502683Y1833017D01*
X-477046Y1801777D01*
X-457996Y1766138D01*
X-446265Y1727468D01*
X-441700Y1681112D01*
X-441700Y604888D01*
X-446265Y558532D01*
X-457996Y519862D01*
X-477046Y484223D01*
X-502683Y452983D01*
X-533923Y427346D01*
X-569562Y408296D01*
X-608232Y396565D01*
X-654588Y392000D01*
X-1305812Y392000D01*
X-1352168Y396565D01*
X-1390838Y408296D01*
X-1426477Y427346D01*
X-1457717Y452983D01*
X-1483354Y484223D01*
X-1502404Y519862D01*
X-1514135Y558532D01*
X-1518700Y604888D01*
X-1518700Y1681112D01*
X-1514135Y1727468D01*
X-1502404Y1766138D01*
X-1483354Y1801777D01*
X-1457717Y1833017D01*
X-1426477Y1858654D01*
X-1390838Y1877704D01*
X-1352168Y1889435D01*
X-1305812Y1894000D01*
X-654588Y1894000D01*
X-608232Y1889435D01*
X-608232Y1889435D01*
G37*
G36*
X2820768Y1889435D02*
G01*
X2859438Y1877704D01*
X2895077Y1858654D01*
X2926317Y1833017D01*
X2951954Y1801777D01*
X2971004Y1766138D01*
X2982735Y1727468D01*
X2987300Y1681112D01*
X2987300Y604888D01*
X2982735Y558532D01*
X2971004Y519862D01*
X2951954Y484223D01*
X2926317Y452983D01*
X2895077Y427346D01*
X2859438Y408296D01*
X2820768Y396565D01*
X2774412Y392000D01*
X2123188Y392000D01*
X2076832Y396565D01*
X2038162Y408296D01*
X2002523Y427346D01*
X1971283Y452983D01*
X1945646Y484223D01*
X1926596Y519862D01*
X1914865Y558532D01*
X1910300Y604888D01*
X1910300Y1681112D01*
X1914865Y1727468D01*
X1926596Y1766138D01*
X1945646Y1801777D01*
X1971283Y1833017D01*
X2002523Y1858654D01*
X2038162Y1877704D01*
X2076832Y1889435D01*
X2123188Y1894000D01*
X2774412Y1894000D01*
X2820768Y1889435D01*
X2820768Y1889435D01*
G37*
G36*
X-10596349Y5005716D02*
G01*
X-10579957Y5000743D01*
X-10564845Y4992666D01*
X-10551602Y4981798D01*
X-10540733Y4968553D01*
X-10536639Y4960894D01*
X-10523026Y4940520D01*
X-10505699Y4923193D01*
X-10485324Y4909579D01*
X-10462686Y4900202D01*
X-10438652Y4895421D01*
X-10414148Y4895421D01*
X-10390115Y4900201D01*
X-10367476Y4909579D01*
X-10347102Y4923192D01*
X-10329775Y4940519D01*
X-10316161Y4960894D01*
X-10312067Y4968553D01*
X-10301198Y4981798D01*
X-10287955Y4992666D01*
X-10272843Y5000743D01*
X-10256451Y5005716D01*
X-10233259Y5008000D01*
X-9819541Y5008000D01*
X-9796349Y5005716D01*
X-9779957Y5000743D01*
X-9764845Y4992666D01*
X-9751602Y4981798D01*
X-9740733Y4968553D01*
X-9736639Y4960894D01*
X-9723026Y4940520D01*
X-9705699Y4923193D01*
X-9685324Y4909579D01*
X-9662686Y4900202D01*
X-9638652Y4895421D01*
X-9614148Y4895421D01*
X-9590115Y4900201D01*
X-9567476Y4909579D01*
X-9547102Y4923192D01*
X-9529775Y4940519D01*
X-9516161Y4960894D01*
X-9512067Y4968553D01*
X-9501198Y4981798D01*
X-9487955Y4992666D01*
X-9472843Y5000743D01*
X-9456451Y5005716D01*
X-9433259Y5008000D01*
X-9019541Y5008000D01*
X-8996349Y5005716D01*
X-8979957Y5000743D01*
X-8964845Y4992666D01*
X-8951602Y4981798D01*
X-8940733Y4968553D01*
X-8936639Y4960894D01*
X-8923026Y4940520D01*
X-8905699Y4923193D01*
X-8885324Y4909579D01*
X-8862686Y4900202D01*
X-8838652Y4895421D01*
X-8814148Y4895421D01*
X-8790115Y4900201D01*
X-8767476Y4909579D01*
X-8747102Y4923192D01*
X-8729775Y4940519D01*
X-8716161Y4960894D01*
X-8712067Y4968553D01*
X-8701198Y4981798D01*
X-8687955Y4992666D01*
X-8672843Y5000743D01*
X-8656451Y5005716D01*
X-8633259Y5008000D01*
X-8219541Y5008000D01*
X-8196349Y5005716D01*
X-8179957Y5000743D01*
X-8164845Y4992666D01*
X-8151602Y4981798D01*
X-8140733Y4968553D01*
X-8136639Y4960894D01*
X-8123026Y4940520D01*
X-8105699Y4923193D01*
X-8085324Y4909579D01*
X-8062686Y4900202D01*
X-8038652Y4895421D01*
X-8014148Y4895421D01*
X-7990115Y4900201D01*
X-7967476Y4909579D01*
X-7947102Y4923192D01*
X-7929775Y4940519D01*
X-7916161Y4960894D01*
X-7912067Y4968553D01*
X-7901198Y4981798D01*
X-7887955Y4992666D01*
X-7872843Y5000743D01*
X-7856451Y5005716D01*
X-7833259Y5008000D01*
X-7419541Y5008000D01*
X-7396349Y5005716D01*
X-7379957Y5000743D01*
X-7364845Y4992666D01*
X-7351602Y4981798D01*
X-7340733Y4968553D01*
X-7336639Y4960894D01*
X-7323026Y4940520D01*
X-7305699Y4923193D01*
X-7285324Y4909579D01*
X-7262686Y4900202D01*
X-7238652Y4895421D01*
X-7214148Y4895421D01*
X-7190115Y4900201D01*
X-7167476Y4909579D01*
X-7147102Y4923192D01*
X-7129775Y4940519D01*
X-7116161Y4960894D01*
X-7112067Y4968553D01*
X-7101198Y4981798D01*
X-7087955Y4992666D01*
X-7072843Y5000743D01*
X-7056451Y5005716D01*
X-7033259Y5008000D01*
X-6619541Y5008000D01*
X-6596349Y5005716D01*
X-6579957Y5000743D01*
X-6564845Y4992666D01*
X-6551602Y4981798D01*
X-6540733Y4968553D01*
X-6536639Y4960894D01*
X-6523026Y4940520D01*
X-6505699Y4923193D01*
X-6485324Y4909579D01*
X-6462686Y4900202D01*
X-6438652Y4895421D01*
X-6414148Y4895421D01*
X-6390115Y4900201D01*
X-6367476Y4909579D01*
X-6347102Y4923192D01*
X-6329775Y4940519D01*
X-6316161Y4960894D01*
X-6312067Y4968553D01*
X-6301198Y4981798D01*
X-6287955Y4992666D01*
X-6272843Y5000743D01*
X-6256451Y5005716D01*
X-6233259Y5008000D01*
X-5819541Y5008000D01*
X-5796349Y5005716D01*
X-5779957Y5000743D01*
X-5764845Y4992666D01*
X-5751602Y4981798D01*
X-5740733Y4968553D01*
X-5736639Y4960894D01*
X-5723026Y4940520D01*
X-5705699Y4923193D01*
X-5685324Y4909579D01*
X-5662686Y4900202D01*
X-5638652Y4895421D01*
X-5614148Y4895421D01*
X-5590115Y4900201D01*
X-5567476Y4909579D01*
X-5547102Y4923192D01*
X-5529775Y4940519D01*
X-5516161Y4960894D01*
X-5512067Y4968553D01*
X-5501198Y4981798D01*
X-5487955Y4992666D01*
X-5472843Y5000743D01*
X-5456451Y5005716D01*
X-5433259Y5008000D01*
X-5019541Y5008000D01*
X-4996349Y5005716D01*
X-4979957Y5000743D01*
X-4964845Y4992666D01*
X-4951602Y4981798D01*
X-4940734Y4968555D01*
X-4932657Y4953443D01*
X-4927684Y4937051D01*
X-4925400Y4913859D01*
X-4925400Y3500141D01*
X-4927684Y3476949D01*
X-4932657Y3460557D01*
X-4940734Y3445445D01*
X-4951602Y3432202D01*
X-4964845Y3421334D01*
X-4979957Y3413257D01*
X-4996349Y3408284D01*
X-5019541Y3406000D01*
X-5433259Y3406000D01*
X-5456451Y3408284D01*
X-5472843Y3413257D01*
X-5487955Y3421334D01*
X-5501198Y3432202D01*
X-5512067Y3445447D01*
X-5516161Y3453106D01*
X-5529774Y3473480D01*
X-5547101Y3490807D01*
X-5567476Y3504421D01*
X-5590114Y3513798D01*
X-5614148Y3518579D01*
X-5638652Y3518579D01*
X-5662685Y3513799D01*
X-5685324Y3504421D01*
X-5705698Y3490808D01*
X-5723025Y3473481D01*
X-5736639Y3453106D01*
X-5740733Y3445447D01*
X-5751602Y3432202D01*
X-5764845Y3421334D01*
X-5779957Y3413257D01*
X-5796349Y3408284D01*
X-5819541Y3406000D01*
X-6233259Y3406000D01*
X-6256451Y3408284D01*
X-6272843Y3413257D01*
X-6287955Y3421334D01*
X-6301198Y3432202D01*
X-6312067Y3445447D01*
X-6316161Y3453106D01*
X-6329774Y3473480D01*
X-6347101Y3490807D01*
X-6367476Y3504421D01*
X-6390114Y3513798D01*
X-6414148Y3518579D01*
X-6438652Y3518579D01*
X-6462685Y3513799D01*
X-6485324Y3504421D01*
X-6505698Y3490808D01*
X-6523025Y3473481D01*
X-6536639Y3453106D01*
X-6540733Y3445447D01*
X-6551602Y3432202D01*
X-6564845Y3421334D01*
X-6579957Y3413257D01*
X-6596349Y3408284D01*
X-6619541Y3406000D01*
X-7033259Y3406000D01*
X-7056451Y3408284D01*
X-7072843Y3413257D01*
X-7087955Y3421334D01*
X-7101198Y3432202D01*
X-7112067Y3445447D01*
X-7116161Y3453106D01*
X-7129774Y3473480D01*
X-7147101Y3490807D01*
X-7167476Y3504421D01*
X-7190114Y3513798D01*
X-7214148Y3518579D01*
X-7238652Y3518579D01*
X-7262685Y3513799D01*
X-7285324Y3504421D01*
X-7305698Y3490808D01*
X-7323025Y3473481D01*
X-7336639Y3453106D01*
X-7340733Y3445447D01*
X-7351602Y3432202D01*
X-7364845Y3421334D01*
X-7379957Y3413257D01*
X-7396349Y3408284D01*
X-7419541Y3406000D01*
X-7833259Y3406000D01*
X-7856451Y3408284D01*
X-7872843Y3413257D01*
X-7887955Y3421334D01*
X-7901198Y3432202D01*
X-7912067Y3445447D01*
X-7916161Y3453106D01*
X-7929774Y3473480D01*
X-7947101Y3490807D01*
X-7967476Y3504421D01*
X-7990114Y3513798D01*
X-8014148Y3518579D01*
X-8038652Y3518579D01*
X-8062685Y3513799D01*
X-8085324Y3504421D01*
X-8105698Y3490808D01*
X-8123025Y3473481D01*
X-8136639Y3453106D01*
X-8140733Y3445447D01*
X-8151602Y3432202D01*
X-8164845Y3421334D01*
X-8179957Y3413257D01*
X-8196349Y3408284D01*
X-8219541Y3406000D01*
X-8633259Y3406000D01*
X-8656451Y3408284D01*
X-8672843Y3413257D01*
X-8687955Y3421334D01*
X-8701198Y3432202D01*
X-8712067Y3445447D01*
X-8716161Y3453106D01*
X-8729774Y3473480D01*
X-8747101Y3490807D01*
X-8767476Y3504421D01*
X-8790114Y3513798D01*
X-8814148Y3518579D01*
X-8838652Y3518579D01*
X-8862685Y3513799D01*
X-8885324Y3504421D01*
X-8905698Y3490808D01*
X-8923025Y3473481D01*
X-8936639Y3453106D01*
X-8940733Y3445447D01*
X-8951602Y3432202D01*
X-8964845Y3421334D01*
X-8979957Y3413257D01*
X-8996349Y3408284D01*
X-9019541Y3406000D01*
X-9433259Y3406000D01*
X-9456451Y3408284D01*
X-9472843Y3413257D01*
X-9487955Y3421334D01*
X-9501198Y3432202D01*
X-9512067Y3445447D01*
X-9516161Y3453106D01*
X-9529774Y3473480D01*
X-9547101Y3490807D01*
X-9567476Y3504421D01*
X-9590114Y3513798D01*
X-9614148Y3518579D01*
X-9638652Y3518579D01*
X-9662685Y3513799D01*
X-9685324Y3504421D01*
X-9705698Y3490808D01*
X-9723025Y3473481D01*
X-9736639Y3453106D01*
X-9740733Y3445447D01*
X-9751602Y3432202D01*
X-9764845Y3421334D01*
X-9779957Y3413257D01*
X-9796349Y3408284D01*
X-9819541Y3406000D01*
X-10233259Y3406000D01*
X-10256451Y3408284D01*
X-10272843Y3413257D01*
X-10287955Y3421334D01*
X-10301198Y3432202D01*
X-10312067Y3445447D01*
X-10316161Y3453106D01*
X-10329774Y3473480D01*
X-10347101Y3490807D01*
X-10367476Y3504421D01*
X-10390114Y3513798D01*
X-10414148Y3518579D01*
X-10438652Y3518579D01*
X-10462685Y3513799D01*
X-10485324Y3504421D01*
X-10505698Y3490808D01*
X-10523025Y3473481D01*
X-10536639Y3453106D01*
X-10540733Y3445447D01*
X-10551602Y3432202D01*
X-10564845Y3421334D01*
X-10579957Y3413257D01*
X-10596349Y3408284D01*
X-10619541Y3406000D01*
X-11033259Y3406000D01*
X-11056451Y3408284D01*
X-11072843Y3413257D01*
X-11087955Y3421334D01*
X-11101198Y3432202D01*
X-11112066Y3445445D01*
X-11120143Y3460557D01*
X-11125116Y3476949D01*
X-11127400Y3500141D01*
X-11127400Y4913859D01*
X-11125116Y4937051D01*
X-11120143Y4953443D01*
X-11112066Y4968555D01*
X-11101198Y4981798D01*
X-11087955Y4992666D01*
X-11072843Y5000743D01*
X-11056451Y5005716D01*
X-11033259Y5008000D01*
X-10619541Y5008000D01*
X-10596349Y5005716D01*
X-10596349Y5005716D01*
G37*
G36*
X-3121349Y11480716D02*
G01*
X-3104957Y11475743D01*
X-3089845Y11467666D01*
X-3076602Y11456798D01*
X-3065734Y11443555D01*
X-3057657Y11428443D01*
X-3052684Y11412051D01*
X-3050400Y11388859D01*
X-3050400Y10975141D01*
X-3052684Y10951949D01*
X-3057657Y10935557D01*
X-3065734Y10920445D01*
X-3076602Y10907202D01*
X-3089847Y10896333D01*
X-3097506Y10892239D01*
X-3117880Y10878626D01*
X-3135207Y10861299D01*
X-3148821Y10840924D01*
X-3158198Y10818286D01*
X-3162979Y10794252D01*
X-3162979Y10769748D01*
X-3158199Y10745715D01*
X-3148821Y10723076D01*
X-3135208Y10702702D01*
X-3117881Y10685375D01*
X-3097506Y10671761D01*
X-3089847Y10667667D01*
X-3076602Y10656798D01*
X-3065734Y10643555D01*
X-3057657Y10628443D01*
X-3052684Y10612051D01*
X-3050400Y10588859D01*
X-3050400Y10175141D01*
X-3052684Y10151949D01*
X-3057657Y10135557D01*
X-3065734Y10120445D01*
X-3076602Y10107202D01*
X-3089847Y10096333D01*
X-3097506Y10092239D01*
X-3117880Y10078626D01*
X-3135207Y10061299D01*
X-3148821Y10040924D01*
X-3158198Y10018286D01*
X-3162979Y9994252D01*
X-3162979Y9969748D01*
X-3158199Y9945715D01*
X-3148821Y9923076D01*
X-3135208Y9902702D01*
X-3117881Y9885375D01*
X-3097506Y9871761D01*
X-3089847Y9867667D01*
X-3076602Y9856798D01*
X-3065734Y9843555D01*
X-3057657Y9828443D01*
X-3052684Y9812051D01*
X-3050400Y9788859D01*
X-3050400Y9375141D01*
X-3052684Y9351949D01*
X-3057657Y9335557D01*
X-3065734Y9320445D01*
X-3076602Y9307202D01*
X-3089847Y9296333D01*
X-3097506Y9292239D01*
X-3117880Y9278626D01*
X-3135207Y9261299D01*
X-3148821Y9240924D01*
X-3158198Y9218286D01*
X-3162979Y9194252D01*
X-3162979Y9169748D01*
X-3158199Y9145715D01*
X-3148821Y9123076D01*
X-3135208Y9102702D01*
X-3117881Y9085375D01*
X-3097506Y9071761D01*
X-3089847Y9067667D01*
X-3076602Y9056798D01*
X-3065734Y9043555D01*
X-3057657Y9028443D01*
X-3052684Y9012051D01*
X-3050400Y8988859D01*
X-3050400Y8575141D01*
X-3052684Y8551949D01*
X-3057657Y8535557D01*
X-3065734Y8520445D01*
X-3076602Y8507202D01*
X-3089847Y8496333D01*
X-3097506Y8492239D01*
X-3117880Y8478626D01*
X-3135207Y8461299D01*
X-3148821Y8440924D01*
X-3158198Y8418286D01*
X-3162979Y8394252D01*
X-3162979Y8369748D01*
X-3158199Y8345715D01*
X-3148821Y8323076D01*
X-3135208Y8302702D01*
X-3117881Y8285375D01*
X-3097506Y8271761D01*
X-3089847Y8267667D01*
X-3076602Y8256798D01*
X-3065734Y8243555D01*
X-3057657Y8228443D01*
X-3052684Y8212051D01*
X-3050400Y8188859D01*
X-3050400Y7775141D01*
X-3052684Y7751949D01*
X-3057657Y7735557D01*
X-3065734Y7720445D01*
X-3076602Y7707202D01*
X-3089847Y7696333D01*
X-3097506Y7692239D01*
X-3117880Y7678626D01*
X-3135207Y7661299D01*
X-3148821Y7640924D01*
X-3158198Y7618286D01*
X-3162979Y7594252D01*
X-3162979Y7569748D01*
X-3158199Y7545715D01*
X-3148821Y7523076D01*
X-3135208Y7502702D01*
X-3117881Y7485375D01*
X-3097506Y7471761D01*
X-3089847Y7467667D01*
X-3076602Y7456798D01*
X-3065734Y7443555D01*
X-3057657Y7428443D01*
X-3052684Y7412051D01*
X-3050400Y7388859D01*
X-3050400Y6975141D01*
X-3052684Y6951949D01*
X-3057657Y6935557D01*
X-3065734Y6920445D01*
X-3076602Y6907202D01*
X-3089847Y6896333D01*
X-3097506Y6892239D01*
X-3117880Y6878626D01*
X-3135207Y6861299D01*
X-3148821Y6840924D01*
X-3158198Y6818286D01*
X-3162979Y6794252D01*
X-3162979Y6769748D01*
X-3158199Y6745715D01*
X-3148821Y6723076D01*
X-3135208Y6702702D01*
X-3117881Y6685375D01*
X-3097506Y6671761D01*
X-3089847Y6667667D01*
X-3076602Y6656798D01*
X-3065734Y6643555D01*
X-3057657Y6628443D01*
X-3052684Y6612051D01*
X-3050400Y6588859D01*
X-3050400Y6175141D01*
X-3052684Y6151949D01*
X-3057657Y6135557D01*
X-3065734Y6120445D01*
X-3076602Y6107202D01*
X-3089847Y6096333D01*
X-3097506Y6092239D01*
X-3117880Y6078626D01*
X-3135207Y6061299D01*
X-3148821Y6040924D01*
X-3158198Y6018286D01*
X-3162979Y5994252D01*
X-3162979Y5969748D01*
X-3158199Y5945715D01*
X-3148821Y5923076D01*
X-3135208Y5902702D01*
X-3117881Y5885375D01*
X-3097506Y5871761D01*
X-3089847Y5867667D01*
X-3076602Y5856798D01*
X-3065734Y5843555D01*
X-3057657Y5828443D01*
X-3052684Y5812051D01*
X-3050400Y5788859D01*
X-3050400Y5375141D01*
X-3052684Y5351949D01*
X-3057657Y5335557D01*
X-3065734Y5320445D01*
X-3076602Y5307202D01*
X-3089845Y5296334D01*
X-3104957Y5288257D01*
X-3121349Y5283284D01*
X-3144541Y5281000D01*
X-4558259Y5281000D01*
X-4581451Y5283284D01*
X-4597843Y5288257D01*
X-4612955Y5296334D01*
X-4626198Y5307202D01*
X-4637066Y5320445D01*
X-4645143Y5335557D01*
X-4650116Y5351949D01*
X-4652400Y5375141D01*
X-4652400Y5788859D01*
X-4650116Y5812051D01*
X-4645143Y5828443D01*
X-4637066Y5843555D01*
X-4626198Y5856798D01*
X-4612953Y5867667D01*
X-4605294Y5871761D01*
X-4584920Y5885374D01*
X-4567593Y5902701D01*
X-4553979Y5923076D01*
X-4544602Y5945714D01*
X-4539821Y5969748D01*
X-4539821Y5994252D01*
X-4544601Y6018285D01*
X-4553979Y6040924D01*
X-4567592Y6061298D01*
X-4584919Y6078625D01*
X-4605294Y6092239D01*
X-4612953Y6096333D01*
X-4626198Y6107202D01*
X-4637066Y6120445D01*
X-4645143Y6135557D01*
X-4650116Y6151949D01*
X-4652400Y6175141D01*
X-4652400Y6588859D01*
X-4650116Y6612051D01*
X-4645143Y6628443D01*
X-4637066Y6643555D01*
X-4626198Y6656798D01*
X-4612953Y6667667D01*
X-4605294Y6671761D01*
X-4584920Y6685374D01*
X-4567593Y6702701D01*
X-4553979Y6723076D01*
X-4544602Y6745714D01*
X-4539821Y6769748D01*
X-4539821Y6794252D01*
X-4544601Y6818285D01*
X-4553979Y6840924D01*
X-4567592Y6861298D01*
X-4584919Y6878625D01*
X-4605294Y6892239D01*
X-4612953Y6896333D01*
X-4626198Y6907202D01*
X-4637066Y6920445D01*
X-4645143Y6935557D01*
X-4650116Y6951949D01*
X-4652400Y6975141D01*
X-4652400Y7388859D01*
X-4650116Y7412051D01*
X-4645143Y7428443D01*
X-4637066Y7443555D01*
X-4626198Y7456798D01*
X-4612953Y7467667D01*
X-4605294Y7471761D01*
X-4584920Y7485374D01*
X-4567593Y7502701D01*
X-4553979Y7523076D01*
X-4544602Y7545714D01*
X-4539821Y7569748D01*
X-4539821Y7594252D01*
X-4544601Y7618285D01*
X-4553979Y7640924D01*
X-4567592Y7661298D01*
X-4584919Y7678625D01*
X-4605294Y7692239D01*
X-4612953Y7696333D01*
X-4626198Y7707202D01*
X-4637066Y7720445D01*
X-4645143Y7735557D01*
X-4650116Y7751949D01*
X-4652400Y7775141D01*
X-4652400Y8188859D01*
X-4650116Y8212051D01*
X-4645143Y8228443D01*
X-4637066Y8243555D01*
X-4626198Y8256798D01*
X-4612953Y8267667D01*
X-4605294Y8271761D01*
X-4584920Y8285374D01*
X-4567593Y8302701D01*
X-4553979Y8323076D01*
X-4544602Y8345714D01*
X-4539821Y8369748D01*
X-4539821Y8394252D01*
X-4544601Y8418285D01*
X-4553979Y8440924D01*
X-4567592Y8461298D01*
X-4584919Y8478625D01*
X-4605294Y8492239D01*
X-4612953Y8496333D01*
X-4626198Y8507202D01*
X-4637066Y8520445D01*
X-4645143Y8535557D01*
X-4650116Y8551949D01*
X-4652400Y8575141D01*
X-4652400Y8988859D01*
X-4650116Y9012051D01*
X-4645143Y9028443D01*
X-4637066Y9043555D01*
X-4626198Y9056798D01*
X-4612953Y9067667D01*
X-4605294Y9071761D01*
X-4584920Y9085374D01*
X-4567593Y9102701D01*
X-4553979Y9123076D01*
X-4544602Y9145714D01*
X-4539821Y9169748D01*
X-4539821Y9194252D01*
X-4544601Y9218285D01*
X-4553979Y9240924D01*
X-4567592Y9261298D01*
X-4584919Y9278625D01*
X-4605294Y9292239D01*
X-4612953Y9296333D01*
X-4626198Y9307202D01*
X-4637066Y9320445D01*
X-4645143Y9335557D01*
X-4650116Y9351949D01*
X-4652400Y9375141D01*
X-4652400Y9788859D01*
X-4650116Y9812051D01*
X-4645143Y9828443D01*
X-4637066Y9843555D01*
X-4626198Y9856798D01*
X-4612953Y9867667D01*
X-4605294Y9871761D01*
X-4584920Y9885374D01*
X-4567593Y9902701D01*
X-4553979Y9923076D01*
X-4544602Y9945714D01*
X-4539821Y9969748D01*
X-4539821Y9994252D01*
X-4544601Y10018285D01*
X-4553979Y10040924D01*
X-4567592Y10061298D01*
X-4584919Y10078625D01*
X-4605294Y10092239D01*
X-4612953Y10096333D01*
X-4626198Y10107202D01*
X-4637066Y10120445D01*
X-4645143Y10135557D01*
X-4650116Y10151949D01*
X-4652400Y10175141D01*
X-4652400Y10588859D01*
X-4650116Y10612051D01*
X-4645143Y10628443D01*
X-4637066Y10643555D01*
X-4626198Y10656798D01*
X-4612953Y10667667D01*
X-4605294Y10671761D01*
X-4584920Y10685374D01*
X-4567593Y10702701D01*
X-4553979Y10723076D01*
X-4544602Y10745714D01*
X-4539821Y10769748D01*
X-4539821Y10794252D01*
X-4544601Y10818285D01*
X-4553979Y10840924D01*
X-4567592Y10861298D01*
X-4584919Y10878625D01*
X-4605294Y10892239D01*
X-4612953Y10896333D01*
X-4626198Y10907202D01*
X-4637066Y10920445D01*
X-4645143Y10935557D01*
X-4650116Y10951949D01*
X-4652400Y10975141D01*
X-4652400Y11388859D01*
X-4650116Y11412051D01*
X-4645143Y11428443D01*
X-4637066Y11443555D01*
X-4626198Y11456798D01*
X-4612955Y11467666D01*
X-4597843Y11475743D01*
X-4581451Y11480716D01*
X-4558259Y11483000D01*
X-3144541Y11483000D01*
X-3121349Y11480716D01*
X-3121349Y11480716D01*
G37*
G36*
X-11471349Y11480716D02*
G01*
X-11454957Y11475743D01*
X-11439845Y11467666D01*
X-11426602Y11456798D01*
X-11415734Y11443555D01*
X-11407657Y11428443D01*
X-11402684Y11412051D01*
X-11400400Y11388859D01*
X-11400400Y10975141D01*
X-11402684Y10951949D01*
X-11407657Y10935557D01*
X-11415734Y10920445D01*
X-11426602Y10907202D01*
X-11439847Y10896333D01*
X-11447506Y10892239D01*
X-11467880Y10878626D01*
X-11485207Y10861299D01*
X-11498821Y10840924D01*
X-11508198Y10818286D01*
X-11512979Y10794252D01*
X-11512979Y10769748D01*
X-11508199Y10745715D01*
X-11498821Y10723076D01*
X-11485208Y10702702D01*
X-11467881Y10685375D01*
X-11447506Y10671761D01*
X-11439847Y10667667D01*
X-11426602Y10656798D01*
X-11415734Y10643555D01*
X-11407657Y10628443D01*
X-11402684Y10612051D01*
X-11400400Y10588859D01*
X-11400400Y10175141D01*
X-11402684Y10151949D01*
X-11407657Y10135557D01*
X-11415734Y10120445D01*
X-11426602Y10107202D01*
X-11439847Y10096333D01*
X-11447506Y10092239D01*
X-11467880Y10078626D01*
X-11485207Y10061299D01*
X-11498821Y10040924D01*
X-11508198Y10018286D01*
X-11512979Y9994252D01*
X-11512979Y9969748D01*
X-11508199Y9945715D01*
X-11498821Y9923076D01*
X-11485208Y9902702D01*
X-11467881Y9885375D01*
X-11447506Y9871761D01*
X-11439847Y9867667D01*
X-11426602Y9856798D01*
X-11415734Y9843555D01*
X-11407657Y9828443D01*
X-11402684Y9812051D01*
X-11400400Y9788859D01*
X-11400400Y9375141D01*
X-11402684Y9351949D01*
X-11407657Y9335557D01*
X-11415734Y9320445D01*
X-11426602Y9307202D01*
X-11439847Y9296333D01*
X-11447506Y9292239D01*
X-11467880Y9278626D01*
X-11485207Y9261299D01*
X-11498821Y9240924D01*
X-11508198Y9218286D01*
X-11512979Y9194252D01*
X-11512979Y9169748D01*
X-11508199Y9145715D01*
X-11498821Y9123076D01*
X-11485208Y9102702D01*
X-11467881Y9085375D01*
X-11447506Y9071761D01*
X-11439847Y9067667D01*
X-11426602Y9056798D01*
X-11415734Y9043555D01*
X-11407657Y9028443D01*
X-11402684Y9012051D01*
X-11400400Y8988859D01*
X-11400400Y8575141D01*
X-11402684Y8551949D01*
X-11407657Y8535557D01*
X-11415734Y8520445D01*
X-11426602Y8507202D01*
X-11439847Y8496333D01*
X-11447506Y8492239D01*
X-11467880Y8478626D01*
X-11485207Y8461299D01*
X-11498821Y8440924D01*
X-11508198Y8418286D01*
X-11512979Y8394252D01*
X-11512979Y8369748D01*
X-11508199Y8345715D01*
X-11498821Y8323076D01*
X-11485208Y8302702D01*
X-11467881Y8285375D01*
X-11447506Y8271761D01*
X-11439847Y8267667D01*
X-11426602Y8256798D01*
X-11415734Y8243555D01*
X-11407657Y8228443D01*
X-11402684Y8212051D01*
X-11400400Y8188859D01*
X-11400400Y7775141D01*
X-11402684Y7751949D01*
X-11407657Y7735557D01*
X-11415734Y7720445D01*
X-11426602Y7707202D01*
X-11439847Y7696333D01*
X-11447506Y7692239D01*
X-11467880Y7678626D01*
X-11485207Y7661299D01*
X-11498821Y7640924D01*
X-11508198Y7618286D01*
X-11512979Y7594252D01*
X-11512979Y7569748D01*
X-11508199Y7545715D01*
X-11498821Y7523076D01*
X-11485208Y7502702D01*
X-11467881Y7485375D01*
X-11447506Y7471761D01*
X-11439847Y7467667D01*
X-11426602Y7456798D01*
X-11415734Y7443555D01*
X-11407657Y7428443D01*
X-11402684Y7412051D01*
X-11400400Y7388859D01*
X-11400400Y6975141D01*
X-11402684Y6951949D01*
X-11407657Y6935557D01*
X-11415734Y6920445D01*
X-11426602Y6907202D01*
X-11439847Y6896333D01*
X-11447506Y6892239D01*
X-11467880Y6878626D01*
X-11485207Y6861299D01*
X-11498821Y6840924D01*
X-11508198Y6818286D01*
X-11512979Y6794252D01*
X-11512979Y6769748D01*
X-11508199Y6745715D01*
X-11498821Y6723076D01*
X-11485208Y6702702D01*
X-11467881Y6685375D01*
X-11447506Y6671761D01*
X-11439847Y6667667D01*
X-11426602Y6656798D01*
X-11415734Y6643555D01*
X-11407657Y6628443D01*
X-11402684Y6612051D01*
X-11400400Y6588859D01*
X-11400400Y6175141D01*
X-11402684Y6151949D01*
X-11407657Y6135557D01*
X-11415734Y6120445D01*
X-11426602Y6107202D01*
X-11439847Y6096333D01*
X-11447506Y6092239D01*
X-11467880Y6078626D01*
X-11485207Y6061299D01*
X-11498821Y6040924D01*
X-11508198Y6018286D01*
X-11512979Y5994252D01*
X-11512979Y5969748D01*
X-11508199Y5945715D01*
X-11498821Y5923076D01*
X-11485208Y5902702D01*
X-11467881Y5885375D01*
X-11447506Y5871761D01*
X-11439847Y5867667D01*
X-11426602Y5856798D01*
X-11415734Y5843555D01*
X-11407657Y5828443D01*
X-11402684Y5812051D01*
X-11400400Y5788859D01*
X-11400400Y5375141D01*
X-11402684Y5351949D01*
X-11407657Y5335557D01*
X-11415734Y5320445D01*
X-11426602Y5307202D01*
X-11439845Y5296334D01*
X-11454957Y5288257D01*
X-11471349Y5283284D01*
X-11494541Y5281000D01*
X-12908259Y5281000D01*
X-12931451Y5283284D01*
X-12947843Y5288257D01*
X-12962955Y5296334D01*
X-12976198Y5307202D01*
X-12987066Y5320445D01*
X-12995143Y5335557D01*
X-13000116Y5351949D01*
X-13002400Y5375141D01*
X-13002400Y5788859D01*
X-13000116Y5812051D01*
X-12995143Y5828443D01*
X-12987066Y5843555D01*
X-12976198Y5856798D01*
X-12962953Y5867667D01*
X-12955294Y5871761D01*
X-12934920Y5885374D01*
X-12917593Y5902701D01*
X-12903979Y5923076D01*
X-12894602Y5945714D01*
X-12889821Y5969748D01*
X-12889821Y5994252D01*
X-12894601Y6018285D01*
X-12903979Y6040924D01*
X-12917592Y6061298D01*
X-12934919Y6078625D01*
X-12955294Y6092239D01*
X-12962953Y6096333D01*
X-12976198Y6107202D01*
X-12987066Y6120445D01*
X-12995143Y6135557D01*
X-13000116Y6151949D01*
X-13002400Y6175141D01*
X-13002400Y6588859D01*
X-13000116Y6612051D01*
X-12995143Y6628443D01*
X-12987066Y6643555D01*
X-12976198Y6656798D01*
X-12962953Y6667667D01*
X-12955294Y6671761D01*
X-12934920Y6685374D01*
X-12917593Y6702701D01*
X-12903979Y6723076D01*
X-12894602Y6745714D01*
X-12889821Y6769748D01*
X-12889821Y6794252D01*
X-12894601Y6818285D01*
X-12903979Y6840924D01*
X-12917592Y6861298D01*
X-12934919Y6878625D01*
X-12955294Y6892239D01*
X-12962953Y6896333D01*
X-12976198Y6907202D01*
X-12987066Y6920445D01*
X-12995143Y6935557D01*
X-13000116Y6951949D01*
X-13002400Y6975141D01*
X-13002400Y7388859D01*
X-13000116Y7412051D01*
X-12995143Y7428443D01*
X-12987066Y7443555D01*
X-12976198Y7456798D01*
X-12962953Y7467667D01*
X-12955294Y7471761D01*
X-12934920Y7485374D01*
X-12917593Y7502701D01*
X-12903979Y7523076D01*
X-12894602Y7545714D01*
X-12889821Y7569748D01*
X-12889821Y7594252D01*
X-12894601Y7618285D01*
X-12903979Y7640924D01*
X-12917592Y7661298D01*
X-12934919Y7678625D01*
X-12955294Y7692239D01*
X-12962953Y7696333D01*
X-12976198Y7707202D01*
X-12987066Y7720445D01*
X-12995143Y7735557D01*
X-13000116Y7751949D01*
X-13002400Y7775141D01*
X-13002400Y8188859D01*
X-13000116Y8212051D01*
X-12995143Y8228443D01*
X-12987066Y8243555D01*
X-12976198Y8256798D01*
X-12962953Y8267667D01*
X-12955294Y8271761D01*
X-12934920Y8285374D01*
X-12917593Y8302701D01*
X-12903979Y8323076D01*
X-12894602Y8345714D01*
X-12889821Y8369748D01*
X-12889821Y8394252D01*
X-12894601Y8418285D01*
X-12903979Y8440924D01*
X-12917592Y8461298D01*
X-12934919Y8478625D01*
X-12955294Y8492239D01*
X-12962953Y8496333D01*
X-12976198Y8507202D01*
X-12987066Y8520445D01*
X-12995143Y8535557D01*
X-13000116Y8551949D01*
X-13002400Y8575141D01*
X-13002400Y8988859D01*
X-13000116Y9012051D01*
X-12995143Y9028443D01*
X-12987066Y9043555D01*
X-12976198Y9056798D01*
X-12962953Y9067667D01*
X-12955294Y9071761D01*
X-12934920Y9085374D01*
X-12917593Y9102701D01*
X-12903979Y9123076D01*
X-12894602Y9145714D01*
X-12889821Y9169748D01*
X-12889821Y9194252D01*
X-12894601Y9218285D01*
X-12903979Y9240924D01*
X-12917592Y9261298D01*
X-12934919Y9278625D01*
X-12955294Y9292239D01*
X-12962953Y9296333D01*
X-12976198Y9307202D01*
X-12987066Y9320445D01*
X-12995143Y9335557D01*
X-13000116Y9351949D01*
X-13002400Y9375141D01*
X-13002400Y9788859D01*
X-13000116Y9812051D01*
X-12995143Y9828443D01*
X-12987066Y9843555D01*
X-12976198Y9856798D01*
X-12962953Y9867667D01*
X-12955294Y9871761D01*
X-12934920Y9885374D01*
X-12917593Y9902701D01*
X-12903979Y9923076D01*
X-12894602Y9945714D01*
X-12889821Y9969748D01*
X-12889821Y9994252D01*
X-12894601Y10018285D01*
X-12903979Y10040924D01*
X-12917592Y10061298D01*
X-12934919Y10078625D01*
X-12955294Y10092239D01*
X-12962953Y10096333D01*
X-12976198Y10107202D01*
X-12987066Y10120445D01*
X-12995143Y10135557D01*
X-13000116Y10151949D01*
X-13002400Y10175141D01*
X-13002400Y10588859D01*
X-13000116Y10612051D01*
X-12995143Y10628443D01*
X-12987066Y10643555D01*
X-12976198Y10656798D01*
X-12962953Y10667667D01*
X-12955294Y10671761D01*
X-12934920Y10685374D01*
X-12917593Y10702701D01*
X-12903979Y10723076D01*
X-12894602Y10745714D01*
X-12889821Y10769748D01*
X-12889821Y10794252D01*
X-12894601Y10818285D01*
X-12903979Y10840924D01*
X-12917592Y10861298D01*
X-12934919Y10878625D01*
X-12955294Y10892239D01*
X-12962953Y10896333D01*
X-12976198Y10907202D01*
X-12987066Y10920445D01*
X-12995143Y10935557D01*
X-13000116Y10951949D01*
X-13002400Y10975141D01*
X-13002400Y11388859D01*
X-13000116Y11412051D01*
X-12995143Y11428443D01*
X-12987066Y11443555D01*
X-12976198Y11456798D01*
X-12962955Y11467666D01*
X-12947843Y11475743D01*
X-12931451Y11480716D01*
X-12908259Y11483000D01*
X-11494541Y11483000D01*
X-11471349Y11480716D01*
X-11471349Y11480716D01*
G37*
G36*
X-19253851Y12327536D02*
G01*
X-19040367Y12285071D01*
X-18873773Y12216065D01*
X-18638174Y12118477D01*
X-18594319Y12089174D01*
X-18276207Y11876619D01*
X-17968381Y11568793D01*
X-17830114Y11361861D01*
X-17726523Y11206826D01*
X-17628935Y10971227D01*
X-17559929Y10804633D01*
X-17530523Y10656798D01*
X-17475000Y10377667D01*
X-17475000Y9942333D01*
X-17559929Y9515368D01*
X-17726523Y9113174D01*
X-17791377Y9016113D01*
X-17968381Y8751207D01*
X-18276207Y8443381D01*
X-18422375Y8345715D01*
X-18638174Y8201523D01*
X-18817698Y8127162D01*
X-19040367Y8034929D01*
X-19219486Y7999300D01*
X-19467333Y7950000D01*
X-19902667Y7950000D01*
X-20150514Y7999300D01*
X-20329633Y8034929D01*
X-20552302Y8127162D01*
X-20731826Y8201523D01*
X-20947625Y8345715D01*
X-21093793Y8443381D01*
X-21401619Y8751207D01*
X-21578623Y9016113D01*
X-21643477Y9113174D01*
X-21810071Y9515368D01*
X-21895000Y9942333D01*
X-21895000Y10377667D01*
X-21839477Y10656798D01*
X-21810071Y10804633D01*
X-21741065Y10971227D01*
X-21643477Y11206826D01*
X-21539886Y11361861D01*
X-21401619Y11568793D01*
X-21093793Y11876619D01*
X-20775681Y12089174D01*
X-20731826Y12118477D01*
X-20496227Y12216065D01*
X-20329633Y12285071D01*
X-20116149Y12327536D01*
X-19902667Y12370000D01*
X-19467333Y12370000D01*
X-19253851Y12327536D01*
X-19253851Y12327536D01*
G37*
G36*
X20116149Y12327536D02*
G01*
X20329633Y12285071D01*
X20496227Y12216065D01*
X20731826Y12118477D01*
X20775681Y12089174D01*
X21093793Y11876619D01*
X21401619Y11568793D01*
X21539886Y11361861D01*
X21643477Y11206826D01*
X21741065Y10971227D01*
X21810071Y10804633D01*
X21839477Y10656798D01*
X21895000Y10377667D01*
X21895000Y9942333D01*
X21810071Y9515368D01*
X21643477Y9113174D01*
X21578623Y9016113D01*
X21401619Y8751207D01*
X21093793Y8443381D01*
X20947625Y8345715D01*
X20731826Y8201523D01*
X20552302Y8127162D01*
X20329633Y8034929D01*
X20150514Y7999300D01*
X19902667Y7950000D01*
X19467333Y7950000D01*
X19219486Y7999300D01*
X19040367Y8034929D01*
X18817698Y8127162D01*
X18638174Y8201523D01*
X18422375Y8345715D01*
X18276207Y8443381D01*
X17968381Y8751207D01*
X17791377Y9016113D01*
X17726523Y9113174D01*
X17559929Y9515368D01*
X17475000Y9942333D01*
X17475000Y10377667D01*
X17530523Y10656798D01*
X17559929Y10804633D01*
X17628935Y10971227D01*
X17726523Y11206826D01*
X17830114Y11361861D01*
X17968381Y11568793D01*
X18276207Y11876619D01*
X18594319Y12089174D01*
X18638174Y12118477D01*
X18873773Y12216065D01*
X19040367Y12285071D01*
X19253851Y12327536D01*
X19467333Y12370000D01*
X19902667Y12370000D01*
X20116149Y12327536D01*
X20116149Y12327536D01*
G37*
G36*
X4128868Y9496735D02*
G01*
X4167538Y9485004D01*
X4203177Y9465954D01*
X4234417Y9440317D01*
X4260054Y9409077D01*
X4279104Y9373438D01*
X4290835Y9334768D01*
X4295400Y9288412D01*
X4295400Y8212188D01*
X4290835Y8165832D01*
X4279104Y8127162D01*
X4260054Y8091523D01*
X4234417Y8060283D01*
X4203177Y8034646D01*
X4167538Y8015596D01*
X4128868Y8003865D01*
X4082512Y7999300D01*
X3431288Y7999300D01*
X3384932Y8003865D01*
X3346262Y8015596D01*
X3310623Y8034646D01*
X3279383Y8060283D01*
X3253746Y8091523D01*
X3234696Y8127162D01*
X3222965Y8165832D01*
X3218400Y8212188D01*
X3218400Y9288412D01*
X3222965Y9334768D01*
X3234696Y9373438D01*
X3253746Y9409077D01*
X3279383Y9440317D01*
X3310623Y9465954D01*
X3346262Y9485004D01*
X3384932Y9496735D01*
X3431288Y9501300D01*
X4082512Y9501300D01*
X4128868Y9496735D01*
X4128868Y9496735D01*
G37*
G36*
X7583268Y9496735D02*
G01*
X7621938Y9485004D01*
X7657577Y9465954D01*
X7688817Y9440317D01*
X7714454Y9409077D01*
X7733504Y9373438D01*
X7745235Y9334768D01*
X7749800Y9288412D01*
X7749800Y8212188D01*
X7745235Y8165832D01*
X7733504Y8127162D01*
X7714454Y8091523D01*
X7688817Y8060283D01*
X7657577Y8034646D01*
X7621938Y8015596D01*
X7583268Y8003865D01*
X7536912Y7999300D01*
X6885688Y7999300D01*
X6839332Y8003865D01*
X6800662Y8015596D01*
X6765023Y8034646D01*
X6733783Y8060283D01*
X6708146Y8091523D01*
X6689096Y8127162D01*
X6677365Y8165832D01*
X6672800Y8212188D01*
X6672800Y9288412D01*
X6677365Y9334768D01*
X6689096Y9373438D01*
X6708146Y9409077D01*
X6733783Y9440317D01*
X6765023Y9465954D01*
X6800662Y9485004D01*
X6839332Y9496735D01*
X6885688Y9501300D01*
X7536912Y9501300D01*
X7583268Y9496735D01*
X7583268Y9496735D01*
G37*
G36*
X2253868Y9496735D02*
G01*
X2292538Y9485004D01*
X2328177Y9465954D01*
X2359417Y9440317D01*
X2385054Y9409077D01*
X2404104Y9373438D01*
X2415835Y9334768D01*
X2420400Y9288412D01*
X2420400Y8212188D01*
X2415835Y8165832D01*
X2404104Y8127162D01*
X2385054Y8091523D01*
X2359417Y8060283D01*
X2328177Y8034646D01*
X2292538Y8015596D01*
X2253868Y8003865D01*
X2207512Y7999300D01*
X1556288Y7999300D01*
X1509932Y8003865D01*
X1471262Y8015596D01*
X1435623Y8034646D01*
X1404383Y8060283D01*
X1378746Y8091523D01*
X1359696Y8127162D01*
X1347965Y8165832D01*
X1343400Y8212188D01*
X1343400Y9288412D01*
X1347965Y9334768D01*
X1359696Y9373438D01*
X1378746Y9409077D01*
X1404383Y9440317D01*
X1435623Y9465954D01*
X1471262Y9485004D01*
X1509932Y9496735D01*
X1556288Y9501300D01*
X2207512Y9501300D01*
X2253868Y9496735D01*
X2253868Y9496735D01*
G37*
G36*
X5708268Y9496735D02*
G01*
X5746938Y9485004D01*
X5782577Y9465954D01*
X5813817Y9440317D01*
X5839454Y9409077D01*
X5858504Y9373438D01*
X5870235Y9334768D01*
X5874800Y9288412D01*
X5874800Y8212188D01*
X5870235Y8165832D01*
X5858504Y8127162D01*
X5839454Y8091523D01*
X5813817Y8060283D01*
X5782577Y8034646D01*
X5746938Y8015596D01*
X5708268Y8003865D01*
X5661912Y7999300D01*
X5010688Y7999300D01*
X4964332Y8003865D01*
X4925662Y8015596D01*
X4890023Y8034646D01*
X4858783Y8060283D01*
X4833146Y8091523D01*
X4814096Y8127162D01*
X4802365Y8165832D01*
X4797800Y8212188D01*
X4797800Y9288412D01*
X4802365Y9334768D01*
X4814096Y9373438D01*
X4833146Y9409077D01*
X4858783Y9440317D01*
X4890023Y9465954D01*
X4925662Y9485004D01*
X4964332Y9496735D01*
X5010688Y9501300D01*
X5661912Y9501300D01*
X5708268Y9496735D01*
X5708268Y9496735D01*
G37*
G36*
X-10596349Y13355716D02*
G01*
X-10579957Y13350743D01*
X-10564845Y13342666D01*
X-10551602Y13331798D01*
X-10540733Y13318553D01*
X-10536639Y13310894D01*
X-10523026Y13290520D01*
X-10505699Y13273193D01*
X-10485324Y13259579D01*
X-10462686Y13250202D01*
X-10438652Y13245421D01*
X-10414148Y13245421D01*
X-10390115Y13250201D01*
X-10367476Y13259579D01*
X-10347102Y13273192D01*
X-10329775Y13290519D01*
X-10316161Y13310894D01*
X-10312067Y13318553D01*
X-10301198Y13331798D01*
X-10287955Y13342666D01*
X-10272843Y13350743D01*
X-10256451Y13355716D01*
X-10233259Y13358000D01*
X-9819541Y13358000D01*
X-9796349Y13355716D01*
X-9779957Y13350743D01*
X-9764845Y13342666D01*
X-9751602Y13331798D01*
X-9740733Y13318553D01*
X-9736639Y13310894D01*
X-9723026Y13290520D01*
X-9705699Y13273193D01*
X-9685324Y13259579D01*
X-9662686Y13250202D01*
X-9638652Y13245421D01*
X-9614148Y13245421D01*
X-9590115Y13250201D01*
X-9567476Y13259579D01*
X-9547102Y13273192D01*
X-9529775Y13290519D01*
X-9516161Y13310894D01*
X-9512067Y13318553D01*
X-9501198Y13331798D01*
X-9487955Y13342666D01*
X-9472843Y13350743D01*
X-9456451Y13355716D01*
X-9433259Y13358000D01*
X-9019541Y13358000D01*
X-8996349Y13355716D01*
X-8979957Y13350743D01*
X-8964845Y13342666D01*
X-8951602Y13331798D01*
X-8940733Y13318553D01*
X-8936639Y13310894D01*
X-8923026Y13290520D01*
X-8905699Y13273193D01*
X-8885324Y13259579D01*
X-8862686Y13250202D01*
X-8838652Y13245421D01*
X-8814148Y13245421D01*
X-8790115Y13250201D01*
X-8767476Y13259579D01*
X-8747102Y13273192D01*
X-8729775Y13290519D01*
X-8716161Y13310894D01*
X-8712067Y13318553D01*
X-8701198Y13331798D01*
X-8687955Y13342666D01*
X-8672843Y13350743D01*
X-8656451Y13355716D01*
X-8633259Y13358000D01*
X-8219541Y13358000D01*
X-8196349Y13355716D01*
X-8179957Y13350743D01*
X-8164845Y13342666D01*
X-8151602Y13331798D01*
X-8140733Y13318553D01*
X-8136639Y13310894D01*
X-8123026Y13290520D01*
X-8105699Y13273193D01*
X-8085324Y13259579D01*
X-8062686Y13250202D01*
X-8038652Y13245421D01*
X-8014148Y13245421D01*
X-7990115Y13250201D01*
X-7967476Y13259579D01*
X-7947102Y13273192D01*
X-7929775Y13290519D01*
X-7916161Y13310894D01*
X-7912067Y13318553D01*
X-7901198Y13331798D01*
X-7887955Y13342666D01*
X-7872843Y13350743D01*
X-7856451Y13355716D01*
X-7833259Y13358000D01*
X-7419541Y13358000D01*
X-7396349Y13355716D01*
X-7379957Y13350743D01*
X-7364845Y13342666D01*
X-7351602Y13331798D01*
X-7340733Y13318553D01*
X-7336639Y13310894D01*
X-7323026Y13290520D01*
X-7305699Y13273193D01*
X-7285324Y13259579D01*
X-7262686Y13250202D01*
X-7238652Y13245421D01*
X-7214148Y13245421D01*
X-7190115Y13250201D01*
X-7167476Y13259579D01*
X-7147102Y13273192D01*
X-7129775Y13290519D01*
X-7116161Y13310894D01*
X-7112067Y13318553D01*
X-7101198Y13331798D01*
X-7087955Y13342666D01*
X-7072843Y13350743D01*
X-7056451Y13355716D01*
X-7033259Y13358000D01*
X-6619541Y13358000D01*
X-6596349Y13355716D01*
X-6579957Y13350743D01*
X-6564845Y13342666D01*
X-6551602Y13331798D01*
X-6540733Y13318553D01*
X-6536639Y13310894D01*
X-6523026Y13290520D01*
X-6505699Y13273193D01*
X-6485324Y13259579D01*
X-6462686Y13250202D01*
X-6438652Y13245421D01*
X-6414148Y13245421D01*
X-6390115Y13250201D01*
X-6367476Y13259579D01*
X-6347102Y13273192D01*
X-6329775Y13290519D01*
X-6316161Y13310894D01*
X-6312067Y13318553D01*
X-6301198Y13331798D01*
X-6287955Y13342666D01*
X-6272843Y13350743D01*
X-6256451Y13355716D01*
X-6233259Y13358000D01*
X-5819541Y13358000D01*
X-5796349Y13355716D01*
X-5779957Y13350743D01*
X-5764845Y13342666D01*
X-5751602Y13331798D01*
X-5740733Y13318553D01*
X-5736639Y13310894D01*
X-5723026Y13290520D01*
X-5705699Y13273193D01*
X-5685324Y13259579D01*
X-5662686Y13250202D01*
X-5638652Y13245421D01*
X-5614148Y13245421D01*
X-5590115Y13250201D01*
X-5567476Y13259579D01*
X-5547102Y13273192D01*
X-5529775Y13290519D01*
X-5516161Y13310894D01*
X-5512067Y13318553D01*
X-5501198Y13331798D01*
X-5487955Y13342666D01*
X-5472843Y13350743D01*
X-5456451Y13355716D01*
X-5433259Y13358000D01*
X-5019541Y13358000D01*
X-4996349Y13355716D01*
X-4979957Y13350743D01*
X-4964845Y13342666D01*
X-4951602Y13331798D01*
X-4940734Y13318555D01*
X-4932657Y13303443D01*
X-4927684Y13287051D01*
X-4925400Y13263859D01*
X-4925400Y11850141D01*
X-4927684Y11826949D01*
X-4932657Y11810557D01*
X-4940734Y11795445D01*
X-4951602Y11782202D01*
X-4964845Y11771334D01*
X-4979957Y11763257D01*
X-4996349Y11758284D01*
X-5019541Y11756000D01*
X-5433259Y11756000D01*
X-5456451Y11758284D01*
X-5472843Y11763257D01*
X-5487955Y11771334D01*
X-5501198Y11782202D01*
X-5512067Y11795447D01*
X-5516161Y11803106D01*
X-5529774Y11823480D01*
X-5547101Y11840807D01*
X-5567476Y11854421D01*
X-5590114Y11863798D01*
X-5614148Y11868579D01*
X-5638652Y11868579D01*
X-5662685Y11863799D01*
X-5685324Y11854421D01*
X-5705698Y11840808D01*
X-5723025Y11823481D01*
X-5736639Y11803106D01*
X-5740733Y11795447D01*
X-5751602Y11782202D01*
X-5764845Y11771334D01*
X-5779957Y11763257D01*
X-5796349Y11758284D01*
X-5819541Y11756000D01*
X-6233259Y11756000D01*
X-6256451Y11758284D01*
X-6272843Y11763257D01*
X-6287955Y11771334D01*
X-6301198Y11782202D01*
X-6312067Y11795447D01*
X-6316161Y11803106D01*
X-6329774Y11823480D01*
X-6347101Y11840807D01*
X-6367476Y11854421D01*
X-6390114Y11863798D01*
X-6414148Y11868579D01*
X-6438652Y11868579D01*
X-6462685Y11863799D01*
X-6485324Y11854421D01*
X-6505698Y11840808D01*
X-6523025Y11823481D01*
X-6536639Y11803106D01*
X-6540733Y11795447D01*
X-6551602Y11782202D01*
X-6564845Y11771334D01*
X-6579957Y11763257D01*
X-6596349Y11758284D01*
X-6619541Y11756000D01*
X-7033259Y11756000D01*
X-7056451Y11758284D01*
X-7072843Y11763257D01*
X-7087955Y11771334D01*
X-7101198Y11782202D01*
X-7112067Y11795447D01*
X-7116161Y11803106D01*
X-7129774Y11823480D01*
X-7147101Y11840807D01*
X-7167476Y11854421D01*
X-7190114Y11863798D01*
X-7214148Y11868579D01*
X-7238652Y11868579D01*
X-7262685Y11863799D01*
X-7285324Y11854421D01*
X-7305698Y11840808D01*
X-7323025Y11823481D01*
X-7336639Y11803106D01*
X-7340733Y11795447D01*
X-7351602Y11782202D01*
X-7364845Y11771334D01*
X-7379957Y11763257D01*
X-7396349Y11758284D01*
X-7419541Y11756000D01*
X-7833259Y11756000D01*
X-7856451Y11758284D01*
X-7872843Y11763257D01*
X-7887955Y11771334D01*
X-7901198Y11782202D01*
X-7912067Y11795447D01*
X-7916161Y11803106D01*
X-7929774Y11823480D01*
X-7947101Y11840807D01*
X-7967476Y11854421D01*
X-7990114Y11863798D01*
X-8014148Y11868579D01*
X-8038652Y11868579D01*
X-8062685Y11863799D01*
X-8085324Y11854421D01*
X-8105698Y11840808D01*
X-8123025Y11823481D01*
X-8136639Y11803106D01*
X-8140733Y11795447D01*
X-8151602Y11782202D01*
X-8164845Y11771334D01*
X-8179957Y11763257D01*
X-8196349Y11758284D01*
X-8219541Y11756000D01*
X-8633259Y11756000D01*
X-8656451Y11758284D01*
X-8672843Y11763257D01*
X-8687955Y11771334D01*
X-8701198Y11782202D01*
X-8712067Y11795447D01*
X-8716161Y11803106D01*
X-8729774Y11823480D01*
X-8747101Y11840807D01*
X-8767476Y11854421D01*
X-8790114Y11863798D01*
X-8814148Y11868579D01*
X-8838652Y11868579D01*
X-8862685Y11863799D01*
X-8885324Y11854421D01*
X-8905698Y11840808D01*
X-8923025Y11823481D01*
X-8936639Y11803106D01*
X-8940733Y11795447D01*
X-8951602Y11782202D01*
X-8964845Y11771334D01*
X-8979957Y11763257D01*
X-8996349Y11758284D01*
X-9019541Y11756000D01*
X-9433259Y11756000D01*
X-9456451Y11758284D01*
X-9472843Y11763257D01*
X-9487955Y11771334D01*
X-9501198Y11782202D01*
X-9512067Y11795447D01*
X-9516161Y11803106D01*
X-9529774Y11823480D01*
X-9547101Y11840807D01*
X-9567476Y11854421D01*
X-9590114Y11863798D01*
X-9614148Y11868579D01*
X-9638652Y11868579D01*
X-9662685Y11863799D01*
X-9685324Y11854421D01*
X-9705698Y11840808D01*
X-9723025Y11823481D01*
X-9736639Y11803106D01*
X-9740733Y11795447D01*
X-9751602Y11782202D01*
X-9764845Y11771334D01*
X-9779957Y11763257D01*
X-9796349Y11758284D01*
X-9819541Y11756000D01*
X-10233259Y11756000D01*
X-10256451Y11758284D01*
X-10272843Y11763257D01*
X-10287955Y11771334D01*
X-10301198Y11782202D01*
X-10312067Y11795447D01*
X-10316161Y11803106D01*
X-10329774Y11823480D01*
X-10347101Y11840807D01*
X-10367476Y11854421D01*
X-10390114Y11863798D01*
X-10414148Y11868579D01*
X-10438652Y11868579D01*
X-10462685Y11863799D01*
X-10485324Y11854421D01*
X-10505698Y11840808D01*
X-10523025Y11823481D01*
X-10536639Y11803106D01*
X-10540733Y11795447D01*
X-10551602Y11782202D01*
X-10564845Y11771334D01*
X-10579957Y11763257D01*
X-10596349Y11758284D01*
X-10619541Y11756000D01*
X-11033259Y11756000D01*
X-11056451Y11758284D01*
X-11072843Y11763257D01*
X-11087955Y11771334D01*
X-11101198Y11782202D01*
X-11112066Y11795445D01*
X-11120143Y11810557D01*
X-11125116Y11826949D01*
X-11127400Y11850141D01*
X-11127400Y13263859D01*
X-11125116Y13287051D01*
X-11120143Y13303443D01*
X-11112066Y13318555D01*
X-11101198Y13331798D01*
X-11087955Y13342666D01*
X-11072843Y13350743D01*
X-11056451Y13355716D01*
X-11033259Y13358000D01*
X-10619541Y13358000D01*
X-10596349Y13355716D01*
X-10596349Y13355716D01*
G37*
G36*
X8399391Y12913315D02*
G01*
X8433369Y12903007D01*
X8464690Y12886266D01*
X8492139Y12863739D01*
X8514666Y12836290D01*
X8531407Y12804969D01*
X8541715Y12770991D01*
X8545800Y12729510D01*
X8545800Y12053290D01*
X8541715Y12011809D01*
X8531407Y11977831D01*
X8514666Y11946510D01*
X8492139Y11919061D01*
X8464690Y11896534D01*
X8433369Y11879793D01*
X8399391Y11869485D01*
X8357910Y11865400D01*
X7756690Y11865400D01*
X7715209Y11869485D01*
X7681231Y11879793D01*
X7649910Y11896534D01*
X7622461Y11919061D01*
X7599934Y11946510D01*
X7583193Y11977831D01*
X7572885Y12011809D01*
X7568800Y12053290D01*
X7568800Y12729510D01*
X7572885Y12770991D01*
X7583193Y12804969D01*
X7599934Y12836290D01*
X7622461Y12863739D01*
X7649910Y12886266D01*
X7681231Y12903007D01*
X7715209Y12913315D01*
X7756690Y12917400D01*
X8357910Y12917400D01*
X8399391Y12913315D01*
X8399391Y12913315D01*
G37*
G36*
X9974391Y12913315D02*
G01*
X10008369Y12903007D01*
X10039690Y12886266D01*
X10067139Y12863739D01*
X10089666Y12836290D01*
X10106407Y12804969D01*
X10116715Y12770991D01*
X10120800Y12729510D01*
X10120800Y12053290D01*
X10116715Y12011809D01*
X10106407Y11977831D01*
X10089666Y11946510D01*
X10067139Y11919061D01*
X10039690Y11896534D01*
X10008369Y11879793D01*
X9974391Y11869485D01*
X9932910Y11865400D01*
X9331690Y11865400D01*
X9290209Y11869485D01*
X9256231Y11879793D01*
X9224910Y11896534D01*
X9197461Y11919061D01*
X9174934Y11946510D01*
X9158193Y11977831D01*
X9147885Y12011809D01*
X9143800Y12053290D01*
X9143800Y12729510D01*
X9147885Y12770991D01*
X9158193Y12804969D01*
X9174934Y12836290D01*
X9197461Y12863739D01*
X9224910Y12886266D01*
X9256231Y12903007D01*
X9290209Y12913315D01*
X9331690Y12917400D01*
X9932910Y12917400D01*
X9974391Y12913315D01*
X9974391Y12913315D01*
G37*
G36*
X3275500Y14250299D02*
G01*
X3277902Y14225913D01*
X3285015Y14202464D01*
X3296566Y14180853D01*
X3312111Y14161911D01*
X3331053Y14146366D01*
X3352664Y14134815D01*
X3376113Y14127702D01*
X3400499Y14125300D01*
X3550500Y14125300D01*
X3550500Y12773300D01*
X3400499Y12773300D01*
X3376113Y12770898D01*
X3352664Y12763785D01*
X3331053Y12752234D01*
X3312111Y12736689D01*
X3296566Y12717747D01*
X3285015Y12696136D01*
X3277902Y12672687D01*
X3275500Y12648301D01*
X3275500Y11998300D01*
X1423500Y11998300D01*
X1423500Y12648301D01*
X1421098Y12672687D01*
X1413985Y12696136D01*
X1402434Y12717747D01*
X1386889Y12736689D01*
X1367947Y12752234D01*
X1346336Y12763785D01*
X1322887Y12770898D01*
X1298501Y12773300D01*
X1148500Y12773300D01*
X1148500Y14125300D01*
X1298501Y14125300D01*
X1322887Y14127702D01*
X1346336Y14134815D01*
X1367947Y14146366D01*
X1386889Y14161911D01*
X1402434Y14180853D01*
X1411759Y14198301D01*
X1725500Y14198301D01*
X1725500Y12700299D01*
X1727902Y12675913D01*
X1735015Y12652464D01*
X1746566Y12630853D01*
X1762111Y12611911D01*
X1781053Y12596366D01*
X1802664Y12584815D01*
X1826113Y12577702D01*
X1850499Y12575300D01*
X2848501Y12575300D01*
X2872887Y12577702D01*
X2896336Y12584815D01*
X2917947Y12596366D01*
X2936889Y12611911D01*
X2952434Y12630853D01*
X2963985Y12652464D01*
X2971098Y12675913D01*
X2973500Y12700299D01*
X2973500Y14198301D01*
X2971098Y14222687D01*
X2963985Y14246136D01*
X2952434Y14267747D01*
X2936889Y14286689D01*
X2917947Y14302234D01*
X2896336Y14313785D01*
X2872887Y14320898D01*
X2848501Y14323300D01*
X1850499Y14323300D01*
X1826113Y14320898D01*
X1802664Y14313785D01*
X1781053Y14302234D01*
X1762111Y14286689D01*
X1746566Y14267747D01*
X1735015Y14246136D01*
X1727902Y14222687D01*
X1725500Y14198301D01*
X1411759Y14198301D01*
X1413985Y14202464D01*
X1421098Y14225913D01*
X1423500Y14250299D01*
X1423500Y14900300D01*
X3275500Y14900300D01*
X3275500Y14250299D01*
X3275500Y14250299D01*
G37*
G36*
X5554468Y13156435D02*
G01*
X5593138Y13144704D01*
X5628777Y13125654D01*
X5660017Y13100017D01*
X5685654Y13068777D01*
X5704704Y13033138D01*
X5716435Y12994468D01*
X5721000Y12948112D01*
X5721000Y12296888D01*
X5716435Y12250532D01*
X5704704Y12211862D01*
X5685654Y12176223D01*
X5660017Y12144983D01*
X5628777Y12119346D01*
X5593138Y12100296D01*
X5554468Y12088565D01*
X5508112Y12084000D01*
X4431888Y12084000D01*
X4385532Y12088565D01*
X4346862Y12100296D01*
X4311223Y12119346D01*
X4279983Y12144983D01*
X4254346Y12176223D01*
X4235296Y12211862D01*
X4223565Y12250532D01*
X4219000Y12296888D01*
X4219000Y12948112D01*
X4223565Y12994468D01*
X4235296Y13033138D01*
X4254346Y13068777D01*
X4279983Y13100017D01*
X4311223Y13125654D01*
X4346862Y13144704D01*
X4385532Y13156435D01*
X4431888Y13161000D01*
X5508112Y13161000D01*
X5554468Y13156435D01*
X5554468Y13156435D01*
G37*
G36*
X8279268Y15042835D02*
G01*
X8317938Y15031104D01*
X8353577Y15012054D01*
X8384817Y14986417D01*
X8410454Y14955177D01*
X8429504Y14919538D01*
X8441235Y14880868D01*
X8445800Y14834512D01*
X8445800Y13758288D01*
X8441235Y13711932D01*
X8429504Y13673262D01*
X8410454Y13637623D01*
X8384817Y13606383D01*
X8353577Y13580746D01*
X8317938Y13561696D01*
X8279268Y13549965D01*
X8232912Y13545400D01*
X7581688Y13545400D01*
X7535332Y13549965D01*
X7496662Y13561696D01*
X7461023Y13580746D01*
X7429783Y13606383D01*
X7404146Y13637623D01*
X7385096Y13673262D01*
X7373365Y13711932D01*
X7368800Y13758288D01*
X7368800Y14834512D01*
X7373365Y14880868D01*
X7385096Y14919538D01*
X7404146Y14955177D01*
X7429783Y14986417D01*
X7461023Y15012054D01*
X7496662Y15031104D01*
X7535332Y15042835D01*
X7581688Y15047400D01*
X8232912Y15047400D01*
X8279268Y15042835D01*
X8279268Y15042835D01*
G37*
G36*
X10154268Y15042835D02*
G01*
X10192938Y15031104D01*
X10228577Y15012054D01*
X10259817Y14986417D01*
X10285454Y14955177D01*
X10304504Y14919538D01*
X10316235Y14880868D01*
X10320800Y14834512D01*
X10320800Y13758288D01*
X10316235Y13711932D01*
X10304504Y13673262D01*
X10285454Y13637623D01*
X10259817Y13606383D01*
X10228577Y13580746D01*
X10192938Y13561696D01*
X10154268Y13549965D01*
X10107912Y13545400D01*
X9456688Y13545400D01*
X9410332Y13549965D01*
X9371662Y13561696D01*
X9336023Y13580746D01*
X9304783Y13606383D01*
X9279146Y13637623D01*
X9260096Y13673262D01*
X9248365Y13711932D01*
X9243800Y13758288D01*
X9243800Y14834512D01*
X9248365Y14880868D01*
X9260096Y14919538D01*
X9279146Y14955177D01*
X9304783Y14986417D01*
X9336023Y15012054D01*
X9371662Y15031104D01*
X9410332Y15042835D01*
X9456688Y15047400D01*
X10107912Y15047400D01*
X10154268Y15042835D01*
X10154268Y15042835D01*
G37*
G36*
X5554468Y15031435D02*
G01*
X5593138Y15019704D01*
X5628777Y15000654D01*
X5660017Y14975017D01*
X5685654Y14943777D01*
X5704704Y14908138D01*
X5716435Y14869468D01*
X5721000Y14823112D01*
X5721000Y14171888D01*
X5716435Y14125532D01*
X5704704Y14086862D01*
X5685654Y14051223D01*
X5660017Y14019983D01*
X5628777Y13994346D01*
X5593138Y13975296D01*
X5554468Y13963565D01*
X5508112Y13959000D01*
X4431888Y13959000D01*
X4385532Y13963565D01*
X4346862Y13975296D01*
X4311223Y13994346D01*
X4279983Y14019983D01*
X4254346Y14051223D01*
X4235296Y14086862D01*
X4223565Y14125532D01*
X4219000Y14171888D01*
X4219000Y14823112D01*
X4223565Y14869468D01*
X4235296Y14908138D01*
X4254346Y14943777D01*
X4279983Y14975017D01*
X4311223Y15000654D01*
X4346862Y15019704D01*
X4385532Y15031435D01*
X4431888Y15036000D01*
X5508112Y15036000D01*
X5554468Y15031435D01*
X5554468Y15031435D01*
G37*
G36*
X8845494Y20297764D02*
G01*
X9072032Y20203928D01*
X9072034Y20203927D01*
X9275914Y20067699D01*
X9449299Y19894314D01*
X9585527Y19690434D01*
X9585528Y19690432D01*
X9679364Y19463894D01*
X9727200Y19223403D01*
X9727200Y18978197D01*
X9679364Y18737706D01*
X9585528Y18511168D01*
X9585527Y18511166D01*
X9449299Y18307286D01*
X9275914Y18133901D01*
X9072034Y17997673D01*
X9072033Y17997672D01*
X9072032Y17997672D01*
X8845494Y17903836D01*
X8605003Y17856000D01*
X8359797Y17856000D01*
X8119306Y17903836D01*
X7892768Y17997672D01*
X7892767Y17997672D01*
X7892766Y17997673D01*
X7688886Y18133901D01*
X7515501Y18307286D01*
X7379273Y18511166D01*
X7379272Y18511168D01*
X7285436Y18737706D01*
X7237600Y18978197D01*
X7237600Y19223403D01*
X7285436Y19463894D01*
X7379272Y19690432D01*
X7379273Y19690434D01*
X7515501Y19894314D01*
X7688886Y20067699D01*
X7892766Y20203927D01*
X7892768Y20203928D01*
X8119306Y20297764D01*
X8359797Y20345600D01*
X8605003Y20345600D01*
X8845494Y20297764D01*
X8845494Y20297764D01*
G37*
G36*
X5670494Y20297764D02*
G01*
X5897032Y20203928D01*
X5897034Y20203927D01*
X6100914Y20067699D01*
X6274299Y19894314D01*
X6410527Y19690434D01*
X6410528Y19690432D01*
X6504364Y19463894D01*
X6552200Y19223403D01*
X6552200Y18978197D01*
X6504364Y18737706D01*
X6410528Y18511168D01*
X6410527Y18511166D01*
X6274299Y18307286D01*
X6100914Y18133901D01*
X5897034Y17997673D01*
X5897033Y17997672D01*
X5897032Y17997672D01*
X5670494Y17903836D01*
X5430003Y17856000D01*
X5184797Y17856000D01*
X4944306Y17903836D01*
X4717768Y17997672D01*
X4717767Y17997672D01*
X4717766Y17997673D01*
X4513886Y18133901D01*
X4340501Y18307286D01*
X4204273Y18511166D01*
X4204272Y18511168D01*
X4110436Y18737706D01*
X4062600Y18978197D01*
X4062600Y19223403D01*
X4110436Y19463894D01*
X4204272Y19690432D01*
X4204273Y19690434D01*
X4340501Y19894314D01*
X4513886Y20067699D01*
X4717766Y20203927D01*
X4717768Y20203928D01*
X4944306Y20297764D01*
X5184797Y20345600D01*
X5430003Y20345600D01*
X5670494Y20297764D01*
X5670494Y20297764D01*
G37*
G36*
X10520228Y20940228D02*
G01*
X10557863Y20932742D01*
X10664217Y20888689D01*
X10759933Y20824733D01*
X10841333Y20743333D01*
X10905289Y20647617D01*
X10934220Y20577770D01*
X10949342Y20541262D01*
X10971800Y20428360D01*
X10971800Y20313240D01*
X10968721Y20297763D01*
X10949342Y20200337D01*
X10905289Y20093983D01*
X10841333Y19998267D01*
X10759933Y19916867D01*
X10664217Y19852911D01*
X10557863Y19808858D01*
X10520228Y19801372D01*
X10444960Y19786400D01*
X10329840Y19786400D01*
X10254572Y19801372D01*
X10216937Y19808858D01*
X10110583Y19852911D01*
X10014867Y19916867D01*
X9933467Y19998267D01*
X9869511Y20093983D01*
X9825458Y20200337D01*
X9806079Y20297763D01*
X9803000Y20313240D01*
X9803000Y20428360D01*
X9825458Y20541262D01*
X9840580Y20577770D01*
X9869511Y20647617D01*
X9933467Y20743333D01*
X10014867Y20824733D01*
X10110583Y20888689D01*
X10216937Y20932742D01*
X10254572Y20940228D01*
X10329840Y20955200D01*
X10444960Y20955200D01*
X10520228Y20940228D01*
X10520228Y20940228D01*
G37*
G36*
X7988286Y21470239D02*
G01*
X8076185Y21433830D01*
X8076186Y21433829D01*
X8155295Y21380971D01*
X8222571Y21313695D01*
X8252924Y21268268D01*
X8275430Y21234585D01*
X8311839Y21146686D01*
X8330400Y21053373D01*
X8330400Y20958227D01*
X8311839Y20864914D01*
X8275430Y20777015D01*
X8275429Y20777014D01*
X8222571Y20697905D01*
X8155295Y20630629D01*
X8102436Y20595310D01*
X8076185Y20577770D01*
X7988286Y20541361D01*
X7894973Y20522800D01*
X7799827Y20522800D01*
X7706514Y20541361D01*
X7618615Y20577770D01*
X7592364Y20595310D01*
X7539505Y20630629D01*
X7472229Y20697905D01*
X7419371Y20777014D01*
X7419370Y20777015D01*
X7382961Y20864914D01*
X7364400Y20958227D01*
X7364400Y21053373D01*
X7382961Y21146686D01*
X7419370Y21234585D01*
X7441876Y21268268D01*
X7472229Y21313695D01*
X7539505Y21380971D01*
X7618614Y21433829D01*
X7618615Y21433830D01*
X7706514Y21470239D01*
X7799827Y21488800D01*
X7894973Y21488800D01*
X7988286Y21470239D01*
X7988286Y21470239D01*
G37*
G36*
X9258286Y21470239D02*
G01*
X9346185Y21433830D01*
X9346186Y21433829D01*
X9425295Y21380971D01*
X9492571Y21313695D01*
X9522924Y21268268D01*
X9545430Y21234585D01*
X9581839Y21146686D01*
X9600400Y21053373D01*
X9600400Y20958227D01*
X9581839Y20864914D01*
X9545430Y20777015D01*
X9545429Y20777014D01*
X9492571Y20697905D01*
X9425295Y20630629D01*
X9372436Y20595310D01*
X9346185Y20577770D01*
X9258286Y20541361D01*
X9164973Y20522800D01*
X9069827Y20522800D01*
X8976514Y20541361D01*
X8888615Y20577770D01*
X8862364Y20595310D01*
X8809505Y20630629D01*
X8742229Y20697905D01*
X8689371Y20777014D01*
X8689370Y20777015D01*
X8652961Y20864914D01*
X8634400Y20958227D01*
X8634400Y21053373D01*
X8652961Y21146686D01*
X8689370Y21234585D01*
X8711876Y21268268D01*
X8742229Y21313695D01*
X8809505Y21380971D01*
X8888614Y21433829D01*
X8888615Y21433830D01*
X8976514Y21470239D01*
X9069827Y21488800D01*
X9164973Y21488800D01*
X9258286Y21470239D01*
X9258286Y21470239D01*
G37*
G36*
X6718286Y21470239D02*
G01*
X6806185Y21433830D01*
X6806186Y21433829D01*
X6885295Y21380971D01*
X6952571Y21313695D01*
X6982924Y21268268D01*
X7005430Y21234585D01*
X7041839Y21146686D01*
X7060400Y21053373D01*
X7060400Y20958227D01*
X7041839Y20864914D01*
X7005430Y20777015D01*
X7005429Y20777014D01*
X6952571Y20697905D01*
X6885295Y20630629D01*
X6832436Y20595310D01*
X6806185Y20577770D01*
X6718286Y20541361D01*
X6624973Y20522800D01*
X6529827Y20522800D01*
X6436514Y20541361D01*
X6348615Y20577770D01*
X6322364Y20595310D01*
X6269505Y20630629D01*
X6202229Y20697905D01*
X6149371Y20777014D01*
X6149370Y20777015D01*
X6112961Y20864914D01*
X6094400Y20958227D01*
X6094400Y21053373D01*
X6112961Y21146686D01*
X6149370Y21234585D01*
X6171876Y21268268D01*
X6202229Y21313695D01*
X6269505Y21380971D01*
X6348614Y21433829D01*
X6348615Y21433830D01*
X6436514Y21470239D01*
X6529827Y21488800D01*
X6624973Y21488800D01*
X6718286Y21470239D01*
X6718286Y21470239D01*
G37*
G36*
X5440228Y22210228D02*
G01*
X5477863Y22202742D01*
X5584217Y22158689D01*
X5679933Y22094733D01*
X5761333Y22013333D01*
X5825289Y21917617D01*
X5869342Y21811263D01*
X5891800Y21698358D01*
X5891800Y21583242D01*
X5869342Y21470337D01*
X5825289Y21363983D01*
X5761333Y21268267D01*
X5679933Y21186867D01*
X5584217Y21122911D01*
X5477863Y21078858D01*
X5440228Y21071372D01*
X5364960Y21056400D01*
X5249840Y21056400D01*
X5174572Y21071372D01*
X5136937Y21078858D01*
X5030583Y21122911D01*
X4934867Y21186867D01*
X4853467Y21268267D01*
X4789511Y21363983D01*
X4745458Y21470337D01*
X4723000Y21583242D01*
X4723000Y21698358D01*
X4745458Y21811263D01*
X4789511Y21917617D01*
X4853467Y22013333D01*
X4934867Y22094733D01*
X5030583Y22158689D01*
X5136937Y22202742D01*
X5174572Y22210228D01*
X5249840Y22225200D01*
X5364960Y22225200D01*
X5440228Y22210228D01*
X5440228Y22210228D01*
G37*
G36*
X9258286Y22740239D02*
G01*
X9346185Y22703830D01*
X9346186Y22703829D01*
X9425295Y22650971D01*
X9492571Y22583695D01*
X9513062Y22553027D01*
X9545430Y22504585D01*
X9581839Y22416686D01*
X9600400Y22323373D01*
X9600400Y22228227D01*
X9581839Y22134914D01*
X9545430Y22047015D01*
X9529040Y22022485D01*
X9492571Y21967905D01*
X9425295Y21900629D01*
X9372436Y21865310D01*
X9346185Y21847770D01*
X9258286Y21811361D01*
X9164973Y21792800D01*
X9069827Y21792800D01*
X8976514Y21811361D01*
X8888615Y21847770D01*
X8862364Y21865310D01*
X8809505Y21900629D01*
X8742229Y21967905D01*
X8705760Y22022485D01*
X8689370Y22047015D01*
X8652961Y22134914D01*
X8634400Y22228227D01*
X8634400Y22323373D01*
X8652961Y22416686D01*
X8689370Y22504585D01*
X8721738Y22553027D01*
X8742229Y22583695D01*
X8809505Y22650971D01*
X8888614Y22703829D01*
X8888615Y22703830D01*
X8976514Y22740239D01*
X9069827Y22758800D01*
X9164973Y22758800D01*
X9258286Y22740239D01*
X9258286Y22740239D01*
G37*
G36*
X6718286Y22740239D02*
G01*
X6806185Y22703830D01*
X6806186Y22703829D01*
X6885295Y22650971D01*
X6952571Y22583695D01*
X6973062Y22553027D01*
X7005430Y22504585D01*
X7041839Y22416686D01*
X7060400Y22323373D01*
X7060400Y22228227D01*
X7041839Y22134914D01*
X7005430Y22047015D01*
X6989040Y22022485D01*
X6952571Y21967905D01*
X6885295Y21900629D01*
X6832436Y21865310D01*
X6806185Y21847770D01*
X6718286Y21811361D01*
X6624973Y21792800D01*
X6529827Y21792800D01*
X6436514Y21811361D01*
X6348615Y21847770D01*
X6322364Y21865310D01*
X6269505Y21900629D01*
X6202229Y21967905D01*
X6165760Y22022485D01*
X6149370Y22047015D01*
X6112961Y22134914D01*
X6094400Y22228227D01*
X6094400Y22323373D01*
X6112961Y22416686D01*
X6149370Y22504585D01*
X6181738Y22553027D01*
X6202229Y22583695D01*
X6269505Y22650971D01*
X6348614Y22703829D01*
X6348615Y22703830D01*
X6436514Y22740239D01*
X6529827Y22758800D01*
X6624973Y22758800D01*
X6718286Y22740239D01*
X6718286Y22740239D01*
G37*
G36*
X7988286Y22740239D02*
G01*
X8076185Y22703830D01*
X8076186Y22703829D01*
X8155295Y22650971D01*
X8222571Y22583695D01*
X8243062Y22553027D01*
X8275430Y22504585D01*
X8311839Y22416686D01*
X8330400Y22323373D01*
X8330400Y22228227D01*
X8311839Y22134914D01*
X8275430Y22047015D01*
X8259040Y22022485D01*
X8222571Y21967905D01*
X8155295Y21900629D01*
X8102436Y21865310D01*
X8076185Y21847770D01*
X7988286Y21811361D01*
X7894973Y21792800D01*
X7799827Y21792800D01*
X7706514Y21811361D01*
X7618615Y21847770D01*
X7592364Y21865310D01*
X7539505Y21900629D01*
X7472229Y21967905D01*
X7435760Y22022485D01*
X7419370Y22047015D01*
X7382961Y22134914D01*
X7364400Y22228227D01*
X7364400Y22323373D01*
X7382961Y22416686D01*
X7419370Y22504585D01*
X7451738Y22553027D01*
X7472229Y22583695D01*
X7539505Y22650971D01*
X7618614Y22703829D01*
X7618615Y22703830D01*
X7706514Y22740239D01*
X7799827Y22758800D01*
X7894973Y22758800D01*
X7988286Y22740239D01*
X7988286Y22740239D01*
G37*
G36*
X-7872382Y23776580D02*
G01*
X-7791600Y23752075D01*
X-7749664Y23739354D01*
X-7636575Y23678906D01*
X-7537446Y23597554D01*
X-7456094Y23498425D01*
X-7395646Y23385336D01*
X-7395645Y23385332D01*
X-7358420Y23262618D01*
X-7349000Y23166973D01*
X-7349000Y22553027D01*
X-7358420Y22457382D01*
X-7370765Y22416686D01*
X-7395646Y22334664D01*
X-7456094Y22221575D01*
X-7537446Y22122447D01*
X-7636576Y22041094D01*
X-7749665Y21980646D01*
X-7781597Y21970960D01*
X-7872383Y21943420D01*
X-8000000Y21930851D01*
X-8127618Y21943420D01*
X-8218404Y21970960D01*
X-8250336Y21980646D01*
X-8363425Y22041094D01*
X-8462553Y22122446D01*
X-8543906Y22221576D01*
X-8604354Y22334665D01*
X-8614040Y22366597D01*
X-8641580Y22457383D01*
X-8651000Y22553028D01*
X-8651000Y23166973D01*
X-8641580Y23262618D01*
X-8604355Y23385332D01*
X-8604355Y23385333D01*
X-8545629Y23495200D01*
X-8543905Y23498426D01*
X-8530507Y23514751D01*
X-8462553Y23597554D01*
X-8363424Y23678906D01*
X-8250335Y23739354D01*
X-8208399Y23752075D01*
X-8127617Y23776580D01*
X-8000000Y23789149D01*
X-7872382Y23776580D01*
X-7872382Y23776580D01*
G37*
G36*
X-1872382Y23776580D02*
G01*
X-1791600Y23752075D01*
X-1749664Y23739354D01*
X-1636575Y23678906D01*
X-1537446Y23597554D01*
X-1456094Y23498425D01*
X-1395646Y23385336D01*
X-1395645Y23385332D01*
X-1358420Y23262618D01*
X-1349000Y23166973D01*
X-1349000Y22553027D01*
X-1358420Y22457382D01*
X-1370765Y22416686D01*
X-1395646Y22334664D01*
X-1456094Y22221575D01*
X-1537446Y22122447D01*
X-1636576Y22041094D01*
X-1749665Y21980646D01*
X-1781597Y21970960D01*
X-1872383Y21943420D01*
X-2000000Y21930851D01*
X-2127618Y21943420D01*
X-2218404Y21970960D01*
X-2250336Y21980646D01*
X-2363425Y22041094D01*
X-2462553Y22122446D01*
X-2543906Y22221576D01*
X-2604354Y22334665D01*
X-2614040Y22366597D01*
X-2641580Y22457383D01*
X-2651000Y22553028D01*
X-2651000Y23166973D01*
X-2641580Y23262618D01*
X-2604355Y23385332D01*
X-2604355Y23385333D01*
X-2545629Y23495200D01*
X-2543905Y23498426D01*
X-2530507Y23514751D01*
X-2462553Y23597554D01*
X-2363424Y23678906D01*
X-2250335Y23739354D01*
X-2208399Y23752075D01*
X-2127617Y23776580D01*
X-2000000Y23789149D01*
X-1872382Y23776580D01*
X-1872382Y23776580D01*
G37*
G36*
X-3872382Y23776580D02*
G01*
X-3791600Y23752075D01*
X-3749664Y23739354D01*
X-3636575Y23678906D01*
X-3537446Y23597554D01*
X-3456094Y23498425D01*
X-3395646Y23385336D01*
X-3395645Y23385332D01*
X-3358420Y23262618D01*
X-3349000Y23166973D01*
X-3349000Y22553027D01*
X-3358420Y22457382D01*
X-3370765Y22416686D01*
X-3395646Y22334664D01*
X-3456094Y22221575D01*
X-3537446Y22122447D01*
X-3636576Y22041094D01*
X-3749665Y21980646D01*
X-3781597Y21970960D01*
X-3872383Y21943420D01*
X-4000000Y21930851D01*
X-4127618Y21943420D01*
X-4218404Y21970960D01*
X-4250336Y21980646D01*
X-4363425Y22041094D01*
X-4462553Y22122446D01*
X-4543906Y22221576D01*
X-4604354Y22334665D01*
X-4614040Y22366597D01*
X-4641580Y22457383D01*
X-4651000Y22553028D01*
X-4651000Y23166973D01*
X-4641580Y23262618D01*
X-4604355Y23385332D01*
X-4604355Y23385333D01*
X-4545629Y23495200D01*
X-4543905Y23498426D01*
X-4530507Y23514751D01*
X-4462553Y23597554D01*
X-4363424Y23678906D01*
X-4250335Y23739354D01*
X-4208399Y23752075D01*
X-4127617Y23776580D01*
X-4000000Y23789149D01*
X-3872382Y23776580D01*
X-3872382Y23776580D01*
G37*
G36*
X-5872382Y23776580D02*
G01*
X-5791600Y23752075D01*
X-5749664Y23739354D01*
X-5636575Y23678906D01*
X-5537446Y23597554D01*
X-5456094Y23498425D01*
X-5395646Y23385336D01*
X-5395645Y23385332D01*
X-5358420Y23262618D01*
X-5349000Y23166973D01*
X-5349000Y22553027D01*
X-5358420Y22457382D01*
X-5370765Y22416686D01*
X-5395646Y22334664D01*
X-5456094Y22221575D01*
X-5537446Y22122447D01*
X-5636576Y22041094D01*
X-5749665Y21980646D01*
X-5781597Y21970960D01*
X-5872383Y21943420D01*
X-6000000Y21930851D01*
X-6127618Y21943420D01*
X-6218404Y21970960D01*
X-6250336Y21980646D01*
X-6363425Y22041094D01*
X-6462553Y22122446D01*
X-6543906Y22221576D01*
X-6604354Y22334665D01*
X-6614040Y22366597D01*
X-6641580Y22457383D01*
X-6651000Y22553028D01*
X-6651000Y23166973D01*
X-6641580Y23262618D01*
X-6604355Y23385332D01*
X-6604355Y23385333D01*
X-6545629Y23495200D01*
X-6543905Y23498426D01*
X-6530507Y23514751D01*
X-6462553Y23597554D01*
X-6363424Y23678906D01*
X-6250335Y23739354D01*
X-6208399Y23752075D01*
X-6127617Y23776580D01*
X-6000000Y23789149D01*
X-5872382Y23776580D01*
X-5872382Y23776580D01*
G37*
G36*
X-9872382Y23776580D02*
G01*
X-9791600Y23752075D01*
X-9749664Y23739354D01*
X-9636575Y23678906D01*
X-9537446Y23597554D01*
X-9456094Y23498425D01*
X-9395646Y23385336D01*
X-9395645Y23385332D01*
X-9358420Y23262618D01*
X-9349000Y23166973D01*
X-9349000Y22553027D01*
X-9358420Y22457382D01*
X-9370765Y22416686D01*
X-9395646Y22334664D01*
X-9456094Y22221575D01*
X-9537446Y22122447D01*
X-9636576Y22041094D01*
X-9749665Y21980646D01*
X-9781597Y21970960D01*
X-9872383Y21943420D01*
X-10000000Y21930851D01*
X-10127618Y21943420D01*
X-10218404Y21970960D01*
X-10250336Y21980646D01*
X-10363425Y22041094D01*
X-10462553Y22122446D01*
X-10543906Y22221576D01*
X-10604354Y22334665D01*
X-10614040Y22366597D01*
X-10641580Y22457383D01*
X-10651000Y22553028D01*
X-10651000Y23166973D01*
X-10641580Y23262618D01*
X-10604355Y23385332D01*
X-10604355Y23385333D01*
X-10545629Y23495200D01*
X-10543905Y23498426D01*
X-10530507Y23514751D01*
X-10462553Y23597554D01*
X-10363424Y23678906D01*
X-10250335Y23739354D01*
X-10208399Y23752075D01*
X-10127617Y23776580D01*
X-10000000Y23789149D01*
X-9872382Y23776580D01*
X-9872382Y23776580D01*
G37*
G36*
X491242Y23781596D02*
G01*
X528337Y23770343D01*
X562515Y23752075D01*
X592481Y23727481D01*
X617075Y23697515D01*
X635343Y23663337D01*
X646596Y23626242D01*
X651000Y23581526D01*
X651000Y22138474D01*
X646596Y22093758D01*
X635343Y22056663D01*
X617075Y22022485D01*
X592481Y21992519D01*
X562515Y21967925D01*
X528337Y21949657D01*
X491242Y21938404D01*
X446526Y21934000D01*
X-446526Y21934000D01*
X-491242Y21938404D01*
X-528337Y21949657D01*
X-562515Y21967925D01*
X-592481Y21992519D01*
X-617075Y22022485D01*
X-635343Y22056663D01*
X-646596Y22093758D01*
X-651000Y22138474D01*
X-651000Y23581526D01*
X-646596Y23626242D01*
X-635343Y23663337D01*
X-617075Y23697515D01*
X-592481Y23727481D01*
X-562515Y23752075D01*
X-528337Y23770343D01*
X-491242Y23781596D01*
X-446526Y23786000D01*
X446526Y23786000D01*
X491242Y23781596D01*
X491242Y23781596D01*
G37*
G36*
X10520228Y23480228D02*
G01*
X10557863Y23472742D01*
X10664217Y23428689D01*
X10759933Y23364733D01*
X10841333Y23283333D01*
X10905289Y23187617D01*
X10949342Y23081263D01*
X10949342Y23081262D01*
X10968722Y22983836D01*
X10971800Y22968358D01*
X10971800Y22853242D01*
X10949342Y22740337D01*
X10905289Y22633983D01*
X10841333Y22538267D01*
X10759933Y22456867D01*
X10664217Y22392911D01*
X10557863Y22348858D01*
X10520228Y22341372D01*
X10444960Y22326400D01*
X10329840Y22326400D01*
X10254572Y22341372D01*
X10216937Y22348858D01*
X10110583Y22392911D01*
X10014867Y22456867D01*
X9933467Y22538267D01*
X9869511Y22633983D01*
X9825458Y22740337D01*
X9803000Y22853242D01*
X9803000Y22968358D01*
X9806079Y22983836D01*
X9825458Y23081262D01*
X9825458Y23081263D01*
X9869511Y23187617D01*
X9933467Y23283333D01*
X10014867Y23364733D01*
X10110583Y23428689D01*
X10216937Y23472742D01*
X10254572Y23480228D01*
X10329840Y23495200D01*
X10444960Y23495200D01*
X10520228Y23480228D01*
X10520228Y23480228D01*
G37*
G36*
X8845494Y25377764D02*
G01*
X9072032Y25283928D01*
X9072034Y25283927D01*
X9275914Y25147699D01*
X9449299Y24974314D01*
X9585527Y24770434D01*
X9585528Y24770432D01*
X9679364Y24543894D01*
X9727200Y24303403D01*
X9727200Y24058197D01*
X9679364Y23817706D01*
X9600056Y23626242D01*
X9585527Y23591166D01*
X9449299Y23387286D01*
X9275914Y23213901D01*
X9072034Y23077673D01*
X9072033Y23077672D01*
X9072032Y23077672D01*
X8845494Y22983836D01*
X8605003Y22936000D01*
X8359797Y22936000D01*
X8119306Y22983836D01*
X7892768Y23077672D01*
X7892767Y23077672D01*
X7892766Y23077673D01*
X7688886Y23213901D01*
X7515501Y23387286D01*
X7379273Y23591166D01*
X7364744Y23626242D01*
X7285436Y23817706D01*
X7237600Y24058197D01*
X7237600Y24303403D01*
X7285436Y24543894D01*
X7379272Y24770432D01*
X7379273Y24770434D01*
X7515501Y24974314D01*
X7688886Y25147699D01*
X7892766Y25283927D01*
X7892768Y25283928D01*
X8119306Y25377764D01*
X8359797Y25425600D01*
X8605003Y25425600D01*
X8845494Y25377764D01*
X8845494Y25377764D01*
G37*
G36*
X5670494Y25377764D02*
G01*
X5897032Y25283928D01*
X5897034Y25283927D01*
X6100914Y25147699D01*
X6274299Y24974314D01*
X6410527Y24770434D01*
X6410528Y24770432D01*
X6504364Y24543894D01*
X6552200Y24303403D01*
X6552200Y24058197D01*
X6504364Y23817706D01*
X6425056Y23626242D01*
X6410527Y23591166D01*
X6274299Y23387286D01*
X6100914Y23213901D01*
X5897034Y23077673D01*
X5897033Y23077672D01*
X5897032Y23077672D01*
X5670494Y22983836D01*
X5430003Y22936000D01*
X5184797Y22936000D01*
X4944306Y22983836D01*
X4717768Y23077672D01*
X4717767Y23077672D01*
X4717766Y23077673D01*
X4513886Y23213901D01*
X4340501Y23387286D01*
X4204273Y23591166D01*
X4189744Y23626242D01*
X4110436Y23817706D01*
X4062600Y24058197D01*
X4062600Y24303403D01*
X4110436Y24543894D01*
X4204272Y24770432D01*
X4204273Y24770434D01*
X4340501Y24974314D01*
X4513886Y25147699D01*
X4717766Y25283927D01*
X4717768Y25283928D01*
X4944306Y25377764D01*
X5184797Y25425600D01*
X5430003Y25425600D01*
X5670494Y25377764D01*
X5670494Y25377764D01*
G37*
M02*
