G04 #@! TF.GenerationSoftware,KiCad,Pcbnew,(5.1.4)-1*
G04 #@! TF.CreationDate,2020-06-09T22:28:14-07:00*
G04 #@! TF.ProjectId,SkateLightMainBoard,536b6174-654c-4696-9768-744d61696e42,rev?*
G04 #@! TF.SameCoordinates,Original*
G04 #@! TF.FileFunction,Copper,L3,Inr*
G04 #@! TF.FilePolarity,Positive*
%FSLAX46Y46*%
G04 Gerber Fmt 4.6, Leading zero omitted, Abs format (unit mm)*
G04 Created by KiCad (PCBNEW (5.1.4)-1) date 2020-06-09 22:28:14*
%MOMM*%
%LPD*%
G04 APERTURE LIST*
%ADD10C,4.318000*%
%ADD11C,1.016000*%
%ADD12C,0.100000*%
%ADD13C,1.200000*%
%ADD14O,1.200000X1.750000*%
%ADD15C,0.600000*%
%ADD16C,0.500000*%
%ADD17C,0.200000*%
%ADD18C,0.254000*%
G04 APERTURE END LIST*
D10*
X19685000Y10160000D03*
X19685000Y-13843000D03*
X-19685000Y-13843000D03*
X-19685000Y10160000D03*
D11*
X-4445000Y-33613000D03*
X-4445000Y-34883000D03*
X-3175000Y-33613000D03*
X-3175000Y-34883000D03*
X-1905000Y-33613000D03*
X-1905000Y-34883000D03*
X-635000Y-33613000D03*
X-635000Y-34883000D03*
X635000Y-33613000D03*
X635000Y-34883000D03*
X1905000Y-33613000D03*
X1905000Y-34883000D03*
X3175000Y-33613000D03*
X3175000Y-34883000D03*
X4445000Y-33613000D03*
X4445000Y-34883000D03*
D12*
G36*
X374505Y23733796D02*
G01*
X398773Y23730196D01*
X422572Y23724235D01*
X445671Y23715970D01*
X467850Y23705480D01*
X488893Y23692868D01*
X508599Y23678253D01*
X526777Y23661777D01*
X543253Y23643599D01*
X557868Y23623893D01*
X570480Y23602850D01*
X580970Y23580671D01*
X589235Y23557572D01*
X595196Y23533773D01*
X598796Y23509505D01*
X600000Y23485001D01*
X600000Y22234999D01*
X598796Y22210495D01*
X595196Y22186227D01*
X589235Y22162428D01*
X580970Y22139329D01*
X570480Y22117150D01*
X557868Y22096107D01*
X543253Y22076401D01*
X526777Y22058223D01*
X508599Y22041747D01*
X488893Y22027132D01*
X467850Y22014520D01*
X445671Y22004030D01*
X422572Y21995765D01*
X398773Y21989804D01*
X374505Y21986204D01*
X350001Y21985000D01*
X-350001Y21985000D01*
X-374505Y21986204D01*
X-398773Y21989804D01*
X-422572Y21995765D01*
X-445671Y22004030D01*
X-467850Y22014520D01*
X-488893Y22027132D01*
X-508599Y22041747D01*
X-526777Y22058223D01*
X-543253Y22076401D01*
X-557868Y22096107D01*
X-570480Y22117150D01*
X-580970Y22139329D01*
X-589235Y22162428D01*
X-595196Y22186227D01*
X-598796Y22210495D01*
X-600000Y22234999D01*
X-600000Y23485001D01*
X-598796Y23509505D01*
X-595196Y23533773D01*
X-589235Y23557572D01*
X-580970Y23580671D01*
X-570480Y23602850D01*
X-557868Y23623893D01*
X-543253Y23643599D01*
X-526777Y23661777D01*
X-508599Y23678253D01*
X-488893Y23692868D01*
X-467850Y23705480D01*
X-445671Y23715970D01*
X-422572Y23724235D01*
X-398773Y23730196D01*
X-374505Y23733796D01*
X-350001Y23735000D01*
X350001Y23735000D01*
X374505Y23733796D01*
X374505Y23733796D01*
G37*
D13*
X0Y22860000D03*
D14*
X-2000000Y22860000D03*
X-4000000Y22860000D03*
X-6000000Y22860000D03*
X-8000000Y22860000D03*
X-10000000Y22860000D03*
D15*
X-8074660Y-20248880D03*
X-2880000Y-29130500D03*
X-1841500Y-29130500D03*
X-2349500Y-28257500D03*
X-2349500Y-29972000D03*
X-2349500Y-31686500D03*
X-2880000Y-30845000D03*
X-1841500Y-30845000D03*
X-3429000Y-28257500D03*
X-3492500Y-31686500D03*
X-13566140Y-30032960D03*
X-12250420Y-34731960D03*
X-8031480Y-33715960D03*
X8445500Y-20447000D03*
X9920000Y-24354000D03*
X13144500Y-21183600D03*
X12862560Y-19276060D03*
X12839700Y-18155920D03*
X12839700Y-16217900D03*
X12827000Y-14914880D03*
X12887960Y-27178000D03*
X12938760Y-30698440D03*
X13058140Y-33771840D03*
X10825480Y-35186620D03*
X11135360Y-32722820D03*
X8422640Y-26169620D03*
X-4645660Y-36662360D03*
X-6939280Y-21313140D03*
X-8092440Y-21280120D03*
X-5969000Y-19517360D03*
X-4632960Y-20657820D03*
X-4411980Y-18887440D03*
X-4191000Y-23050500D03*
X650240Y-23329900D03*
X-2575560Y-20612100D03*
X-1554480Y-20599400D03*
X-2146300Y-19936460D03*
X-2087880Y-21280120D03*
X-1079500Y-21272500D03*
X-2301240Y-18762980D03*
X3395980Y-23507700D03*
X-2550160Y-23334980D03*
X-13616854Y-21779829D03*
X-13616220Y-26704387D03*
X2418080Y-36601400D03*
X66040Y-36504880D03*
X-2214880Y-36576000D03*
X-3492500Y-29972000D03*
X12740000Y-24244000D03*
X-16510000Y-13970000D03*
X13970000Y-13970000D03*
X16510000Y-13970000D03*
X-21590000Y-11430000D03*
X-16510000Y-11430000D03*
X-6350000Y-11430000D03*
X-3810000Y-11430000D03*
X-1270000Y-11430000D03*
X1270000Y-11430000D03*
X11430000Y-11430000D03*
X13970000Y-11430000D03*
X16510000Y-11430000D03*
X21590000Y-11430000D03*
X-21590000Y-8890000D03*
X-19050000Y-8890000D03*
X-16510000Y-8890000D03*
X-4640000Y-9370000D03*
X8890000Y-8890000D03*
X11430000Y-8890000D03*
X13970000Y-8890000D03*
X16510000Y-8890000D03*
X19050000Y-8890000D03*
X21590000Y-8890000D03*
X-21590000Y-6350000D03*
X-19050000Y-6350000D03*
X-16510000Y-6350000D03*
X-6350000Y-6350000D03*
X11430000Y-6350000D03*
X13970000Y-6350000D03*
X16510000Y-6350000D03*
X19050000Y-6350000D03*
X21590000Y-6350000D03*
X-21590000Y-3810000D03*
X-19050000Y-3810000D03*
X-16510000Y-3810000D03*
X-6350000Y-3810000D03*
X11430000Y-3810000D03*
X13970000Y-3810000D03*
X16510000Y-3810000D03*
X19050000Y-3810000D03*
X21590000Y-3810000D03*
X-21590000Y-1270000D03*
X-19050000Y-1270000D03*
X-16510000Y-1270000D03*
X-6350000Y-1270000D03*
X-3810000Y-1270000D03*
X4290000Y-1570000D03*
X11430000Y-1270000D03*
X13970000Y-1270000D03*
X16510000Y-1270000D03*
X19080000Y-1350000D03*
X21590000Y-1270000D03*
X-21590000Y1270000D03*
X-19050000Y1270000D03*
X-16510000Y1270000D03*
X-4390000Y1190000D03*
X4380000Y290000D03*
X7090000Y1550000D03*
X9060000Y1660000D03*
X12250000Y840000D03*
X13970000Y1270000D03*
X16510000Y1270000D03*
X19140000Y1280000D03*
X21590000Y1270000D03*
X-21590000Y3810000D03*
X-19050000Y3810000D03*
X-16510000Y3810000D03*
X-1630000Y3490000D03*
X3810000Y3810000D03*
X6350000Y3810000D03*
X8890000Y3810000D03*
X11430000Y3810000D03*
X13970000Y3810000D03*
X16510000Y3810000D03*
X19050000Y3810000D03*
X21590000Y3810000D03*
X-21590000Y6350000D03*
X-19050000Y6350000D03*
X-16510000Y6350000D03*
X6350000Y6350000D03*
X8890000Y6350000D03*
X11430000Y6350000D03*
X13970000Y6350000D03*
X16510000Y6350000D03*
X19050000Y6350000D03*
X21590000Y6350000D03*
X-16510000Y8890000D03*
X-1270000Y8890000D03*
X-5320000Y9210000D03*
X8890000Y8890000D03*
X11430000Y8890000D03*
X13970000Y8890000D03*
X16510000Y8890000D03*
X-16510000Y11430000D03*
X11430000Y11430000D03*
X13970000Y11430000D03*
X16510000Y11430000D03*
X-1270000Y13970000D03*
X11590000Y13420000D03*
X-11430000Y16510000D03*
X-6350000Y16510000D03*
X-1270000Y16510000D03*
X1270000Y16510000D03*
X3810000Y16510000D03*
X6970000Y16350000D03*
X8890000Y16510000D03*
X11430000Y16510000D03*
X-11430000Y19050000D03*
X-6350000Y19050000D03*
X-1270000Y19050000D03*
X1270000Y19050000D03*
X11430000Y19050000D03*
X-11430000Y21590000D03*
X11430000Y21590000D03*
X-11430000Y24130000D03*
X11430000Y24130000D03*
X-7680000Y-9390000D03*
X7490000Y-23004000D03*
X-4060000Y3770000D03*
X4572000Y-3048000D03*
X2794000Y-12700000D03*
X3048000Y-4953000D03*
X3937000Y-4953000D03*
X3429000Y-5715000D03*
X3937000Y-8001000D03*
X3048000Y-8001000D03*
X3429000Y-7239000D03*
X3937000Y-6477000D03*
X3048000Y-6477000D03*
X10030000Y-18796000D03*
X-13616143Y-23245867D03*
X2448800Y-1028700D03*
X-11430000Y11430000D03*
X-9857559Y-32321828D03*
X-10081500Y10223500D03*
X-3761500Y5461000D03*
X-12160000Y-11870000D03*
X10109200Y-3246600D03*
X-10081500Y6159500D03*
X-12960000Y12920000D03*
X-11988800Y4775200D03*
X8128000Y-1373900D03*
X-11578657Y4141048D03*
X5397500Y-33357820D03*
X2118360Y-35849560D03*
X-10795000Y3048000D03*
X-4953000Y-25605500D03*
X1187410Y-27235968D03*
X-12582522Y-33568974D03*
X-9700000Y13920000D03*
X-10338894Y-33799777D03*
X498166Y13691388D03*
X-4756915Y14076620D03*
X-13400000Y4470000D03*
X-5842000Y13665200D03*
X-9685524Y-33426639D03*
X-7518400Y13665200D03*
X593504Y12945051D03*
X-12857242Y3948923D03*
X-9109027Y-32924067D03*
X-6492794Y10963194D03*
X863600Y12242800D03*
X-12680000Y3130000D03*
X-8371600Y-7683500D03*
X573500Y-7710500D03*
X-9370000Y-8220000D03*
X-2220000Y-8385900D03*
X-13326213Y-28917991D03*
X-7231415Y3041415D03*
X-13396856Y-17414000D03*
X-8601012Y-10821012D03*
X-2641600Y9559997D03*
X-9090000Y-2600000D03*
X-2641600Y8807594D03*
X-6590000Y400000D03*
X-2641600Y7975600D03*
X-7350000Y-4120000D03*
X-10040000Y-3840000D03*
X-5560000Y7960000D03*
X-11049000Y8699500D03*
X6920000Y20040000D03*
X8026400Y-35273100D03*
X-9259891Y3091336D03*
X9700000Y11260000D03*
X-6589395Y8760000D03*
X-9120000Y5480000D03*
X4930000Y-36550000D03*
X-962255Y10626790D03*
X3340000Y22650000D03*
X-5029200Y10820400D03*
X6910000Y23280000D03*
X-6756400Y5384800D03*
X3251200Y11684000D03*
X2743200Y15544800D03*
X-2570000Y6500000D03*
X-8280400Y13665200D03*
X762000Y14427200D03*
X-7286817Y-22918901D03*
X-9806940Y-29809440D03*
X-4985042Y-27506856D03*
X-6182360Y-28516580D03*
X8270240Y-18407380D03*
X6667500Y-18351500D03*
X6667500Y-20510500D03*
X7493000Y-18923000D03*
X6667500Y-19396500D03*
X7493000Y-19939000D03*
X4953000Y-17335500D03*
X5778500Y-17809000D03*
X5778500Y-19939000D03*
X5778500Y-18923000D03*
X4953000Y-20510500D03*
X4953000Y-19396500D03*
X4953000Y-18351500D03*
X184190Y-13652500D03*
X7391400Y-17734280D03*
X-10294576Y-13295424D03*
X-8573183Y-22918901D03*
X-8890000Y-14302500D03*
X4572000Y-24638000D03*
X4572000Y-25654000D03*
X2794000Y-25654000D03*
X1929000Y-25111500D03*
X2794000Y-24638000D03*
X1016000Y-25654000D03*
X151000Y-25111500D03*
X1016000Y-24638000D03*
X-762000Y-25654000D03*
X-762000Y-24638000D03*
X-1627000Y-25111500D03*
X-2540000Y-24638000D03*
X-2540000Y-25654000D03*
X3488788Y-25056116D03*
X-8145780Y-31854402D03*
X-5656580Y-26570940D03*
X-854098Y-27416000D03*
X-7931175Y-18849738D03*
X-10530000Y-18862408D03*
X8840000Y-17804000D03*
X-4521200Y13106400D03*
X410000Y7720000D03*
X-4780000Y-17894000D03*
X-6589394Y6149394D03*
X3464800Y7023100D03*
X-4080000Y-12720000D03*
X-1270000Y-32639000D03*
X-8382000Y3048000D03*
X9235378Y-33399373D03*
X1270000Y-8890000D03*
X-6043822Y3098893D03*
X1524000Y4013200D03*
X-11124497Y-33727310D03*
X-13360000Y9530000D03*
X-11842996Y-33430324D03*
X-13410000Y10320000D03*
X-13271500Y7429500D03*
X7241540Y-35229800D03*
X-10033000Y3048000D03*
X-9144000Y11277600D03*
D16*
X9319260Y-22047200D02*
X-12417476Y-22047200D01*
X10030000Y-21336460D02*
X9319260Y-22047200D01*
X10030000Y-18796000D02*
X10030000Y-21336460D01*
X-12417476Y-22047200D02*
X-13316144Y-22945868D01*
X-13316144Y-22945868D02*
X-13616143Y-23245867D01*
D17*
X-11988800Y4775200D02*
X1978900Y4775200D01*
X1978900Y4775200D02*
X8128000Y-1373900D01*
D16*
X-4953000Y-25605500D02*
X-4200411Y-26358089D01*
X-4200411Y-26358089D02*
X309531Y-26358089D01*
X887411Y-26935969D02*
X1187410Y-27235968D01*
X309531Y-26358089D02*
X887411Y-26935969D01*
D17*
X498166Y13691388D02*
X-601202Y12592020D01*
X-601202Y12592020D02*
X-3092420Y12592020D01*
X-4160846Y13563600D02*
X-4668846Y14071600D01*
X-3092420Y12592020D02*
X-4064000Y13563600D01*
X-4064000Y13563600D02*
X-4160846Y13563600D01*
X-4668846Y14071600D02*
X-4751895Y14071600D01*
X-4751895Y14071600D02*
X-4756915Y14076620D01*
X-13100001Y5173541D02*
X-6113542Y12160000D01*
X-13400000Y4470000D02*
X-13100001Y4769999D01*
X-13100001Y4769999D02*
X-13100001Y5173541D01*
X-6113542Y12160000D02*
X-6113542Y13393658D01*
X-6113542Y13393658D02*
X-5842000Y13665200D01*
X-6908800Y14274800D02*
X-7518400Y13665200D01*
X593504Y12945051D02*
X-111937Y12239610D01*
X-4619610Y12239610D02*
X-5289599Y12909599D01*
X-5289599Y12909599D02*
X-5289599Y13930353D01*
X-111937Y12239610D02*
X-4619610Y12239610D01*
X-5289599Y13930353D02*
X-5634046Y14274800D01*
X-5634046Y14274800D02*
X-6908800Y14274800D01*
X-13952401Y4204847D02*
X-13952401Y4819523D01*
X-13665153Y3917599D02*
X-13952401Y4204847D01*
X-12857242Y3948923D02*
X-12888566Y3917599D01*
X-12888566Y3917599D02*
X-13665153Y3917599D01*
X-7518400Y11253524D02*
X-7518400Y13665200D01*
X-13952401Y4819523D02*
X-7518400Y11253524D01*
X-12247609Y5491209D02*
X-6862809Y10876009D01*
X-12247609Y5491209D02*
X-12171409Y5567409D01*
X-6862809Y10876009D02*
X-6775624Y10963194D01*
X-6775624Y10963194D02*
X-6492794Y10963194D01*
X-6492794Y10963194D02*
X-5568788Y11887200D01*
X-5568788Y11887200D02*
X508000Y11887200D01*
X508000Y11887200D02*
X863600Y12242800D01*
X-12541201Y5197617D02*
X-12247609Y5491209D01*
X-12541201Y4441201D02*
X-12541201Y5197617D01*
X-12304841Y4204841D02*
X-12541201Y4441201D01*
X-12304841Y3505159D02*
X-12304841Y4204841D01*
X-12680000Y3130000D02*
X-12304841Y3505159D01*
D16*
X-8371600Y-7683500D02*
X573500Y-7683500D01*
X573500Y-7683500D02*
X573500Y-7710500D01*
X-9204100Y-8385900D02*
X-9370000Y-8220000D01*
X-2220000Y-8385900D02*
X-9204100Y-8385900D01*
D17*
X-9594106Y-11813742D02*
X-9593742Y-11813742D01*
X-9593742Y-11813742D02*
X-8610000Y-10830000D01*
X-8610000Y-10830000D02*
X-8610000Y-10750000D01*
X-12675182Y-16692326D02*
X-13396856Y-17414000D01*
X-12675182Y-13878818D02*
X-12675182Y-16692326D01*
X-9594106Y-11813742D02*
X-12675182Y-14894818D01*
X2738401Y11131599D02*
X2690810Y11179190D01*
X9147335Y11131599D02*
X2738401Y11131599D01*
X9700000Y11260000D02*
X9275736Y11260000D01*
X9275736Y11260000D02*
X9147335Y11131599D01*
X2690810Y11179190D02*
X-760000Y11179190D01*
X-3852856Y11179190D02*
X-4752046Y10280000D01*
X-760000Y11179190D02*
X-3852856Y11179190D01*
X-4764047Y10267999D02*
X-5872053Y10267999D01*
X-4752046Y10280000D02*
X-4764047Y10267999D01*
X-5872053Y10267999D02*
X-6720000Y9420052D01*
X-6720000Y9420052D02*
X-6720000Y8890605D01*
X-6720000Y8890605D02*
X-6589395Y8760000D01*
X-8000000Y22585000D02*
X-8000000Y22860000D01*
X-7147590Y21732590D02*
X-8000000Y22585000D01*
X3950144Y21732590D02*
X-7147590Y21732590D01*
X4644155Y22426601D02*
X3950144Y21732590D01*
X6056601Y22426601D02*
X4644155Y22426601D01*
X6910000Y23280000D02*
X6056601Y22426601D01*
X2674536Y11531600D02*
X2826936Y11684000D01*
X-6756400Y5384800D02*
X-7141795Y5770195D01*
X2826936Y11684000D02*
X3251200Y11684000D01*
X-7141795Y5770195D02*
X-7141795Y9496639D01*
X-7141795Y9496639D02*
X-5103644Y11534790D01*
X-5103644Y11534790D02*
X-4168790Y11534790D01*
X-4168790Y11534790D02*
X-4165600Y11531600D01*
X-4165600Y11531600D02*
X2674536Y11531600D01*
X2641600Y15443200D02*
X2743200Y15544800D01*
X337736Y14427200D02*
X-1145034Y12944430D01*
X762000Y14427200D02*
X337736Y14427200D01*
X-1145034Y12944430D02*
X-2632030Y12944430D01*
X-8280400Y14089464D02*
X-8280400Y13665200D01*
X-7740843Y14629021D02*
X-8280400Y14089464D01*
X-4316621Y14629021D02*
X-7740843Y14629021D01*
X-2632030Y12944430D02*
X-4316621Y14629021D01*
X-172886Y-13295424D02*
X184190Y-13652500D01*
X-10294576Y-13295424D02*
X-172886Y-13295424D01*
D16*
X-4927600Y-26570940D02*
X-5656580Y-26570940D01*
X-4382539Y-27116001D02*
X-4927600Y-26570940D01*
X-1154097Y-27116001D02*
X-4382539Y-27116001D01*
X-854098Y-27416000D02*
X-1154097Y-27116001D01*
X8840000Y-16994000D02*
X8840000Y-17804000D01*
X8142640Y-16296640D02*
X8840000Y-16994000D01*
X-10519390Y-18873018D02*
X-7943012Y-16296640D01*
X-7943012Y-16296640D02*
X8142640Y-16296640D01*
D17*
X-3331345Y5848399D02*
X2408399Y5848399D01*
X-6589394Y6149394D02*
X-3632340Y6149394D01*
X-3632340Y6149394D02*
X-3331345Y5848399D01*
X2408399Y5848399D02*
X3464800Y6904800D01*
X3464800Y6904800D02*
X3464800Y7023100D01*
X-1270000Y-32639000D02*
X-845736Y-32639000D01*
X-845736Y-32639000D02*
X5715000Y-32639000D01*
X5715000Y-32639000D02*
X6477000Y-33401000D01*
X7037427Y-33399373D02*
X7035800Y-33401000D01*
X9235378Y-33399373D02*
X7037427Y-33399373D01*
X6477000Y-33401000D02*
X7035800Y-33401000D01*
X7035800Y-33401000D02*
X7366000Y-33401000D01*
X-6043822Y3098893D02*
X-4724400Y4418315D01*
X-2744485Y4418315D02*
X-2740010Y4422790D01*
X-4724400Y4418315D02*
X-2744485Y4418315D01*
X-2740010Y4422790D02*
X1114410Y4422790D01*
X1114410Y4422790D02*
X1524000Y4013200D01*
X-11124497Y-34142558D02*
X-11124497Y-33727310D01*
X-10914877Y-34352178D02*
X-11124497Y-34142558D01*
X-6366972Y-34352178D02*
X-10914877Y-34352178D01*
X-2665401Y-32795199D02*
X-4809993Y-32795199D01*
X-1905000Y-33555600D02*
X-2665401Y-32795199D01*
X-4809993Y-32795199D02*
X-5902397Y-33887603D01*
X-5902397Y-33887603D02*
X-6366972Y-34352178D01*
X-11842996Y-33922724D02*
X-11842996Y-33854588D01*
X-11061132Y-34704588D02*
X-11842996Y-33922724D01*
X-6153852Y-34704588D02*
X-11061132Y-34704588D01*
X-11842996Y-33854588D02*
X-11842996Y-33430324D01*
X-2412999Y-35390999D02*
X-1905000Y-34883000D01*
X-2665401Y-35643401D02*
X-2412999Y-35390999D01*
X-5215039Y-35643401D02*
X-2665401Y-35643401D01*
X-6153852Y-34704588D02*
X-5215039Y-35643401D01*
X6837340Y-34825600D02*
X7241540Y-35229800D01*
X4445000Y-34825600D02*
X6837340Y-34825600D01*
D18*
G36*
X1293386Y-34114938D02*
G01*
X1403062Y-34224614D01*
X1438062Y-34248000D01*
X1403062Y-34271386D01*
X1293386Y-34381062D01*
X1207215Y-34510026D01*
X1147859Y-34653324D01*
X1117600Y-34805448D01*
X1117600Y-34960552D01*
X1147859Y-35112676D01*
X1207215Y-35255974D01*
X1293386Y-35384938D01*
X1403062Y-35494614D01*
X1532026Y-35580785D01*
X1592224Y-35605720D01*
X1561226Y-35680555D01*
X1538960Y-35792494D01*
X1538960Y-35906626D01*
X1561226Y-36018565D01*
X1604903Y-36124009D01*
X1668311Y-36218906D01*
X1749014Y-36299609D01*
X1843911Y-36363017D01*
X1949355Y-36406694D01*
X2061294Y-36428960D01*
X2175426Y-36428960D01*
X2287365Y-36406694D01*
X2392809Y-36363017D01*
X2487706Y-36299609D01*
X2568409Y-36218906D01*
X2631817Y-36124009D01*
X2675494Y-36018565D01*
X2697760Y-35906626D01*
X2697760Y-35792494D01*
X2675494Y-35680555D01*
X2631817Y-35575111D01*
X2568409Y-35480214D01*
X2494874Y-35406679D01*
X2516614Y-35384938D01*
X2540000Y-35349938D01*
X2563386Y-35384938D01*
X2673062Y-35494614D01*
X2802026Y-35580785D01*
X2945324Y-35640141D01*
X3097448Y-35670400D01*
X3252552Y-35670400D01*
X3404676Y-35640141D01*
X3547974Y-35580785D01*
X3676938Y-35494614D01*
X3786614Y-35384938D01*
X3810000Y-35349938D01*
X3833386Y-35384938D01*
X3943062Y-35494614D01*
X4072026Y-35580785D01*
X4215324Y-35640141D01*
X4367448Y-35670400D01*
X4522552Y-35670400D01*
X4674676Y-35640141D01*
X4817974Y-35580785D01*
X4946938Y-35494614D01*
X5056614Y-35384938D01*
X5142785Y-35255974D01*
X5163899Y-35205000D01*
X6662140Y-35205000D01*
X6662140Y-35286866D01*
X6684406Y-35398805D01*
X6703997Y-35446100D01*
X5890554Y-35446100D01*
X5877614Y-35447374D01*
X5875694Y-35447361D01*
X5871464Y-35447776D01*
X5809840Y-35454253D01*
X5782818Y-35459799D01*
X5755716Y-35464969D01*
X5751647Y-35466197D01*
X5692453Y-35484520D01*
X5666973Y-35495230D01*
X5641434Y-35505549D01*
X5637694Y-35507538D01*
X5637686Y-35507541D01*
X5637682Y-35507544D01*
X5583174Y-35537017D01*
X5560261Y-35552472D01*
X5537218Y-35567551D01*
X5533926Y-35570235D01*
X5533922Y-35570238D01*
X5533918Y-35570242D01*
X5486179Y-35609735D01*
X5466716Y-35629334D01*
X5447026Y-35648616D01*
X5444317Y-35651890D01*
X5405154Y-35699909D01*
X5389872Y-35722911D01*
X5374301Y-35745652D01*
X5372279Y-35749391D01*
X5343188Y-35804102D01*
X5332663Y-35829637D01*
X5321806Y-35854969D01*
X5320549Y-35859029D01*
X5302639Y-35918350D01*
X5297273Y-35945450D01*
X5291545Y-35972398D01*
X5291101Y-35976618D01*
X5291099Y-35976627D01*
X5291099Y-35976635D01*
X5285053Y-36038294D01*
X5285053Y-36038302D01*
X5283600Y-36053055D01*
X5283600Y-36089430D01*
X5204449Y-36036543D01*
X5099005Y-35992866D01*
X4987066Y-35970600D01*
X4872934Y-35970600D01*
X4760995Y-35992866D01*
X4655551Y-36036543D01*
X4560654Y-36099951D01*
X4479951Y-36180654D01*
X4416543Y-36275551D01*
X4372866Y-36380995D01*
X4350600Y-36492934D01*
X4350600Y-36607066D01*
X4372866Y-36719005D01*
X4416543Y-36824449D01*
X4479951Y-36919346D01*
X4560654Y-37000049D01*
X4655551Y-37063457D01*
X4736771Y-37097100D01*
X-5255612Y-37097100D01*
X-5272760Y-37095419D01*
X-5274935Y-37094762D01*
X-5276941Y-37093695D01*
X-5278703Y-37092258D01*
X-5280150Y-37090509D01*
X-5281230Y-37088512D01*
X-5281903Y-37086337D01*
X-5283600Y-37070193D01*
X-5283600Y-36053054D01*
X-5284874Y-36040114D01*
X-5284861Y-36038194D01*
X-5285276Y-36033964D01*
X-5287001Y-36017549D01*
X-5233671Y-36022801D01*
X-5233669Y-36022801D01*
X-5215040Y-36024636D01*
X-5196411Y-36022801D01*
X-2684030Y-36022801D01*
X-2665401Y-36024636D01*
X-2646772Y-36022801D01*
X-2646769Y-36022801D01*
X-2591026Y-36017311D01*
X-2519509Y-35995616D01*
X-2453598Y-35960386D01*
X-2395827Y-35912975D01*
X-2383946Y-35898498D01*
X-2157903Y-35672454D01*
X-2157898Y-35672450D01*
X-2127097Y-35641649D01*
X-1982552Y-35670400D01*
X-1827448Y-35670400D01*
X-1675324Y-35640141D01*
X-1532026Y-35580785D01*
X-1403062Y-35494614D01*
X-1293386Y-35384938D01*
X-1270000Y-35349938D01*
X-1246614Y-35384938D01*
X-1136938Y-35494614D01*
X-1007974Y-35580785D01*
X-864676Y-35640141D01*
X-712552Y-35670400D01*
X-557448Y-35670400D01*
X-405324Y-35640141D01*
X-262026Y-35580785D01*
X-133062Y-35494614D01*
X-23386Y-35384938D01*
X62785Y-35255974D01*
X122141Y-35112676D01*
X152400Y-34960552D01*
X152400Y-34805448D01*
X122141Y-34653324D01*
X62785Y-34510026D01*
X-23386Y-34381062D01*
X-133062Y-34271386D01*
X-168062Y-34248000D01*
X-133062Y-34224614D01*
X-23386Y-34114938D01*
X0Y-34079938D01*
X23386Y-34114938D01*
X133062Y-34224614D01*
X262026Y-34310785D01*
X405324Y-34370141D01*
X557448Y-34400400D01*
X712552Y-34400400D01*
X864676Y-34370141D01*
X1007974Y-34310785D01*
X1136938Y-34224614D01*
X1246614Y-34114938D01*
X1270000Y-34079938D01*
X1293386Y-34114938D01*
X1293386Y-34114938D01*
G37*
X1293386Y-34114938D02*
X1403062Y-34224614D01*
X1438062Y-34248000D01*
X1403062Y-34271386D01*
X1293386Y-34381062D01*
X1207215Y-34510026D01*
X1147859Y-34653324D01*
X1117600Y-34805448D01*
X1117600Y-34960552D01*
X1147859Y-35112676D01*
X1207215Y-35255974D01*
X1293386Y-35384938D01*
X1403062Y-35494614D01*
X1532026Y-35580785D01*
X1592224Y-35605720D01*
X1561226Y-35680555D01*
X1538960Y-35792494D01*
X1538960Y-35906626D01*
X1561226Y-36018565D01*
X1604903Y-36124009D01*
X1668311Y-36218906D01*
X1749014Y-36299609D01*
X1843911Y-36363017D01*
X1949355Y-36406694D01*
X2061294Y-36428960D01*
X2175426Y-36428960D01*
X2287365Y-36406694D01*
X2392809Y-36363017D01*
X2487706Y-36299609D01*
X2568409Y-36218906D01*
X2631817Y-36124009D01*
X2675494Y-36018565D01*
X2697760Y-35906626D01*
X2697760Y-35792494D01*
X2675494Y-35680555D01*
X2631817Y-35575111D01*
X2568409Y-35480214D01*
X2494874Y-35406679D01*
X2516614Y-35384938D01*
X2540000Y-35349938D01*
X2563386Y-35384938D01*
X2673062Y-35494614D01*
X2802026Y-35580785D01*
X2945324Y-35640141D01*
X3097448Y-35670400D01*
X3252552Y-35670400D01*
X3404676Y-35640141D01*
X3547974Y-35580785D01*
X3676938Y-35494614D01*
X3786614Y-35384938D01*
X3810000Y-35349938D01*
X3833386Y-35384938D01*
X3943062Y-35494614D01*
X4072026Y-35580785D01*
X4215324Y-35640141D01*
X4367448Y-35670400D01*
X4522552Y-35670400D01*
X4674676Y-35640141D01*
X4817974Y-35580785D01*
X4946938Y-35494614D01*
X5056614Y-35384938D01*
X5142785Y-35255974D01*
X5163899Y-35205000D01*
X6662140Y-35205000D01*
X6662140Y-35286866D01*
X6684406Y-35398805D01*
X6703997Y-35446100D01*
X5890554Y-35446100D01*
X5877614Y-35447374D01*
X5875694Y-35447361D01*
X5871464Y-35447776D01*
X5809840Y-35454253D01*
X5782818Y-35459799D01*
X5755716Y-35464969D01*
X5751647Y-35466197D01*
X5692453Y-35484520D01*
X5666973Y-35495230D01*
X5641434Y-35505549D01*
X5637694Y-35507538D01*
X5637686Y-35507541D01*
X5637682Y-35507544D01*
X5583174Y-35537017D01*
X5560261Y-35552472D01*
X5537218Y-35567551D01*
X5533926Y-35570235D01*
X5533922Y-35570238D01*
X5533918Y-35570242D01*
X5486179Y-35609735D01*
X5466716Y-35629334D01*
X5447026Y-35648616D01*
X5444317Y-35651890D01*
X5405154Y-35699909D01*
X5389872Y-35722911D01*
X5374301Y-35745652D01*
X5372279Y-35749391D01*
X5343188Y-35804102D01*
X5332663Y-35829637D01*
X5321806Y-35854969D01*
X5320549Y-35859029D01*
X5302639Y-35918350D01*
X5297273Y-35945450D01*
X5291545Y-35972398D01*
X5291101Y-35976618D01*
X5291099Y-35976627D01*
X5291099Y-35976635D01*
X5285053Y-36038294D01*
X5285053Y-36038302D01*
X5283600Y-36053055D01*
X5283600Y-36089430D01*
X5204449Y-36036543D01*
X5099005Y-35992866D01*
X4987066Y-35970600D01*
X4872934Y-35970600D01*
X4760995Y-35992866D01*
X4655551Y-36036543D01*
X4560654Y-36099951D01*
X4479951Y-36180654D01*
X4416543Y-36275551D01*
X4372866Y-36380995D01*
X4350600Y-36492934D01*
X4350600Y-36607066D01*
X4372866Y-36719005D01*
X4416543Y-36824449D01*
X4479951Y-36919346D01*
X4560654Y-37000049D01*
X4655551Y-37063457D01*
X4736771Y-37097100D01*
X-5255612Y-37097100D01*
X-5272760Y-37095419D01*
X-5274935Y-37094762D01*
X-5276941Y-37093695D01*
X-5278703Y-37092258D01*
X-5280150Y-37090509D01*
X-5281230Y-37088512D01*
X-5281903Y-37086337D01*
X-5283600Y-37070193D01*
X-5283600Y-36053054D01*
X-5284874Y-36040114D01*
X-5284861Y-36038194D01*
X-5285276Y-36033964D01*
X-5287001Y-36017549D01*
X-5233671Y-36022801D01*
X-5233669Y-36022801D01*
X-5215040Y-36024636D01*
X-5196411Y-36022801D01*
X-2684030Y-36022801D01*
X-2665401Y-36024636D01*
X-2646772Y-36022801D01*
X-2646769Y-36022801D01*
X-2591026Y-36017311D01*
X-2519509Y-35995616D01*
X-2453598Y-35960386D01*
X-2395827Y-35912975D01*
X-2383946Y-35898498D01*
X-2157903Y-35672454D01*
X-2157898Y-35672450D01*
X-2127097Y-35641649D01*
X-1982552Y-35670400D01*
X-1827448Y-35670400D01*
X-1675324Y-35640141D01*
X-1532026Y-35580785D01*
X-1403062Y-35494614D01*
X-1293386Y-35384938D01*
X-1270000Y-35349938D01*
X-1246614Y-35384938D01*
X-1136938Y-35494614D01*
X-1007974Y-35580785D01*
X-864676Y-35640141D01*
X-712552Y-35670400D01*
X-557448Y-35670400D01*
X-405324Y-35640141D01*
X-262026Y-35580785D01*
X-133062Y-35494614D01*
X-23386Y-35384938D01*
X62785Y-35255974D01*
X122141Y-35112676D01*
X152400Y-34960552D01*
X152400Y-34805448D01*
X122141Y-34653324D01*
X62785Y-34510026D01*
X-23386Y-34381062D01*
X-133062Y-34271386D01*
X-168062Y-34248000D01*
X-133062Y-34224614D01*
X-23386Y-34114938D01*
X0Y-34079938D01*
X23386Y-34114938D01*
X133062Y-34224614D01*
X262026Y-34310785D01*
X405324Y-34370141D01*
X557448Y-34400400D01*
X712552Y-34400400D01*
X864676Y-34370141D01*
X1007974Y-34310785D01*
X1136938Y-34224614D01*
X1246614Y-34114938D01*
X1270000Y-34079938D01*
X1293386Y-34114938D01*
G36*
X10643282Y26062755D02*
G01*
X11108159Y25922400D01*
X11536914Y25694426D01*
X11913229Y25387511D01*
X12222762Y25013351D01*
X12453725Y24586194D01*
X12597321Y24122308D01*
X12649588Y23625027D01*
X12649601Y23621226D01*
X12649600Y13955055D01*
X12650922Y13941631D01*
X12650878Y13935318D01*
X12651293Y13931088D01*
X12672020Y13733886D01*
X12677571Y13706841D01*
X12682737Y13679761D01*
X12683965Y13675692D01*
X12742600Y13486271D01*
X12753305Y13460803D01*
X12763627Y13435256D01*
X12765617Y13431513D01*
X12765621Y13431504D01*
X12765626Y13431497D01*
X12859933Y13257080D01*
X12875365Y13234201D01*
X12890468Y13211122D01*
X12893154Y13207828D01*
X13019548Y13055044D01*
X13039162Y13035566D01*
X13058427Y13015893D01*
X13061696Y13013188D01*
X13061702Y13013182D01*
X13061709Y13013178D01*
X13215364Y12887859D01*
X13238361Y12872579D01*
X13261108Y12857005D01*
X13264846Y12854983D01*
X13439924Y12761892D01*
X13465485Y12751356D01*
X13490792Y12740510D01*
X13494844Y12739255D01*
X13494850Y12739253D01*
X13494856Y12739252D01*
X13684678Y12681942D01*
X13711741Y12676583D01*
X13738726Y12670847D01*
X13742947Y12670404D01*
X13742955Y12670402D01*
X13742963Y12670402D01*
X13940295Y12651053D01*
X13940301Y12651053D01*
X13955054Y12649600D01*
X19670115Y12649600D01*
X20168282Y12600755D01*
X20633159Y12460400D01*
X21061914Y12232426D01*
X21438229Y11925511D01*
X21747762Y11551351D01*
X21978725Y11124194D01*
X22122321Y10660308D01*
X22174588Y10163027D01*
X22174600Y10159513D01*
X22174601Y-13828105D01*
X22125755Y-14326282D01*
X21985401Y-14791158D01*
X21757426Y-15219914D01*
X21450512Y-15596229D01*
X21076351Y-15905762D01*
X20649194Y-16136725D01*
X20185308Y-16280321D01*
X19688026Y-16332588D01*
X19684513Y-16332600D01*
X15098054Y-16332600D01*
X15084630Y-16333922D01*
X15078318Y-16333878D01*
X15074088Y-16334293D01*
X14876886Y-16355020D01*
X14849841Y-16360571D01*
X14822761Y-16365737D01*
X14818697Y-16366964D01*
X14818691Y-16366965D01*
X14818685Y-16366967D01*
X14629271Y-16425600D01*
X14603826Y-16436296D01*
X14578256Y-16446627D01*
X14574503Y-16448622D01*
X14400080Y-16542933D01*
X14377182Y-16558378D01*
X14354122Y-16573468D01*
X14350828Y-16576154D01*
X14198044Y-16702548D01*
X14178583Y-16722146D01*
X14158893Y-16741427D01*
X14156183Y-16744702D01*
X14030859Y-16898364D01*
X14015569Y-16921377D01*
X14000005Y-16944108D01*
X13997986Y-16947842D01*
X13997983Y-16947846D01*
X13997983Y-16947847D01*
X13904892Y-17122924D01*
X13894361Y-17148473D01*
X13883510Y-17173792D01*
X13882255Y-17177844D01*
X13882253Y-17177850D01*
X13882253Y-17177852D01*
X13824942Y-17367678D01*
X13819580Y-17394756D01*
X13813847Y-17421727D01*
X13813404Y-17425947D01*
X13813402Y-17425955D01*
X13813402Y-17425963D01*
X13794053Y-17623295D01*
X13794053Y-17623311D01*
X13792601Y-17638054D01*
X13792600Y-32941615D01*
X13743755Y-33439782D01*
X13603401Y-33904658D01*
X13375426Y-34333414D01*
X13068512Y-34709729D01*
X12694351Y-35019262D01*
X12267194Y-35250225D01*
X11803308Y-35393821D01*
X11306026Y-35446088D01*
X11302513Y-35446100D01*
X8581879Y-35446100D01*
X8583534Y-35442105D01*
X8605800Y-35330166D01*
X8605800Y-35216034D01*
X8583534Y-35104095D01*
X8539857Y-34998651D01*
X8476449Y-34903754D01*
X8395746Y-34823051D01*
X8300849Y-34759643D01*
X8195405Y-34715966D01*
X8083466Y-34693700D01*
X7969334Y-34693700D01*
X7857395Y-34715966D01*
X7751951Y-34759643D01*
X7657054Y-34823051D01*
X7655620Y-34824485D01*
X7610886Y-34779751D01*
X7515989Y-34716343D01*
X7410545Y-34672666D01*
X7298606Y-34650400D01*
X7198692Y-34650400D01*
X7118794Y-34570502D01*
X7106914Y-34556026D01*
X7049143Y-34508615D01*
X6983232Y-34473385D01*
X6911715Y-34451690D01*
X6855972Y-34446200D01*
X6855969Y-34446200D01*
X6837340Y-34444365D01*
X6818711Y-34446200D01*
X5100138Y-34446200D01*
X5056614Y-34381062D01*
X4946938Y-34271386D01*
X4911938Y-34248000D01*
X4946938Y-34224614D01*
X5056614Y-34114938D01*
X5142785Y-33985974D01*
X5180446Y-33895051D01*
X5228495Y-33914954D01*
X5340434Y-33937220D01*
X5454566Y-33937220D01*
X5566505Y-33914954D01*
X5671949Y-33871277D01*
X5766846Y-33807869D01*
X5847549Y-33727166D01*
X5910957Y-33632269D01*
X5954634Y-33526825D01*
X5973156Y-33433709D01*
X6195550Y-33656103D01*
X6207426Y-33670574D01*
X6221897Y-33682450D01*
X6221898Y-33682451D01*
X6265196Y-33717985D01*
X6331107Y-33753215D01*
X6347753Y-33758264D01*
X6402625Y-33774910D01*
X6458368Y-33780400D01*
X6458371Y-33780400D01*
X6477000Y-33782235D01*
X6495629Y-33780400D01*
X7017171Y-33780400D01*
X7035800Y-33782235D01*
X7054429Y-33780400D01*
X7384632Y-33780400D01*
X7401152Y-33778773D01*
X8795383Y-33778773D01*
X8866032Y-33849422D01*
X8960929Y-33912830D01*
X9066373Y-33956507D01*
X9178312Y-33978773D01*
X9292444Y-33978773D01*
X9404383Y-33956507D01*
X9509827Y-33912830D01*
X9604724Y-33849422D01*
X9685427Y-33768719D01*
X9748835Y-33673822D01*
X9792512Y-33568378D01*
X9814778Y-33456439D01*
X9814778Y-33342307D01*
X9792512Y-33230368D01*
X9748835Y-33124924D01*
X9685427Y-33030027D01*
X9604724Y-32949324D01*
X9509827Y-32885916D01*
X9404383Y-32842239D01*
X9292444Y-32819973D01*
X9178312Y-32819973D01*
X9066373Y-32842239D01*
X8960929Y-32885916D01*
X8866032Y-32949324D01*
X8795383Y-33019973D01*
X7056056Y-33019973D01*
X7037427Y-33018138D01*
X7018798Y-33019973D01*
X7018795Y-33019973D01*
X7002275Y-33021600D01*
X6634153Y-33021600D01*
X5996454Y-32383902D01*
X5984574Y-32369426D01*
X5926803Y-32322015D01*
X5860892Y-32286785D01*
X5789375Y-32265090D01*
X5733632Y-32259600D01*
X5733629Y-32259600D01*
X5715000Y-32257765D01*
X5696371Y-32259600D01*
X-830005Y-32259600D01*
X-900654Y-32188951D01*
X-995551Y-32125543D01*
X-1100995Y-32081866D01*
X-1212934Y-32059600D01*
X-1327066Y-32059600D01*
X-1439005Y-32081866D01*
X-1544449Y-32125543D01*
X-1639346Y-32188951D01*
X-1720049Y-32269654D01*
X-1783457Y-32364551D01*
X-1827134Y-32469995D01*
X-1849400Y-32581934D01*
X-1849400Y-32696066D01*
X-1827134Y-32808005D01*
X-1819163Y-32827248D01*
X-1827448Y-32825600D01*
X-1982552Y-32825600D01*
X-2079220Y-32844828D01*
X-2383947Y-32540101D01*
X-2395827Y-32525625D01*
X-2453598Y-32478214D01*
X-2519509Y-32442984D01*
X-2591026Y-32421289D01*
X-2646769Y-32415799D01*
X-2646772Y-32415799D01*
X-2665401Y-32413964D01*
X-2684030Y-32415799D01*
X-4791364Y-32415799D01*
X-4809993Y-32413964D01*
X-4828622Y-32415799D01*
X-4828625Y-32415799D01*
X-4884368Y-32421289D01*
X-4939240Y-32437935D01*
X-4955886Y-32442984D01*
X-5021796Y-32478214D01*
X-5037172Y-32490833D01*
X-5079567Y-32525625D01*
X-5091443Y-32540096D01*
X-6157499Y-33606153D01*
X-6524124Y-33972778D01*
X-9489975Y-33972778D01*
X-9411075Y-33940096D01*
X-9316178Y-33876688D01*
X-9235475Y-33795985D01*
X-9172067Y-33701088D01*
X-9128390Y-33595644D01*
X-9110055Y-33503467D01*
X-9051961Y-33503467D01*
X-8940022Y-33481201D01*
X-8834578Y-33437524D01*
X-8739681Y-33374116D01*
X-8658978Y-33293413D01*
X-8595570Y-33198516D01*
X-8551893Y-33093072D01*
X-8529627Y-32981133D01*
X-8529627Y-32867001D01*
X-8551893Y-32755062D01*
X-8595570Y-32649618D01*
X-8658978Y-32554721D01*
X-8739681Y-32474018D01*
X-8834578Y-32410610D01*
X-8940022Y-32366933D01*
X-9051961Y-32344667D01*
X-9166093Y-32344667D01*
X-9278032Y-32366933D01*
X-9278159Y-32366986D01*
X-9278159Y-32264762D01*
X-9300425Y-32152823D01*
X-9344102Y-32047379D01*
X-9407510Y-31952482D01*
X-9488213Y-31871779D01*
X-9583110Y-31808371D01*
X-9609750Y-31797336D01*
X-8725180Y-31797336D01*
X-8725180Y-31911468D01*
X-8702914Y-32023407D01*
X-8659237Y-32128851D01*
X-8595829Y-32223748D01*
X-8515126Y-32304451D01*
X-8420229Y-32367859D01*
X-8314785Y-32411536D01*
X-8202846Y-32433802D01*
X-8088714Y-32433802D01*
X-7976775Y-32411536D01*
X-7871331Y-32367859D01*
X-7776434Y-32304451D01*
X-7695731Y-32223748D01*
X-7632323Y-32128851D01*
X-7588646Y-32023407D01*
X-7566380Y-31911468D01*
X-7566380Y-31797336D01*
X-7588646Y-31685397D01*
X-7632323Y-31579953D01*
X-7695731Y-31485056D01*
X-7776434Y-31404353D01*
X-7871331Y-31340945D01*
X-7976775Y-31297268D01*
X-8088714Y-31275002D01*
X-8202846Y-31275002D01*
X-8314785Y-31297268D01*
X-8420229Y-31340945D01*
X-8515126Y-31404353D01*
X-8595829Y-31485056D01*
X-8659237Y-31579953D01*
X-8702914Y-31685397D01*
X-8725180Y-31797336D01*
X-9609750Y-31797336D01*
X-9688554Y-31764694D01*
X-9800493Y-31742428D01*
X-9914625Y-31742428D01*
X-10026564Y-31764694D01*
X-10132008Y-31808371D01*
X-10226905Y-31871779D01*
X-10307608Y-31952482D01*
X-10371016Y-32047379D01*
X-10414693Y-32152823D01*
X-10436959Y-32264762D01*
X-10436959Y-32378894D01*
X-10414693Y-32490833D01*
X-10371016Y-32596277D01*
X-10307608Y-32691174D01*
X-10226905Y-32771877D01*
X-10132008Y-32835285D01*
X-10026564Y-32878962D01*
X-9925765Y-32899012D01*
X-9959973Y-32913182D01*
X-10054870Y-32976590D01*
X-10135573Y-33057293D01*
X-10198981Y-33152190D01*
X-10231382Y-33230411D01*
X-10281828Y-33220377D01*
X-10395960Y-33220377D01*
X-10507899Y-33242643D01*
X-10613343Y-33286320D01*
X-10692920Y-33339492D01*
X-10755151Y-33277261D01*
X-10850048Y-33213853D01*
X-10955492Y-33170176D01*
X-11067431Y-33147910D01*
X-11181563Y-33147910D01*
X-11293502Y-33170176D01*
X-11319205Y-33180823D01*
X-11329539Y-33155875D01*
X-11392947Y-33060978D01*
X-11473650Y-32980275D01*
X-11568547Y-32916867D01*
X-11673991Y-32873190D01*
X-11785930Y-32850924D01*
X-11900062Y-32850924D01*
X-12012001Y-32873190D01*
X-12117445Y-32916867D01*
X-12212342Y-32980275D01*
X-12293045Y-33060978D01*
X-12295161Y-33064145D01*
X-12308073Y-33055517D01*
X-12413517Y-33011840D01*
X-12525456Y-32989574D01*
X-12639588Y-32989574D01*
X-12751527Y-33011840D01*
X-12856971Y-33055517D01*
X-12951868Y-33118925D01*
X-13032571Y-33199628D01*
X-13095979Y-33294525D01*
X-13139656Y-33399969D01*
X-13161922Y-33511908D01*
X-13161922Y-33626040D01*
X-13139656Y-33737979D01*
X-13095979Y-33843423D01*
X-13032571Y-33938320D01*
X-12951868Y-34019023D01*
X-12856971Y-34082431D01*
X-12751527Y-34126108D01*
X-12639588Y-34148374D01*
X-12525456Y-34148374D01*
X-12413517Y-34126108D01*
X-12308073Y-34082431D01*
X-12213176Y-34019023D01*
X-12210935Y-34016782D01*
X-12195211Y-34068615D01*
X-12187826Y-34082431D01*
X-12159981Y-34134527D01*
X-12153269Y-34142705D01*
X-12112570Y-34192298D01*
X-12098094Y-34204178D01*
X-11342584Y-34959689D01*
X-11330706Y-34974162D01*
X-11316235Y-34986038D01*
X-11316234Y-34986039D01*
X-11272935Y-35021573D01*
X-11207025Y-35056803D01*
X-11190379Y-35061852D01*
X-11135507Y-35078498D01*
X-11079764Y-35083988D01*
X-11079761Y-35083988D01*
X-11061132Y-35085823D01*
X-11042503Y-35083988D01*
X-6311004Y-35083988D01*
X-5948893Y-35446100D01*
X-11288115Y-35446100D01*
X-11786282Y-35397255D01*
X-12251158Y-35256901D01*
X-12679914Y-35028926D01*
X-13056229Y-34722012D01*
X-13365762Y-34347851D01*
X-13596725Y-33920694D01*
X-13740321Y-33456808D01*
X-13792588Y-32959526D01*
X-13792600Y-32955985D01*
X-13792600Y-29752374D01*
X-10386340Y-29752374D01*
X-10386340Y-29866506D01*
X-10364074Y-29978445D01*
X-10320397Y-30083889D01*
X-10256989Y-30178786D01*
X-10176286Y-30259489D01*
X-10081389Y-30322897D01*
X-9975945Y-30366574D01*
X-9864006Y-30388840D01*
X-9749874Y-30388840D01*
X-9637935Y-30366574D01*
X-9532491Y-30322897D01*
X-9437594Y-30259489D01*
X-9356891Y-30178786D01*
X-9293483Y-30083889D01*
X-9249806Y-29978445D01*
X-9227540Y-29866506D01*
X-9227540Y-29752374D01*
X-9249806Y-29640435D01*
X-9293483Y-29534991D01*
X-9356891Y-29440094D01*
X-9437594Y-29359391D01*
X-9532491Y-29295983D01*
X-9637935Y-29252306D01*
X-9749874Y-29230040D01*
X-9864006Y-29230040D01*
X-9975945Y-29252306D01*
X-10081389Y-29295983D01*
X-10176286Y-29359391D01*
X-10256989Y-29440094D01*
X-10320397Y-29534991D01*
X-10364074Y-29640435D01*
X-10386340Y-29752374D01*
X-13792600Y-29752374D01*
X-13792600Y-29262885D01*
X-13776262Y-29287337D01*
X-13695559Y-29368040D01*
X-13600662Y-29431448D01*
X-13495218Y-29475125D01*
X-13383279Y-29497391D01*
X-13269147Y-29497391D01*
X-13157208Y-29475125D01*
X-13051764Y-29431448D01*
X-12956867Y-29368040D01*
X-12876164Y-29287337D01*
X-12812756Y-29192440D01*
X-12769079Y-29086996D01*
X-12746813Y-28975057D01*
X-12746813Y-28860925D01*
X-12769079Y-28748986D01*
X-12812756Y-28643542D01*
X-12876164Y-28548645D01*
X-12956867Y-28467942D01*
X-12969480Y-28459514D01*
X-6761760Y-28459514D01*
X-6761760Y-28573646D01*
X-6739494Y-28685585D01*
X-6695817Y-28791029D01*
X-6632409Y-28885926D01*
X-6551706Y-28966629D01*
X-6456809Y-29030037D01*
X-6351365Y-29073714D01*
X-6239426Y-29095980D01*
X-6125294Y-29095980D01*
X-6013355Y-29073714D01*
X-5907911Y-29030037D01*
X-5813014Y-28966629D01*
X-5732311Y-28885926D01*
X-5668903Y-28791029D01*
X-5625226Y-28685585D01*
X-5602960Y-28573646D01*
X-5602960Y-28459514D01*
X-5625226Y-28347575D01*
X-5668903Y-28242131D01*
X-5732311Y-28147234D01*
X-5813014Y-28066531D01*
X-5907911Y-28003123D01*
X-6013355Y-27959446D01*
X-6125294Y-27937180D01*
X-6239426Y-27937180D01*
X-6351365Y-27959446D01*
X-6456809Y-28003123D01*
X-6551706Y-28066531D01*
X-6632409Y-28147234D01*
X-6695817Y-28242131D01*
X-6739494Y-28347575D01*
X-6761760Y-28459514D01*
X-12969480Y-28459514D01*
X-13051764Y-28404534D01*
X-13157208Y-28360857D01*
X-13269147Y-28338591D01*
X-13383279Y-28338591D01*
X-13495218Y-28360857D01*
X-13600662Y-28404534D01*
X-13695559Y-28467942D01*
X-13776262Y-28548645D01*
X-13792600Y-28573097D01*
X-13792600Y-26513874D01*
X-6235980Y-26513874D01*
X-6235980Y-26628006D01*
X-6213714Y-26739945D01*
X-6170037Y-26845389D01*
X-6106629Y-26940286D01*
X-6025926Y-27020989D01*
X-5931029Y-27084397D01*
X-5825585Y-27128074D01*
X-5713646Y-27150340D01*
X-5599514Y-27150340D01*
X-5487575Y-27128074D01*
X-5420620Y-27100340D01*
X-5397921Y-27100340D01*
X-5435091Y-27137510D01*
X-5498499Y-27232407D01*
X-5542176Y-27337851D01*
X-5564442Y-27449790D01*
X-5564442Y-27563922D01*
X-5542176Y-27675861D01*
X-5498499Y-27781305D01*
X-5435091Y-27876202D01*
X-5354388Y-27956905D01*
X-5259491Y-28020313D01*
X-5154047Y-28063990D01*
X-5042108Y-28086256D01*
X-4927976Y-28086256D01*
X-4816037Y-28063990D01*
X-4710593Y-28020313D01*
X-4615696Y-27956905D01*
X-4534993Y-27876202D01*
X-4471585Y-27781305D01*
X-4427908Y-27675861D01*
X-4421593Y-27644116D01*
X-4408542Y-27645401D01*
X-4408532Y-27645401D01*
X-4382539Y-27647961D01*
X-4356546Y-27645401D01*
X-1386215Y-27645401D01*
X-1367555Y-27690449D01*
X-1304147Y-27785346D01*
X-1223444Y-27866049D01*
X-1128547Y-27929457D01*
X-1023103Y-27973134D01*
X-911164Y-27995400D01*
X-797032Y-27995400D01*
X-685093Y-27973134D01*
X-579649Y-27929457D01*
X-484752Y-27866049D01*
X-404049Y-27785346D01*
X-340641Y-27690449D01*
X-296964Y-27585005D01*
X-274698Y-27473066D01*
X-274698Y-27358934D01*
X-296964Y-27246995D01*
X-340641Y-27141551D01*
X-404049Y-27046654D01*
X-484752Y-26965951D01*
X-579649Y-26902543D01*
X-615992Y-26887489D01*
X90247Y-26887489D01*
X531455Y-27328698D01*
X531461Y-27328703D01*
X646218Y-27443460D01*
X673953Y-27510417D01*
X737361Y-27605314D01*
X818064Y-27686017D01*
X912961Y-27749425D01*
X1018405Y-27793102D01*
X1130344Y-27815368D01*
X1244476Y-27815368D01*
X1356415Y-27793102D01*
X1461859Y-27749425D01*
X1556756Y-27686017D01*
X1637459Y-27605314D01*
X1700867Y-27510417D01*
X1744544Y-27404973D01*
X1766810Y-27293034D01*
X1766810Y-27178902D01*
X1744544Y-27066963D01*
X1700867Y-26961519D01*
X1637459Y-26866622D01*
X1556756Y-26785919D01*
X1461859Y-26722511D01*
X1394902Y-26694776D01*
X1280145Y-26580019D01*
X1280140Y-26580013D01*
X927218Y-26227091D01*
X958934Y-26233400D01*
X1073066Y-26233400D01*
X1185005Y-26211134D01*
X1290449Y-26167457D01*
X1385346Y-26104049D01*
X1466049Y-26023346D01*
X1529457Y-25928449D01*
X1573134Y-25823005D01*
X1595400Y-25711066D01*
X1595400Y-25596934D01*
X1592762Y-25583671D01*
X1654551Y-25624957D01*
X1759995Y-25668634D01*
X1871934Y-25690900D01*
X1986066Y-25690900D01*
X2098005Y-25668634D01*
X2203449Y-25624957D01*
X2214600Y-25617506D01*
X2214600Y-25711066D01*
X2236866Y-25823005D01*
X2280543Y-25928449D01*
X2343951Y-26023346D01*
X2424654Y-26104049D01*
X2519551Y-26167457D01*
X2624995Y-26211134D01*
X2736934Y-26233400D01*
X2851066Y-26233400D01*
X2963005Y-26211134D01*
X3068449Y-26167457D01*
X3163346Y-26104049D01*
X3244049Y-26023346D01*
X3307457Y-25928449D01*
X3351134Y-25823005D01*
X3373400Y-25711066D01*
X3373400Y-25623915D01*
X3431722Y-25635516D01*
X3545854Y-25635516D01*
X3657793Y-25613250D01*
X3763237Y-25569573D01*
X3858134Y-25506165D01*
X3938837Y-25425462D01*
X4002245Y-25330565D01*
X4045922Y-25225121D01*
X4068188Y-25113182D01*
X4068188Y-24999050D01*
X4045922Y-24887111D01*
X4002245Y-24781667D01*
X3938837Y-24686770D01*
X3858134Y-24606067D01*
X3820520Y-24580934D01*
X3992600Y-24580934D01*
X3992600Y-24695066D01*
X4014866Y-24807005D01*
X4058543Y-24912449D01*
X4121951Y-25007346D01*
X4202654Y-25088049D01*
X4289384Y-25146000D01*
X4202654Y-25203951D01*
X4121951Y-25284654D01*
X4058543Y-25379551D01*
X4014866Y-25484995D01*
X3992600Y-25596934D01*
X3992600Y-25711066D01*
X4014866Y-25823005D01*
X4058543Y-25928449D01*
X4121951Y-26023346D01*
X4202654Y-26104049D01*
X4297551Y-26167457D01*
X4402995Y-26211134D01*
X4514934Y-26233400D01*
X4629066Y-26233400D01*
X4741005Y-26211134D01*
X4846449Y-26167457D01*
X4941346Y-26104049D01*
X5022049Y-26023346D01*
X5085457Y-25928449D01*
X5129134Y-25823005D01*
X5151400Y-25711066D01*
X5151400Y-25596934D01*
X5129134Y-25484995D01*
X5085457Y-25379551D01*
X5022049Y-25284654D01*
X4941346Y-25203951D01*
X4854616Y-25146000D01*
X4941346Y-25088049D01*
X5022049Y-25007346D01*
X5085457Y-24912449D01*
X5129134Y-24807005D01*
X5151400Y-24695066D01*
X5151400Y-24580934D01*
X5129134Y-24468995D01*
X5085457Y-24363551D01*
X5022049Y-24268654D01*
X4941346Y-24187951D01*
X4846449Y-24124543D01*
X4741005Y-24080866D01*
X4629066Y-24058600D01*
X4514934Y-24058600D01*
X4402995Y-24080866D01*
X4297551Y-24124543D01*
X4202654Y-24187951D01*
X4121951Y-24268654D01*
X4058543Y-24363551D01*
X4014866Y-24468995D01*
X3992600Y-24580934D01*
X3820520Y-24580934D01*
X3763237Y-24542659D01*
X3657793Y-24498982D01*
X3545854Y-24476716D01*
X3431722Y-24476716D01*
X3355679Y-24491842D01*
X3351134Y-24468995D01*
X3307457Y-24363551D01*
X3244049Y-24268654D01*
X3163346Y-24187951D01*
X3068449Y-24124543D01*
X2963005Y-24080866D01*
X2851066Y-24058600D01*
X2736934Y-24058600D01*
X2624995Y-24080866D01*
X2519551Y-24124543D01*
X2424654Y-24187951D01*
X2343951Y-24268654D01*
X2280543Y-24363551D01*
X2236866Y-24468995D01*
X2214600Y-24580934D01*
X2214600Y-24605494D01*
X2203449Y-24598043D01*
X2098005Y-24554366D01*
X1986066Y-24532100D01*
X1871934Y-24532100D01*
X1759995Y-24554366D01*
X1654551Y-24598043D01*
X1595400Y-24637566D01*
X1595400Y-24580934D01*
X1573134Y-24468995D01*
X1529457Y-24363551D01*
X1466049Y-24268654D01*
X1385346Y-24187951D01*
X1290449Y-24124543D01*
X1185005Y-24080866D01*
X1073066Y-24058600D01*
X958934Y-24058600D01*
X846995Y-24080866D01*
X741551Y-24124543D01*
X646654Y-24187951D01*
X565951Y-24268654D01*
X502543Y-24363551D01*
X458866Y-24468995D01*
X436600Y-24580934D01*
X436600Y-24605494D01*
X425449Y-24598043D01*
X320005Y-24554366D01*
X208066Y-24532100D01*
X93934Y-24532100D01*
X-18005Y-24554366D01*
X-123449Y-24598043D01*
X-182600Y-24637566D01*
X-182600Y-24580934D01*
X-204866Y-24468995D01*
X-248543Y-24363551D01*
X-311951Y-24268654D01*
X-392654Y-24187951D01*
X-487551Y-24124543D01*
X-592995Y-24080866D01*
X-704934Y-24058600D01*
X-819066Y-24058600D01*
X-931005Y-24080866D01*
X-1036449Y-24124543D01*
X-1131346Y-24187951D01*
X-1212049Y-24268654D01*
X-1275457Y-24363551D01*
X-1319134Y-24468995D01*
X-1341400Y-24580934D01*
X-1341400Y-24605494D01*
X-1352551Y-24598043D01*
X-1457995Y-24554366D01*
X-1569934Y-24532100D01*
X-1684066Y-24532100D01*
X-1796005Y-24554366D01*
X-1901449Y-24598043D01*
X-1960600Y-24637566D01*
X-1960600Y-24580934D01*
X-1982866Y-24468995D01*
X-2026543Y-24363551D01*
X-2089951Y-24268654D01*
X-2170654Y-24187951D01*
X-2265551Y-24124543D01*
X-2370995Y-24080866D01*
X-2482934Y-24058600D01*
X-2597066Y-24058600D01*
X-2709005Y-24080866D01*
X-2814449Y-24124543D01*
X-2909346Y-24187951D01*
X-2990049Y-24268654D01*
X-3053457Y-24363551D01*
X-3097134Y-24468995D01*
X-3119400Y-24580934D01*
X-3119400Y-24695066D01*
X-3097134Y-24807005D01*
X-3053457Y-24912449D01*
X-2990049Y-25007346D01*
X-2909346Y-25088049D01*
X-2822616Y-25146000D01*
X-2909346Y-25203951D01*
X-2990049Y-25284654D01*
X-3053457Y-25379551D01*
X-3097134Y-25484995D01*
X-3119400Y-25596934D01*
X-3119400Y-25711066D01*
X-3097134Y-25823005D01*
X-3094780Y-25828689D01*
X-3981126Y-25828689D01*
X-4411808Y-25398007D01*
X-4439543Y-25331051D01*
X-4502951Y-25236154D01*
X-4583654Y-25155451D01*
X-4678551Y-25092043D01*
X-4783995Y-25048366D01*
X-4895934Y-25026100D01*
X-5010066Y-25026100D01*
X-5122005Y-25048366D01*
X-5227449Y-25092043D01*
X-5322346Y-25155451D01*
X-5403049Y-25236154D01*
X-5466457Y-25331051D01*
X-5510134Y-25436495D01*
X-5532400Y-25548434D01*
X-5532400Y-25662566D01*
X-5510134Y-25774505D01*
X-5466457Y-25879949D01*
X-5403049Y-25974846D01*
X-5336355Y-26041540D01*
X-5420620Y-26041540D01*
X-5487575Y-26013806D01*
X-5599514Y-25991540D01*
X-5713646Y-25991540D01*
X-5825585Y-26013806D01*
X-5931029Y-26057483D01*
X-6025926Y-26120891D01*
X-6106629Y-26201594D01*
X-6170037Y-26296491D01*
X-6213714Y-26401935D01*
X-6235980Y-26513874D01*
X-13792600Y-26513874D01*
X-13792600Y-23799914D01*
X-13785148Y-23803001D01*
X-13673209Y-23825267D01*
X-13559077Y-23825267D01*
X-13447138Y-23803001D01*
X-13341694Y-23759324D01*
X-13246797Y-23695916D01*
X-13166094Y-23615213D01*
X-13102686Y-23520316D01*
X-13074951Y-23453359D01*
X-12198192Y-22576600D01*
X-9041303Y-22576600D01*
X-9086640Y-22644452D01*
X-9130317Y-22749896D01*
X-9152583Y-22861835D01*
X-9152583Y-22975967D01*
X-9130317Y-23087906D01*
X-9086640Y-23193350D01*
X-9023232Y-23288247D01*
X-8942529Y-23368950D01*
X-8847632Y-23432358D01*
X-8742188Y-23476035D01*
X-8630249Y-23498301D01*
X-8516117Y-23498301D01*
X-8404178Y-23476035D01*
X-8298734Y-23432358D01*
X-8203837Y-23368950D01*
X-8123134Y-23288247D01*
X-8059726Y-23193350D01*
X-8016049Y-23087906D01*
X-7993783Y-22975967D01*
X-7993783Y-22861835D01*
X-8016049Y-22749896D01*
X-8059726Y-22644452D01*
X-8105063Y-22576600D01*
X-7754937Y-22576600D01*
X-7800274Y-22644452D01*
X-7843951Y-22749896D01*
X-7866217Y-22861835D01*
X-7866217Y-22975967D01*
X-7843951Y-23087906D01*
X-7800274Y-23193350D01*
X-7736866Y-23288247D01*
X-7656163Y-23368950D01*
X-7561266Y-23432358D01*
X-7455822Y-23476035D01*
X-7343883Y-23498301D01*
X-7229751Y-23498301D01*
X-7117812Y-23476035D01*
X-7012368Y-23432358D01*
X-6917471Y-23368950D01*
X-6836768Y-23288247D01*
X-6773360Y-23193350D01*
X-6729683Y-23087906D01*
X-6707417Y-22975967D01*
X-6707417Y-22861835D01*
X-6729683Y-22749896D01*
X-6773360Y-22644452D01*
X-6818697Y-22576600D01*
X9293267Y-22576600D01*
X9319260Y-22579160D01*
X9345253Y-22576600D01*
X9345263Y-22576600D01*
X9423040Y-22568940D01*
X9522833Y-22538668D01*
X9614802Y-22489509D01*
X9695413Y-22423353D01*
X9711990Y-22403155D01*
X10385960Y-21729185D01*
X10406153Y-21712613D01*
X10422725Y-21692420D01*
X10422729Y-21692416D01*
X10472309Y-21632003D01*
X10521468Y-21540033D01*
X10528989Y-21515240D01*
X10551740Y-21440240D01*
X10559400Y-21362463D01*
X10559400Y-21362454D01*
X10561960Y-21336461D01*
X10559400Y-21310468D01*
X10559400Y-19031960D01*
X10587134Y-18965005D01*
X10609400Y-18853066D01*
X10609400Y-18738934D01*
X10587134Y-18626995D01*
X10543457Y-18521551D01*
X10480049Y-18426654D01*
X10399346Y-18345951D01*
X10304449Y-18282543D01*
X10199005Y-18238866D01*
X10087066Y-18216600D01*
X9972934Y-18216600D01*
X9860995Y-18238866D01*
X9755551Y-18282543D01*
X9660654Y-18345951D01*
X9579951Y-18426654D01*
X9516543Y-18521551D01*
X9472866Y-18626995D01*
X9450600Y-18738934D01*
X9450600Y-18853066D01*
X9472866Y-18965005D01*
X9500600Y-19031960D01*
X9500601Y-21117174D01*
X9099976Y-21517800D01*
X-12391484Y-21517800D01*
X-12417477Y-21515240D01*
X-12443470Y-21517800D01*
X-12443479Y-21517800D01*
X-12521256Y-21525460D01*
X-12621049Y-21555732D01*
X-12680983Y-21587768D01*
X-12713019Y-21604891D01*
X-12746053Y-21632002D01*
X-12793629Y-21671047D01*
X-12810205Y-21691245D01*
X-13792600Y-22673640D01*
X-13792600Y-18805342D01*
X-11109400Y-18805342D01*
X-11109400Y-18919474D01*
X-11087134Y-19031413D01*
X-11043457Y-19136857D01*
X-10980049Y-19231754D01*
X-10899346Y-19312457D01*
X-10804449Y-19375865D01*
X-10699005Y-19419542D01*
X-10587066Y-19441808D01*
X-10472934Y-19441808D01*
X-10360995Y-19419542D01*
X-10255551Y-19375865D01*
X-10160654Y-19312457D01*
X-10079951Y-19231754D01*
X-10016543Y-19136857D01*
X-10003813Y-19106125D01*
X-9690360Y-18792672D01*
X-8510575Y-18792672D01*
X-8510575Y-18906804D01*
X-8488309Y-19018743D01*
X-8444632Y-19124187D01*
X-8381224Y-19219084D01*
X-8300521Y-19299787D01*
X-8205624Y-19363195D01*
X-8100180Y-19406872D01*
X-7988241Y-19429138D01*
X-7874109Y-19429138D01*
X-7762170Y-19406872D01*
X-7656726Y-19363195D01*
X-7561829Y-19299787D01*
X-7481126Y-19219084D01*
X-7417718Y-19124187D01*
X-7374041Y-19018743D01*
X-7351775Y-18906804D01*
X-7351775Y-18792672D01*
X-7374041Y-18680733D01*
X-7417718Y-18575289D01*
X-7481126Y-18480392D01*
X-7561829Y-18399689D01*
X-7656726Y-18336281D01*
X-7762170Y-18292604D01*
X-7874109Y-18270338D01*
X-7988241Y-18270338D01*
X-8100180Y-18292604D01*
X-8205624Y-18336281D01*
X-8300521Y-18399689D01*
X-8381224Y-18480392D01*
X-8444632Y-18575289D01*
X-8488309Y-18680733D01*
X-8510575Y-18792672D01*
X-9690360Y-18792672D01*
X-8734622Y-17836934D01*
X-5359400Y-17836934D01*
X-5359400Y-17951066D01*
X-5337134Y-18063005D01*
X-5293457Y-18168449D01*
X-5230049Y-18263346D01*
X-5149346Y-18344049D01*
X-5054449Y-18407457D01*
X-4949005Y-18451134D01*
X-4837066Y-18473400D01*
X-4722934Y-18473400D01*
X-4610995Y-18451134D01*
X-4505551Y-18407457D01*
X-4410654Y-18344049D01*
X-4329951Y-18263346D01*
X-4266543Y-18168449D01*
X-4222866Y-18063005D01*
X-4200600Y-17951066D01*
X-4200600Y-17836934D01*
X-4222866Y-17724995D01*
X-4266543Y-17619551D01*
X-4329951Y-17524654D01*
X-4410654Y-17443951D01*
X-4505551Y-17380543D01*
X-4610995Y-17336866D01*
X-4722934Y-17314600D01*
X-4837066Y-17314600D01*
X-4949005Y-17336866D01*
X-5054449Y-17380543D01*
X-5149346Y-17443951D01*
X-5230049Y-17524654D01*
X-5293457Y-17619551D01*
X-5337134Y-17724995D01*
X-5359400Y-17836934D01*
X-8734622Y-17836934D01*
X-7723727Y-16826040D01*
X4672569Y-16826040D01*
X4583654Y-16885451D01*
X4502951Y-16966154D01*
X4439543Y-17061051D01*
X4395866Y-17166495D01*
X4373600Y-17278434D01*
X4373600Y-17392566D01*
X4395866Y-17504505D01*
X4439543Y-17609949D01*
X4502951Y-17704846D01*
X4583654Y-17785549D01*
X4670384Y-17843500D01*
X4583654Y-17901451D01*
X4502951Y-17982154D01*
X4439543Y-18077051D01*
X4395866Y-18182495D01*
X4373600Y-18294434D01*
X4373600Y-18408566D01*
X4395866Y-18520505D01*
X4439543Y-18625949D01*
X4502951Y-18720846D01*
X4583654Y-18801549D01*
X4678551Y-18864957D01*
X4700382Y-18874000D01*
X4678551Y-18883043D01*
X4583654Y-18946451D01*
X4502951Y-19027154D01*
X4439543Y-19122051D01*
X4395866Y-19227495D01*
X4373600Y-19339434D01*
X4373600Y-19453566D01*
X4395866Y-19565505D01*
X4439543Y-19670949D01*
X4502951Y-19765846D01*
X4583654Y-19846549D01*
X4678551Y-19909957D01*
X4783672Y-19953500D01*
X4678551Y-19997043D01*
X4583654Y-20060451D01*
X4502951Y-20141154D01*
X4439543Y-20236051D01*
X4395866Y-20341495D01*
X4373600Y-20453434D01*
X4373600Y-20567566D01*
X4395866Y-20679505D01*
X4439543Y-20784949D01*
X4502951Y-20879846D01*
X4583654Y-20960549D01*
X4678551Y-21023957D01*
X4783995Y-21067634D01*
X4895934Y-21089900D01*
X5010066Y-21089900D01*
X5122005Y-21067634D01*
X5227449Y-21023957D01*
X5322346Y-20960549D01*
X5403049Y-20879846D01*
X5466457Y-20784949D01*
X5510134Y-20679505D01*
X5532400Y-20567566D01*
X5532400Y-20464200D01*
X5609495Y-20496134D01*
X5721434Y-20518400D01*
X5835566Y-20518400D01*
X5947505Y-20496134D01*
X6052949Y-20452457D01*
X6093712Y-20425220D01*
X6088100Y-20453434D01*
X6088100Y-20567566D01*
X6110366Y-20679505D01*
X6154043Y-20784949D01*
X6217451Y-20879846D01*
X6298154Y-20960549D01*
X6393051Y-21023957D01*
X6498495Y-21067634D01*
X6610434Y-21089900D01*
X6724566Y-21089900D01*
X6836505Y-21067634D01*
X6941949Y-21023957D01*
X7036846Y-20960549D01*
X7117549Y-20879846D01*
X7180957Y-20784949D01*
X7224634Y-20679505D01*
X7246900Y-20567566D01*
X7246900Y-20464200D01*
X7323995Y-20496134D01*
X7435934Y-20518400D01*
X7550066Y-20518400D01*
X7662005Y-20496134D01*
X7767449Y-20452457D01*
X7862346Y-20389049D01*
X7943049Y-20308346D01*
X8006457Y-20213449D01*
X8050134Y-20108005D01*
X8072400Y-19996066D01*
X8072400Y-19881934D01*
X8050134Y-19769995D01*
X8006457Y-19664551D01*
X7943049Y-19569654D01*
X7862346Y-19488951D01*
X7775616Y-19431000D01*
X7862346Y-19373049D01*
X7943049Y-19292346D01*
X8006457Y-19197449D01*
X8050134Y-19092005D01*
X8072400Y-18980066D01*
X8072400Y-18952570D01*
X8101235Y-18964514D01*
X8213174Y-18986780D01*
X8327306Y-18986780D01*
X8439245Y-18964514D01*
X8544689Y-18920837D01*
X8639586Y-18857429D01*
X8720289Y-18776726D01*
X8783697Y-18681829D01*
X8827374Y-18576385D01*
X8849640Y-18464446D01*
X8849640Y-18383400D01*
X8897066Y-18383400D01*
X9009005Y-18361134D01*
X9114449Y-18317457D01*
X9209346Y-18254049D01*
X9290049Y-18173346D01*
X9353457Y-18078449D01*
X9397134Y-17973005D01*
X9419400Y-17861066D01*
X9419400Y-17746934D01*
X9397134Y-17634995D01*
X9369400Y-17568040D01*
X9369400Y-17019993D01*
X9371960Y-16994000D01*
X9369400Y-16968007D01*
X9369400Y-16967997D01*
X9361740Y-16890220D01*
X9331468Y-16790427D01*
X9330228Y-16788108D01*
X9282309Y-16698457D01*
X9232729Y-16638044D01*
X9232725Y-16638040D01*
X9216153Y-16617847D01*
X9195960Y-16601275D01*
X8535370Y-15940685D01*
X8518793Y-15920487D01*
X8438182Y-15854331D01*
X8346213Y-15805172D01*
X8246420Y-15774900D01*
X8168643Y-15767240D01*
X8168633Y-15767240D01*
X8142640Y-15764680D01*
X8116647Y-15767240D01*
X-7917019Y-15767240D01*
X-7943012Y-15764680D01*
X-7969005Y-15767240D01*
X-7969015Y-15767240D01*
X-8046792Y-15774900D01*
X-8146585Y-15805172D01*
X-8238555Y-15854331D01*
X-8298968Y-15903911D01*
X-8298972Y-15903915D01*
X-8319165Y-15920487D01*
X-8335737Y-15940680D01*
X-10701267Y-18306211D01*
X-10804449Y-18348951D01*
X-10899346Y-18412359D01*
X-10980049Y-18493062D01*
X-11043457Y-18587959D01*
X-11087134Y-18693403D01*
X-11109400Y-18805342D01*
X-13792600Y-18805342D01*
X-13792600Y-17837651D01*
X-13766202Y-17864049D01*
X-13671305Y-17927457D01*
X-13565861Y-17971134D01*
X-13453922Y-17993400D01*
X-13339790Y-17993400D01*
X-13227851Y-17971134D01*
X-13122407Y-17927457D01*
X-13027510Y-17864049D01*
X-12946807Y-17783346D01*
X-12883399Y-17688449D01*
X-12839722Y-17583005D01*
X-12817456Y-17471066D01*
X-12817456Y-17371152D01*
X-12420079Y-16973776D01*
X-12405608Y-16961900D01*
X-12392970Y-16946501D01*
X-12358197Y-16904130D01*
X-12332584Y-16856210D01*
X-12322967Y-16838218D01*
X-12301272Y-16766701D01*
X-12295782Y-16710958D01*
X-12295782Y-16710956D01*
X-12293947Y-16692327D01*
X-12295782Y-16673698D01*
X-12295782Y-15051970D01*
X-11489246Y-14245434D01*
X-9469400Y-14245434D01*
X-9469400Y-14359566D01*
X-9447134Y-14471505D01*
X-9403457Y-14576949D01*
X-9340049Y-14671846D01*
X-9259346Y-14752549D01*
X-9164449Y-14815957D01*
X-9059005Y-14859634D01*
X-8947066Y-14881900D01*
X-8832934Y-14881900D01*
X-8720995Y-14859634D01*
X-8615551Y-14815957D01*
X-8520654Y-14752549D01*
X-8439951Y-14671846D01*
X-8376543Y-14576949D01*
X-8332866Y-14471505D01*
X-8310600Y-14359566D01*
X-8310600Y-14245434D01*
X-8332866Y-14133495D01*
X-8376543Y-14028051D01*
X-8439951Y-13933154D01*
X-8520654Y-13852451D01*
X-8615551Y-13789043D01*
X-8720995Y-13745366D01*
X-8832934Y-13723100D01*
X-8947066Y-13723100D01*
X-9059005Y-13745366D01*
X-9164449Y-13789043D01*
X-9259346Y-13852451D01*
X-9340049Y-13933154D01*
X-9403457Y-14028051D01*
X-9447134Y-14133495D01*
X-9469400Y-14245434D01*
X-11489246Y-14245434D01*
X-10809688Y-13565876D01*
X-10808033Y-13569873D01*
X-10744625Y-13664770D01*
X-10663922Y-13745473D01*
X-10569025Y-13808881D01*
X-10463581Y-13852558D01*
X-10351642Y-13874824D01*
X-10237510Y-13874824D01*
X-10125571Y-13852558D01*
X-10020127Y-13808881D01*
X-9925230Y-13745473D01*
X-9854581Y-13674824D01*
X-395210Y-13674824D01*
X-395210Y-13709566D01*
X-372944Y-13821505D01*
X-329267Y-13926949D01*
X-265859Y-14021846D01*
X-185156Y-14102549D01*
X-90259Y-14165957D01*
X15185Y-14209634D01*
X127124Y-14231900D01*
X241256Y-14231900D01*
X353195Y-14209634D01*
X458639Y-14165957D01*
X553536Y-14102549D01*
X634239Y-14021846D01*
X697647Y-13926949D01*
X741324Y-13821505D01*
X763590Y-13709566D01*
X763590Y-13595434D01*
X741324Y-13483495D01*
X697647Y-13378051D01*
X634239Y-13283154D01*
X553536Y-13202451D01*
X458639Y-13139043D01*
X353195Y-13095366D01*
X241256Y-13073100D01*
X141342Y-13073100D01*
X108568Y-13040326D01*
X96688Y-13025850D01*
X38917Y-12978439D01*
X-26994Y-12943209D01*
X-98511Y-12921514D01*
X-154254Y-12916024D01*
X-154257Y-12916024D01*
X-172886Y-12914189D01*
X-191515Y-12916024D01*
X-3534058Y-12916024D01*
X-3522866Y-12889005D01*
X-3500600Y-12777066D01*
X-3500600Y-12662934D01*
X-3522866Y-12550995D01*
X-3566543Y-12445551D01*
X-3629951Y-12350654D01*
X-3710654Y-12269951D01*
X-3805551Y-12206543D01*
X-3910995Y-12162866D01*
X-4022934Y-12140600D01*
X-4137066Y-12140600D01*
X-4249005Y-12162866D01*
X-4354449Y-12206543D01*
X-4449346Y-12269951D01*
X-4530049Y-12350654D01*
X-4593457Y-12445551D01*
X-4637134Y-12550995D01*
X-4659400Y-12662934D01*
X-4659400Y-12777066D01*
X-4637134Y-12889005D01*
X-4625942Y-12916024D01*
X-9854581Y-12916024D01*
X-9925230Y-12845375D01*
X-10020127Y-12781967D01*
X-10024124Y-12780312D01*
X-9340674Y-12096862D01*
X-9324168Y-12083316D01*
X-9312288Y-12068840D01*
X-8643860Y-11400412D01*
X-8543946Y-11400412D01*
X-8432007Y-11378146D01*
X-8326563Y-11334469D01*
X-8231666Y-11271061D01*
X-8150963Y-11190358D01*
X-8087555Y-11095461D01*
X-8043878Y-10990017D01*
X-8021612Y-10878078D01*
X-8021612Y-10763946D01*
X-8043878Y-10652007D01*
X-8087555Y-10546563D01*
X-8150963Y-10451666D01*
X-8231666Y-10370963D01*
X-8326563Y-10307555D01*
X-8432007Y-10263878D01*
X-8543946Y-10241612D01*
X-8658078Y-10241612D01*
X-8770017Y-10263878D01*
X-8875461Y-10307555D01*
X-8970358Y-10370963D01*
X-9051061Y-10451666D01*
X-9114469Y-10546563D01*
X-9158146Y-10652007D01*
X-9180412Y-10763946D01*
X-9180412Y-10863860D01*
X-9847174Y-11530622D01*
X-9863680Y-11544168D01*
X-9875560Y-11558644D01*
X-12295782Y-13978866D01*
X-12295782Y-13860186D01*
X-12301272Y-13804443D01*
X-12322967Y-13732926D01*
X-12358197Y-13667015D01*
X-12405608Y-13609244D01*
X-12463380Y-13561833D01*
X-12529291Y-13526603D01*
X-12600808Y-13504908D01*
X-12675182Y-13497583D01*
X-12749557Y-13504908D01*
X-12821074Y-13526603D01*
X-12886985Y-13561833D01*
X-12944756Y-13609244D01*
X-12992167Y-13667016D01*
X-13027397Y-13732927D01*
X-13049092Y-13804444D01*
X-13054582Y-13860187D01*
X-13054582Y-14876185D01*
X-13056417Y-14894818D01*
X-13054582Y-14913451D01*
X-13054581Y-16535172D01*
X-13354008Y-16834600D01*
X-13453922Y-16834600D01*
X-13565861Y-16856866D01*
X-13671305Y-16900543D01*
X-13766202Y-16963951D01*
X-13846905Y-17044654D01*
X-13902654Y-17128089D01*
X-13906627Y-17118256D01*
X-13908622Y-17114503D01*
X-14002933Y-16940080D01*
X-14018378Y-16917182D01*
X-14033468Y-16894122D01*
X-14036154Y-16890828D01*
X-14162548Y-16738044D01*
X-14182146Y-16718583D01*
X-14201427Y-16698893D01*
X-14204702Y-16696183D01*
X-14358364Y-16570859D01*
X-14381377Y-16555569D01*
X-14404108Y-16540005D01*
X-14407842Y-16537986D01*
X-14407846Y-16537983D01*
X-14407850Y-16537981D01*
X-14582924Y-16444892D01*
X-14608473Y-16434361D01*
X-14633792Y-16423510D01*
X-14637844Y-16422255D01*
X-14637850Y-16422253D01*
X-14637856Y-16422252D01*
X-14827678Y-16364942D01*
X-14854756Y-16359580D01*
X-14881727Y-16353847D01*
X-14885947Y-16353404D01*
X-14885955Y-16353402D01*
X-14885963Y-16353402D01*
X-15083295Y-16334053D01*
X-15083301Y-16334053D01*
X-15098054Y-16332600D01*
X-19670115Y-16332600D01*
X-20168282Y-16283755D01*
X-20633158Y-16143401D01*
X-21061914Y-15915426D01*
X-21438229Y-15608512D01*
X-21747762Y-15234351D01*
X-21978725Y-14807194D01*
X-22122321Y-14343308D01*
X-22174588Y-13846026D01*
X-22174600Y-13842513D01*
X-22174600Y-11812934D01*
X-12739400Y-11812934D01*
X-12739400Y-11927066D01*
X-12717134Y-12039005D01*
X-12673457Y-12144449D01*
X-12610049Y-12239346D01*
X-12529346Y-12320049D01*
X-12434449Y-12383457D01*
X-12329005Y-12427134D01*
X-12217066Y-12449400D01*
X-12102934Y-12449400D01*
X-11990995Y-12427134D01*
X-11885551Y-12383457D01*
X-11790654Y-12320049D01*
X-11709951Y-12239346D01*
X-11646543Y-12144449D01*
X-11602866Y-12039005D01*
X-11580600Y-11927066D01*
X-11580600Y-11812934D01*
X-11602866Y-11700995D01*
X-11646543Y-11595551D01*
X-11709951Y-11500654D01*
X-11790654Y-11419951D01*
X-11885551Y-11356543D01*
X-11990995Y-11312866D01*
X-12102934Y-11290600D01*
X-12217066Y-11290600D01*
X-12329005Y-11312866D01*
X-12434449Y-11356543D01*
X-12529346Y-11419951D01*
X-12610049Y-11500654D01*
X-12673457Y-11595551D01*
X-12717134Y-11700995D01*
X-12739400Y-11812934D01*
X-22174600Y-11812934D01*
X-22174600Y-8162934D01*
X-9949400Y-8162934D01*
X-9949400Y-8277066D01*
X-9927134Y-8389005D01*
X-9883457Y-8494449D01*
X-9820049Y-8589346D01*
X-9739346Y-8670049D01*
X-9644449Y-8733457D01*
X-9582746Y-8759016D01*
X-9580253Y-8762053D01*
X-9499642Y-8828209D01*
X-9407673Y-8877368D01*
X-9307880Y-8907640D01*
X-9230103Y-8915300D01*
X-9230094Y-8915300D01*
X-9204101Y-8917860D01*
X-9178108Y-8915300D01*
X-2455960Y-8915300D01*
X-2389005Y-8943034D01*
X-2277066Y-8965300D01*
X-2162934Y-8965300D01*
X-2050995Y-8943034D01*
X-1945551Y-8899357D01*
X-1850654Y-8835949D01*
X-1847639Y-8832934D01*
X690600Y-8832934D01*
X690600Y-8947066D01*
X712866Y-9059005D01*
X756543Y-9164449D01*
X819951Y-9259346D01*
X900654Y-9340049D01*
X995551Y-9403457D01*
X1100995Y-9447134D01*
X1212934Y-9469400D01*
X1327066Y-9469400D01*
X1439005Y-9447134D01*
X1544449Y-9403457D01*
X1639346Y-9340049D01*
X1720049Y-9259346D01*
X1783457Y-9164449D01*
X1827134Y-9059005D01*
X1849400Y-8947066D01*
X1849400Y-8832934D01*
X1827134Y-8720995D01*
X1783457Y-8615551D01*
X1720049Y-8520654D01*
X1639346Y-8439951D01*
X1544449Y-8376543D01*
X1439005Y-8332866D01*
X1327066Y-8310600D01*
X1212934Y-8310600D01*
X1100995Y-8332866D01*
X995551Y-8376543D01*
X900654Y-8439951D01*
X819951Y-8520654D01*
X756543Y-8615551D01*
X712866Y-8720995D01*
X690600Y-8832934D01*
X-1847639Y-8832934D01*
X-1769951Y-8755246D01*
X-1706543Y-8660349D01*
X-1662866Y-8554905D01*
X-1640600Y-8442966D01*
X-1640600Y-8328834D01*
X-1662866Y-8216895D01*
X-1664521Y-8212900D01*
X282503Y-8212900D01*
X299051Y-8223957D01*
X404495Y-8267634D01*
X516434Y-8289900D01*
X630566Y-8289900D01*
X742505Y-8267634D01*
X847949Y-8223957D01*
X942846Y-8160549D01*
X1023549Y-8079846D01*
X1086957Y-7984949D01*
X1130634Y-7879505D01*
X1152900Y-7767566D01*
X1152900Y-7653434D01*
X1130634Y-7541495D01*
X1086957Y-7436051D01*
X1023549Y-7341154D01*
X942846Y-7260451D01*
X847949Y-7197043D01*
X742505Y-7153366D01*
X630566Y-7131100D01*
X516434Y-7131100D01*
X404495Y-7153366D01*
X402723Y-7154100D01*
X-8135640Y-7154100D01*
X-8202595Y-7126366D01*
X-8314534Y-7104100D01*
X-8428666Y-7104100D01*
X-8540605Y-7126366D01*
X-8646049Y-7170043D01*
X-8740946Y-7233451D01*
X-8821649Y-7314154D01*
X-8885057Y-7409051D01*
X-8928734Y-7514495D01*
X-8951000Y-7626434D01*
X-8951000Y-7740566D01*
X-8931374Y-7839231D01*
X-9000654Y-7769951D01*
X-9095551Y-7706543D01*
X-9200995Y-7662866D01*
X-9312934Y-7640600D01*
X-9427066Y-7640600D01*
X-9539005Y-7662866D01*
X-9644449Y-7706543D01*
X-9739346Y-7769951D01*
X-9820049Y-7850654D01*
X-9883457Y-7945551D01*
X-9927134Y-8050995D01*
X-9949400Y-8162934D01*
X-22174600Y-8162934D01*
X-22174600Y-4895934D01*
X2468600Y-4895934D01*
X2468600Y-5010066D01*
X2490866Y-5122005D01*
X2534543Y-5227449D01*
X2597951Y-5322346D01*
X2678654Y-5403049D01*
X2773551Y-5466457D01*
X2878995Y-5510134D01*
X2886132Y-5511554D01*
X2871866Y-5545995D01*
X2849600Y-5657934D01*
X2849600Y-5772066D01*
X2871866Y-5884005D01*
X2886132Y-5918446D01*
X2878995Y-5919866D01*
X2773551Y-5963543D01*
X2678654Y-6026951D01*
X2597951Y-6107654D01*
X2534543Y-6202551D01*
X2490866Y-6307995D01*
X2468600Y-6419934D01*
X2468600Y-6534066D01*
X2490866Y-6646005D01*
X2534543Y-6751449D01*
X2597951Y-6846346D01*
X2678654Y-6927049D01*
X2773551Y-6990457D01*
X2878995Y-7034134D01*
X2886132Y-7035554D01*
X2871866Y-7069995D01*
X2849600Y-7181934D01*
X2849600Y-7296066D01*
X2871866Y-7408005D01*
X2886132Y-7442446D01*
X2878995Y-7443866D01*
X2773551Y-7487543D01*
X2678654Y-7550951D01*
X2597951Y-7631654D01*
X2534543Y-7726551D01*
X2490866Y-7831995D01*
X2468600Y-7943934D01*
X2468600Y-8058066D01*
X2490866Y-8170005D01*
X2534543Y-8275449D01*
X2597951Y-8370346D01*
X2678654Y-8451049D01*
X2773551Y-8514457D01*
X2878995Y-8558134D01*
X2990934Y-8580400D01*
X3105066Y-8580400D01*
X3217005Y-8558134D01*
X3322449Y-8514457D01*
X3417346Y-8451049D01*
X3492500Y-8375895D01*
X3567654Y-8451049D01*
X3662551Y-8514457D01*
X3767995Y-8558134D01*
X3879934Y-8580400D01*
X3994066Y-8580400D01*
X4106005Y-8558134D01*
X4211449Y-8514457D01*
X4306346Y-8451049D01*
X4387049Y-8370346D01*
X4450457Y-8275449D01*
X4494134Y-8170005D01*
X4516400Y-8058066D01*
X4516400Y-7943934D01*
X4494134Y-7831995D01*
X4450457Y-7726551D01*
X4387049Y-7631654D01*
X4306346Y-7550951D01*
X4211449Y-7487543D01*
X4106005Y-7443866D01*
X3994066Y-7421600D01*
X3980503Y-7421600D01*
X3986134Y-7408005D01*
X4008400Y-7296066D01*
X4008400Y-7181934D01*
X3986134Y-7069995D01*
X3980503Y-7056400D01*
X3994066Y-7056400D01*
X4106005Y-7034134D01*
X4211449Y-6990457D01*
X4306346Y-6927049D01*
X4387049Y-6846346D01*
X4450457Y-6751449D01*
X4494134Y-6646005D01*
X4516400Y-6534066D01*
X4516400Y-6419934D01*
X4494134Y-6307995D01*
X4450457Y-6202551D01*
X4387049Y-6107654D01*
X4306346Y-6026951D01*
X4211449Y-5963543D01*
X4106005Y-5919866D01*
X3994066Y-5897600D01*
X3980503Y-5897600D01*
X3986134Y-5884005D01*
X4008400Y-5772066D01*
X4008400Y-5657934D01*
X3986134Y-5545995D01*
X3980503Y-5532400D01*
X3994066Y-5532400D01*
X4106005Y-5510134D01*
X4211449Y-5466457D01*
X4306346Y-5403049D01*
X4387049Y-5322346D01*
X4450457Y-5227449D01*
X4494134Y-5122005D01*
X4516400Y-5010066D01*
X4516400Y-4895934D01*
X4494134Y-4783995D01*
X4450457Y-4678551D01*
X4387049Y-4583654D01*
X4306346Y-4502951D01*
X4211449Y-4439543D01*
X4106005Y-4395866D01*
X3994066Y-4373600D01*
X3879934Y-4373600D01*
X3767995Y-4395866D01*
X3662551Y-4439543D01*
X3567654Y-4502951D01*
X3492500Y-4578105D01*
X3417346Y-4502951D01*
X3322449Y-4439543D01*
X3217005Y-4395866D01*
X3105066Y-4373600D01*
X2990934Y-4373600D01*
X2878995Y-4395866D01*
X2773551Y-4439543D01*
X2678654Y-4502951D01*
X2597951Y-4583654D01*
X2534543Y-4678551D01*
X2490866Y-4783995D01*
X2468600Y-4895934D01*
X-22174600Y-4895934D01*
X-22174600Y-3782934D01*
X-10619400Y-3782934D01*
X-10619400Y-3897066D01*
X-10597134Y-4009005D01*
X-10553457Y-4114449D01*
X-10490049Y-4209346D01*
X-10409346Y-4290049D01*
X-10314449Y-4353457D01*
X-10209005Y-4397134D01*
X-10097066Y-4419400D01*
X-9982934Y-4419400D01*
X-9870995Y-4397134D01*
X-9765551Y-4353457D01*
X-9670654Y-4290049D01*
X-9589951Y-4209346D01*
X-9526543Y-4114449D01*
X-9505205Y-4062934D01*
X-7929400Y-4062934D01*
X-7929400Y-4177066D01*
X-7907134Y-4289005D01*
X-7863457Y-4394449D01*
X-7800049Y-4489346D01*
X-7719346Y-4570049D01*
X-7624449Y-4633457D01*
X-7519005Y-4677134D01*
X-7407066Y-4699400D01*
X-7292934Y-4699400D01*
X-7180995Y-4677134D01*
X-7075551Y-4633457D01*
X-6980654Y-4570049D01*
X-6899951Y-4489346D01*
X-6836543Y-4394449D01*
X-6792866Y-4289005D01*
X-6770600Y-4177066D01*
X-6770600Y-4062934D01*
X-6792866Y-3950995D01*
X-6836543Y-3845551D01*
X-6899951Y-3750654D01*
X-6980654Y-3669951D01*
X-7075551Y-3606543D01*
X-7180995Y-3562866D01*
X-7292934Y-3540600D01*
X-7407066Y-3540600D01*
X-7519005Y-3562866D01*
X-7624449Y-3606543D01*
X-7719346Y-3669951D01*
X-7800049Y-3750654D01*
X-7863457Y-3845551D01*
X-7907134Y-3950995D01*
X-7929400Y-4062934D01*
X-9505205Y-4062934D01*
X-9482866Y-4009005D01*
X-9460600Y-3897066D01*
X-9460600Y-3782934D01*
X-9482866Y-3670995D01*
X-9526543Y-3565551D01*
X-9589951Y-3470654D01*
X-9670654Y-3389951D01*
X-9765551Y-3326543D01*
X-9870995Y-3282866D01*
X-9982934Y-3260600D01*
X-10097066Y-3260600D01*
X-10209005Y-3282866D01*
X-10314449Y-3326543D01*
X-10409346Y-3389951D01*
X-10490049Y-3470654D01*
X-10553457Y-3565551D01*
X-10597134Y-3670995D01*
X-10619400Y-3782934D01*
X-22174600Y-3782934D01*
X-22174600Y-3189534D01*
X9529800Y-3189534D01*
X9529800Y-3303666D01*
X9552066Y-3415605D01*
X9595743Y-3521049D01*
X9659151Y-3615946D01*
X9739854Y-3696649D01*
X9834751Y-3760057D01*
X9940195Y-3803734D01*
X10052134Y-3826000D01*
X10166266Y-3826000D01*
X10278205Y-3803734D01*
X10383649Y-3760057D01*
X10478546Y-3696649D01*
X10559249Y-3615946D01*
X10622657Y-3521049D01*
X10666334Y-3415605D01*
X10688600Y-3303666D01*
X10688600Y-3189534D01*
X10666334Y-3077595D01*
X10622657Y-2972151D01*
X10559249Y-2877254D01*
X10478546Y-2796551D01*
X10383649Y-2733143D01*
X10278205Y-2689466D01*
X10166266Y-2667200D01*
X10052134Y-2667200D01*
X9940195Y-2689466D01*
X9834751Y-2733143D01*
X9739854Y-2796551D01*
X9659151Y-2877254D01*
X9595743Y-2972151D01*
X9552066Y-3077595D01*
X9529800Y-3189534D01*
X-22174600Y-3189534D01*
X-22174600Y-2542934D01*
X-9669400Y-2542934D01*
X-9669400Y-2657066D01*
X-9647134Y-2769005D01*
X-9603457Y-2874449D01*
X-9540049Y-2969346D01*
X-9459346Y-3050049D01*
X-9364449Y-3113457D01*
X-9259005Y-3157134D01*
X-9147066Y-3179400D01*
X-9032934Y-3179400D01*
X-8920995Y-3157134D01*
X-8815551Y-3113457D01*
X-8720654Y-3050049D01*
X-8639951Y-2969346D01*
X-8576543Y-2874449D01*
X-8532866Y-2769005D01*
X-8510600Y-2657066D01*
X-8510600Y-2542934D01*
X-8532866Y-2430995D01*
X-8576543Y-2325551D01*
X-8639951Y-2230654D01*
X-8720654Y-2149951D01*
X-8815551Y-2086543D01*
X-8920995Y-2042866D01*
X-9032934Y-2020600D01*
X-9147066Y-2020600D01*
X-9259005Y-2042866D01*
X-9364449Y-2086543D01*
X-9459346Y-2149951D01*
X-9540049Y-2230654D01*
X-9603457Y-2325551D01*
X-9647134Y-2430995D01*
X-9669400Y-2542934D01*
X-22174600Y-2542934D01*
X-22174600Y-971634D01*
X1869400Y-971634D01*
X1869400Y-1085766D01*
X1891666Y-1197705D01*
X1935343Y-1303149D01*
X1998751Y-1398046D01*
X2079454Y-1478749D01*
X2174351Y-1542157D01*
X2279795Y-1585834D01*
X2391734Y-1608100D01*
X2505866Y-1608100D01*
X2617805Y-1585834D01*
X2723249Y-1542157D01*
X2818146Y-1478749D01*
X2898849Y-1398046D01*
X2962257Y-1303149D01*
X3005934Y-1197705D01*
X3028200Y-1085766D01*
X3028200Y-971634D01*
X3005934Y-859695D01*
X2962257Y-754251D01*
X2898849Y-659354D01*
X2818146Y-578651D01*
X2723249Y-515243D01*
X2617805Y-471566D01*
X2505866Y-449300D01*
X2391734Y-449300D01*
X2279795Y-471566D01*
X2174351Y-515243D01*
X2079454Y-578651D01*
X1998751Y-659354D01*
X1935343Y-754251D01*
X1891666Y-859695D01*
X1869400Y-971634D01*
X-22174600Y-971634D01*
X-22174600Y457066D01*
X-7169400Y457066D01*
X-7169400Y342934D01*
X-7147134Y230995D01*
X-7103457Y125551D01*
X-7040049Y30654D01*
X-6959346Y-50049D01*
X-6864449Y-113457D01*
X-6759005Y-157134D01*
X-6647066Y-179400D01*
X-6532934Y-179400D01*
X-6420995Y-157134D01*
X-6315551Y-113457D01*
X-6220654Y-50049D01*
X-6139951Y30654D01*
X-6076543Y125551D01*
X-6032866Y230995D01*
X-6010600Y342934D01*
X-6010600Y457066D01*
X-6032866Y569005D01*
X-6076543Y674449D01*
X-6139951Y769346D01*
X-6220654Y850049D01*
X-6315551Y913457D01*
X-6420995Y957134D01*
X-6532934Y979400D01*
X-6647066Y979400D01*
X-6759005Y957134D01*
X-6864449Y913457D01*
X-6959346Y850049D01*
X-7040049Y769346D01*
X-7103457Y674449D01*
X-7147134Y569005D01*
X-7169400Y457066D01*
X-22174600Y457066D01*
X-22174600Y4819523D01*
X-14333636Y4819523D01*
X-14331800Y4800884D01*
X-14331801Y4223477D01*
X-14333636Y4204847D01*
X-14331801Y4186218D01*
X-14331801Y4186216D01*
X-14326311Y4130473D01*
X-14304616Y4058956D01*
X-14304615Y4058955D01*
X-14269386Y3993044D01*
X-14252151Y3972043D01*
X-14221975Y3935273D01*
X-14207499Y3923393D01*
X-13946603Y3662496D01*
X-13934727Y3648025D01*
X-13920256Y3636149D01*
X-13920255Y3636148D01*
X-13876957Y3600614D01*
X-13845712Y3583914D01*
X-13811045Y3565384D01*
X-13739528Y3543689D01*
X-13683785Y3538199D01*
X-13683783Y3538199D01*
X-13665154Y3536364D01*
X-13646525Y3538199D01*
X-13265913Y3538199D01*
X-13226588Y3498874D01*
X-13160065Y3454425D01*
X-13193457Y3404449D01*
X-13237134Y3299005D01*
X-13259400Y3187066D01*
X-13259400Y3072934D01*
X-13237134Y2960995D01*
X-13193457Y2855551D01*
X-13130049Y2760654D01*
X-13049346Y2679951D01*
X-12954449Y2616543D01*
X-12849005Y2572866D01*
X-12737066Y2550600D01*
X-12622934Y2550600D01*
X-12510995Y2572866D01*
X-12405551Y2616543D01*
X-12310654Y2679951D01*
X-12229951Y2760654D01*
X-12166543Y2855551D01*
X-12122866Y2960995D01*
X-12100600Y3072934D01*
X-12100600Y3105066D01*
X-11374400Y3105066D01*
X-11374400Y2990934D01*
X-11352134Y2878995D01*
X-11308457Y2773551D01*
X-11245049Y2678654D01*
X-11164346Y2597951D01*
X-11069449Y2534543D01*
X-10964005Y2490866D01*
X-10852066Y2468600D01*
X-10737934Y2468600D01*
X-10625995Y2490866D01*
X-10520551Y2534543D01*
X-10425654Y2597951D01*
X-10414000Y2609605D01*
X-10402346Y2597951D01*
X-10307449Y2534543D01*
X-10202005Y2490866D01*
X-10090066Y2468600D01*
X-9975934Y2468600D01*
X-9863995Y2490866D01*
X-9758551Y2534543D01*
X-9663654Y2597951D01*
X-9623890Y2637715D01*
X-9534340Y2577879D01*
X-9428896Y2534202D01*
X-9316957Y2511936D01*
X-9202825Y2511936D01*
X-9090886Y2534202D01*
X-8985442Y2577879D01*
X-8890545Y2641287D01*
X-8840512Y2691320D01*
X-8832049Y2678654D01*
X-8751346Y2597951D01*
X-8656449Y2534543D01*
X-8551005Y2490866D01*
X-8439066Y2468600D01*
X-8324934Y2468600D01*
X-8212995Y2490866D01*
X-8107551Y2534543D01*
X-8012654Y2597951D01*
X-7931951Y2678654D01*
X-7868543Y2773551D01*
X-7824866Y2878995D01*
X-7807362Y2966992D01*
X-7788549Y2872410D01*
X-7744872Y2766966D01*
X-7681464Y2672069D01*
X-7600761Y2591366D01*
X-7505864Y2527958D01*
X-7400420Y2484281D01*
X-7288481Y2462015D01*
X-7174349Y2462015D01*
X-7062410Y2484281D01*
X-6956966Y2527958D01*
X-6862069Y2591366D01*
X-6781366Y2672069D01*
X-6717958Y2766966D01*
X-6674281Y2872410D01*
X-6652015Y2984349D01*
X-6652015Y3098481D01*
X-6674281Y3210420D01*
X-6717958Y3315864D01*
X-6781366Y3410761D01*
X-6862069Y3491464D01*
X-6956966Y3554872D01*
X-7062410Y3598549D01*
X-7174349Y3620815D01*
X-7288481Y3620815D01*
X-7400420Y3598549D01*
X-7505864Y3554872D01*
X-7600761Y3491464D01*
X-7681464Y3410761D01*
X-7744872Y3315864D01*
X-7788549Y3210420D01*
X-7806053Y3122423D01*
X-7824866Y3217005D01*
X-7868543Y3322449D01*
X-7931951Y3417346D01*
X-8012654Y3498049D01*
X-8107551Y3561457D01*
X-8212995Y3605134D01*
X-8324934Y3627400D01*
X-8439066Y3627400D01*
X-8551005Y3605134D01*
X-8656449Y3561457D01*
X-8751346Y3498049D01*
X-8801379Y3448016D01*
X-8809842Y3460682D01*
X-8890545Y3541385D01*
X-8985442Y3604793D01*
X-9090886Y3648470D01*
X-9202825Y3670736D01*
X-9316957Y3670736D01*
X-9428896Y3648470D01*
X-9534340Y3604793D01*
X-9629237Y3541385D01*
X-9669001Y3501621D01*
X-9758551Y3561457D01*
X-9863995Y3605134D01*
X-9975934Y3627400D01*
X-10090066Y3627400D01*
X-10202005Y3605134D01*
X-10307449Y3561457D01*
X-10402346Y3498049D01*
X-10414000Y3486395D01*
X-10425654Y3498049D01*
X-10520551Y3561457D01*
X-10625995Y3605134D01*
X-10737934Y3627400D01*
X-10852066Y3627400D01*
X-10964005Y3605134D01*
X-11069449Y3561457D01*
X-11164346Y3498049D01*
X-11245049Y3417346D01*
X-11308457Y3322449D01*
X-11352134Y3217005D01*
X-11374400Y3105066D01*
X-12100600Y3105066D01*
X-12100600Y3172847D01*
X-12049737Y3223710D01*
X-12035267Y3235585D01*
X-12014950Y3260341D01*
X-11987856Y3293355D01*
X-11961961Y3341803D01*
X-11952626Y3359267D01*
X-11930931Y3430784D01*
X-11925441Y3486527D01*
X-11925441Y3486530D01*
X-11923606Y3505159D01*
X-11925441Y3523788D01*
X-11925441Y3675924D01*
X-11853106Y3627591D01*
X-11747662Y3583914D01*
X-11635723Y3561648D01*
X-11521591Y3561648D01*
X-11409652Y3583914D01*
X-11304208Y3627591D01*
X-11209311Y3690999D01*
X-11128608Y3771702D01*
X-11065200Y3866599D01*
X-11021523Y3972043D01*
X-10999257Y4083982D01*
X-10999257Y4198114D01*
X-11021523Y4310053D01*
X-11057041Y4395800D01*
X-5283467Y4395800D01*
X-6000974Y3678293D01*
X-6100888Y3678293D01*
X-6212827Y3656027D01*
X-6318271Y3612350D01*
X-6413168Y3548942D01*
X-6493871Y3468239D01*
X-6557279Y3373342D01*
X-6600956Y3267898D01*
X-6623222Y3155959D01*
X-6623222Y3041827D01*
X-6600956Y2929888D01*
X-6557279Y2824444D01*
X-6493871Y2729547D01*
X-6413168Y2648844D01*
X-6318271Y2585436D01*
X-6212827Y2541759D01*
X-6100888Y2519493D01*
X-5986756Y2519493D01*
X-5874817Y2541759D01*
X-5769373Y2585436D01*
X-5674476Y2648844D01*
X-5593773Y2729547D01*
X-5530365Y2824444D01*
X-5486688Y2929888D01*
X-5464422Y3041827D01*
X-5464422Y3141741D01*
X-4567248Y4038915D01*
X-2763114Y4038915D01*
X-2744485Y4037080D01*
X-2725856Y4038915D01*
X-2725853Y4038915D01*
X-2680416Y4043390D01*
X944600Y4043390D01*
X944600Y3956134D01*
X966866Y3844195D01*
X1010543Y3738751D01*
X1073951Y3643854D01*
X1154654Y3563151D01*
X1249551Y3499743D01*
X1354995Y3456066D01*
X1466934Y3433800D01*
X1581066Y3433800D01*
X1693005Y3456066D01*
X1798449Y3499743D01*
X1893346Y3563151D01*
X1974049Y3643854D01*
X2037457Y3738751D01*
X2081134Y3844195D01*
X2103400Y3956134D01*
X2103400Y4070266D01*
X2092504Y4125044D01*
X7548600Y-1331053D01*
X7548600Y-1430966D01*
X7570866Y-1542905D01*
X7614543Y-1648349D01*
X7677951Y-1743246D01*
X7758654Y-1823949D01*
X7853551Y-1887357D01*
X7958995Y-1931034D01*
X8070934Y-1953300D01*
X8185066Y-1953300D01*
X8297005Y-1931034D01*
X8402449Y-1887357D01*
X8497346Y-1823949D01*
X8578049Y-1743246D01*
X8641457Y-1648349D01*
X8685134Y-1542905D01*
X8707400Y-1430966D01*
X8707400Y-1316834D01*
X8685134Y-1204895D01*
X8641457Y-1099451D01*
X8578049Y-1004554D01*
X8497346Y-923851D01*
X8402449Y-860443D01*
X8297005Y-816766D01*
X8185066Y-794500D01*
X8085153Y-794500D01*
X2260354Y5030298D01*
X2248474Y5044774D01*
X2190703Y5092185D01*
X2124792Y5127415D01*
X2053275Y5149110D01*
X1997532Y5154600D01*
X1997529Y5154600D01*
X1978900Y5156435D01*
X1960271Y5154600D01*
X-3269392Y5154600D01*
X-3248043Y5186551D01*
X-3204366Y5291995D01*
X-3182100Y5403934D01*
X-3182100Y5468999D01*
X2389770Y5468999D01*
X2408399Y5467164D01*
X2427028Y5468999D01*
X2427031Y5468999D01*
X2482774Y5474489D01*
X2554291Y5496184D01*
X2620202Y5531414D01*
X2677973Y5578825D01*
X2689853Y5593301D01*
X3544818Y6448265D01*
X3633805Y6465966D01*
X3739249Y6509643D01*
X3834146Y6573051D01*
X3914849Y6653754D01*
X3978257Y6748651D01*
X4021934Y6854095D01*
X4044200Y6966034D01*
X4044200Y7080166D01*
X4021934Y7192105D01*
X3978257Y7297549D01*
X3914849Y7392446D01*
X3834146Y7473149D01*
X3739249Y7536557D01*
X3633805Y7580234D01*
X3521866Y7602500D01*
X3407734Y7602500D01*
X3295795Y7580234D01*
X3190351Y7536557D01*
X3095454Y7473149D01*
X3014751Y7392446D01*
X2951343Y7297549D01*
X2907666Y7192105D01*
X2885400Y7080166D01*
X2885400Y6966034D01*
X2902668Y6879221D01*
X2251247Y6227799D01*
X-2055612Y6227799D01*
X-2012866Y6330995D01*
X-1990600Y6442934D01*
X-1990600Y6557066D01*
X-2012866Y6669005D01*
X-2056543Y6774449D01*
X-2119951Y6869346D01*
X-2200654Y6950049D01*
X-2295551Y7013457D01*
X-2400995Y7057134D01*
X-2512934Y7079400D01*
X-2627066Y7079400D01*
X-2739005Y7057134D01*
X-2844449Y7013457D01*
X-2939346Y6950049D01*
X-3020049Y6869346D01*
X-3083457Y6774449D01*
X-3127134Y6669005D01*
X-3149400Y6557066D01*
X-3149400Y6442934D01*
X-3127134Y6330995D01*
X-3084388Y6227799D01*
X-3174193Y6227799D01*
X-3350886Y6404492D01*
X-3362766Y6418968D01*
X-3420537Y6466379D01*
X-3486448Y6501609D01*
X-3557965Y6523304D01*
X-3613708Y6528794D01*
X-3613711Y6528794D01*
X-3632340Y6530629D01*
X-3650969Y6528794D01*
X-6149399Y6528794D01*
X-6220048Y6599443D01*
X-6314945Y6662851D01*
X-6420389Y6706528D01*
X-6532328Y6728794D01*
X-6646460Y6728794D01*
X-6758399Y6706528D01*
X-6762395Y6704873D01*
X-6762395Y8017066D01*
X-6139400Y8017066D01*
X-6139400Y7902934D01*
X-6117134Y7790995D01*
X-6073457Y7685551D01*
X-6010049Y7590654D01*
X-5929346Y7509951D01*
X-5834449Y7446543D01*
X-5729005Y7402866D01*
X-5617066Y7380600D01*
X-5502934Y7380600D01*
X-5390995Y7402866D01*
X-5285551Y7446543D01*
X-5190654Y7509951D01*
X-5109951Y7590654D01*
X-5046543Y7685551D01*
X-5002866Y7790995D01*
X-4980600Y7902934D01*
X-4980600Y8017066D01*
X-5002866Y8129005D01*
X-5046543Y8234449D01*
X-5109951Y8329346D01*
X-5190654Y8410049D01*
X-5285551Y8473457D01*
X-5390995Y8517134D01*
X-5502934Y8539400D01*
X-5617066Y8539400D01*
X-5729005Y8517134D01*
X-5834449Y8473457D01*
X-5929346Y8410049D01*
X-6010049Y8329346D01*
X-6073457Y8234449D01*
X-6117134Y8129005D01*
X-6139400Y8017066D01*
X-6762395Y8017066D01*
X-6762395Y8204521D01*
X-6758400Y8202866D01*
X-6646461Y8180600D01*
X-6532329Y8180600D01*
X-6420390Y8202866D01*
X-6314946Y8246543D01*
X-6220049Y8309951D01*
X-6139346Y8390654D01*
X-6075938Y8485551D01*
X-6032261Y8590995D01*
X-6009995Y8702934D01*
X-6009995Y8817066D01*
X-6032261Y8929005D01*
X-6075938Y9034449D01*
X-6139346Y9129346D01*
X-6220049Y9210049D01*
X-6314946Y9273457D01*
X-6325621Y9277879D01*
X-5986437Y9617063D01*
X-3221000Y9617063D01*
X-3221000Y9502931D01*
X-3198734Y9390992D01*
X-3155057Y9285548D01*
X-3091649Y9190651D01*
X-3084794Y9183796D01*
X-3091649Y9176940D01*
X-3155057Y9082043D01*
X-3198734Y8976599D01*
X-3221000Y8864660D01*
X-3221000Y8750528D01*
X-3198734Y8638589D01*
X-3155057Y8533145D01*
X-3091649Y8438248D01*
X-3044998Y8391597D01*
X-3091649Y8344946D01*
X-3155057Y8250049D01*
X-3198734Y8144605D01*
X-3221000Y8032666D01*
X-3221000Y7918534D01*
X-3198734Y7806595D01*
X-3155057Y7701151D01*
X-3091649Y7606254D01*
X-3010946Y7525551D01*
X-2916049Y7462143D01*
X-2810605Y7418466D01*
X-2698666Y7396200D01*
X-2584534Y7396200D01*
X-2472595Y7418466D01*
X-2367151Y7462143D01*
X-2272254Y7525551D01*
X-2191551Y7606254D01*
X-2128143Y7701151D01*
X-2096698Y7777066D01*
X-169400Y7777066D01*
X-169400Y7662934D01*
X-147134Y7550995D01*
X-103457Y7445551D01*
X-40049Y7350654D01*
X40654Y7269951D01*
X135551Y7206543D01*
X240995Y7162866D01*
X352934Y7140600D01*
X467066Y7140600D01*
X579005Y7162866D01*
X684449Y7206543D01*
X779346Y7269951D01*
X860049Y7350654D01*
X923457Y7445551D01*
X967134Y7550995D01*
X989400Y7662934D01*
X989400Y7777066D01*
X967134Y7889005D01*
X923457Y7994449D01*
X860049Y8089346D01*
X779346Y8170049D01*
X684449Y8233457D01*
X579005Y8277134D01*
X467066Y8299400D01*
X352934Y8299400D01*
X240995Y8277134D01*
X135551Y8233457D01*
X40654Y8170049D01*
X-40049Y8089346D01*
X-103457Y7994449D01*
X-147134Y7889005D01*
X-169400Y7777066D01*
X-2096698Y7777066D01*
X-2084466Y7806595D01*
X-2062200Y7918534D01*
X-2062200Y8032666D01*
X-2084466Y8144605D01*
X-2128143Y8250049D01*
X-2191551Y8344946D01*
X-2238202Y8391597D01*
X-2191551Y8438248D01*
X-2128143Y8533145D01*
X-2084466Y8638589D01*
X-2062200Y8750528D01*
X-2062200Y8864660D01*
X-2084466Y8976599D01*
X-2128143Y9082043D01*
X-2191551Y9176940D01*
X-2198407Y9183796D01*
X-2191551Y9190651D01*
X-2128143Y9285548D01*
X-2084466Y9390992D01*
X-2062200Y9502931D01*
X-2062200Y9617063D01*
X-2084466Y9729002D01*
X-2128143Y9834446D01*
X-2191551Y9929343D01*
X-2272254Y10010046D01*
X-2367151Y10073454D01*
X-2472595Y10117131D01*
X-2584534Y10139397D01*
X-2698666Y10139397D01*
X-2810605Y10117131D01*
X-2916049Y10073454D01*
X-3010946Y10010046D01*
X-3091649Y9929343D01*
X-3155057Y9834446D01*
X-3198734Y9729002D01*
X-3221000Y9617063D01*
X-5986437Y9617063D01*
X-5714900Y9888599D01*
X-4782676Y9888599D01*
X-4764047Y9886764D01*
X-4745418Y9888599D01*
X-4745415Y9888599D01*
X-4689672Y9894089D01*
X-4618155Y9915784D01*
X-4552244Y9951014D01*
X-4494473Y9998425D01*
X-4482593Y10012901D01*
X-4470595Y10024899D01*
X-3695703Y10799790D01*
X-1517734Y10799790D01*
X-1519389Y10795795D01*
X-1541655Y10683856D01*
X-1541655Y10569724D01*
X-1519389Y10457785D01*
X-1475712Y10352341D01*
X-1412304Y10257444D01*
X-1331601Y10176741D01*
X-1236704Y10113333D01*
X-1131260Y10069656D01*
X-1019321Y10047390D01*
X-905189Y10047390D01*
X-793250Y10069656D01*
X-687806Y10113333D01*
X-592909Y10176741D01*
X-512206Y10257444D01*
X-448798Y10352341D01*
X-405121Y10457785D01*
X-382855Y10569724D01*
X-382855Y10683856D01*
X-405121Y10795795D01*
X-406776Y10799790D01*
X2554332Y10799790D01*
X2592509Y10779384D01*
X2664026Y10757689D01*
X2719769Y10752199D01*
X2719772Y10752199D01*
X2738401Y10750364D01*
X2757030Y10752199D01*
X9128706Y10752199D01*
X9147335Y10750364D01*
X9165964Y10752199D01*
X9165967Y10752199D01*
X9221710Y10757689D01*
X9293227Y10779384D01*
X9339436Y10804083D01*
X9425551Y10746543D01*
X9530995Y10702866D01*
X9642934Y10680600D01*
X9757066Y10680600D01*
X9869005Y10702866D01*
X9974449Y10746543D01*
X10069346Y10809951D01*
X10150049Y10890654D01*
X10213457Y10985551D01*
X10257134Y11090995D01*
X10279400Y11202934D01*
X10279400Y11317066D01*
X10257134Y11429005D01*
X10213457Y11534449D01*
X10150049Y11629346D01*
X10069346Y11710049D01*
X9974449Y11773457D01*
X9869005Y11817134D01*
X9757066Y11839400D01*
X9642934Y11839400D01*
X9530995Y11817134D01*
X9425551Y11773457D01*
X9330654Y11710049D01*
X9260321Y11639716D01*
X9257113Y11639400D01*
X9257104Y11639400D01*
X9201361Y11633910D01*
X9129844Y11612215D01*
X9063933Y11576985D01*
X9006162Y11529574D01*
X8994278Y11515093D01*
X8990184Y11510999D01*
X3806679Y11510999D01*
X3808334Y11514995D01*
X3830600Y11626934D01*
X3830600Y11741066D01*
X3808334Y11853005D01*
X3764657Y11958449D01*
X3701249Y12053346D01*
X3620546Y12134049D01*
X3525649Y12197457D01*
X3420205Y12241134D01*
X3308266Y12263400D01*
X3194134Y12263400D01*
X3082195Y12241134D01*
X2976751Y12197457D01*
X2881854Y12134049D01*
X2811522Y12063717D01*
X2808306Y12063400D01*
X2808304Y12063400D01*
X2752561Y12057910D01*
X2681044Y12036215D01*
X2615133Y12000985D01*
X2557362Y11953574D01*
X2545482Y11939098D01*
X2517384Y11911000D01*
X1338736Y11911000D01*
X1377057Y11968351D01*
X1420734Y12073795D01*
X1443000Y12185734D01*
X1443000Y12299866D01*
X1420734Y12411805D01*
X1377057Y12517249D01*
X1313649Y12612146D01*
X1232946Y12692849D01*
X1141489Y12753959D01*
X1150638Y12776046D01*
X1172904Y12887985D01*
X1172904Y13002117D01*
X1150638Y13114056D01*
X1106961Y13219500D01*
X1043553Y13314397D01*
X983340Y13374610D01*
X1011623Y13416939D01*
X1055300Y13522383D01*
X1077566Y13634322D01*
X1077566Y13748454D01*
X1055300Y13860393D01*
X1033677Y13912595D01*
X1036449Y13913743D01*
X1131346Y13977151D01*
X1212049Y14057854D01*
X1275457Y14152751D01*
X1319134Y14258195D01*
X1341400Y14370134D01*
X1341400Y14484266D01*
X1319134Y14596205D01*
X1275457Y14701649D01*
X1212049Y14796546D01*
X1131346Y14877249D01*
X1036449Y14940657D01*
X931005Y14984334D01*
X819066Y15006600D01*
X704934Y15006600D01*
X592995Y14984334D01*
X487551Y14940657D01*
X392654Y14877249D01*
X322321Y14806916D01*
X319113Y14806600D01*
X319104Y14806600D01*
X263361Y14801110D01*
X191844Y14779415D01*
X161162Y14763015D01*
X125932Y14744185D01*
X103375Y14725673D01*
X68162Y14696774D01*
X56282Y14682298D01*
X-1302186Y13323830D01*
X-2474878Y13323830D01*
X-4035167Y14884119D01*
X-4047047Y14898595D01*
X-4104818Y14946006D01*
X-4170729Y14981236D01*
X-4242246Y15002931D01*
X-4297989Y15008421D01*
X-4297992Y15008421D01*
X-4316621Y15010256D01*
X-4335250Y15008421D01*
X-7722214Y15008421D01*
X-7740843Y15010256D01*
X-7759472Y15008421D01*
X-7759475Y15008421D01*
X-7815218Y15002931D01*
X-7886735Y14981236D01*
X-7916362Y14965400D01*
X-7952647Y14946006D01*
X-7995945Y14910472D01*
X-8010417Y14898595D01*
X-8022293Y14884124D01*
X-8535498Y14370918D01*
X-8549974Y14359038D01*
X-8561851Y14344565D01*
X-8597385Y14301267D01*
X-8604250Y14288423D01*
X-8632615Y14235355D01*
X-8654310Y14163838D01*
X-8657750Y14128908D01*
X-8660117Y14104878D01*
X-8730449Y14034546D01*
X-8793857Y13939649D01*
X-8837534Y13834205D01*
X-8859800Y13722266D01*
X-8859800Y13608134D01*
X-8837534Y13496195D01*
X-8793857Y13390751D01*
X-8730449Y13295854D01*
X-8649746Y13215151D01*
X-8554849Y13151743D01*
X-8449405Y13108066D01*
X-8337466Y13085800D01*
X-8223334Y13085800D01*
X-8111395Y13108066D01*
X-8005951Y13151743D01*
X-7911054Y13215151D01*
X-7899400Y13226805D01*
X-7897799Y13225204D01*
X-7897800Y11410676D01*
X-10483256Y8825220D01*
X-10491866Y8868505D01*
X-10535543Y8973949D01*
X-10598951Y9068846D01*
X-10679654Y9149549D01*
X-10774551Y9212957D01*
X-10879995Y9256634D01*
X-10991934Y9278900D01*
X-11106066Y9278900D01*
X-11218005Y9256634D01*
X-11323449Y9212957D01*
X-11418346Y9149549D01*
X-11499049Y9068846D01*
X-11562457Y8973949D01*
X-11606134Y8868505D01*
X-11628400Y8756566D01*
X-11628400Y8642434D01*
X-11606134Y8530495D01*
X-11562457Y8425051D01*
X-11499049Y8330154D01*
X-11418346Y8249451D01*
X-11323449Y8186043D01*
X-11218005Y8142366D01*
X-11174720Y8133756D01*
X-14207503Y5100973D01*
X-14221974Y5089097D01*
X-14233850Y5074626D01*
X-14233852Y5074624D01*
X-14269386Y5031326D01*
X-14295856Y4981802D01*
X-14304615Y4965415D01*
X-14318060Y4921092D01*
X-14326310Y4893897D01*
X-14333636Y4819523D01*
X-22174600Y4819523D01*
X-22174600Y7486566D01*
X-13850900Y7486566D01*
X-13850900Y7372434D01*
X-13828634Y7260495D01*
X-13784957Y7155051D01*
X-13721549Y7060154D01*
X-13640846Y6979451D01*
X-13545949Y6916043D01*
X-13440505Y6872366D01*
X-13328566Y6850100D01*
X-13214434Y6850100D01*
X-13102495Y6872366D01*
X-12997051Y6916043D01*
X-12902154Y6979451D01*
X-12821451Y7060154D01*
X-12758043Y7155051D01*
X-12714366Y7260495D01*
X-12692100Y7372434D01*
X-12692100Y7486566D01*
X-12714366Y7598505D01*
X-12758043Y7703949D01*
X-12821451Y7798846D01*
X-12902154Y7879549D01*
X-12997051Y7942957D01*
X-13102495Y7986634D01*
X-13214434Y8008900D01*
X-13328566Y8008900D01*
X-13440505Y7986634D01*
X-13545949Y7942957D01*
X-13640846Y7879549D01*
X-13721549Y7798846D01*
X-13784957Y7703949D01*
X-13828634Y7598505D01*
X-13850900Y7486566D01*
X-22174600Y7486566D01*
X-22174600Y10145115D01*
X-22151858Y10377066D01*
X-13989400Y10377066D01*
X-13989400Y10262934D01*
X-13967134Y10150995D01*
X-13923457Y10045551D01*
X-13860049Y9950654D01*
X-13809395Y9900000D01*
X-13810049Y9899346D01*
X-13873457Y9804449D01*
X-13917134Y9699005D01*
X-13939400Y9587066D01*
X-13939400Y9472934D01*
X-13917134Y9360995D01*
X-13873457Y9255551D01*
X-13810049Y9160654D01*
X-13729346Y9079951D01*
X-13634449Y9016543D01*
X-13529005Y8972866D01*
X-13417066Y8950600D01*
X-13302934Y8950600D01*
X-13190995Y8972866D01*
X-13085551Y9016543D01*
X-12990654Y9079951D01*
X-12909951Y9160654D01*
X-12846543Y9255551D01*
X-12802866Y9360995D01*
X-12780600Y9472934D01*
X-12780600Y9587066D01*
X-12802866Y9699005D01*
X-12846543Y9804449D01*
X-12909951Y9899346D01*
X-12960605Y9950000D01*
X-12959951Y9950654D01*
X-12896543Y10045551D01*
X-12852866Y10150995D01*
X-12830600Y10262934D01*
X-12830600Y10280566D01*
X-10660900Y10280566D01*
X-10660900Y10166434D01*
X-10638634Y10054495D01*
X-10594957Y9949051D01*
X-10531549Y9854154D01*
X-10450846Y9773451D01*
X-10355949Y9710043D01*
X-10250505Y9666366D01*
X-10138566Y9644100D01*
X-10024434Y9644100D01*
X-9912495Y9666366D01*
X-9807051Y9710043D01*
X-9712154Y9773451D01*
X-9631451Y9854154D01*
X-9568043Y9949051D01*
X-9524366Y10054495D01*
X-9502100Y10166434D01*
X-9502100Y10280566D01*
X-9524366Y10392505D01*
X-9568043Y10497949D01*
X-9631451Y10592846D01*
X-9712154Y10673549D01*
X-9807051Y10736957D01*
X-9912495Y10780634D01*
X-10024434Y10802900D01*
X-10138566Y10802900D01*
X-10250505Y10780634D01*
X-10355949Y10736957D01*
X-10450846Y10673549D01*
X-10531549Y10592846D01*
X-10594957Y10497949D01*
X-10638634Y10392505D01*
X-10660900Y10280566D01*
X-12830600Y10280566D01*
X-12830600Y10377066D01*
X-12852866Y10489005D01*
X-12896543Y10594449D01*
X-12959951Y10689346D01*
X-13040654Y10770049D01*
X-13135551Y10833457D01*
X-13240995Y10877134D01*
X-13352934Y10899400D01*
X-13467066Y10899400D01*
X-13579005Y10877134D01*
X-13684449Y10833457D01*
X-13779346Y10770049D01*
X-13860049Y10689346D01*
X-13923457Y10594449D01*
X-13967134Y10489005D01*
X-13989400Y10377066D01*
X-22151858Y10377066D01*
X-22125755Y10643282D01*
X-21985400Y11108159D01*
X-21783931Y11487066D01*
X-12009400Y11487066D01*
X-12009400Y11372934D01*
X-11987134Y11260995D01*
X-11943457Y11155551D01*
X-11880049Y11060654D01*
X-11799346Y10979951D01*
X-11704449Y10916543D01*
X-11599005Y10872866D01*
X-11487066Y10850600D01*
X-11372934Y10850600D01*
X-11260995Y10872866D01*
X-11155551Y10916543D01*
X-11060654Y10979951D01*
X-10979951Y11060654D01*
X-10916543Y11155551D01*
X-10872866Y11260995D01*
X-10858212Y11334666D01*
X-9723400Y11334666D01*
X-9723400Y11220534D01*
X-9701134Y11108595D01*
X-9657457Y11003151D01*
X-9594049Y10908254D01*
X-9513346Y10827551D01*
X-9418449Y10764143D01*
X-9313005Y10720466D01*
X-9201066Y10698200D01*
X-9086934Y10698200D01*
X-8974995Y10720466D01*
X-8869551Y10764143D01*
X-8774654Y10827551D01*
X-8693951Y10908254D01*
X-8630543Y11003151D01*
X-8586866Y11108595D01*
X-8564600Y11220534D01*
X-8564600Y11334666D01*
X-8586866Y11446605D01*
X-8630543Y11552049D01*
X-8693951Y11646946D01*
X-8774654Y11727649D01*
X-8869551Y11791057D01*
X-8974995Y11834734D01*
X-9086934Y11857000D01*
X-9201066Y11857000D01*
X-9313005Y11834734D01*
X-9418449Y11791057D01*
X-9513346Y11727649D01*
X-9594049Y11646946D01*
X-9657457Y11552049D01*
X-9701134Y11446605D01*
X-9723400Y11334666D01*
X-10858212Y11334666D01*
X-10850600Y11372934D01*
X-10850600Y11487066D01*
X-10872866Y11599005D01*
X-10916543Y11704449D01*
X-10979951Y11799346D01*
X-11060654Y11880049D01*
X-11155551Y11943457D01*
X-11260995Y11987134D01*
X-11372934Y12009400D01*
X-11487066Y12009400D01*
X-11599005Y11987134D01*
X-11704449Y11943457D01*
X-11799346Y11880049D01*
X-11880049Y11799346D01*
X-11943457Y11704449D01*
X-11987134Y11599005D01*
X-12009400Y11487066D01*
X-21783931Y11487066D01*
X-21757426Y11536914D01*
X-21450511Y11913229D01*
X-21076351Y12222762D01*
X-20649194Y12453725D01*
X-20185308Y12597321D01*
X-19688027Y12649588D01*
X-19684513Y12649600D01*
X-15098054Y12649600D01*
X-15084630Y12650922D01*
X-15078318Y12650878D01*
X-15074088Y12651293D01*
X-14876886Y12672020D01*
X-14849841Y12677571D01*
X-14822761Y12682737D01*
X-14818694Y12683964D01*
X-14818688Y12683966D01*
X-14629271Y12742600D01*
X-14603803Y12753305D01*
X-14578256Y12763627D01*
X-14574513Y12765617D01*
X-14574504Y12765621D01*
X-14574497Y12765626D01*
X-14400080Y12859933D01*
X-14377197Y12875368D01*
X-14354122Y12890468D01*
X-14350828Y12893154D01*
X-14249396Y12977066D01*
X-13539400Y12977066D01*
X-13539400Y12862934D01*
X-13517134Y12750995D01*
X-13473457Y12645551D01*
X-13410049Y12550654D01*
X-13329346Y12469951D01*
X-13234449Y12406543D01*
X-13129005Y12362866D01*
X-13017066Y12340600D01*
X-12902934Y12340600D01*
X-12790995Y12362866D01*
X-12685551Y12406543D01*
X-12590654Y12469951D01*
X-12509951Y12550654D01*
X-12446543Y12645551D01*
X-12402866Y12750995D01*
X-12380600Y12862934D01*
X-12380600Y12977066D01*
X-12402866Y13089005D01*
X-12446543Y13194449D01*
X-12509951Y13289346D01*
X-12590654Y13370049D01*
X-12685551Y13433457D01*
X-12790995Y13477134D01*
X-12902934Y13499400D01*
X-13017066Y13499400D01*
X-13129005Y13477134D01*
X-13234449Y13433457D01*
X-13329346Y13370049D01*
X-13410049Y13289346D01*
X-13473457Y13194449D01*
X-13517134Y13089005D01*
X-13539400Y12977066D01*
X-14249396Y12977066D01*
X-14198044Y13019548D01*
X-14178566Y13039162D01*
X-14158893Y13058427D01*
X-14156188Y13061696D01*
X-14156182Y13061702D01*
X-14156178Y13061709D01*
X-14030859Y13215364D01*
X-14015579Y13238361D01*
X-14000005Y13261108D01*
X-13997983Y13264846D01*
X-13904892Y13439924D01*
X-13894356Y13465485D01*
X-13883510Y13490792D01*
X-13882255Y13494844D01*
X-13882253Y13494850D01*
X-13882252Y13494856D01*
X-13824942Y13684678D01*
X-13819583Y13711741D01*
X-13813847Y13738726D01*
X-13813404Y13742947D01*
X-13813402Y13742955D01*
X-13813402Y13742963D01*
X-13794053Y13940295D01*
X-13794053Y13940301D01*
X-13792600Y13955054D01*
X-13792600Y13977066D01*
X-10279400Y13977066D01*
X-10279400Y13862934D01*
X-10257134Y13750995D01*
X-10213457Y13645551D01*
X-10150049Y13550654D01*
X-10069346Y13469951D01*
X-9974449Y13406543D01*
X-9869005Y13362866D01*
X-9757066Y13340600D01*
X-9642934Y13340600D01*
X-9530995Y13362866D01*
X-9425551Y13406543D01*
X-9330654Y13469951D01*
X-9249951Y13550654D01*
X-9186543Y13645551D01*
X-9142866Y13750995D01*
X-9120600Y13862934D01*
X-9120600Y13977066D01*
X-9142866Y14089005D01*
X-9186543Y14194449D01*
X-9249951Y14289346D01*
X-9330654Y14370049D01*
X-9425551Y14433457D01*
X-9530995Y14477134D01*
X-9642934Y14499400D01*
X-9757066Y14499400D01*
X-9869005Y14477134D01*
X-9974449Y14433457D01*
X-10069346Y14370049D01*
X-10150049Y14289346D01*
X-10213457Y14194449D01*
X-10257134Y14089005D01*
X-10279400Y13977066D01*
X-13792600Y13977066D01*
X-13792600Y15601866D01*
X2163800Y15601866D01*
X2163800Y15487734D01*
X2186066Y15375795D01*
X2229743Y15270351D01*
X2293151Y15175454D01*
X2373854Y15094751D01*
X2468751Y15031343D01*
X2574195Y14987666D01*
X2686134Y14965400D01*
X2800266Y14965400D01*
X2912205Y14987666D01*
X3017649Y15031343D01*
X3112546Y15094751D01*
X3193249Y15175454D01*
X3256657Y15270351D01*
X3300334Y15375795D01*
X3322600Y15487734D01*
X3322600Y15601866D01*
X3300334Y15713805D01*
X3256657Y15819249D01*
X3193249Y15914146D01*
X3112546Y15994849D01*
X3017649Y16058257D01*
X2912205Y16101934D01*
X2800266Y16124200D01*
X2686134Y16124200D01*
X2574195Y16101934D01*
X2468751Y16058257D01*
X2373854Y15994849D01*
X2293151Y15914146D01*
X2229743Y15819249D01*
X2186066Y15713805D01*
X2163800Y15601866D01*
X-13792600Y15601866D01*
X-13792600Y19245898D01*
X3834200Y19245898D01*
X3834200Y18955702D01*
X3890814Y18671083D01*
X4001867Y18402978D01*
X4163091Y18161690D01*
X4368290Y17956491D01*
X4609578Y17795267D01*
X4877683Y17684214D01*
X5162302Y17627600D01*
X5452498Y17627600D01*
X5737117Y17684214D01*
X6005222Y17795267D01*
X6246510Y17956491D01*
X6451709Y18161690D01*
X6612933Y18402978D01*
X6723986Y18671083D01*
X6780600Y18955702D01*
X6780600Y19245898D01*
X6731890Y19490780D01*
X6750995Y19482866D01*
X6862934Y19460600D01*
X6977066Y19460600D01*
X7054990Y19476100D01*
X7009200Y19245898D01*
X7009200Y18955702D01*
X7065814Y18671083D01*
X7176867Y18402978D01*
X7338091Y18161690D01*
X7543290Y17956491D01*
X7784578Y17795267D01*
X8052683Y17684214D01*
X8337302Y17627600D01*
X8627498Y17627600D01*
X8912117Y17684214D01*
X9180222Y17795267D01*
X9421510Y17956491D01*
X9626709Y18161690D01*
X9787933Y18402978D01*
X9898986Y18671083D01*
X9955600Y18955702D01*
X9955600Y19245898D01*
X9898986Y19530517D01*
X9787933Y19798622D01*
X9626709Y20039910D01*
X9421510Y20245109D01*
X9180222Y20406333D01*
X9072740Y20450854D01*
X9574600Y20450854D01*
X9574600Y20290746D01*
X9605835Y20133715D01*
X9667106Y19985795D01*
X9756057Y19852670D01*
X9869270Y19739457D01*
X10002395Y19650506D01*
X10150315Y19589235D01*
X10307346Y19558000D01*
X10467454Y19558000D01*
X10624485Y19589235D01*
X10772405Y19650506D01*
X10905530Y19739457D01*
X11018743Y19852670D01*
X11107694Y19985795D01*
X11168965Y20133715D01*
X11200200Y20290746D01*
X11200200Y20450854D01*
X11168965Y20607885D01*
X11107694Y20755805D01*
X11018743Y20888930D01*
X10905530Y21002143D01*
X10772405Y21091094D01*
X10624485Y21152365D01*
X10467454Y21183600D01*
X10307346Y21183600D01*
X10150315Y21152365D01*
X10002395Y21091094D01*
X9869270Y21002143D01*
X9756057Y20888930D01*
X9667106Y20755805D01*
X9605835Y20607885D01*
X9574600Y20450854D01*
X9072740Y20450854D01*
X8912117Y20517386D01*
X8627498Y20574000D01*
X8337302Y20574000D01*
X8052683Y20517386D01*
X7784578Y20406333D01*
X7543290Y20245109D01*
X7482120Y20183939D01*
X7477134Y20209005D01*
X7433457Y20314449D01*
X7370049Y20409346D01*
X7289346Y20490049D01*
X7194449Y20553457D01*
X7089005Y20597134D01*
X6977066Y20619400D01*
X6862934Y20619400D01*
X6750995Y20597134D01*
X6645551Y20553457D01*
X6550654Y20490049D01*
X6469951Y20409346D01*
X6406543Y20314449D01*
X6362866Y20209005D01*
X6349551Y20142068D01*
X6246510Y20245109D01*
X6005222Y20406333D01*
X5737117Y20517386D01*
X5452498Y20574000D01*
X5162302Y20574000D01*
X4877683Y20517386D01*
X4609578Y20406333D01*
X4368290Y20245109D01*
X4163091Y20039910D01*
X4001867Y19798622D01*
X3890814Y19530517D01*
X3834200Y19245898D01*
X-13792600Y19245898D01*
X-13792600Y23178202D01*
X-10879400Y23178202D01*
X-10879400Y22541799D01*
X-10866676Y22412608D01*
X-10816391Y22246841D01*
X-10734732Y22094069D01*
X-10624838Y21960162D01*
X-10490932Y21850268D01*
X-10338160Y21768609D01*
X-10172393Y21718324D01*
X-10000000Y21701345D01*
X-9827608Y21718324D01*
X-9661841Y21768609D01*
X-9509069Y21850268D01*
X-9375162Y21960162D01*
X-9265268Y22094068D01*
X-9183609Y22246840D01*
X-9133324Y22412607D01*
X-9120600Y22541798D01*
X-9120600Y23178202D01*
X-8879400Y23178202D01*
X-8879400Y22541799D01*
X-8866676Y22412608D01*
X-8816391Y22246841D01*
X-8734732Y22094069D01*
X-8624838Y21960162D01*
X-8490932Y21850268D01*
X-8338160Y21768609D01*
X-8172393Y21718324D01*
X-8000000Y21701345D01*
X-7827608Y21718324D01*
X-7706588Y21755035D01*
X-7429040Y21477487D01*
X-7417164Y21463016D01*
X-7402693Y21451140D01*
X-7402692Y21451139D01*
X-7359394Y21415605D01*
X-7324164Y21396775D01*
X-7293482Y21380375D01*
X-7221965Y21358680D01*
X-7166222Y21353190D01*
X-7166219Y21353190D01*
X-7147590Y21351355D01*
X-7128961Y21353190D01*
X3931515Y21353190D01*
X3950144Y21351355D01*
X3968773Y21353190D01*
X3968776Y21353190D01*
X4024519Y21358680D01*
X4096036Y21380375D01*
X4161947Y21415605D01*
X4219718Y21463016D01*
X4231598Y21477492D01*
X4499476Y21745370D01*
X4494600Y21720854D01*
X4494600Y21560746D01*
X4525835Y21403715D01*
X4587106Y21255795D01*
X4676057Y21122670D01*
X4789270Y21009457D01*
X4922395Y20920506D01*
X5070315Y20859235D01*
X5227346Y20828000D01*
X5387454Y20828000D01*
X5544485Y20859235D01*
X5692405Y20920506D01*
X5825530Y21009457D01*
X5938743Y21122670D01*
X6027694Y21255795D01*
X6088965Y21403715D01*
X6120200Y21560746D01*
X6120200Y21720854D01*
X6088965Y21877885D01*
X6027694Y22025805D01*
X6013398Y22047201D01*
X6037972Y22047201D01*
X6056601Y22045366D01*
X6075230Y22047201D01*
X6075233Y22047201D01*
X6130976Y22052691D01*
X6202493Y22074386D01*
X6268404Y22109616D01*
X6326175Y22157027D01*
X6338055Y22171503D01*
X6867152Y22700600D01*
X6967066Y22700600D01*
X7079005Y22722866D01*
X7184449Y22766543D01*
X7279346Y22829951D01*
X7360049Y22910654D01*
X7423457Y23005551D01*
X7467134Y23110995D01*
X7467408Y23112373D01*
X7543290Y23036491D01*
X7784578Y22875267D01*
X8052683Y22764214D01*
X8337302Y22707600D01*
X8627498Y22707600D01*
X8912117Y22764214D01*
X9180222Y22875267D01*
X9353209Y22990854D01*
X9574600Y22990854D01*
X9574600Y22830746D01*
X9605835Y22673715D01*
X9667106Y22525795D01*
X9756057Y22392670D01*
X9869270Y22279457D01*
X10002395Y22190506D01*
X10150315Y22129235D01*
X10307346Y22098000D01*
X10467454Y22098000D01*
X10624485Y22129235D01*
X10772405Y22190506D01*
X10905530Y22279457D01*
X11018743Y22392670D01*
X11107694Y22525795D01*
X11168965Y22673715D01*
X11200200Y22830746D01*
X11200200Y22990854D01*
X11168965Y23147885D01*
X11107694Y23295805D01*
X11018743Y23428930D01*
X10905530Y23542143D01*
X10772405Y23631094D01*
X10624485Y23692365D01*
X10467454Y23723600D01*
X10307346Y23723600D01*
X10150315Y23692365D01*
X10002395Y23631094D01*
X9869270Y23542143D01*
X9756057Y23428930D01*
X9667106Y23295805D01*
X9605835Y23147885D01*
X9574600Y22990854D01*
X9353209Y22990854D01*
X9421510Y23036491D01*
X9626709Y23241690D01*
X9787933Y23482978D01*
X9898986Y23751083D01*
X9955600Y24035702D01*
X9955600Y24325898D01*
X9898986Y24610517D01*
X9787933Y24878622D01*
X9626709Y25119910D01*
X9421510Y25325109D01*
X9180222Y25486333D01*
X8912117Y25597386D01*
X8627498Y25654000D01*
X8337302Y25654000D01*
X8052683Y25597386D01*
X7784578Y25486333D01*
X7543290Y25325109D01*
X7338091Y25119910D01*
X7176867Y24878622D01*
X7065814Y24610517D01*
X7009200Y24325898D01*
X7009200Y24035702D01*
X7047449Y23843411D01*
X6967066Y23859400D01*
X6852934Y23859400D01*
X6741107Y23837156D01*
X6780600Y24035702D01*
X6780600Y24325898D01*
X6723986Y24610517D01*
X6612933Y24878622D01*
X6451709Y25119910D01*
X6246510Y25325109D01*
X6005222Y25486333D01*
X5737117Y25597386D01*
X5452498Y25654000D01*
X5162302Y25654000D01*
X4877683Y25597386D01*
X4609578Y25486333D01*
X4368290Y25325109D01*
X4163091Y25119910D01*
X4001867Y24878622D01*
X3890814Y24610517D01*
X3834200Y24325898D01*
X3834200Y24035702D01*
X3890814Y23751083D01*
X4001867Y23482978D01*
X4163091Y23241690D01*
X4368290Y23036491D01*
X4609578Y22875267D01*
X4776801Y22806001D01*
X4662784Y22806001D01*
X4644155Y22807836D01*
X4625526Y22806001D01*
X4625523Y22806001D01*
X4569780Y22800511D01*
X4514908Y22783865D01*
X4498262Y22778816D01*
X4432351Y22743586D01*
X4407104Y22722866D01*
X4374581Y22696175D01*
X4362705Y22681704D01*
X3792992Y22111990D01*
X3555174Y22111990D01*
X3614449Y22136543D01*
X3709346Y22199951D01*
X3790049Y22280654D01*
X3853457Y22375551D01*
X3897134Y22480995D01*
X3919400Y22592934D01*
X3919400Y22707066D01*
X3897134Y22819005D01*
X3853457Y22924449D01*
X3790049Y23019346D01*
X3709346Y23100049D01*
X3614449Y23163457D01*
X3509005Y23207134D01*
X3397066Y23229400D01*
X3282934Y23229400D01*
X3170995Y23207134D01*
X3065551Y23163457D01*
X2970654Y23100049D01*
X2889951Y23019346D01*
X2826543Y22924449D01*
X2782866Y22819005D01*
X2760600Y22707066D01*
X2760600Y22592934D01*
X2782866Y22480995D01*
X2826543Y22375551D01*
X2889951Y22280654D01*
X2970654Y22199951D01*
X3065551Y22136543D01*
X3124826Y22111990D01*
X-1255688Y22111990D01*
X-1183609Y22246840D01*
X-1133324Y22412607D01*
X-1120600Y22541798D01*
X-1120600Y23178202D01*
X-1133324Y23307393D01*
X-1183609Y23473160D01*
X-1265268Y23625932D01*
X-1375162Y23759838D01*
X-1509068Y23869732D01*
X-1661840Y23951391D01*
X-1827607Y24001676D01*
X-2000000Y24018655D01*
X-2172392Y24001676D01*
X-2338159Y23951391D01*
X-2490931Y23869732D01*
X-2624837Y23759838D01*
X-2734731Y23625932D01*
X-2816391Y23473160D01*
X-2866676Y23307393D01*
X-2879400Y23178202D01*
X-2879400Y22541799D01*
X-2866676Y22412608D01*
X-2816391Y22246841D01*
X-2744311Y22111990D01*
X-3255688Y22111990D01*
X-3183609Y22246840D01*
X-3133324Y22412607D01*
X-3120600Y22541798D01*
X-3120600Y23178202D01*
X-3133324Y23307393D01*
X-3183609Y23473160D01*
X-3265268Y23625932D01*
X-3375162Y23759838D01*
X-3509068Y23869732D01*
X-3661840Y23951391D01*
X-3827607Y24001676D01*
X-4000000Y24018655D01*
X-4172392Y24001676D01*
X-4338159Y23951391D01*
X-4490931Y23869732D01*
X-4624837Y23759838D01*
X-4734731Y23625932D01*
X-4816391Y23473160D01*
X-4866676Y23307393D01*
X-4879400Y23178202D01*
X-4879400Y22541799D01*
X-4866676Y22412608D01*
X-4816391Y22246841D01*
X-4744311Y22111990D01*
X-6990437Y22111990D01*
X-7170035Y22291588D01*
X-7133324Y22412607D01*
X-7120600Y22541798D01*
X-7120600Y23178202D01*
X-7133324Y23307393D01*
X-7183609Y23473160D01*
X-7265268Y23625932D01*
X-7375162Y23759838D01*
X-7509068Y23869732D01*
X-7661840Y23951391D01*
X-7827607Y24001676D01*
X-8000000Y24018655D01*
X-8172392Y24001676D01*
X-8338159Y23951391D01*
X-8490931Y23869732D01*
X-8624837Y23759838D01*
X-8734731Y23625932D01*
X-8816391Y23473160D01*
X-8866676Y23307393D01*
X-8879400Y23178202D01*
X-9120600Y23178202D01*
X-9133324Y23307393D01*
X-9183609Y23473160D01*
X-9265268Y23625932D01*
X-9375162Y23759838D01*
X-9509068Y23869732D01*
X-9661840Y23951391D01*
X-9827607Y24001676D01*
X-10000000Y24018655D01*
X-10172392Y24001676D01*
X-10338159Y23951391D01*
X-10490931Y23869732D01*
X-10624837Y23759838D01*
X-10734731Y23625932D01*
X-10816391Y23473160D01*
X-10866676Y23307393D01*
X-10879400Y23178202D01*
X-13792600Y23178202D01*
X-13792600Y23607115D01*
X-13743755Y24105282D01*
X-13603400Y24570159D01*
X-13375426Y24998914D01*
X-13068511Y25375229D01*
X-12694351Y25684762D01*
X-12267194Y25915725D01*
X-11803308Y26059321D01*
X-11306027Y26111588D01*
X-11302513Y26111600D01*
X10145115Y26111600D01*
X10643282Y26062755D01*
X10643282Y26062755D01*
G37*
X10643282Y26062755D02*
X11108159Y25922400D01*
X11536914Y25694426D01*
X11913229Y25387511D01*
X12222762Y25013351D01*
X12453725Y24586194D01*
X12597321Y24122308D01*
X12649588Y23625027D01*
X12649601Y23621226D01*
X12649600Y13955055D01*
X12650922Y13941631D01*
X12650878Y13935318D01*
X12651293Y13931088D01*
X12672020Y13733886D01*
X12677571Y13706841D01*
X12682737Y13679761D01*
X12683965Y13675692D01*
X12742600Y13486271D01*
X12753305Y13460803D01*
X12763627Y13435256D01*
X12765617Y13431513D01*
X12765621Y13431504D01*
X12765626Y13431497D01*
X12859933Y13257080D01*
X12875365Y13234201D01*
X12890468Y13211122D01*
X12893154Y13207828D01*
X13019548Y13055044D01*
X13039162Y13035566D01*
X13058427Y13015893D01*
X13061696Y13013188D01*
X13061702Y13013182D01*
X13061709Y13013178D01*
X13215364Y12887859D01*
X13238361Y12872579D01*
X13261108Y12857005D01*
X13264846Y12854983D01*
X13439924Y12761892D01*
X13465485Y12751356D01*
X13490792Y12740510D01*
X13494844Y12739255D01*
X13494850Y12739253D01*
X13494856Y12739252D01*
X13684678Y12681942D01*
X13711741Y12676583D01*
X13738726Y12670847D01*
X13742947Y12670404D01*
X13742955Y12670402D01*
X13742963Y12670402D01*
X13940295Y12651053D01*
X13940301Y12651053D01*
X13955054Y12649600D01*
X19670115Y12649600D01*
X20168282Y12600755D01*
X20633159Y12460400D01*
X21061914Y12232426D01*
X21438229Y11925511D01*
X21747762Y11551351D01*
X21978725Y11124194D01*
X22122321Y10660308D01*
X22174588Y10163027D01*
X22174600Y10159513D01*
X22174601Y-13828105D01*
X22125755Y-14326282D01*
X21985401Y-14791158D01*
X21757426Y-15219914D01*
X21450512Y-15596229D01*
X21076351Y-15905762D01*
X20649194Y-16136725D01*
X20185308Y-16280321D01*
X19688026Y-16332588D01*
X19684513Y-16332600D01*
X15098054Y-16332600D01*
X15084630Y-16333922D01*
X15078318Y-16333878D01*
X15074088Y-16334293D01*
X14876886Y-16355020D01*
X14849841Y-16360571D01*
X14822761Y-16365737D01*
X14818697Y-16366964D01*
X14818691Y-16366965D01*
X14818685Y-16366967D01*
X14629271Y-16425600D01*
X14603826Y-16436296D01*
X14578256Y-16446627D01*
X14574503Y-16448622D01*
X14400080Y-16542933D01*
X14377182Y-16558378D01*
X14354122Y-16573468D01*
X14350828Y-16576154D01*
X14198044Y-16702548D01*
X14178583Y-16722146D01*
X14158893Y-16741427D01*
X14156183Y-16744702D01*
X14030859Y-16898364D01*
X14015569Y-16921377D01*
X14000005Y-16944108D01*
X13997986Y-16947842D01*
X13997983Y-16947846D01*
X13997983Y-16947847D01*
X13904892Y-17122924D01*
X13894361Y-17148473D01*
X13883510Y-17173792D01*
X13882255Y-17177844D01*
X13882253Y-17177850D01*
X13882253Y-17177852D01*
X13824942Y-17367678D01*
X13819580Y-17394756D01*
X13813847Y-17421727D01*
X13813404Y-17425947D01*
X13813402Y-17425955D01*
X13813402Y-17425963D01*
X13794053Y-17623295D01*
X13794053Y-17623311D01*
X13792601Y-17638054D01*
X13792600Y-32941615D01*
X13743755Y-33439782D01*
X13603401Y-33904658D01*
X13375426Y-34333414D01*
X13068512Y-34709729D01*
X12694351Y-35019262D01*
X12267194Y-35250225D01*
X11803308Y-35393821D01*
X11306026Y-35446088D01*
X11302513Y-35446100D01*
X8581879Y-35446100D01*
X8583534Y-35442105D01*
X8605800Y-35330166D01*
X8605800Y-35216034D01*
X8583534Y-35104095D01*
X8539857Y-34998651D01*
X8476449Y-34903754D01*
X8395746Y-34823051D01*
X8300849Y-34759643D01*
X8195405Y-34715966D01*
X8083466Y-34693700D01*
X7969334Y-34693700D01*
X7857395Y-34715966D01*
X7751951Y-34759643D01*
X7657054Y-34823051D01*
X7655620Y-34824485D01*
X7610886Y-34779751D01*
X7515989Y-34716343D01*
X7410545Y-34672666D01*
X7298606Y-34650400D01*
X7198692Y-34650400D01*
X7118794Y-34570502D01*
X7106914Y-34556026D01*
X7049143Y-34508615D01*
X6983232Y-34473385D01*
X6911715Y-34451690D01*
X6855972Y-34446200D01*
X6855969Y-34446200D01*
X6837340Y-34444365D01*
X6818711Y-34446200D01*
X5100138Y-34446200D01*
X5056614Y-34381062D01*
X4946938Y-34271386D01*
X4911938Y-34248000D01*
X4946938Y-34224614D01*
X5056614Y-34114938D01*
X5142785Y-33985974D01*
X5180446Y-33895051D01*
X5228495Y-33914954D01*
X5340434Y-33937220D01*
X5454566Y-33937220D01*
X5566505Y-33914954D01*
X5671949Y-33871277D01*
X5766846Y-33807869D01*
X5847549Y-33727166D01*
X5910957Y-33632269D01*
X5954634Y-33526825D01*
X5973156Y-33433709D01*
X6195550Y-33656103D01*
X6207426Y-33670574D01*
X6221897Y-33682450D01*
X6221898Y-33682451D01*
X6265196Y-33717985D01*
X6331107Y-33753215D01*
X6347753Y-33758264D01*
X6402625Y-33774910D01*
X6458368Y-33780400D01*
X6458371Y-33780400D01*
X6477000Y-33782235D01*
X6495629Y-33780400D01*
X7017171Y-33780400D01*
X7035800Y-33782235D01*
X7054429Y-33780400D01*
X7384632Y-33780400D01*
X7401152Y-33778773D01*
X8795383Y-33778773D01*
X8866032Y-33849422D01*
X8960929Y-33912830D01*
X9066373Y-33956507D01*
X9178312Y-33978773D01*
X9292444Y-33978773D01*
X9404383Y-33956507D01*
X9509827Y-33912830D01*
X9604724Y-33849422D01*
X9685427Y-33768719D01*
X9748835Y-33673822D01*
X9792512Y-33568378D01*
X9814778Y-33456439D01*
X9814778Y-33342307D01*
X9792512Y-33230368D01*
X9748835Y-33124924D01*
X9685427Y-33030027D01*
X9604724Y-32949324D01*
X9509827Y-32885916D01*
X9404383Y-32842239D01*
X9292444Y-32819973D01*
X9178312Y-32819973D01*
X9066373Y-32842239D01*
X8960929Y-32885916D01*
X8866032Y-32949324D01*
X8795383Y-33019973D01*
X7056056Y-33019973D01*
X7037427Y-33018138D01*
X7018798Y-33019973D01*
X7018795Y-33019973D01*
X7002275Y-33021600D01*
X6634153Y-33021600D01*
X5996454Y-32383902D01*
X5984574Y-32369426D01*
X5926803Y-32322015D01*
X5860892Y-32286785D01*
X5789375Y-32265090D01*
X5733632Y-32259600D01*
X5733629Y-32259600D01*
X5715000Y-32257765D01*
X5696371Y-32259600D01*
X-830005Y-32259600D01*
X-900654Y-32188951D01*
X-995551Y-32125543D01*
X-1100995Y-32081866D01*
X-1212934Y-32059600D01*
X-1327066Y-32059600D01*
X-1439005Y-32081866D01*
X-1544449Y-32125543D01*
X-1639346Y-32188951D01*
X-1720049Y-32269654D01*
X-1783457Y-32364551D01*
X-1827134Y-32469995D01*
X-1849400Y-32581934D01*
X-1849400Y-32696066D01*
X-1827134Y-32808005D01*
X-1819163Y-32827248D01*
X-1827448Y-32825600D01*
X-1982552Y-32825600D01*
X-2079220Y-32844828D01*
X-2383947Y-32540101D01*
X-2395827Y-32525625D01*
X-2453598Y-32478214D01*
X-2519509Y-32442984D01*
X-2591026Y-32421289D01*
X-2646769Y-32415799D01*
X-2646772Y-32415799D01*
X-2665401Y-32413964D01*
X-2684030Y-32415799D01*
X-4791364Y-32415799D01*
X-4809993Y-32413964D01*
X-4828622Y-32415799D01*
X-4828625Y-32415799D01*
X-4884368Y-32421289D01*
X-4939240Y-32437935D01*
X-4955886Y-32442984D01*
X-5021796Y-32478214D01*
X-5037172Y-32490833D01*
X-5079567Y-32525625D01*
X-5091443Y-32540096D01*
X-6157499Y-33606153D01*
X-6524124Y-33972778D01*
X-9489975Y-33972778D01*
X-9411075Y-33940096D01*
X-9316178Y-33876688D01*
X-9235475Y-33795985D01*
X-9172067Y-33701088D01*
X-9128390Y-33595644D01*
X-9110055Y-33503467D01*
X-9051961Y-33503467D01*
X-8940022Y-33481201D01*
X-8834578Y-33437524D01*
X-8739681Y-33374116D01*
X-8658978Y-33293413D01*
X-8595570Y-33198516D01*
X-8551893Y-33093072D01*
X-8529627Y-32981133D01*
X-8529627Y-32867001D01*
X-8551893Y-32755062D01*
X-8595570Y-32649618D01*
X-8658978Y-32554721D01*
X-8739681Y-32474018D01*
X-8834578Y-32410610D01*
X-8940022Y-32366933D01*
X-9051961Y-32344667D01*
X-9166093Y-32344667D01*
X-9278032Y-32366933D01*
X-9278159Y-32366986D01*
X-9278159Y-32264762D01*
X-9300425Y-32152823D01*
X-9344102Y-32047379D01*
X-9407510Y-31952482D01*
X-9488213Y-31871779D01*
X-9583110Y-31808371D01*
X-9609750Y-31797336D01*
X-8725180Y-31797336D01*
X-8725180Y-31911468D01*
X-8702914Y-32023407D01*
X-8659237Y-32128851D01*
X-8595829Y-32223748D01*
X-8515126Y-32304451D01*
X-8420229Y-32367859D01*
X-8314785Y-32411536D01*
X-8202846Y-32433802D01*
X-8088714Y-32433802D01*
X-7976775Y-32411536D01*
X-7871331Y-32367859D01*
X-7776434Y-32304451D01*
X-7695731Y-32223748D01*
X-7632323Y-32128851D01*
X-7588646Y-32023407D01*
X-7566380Y-31911468D01*
X-7566380Y-31797336D01*
X-7588646Y-31685397D01*
X-7632323Y-31579953D01*
X-7695731Y-31485056D01*
X-7776434Y-31404353D01*
X-7871331Y-31340945D01*
X-7976775Y-31297268D01*
X-8088714Y-31275002D01*
X-8202846Y-31275002D01*
X-8314785Y-31297268D01*
X-8420229Y-31340945D01*
X-8515126Y-31404353D01*
X-8595829Y-31485056D01*
X-8659237Y-31579953D01*
X-8702914Y-31685397D01*
X-8725180Y-31797336D01*
X-9609750Y-31797336D01*
X-9688554Y-31764694D01*
X-9800493Y-31742428D01*
X-9914625Y-31742428D01*
X-10026564Y-31764694D01*
X-10132008Y-31808371D01*
X-10226905Y-31871779D01*
X-10307608Y-31952482D01*
X-10371016Y-32047379D01*
X-10414693Y-32152823D01*
X-10436959Y-32264762D01*
X-10436959Y-32378894D01*
X-10414693Y-32490833D01*
X-10371016Y-32596277D01*
X-10307608Y-32691174D01*
X-10226905Y-32771877D01*
X-10132008Y-32835285D01*
X-10026564Y-32878962D01*
X-9925765Y-32899012D01*
X-9959973Y-32913182D01*
X-10054870Y-32976590D01*
X-10135573Y-33057293D01*
X-10198981Y-33152190D01*
X-10231382Y-33230411D01*
X-10281828Y-33220377D01*
X-10395960Y-33220377D01*
X-10507899Y-33242643D01*
X-10613343Y-33286320D01*
X-10692920Y-33339492D01*
X-10755151Y-33277261D01*
X-10850048Y-33213853D01*
X-10955492Y-33170176D01*
X-11067431Y-33147910D01*
X-11181563Y-33147910D01*
X-11293502Y-33170176D01*
X-11319205Y-33180823D01*
X-11329539Y-33155875D01*
X-11392947Y-33060978D01*
X-11473650Y-32980275D01*
X-11568547Y-32916867D01*
X-11673991Y-32873190D01*
X-11785930Y-32850924D01*
X-11900062Y-32850924D01*
X-12012001Y-32873190D01*
X-12117445Y-32916867D01*
X-12212342Y-32980275D01*
X-12293045Y-33060978D01*
X-12295161Y-33064145D01*
X-12308073Y-33055517D01*
X-12413517Y-33011840D01*
X-12525456Y-32989574D01*
X-12639588Y-32989574D01*
X-12751527Y-33011840D01*
X-12856971Y-33055517D01*
X-12951868Y-33118925D01*
X-13032571Y-33199628D01*
X-13095979Y-33294525D01*
X-13139656Y-33399969D01*
X-13161922Y-33511908D01*
X-13161922Y-33626040D01*
X-13139656Y-33737979D01*
X-13095979Y-33843423D01*
X-13032571Y-33938320D01*
X-12951868Y-34019023D01*
X-12856971Y-34082431D01*
X-12751527Y-34126108D01*
X-12639588Y-34148374D01*
X-12525456Y-34148374D01*
X-12413517Y-34126108D01*
X-12308073Y-34082431D01*
X-12213176Y-34019023D01*
X-12210935Y-34016782D01*
X-12195211Y-34068615D01*
X-12187826Y-34082431D01*
X-12159981Y-34134527D01*
X-12153269Y-34142705D01*
X-12112570Y-34192298D01*
X-12098094Y-34204178D01*
X-11342584Y-34959689D01*
X-11330706Y-34974162D01*
X-11316235Y-34986038D01*
X-11316234Y-34986039D01*
X-11272935Y-35021573D01*
X-11207025Y-35056803D01*
X-11190379Y-35061852D01*
X-11135507Y-35078498D01*
X-11079764Y-35083988D01*
X-11079761Y-35083988D01*
X-11061132Y-35085823D01*
X-11042503Y-35083988D01*
X-6311004Y-35083988D01*
X-5948893Y-35446100D01*
X-11288115Y-35446100D01*
X-11786282Y-35397255D01*
X-12251158Y-35256901D01*
X-12679914Y-35028926D01*
X-13056229Y-34722012D01*
X-13365762Y-34347851D01*
X-13596725Y-33920694D01*
X-13740321Y-33456808D01*
X-13792588Y-32959526D01*
X-13792600Y-32955985D01*
X-13792600Y-29752374D01*
X-10386340Y-29752374D01*
X-10386340Y-29866506D01*
X-10364074Y-29978445D01*
X-10320397Y-30083889D01*
X-10256989Y-30178786D01*
X-10176286Y-30259489D01*
X-10081389Y-30322897D01*
X-9975945Y-30366574D01*
X-9864006Y-30388840D01*
X-9749874Y-30388840D01*
X-9637935Y-30366574D01*
X-9532491Y-30322897D01*
X-9437594Y-30259489D01*
X-9356891Y-30178786D01*
X-9293483Y-30083889D01*
X-9249806Y-29978445D01*
X-9227540Y-29866506D01*
X-9227540Y-29752374D01*
X-9249806Y-29640435D01*
X-9293483Y-29534991D01*
X-9356891Y-29440094D01*
X-9437594Y-29359391D01*
X-9532491Y-29295983D01*
X-9637935Y-29252306D01*
X-9749874Y-29230040D01*
X-9864006Y-29230040D01*
X-9975945Y-29252306D01*
X-10081389Y-29295983D01*
X-10176286Y-29359391D01*
X-10256989Y-29440094D01*
X-10320397Y-29534991D01*
X-10364074Y-29640435D01*
X-10386340Y-29752374D01*
X-13792600Y-29752374D01*
X-13792600Y-29262885D01*
X-13776262Y-29287337D01*
X-13695559Y-29368040D01*
X-13600662Y-29431448D01*
X-13495218Y-29475125D01*
X-13383279Y-29497391D01*
X-13269147Y-29497391D01*
X-13157208Y-29475125D01*
X-13051764Y-29431448D01*
X-12956867Y-29368040D01*
X-12876164Y-29287337D01*
X-12812756Y-29192440D01*
X-12769079Y-29086996D01*
X-12746813Y-28975057D01*
X-12746813Y-28860925D01*
X-12769079Y-28748986D01*
X-12812756Y-28643542D01*
X-12876164Y-28548645D01*
X-12956867Y-28467942D01*
X-12969480Y-28459514D01*
X-6761760Y-28459514D01*
X-6761760Y-28573646D01*
X-6739494Y-28685585D01*
X-6695817Y-28791029D01*
X-6632409Y-28885926D01*
X-6551706Y-28966629D01*
X-6456809Y-29030037D01*
X-6351365Y-29073714D01*
X-6239426Y-29095980D01*
X-6125294Y-29095980D01*
X-6013355Y-29073714D01*
X-5907911Y-29030037D01*
X-5813014Y-28966629D01*
X-5732311Y-28885926D01*
X-5668903Y-28791029D01*
X-5625226Y-28685585D01*
X-5602960Y-28573646D01*
X-5602960Y-28459514D01*
X-5625226Y-28347575D01*
X-5668903Y-28242131D01*
X-5732311Y-28147234D01*
X-5813014Y-28066531D01*
X-5907911Y-28003123D01*
X-6013355Y-27959446D01*
X-6125294Y-27937180D01*
X-6239426Y-27937180D01*
X-6351365Y-27959446D01*
X-6456809Y-28003123D01*
X-6551706Y-28066531D01*
X-6632409Y-28147234D01*
X-6695817Y-28242131D01*
X-6739494Y-28347575D01*
X-6761760Y-28459514D01*
X-12969480Y-28459514D01*
X-13051764Y-28404534D01*
X-13157208Y-28360857D01*
X-13269147Y-28338591D01*
X-13383279Y-28338591D01*
X-13495218Y-28360857D01*
X-13600662Y-28404534D01*
X-13695559Y-28467942D01*
X-13776262Y-28548645D01*
X-13792600Y-28573097D01*
X-13792600Y-26513874D01*
X-6235980Y-26513874D01*
X-6235980Y-26628006D01*
X-6213714Y-26739945D01*
X-6170037Y-26845389D01*
X-6106629Y-26940286D01*
X-6025926Y-27020989D01*
X-5931029Y-27084397D01*
X-5825585Y-27128074D01*
X-5713646Y-27150340D01*
X-5599514Y-27150340D01*
X-5487575Y-27128074D01*
X-5420620Y-27100340D01*
X-5397921Y-27100340D01*
X-5435091Y-27137510D01*
X-5498499Y-27232407D01*
X-5542176Y-27337851D01*
X-5564442Y-27449790D01*
X-5564442Y-27563922D01*
X-5542176Y-27675861D01*
X-5498499Y-27781305D01*
X-5435091Y-27876202D01*
X-5354388Y-27956905D01*
X-5259491Y-28020313D01*
X-5154047Y-28063990D01*
X-5042108Y-28086256D01*
X-4927976Y-28086256D01*
X-4816037Y-28063990D01*
X-4710593Y-28020313D01*
X-4615696Y-27956905D01*
X-4534993Y-27876202D01*
X-4471585Y-27781305D01*
X-4427908Y-27675861D01*
X-4421593Y-27644116D01*
X-4408542Y-27645401D01*
X-4408532Y-27645401D01*
X-4382539Y-27647961D01*
X-4356546Y-27645401D01*
X-1386215Y-27645401D01*
X-1367555Y-27690449D01*
X-1304147Y-27785346D01*
X-1223444Y-27866049D01*
X-1128547Y-27929457D01*
X-1023103Y-27973134D01*
X-911164Y-27995400D01*
X-797032Y-27995400D01*
X-685093Y-27973134D01*
X-579649Y-27929457D01*
X-484752Y-27866049D01*
X-404049Y-27785346D01*
X-340641Y-27690449D01*
X-296964Y-27585005D01*
X-274698Y-27473066D01*
X-274698Y-27358934D01*
X-296964Y-27246995D01*
X-340641Y-27141551D01*
X-404049Y-27046654D01*
X-484752Y-26965951D01*
X-579649Y-26902543D01*
X-615992Y-26887489D01*
X90247Y-26887489D01*
X531455Y-27328698D01*
X531461Y-27328703D01*
X646218Y-27443460D01*
X673953Y-27510417D01*
X737361Y-27605314D01*
X818064Y-27686017D01*
X912961Y-27749425D01*
X1018405Y-27793102D01*
X1130344Y-27815368D01*
X1244476Y-27815368D01*
X1356415Y-27793102D01*
X1461859Y-27749425D01*
X1556756Y-27686017D01*
X1637459Y-27605314D01*
X1700867Y-27510417D01*
X1744544Y-27404973D01*
X1766810Y-27293034D01*
X1766810Y-27178902D01*
X1744544Y-27066963D01*
X1700867Y-26961519D01*
X1637459Y-26866622D01*
X1556756Y-26785919D01*
X1461859Y-26722511D01*
X1394902Y-26694776D01*
X1280145Y-26580019D01*
X1280140Y-26580013D01*
X927218Y-26227091D01*
X958934Y-26233400D01*
X1073066Y-26233400D01*
X1185005Y-26211134D01*
X1290449Y-26167457D01*
X1385346Y-26104049D01*
X1466049Y-26023346D01*
X1529457Y-25928449D01*
X1573134Y-25823005D01*
X1595400Y-25711066D01*
X1595400Y-25596934D01*
X1592762Y-25583671D01*
X1654551Y-25624957D01*
X1759995Y-25668634D01*
X1871934Y-25690900D01*
X1986066Y-25690900D01*
X2098005Y-25668634D01*
X2203449Y-25624957D01*
X2214600Y-25617506D01*
X2214600Y-25711066D01*
X2236866Y-25823005D01*
X2280543Y-25928449D01*
X2343951Y-26023346D01*
X2424654Y-26104049D01*
X2519551Y-26167457D01*
X2624995Y-26211134D01*
X2736934Y-26233400D01*
X2851066Y-26233400D01*
X2963005Y-26211134D01*
X3068449Y-26167457D01*
X3163346Y-26104049D01*
X3244049Y-26023346D01*
X3307457Y-25928449D01*
X3351134Y-25823005D01*
X3373400Y-25711066D01*
X3373400Y-25623915D01*
X3431722Y-25635516D01*
X3545854Y-25635516D01*
X3657793Y-25613250D01*
X3763237Y-25569573D01*
X3858134Y-25506165D01*
X3938837Y-25425462D01*
X4002245Y-25330565D01*
X4045922Y-25225121D01*
X4068188Y-25113182D01*
X4068188Y-24999050D01*
X4045922Y-24887111D01*
X4002245Y-24781667D01*
X3938837Y-24686770D01*
X3858134Y-24606067D01*
X3820520Y-24580934D01*
X3992600Y-24580934D01*
X3992600Y-24695066D01*
X4014866Y-24807005D01*
X4058543Y-24912449D01*
X4121951Y-25007346D01*
X4202654Y-25088049D01*
X4289384Y-25146000D01*
X4202654Y-25203951D01*
X4121951Y-25284654D01*
X4058543Y-25379551D01*
X4014866Y-25484995D01*
X3992600Y-25596934D01*
X3992600Y-25711066D01*
X4014866Y-25823005D01*
X4058543Y-25928449D01*
X4121951Y-26023346D01*
X4202654Y-26104049D01*
X4297551Y-26167457D01*
X4402995Y-26211134D01*
X4514934Y-26233400D01*
X4629066Y-26233400D01*
X4741005Y-26211134D01*
X4846449Y-26167457D01*
X4941346Y-26104049D01*
X5022049Y-26023346D01*
X5085457Y-25928449D01*
X5129134Y-25823005D01*
X5151400Y-25711066D01*
X5151400Y-25596934D01*
X5129134Y-25484995D01*
X5085457Y-25379551D01*
X5022049Y-25284654D01*
X4941346Y-25203951D01*
X4854616Y-25146000D01*
X4941346Y-25088049D01*
X5022049Y-25007346D01*
X5085457Y-24912449D01*
X5129134Y-24807005D01*
X5151400Y-24695066D01*
X5151400Y-24580934D01*
X5129134Y-24468995D01*
X5085457Y-24363551D01*
X5022049Y-24268654D01*
X4941346Y-24187951D01*
X4846449Y-24124543D01*
X4741005Y-24080866D01*
X4629066Y-24058600D01*
X4514934Y-24058600D01*
X4402995Y-24080866D01*
X4297551Y-24124543D01*
X4202654Y-24187951D01*
X4121951Y-24268654D01*
X4058543Y-24363551D01*
X4014866Y-24468995D01*
X3992600Y-24580934D01*
X3820520Y-24580934D01*
X3763237Y-24542659D01*
X3657793Y-24498982D01*
X3545854Y-24476716D01*
X3431722Y-24476716D01*
X3355679Y-24491842D01*
X3351134Y-24468995D01*
X3307457Y-24363551D01*
X3244049Y-24268654D01*
X3163346Y-24187951D01*
X3068449Y-24124543D01*
X2963005Y-24080866D01*
X2851066Y-24058600D01*
X2736934Y-24058600D01*
X2624995Y-24080866D01*
X2519551Y-24124543D01*
X2424654Y-24187951D01*
X2343951Y-24268654D01*
X2280543Y-24363551D01*
X2236866Y-24468995D01*
X2214600Y-24580934D01*
X2214600Y-24605494D01*
X2203449Y-24598043D01*
X2098005Y-24554366D01*
X1986066Y-24532100D01*
X1871934Y-24532100D01*
X1759995Y-24554366D01*
X1654551Y-24598043D01*
X1595400Y-24637566D01*
X1595400Y-24580934D01*
X1573134Y-24468995D01*
X1529457Y-24363551D01*
X1466049Y-24268654D01*
X1385346Y-24187951D01*
X1290449Y-24124543D01*
X1185005Y-24080866D01*
X1073066Y-24058600D01*
X958934Y-24058600D01*
X846995Y-24080866D01*
X741551Y-24124543D01*
X646654Y-24187951D01*
X565951Y-24268654D01*
X502543Y-24363551D01*
X458866Y-24468995D01*
X436600Y-24580934D01*
X436600Y-24605494D01*
X425449Y-24598043D01*
X320005Y-24554366D01*
X208066Y-24532100D01*
X93934Y-24532100D01*
X-18005Y-24554366D01*
X-123449Y-24598043D01*
X-182600Y-24637566D01*
X-182600Y-24580934D01*
X-204866Y-24468995D01*
X-248543Y-24363551D01*
X-311951Y-24268654D01*
X-392654Y-24187951D01*
X-487551Y-24124543D01*
X-592995Y-24080866D01*
X-704934Y-24058600D01*
X-819066Y-24058600D01*
X-931005Y-24080866D01*
X-1036449Y-24124543D01*
X-1131346Y-24187951D01*
X-1212049Y-24268654D01*
X-1275457Y-24363551D01*
X-1319134Y-24468995D01*
X-1341400Y-24580934D01*
X-1341400Y-24605494D01*
X-1352551Y-24598043D01*
X-1457995Y-24554366D01*
X-1569934Y-24532100D01*
X-1684066Y-24532100D01*
X-1796005Y-24554366D01*
X-1901449Y-24598043D01*
X-1960600Y-24637566D01*
X-1960600Y-24580934D01*
X-1982866Y-24468995D01*
X-2026543Y-24363551D01*
X-2089951Y-24268654D01*
X-2170654Y-24187951D01*
X-2265551Y-24124543D01*
X-2370995Y-24080866D01*
X-2482934Y-24058600D01*
X-2597066Y-24058600D01*
X-2709005Y-24080866D01*
X-2814449Y-24124543D01*
X-2909346Y-24187951D01*
X-2990049Y-24268654D01*
X-3053457Y-24363551D01*
X-3097134Y-24468995D01*
X-3119400Y-24580934D01*
X-3119400Y-24695066D01*
X-3097134Y-24807005D01*
X-3053457Y-24912449D01*
X-2990049Y-25007346D01*
X-2909346Y-25088049D01*
X-2822616Y-25146000D01*
X-2909346Y-25203951D01*
X-2990049Y-25284654D01*
X-3053457Y-25379551D01*
X-3097134Y-25484995D01*
X-3119400Y-25596934D01*
X-3119400Y-25711066D01*
X-3097134Y-25823005D01*
X-3094780Y-25828689D01*
X-3981126Y-25828689D01*
X-4411808Y-25398007D01*
X-4439543Y-25331051D01*
X-4502951Y-25236154D01*
X-4583654Y-25155451D01*
X-4678551Y-25092043D01*
X-4783995Y-25048366D01*
X-4895934Y-25026100D01*
X-5010066Y-25026100D01*
X-5122005Y-25048366D01*
X-5227449Y-25092043D01*
X-5322346Y-25155451D01*
X-5403049Y-25236154D01*
X-5466457Y-25331051D01*
X-5510134Y-25436495D01*
X-5532400Y-25548434D01*
X-5532400Y-25662566D01*
X-5510134Y-25774505D01*
X-5466457Y-25879949D01*
X-5403049Y-25974846D01*
X-5336355Y-26041540D01*
X-5420620Y-26041540D01*
X-5487575Y-26013806D01*
X-5599514Y-25991540D01*
X-5713646Y-25991540D01*
X-5825585Y-26013806D01*
X-5931029Y-26057483D01*
X-6025926Y-26120891D01*
X-6106629Y-26201594D01*
X-6170037Y-26296491D01*
X-6213714Y-26401935D01*
X-6235980Y-26513874D01*
X-13792600Y-26513874D01*
X-13792600Y-23799914D01*
X-13785148Y-23803001D01*
X-13673209Y-23825267D01*
X-13559077Y-23825267D01*
X-13447138Y-23803001D01*
X-13341694Y-23759324D01*
X-13246797Y-23695916D01*
X-13166094Y-23615213D01*
X-13102686Y-23520316D01*
X-13074951Y-23453359D01*
X-12198192Y-22576600D01*
X-9041303Y-22576600D01*
X-9086640Y-22644452D01*
X-9130317Y-22749896D01*
X-9152583Y-22861835D01*
X-9152583Y-22975967D01*
X-9130317Y-23087906D01*
X-9086640Y-23193350D01*
X-9023232Y-23288247D01*
X-8942529Y-23368950D01*
X-8847632Y-23432358D01*
X-8742188Y-23476035D01*
X-8630249Y-23498301D01*
X-8516117Y-23498301D01*
X-8404178Y-23476035D01*
X-8298734Y-23432358D01*
X-8203837Y-23368950D01*
X-8123134Y-23288247D01*
X-8059726Y-23193350D01*
X-8016049Y-23087906D01*
X-7993783Y-22975967D01*
X-7993783Y-22861835D01*
X-8016049Y-22749896D01*
X-8059726Y-22644452D01*
X-8105063Y-22576600D01*
X-7754937Y-22576600D01*
X-7800274Y-22644452D01*
X-7843951Y-22749896D01*
X-7866217Y-22861835D01*
X-7866217Y-22975967D01*
X-7843951Y-23087906D01*
X-7800274Y-23193350D01*
X-7736866Y-23288247D01*
X-7656163Y-23368950D01*
X-7561266Y-23432358D01*
X-7455822Y-23476035D01*
X-7343883Y-23498301D01*
X-7229751Y-23498301D01*
X-7117812Y-23476035D01*
X-7012368Y-23432358D01*
X-6917471Y-23368950D01*
X-6836768Y-23288247D01*
X-6773360Y-23193350D01*
X-6729683Y-23087906D01*
X-6707417Y-22975967D01*
X-6707417Y-22861835D01*
X-6729683Y-22749896D01*
X-6773360Y-22644452D01*
X-6818697Y-22576600D01*
X9293267Y-22576600D01*
X9319260Y-22579160D01*
X9345253Y-22576600D01*
X9345263Y-22576600D01*
X9423040Y-22568940D01*
X9522833Y-22538668D01*
X9614802Y-22489509D01*
X9695413Y-22423353D01*
X9711990Y-22403155D01*
X10385960Y-21729185D01*
X10406153Y-21712613D01*
X10422725Y-21692420D01*
X10422729Y-21692416D01*
X10472309Y-21632003D01*
X10521468Y-21540033D01*
X10528989Y-21515240D01*
X10551740Y-21440240D01*
X10559400Y-21362463D01*
X10559400Y-21362454D01*
X10561960Y-21336461D01*
X10559400Y-21310468D01*
X10559400Y-19031960D01*
X10587134Y-18965005D01*
X10609400Y-18853066D01*
X10609400Y-18738934D01*
X10587134Y-18626995D01*
X10543457Y-18521551D01*
X10480049Y-18426654D01*
X10399346Y-18345951D01*
X10304449Y-18282543D01*
X10199005Y-18238866D01*
X10087066Y-18216600D01*
X9972934Y-18216600D01*
X9860995Y-18238866D01*
X9755551Y-18282543D01*
X9660654Y-18345951D01*
X9579951Y-18426654D01*
X9516543Y-18521551D01*
X9472866Y-18626995D01*
X9450600Y-18738934D01*
X9450600Y-18853066D01*
X9472866Y-18965005D01*
X9500600Y-19031960D01*
X9500601Y-21117174D01*
X9099976Y-21517800D01*
X-12391484Y-21517800D01*
X-12417477Y-21515240D01*
X-12443470Y-21517800D01*
X-12443479Y-21517800D01*
X-12521256Y-21525460D01*
X-12621049Y-21555732D01*
X-12680983Y-21587768D01*
X-12713019Y-21604891D01*
X-12746053Y-21632002D01*
X-12793629Y-21671047D01*
X-12810205Y-21691245D01*
X-13792600Y-22673640D01*
X-13792600Y-18805342D01*
X-11109400Y-18805342D01*
X-11109400Y-18919474D01*
X-11087134Y-19031413D01*
X-11043457Y-19136857D01*
X-10980049Y-19231754D01*
X-10899346Y-19312457D01*
X-10804449Y-19375865D01*
X-10699005Y-19419542D01*
X-10587066Y-19441808D01*
X-10472934Y-19441808D01*
X-10360995Y-19419542D01*
X-10255551Y-19375865D01*
X-10160654Y-19312457D01*
X-10079951Y-19231754D01*
X-10016543Y-19136857D01*
X-10003813Y-19106125D01*
X-9690360Y-18792672D01*
X-8510575Y-18792672D01*
X-8510575Y-18906804D01*
X-8488309Y-19018743D01*
X-8444632Y-19124187D01*
X-8381224Y-19219084D01*
X-8300521Y-19299787D01*
X-8205624Y-19363195D01*
X-8100180Y-19406872D01*
X-7988241Y-19429138D01*
X-7874109Y-19429138D01*
X-7762170Y-19406872D01*
X-7656726Y-19363195D01*
X-7561829Y-19299787D01*
X-7481126Y-19219084D01*
X-7417718Y-19124187D01*
X-7374041Y-19018743D01*
X-7351775Y-18906804D01*
X-7351775Y-18792672D01*
X-7374041Y-18680733D01*
X-7417718Y-18575289D01*
X-7481126Y-18480392D01*
X-7561829Y-18399689D01*
X-7656726Y-18336281D01*
X-7762170Y-18292604D01*
X-7874109Y-18270338D01*
X-7988241Y-18270338D01*
X-8100180Y-18292604D01*
X-8205624Y-18336281D01*
X-8300521Y-18399689D01*
X-8381224Y-18480392D01*
X-8444632Y-18575289D01*
X-8488309Y-18680733D01*
X-8510575Y-18792672D01*
X-9690360Y-18792672D01*
X-8734622Y-17836934D01*
X-5359400Y-17836934D01*
X-5359400Y-17951066D01*
X-5337134Y-18063005D01*
X-5293457Y-18168449D01*
X-5230049Y-18263346D01*
X-5149346Y-18344049D01*
X-5054449Y-18407457D01*
X-4949005Y-18451134D01*
X-4837066Y-18473400D01*
X-4722934Y-18473400D01*
X-4610995Y-18451134D01*
X-4505551Y-18407457D01*
X-4410654Y-18344049D01*
X-4329951Y-18263346D01*
X-4266543Y-18168449D01*
X-4222866Y-18063005D01*
X-4200600Y-17951066D01*
X-4200600Y-17836934D01*
X-4222866Y-17724995D01*
X-4266543Y-17619551D01*
X-4329951Y-17524654D01*
X-4410654Y-17443951D01*
X-4505551Y-17380543D01*
X-4610995Y-17336866D01*
X-4722934Y-17314600D01*
X-4837066Y-17314600D01*
X-4949005Y-17336866D01*
X-5054449Y-17380543D01*
X-5149346Y-17443951D01*
X-5230049Y-17524654D01*
X-5293457Y-17619551D01*
X-5337134Y-17724995D01*
X-5359400Y-17836934D01*
X-8734622Y-17836934D01*
X-7723727Y-16826040D01*
X4672569Y-16826040D01*
X4583654Y-16885451D01*
X4502951Y-16966154D01*
X4439543Y-17061051D01*
X4395866Y-17166495D01*
X4373600Y-17278434D01*
X4373600Y-17392566D01*
X4395866Y-17504505D01*
X4439543Y-17609949D01*
X4502951Y-17704846D01*
X4583654Y-17785549D01*
X4670384Y-17843500D01*
X4583654Y-17901451D01*
X4502951Y-17982154D01*
X4439543Y-18077051D01*
X4395866Y-18182495D01*
X4373600Y-18294434D01*
X4373600Y-18408566D01*
X4395866Y-18520505D01*
X4439543Y-18625949D01*
X4502951Y-18720846D01*
X4583654Y-18801549D01*
X4678551Y-18864957D01*
X4700382Y-18874000D01*
X4678551Y-18883043D01*
X4583654Y-18946451D01*
X4502951Y-19027154D01*
X4439543Y-19122051D01*
X4395866Y-19227495D01*
X4373600Y-19339434D01*
X4373600Y-19453566D01*
X4395866Y-19565505D01*
X4439543Y-19670949D01*
X4502951Y-19765846D01*
X4583654Y-19846549D01*
X4678551Y-19909957D01*
X4783672Y-19953500D01*
X4678551Y-19997043D01*
X4583654Y-20060451D01*
X4502951Y-20141154D01*
X4439543Y-20236051D01*
X4395866Y-20341495D01*
X4373600Y-20453434D01*
X4373600Y-20567566D01*
X4395866Y-20679505D01*
X4439543Y-20784949D01*
X4502951Y-20879846D01*
X4583654Y-20960549D01*
X4678551Y-21023957D01*
X4783995Y-21067634D01*
X4895934Y-21089900D01*
X5010066Y-21089900D01*
X5122005Y-21067634D01*
X5227449Y-21023957D01*
X5322346Y-20960549D01*
X5403049Y-20879846D01*
X5466457Y-20784949D01*
X5510134Y-20679505D01*
X5532400Y-20567566D01*
X5532400Y-20464200D01*
X5609495Y-20496134D01*
X5721434Y-20518400D01*
X5835566Y-20518400D01*
X5947505Y-20496134D01*
X6052949Y-20452457D01*
X6093712Y-20425220D01*
X6088100Y-20453434D01*
X6088100Y-20567566D01*
X6110366Y-20679505D01*
X6154043Y-20784949D01*
X6217451Y-20879846D01*
X6298154Y-20960549D01*
X6393051Y-21023957D01*
X6498495Y-21067634D01*
X6610434Y-21089900D01*
X6724566Y-21089900D01*
X6836505Y-21067634D01*
X6941949Y-21023957D01*
X7036846Y-20960549D01*
X7117549Y-20879846D01*
X7180957Y-20784949D01*
X7224634Y-20679505D01*
X7246900Y-20567566D01*
X7246900Y-20464200D01*
X7323995Y-20496134D01*
X7435934Y-20518400D01*
X7550066Y-20518400D01*
X7662005Y-20496134D01*
X7767449Y-20452457D01*
X7862346Y-20389049D01*
X7943049Y-20308346D01*
X8006457Y-20213449D01*
X8050134Y-20108005D01*
X8072400Y-19996066D01*
X8072400Y-19881934D01*
X8050134Y-19769995D01*
X8006457Y-19664551D01*
X7943049Y-19569654D01*
X7862346Y-19488951D01*
X7775616Y-19431000D01*
X7862346Y-19373049D01*
X7943049Y-19292346D01*
X8006457Y-19197449D01*
X8050134Y-19092005D01*
X8072400Y-18980066D01*
X8072400Y-18952570D01*
X8101235Y-18964514D01*
X8213174Y-18986780D01*
X8327306Y-18986780D01*
X8439245Y-18964514D01*
X8544689Y-18920837D01*
X8639586Y-18857429D01*
X8720289Y-18776726D01*
X8783697Y-18681829D01*
X8827374Y-18576385D01*
X8849640Y-18464446D01*
X8849640Y-18383400D01*
X8897066Y-18383400D01*
X9009005Y-18361134D01*
X9114449Y-18317457D01*
X9209346Y-18254049D01*
X9290049Y-18173346D01*
X9353457Y-18078449D01*
X9397134Y-17973005D01*
X9419400Y-17861066D01*
X9419400Y-17746934D01*
X9397134Y-17634995D01*
X9369400Y-17568040D01*
X9369400Y-17019993D01*
X9371960Y-16994000D01*
X9369400Y-16968007D01*
X9369400Y-16967997D01*
X9361740Y-16890220D01*
X9331468Y-16790427D01*
X9330228Y-16788108D01*
X9282309Y-16698457D01*
X9232729Y-16638044D01*
X9232725Y-16638040D01*
X9216153Y-16617847D01*
X9195960Y-16601275D01*
X8535370Y-15940685D01*
X8518793Y-15920487D01*
X8438182Y-15854331D01*
X8346213Y-15805172D01*
X8246420Y-15774900D01*
X8168643Y-15767240D01*
X8168633Y-15767240D01*
X8142640Y-15764680D01*
X8116647Y-15767240D01*
X-7917019Y-15767240D01*
X-7943012Y-15764680D01*
X-7969005Y-15767240D01*
X-7969015Y-15767240D01*
X-8046792Y-15774900D01*
X-8146585Y-15805172D01*
X-8238555Y-15854331D01*
X-8298968Y-15903911D01*
X-8298972Y-15903915D01*
X-8319165Y-15920487D01*
X-8335737Y-15940680D01*
X-10701267Y-18306211D01*
X-10804449Y-18348951D01*
X-10899346Y-18412359D01*
X-10980049Y-18493062D01*
X-11043457Y-18587959D01*
X-11087134Y-18693403D01*
X-11109400Y-18805342D01*
X-13792600Y-18805342D01*
X-13792600Y-17837651D01*
X-13766202Y-17864049D01*
X-13671305Y-17927457D01*
X-13565861Y-17971134D01*
X-13453922Y-17993400D01*
X-13339790Y-17993400D01*
X-13227851Y-17971134D01*
X-13122407Y-17927457D01*
X-13027510Y-17864049D01*
X-12946807Y-17783346D01*
X-12883399Y-17688449D01*
X-12839722Y-17583005D01*
X-12817456Y-17471066D01*
X-12817456Y-17371152D01*
X-12420079Y-16973776D01*
X-12405608Y-16961900D01*
X-12392970Y-16946501D01*
X-12358197Y-16904130D01*
X-12332584Y-16856210D01*
X-12322967Y-16838218D01*
X-12301272Y-16766701D01*
X-12295782Y-16710958D01*
X-12295782Y-16710956D01*
X-12293947Y-16692327D01*
X-12295782Y-16673698D01*
X-12295782Y-15051970D01*
X-11489246Y-14245434D01*
X-9469400Y-14245434D01*
X-9469400Y-14359566D01*
X-9447134Y-14471505D01*
X-9403457Y-14576949D01*
X-9340049Y-14671846D01*
X-9259346Y-14752549D01*
X-9164449Y-14815957D01*
X-9059005Y-14859634D01*
X-8947066Y-14881900D01*
X-8832934Y-14881900D01*
X-8720995Y-14859634D01*
X-8615551Y-14815957D01*
X-8520654Y-14752549D01*
X-8439951Y-14671846D01*
X-8376543Y-14576949D01*
X-8332866Y-14471505D01*
X-8310600Y-14359566D01*
X-8310600Y-14245434D01*
X-8332866Y-14133495D01*
X-8376543Y-14028051D01*
X-8439951Y-13933154D01*
X-8520654Y-13852451D01*
X-8615551Y-13789043D01*
X-8720995Y-13745366D01*
X-8832934Y-13723100D01*
X-8947066Y-13723100D01*
X-9059005Y-13745366D01*
X-9164449Y-13789043D01*
X-9259346Y-13852451D01*
X-9340049Y-13933154D01*
X-9403457Y-14028051D01*
X-9447134Y-14133495D01*
X-9469400Y-14245434D01*
X-11489246Y-14245434D01*
X-10809688Y-13565876D01*
X-10808033Y-13569873D01*
X-10744625Y-13664770D01*
X-10663922Y-13745473D01*
X-10569025Y-13808881D01*
X-10463581Y-13852558D01*
X-10351642Y-13874824D01*
X-10237510Y-13874824D01*
X-10125571Y-13852558D01*
X-10020127Y-13808881D01*
X-9925230Y-13745473D01*
X-9854581Y-13674824D01*
X-395210Y-13674824D01*
X-395210Y-13709566D01*
X-372944Y-13821505D01*
X-329267Y-13926949D01*
X-265859Y-14021846D01*
X-185156Y-14102549D01*
X-90259Y-14165957D01*
X15185Y-14209634D01*
X127124Y-14231900D01*
X241256Y-14231900D01*
X353195Y-14209634D01*
X458639Y-14165957D01*
X553536Y-14102549D01*
X634239Y-14021846D01*
X697647Y-13926949D01*
X741324Y-13821505D01*
X763590Y-13709566D01*
X763590Y-13595434D01*
X741324Y-13483495D01*
X697647Y-13378051D01*
X634239Y-13283154D01*
X553536Y-13202451D01*
X458639Y-13139043D01*
X353195Y-13095366D01*
X241256Y-13073100D01*
X141342Y-13073100D01*
X108568Y-13040326D01*
X96688Y-13025850D01*
X38917Y-12978439D01*
X-26994Y-12943209D01*
X-98511Y-12921514D01*
X-154254Y-12916024D01*
X-154257Y-12916024D01*
X-172886Y-12914189D01*
X-191515Y-12916024D01*
X-3534058Y-12916024D01*
X-3522866Y-12889005D01*
X-3500600Y-12777066D01*
X-3500600Y-12662934D01*
X-3522866Y-12550995D01*
X-3566543Y-12445551D01*
X-3629951Y-12350654D01*
X-3710654Y-12269951D01*
X-3805551Y-12206543D01*
X-3910995Y-12162866D01*
X-4022934Y-12140600D01*
X-4137066Y-12140600D01*
X-4249005Y-12162866D01*
X-4354449Y-12206543D01*
X-4449346Y-12269951D01*
X-4530049Y-12350654D01*
X-4593457Y-12445551D01*
X-4637134Y-12550995D01*
X-4659400Y-12662934D01*
X-4659400Y-12777066D01*
X-4637134Y-12889005D01*
X-4625942Y-12916024D01*
X-9854581Y-12916024D01*
X-9925230Y-12845375D01*
X-10020127Y-12781967D01*
X-10024124Y-12780312D01*
X-9340674Y-12096862D01*
X-9324168Y-12083316D01*
X-9312288Y-12068840D01*
X-8643860Y-11400412D01*
X-8543946Y-11400412D01*
X-8432007Y-11378146D01*
X-8326563Y-11334469D01*
X-8231666Y-11271061D01*
X-8150963Y-11190358D01*
X-8087555Y-11095461D01*
X-8043878Y-10990017D01*
X-8021612Y-10878078D01*
X-8021612Y-10763946D01*
X-8043878Y-10652007D01*
X-8087555Y-10546563D01*
X-8150963Y-10451666D01*
X-8231666Y-10370963D01*
X-8326563Y-10307555D01*
X-8432007Y-10263878D01*
X-8543946Y-10241612D01*
X-8658078Y-10241612D01*
X-8770017Y-10263878D01*
X-8875461Y-10307555D01*
X-8970358Y-10370963D01*
X-9051061Y-10451666D01*
X-9114469Y-10546563D01*
X-9158146Y-10652007D01*
X-9180412Y-10763946D01*
X-9180412Y-10863860D01*
X-9847174Y-11530622D01*
X-9863680Y-11544168D01*
X-9875560Y-11558644D01*
X-12295782Y-13978866D01*
X-12295782Y-13860186D01*
X-12301272Y-13804443D01*
X-12322967Y-13732926D01*
X-12358197Y-13667015D01*
X-12405608Y-13609244D01*
X-12463380Y-13561833D01*
X-12529291Y-13526603D01*
X-12600808Y-13504908D01*
X-12675182Y-13497583D01*
X-12749557Y-13504908D01*
X-12821074Y-13526603D01*
X-12886985Y-13561833D01*
X-12944756Y-13609244D01*
X-12992167Y-13667016D01*
X-13027397Y-13732927D01*
X-13049092Y-13804444D01*
X-13054582Y-13860187D01*
X-13054582Y-14876185D01*
X-13056417Y-14894818D01*
X-13054582Y-14913451D01*
X-13054581Y-16535172D01*
X-13354008Y-16834600D01*
X-13453922Y-16834600D01*
X-13565861Y-16856866D01*
X-13671305Y-16900543D01*
X-13766202Y-16963951D01*
X-13846905Y-17044654D01*
X-13902654Y-17128089D01*
X-13906627Y-17118256D01*
X-13908622Y-17114503D01*
X-14002933Y-16940080D01*
X-14018378Y-16917182D01*
X-14033468Y-16894122D01*
X-14036154Y-16890828D01*
X-14162548Y-16738044D01*
X-14182146Y-16718583D01*
X-14201427Y-16698893D01*
X-14204702Y-16696183D01*
X-14358364Y-16570859D01*
X-14381377Y-16555569D01*
X-14404108Y-16540005D01*
X-14407842Y-16537986D01*
X-14407846Y-16537983D01*
X-14407850Y-16537981D01*
X-14582924Y-16444892D01*
X-14608473Y-16434361D01*
X-14633792Y-16423510D01*
X-14637844Y-16422255D01*
X-14637850Y-16422253D01*
X-14637856Y-16422252D01*
X-14827678Y-16364942D01*
X-14854756Y-16359580D01*
X-14881727Y-16353847D01*
X-14885947Y-16353404D01*
X-14885955Y-16353402D01*
X-14885963Y-16353402D01*
X-15083295Y-16334053D01*
X-15083301Y-16334053D01*
X-15098054Y-16332600D01*
X-19670115Y-16332600D01*
X-20168282Y-16283755D01*
X-20633158Y-16143401D01*
X-21061914Y-15915426D01*
X-21438229Y-15608512D01*
X-21747762Y-15234351D01*
X-21978725Y-14807194D01*
X-22122321Y-14343308D01*
X-22174588Y-13846026D01*
X-22174600Y-13842513D01*
X-22174600Y-11812934D01*
X-12739400Y-11812934D01*
X-12739400Y-11927066D01*
X-12717134Y-12039005D01*
X-12673457Y-12144449D01*
X-12610049Y-12239346D01*
X-12529346Y-12320049D01*
X-12434449Y-12383457D01*
X-12329005Y-12427134D01*
X-12217066Y-12449400D01*
X-12102934Y-12449400D01*
X-11990995Y-12427134D01*
X-11885551Y-12383457D01*
X-11790654Y-12320049D01*
X-11709951Y-12239346D01*
X-11646543Y-12144449D01*
X-11602866Y-12039005D01*
X-11580600Y-11927066D01*
X-11580600Y-11812934D01*
X-11602866Y-11700995D01*
X-11646543Y-11595551D01*
X-11709951Y-11500654D01*
X-11790654Y-11419951D01*
X-11885551Y-11356543D01*
X-11990995Y-11312866D01*
X-12102934Y-11290600D01*
X-12217066Y-11290600D01*
X-12329005Y-11312866D01*
X-12434449Y-11356543D01*
X-12529346Y-11419951D01*
X-12610049Y-11500654D01*
X-12673457Y-11595551D01*
X-12717134Y-11700995D01*
X-12739400Y-11812934D01*
X-22174600Y-11812934D01*
X-22174600Y-8162934D01*
X-9949400Y-8162934D01*
X-9949400Y-8277066D01*
X-9927134Y-8389005D01*
X-9883457Y-8494449D01*
X-9820049Y-8589346D01*
X-9739346Y-8670049D01*
X-9644449Y-8733457D01*
X-9582746Y-8759016D01*
X-9580253Y-8762053D01*
X-9499642Y-8828209D01*
X-9407673Y-8877368D01*
X-9307880Y-8907640D01*
X-9230103Y-8915300D01*
X-9230094Y-8915300D01*
X-9204101Y-8917860D01*
X-9178108Y-8915300D01*
X-2455960Y-8915300D01*
X-2389005Y-8943034D01*
X-2277066Y-8965300D01*
X-2162934Y-8965300D01*
X-2050995Y-8943034D01*
X-1945551Y-8899357D01*
X-1850654Y-8835949D01*
X-1847639Y-8832934D01*
X690600Y-8832934D01*
X690600Y-8947066D01*
X712866Y-9059005D01*
X756543Y-9164449D01*
X819951Y-9259346D01*
X900654Y-9340049D01*
X995551Y-9403457D01*
X1100995Y-9447134D01*
X1212934Y-9469400D01*
X1327066Y-9469400D01*
X1439005Y-9447134D01*
X1544449Y-9403457D01*
X1639346Y-9340049D01*
X1720049Y-9259346D01*
X1783457Y-9164449D01*
X1827134Y-9059005D01*
X1849400Y-8947066D01*
X1849400Y-8832934D01*
X1827134Y-8720995D01*
X1783457Y-8615551D01*
X1720049Y-8520654D01*
X1639346Y-8439951D01*
X1544449Y-8376543D01*
X1439005Y-8332866D01*
X1327066Y-8310600D01*
X1212934Y-8310600D01*
X1100995Y-8332866D01*
X995551Y-8376543D01*
X900654Y-8439951D01*
X819951Y-8520654D01*
X756543Y-8615551D01*
X712866Y-8720995D01*
X690600Y-8832934D01*
X-1847639Y-8832934D01*
X-1769951Y-8755246D01*
X-1706543Y-8660349D01*
X-1662866Y-8554905D01*
X-1640600Y-8442966D01*
X-1640600Y-8328834D01*
X-1662866Y-8216895D01*
X-1664521Y-8212900D01*
X282503Y-8212900D01*
X299051Y-8223957D01*
X404495Y-8267634D01*
X516434Y-8289900D01*
X630566Y-8289900D01*
X742505Y-8267634D01*
X847949Y-8223957D01*
X942846Y-8160549D01*
X1023549Y-8079846D01*
X1086957Y-7984949D01*
X1130634Y-7879505D01*
X1152900Y-7767566D01*
X1152900Y-7653434D01*
X1130634Y-7541495D01*
X1086957Y-7436051D01*
X1023549Y-7341154D01*
X942846Y-7260451D01*
X847949Y-7197043D01*
X742505Y-7153366D01*
X630566Y-7131100D01*
X516434Y-7131100D01*
X404495Y-7153366D01*
X402723Y-7154100D01*
X-8135640Y-7154100D01*
X-8202595Y-7126366D01*
X-8314534Y-7104100D01*
X-8428666Y-7104100D01*
X-8540605Y-7126366D01*
X-8646049Y-7170043D01*
X-8740946Y-7233451D01*
X-8821649Y-7314154D01*
X-8885057Y-7409051D01*
X-8928734Y-7514495D01*
X-8951000Y-7626434D01*
X-8951000Y-7740566D01*
X-8931374Y-7839231D01*
X-9000654Y-7769951D01*
X-9095551Y-7706543D01*
X-9200995Y-7662866D01*
X-9312934Y-7640600D01*
X-9427066Y-7640600D01*
X-9539005Y-7662866D01*
X-9644449Y-7706543D01*
X-9739346Y-7769951D01*
X-9820049Y-7850654D01*
X-9883457Y-7945551D01*
X-9927134Y-8050995D01*
X-9949400Y-8162934D01*
X-22174600Y-8162934D01*
X-22174600Y-4895934D01*
X2468600Y-4895934D01*
X2468600Y-5010066D01*
X2490866Y-5122005D01*
X2534543Y-5227449D01*
X2597951Y-5322346D01*
X2678654Y-5403049D01*
X2773551Y-5466457D01*
X2878995Y-5510134D01*
X2886132Y-5511554D01*
X2871866Y-5545995D01*
X2849600Y-5657934D01*
X2849600Y-5772066D01*
X2871866Y-5884005D01*
X2886132Y-5918446D01*
X2878995Y-5919866D01*
X2773551Y-5963543D01*
X2678654Y-6026951D01*
X2597951Y-6107654D01*
X2534543Y-6202551D01*
X2490866Y-6307995D01*
X2468600Y-6419934D01*
X2468600Y-6534066D01*
X2490866Y-6646005D01*
X2534543Y-6751449D01*
X2597951Y-6846346D01*
X2678654Y-6927049D01*
X2773551Y-6990457D01*
X2878995Y-7034134D01*
X2886132Y-7035554D01*
X2871866Y-7069995D01*
X2849600Y-7181934D01*
X2849600Y-7296066D01*
X2871866Y-7408005D01*
X2886132Y-7442446D01*
X2878995Y-7443866D01*
X2773551Y-7487543D01*
X2678654Y-7550951D01*
X2597951Y-7631654D01*
X2534543Y-7726551D01*
X2490866Y-7831995D01*
X2468600Y-7943934D01*
X2468600Y-8058066D01*
X2490866Y-8170005D01*
X2534543Y-8275449D01*
X2597951Y-8370346D01*
X2678654Y-8451049D01*
X2773551Y-8514457D01*
X2878995Y-8558134D01*
X2990934Y-8580400D01*
X3105066Y-8580400D01*
X3217005Y-8558134D01*
X3322449Y-8514457D01*
X3417346Y-8451049D01*
X3492500Y-8375895D01*
X3567654Y-8451049D01*
X3662551Y-8514457D01*
X3767995Y-8558134D01*
X3879934Y-8580400D01*
X3994066Y-8580400D01*
X4106005Y-8558134D01*
X4211449Y-8514457D01*
X4306346Y-8451049D01*
X4387049Y-8370346D01*
X4450457Y-8275449D01*
X4494134Y-8170005D01*
X4516400Y-8058066D01*
X4516400Y-7943934D01*
X4494134Y-7831995D01*
X4450457Y-7726551D01*
X4387049Y-7631654D01*
X4306346Y-7550951D01*
X4211449Y-7487543D01*
X4106005Y-7443866D01*
X3994066Y-7421600D01*
X3980503Y-7421600D01*
X3986134Y-7408005D01*
X4008400Y-7296066D01*
X4008400Y-7181934D01*
X3986134Y-7069995D01*
X3980503Y-7056400D01*
X3994066Y-7056400D01*
X4106005Y-7034134D01*
X4211449Y-6990457D01*
X4306346Y-6927049D01*
X4387049Y-6846346D01*
X4450457Y-6751449D01*
X4494134Y-6646005D01*
X4516400Y-6534066D01*
X4516400Y-6419934D01*
X4494134Y-6307995D01*
X4450457Y-6202551D01*
X4387049Y-6107654D01*
X4306346Y-6026951D01*
X4211449Y-5963543D01*
X4106005Y-5919866D01*
X3994066Y-5897600D01*
X3980503Y-5897600D01*
X3986134Y-5884005D01*
X4008400Y-5772066D01*
X4008400Y-5657934D01*
X3986134Y-5545995D01*
X3980503Y-5532400D01*
X3994066Y-5532400D01*
X4106005Y-5510134D01*
X4211449Y-5466457D01*
X4306346Y-5403049D01*
X4387049Y-5322346D01*
X4450457Y-5227449D01*
X4494134Y-5122005D01*
X4516400Y-5010066D01*
X4516400Y-4895934D01*
X4494134Y-4783995D01*
X4450457Y-4678551D01*
X4387049Y-4583654D01*
X4306346Y-4502951D01*
X4211449Y-4439543D01*
X4106005Y-4395866D01*
X3994066Y-4373600D01*
X3879934Y-4373600D01*
X3767995Y-4395866D01*
X3662551Y-4439543D01*
X3567654Y-4502951D01*
X3492500Y-4578105D01*
X3417346Y-4502951D01*
X3322449Y-4439543D01*
X3217005Y-4395866D01*
X3105066Y-4373600D01*
X2990934Y-4373600D01*
X2878995Y-4395866D01*
X2773551Y-4439543D01*
X2678654Y-4502951D01*
X2597951Y-4583654D01*
X2534543Y-4678551D01*
X2490866Y-4783995D01*
X2468600Y-4895934D01*
X-22174600Y-4895934D01*
X-22174600Y-3782934D01*
X-10619400Y-3782934D01*
X-10619400Y-3897066D01*
X-10597134Y-4009005D01*
X-10553457Y-4114449D01*
X-10490049Y-4209346D01*
X-10409346Y-4290049D01*
X-10314449Y-4353457D01*
X-10209005Y-4397134D01*
X-10097066Y-4419400D01*
X-9982934Y-4419400D01*
X-9870995Y-4397134D01*
X-9765551Y-4353457D01*
X-9670654Y-4290049D01*
X-9589951Y-4209346D01*
X-9526543Y-4114449D01*
X-9505205Y-4062934D01*
X-7929400Y-4062934D01*
X-7929400Y-4177066D01*
X-7907134Y-4289005D01*
X-7863457Y-4394449D01*
X-7800049Y-4489346D01*
X-7719346Y-4570049D01*
X-7624449Y-4633457D01*
X-7519005Y-4677134D01*
X-7407066Y-4699400D01*
X-7292934Y-4699400D01*
X-7180995Y-4677134D01*
X-7075551Y-4633457D01*
X-6980654Y-4570049D01*
X-6899951Y-4489346D01*
X-6836543Y-4394449D01*
X-6792866Y-4289005D01*
X-6770600Y-4177066D01*
X-6770600Y-4062934D01*
X-6792866Y-3950995D01*
X-6836543Y-3845551D01*
X-6899951Y-3750654D01*
X-6980654Y-3669951D01*
X-7075551Y-3606543D01*
X-7180995Y-3562866D01*
X-7292934Y-3540600D01*
X-7407066Y-3540600D01*
X-7519005Y-3562866D01*
X-7624449Y-3606543D01*
X-7719346Y-3669951D01*
X-7800049Y-3750654D01*
X-7863457Y-3845551D01*
X-7907134Y-3950995D01*
X-7929400Y-4062934D01*
X-9505205Y-4062934D01*
X-9482866Y-4009005D01*
X-9460600Y-3897066D01*
X-9460600Y-3782934D01*
X-9482866Y-3670995D01*
X-9526543Y-3565551D01*
X-9589951Y-3470654D01*
X-9670654Y-3389951D01*
X-9765551Y-3326543D01*
X-9870995Y-3282866D01*
X-9982934Y-3260600D01*
X-10097066Y-3260600D01*
X-10209005Y-3282866D01*
X-10314449Y-3326543D01*
X-10409346Y-3389951D01*
X-10490049Y-3470654D01*
X-10553457Y-3565551D01*
X-10597134Y-3670995D01*
X-10619400Y-3782934D01*
X-22174600Y-3782934D01*
X-22174600Y-3189534D01*
X9529800Y-3189534D01*
X9529800Y-3303666D01*
X9552066Y-3415605D01*
X9595743Y-3521049D01*
X9659151Y-3615946D01*
X9739854Y-3696649D01*
X9834751Y-3760057D01*
X9940195Y-3803734D01*
X10052134Y-3826000D01*
X10166266Y-3826000D01*
X10278205Y-3803734D01*
X10383649Y-3760057D01*
X10478546Y-3696649D01*
X10559249Y-3615946D01*
X10622657Y-3521049D01*
X10666334Y-3415605D01*
X10688600Y-3303666D01*
X10688600Y-3189534D01*
X10666334Y-3077595D01*
X10622657Y-2972151D01*
X10559249Y-2877254D01*
X10478546Y-2796551D01*
X10383649Y-2733143D01*
X10278205Y-2689466D01*
X10166266Y-2667200D01*
X10052134Y-2667200D01*
X9940195Y-2689466D01*
X9834751Y-2733143D01*
X9739854Y-2796551D01*
X9659151Y-2877254D01*
X9595743Y-2972151D01*
X9552066Y-3077595D01*
X9529800Y-3189534D01*
X-22174600Y-3189534D01*
X-22174600Y-2542934D01*
X-9669400Y-2542934D01*
X-9669400Y-2657066D01*
X-9647134Y-2769005D01*
X-9603457Y-2874449D01*
X-9540049Y-2969346D01*
X-9459346Y-3050049D01*
X-9364449Y-3113457D01*
X-9259005Y-3157134D01*
X-9147066Y-3179400D01*
X-9032934Y-3179400D01*
X-8920995Y-3157134D01*
X-8815551Y-3113457D01*
X-8720654Y-3050049D01*
X-8639951Y-2969346D01*
X-8576543Y-2874449D01*
X-8532866Y-2769005D01*
X-8510600Y-2657066D01*
X-8510600Y-2542934D01*
X-8532866Y-2430995D01*
X-8576543Y-2325551D01*
X-8639951Y-2230654D01*
X-8720654Y-2149951D01*
X-8815551Y-2086543D01*
X-8920995Y-2042866D01*
X-9032934Y-2020600D01*
X-9147066Y-2020600D01*
X-9259005Y-2042866D01*
X-9364449Y-2086543D01*
X-9459346Y-2149951D01*
X-9540049Y-2230654D01*
X-9603457Y-2325551D01*
X-9647134Y-2430995D01*
X-9669400Y-2542934D01*
X-22174600Y-2542934D01*
X-22174600Y-971634D01*
X1869400Y-971634D01*
X1869400Y-1085766D01*
X1891666Y-1197705D01*
X1935343Y-1303149D01*
X1998751Y-1398046D01*
X2079454Y-1478749D01*
X2174351Y-1542157D01*
X2279795Y-1585834D01*
X2391734Y-1608100D01*
X2505866Y-1608100D01*
X2617805Y-1585834D01*
X2723249Y-1542157D01*
X2818146Y-1478749D01*
X2898849Y-1398046D01*
X2962257Y-1303149D01*
X3005934Y-1197705D01*
X3028200Y-1085766D01*
X3028200Y-971634D01*
X3005934Y-859695D01*
X2962257Y-754251D01*
X2898849Y-659354D01*
X2818146Y-578651D01*
X2723249Y-515243D01*
X2617805Y-471566D01*
X2505866Y-449300D01*
X2391734Y-449300D01*
X2279795Y-471566D01*
X2174351Y-515243D01*
X2079454Y-578651D01*
X1998751Y-659354D01*
X1935343Y-754251D01*
X1891666Y-859695D01*
X1869400Y-971634D01*
X-22174600Y-971634D01*
X-22174600Y457066D01*
X-7169400Y457066D01*
X-7169400Y342934D01*
X-7147134Y230995D01*
X-7103457Y125551D01*
X-7040049Y30654D01*
X-6959346Y-50049D01*
X-6864449Y-113457D01*
X-6759005Y-157134D01*
X-6647066Y-179400D01*
X-6532934Y-179400D01*
X-6420995Y-157134D01*
X-6315551Y-113457D01*
X-6220654Y-50049D01*
X-6139951Y30654D01*
X-6076543Y125551D01*
X-6032866Y230995D01*
X-6010600Y342934D01*
X-6010600Y457066D01*
X-6032866Y569005D01*
X-6076543Y674449D01*
X-6139951Y769346D01*
X-6220654Y850049D01*
X-6315551Y913457D01*
X-6420995Y957134D01*
X-6532934Y979400D01*
X-6647066Y979400D01*
X-6759005Y957134D01*
X-6864449Y913457D01*
X-6959346Y850049D01*
X-7040049Y769346D01*
X-7103457Y674449D01*
X-7147134Y569005D01*
X-7169400Y457066D01*
X-22174600Y457066D01*
X-22174600Y4819523D01*
X-14333636Y4819523D01*
X-14331800Y4800884D01*
X-14331801Y4223477D01*
X-14333636Y4204847D01*
X-14331801Y4186218D01*
X-14331801Y4186216D01*
X-14326311Y4130473D01*
X-14304616Y4058956D01*
X-14304615Y4058955D01*
X-14269386Y3993044D01*
X-14252151Y3972043D01*
X-14221975Y3935273D01*
X-14207499Y3923393D01*
X-13946603Y3662496D01*
X-13934727Y3648025D01*
X-13920256Y3636149D01*
X-13920255Y3636148D01*
X-13876957Y3600614D01*
X-13845712Y3583914D01*
X-13811045Y3565384D01*
X-13739528Y3543689D01*
X-13683785Y3538199D01*
X-13683783Y3538199D01*
X-13665154Y3536364D01*
X-13646525Y3538199D01*
X-13265913Y3538199D01*
X-13226588Y3498874D01*
X-13160065Y3454425D01*
X-13193457Y3404449D01*
X-13237134Y3299005D01*
X-13259400Y3187066D01*
X-13259400Y3072934D01*
X-13237134Y2960995D01*
X-13193457Y2855551D01*
X-13130049Y2760654D01*
X-13049346Y2679951D01*
X-12954449Y2616543D01*
X-12849005Y2572866D01*
X-12737066Y2550600D01*
X-12622934Y2550600D01*
X-12510995Y2572866D01*
X-12405551Y2616543D01*
X-12310654Y2679951D01*
X-12229951Y2760654D01*
X-12166543Y2855551D01*
X-12122866Y2960995D01*
X-12100600Y3072934D01*
X-12100600Y3105066D01*
X-11374400Y3105066D01*
X-11374400Y2990934D01*
X-11352134Y2878995D01*
X-11308457Y2773551D01*
X-11245049Y2678654D01*
X-11164346Y2597951D01*
X-11069449Y2534543D01*
X-10964005Y2490866D01*
X-10852066Y2468600D01*
X-10737934Y2468600D01*
X-10625995Y2490866D01*
X-10520551Y2534543D01*
X-10425654Y2597951D01*
X-10414000Y2609605D01*
X-10402346Y2597951D01*
X-10307449Y2534543D01*
X-10202005Y2490866D01*
X-10090066Y2468600D01*
X-9975934Y2468600D01*
X-9863995Y2490866D01*
X-9758551Y2534543D01*
X-9663654Y2597951D01*
X-9623890Y2637715D01*
X-9534340Y2577879D01*
X-9428896Y2534202D01*
X-9316957Y2511936D01*
X-9202825Y2511936D01*
X-9090886Y2534202D01*
X-8985442Y2577879D01*
X-8890545Y2641287D01*
X-8840512Y2691320D01*
X-8832049Y2678654D01*
X-8751346Y2597951D01*
X-8656449Y2534543D01*
X-8551005Y2490866D01*
X-8439066Y2468600D01*
X-8324934Y2468600D01*
X-8212995Y2490866D01*
X-8107551Y2534543D01*
X-8012654Y2597951D01*
X-7931951Y2678654D01*
X-7868543Y2773551D01*
X-7824866Y2878995D01*
X-7807362Y2966992D01*
X-7788549Y2872410D01*
X-7744872Y2766966D01*
X-7681464Y2672069D01*
X-7600761Y2591366D01*
X-7505864Y2527958D01*
X-7400420Y2484281D01*
X-7288481Y2462015D01*
X-7174349Y2462015D01*
X-7062410Y2484281D01*
X-6956966Y2527958D01*
X-6862069Y2591366D01*
X-6781366Y2672069D01*
X-6717958Y2766966D01*
X-6674281Y2872410D01*
X-6652015Y2984349D01*
X-6652015Y3098481D01*
X-6674281Y3210420D01*
X-6717958Y3315864D01*
X-6781366Y3410761D01*
X-6862069Y3491464D01*
X-6956966Y3554872D01*
X-7062410Y3598549D01*
X-7174349Y3620815D01*
X-7288481Y3620815D01*
X-7400420Y3598549D01*
X-7505864Y3554872D01*
X-7600761Y3491464D01*
X-7681464Y3410761D01*
X-7744872Y3315864D01*
X-7788549Y3210420D01*
X-7806053Y3122423D01*
X-7824866Y3217005D01*
X-7868543Y3322449D01*
X-7931951Y3417346D01*
X-8012654Y3498049D01*
X-8107551Y3561457D01*
X-8212995Y3605134D01*
X-8324934Y3627400D01*
X-8439066Y3627400D01*
X-8551005Y3605134D01*
X-8656449Y3561457D01*
X-8751346Y3498049D01*
X-8801379Y3448016D01*
X-8809842Y3460682D01*
X-8890545Y3541385D01*
X-8985442Y3604793D01*
X-9090886Y3648470D01*
X-9202825Y3670736D01*
X-9316957Y3670736D01*
X-9428896Y3648470D01*
X-9534340Y3604793D01*
X-9629237Y3541385D01*
X-9669001Y3501621D01*
X-9758551Y3561457D01*
X-9863995Y3605134D01*
X-9975934Y3627400D01*
X-10090066Y3627400D01*
X-10202005Y3605134D01*
X-10307449Y3561457D01*
X-10402346Y3498049D01*
X-10414000Y3486395D01*
X-10425654Y3498049D01*
X-10520551Y3561457D01*
X-10625995Y3605134D01*
X-10737934Y3627400D01*
X-10852066Y3627400D01*
X-10964005Y3605134D01*
X-11069449Y3561457D01*
X-11164346Y3498049D01*
X-11245049Y3417346D01*
X-11308457Y3322449D01*
X-11352134Y3217005D01*
X-11374400Y3105066D01*
X-12100600Y3105066D01*
X-12100600Y3172847D01*
X-12049737Y3223710D01*
X-12035267Y3235585D01*
X-12014950Y3260341D01*
X-11987856Y3293355D01*
X-11961961Y3341803D01*
X-11952626Y3359267D01*
X-11930931Y3430784D01*
X-11925441Y3486527D01*
X-11925441Y3486530D01*
X-11923606Y3505159D01*
X-11925441Y3523788D01*
X-11925441Y3675924D01*
X-11853106Y3627591D01*
X-11747662Y3583914D01*
X-11635723Y3561648D01*
X-11521591Y3561648D01*
X-11409652Y3583914D01*
X-11304208Y3627591D01*
X-11209311Y3690999D01*
X-11128608Y3771702D01*
X-11065200Y3866599D01*
X-11021523Y3972043D01*
X-10999257Y4083982D01*
X-10999257Y4198114D01*
X-11021523Y4310053D01*
X-11057041Y4395800D01*
X-5283467Y4395800D01*
X-6000974Y3678293D01*
X-6100888Y3678293D01*
X-6212827Y3656027D01*
X-6318271Y3612350D01*
X-6413168Y3548942D01*
X-6493871Y3468239D01*
X-6557279Y3373342D01*
X-6600956Y3267898D01*
X-6623222Y3155959D01*
X-6623222Y3041827D01*
X-6600956Y2929888D01*
X-6557279Y2824444D01*
X-6493871Y2729547D01*
X-6413168Y2648844D01*
X-6318271Y2585436D01*
X-6212827Y2541759D01*
X-6100888Y2519493D01*
X-5986756Y2519493D01*
X-5874817Y2541759D01*
X-5769373Y2585436D01*
X-5674476Y2648844D01*
X-5593773Y2729547D01*
X-5530365Y2824444D01*
X-5486688Y2929888D01*
X-5464422Y3041827D01*
X-5464422Y3141741D01*
X-4567248Y4038915D01*
X-2763114Y4038915D01*
X-2744485Y4037080D01*
X-2725856Y4038915D01*
X-2725853Y4038915D01*
X-2680416Y4043390D01*
X944600Y4043390D01*
X944600Y3956134D01*
X966866Y3844195D01*
X1010543Y3738751D01*
X1073951Y3643854D01*
X1154654Y3563151D01*
X1249551Y3499743D01*
X1354995Y3456066D01*
X1466934Y3433800D01*
X1581066Y3433800D01*
X1693005Y3456066D01*
X1798449Y3499743D01*
X1893346Y3563151D01*
X1974049Y3643854D01*
X2037457Y3738751D01*
X2081134Y3844195D01*
X2103400Y3956134D01*
X2103400Y4070266D01*
X2092504Y4125044D01*
X7548600Y-1331053D01*
X7548600Y-1430966D01*
X7570866Y-1542905D01*
X7614543Y-1648349D01*
X7677951Y-1743246D01*
X7758654Y-1823949D01*
X7853551Y-1887357D01*
X7958995Y-1931034D01*
X8070934Y-1953300D01*
X8185066Y-1953300D01*
X8297005Y-1931034D01*
X8402449Y-1887357D01*
X8497346Y-1823949D01*
X8578049Y-1743246D01*
X8641457Y-1648349D01*
X8685134Y-1542905D01*
X8707400Y-1430966D01*
X8707400Y-1316834D01*
X8685134Y-1204895D01*
X8641457Y-1099451D01*
X8578049Y-1004554D01*
X8497346Y-923851D01*
X8402449Y-860443D01*
X8297005Y-816766D01*
X8185066Y-794500D01*
X8085153Y-794500D01*
X2260354Y5030298D01*
X2248474Y5044774D01*
X2190703Y5092185D01*
X2124792Y5127415D01*
X2053275Y5149110D01*
X1997532Y5154600D01*
X1997529Y5154600D01*
X1978900Y5156435D01*
X1960271Y5154600D01*
X-3269392Y5154600D01*
X-3248043Y5186551D01*
X-3204366Y5291995D01*
X-3182100Y5403934D01*
X-3182100Y5468999D01*
X2389770Y5468999D01*
X2408399Y5467164D01*
X2427028Y5468999D01*
X2427031Y5468999D01*
X2482774Y5474489D01*
X2554291Y5496184D01*
X2620202Y5531414D01*
X2677973Y5578825D01*
X2689853Y5593301D01*
X3544818Y6448265D01*
X3633805Y6465966D01*
X3739249Y6509643D01*
X3834146Y6573051D01*
X3914849Y6653754D01*
X3978257Y6748651D01*
X4021934Y6854095D01*
X4044200Y6966034D01*
X4044200Y7080166D01*
X4021934Y7192105D01*
X3978257Y7297549D01*
X3914849Y7392446D01*
X3834146Y7473149D01*
X3739249Y7536557D01*
X3633805Y7580234D01*
X3521866Y7602500D01*
X3407734Y7602500D01*
X3295795Y7580234D01*
X3190351Y7536557D01*
X3095454Y7473149D01*
X3014751Y7392446D01*
X2951343Y7297549D01*
X2907666Y7192105D01*
X2885400Y7080166D01*
X2885400Y6966034D01*
X2902668Y6879221D01*
X2251247Y6227799D01*
X-2055612Y6227799D01*
X-2012866Y6330995D01*
X-1990600Y6442934D01*
X-1990600Y6557066D01*
X-2012866Y6669005D01*
X-2056543Y6774449D01*
X-2119951Y6869346D01*
X-2200654Y6950049D01*
X-2295551Y7013457D01*
X-2400995Y7057134D01*
X-2512934Y7079400D01*
X-2627066Y7079400D01*
X-2739005Y7057134D01*
X-2844449Y7013457D01*
X-2939346Y6950049D01*
X-3020049Y6869346D01*
X-3083457Y6774449D01*
X-3127134Y6669005D01*
X-3149400Y6557066D01*
X-3149400Y6442934D01*
X-3127134Y6330995D01*
X-3084388Y6227799D01*
X-3174193Y6227799D01*
X-3350886Y6404492D01*
X-3362766Y6418968D01*
X-3420537Y6466379D01*
X-3486448Y6501609D01*
X-3557965Y6523304D01*
X-3613708Y6528794D01*
X-3613711Y6528794D01*
X-3632340Y6530629D01*
X-3650969Y6528794D01*
X-6149399Y6528794D01*
X-6220048Y6599443D01*
X-6314945Y6662851D01*
X-6420389Y6706528D01*
X-6532328Y6728794D01*
X-6646460Y6728794D01*
X-6758399Y6706528D01*
X-6762395Y6704873D01*
X-6762395Y8017066D01*
X-6139400Y8017066D01*
X-6139400Y7902934D01*
X-6117134Y7790995D01*
X-6073457Y7685551D01*
X-6010049Y7590654D01*
X-5929346Y7509951D01*
X-5834449Y7446543D01*
X-5729005Y7402866D01*
X-5617066Y7380600D01*
X-5502934Y7380600D01*
X-5390995Y7402866D01*
X-5285551Y7446543D01*
X-5190654Y7509951D01*
X-5109951Y7590654D01*
X-5046543Y7685551D01*
X-5002866Y7790995D01*
X-4980600Y7902934D01*
X-4980600Y8017066D01*
X-5002866Y8129005D01*
X-5046543Y8234449D01*
X-5109951Y8329346D01*
X-5190654Y8410049D01*
X-5285551Y8473457D01*
X-5390995Y8517134D01*
X-5502934Y8539400D01*
X-5617066Y8539400D01*
X-5729005Y8517134D01*
X-5834449Y8473457D01*
X-5929346Y8410049D01*
X-6010049Y8329346D01*
X-6073457Y8234449D01*
X-6117134Y8129005D01*
X-6139400Y8017066D01*
X-6762395Y8017066D01*
X-6762395Y8204521D01*
X-6758400Y8202866D01*
X-6646461Y8180600D01*
X-6532329Y8180600D01*
X-6420390Y8202866D01*
X-6314946Y8246543D01*
X-6220049Y8309951D01*
X-6139346Y8390654D01*
X-6075938Y8485551D01*
X-6032261Y8590995D01*
X-6009995Y8702934D01*
X-6009995Y8817066D01*
X-6032261Y8929005D01*
X-6075938Y9034449D01*
X-6139346Y9129346D01*
X-6220049Y9210049D01*
X-6314946Y9273457D01*
X-6325621Y9277879D01*
X-5986437Y9617063D01*
X-3221000Y9617063D01*
X-3221000Y9502931D01*
X-3198734Y9390992D01*
X-3155057Y9285548D01*
X-3091649Y9190651D01*
X-3084794Y9183796D01*
X-3091649Y9176940D01*
X-3155057Y9082043D01*
X-3198734Y8976599D01*
X-3221000Y8864660D01*
X-3221000Y8750528D01*
X-3198734Y8638589D01*
X-3155057Y8533145D01*
X-3091649Y8438248D01*
X-3044998Y8391597D01*
X-3091649Y8344946D01*
X-3155057Y8250049D01*
X-3198734Y8144605D01*
X-3221000Y8032666D01*
X-3221000Y7918534D01*
X-3198734Y7806595D01*
X-3155057Y7701151D01*
X-3091649Y7606254D01*
X-3010946Y7525551D01*
X-2916049Y7462143D01*
X-2810605Y7418466D01*
X-2698666Y7396200D01*
X-2584534Y7396200D01*
X-2472595Y7418466D01*
X-2367151Y7462143D01*
X-2272254Y7525551D01*
X-2191551Y7606254D01*
X-2128143Y7701151D01*
X-2096698Y7777066D01*
X-169400Y7777066D01*
X-169400Y7662934D01*
X-147134Y7550995D01*
X-103457Y7445551D01*
X-40049Y7350654D01*
X40654Y7269951D01*
X135551Y7206543D01*
X240995Y7162866D01*
X352934Y7140600D01*
X467066Y7140600D01*
X579005Y7162866D01*
X684449Y7206543D01*
X779346Y7269951D01*
X860049Y7350654D01*
X923457Y7445551D01*
X967134Y7550995D01*
X989400Y7662934D01*
X989400Y7777066D01*
X967134Y7889005D01*
X923457Y7994449D01*
X860049Y8089346D01*
X779346Y8170049D01*
X684449Y8233457D01*
X579005Y8277134D01*
X467066Y8299400D01*
X352934Y8299400D01*
X240995Y8277134D01*
X135551Y8233457D01*
X40654Y8170049D01*
X-40049Y8089346D01*
X-103457Y7994449D01*
X-147134Y7889005D01*
X-169400Y7777066D01*
X-2096698Y7777066D01*
X-2084466Y7806595D01*
X-2062200Y7918534D01*
X-2062200Y8032666D01*
X-2084466Y8144605D01*
X-2128143Y8250049D01*
X-2191551Y8344946D01*
X-2238202Y8391597D01*
X-2191551Y8438248D01*
X-2128143Y8533145D01*
X-2084466Y8638589D01*
X-2062200Y8750528D01*
X-2062200Y8864660D01*
X-2084466Y8976599D01*
X-2128143Y9082043D01*
X-2191551Y9176940D01*
X-2198407Y9183796D01*
X-2191551Y9190651D01*
X-2128143Y9285548D01*
X-2084466Y9390992D01*
X-2062200Y9502931D01*
X-2062200Y9617063D01*
X-2084466Y9729002D01*
X-2128143Y9834446D01*
X-2191551Y9929343D01*
X-2272254Y10010046D01*
X-2367151Y10073454D01*
X-2472595Y10117131D01*
X-2584534Y10139397D01*
X-2698666Y10139397D01*
X-2810605Y10117131D01*
X-2916049Y10073454D01*
X-3010946Y10010046D01*
X-3091649Y9929343D01*
X-3155057Y9834446D01*
X-3198734Y9729002D01*
X-3221000Y9617063D01*
X-5986437Y9617063D01*
X-5714900Y9888599D01*
X-4782676Y9888599D01*
X-4764047Y9886764D01*
X-4745418Y9888599D01*
X-4745415Y9888599D01*
X-4689672Y9894089D01*
X-4618155Y9915784D01*
X-4552244Y9951014D01*
X-4494473Y9998425D01*
X-4482593Y10012901D01*
X-4470595Y10024899D01*
X-3695703Y10799790D01*
X-1517734Y10799790D01*
X-1519389Y10795795D01*
X-1541655Y10683856D01*
X-1541655Y10569724D01*
X-1519389Y10457785D01*
X-1475712Y10352341D01*
X-1412304Y10257444D01*
X-1331601Y10176741D01*
X-1236704Y10113333D01*
X-1131260Y10069656D01*
X-1019321Y10047390D01*
X-905189Y10047390D01*
X-793250Y10069656D01*
X-687806Y10113333D01*
X-592909Y10176741D01*
X-512206Y10257444D01*
X-448798Y10352341D01*
X-405121Y10457785D01*
X-382855Y10569724D01*
X-382855Y10683856D01*
X-405121Y10795795D01*
X-406776Y10799790D01*
X2554332Y10799790D01*
X2592509Y10779384D01*
X2664026Y10757689D01*
X2719769Y10752199D01*
X2719772Y10752199D01*
X2738401Y10750364D01*
X2757030Y10752199D01*
X9128706Y10752199D01*
X9147335Y10750364D01*
X9165964Y10752199D01*
X9165967Y10752199D01*
X9221710Y10757689D01*
X9293227Y10779384D01*
X9339436Y10804083D01*
X9425551Y10746543D01*
X9530995Y10702866D01*
X9642934Y10680600D01*
X9757066Y10680600D01*
X9869005Y10702866D01*
X9974449Y10746543D01*
X10069346Y10809951D01*
X10150049Y10890654D01*
X10213457Y10985551D01*
X10257134Y11090995D01*
X10279400Y11202934D01*
X10279400Y11317066D01*
X10257134Y11429005D01*
X10213457Y11534449D01*
X10150049Y11629346D01*
X10069346Y11710049D01*
X9974449Y11773457D01*
X9869005Y11817134D01*
X9757066Y11839400D01*
X9642934Y11839400D01*
X9530995Y11817134D01*
X9425551Y11773457D01*
X9330654Y11710049D01*
X9260321Y11639716D01*
X9257113Y11639400D01*
X9257104Y11639400D01*
X9201361Y11633910D01*
X9129844Y11612215D01*
X9063933Y11576985D01*
X9006162Y11529574D01*
X8994278Y11515093D01*
X8990184Y11510999D01*
X3806679Y11510999D01*
X3808334Y11514995D01*
X3830600Y11626934D01*
X3830600Y11741066D01*
X3808334Y11853005D01*
X3764657Y11958449D01*
X3701249Y12053346D01*
X3620546Y12134049D01*
X3525649Y12197457D01*
X3420205Y12241134D01*
X3308266Y12263400D01*
X3194134Y12263400D01*
X3082195Y12241134D01*
X2976751Y12197457D01*
X2881854Y12134049D01*
X2811522Y12063717D01*
X2808306Y12063400D01*
X2808304Y12063400D01*
X2752561Y12057910D01*
X2681044Y12036215D01*
X2615133Y12000985D01*
X2557362Y11953574D01*
X2545482Y11939098D01*
X2517384Y11911000D01*
X1338736Y11911000D01*
X1377057Y11968351D01*
X1420734Y12073795D01*
X1443000Y12185734D01*
X1443000Y12299866D01*
X1420734Y12411805D01*
X1377057Y12517249D01*
X1313649Y12612146D01*
X1232946Y12692849D01*
X1141489Y12753959D01*
X1150638Y12776046D01*
X1172904Y12887985D01*
X1172904Y13002117D01*
X1150638Y13114056D01*
X1106961Y13219500D01*
X1043553Y13314397D01*
X983340Y13374610D01*
X1011623Y13416939D01*
X1055300Y13522383D01*
X1077566Y13634322D01*
X1077566Y13748454D01*
X1055300Y13860393D01*
X1033677Y13912595D01*
X1036449Y13913743D01*
X1131346Y13977151D01*
X1212049Y14057854D01*
X1275457Y14152751D01*
X1319134Y14258195D01*
X1341400Y14370134D01*
X1341400Y14484266D01*
X1319134Y14596205D01*
X1275457Y14701649D01*
X1212049Y14796546D01*
X1131346Y14877249D01*
X1036449Y14940657D01*
X931005Y14984334D01*
X819066Y15006600D01*
X704934Y15006600D01*
X592995Y14984334D01*
X487551Y14940657D01*
X392654Y14877249D01*
X322321Y14806916D01*
X319113Y14806600D01*
X319104Y14806600D01*
X263361Y14801110D01*
X191844Y14779415D01*
X161162Y14763015D01*
X125932Y14744185D01*
X103375Y14725673D01*
X68162Y14696774D01*
X56282Y14682298D01*
X-1302186Y13323830D01*
X-2474878Y13323830D01*
X-4035167Y14884119D01*
X-4047047Y14898595D01*
X-4104818Y14946006D01*
X-4170729Y14981236D01*
X-4242246Y15002931D01*
X-4297989Y15008421D01*
X-4297992Y15008421D01*
X-4316621Y15010256D01*
X-4335250Y15008421D01*
X-7722214Y15008421D01*
X-7740843Y15010256D01*
X-7759472Y15008421D01*
X-7759475Y15008421D01*
X-7815218Y15002931D01*
X-7886735Y14981236D01*
X-7916362Y14965400D01*
X-7952647Y14946006D01*
X-7995945Y14910472D01*
X-8010417Y14898595D01*
X-8022293Y14884124D01*
X-8535498Y14370918D01*
X-8549974Y14359038D01*
X-8561851Y14344565D01*
X-8597385Y14301267D01*
X-8604250Y14288423D01*
X-8632615Y14235355D01*
X-8654310Y14163838D01*
X-8657750Y14128908D01*
X-8660117Y14104878D01*
X-8730449Y14034546D01*
X-8793857Y13939649D01*
X-8837534Y13834205D01*
X-8859800Y13722266D01*
X-8859800Y13608134D01*
X-8837534Y13496195D01*
X-8793857Y13390751D01*
X-8730449Y13295854D01*
X-8649746Y13215151D01*
X-8554849Y13151743D01*
X-8449405Y13108066D01*
X-8337466Y13085800D01*
X-8223334Y13085800D01*
X-8111395Y13108066D01*
X-8005951Y13151743D01*
X-7911054Y13215151D01*
X-7899400Y13226805D01*
X-7897799Y13225204D01*
X-7897800Y11410676D01*
X-10483256Y8825220D01*
X-10491866Y8868505D01*
X-10535543Y8973949D01*
X-10598951Y9068846D01*
X-10679654Y9149549D01*
X-10774551Y9212957D01*
X-10879995Y9256634D01*
X-10991934Y9278900D01*
X-11106066Y9278900D01*
X-11218005Y9256634D01*
X-11323449Y9212957D01*
X-11418346Y9149549D01*
X-11499049Y9068846D01*
X-11562457Y8973949D01*
X-11606134Y8868505D01*
X-11628400Y8756566D01*
X-11628400Y8642434D01*
X-11606134Y8530495D01*
X-11562457Y8425051D01*
X-11499049Y8330154D01*
X-11418346Y8249451D01*
X-11323449Y8186043D01*
X-11218005Y8142366D01*
X-11174720Y8133756D01*
X-14207503Y5100973D01*
X-14221974Y5089097D01*
X-14233850Y5074626D01*
X-14233852Y5074624D01*
X-14269386Y5031326D01*
X-14295856Y4981802D01*
X-14304615Y4965415D01*
X-14318060Y4921092D01*
X-14326310Y4893897D01*
X-14333636Y4819523D01*
X-22174600Y4819523D01*
X-22174600Y7486566D01*
X-13850900Y7486566D01*
X-13850900Y7372434D01*
X-13828634Y7260495D01*
X-13784957Y7155051D01*
X-13721549Y7060154D01*
X-13640846Y6979451D01*
X-13545949Y6916043D01*
X-13440505Y6872366D01*
X-13328566Y6850100D01*
X-13214434Y6850100D01*
X-13102495Y6872366D01*
X-12997051Y6916043D01*
X-12902154Y6979451D01*
X-12821451Y7060154D01*
X-12758043Y7155051D01*
X-12714366Y7260495D01*
X-12692100Y7372434D01*
X-12692100Y7486566D01*
X-12714366Y7598505D01*
X-12758043Y7703949D01*
X-12821451Y7798846D01*
X-12902154Y7879549D01*
X-12997051Y7942957D01*
X-13102495Y7986634D01*
X-13214434Y8008900D01*
X-13328566Y8008900D01*
X-13440505Y7986634D01*
X-13545949Y7942957D01*
X-13640846Y7879549D01*
X-13721549Y7798846D01*
X-13784957Y7703949D01*
X-13828634Y7598505D01*
X-13850900Y7486566D01*
X-22174600Y7486566D01*
X-22174600Y10145115D01*
X-22151858Y10377066D01*
X-13989400Y10377066D01*
X-13989400Y10262934D01*
X-13967134Y10150995D01*
X-13923457Y10045551D01*
X-13860049Y9950654D01*
X-13809395Y9900000D01*
X-13810049Y9899346D01*
X-13873457Y9804449D01*
X-13917134Y9699005D01*
X-13939400Y9587066D01*
X-13939400Y9472934D01*
X-13917134Y9360995D01*
X-13873457Y9255551D01*
X-13810049Y9160654D01*
X-13729346Y9079951D01*
X-13634449Y9016543D01*
X-13529005Y8972866D01*
X-13417066Y8950600D01*
X-13302934Y8950600D01*
X-13190995Y8972866D01*
X-13085551Y9016543D01*
X-12990654Y9079951D01*
X-12909951Y9160654D01*
X-12846543Y9255551D01*
X-12802866Y9360995D01*
X-12780600Y9472934D01*
X-12780600Y9587066D01*
X-12802866Y9699005D01*
X-12846543Y9804449D01*
X-12909951Y9899346D01*
X-12960605Y9950000D01*
X-12959951Y9950654D01*
X-12896543Y10045551D01*
X-12852866Y10150995D01*
X-12830600Y10262934D01*
X-12830600Y10280566D01*
X-10660900Y10280566D01*
X-10660900Y10166434D01*
X-10638634Y10054495D01*
X-10594957Y9949051D01*
X-10531549Y9854154D01*
X-10450846Y9773451D01*
X-10355949Y9710043D01*
X-10250505Y9666366D01*
X-10138566Y9644100D01*
X-10024434Y9644100D01*
X-9912495Y9666366D01*
X-9807051Y9710043D01*
X-9712154Y9773451D01*
X-9631451Y9854154D01*
X-9568043Y9949051D01*
X-9524366Y10054495D01*
X-9502100Y10166434D01*
X-9502100Y10280566D01*
X-9524366Y10392505D01*
X-9568043Y10497949D01*
X-9631451Y10592846D01*
X-9712154Y10673549D01*
X-9807051Y10736957D01*
X-9912495Y10780634D01*
X-10024434Y10802900D01*
X-10138566Y10802900D01*
X-10250505Y10780634D01*
X-10355949Y10736957D01*
X-10450846Y10673549D01*
X-10531549Y10592846D01*
X-10594957Y10497949D01*
X-10638634Y10392505D01*
X-10660900Y10280566D01*
X-12830600Y10280566D01*
X-12830600Y10377066D01*
X-12852866Y10489005D01*
X-12896543Y10594449D01*
X-12959951Y10689346D01*
X-13040654Y10770049D01*
X-13135551Y10833457D01*
X-13240995Y10877134D01*
X-13352934Y10899400D01*
X-13467066Y10899400D01*
X-13579005Y10877134D01*
X-13684449Y10833457D01*
X-13779346Y10770049D01*
X-13860049Y10689346D01*
X-13923457Y10594449D01*
X-13967134Y10489005D01*
X-13989400Y10377066D01*
X-22151858Y10377066D01*
X-22125755Y10643282D01*
X-21985400Y11108159D01*
X-21783931Y11487066D01*
X-12009400Y11487066D01*
X-12009400Y11372934D01*
X-11987134Y11260995D01*
X-11943457Y11155551D01*
X-11880049Y11060654D01*
X-11799346Y10979951D01*
X-11704449Y10916543D01*
X-11599005Y10872866D01*
X-11487066Y10850600D01*
X-11372934Y10850600D01*
X-11260995Y10872866D01*
X-11155551Y10916543D01*
X-11060654Y10979951D01*
X-10979951Y11060654D01*
X-10916543Y11155551D01*
X-10872866Y11260995D01*
X-10858212Y11334666D01*
X-9723400Y11334666D01*
X-9723400Y11220534D01*
X-9701134Y11108595D01*
X-9657457Y11003151D01*
X-9594049Y10908254D01*
X-9513346Y10827551D01*
X-9418449Y10764143D01*
X-9313005Y10720466D01*
X-9201066Y10698200D01*
X-9086934Y10698200D01*
X-8974995Y10720466D01*
X-8869551Y10764143D01*
X-8774654Y10827551D01*
X-8693951Y10908254D01*
X-8630543Y11003151D01*
X-8586866Y11108595D01*
X-8564600Y11220534D01*
X-8564600Y11334666D01*
X-8586866Y11446605D01*
X-8630543Y11552049D01*
X-8693951Y11646946D01*
X-8774654Y11727649D01*
X-8869551Y11791057D01*
X-8974995Y11834734D01*
X-9086934Y11857000D01*
X-9201066Y11857000D01*
X-9313005Y11834734D01*
X-9418449Y11791057D01*
X-9513346Y11727649D01*
X-9594049Y11646946D01*
X-9657457Y11552049D01*
X-9701134Y11446605D01*
X-9723400Y11334666D01*
X-10858212Y11334666D01*
X-10850600Y11372934D01*
X-10850600Y11487066D01*
X-10872866Y11599005D01*
X-10916543Y11704449D01*
X-10979951Y11799346D01*
X-11060654Y11880049D01*
X-11155551Y11943457D01*
X-11260995Y11987134D01*
X-11372934Y12009400D01*
X-11487066Y12009400D01*
X-11599005Y11987134D01*
X-11704449Y11943457D01*
X-11799346Y11880049D01*
X-11880049Y11799346D01*
X-11943457Y11704449D01*
X-11987134Y11599005D01*
X-12009400Y11487066D01*
X-21783931Y11487066D01*
X-21757426Y11536914D01*
X-21450511Y11913229D01*
X-21076351Y12222762D01*
X-20649194Y12453725D01*
X-20185308Y12597321D01*
X-19688027Y12649588D01*
X-19684513Y12649600D01*
X-15098054Y12649600D01*
X-15084630Y12650922D01*
X-15078318Y12650878D01*
X-15074088Y12651293D01*
X-14876886Y12672020D01*
X-14849841Y12677571D01*
X-14822761Y12682737D01*
X-14818694Y12683964D01*
X-14818688Y12683966D01*
X-14629271Y12742600D01*
X-14603803Y12753305D01*
X-14578256Y12763627D01*
X-14574513Y12765617D01*
X-14574504Y12765621D01*
X-14574497Y12765626D01*
X-14400080Y12859933D01*
X-14377197Y12875368D01*
X-14354122Y12890468D01*
X-14350828Y12893154D01*
X-14249396Y12977066D01*
X-13539400Y12977066D01*
X-13539400Y12862934D01*
X-13517134Y12750995D01*
X-13473457Y12645551D01*
X-13410049Y12550654D01*
X-13329346Y12469951D01*
X-13234449Y12406543D01*
X-13129005Y12362866D01*
X-13017066Y12340600D01*
X-12902934Y12340600D01*
X-12790995Y12362866D01*
X-12685551Y12406543D01*
X-12590654Y12469951D01*
X-12509951Y12550654D01*
X-12446543Y12645551D01*
X-12402866Y12750995D01*
X-12380600Y12862934D01*
X-12380600Y12977066D01*
X-12402866Y13089005D01*
X-12446543Y13194449D01*
X-12509951Y13289346D01*
X-12590654Y13370049D01*
X-12685551Y13433457D01*
X-12790995Y13477134D01*
X-12902934Y13499400D01*
X-13017066Y13499400D01*
X-13129005Y13477134D01*
X-13234449Y13433457D01*
X-13329346Y13370049D01*
X-13410049Y13289346D01*
X-13473457Y13194449D01*
X-13517134Y13089005D01*
X-13539400Y12977066D01*
X-14249396Y12977066D01*
X-14198044Y13019548D01*
X-14178566Y13039162D01*
X-14158893Y13058427D01*
X-14156188Y13061696D01*
X-14156182Y13061702D01*
X-14156178Y13061709D01*
X-14030859Y13215364D01*
X-14015579Y13238361D01*
X-14000005Y13261108D01*
X-13997983Y13264846D01*
X-13904892Y13439924D01*
X-13894356Y13465485D01*
X-13883510Y13490792D01*
X-13882255Y13494844D01*
X-13882253Y13494850D01*
X-13882252Y13494856D01*
X-13824942Y13684678D01*
X-13819583Y13711741D01*
X-13813847Y13738726D01*
X-13813404Y13742947D01*
X-13813402Y13742955D01*
X-13813402Y13742963D01*
X-13794053Y13940295D01*
X-13794053Y13940301D01*
X-13792600Y13955054D01*
X-13792600Y13977066D01*
X-10279400Y13977066D01*
X-10279400Y13862934D01*
X-10257134Y13750995D01*
X-10213457Y13645551D01*
X-10150049Y13550654D01*
X-10069346Y13469951D01*
X-9974449Y13406543D01*
X-9869005Y13362866D01*
X-9757066Y13340600D01*
X-9642934Y13340600D01*
X-9530995Y13362866D01*
X-9425551Y13406543D01*
X-9330654Y13469951D01*
X-9249951Y13550654D01*
X-9186543Y13645551D01*
X-9142866Y13750995D01*
X-9120600Y13862934D01*
X-9120600Y13977066D01*
X-9142866Y14089005D01*
X-9186543Y14194449D01*
X-9249951Y14289346D01*
X-9330654Y14370049D01*
X-9425551Y14433457D01*
X-9530995Y14477134D01*
X-9642934Y14499400D01*
X-9757066Y14499400D01*
X-9869005Y14477134D01*
X-9974449Y14433457D01*
X-10069346Y14370049D01*
X-10150049Y14289346D01*
X-10213457Y14194449D01*
X-10257134Y14089005D01*
X-10279400Y13977066D01*
X-13792600Y13977066D01*
X-13792600Y15601866D01*
X2163800Y15601866D01*
X2163800Y15487734D01*
X2186066Y15375795D01*
X2229743Y15270351D01*
X2293151Y15175454D01*
X2373854Y15094751D01*
X2468751Y15031343D01*
X2574195Y14987666D01*
X2686134Y14965400D01*
X2800266Y14965400D01*
X2912205Y14987666D01*
X3017649Y15031343D01*
X3112546Y15094751D01*
X3193249Y15175454D01*
X3256657Y15270351D01*
X3300334Y15375795D01*
X3322600Y15487734D01*
X3322600Y15601866D01*
X3300334Y15713805D01*
X3256657Y15819249D01*
X3193249Y15914146D01*
X3112546Y15994849D01*
X3017649Y16058257D01*
X2912205Y16101934D01*
X2800266Y16124200D01*
X2686134Y16124200D01*
X2574195Y16101934D01*
X2468751Y16058257D01*
X2373854Y15994849D01*
X2293151Y15914146D01*
X2229743Y15819249D01*
X2186066Y15713805D01*
X2163800Y15601866D01*
X-13792600Y15601866D01*
X-13792600Y19245898D01*
X3834200Y19245898D01*
X3834200Y18955702D01*
X3890814Y18671083D01*
X4001867Y18402978D01*
X4163091Y18161690D01*
X4368290Y17956491D01*
X4609578Y17795267D01*
X4877683Y17684214D01*
X5162302Y17627600D01*
X5452498Y17627600D01*
X5737117Y17684214D01*
X6005222Y17795267D01*
X6246510Y17956491D01*
X6451709Y18161690D01*
X6612933Y18402978D01*
X6723986Y18671083D01*
X6780600Y18955702D01*
X6780600Y19245898D01*
X6731890Y19490780D01*
X6750995Y19482866D01*
X6862934Y19460600D01*
X6977066Y19460600D01*
X7054990Y19476100D01*
X7009200Y19245898D01*
X7009200Y18955702D01*
X7065814Y18671083D01*
X7176867Y18402978D01*
X7338091Y18161690D01*
X7543290Y17956491D01*
X7784578Y17795267D01*
X8052683Y17684214D01*
X8337302Y17627600D01*
X8627498Y17627600D01*
X8912117Y17684214D01*
X9180222Y17795267D01*
X9421510Y17956491D01*
X9626709Y18161690D01*
X9787933Y18402978D01*
X9898986Y18671083D01*
X9955600Y18955702D01*
X9955600Y19245898D01*
X9898986Y19530517D01*
X9787933Y19798622D01*
X9626709Y20039910D01*
X9421510Y20245109D01*
X9180222Y20406333D01*
X9072740Y20450854D01*
X9574600Y20450854D01*
X9574600Y20290746D01*
X9605835Y20133715D01*
X9667106Y19985795D01*
X9756057Y19852670D01*
X9869270Y19739457D01*
X10002395Y19650506D01*
X10150315Y19589235D01*
X10307346Y19558000D01*
X10467454Y19558000D01*
X10624485Y19589235D01*
X10772405Y19650506D01*
X10905530Y19739457D01*
X11018743Y19852670D01*
X11107694Y19985795D01*
X11168965Y20133715D01*
X11200200Y20290746D01*
X11200200Y20450854D01*
X11168965Y20607885D01*
X11107694Y20755805D01*
X11018743Y20888930D01*
X10905530Y21002143D01*
X10772405Y21091094D01*
X10624485Y21152365D01*
X10467454Y21183600D01*
X10307346Y21183600D01*
X10150315Y21152365D01*
X10002395Y21091094D01*
X9869270Y21002143D01*
X9756057Y20888930D01*
X9667106Y20755805D01*
X9605835Y20607885D01*
X9574600Y20450854D01*
X9072740Y20450854D01*
X8912117Y20517386D01*
X8627498Y20574000D01*
X8337302Y20574000D01*
X8052683Y20517386D01*
X7784578Y20406333D01*
X7543290Y20245109D01*
X7482120Y20183939D01*
X7477134Y20209005D01*
X7433457Y20314449D01*
X7370049Y20409346D01*
X7289346Y20490049D01*
X7194449Y20553457D01*
X7089005Y20597134D01*
X6977066Y20619400D01*
X6862934Y20619400D01*
X6750995Y20597134D01*
X6645551Y20553457D01*
X6550654Y20490049D01*
X6469951Y20409346D01*
X6406543Y20314449D01*
X6362866Y20209005D01*
X6349551Y20142068D01*
X6246510Y20245109D01*
X6005222Y20406333D01*
X5737117Y20517386D01*
X5452498Y20574000D01*
X5162302Y20574000D01*
X4877683Y20517386D01*
X4609578Y20406333D01*
X4368290Y20245109D01*
X4163091Y20039910D01*
X4001867Y19798622D01*
X3890814Y19530517D01*
X3834200Y19245898D01*
X-13792600Y19245898D01*
X-13792600Y23178202D01*
X-10879400Y23178202D01*
X-10879400Y22541799D01*
X-10866676Y22412608D01*
X-10816391Y22246841D01*
X-10734732Y22094069D01*
X-10624838Y21960162D01*
X-10490932Y21850268D01*
X-10338160Y21768609D01*
X-10172393Y21718324D01*
X-10000000Y21701345D01*
X-9827608Y21718324D01*
X-9661841Y21768609D01*
X-9509069Y21850268D01*
X-9375162Y21960162D01*
X-9265268Y22094068D01*
X-9183609Y22246840D01*
X-9133324Y22412607D01*
X-9120600Y22541798D01*
X-9120600Y23178202D01*
X-8879400Y23178202D01*
X-8879400Y22541799D01*
X-8866676Y22412608D01*
X-8816391Y22246841D01*
X-8734732Y22094069D01*
X-8624838Y21960162D01*
X-8490932Y21850268D01*
X-8338160Y21768609D01*
X-8172393Y21718324D01*
X-8000000Y21701345D01*
X-7827608Y21718324D01*
X-7706588Y21755035D01*
X-7429040Y21477487D01*
X-7417164Y21463016D01*
X-7402693Y21451140D01*
X-7402692Y21451139D01*
X-7359394Y21415605D01*
X-7324164Y21396775D01*
X-7293482Y21380375D01*
X-7221965Y21358680D01*
X-7166222Y21353190D01*
X-7166219Y21353190D01*
X-7147590Y21351355D01*
X-7128961Y21353190D01*
X3931515Y21353190D01*
X3950144Y21351355D01*
X3968773Y21353190D01*
X3968776Y21353190D01*
X4024519Y21358680D01*
X4096036Y21380375D01*
X4161947Y21415605D01*
X4219718Y21463016D01*
X4231598Y21477492D01*
X4499476Y21745370D01*
X4494600Y21720854D01*
X4494600Y21560746D01*
X4525835Y21403715D01*
X4587106Y21255795D01*
X4676057Y21122670D01*
X4789270Y21009457D01*
X4922395Y20920506D01*
X5070315Y20859235D01*
X5227346Y20828000D01*
X5387454Y20828000D01*
X5544485Y20859235D01*
X5692405Y20920506D01*
X5825530Y21009457D01*
X5938743Y21122670D01*
X6027694Y21255795D01*
X6088965Y21403715D01*
X6120200Y21560746D01*
X6120200Y21720854D01*
X6088965Y21877885D01*
X6027694Y22025805D01*
X6013398Y22047201D01*
X6037972Y22047201D01*
X6056601Y22045366D01*
X6075230Y22047201D01*
X6075233Y22047201D01*
X6130976Y22052691D01*
X6202493Y22074386D01*
X6268404Y22109616D01*
X6326175Y22157027D01*
X6338055Y22171503D01*
X6867152Y22700600D01*
X6967066Y22700600D01*
X7079005Y22722866D01*
X7184449Y22766543D01*
X7279346Y22829951D01*
X7360049Y22910654D01*
X7423457Y23005551D01*
X7467134Y23110995D01*
X7467408Y23112373D01*
X7543290Y23036491D01*
X7784578Y22875267D01*
X8052683Y22764214D01*
X8337302Y22707600D01*
X8627498Y22707600D01*
X8912117Y22764214D01*
X9180222Y22875267D01*
X9353209Y22990854D01*
X9574600Y22990854D01*
X9574600Y22830746D01*
X9605835Y22673715D01*
X9667106Y22525795D01*
X9756057Y22392670D01*
X9869270Y22279457D01*
X10002395Y22190506D01*
X10150315Y22129235D01*
X10307346Y22098000D01*
X10467454Y22098000D01*
X10624485Y22129235D01*
X10772405Y22190506D01*
X10905530Y22279457D01*
X11018743Y22392670D01*
X11107694Y22525795D01*
X11168965Y22673715D01*
X11200200Y22830746D01*
X11200200Y22990854D01*
X11168965Y23147885D01*
X11107694Y23295805D01*
X11018743Y23428930D01*
X10905530Y23542143D01*
X10772405Y23631094D01*
X10624485Y23692365D01*
X10467454Y23723600D01*
X10307346Y23723600D01*
X10150315Y23692365D01*
X10002395Y23631094D01*
X9869270Y23542143D01*
X9756057Y23428930D01*
X9667106Y23295805D01*
X9605835Y23147885D01*
X9574600Y22990854D01*
X9353209Y22990854D01*
X9421510Y23036491D01*
X9626709Y23241690D01*
X9787933Y23482978D01*
X9898986Y23751083D01*
X9955600Y24035702D01*
X9955600Y24325898D01*
X9898986Y24610517D01*
X9787933Y24878622D01*
X9626709Y25119910D01*
X9421510Y25325109D01*
X9180222Y25486333D01*
X8912117Y25597386D01*
X8627498Y25654000D01*
X8337302Y25654000D01*
X8052683Y25597386D01*
X7784578Y25486333D01*
X7543290Y25325109D01*
X7338091Y25119910D01*
X7176867Y24878622D01*
X7065814Y24610517D01*
X7009200Y24325898D01*
X7009200Y24035702D01*
X7047449Y23843411D01*
X6967066Y23859400D01*
X6852934Y23859400D01*
X6741107Y23837156D01*
X6780600Y24035702D01*
X6780600Y24325898D01*
X6723986Y24610517D01*
X6612933Y24878622D01*
X6451709Y25119910D01*
X6246510Y25325109D01*
X6005222Y25486333D01*
X5737117Y25597386D01*
X5452498Y25654000D01*
X5162302Y25654000D01*
X4877683Y25597386D01*
X4609578Y25486333D01*
X4368290Y25325109D01*
X4163091Y25119910D01*
X4001867Y24878622D01*
X3890814Y24610517D01*
X3834200Y24325898D01*
X3834200Y24035702D01*
X3890814Y23751083D01*
X4001867Y23482978D01*
X4163091Y23241690D01*
X4368290Y23036491D01*
X4609578Y22875267D01*
X4776801Y22806001D01*
X4662784Y22806001D01*
X4644155Y22807836D01*
X4625526Y22806001D01*
X4625523Y22806001D01*
X4569780Y22800511D01*
X4514908Y22783865D01*
X4498262Y22778816D01*
X4432351Y22743586D01*
X4407104Y22722866D01*
X4374581Y22696175D01*
X4362705Y22681704D01*
X3792992Y22111990D01*
X3555174Y22111990D01*
X3614449Y22136543D01*
X3709346Y22199951D01*
X3790049Y22280654D01*
X3853457Y22375551D01*
X3897134Y22480995D01*
X3919400Y22592934D01*
X3919400Y22707066D01*
X3897134Y22819005D01*
X3853457Y22924449D01*
X3790049Y23019346D01*
X3709346Y23100049D01*
X3614449Y23163457D01*
X3509005Y23207134D01*
X3397066Y23229400D01*
X3282934Y23229400D01*
X3170995Y23207134D01*
X3065551Y23163457D01*
X2970654Y23100049D01*
X2889951Y23019346D01*
X2826543Y22924449D01*
X2782866Y22819005D01*
X2760600Y22707066D01*
X2760600Y22592934D01*
X2782866Y22480995D01*
X2826543Y22375551D01*
X2889951Y22280654D01*
X2970654Y22199951D01*
X3065551Y22136543D01*
X3124826Y22111990D01*
X-1255688Y22111990D01*
X-1183609Y22246840D01*
X-1133324Y22412607D01*
X-1120600Y22541798D01*
X-1120600Y23178202D01*
X-1133324Y23307393D01*
X-1183609Y23473160D01*
X-1265268Y23625932D01*
X-1375162Y23759838D01*
X-1509068Y23869732D01*
X-1661840Y23951391D01*
X-1827607Y24001676D01*
X-2000000Y24018655D01*
X-2172392Y24001676D01*
X-2338159Y23951391D01*
X-2490931Y23869732D01*
X-2624837Y23759838D01*
X-2734731Y23625932D01*
X-2816391Y23473160D01*
X-2866676Y23307393D01*
X-2879400Y23178202D01*
X-2879400Y22541799D01*
X-2866676Y22412608D01*
X-2816391Y22246841D01*
X-2744311Y22111990D01*
X-3255688Y22111990D01*
X-3183609Y22246840D01*
X-3133324Y22412607D01*
X-3120600Y22541798D01*
X-3120600Y23178202D01*
X-3133324Y23307393D01*
X-3183609Y23473160D01*
X-3265268Y23625932D01*
X-3375162Y23759838D01*
X-3509068Y23869732D01*
X-3661840Y23951391D01*
X-3827607Y24001676D01*
X-4000000Y24018655D01*
X-4172392Y24001676D01*
X-4338159Y23951391D01*
X-4490931Y23869732D01*
X-4624837Y23759838D01*
X-4734731Y23625932D01*
X-4816391Y23473160D01*
X-4866676Y23307393D01*
X-4879400Y23178202D01*
X-4879400Y22541799D01*
X-4866676Y22412608D01*
X-4816391Y22246841D01*
X-4744311Y22111990D01*
X-6990437Y22111990D01*
X-7170035Y22291588D01*
X-7133324Y22412607D01*
X-7120600Y22541798D01*
X-7120600Y23178202D01*
X-7133324Y23307393D01*
X-7183609Y23473160D01*
X-7265268Y23625932D01*
X-7375162Y23759838D01*
X-7509068Y23869732D01*
X-7661840Y23951391D01*
X-7827607Y24001676D01*
X-8000000Y24018655D01*
X-8172392Y24001676D01*
X-8338159Y23951391D01*
X-8490931Y23869732D01*
X-8624837Y23759838D01*
X-8734731Y23625932D01*
X-8816391Y23473160D01*
X-8866676Y23307393D01*
X-8879400Y23178202D01*
X-9120600Y23178202D01*
X-9133324Y23307393D01*
X-9183609Y23473160D01*
X-9265268Y23625932D01*
X-9375162Y23759838D01*
X-9509068Y23869732D01*
X-9661840Y23951391D01*
X-9827607Y24001676D01*
X-10000000Y24018655D01*
X-10172392Y24001676D01*
X-10338159Y23951391D01*
X-10490931Y23869732D01*
X-10624837Y23759838D01*
X-10734731Y23625932D01*
X-10816391Y23473160D01*
X-10866676Y23307393D01*
X-10879400Y23178202D01*
X-13792600Y23178202D01*
X-13792600Y23607115D01*
X-13743755Y24105282D01*
X-13603400Y24570159D01*
X-13375426Y24998914D01*
X-13068511Y25375229D01*
X-12694351Y25684762D01*
X-12267194Y25915725D01*
X-11803308Y26059321D01*
X-11306027Y26111588D01*
X-11302513Y26111600D01*
X10145115Y26111600D01*
X10643282Y26062755D01*
M02*
