G04 #@! TF.GenerationSoftware,KiCad,Pcbnew,(5.1.4)-1*
G04 #@! TF.CreationDate,2020-08-10T08:42:24-07:00*
G04 #@! TF.ProjectId,SkateLightMainBoard,536b6174-654c-4696-9768-744d61696e42,rev?*
G04 #@! TF.SameCoordinates,Original*
G04 #@! TF.FileFunction,Legend,Bot*
G04 #@! TF.FilePolarity,Positive*
%FSLAX46Y46*%
G04 Gerber Fmt 4.6, Leading zero omitted, Abs format (unit mm)*
G04 Created by KiCad (PCBNEW (5.1.4)-1) date 2020-08-10 08:42:24*
%MOMM*%
%LPD*%
G04 APERTURE LIST*
%ADD10C,0.150000*%
%ADD11C,0.203200*%
%ADD12C,0.200000*%
%ADD13C,0.127000*%
%ADD14C,0.120000*%
%ADD15C,0.100000*%
%ADD16C,0.254000*%
%ADD17C,0.152400*%
G04 APERTURE END LIST*
D10*
X-10387619Y-20100476D02*
X-11387619Y-20100476D01*
X-10911428Y-20100476D02*
X-10911428Y-20671904D01*
X-10387619Y-20671904D02*
X-11387619Y-20671904D01*
X-10387619Y-21576666D02*
X-10911428Y-21576666D01*
X-11006666Y-21529047D01*
X-11054285Y-21433809D01*
X-11054285Y-21243333D01*
X-11006666Y-21148095D01*
X-10435238Y-21576666D02*
X-10387619Y-21481428D01*
X-10387619Y-21243333D01*
X-10435238Y-21148095D01*
X-10530476Y-21100476D01*
X-10625714Y-21100476D01*
X-10720952Y-21148095D01*
X-10768571Y-21243333D01*
X-10768571Y-21481428D01*
X-10816190Y-21576666D01*
X-11054285Y-22052857D02*
X-10054285Y-22052857D01*
X-11006666Y-22052857D02*
X-11054285Y-22148095D01*
X-11054285Y-22338571D01*
X-11006666Y-22433809D01*
X-10959047Y-22481428D01*
X-10863809Y-22529047D01*
X-10578095Y-22529047D01*
X-10482857Y-22481428D01*
X-10435238Y-22433809D01*
X-10387619Y-22338571D01*
X-10387619Y-22148095D01*
X-10435238Y-22052857D01*
X-11054285Y-22957619D02*
X-10054285Y-22957619D01*
X-11006666Y-22957619D02*
X-11054285Y-23052857D01*
X-11054285Y-23243333D01*
X-11006666Y-23338571D01*
X-10959047Y-23386190D01*
X-10863809Y-23433809D01*
X-10578095Y-23433809D01*
X-10482857Y-23386190D01*
X-10435238Y-23338571D01*
X-10387619Y-23243333D01*
X-10387619Y-23052857D01*
X-10435238Y-22957619D01*
X-11054285Y-23767142D02*
X-10387619Y-24005238D01*
X-11054285Y-24243333D02*
X-10387619Y-24005238D01*
X-10149523Y-23910000D01*
X-10101904Y-23862380D01*
X-10054285Y-23767142D01*
X-10387619Y-25386190D02*
X-11387619Y-25386190D01*
X-10911428Y-25386190D02*
X-10911428Y-25957619D01*
X-10387619Y-25957619D02*
X-11387619Y-25957619D01*
X-10387619Y-26862380D02*
X-10911428Y-26862380D01*
X-11006666Y-26814761D01*
X-11054285Y-26719523D01*
X-11054285Y-26529047D01*
X-11006666Y-26433809D01*
X-10435238Y-26862380D02*
X-10387619Y-26767142D01*
X-10387619Y-26529047D01*
X-10435238Y-26433809D01*
X-10530476Y-26386190D01*
X-10625714Y-26386190D01*
X-10720952Y-26433809D01*
X-10768571Y-26529047D01*
X-10768571Y-26767142D01*
X-10816190Y-26862380D01*
X-10435238Y-27767142D02*
X-10387619Y-27671904D01*
X-10387619Y-27481428D01*
X-10435238Y-27386190D01*
X-10482857Y-27338571D01*
X-10578095Y-27290952D01*
X-10863809Y-27290952D01*
X-10959047Y-27338571D01*
X-11006666Y-27386190D01*
X-11054285Y-27481428D01*
X-11054285Y-27671904D01*
X-11006666Y-27767142D01*
X-10387619Y-28195714D02*
X-11387619Y-28195714D01*
X-10768571Y-28290952D02*
X-10387619Y-28576666D01*
X-11054285Y-28576666D02*
X-10673333Y-28195714D01*
X-10387619Y-29005238D02*
X-11054285Y-29005238D01*
X-11387619Y-29005238D02*
X-11340000Y-28957619D01*
X-11292380Y-29005238D01*
X-11340000Y-29052857D01*
X-11387619Y-29005238D01*
X-11292380Y-29005238D01*
X-11054285Y-29481428D02*
X-10387619Y-29481428D01*
X-10959047Y-29481428D02*
X-11006666Y-29529047D01*
X-11054285Y-29624285D01*
X-11054285Y-29767142D01*
X-11006666Y-29862380D01*
X-10911428Y-29910000D01*
X-10387619Y-29910000D01*
X-11054285Y-30814761D02*
X-10244761Y-30814761D01*
X-10149523Y-30767142D01*
X-10101904Y-30719523D01*
X-10054285Y-30624285D01*
X-10054285Y-30481428D01*
X-10101904Y-30386190D01*
X-10435238Y-30814761D02*
X-10387619Y-30719523D01*
X-10387619Y-30529047D01*
X-10435238Y-30433809D01*
X-10482857Y-30386190D01*
X-10578095Y-30338571D01*
X-10863809Y-30338571D01*
X-10959047Y-30386190D01*
X-11006666Y-30433809D01*
X-11054285Y-30529047D01*
X-11054285Y-30719523D01*
X-11006666Y-30814761D01*
X-10435238Y-32100476D02*
X-10387619Y-32100476D01*
X-10292380Y-32052857D01*
X-10244761Y-32005238D01*
X-11006666Y-32052857D02*
X-10959047Y-32100476D01*
X-10911428Y-32052857D01*
X-10959047Y-32005238D01*
X-11006666Y-32052857D01*
X-10911428Y-32052857D01*
X-10006666Y-32433809D02*
X-10054285Y-32481428D01*
X-10197142Y-32576666D01*
X-10292380Y-32624285D01*
X-10435238Y-32671904D01*
X-10673333Y-32719523D01*
X-10863809Y-32719523D01*
X-11101904Y-32671904D01*
X-11244761Y-32624285D01*
X-11340000Y-32576666D01*
X-11482857Y-32481428D01*
X-11530476Y-32433809D01*
D11*
X6749333Y-1466019D02*
X6749333Y-450019D01*
X6507428Y-450019D01*
X6362285Y-498400D01*
X6265523Y-595161D01*
X6217142Y-691923D01*
X6168761Y-885447D01*
X6168761Y-1030590D01*
X6217142Y-1224114D01*
X6265523Y-1320876D01*
X6362285Y-1417638D01*
X6507428Y-1466019D01*
X6749333Y-1466019D01*
X5297904Y-1466019D02*
X5297904Y-933828D01*
X5346285Y-837066D01*
X5443047Y-788685D01*
X5636571Y-788685D01*
X5733333Y-837066D01*
X5297904Y-1417638D02*
X5394666Y-1466019D01*
X5636571Y-1466019D01*
X5733333Y-1417638D01*
X5781714Y-1320876D01*
X5781714Y-1224114D01*
X5733333Y-1127352D01*
X5636571Y-1078971D01*
X5394666Y-1078971D01*
X5297904Y-1030590D01*
X4814095Y-788685D02*
X4814095Y-1466019D01*
X4814095Y-885447D02*
X4765714Y-837066D01*
X4668952Y-788685D01*
X4523809Y-788685D01*
X4427047Y-837066D01*
X4378666Y-933828D01*
X4378666Y-1466019D01*
X3894857Y-1466019D02*
X3894857Y-788685D01*
X3894857Y-450019D02*
X3943238Y-498400D01*
X3894857Y-546780D01*
X3846476Y-498400D01*
X3894857Y-450019D01*
X3894857Y-546780D01*
X3411047Y-1466019D02*
X3411047Y-788685D01*
X3411047Y-450019D02*
X3459428Y-498400D01*
X3411047Y-546780D01*
X3362666Y-498400D01*
X3411047Y-450019D01*
X3411047Y-546780D01*
X2782095Y-1466019D02*
X2878857Y-1417638D01*
X2927238Y-1320876D01*
X2927238Y-450019D01*
X1669333Y-1175733D02*
X1185523Y-1175733D01*
X1766095Y-1466019D02*
X1427428Y-450019D01*
X1088761Y-1466019D01*
X750095Y-788685D02*
X750095Y-1466019D01*
X750095Y-885447D02*
X701714Y-837066D01*
X604952Y-788685D01*
X459809Y-788685D01*
X363047Y-837066D01*
X314666Y-933828D01*
X314666Y-1466019D01*
X-604571Y-1466019D02*
X-604571Y-450019D01*
X-604571Y-1417638D02*
X-507809Y-1466019D01*
X-314285Y-1466019D01*
X-217523Y-1417638D01*
X-169142Y-1369257D01*
X-120761Y-1272495D01*
X-120761Y-982209D01*
X-169142Y-885447D01*
X-217523Y-837066D01*
X-314285Y-788685D01*
X-507809Y-788685D01*
X-604571Y-837066D01*
X-1088380Y-1466019D02*
X-1088380Y-788685D01*
X-1088380Y-982209D02*
X-1136761Y-885447D01*
X-1185142Y-837066D01*
X-1281904Y-788685D01*
X-1378666Y-788685D01*
X-2104380Y-1417638D02*
X-2007619Y-1466019D01*
X-1814095Y-1466019D01*
X-1717333Y-1417638D01*
X-1668952Y-1320876D01*
X-1668952Y-933828D01*
X-1717333Y-837066D01*
X-1814095Y-788685D01*
X-2007619Y-788685D01*
X-2104380Y-837066D01*
X-2152761Y-933828D01*
X-2152761Y-1030590D01*
X-1668952Y-1127352D01*
X-2975238Y-1417638D02*
X-2878476Y-1466019D01*
X-2684952Y-1466019D01*
X-2588190Y-1417638D01*
X-2539809Y-1320876D01*
X-2539809Y-933828D01*
X-2588190Y-837066D01*
X-2684952Y-788685D01*
X-2878476Y-788685D01*
X-2975238Y-837066D01*
X-3023619Y-933828D01*
X-3023619Y-1030590D01*
X-2539809Y-1127352D01*
X-3362285Y-788685D02*
X-3604190Y-1466019D01*
X-3846095Y-788685D01*
X5563999Y-2612647D02*
X5660761Y-2564266D01*
X5709142Y-2515885D01*
X5757523Y-2419123D01*
X5757523Y-2370742D01*
X5709142Y-2273980D01*
X5660761Y-2225600D01*
X5563999Y-2177219D01*
X5370476Y-2177219D01*
X5273714Y-2225600D01*
X5225333Y-2273980D01*
X5176952Y-2370742D01*
X5176952Y-2419123D01*
X5225333Y-2515885D01*
X5273714Y-2564266D01*
X5370476Y-2612647D01*
X5563999Y-2612647D01*
X5660761Y-2661028D01*
X5709142Y-2709409D01*
X5757523Y-2806171D01*
X5757523Y-2999695D01*
X5709142Y-3096457D01*
X5660761Y-3144838D01*
X5563999Y-3193219D01*
X5370476Y-3193219D01*
X5273714Y-3144838D01*
X5225333Y-3096457D01*
X5176952Y-2999695D01*
X5176952Y-2806171D01*
X5225333Y-2709409D01*
X5273714Y-2661028D01*
X5370476Y-2612647D01*
X4015809Y-2128838D02*
X4886666Y-3435123D01*
X3144952Y-3193219D02*
X3725523Y-3193219D01*
X3435238Y-3193219D02*
X3435238Y-2177219D01*
X3531999Y-2322361D01*
X3628761Y-2419123D01*
X3725523Y-2467504D01*
X2515999Y-2177219D02*
X2419238Y-2177219D01*
X2322476Y-2225600D01*
X2274095Y-2273980D01*
X2225714Y-2370742D01*
X2177333Y-2564266D01*
X2177333Y-2806171D01*
X2225714Y-2999695D01*
X2274095Y-3096457D01*
X2322476Y-3144838D01*
X2419238Y-3193219D01*
X2515999Y-3193219D01*
X2612761Y-3144838D01*
X2661142Y-3096457D01*
X2709523Y-2999695D01*
X2757904Y-2806171D01*
X2757904Y-2564266D01*
X2709523Y-2370742D01*
X2661142Y-2273980D01*
X2612761Y-2225600D01*
X2515999Y-2177219D01*
X1016190Y-2128838D02*
X1887047Y-3435123D01*
X725904Y-2273980D02*
X677523Y-2225600D01*
X580761Y-2177219D01*
X338857Y-2177219D01*
X242095Y-2225600D01*
X193714Y-2273980D01*
X145333Y-2370742D01*
X145333Y-2467504D01*
X193714Y-2612647D01*
X774285Y-3193219D01*
X145333Y-3193219D01*
X-483619Y-2177219D02*
X-580380Y-2177219D01*
X-677142Y-2225600D01*
X-725523Y-2273980D01*
X-773904Y-2370742D01*
X-822285Y-2564266D01*
X-822285Y-2806171D01*
X-773904Y-2999695D01*
X-725523Y-3096457D01*
X-677142Y-3144838D01*
X-580380Y-3193219D01*
X-483619Y-3193219D01*
X-386857Y-3144838D01*
X-338476Y-3096457D01*
X-290095Y-2999695D01*
X-241714Y-2806171D01*
X-241714Y-2564266D01*
X-290095Y-2370742D01*
X-338476Y-2273980D01*
X-386857Y-2225600D01*
X-483619Y-2177219D01*
X-1209333Y-2273980D02*
X-1257714Y-2225600D01*
X-1354476Y-2177219D01*
X-1596380Y-2177219D01*
X-1693142Y-2225600D01*
X-1741523Y-2273980D01*
X-1789904Y-2370742D01*
X-1789904Y-2467504D01*
X-1741523Y-2612647D01*
X-1160952Y-3193219D01*
X-1789904Y-3193219D01*
X-2418857Y-2177219D02*
X-2515619Y-2177219D01*
X-2612380Y-2225600D01*
X-2660761Y-2273980D01*
X-2709142Y-2370742D01*
X-2757523Y-2564266D01*
X-2757523Y-2806171D01*
X-2709142Y-2999695D01*
X-2660761Y-3096457D01*
X-2612380Y-3144838D01*
X-2515619Y-3193219D01*
X-2418857Y-3193219D01*
X-2322095Y-3144838D01*
X-2273714Y-3096457D01*
X-2225333Y-2999695D01*
X-2176952Y-2806171D01*
X-2176952Y-2564266D01*
X-2225333Y-2370742D01*
X-2273714Y-2273980D01*
X-2322095Y-2225600D01*
X-2418857Y-2177219D01*
D12*
X-618180Y16612660D02*
X-618180Y23412660D01*
X-618180Y23412660D02*
X-12168180Y23412660D01*
X-12168180Y23412660D02*
X-12168180Y16612660D01*
X-12168180Y16612660D02*
X-618180Y16612660D01*
X-638180Y14412660D02*
X-638180Y16262660D01*
D13*
X451600Y-20035000D02*
X12451600Y-20035000D01*
X12451600Y-32035000D02*
X451600Y-32035000D01*
D14*
X451600Y-32035000D02*
X451600Y-28956000D01*
X451600Y-20035000D02*
X451600Y-23114000D01*
X12451600Y-20035000D02*
X12451600Y-23114000D01*
X12451600Y-32035000D02*
X12451600Y-28956000D01*
X6642860Y-9224000D02*
X-4057140Y-9224000D01*
X-4068484Y-9224129D02*
G75*
G03X-4557140Y-9724000I11344J-499871D01*
G01*
X-4557140Y-9724000D02*
X-4557140Y-11724000D01*
X-4557011Y-18735344D02*
G75*
G03X-4057140Y-19224000I499871J11344D01*
G01*
X-4557140Y-16724000D02*
X-4557140Y-18724000D01*
X7142860Y-11724000D02*
X7142860Y-9724000D01*
X-4057140Y-19224000D02*
X6642860Y-19224000D01*
X6654204Y-19223871D02*
G75*
G03X7142860Y-18724000I-11344J499871D01*
G01*
X7142731Y-9712656D02*
G75*
G03X6642860Y-9224000I-499871J-11344D01*
G01*
X7142860Y-18724000D02*
X7142860Y-16724000D01*
X9668040Y5946720D02*
G75*
G03X9668040Y5946720I-254000J0D01*
G01*
X-5080000Y-36026000D02*
X5080000Y-36026000D01*
X-5080000Y-32470000D02*
X-5080000Y-36026000D01*
X5080000Y-32470000D02*
X-5080000Y-32470000D01*
X5080000Y-36026000D02*
X5080000Y-32470000D01*
X12387040Y3402142D02*
X12387040Y3919298D01*
X13807040Y3402142D02*
X13807040Y3919298D01*
X-11724724Y-9074320D02*
X-10520596Y-9074320D01*
X-11724724Y-11794320D02*
X-10520596Y-11794320D01*
X-2555156Y-32081300D02*
X-3759284Y-32081300D01*
X-2555156Y-29361300D02*
X-3759284Y-29361300D01*
X-60000Y8511422D02*
X-60000Y9028578D01*
X1360000Y8511422D02*
X1360000Y9028578D01*
X-11960000Y3291422D02*
X-11960000Y3808578D01*
X-13380000Y3291422D02*
X-13380000Y3808578D01*
X-6070000Y3411422D02*
X-6070000Y3928578D01*
X-7490000Y3411422D02*
X-7490000Y3928578D01*
X-9711422Y5570000D02*
X-10228578Y5570000D01*
X-9711422Y6990000D02*
X-10228578Y6990000D01*
D15*
X-8656000Y4986000D02*
X-8656000Y5186000D01*
X-8656000Y5186000D02*
X-11256000Y5186000D01*
X-11256000Y5186000D02*
X-11256000Y4986000D01*
X-8656000Y2386000D02*
X-8656000Y2186000D01*
X-8656000Y2186000D02*
X-11256000Y2186000D01*
X-11256000Y2186000D02*
X-11256000Y2386000D01*
D12*
X-8056000Y4786000D02*
X-8056000Y4786000D01*
X-8056000Y4586000D02*
X-8056000Y4586000D01*
X-8056000Y4586000D02*
G75*
G02X-8056000Y4786000I0J100000D01*
G01*
X-8056000Y4786000D02*
G75*
G02X-8056000Y4586000I0J-100000D01*
G01*
D14*
X3306620Y12368402D02*
X3306620Y12885558D01*
X1886620Y12368402D02*
X1886620Y12885558D01*
X1886620Y15815902D02*
X1886620Y16333058D01*
X3306620Y15815902D02*
X3306620Y16333058D01*
X-233380Y13964480D02*
X1466620Y13964480D01*
X1466620Y13964480D02*
X1466620Y11414480D01*
X-233380Y13964480D02*
X-233380Y11414480D01*
X-6125000Y-71002D02*
X-6125000Y-588158D01*
X-7545000Y-71002D02*
X-7545000Y-588158D01*
X-13560000Y10301422D02*
X-13560000Y10818578D01*
X-12140000Y10301422D02*
X-12140000Y10818578D01*
X-6020000Y11808578D02*
X-6020000Y11291422D01*
X-7440000Y11808578D02*
X-7440000Y11291422D01*
X-7340000Y-23067936D02*
X-7340000Y-24272064D01*
X-4620000Y-23067936D02*
X-4620000Y-24272064D01*
X-11967000Y-588158D02*
X-11967000Y-71002D01*
X-13387000Y-588158D02*
X-13387000Y-71002D01*
D12*
X-5541180Y11198660D02*
X-5541180Y7998660D01*
X-5541180Y7998660D02*
X-641180Y7998660D01*
X-641180Y7998660D02*
X-641180Y11198660D01*
X-641180Y11198660D02*
X-5541180Y11198660D01*
X-5671180Y13048660D02*
X-5671180Y11548660D01*
D14*
X-11366000Y-1229580D02*
X-11366000Y570420D01*
X-8146000Y570420D02*
X-8146000Y-1879580D01*
X1616780Y24119338D02*
X1616780Y23602182D01*
X196780Y24119338D02*
X196780Y23602182D01*
X7640618Y2338720D02*
X7123462Y2338720D01*
X7640618Y918720D02*
X7123462Y918720D01*
X4084618Y918720D02*
X3567462Y918720D01*
X4084618Y2338720D02*
X3567462Y2338720D01*
X7640618Y2950720D02*
X7123462Y2950720D01*
X7640618Y4370720D02*
X7123462Y4370720D01*
X4084618Y4370720D02*
X3567462Y4370720D01*
X4084618Y2950720D02*
X3567462Y2950720D01*
X7640618Y4982720D02*
X7123462Y4982720D01*
X7640618Y6402720D02*
X7123462Y6402720D01*
X4084618Y6402720D02*
X3567462Y6402720D01*
X4084618Y4982720D02*
X3567462Y4982720D01*
D15*
X-8220000Y10000000D02*
X-8220000Y11000000D01*
X-11420000Y10000000D02*
X-11420000Y11000000D01*
X-11820000Y8650000D02*
X-11820000Y8650000D01*
X-11920000Y8650000D02*
X-11920000Y8650000D01*
X-11920000Y8650000D02*
G75*
G03X-11820000Y8650000I50000J0D01*
G01*
X-11820000Y8650000D02*
G75*
G03X-11920000Y8650000I-50000J0D01*
G01*
D14*
X10504100Y8151362D02*
X10504100Y8668518D01*
X11924100Y8151362D02*
X11924100Y8668518D01*
D16*
X1138403Y21252421D02*
X-131596Y21252421D01*
X1017451Y19921945D02*
X1077927Y19982421D01*
X1138403Y20163850D01*
X1138403Y20284802D01*
X1077927Y20466231D01*
X956975Y20587183D01*
X836022Y20647660D01*
X594118Y20708136D01*
X412689Y20708136D01*
X170784Y20647660D01*
X49832Y20587183D01*
X-71120Y20466231D01*
X-131596Y20284802D01*
X-131596Y20163850D01*
X-71120Y19982421D01*
X-10643Y19921945D01*
X412689Y19196231D02*
X352213Y19317183D01*
X291737Y19377660D01*
X170784Y19438136D01*
X110308Y19438136D01*
X-10643Y19377660D01*
X-71120Y19317183D01*
X-131596Y19196231D01*
X-131596Y18954326D01*
X-71120Y18833374D01*
X-10643Y18772898D01*
X110308Y18712421D01*
X170784Y18712421D01*
X291737Y18772898D01*
X352213Y18833374D01*
X412689Y18954326D01*
X412689Y19196231D01*
X473165Y19317183D01*
X533641Y19377660D01*
X654594Y19438136D01*
X896499Y19438136D01*
X1017451Y19377660D01*
X1077927Y19317183D01*
X1138403Y19196231D01*
X1138403Y18954326D01*
X1077927Y18833374D01*
X1017451Y18772898D01*
X896499Y18712421D01*
X654594Y18712421D01*
X533641Y18772898D01*
X473165Y18833374D01*
X412689Y18954326D01*
X6742006Y-26294563D02*
X7346768Y-26294563D01*
X7346768Y-25024563D01*
X6379149Y-25145516D02*
X6318673Y-25085040D01*
X6197720Y-25024563D01*
X5895340Y-25024563D01*
X5774387Y-25085040D01*
X5713911Y-25145516D01*
X5653435Y-25266468D01*
X5653435Y-25387420D01*
X5713911Y-25568849D01*
X6439625Y-26294563D01*
X5653435Y-26294563D01*
D10*
X1459526Y-15176380D02*
X1935717Y-15176380D01*
X1935717Y-14176380D01*
X602383Y-15176380D02*
X1173812Y-15176380D01*
X888098Y-15176380D02*
X888098Y-14176380D01*
X983336Y-14319238D01*
X1078574Y-14414476D01*
X1173812Y-14462095D01*
D17*
X12028909Y5565840D02*
X12028909Y6581840D01*
X10964528Y5662602D02*
X11012909Y5614221D01*
X11158052Y5565840D01*
X11254814Y5565840D01*
X11399957Y5614221D01*
X11496719Y5710983D01*
X11545100Y5807745D01*
X11593480Y6001269D01*
X11593480Y6146412D01*
X11545100Y6339936D01*
X11496719Y6436698D01*
X11399957Y6533460D01*
X11254814Y6581840D01*
X11158052Y6581840D01*
X11012909Y6533460D01*
X10964528Y6485079D01*
X9996909Y5565840D02*
X10577480Y5565840D01*
X10287195Y5565840D02*
X10287195Y6581840D01*
X10383957Y6436698D01*
X10480719Y6339936D01*
X10577480Y6291555D01*
D10*
X13263706Y890577D02*
X13311325Y842958D01*
X13454182Y795339D01*
X13549420Y795339D01*
X13692278Y842958D01*
X13787516Y938196D01*
X13835135Y1033434D01*
X13882754Y1223910D01*
X13882754Y1366767D01*
X13835135Y1557243D01*
X13787516Y1652481D01*
X13692278Y1747720D01*
X13549420Y1795339D01*
X13454182Y1795339D01*
X13311325Y1747720D01*
X13263706Y1700100D01*
X12882754Y1700100D02*
X12835135Y1747720D01*
X12739897Y1795339D01*
X12501801Y1795339D01*
X12406563Y1747720D01*
X12358944Y1700100D01*
X12311325Y1604862D01*
X12311325Y1509624D01*
X12358944Y1366767D01*
X12930373Y795339D01*
X12311325Y795339D01*
X-11213333Y-8437142D02*
X-11165714Y-8484761D01*
X-11022857Y-8532380D01*
X-10927619Y-8532380D01*
X-10784761Y-8484761D01*
X-10689523Y-8389523D01*
X-10641904Y-8294285D01*
X-10594285Y-8103809D01*
X-10594285Y-7960952D01*
X-10641904Y-7770476D01*
X-10689523Y-7675238D01*
X-10784761Y-7580000D01*
X-10927619Y-7532380D01*
X-11022857Y-7532380D01*
X-11165714Y-7580000D01*
X-11213333Y-7627619D01*
X-11546666Y-7532380D02*
X-12213333Y-7532380D01*
X-11784761Y-8532380D01*
X-5721077Y-30078442D02*
X-5673458Y-30030823D01*
X-5625839Y-29887966D01*
X-5625839Y-29792728D01*
X-5673458Y-29649871D01*
X-5768696Y-29554633D01*
X-5863934Y-29507014D01*
X-6054410Y-29459395D01*
X-6197267Y-29459395D01*
X-6387743Y-29507014D01*
X-6482981Y-29554633D01*
X-6578220Y-29649871D01*
X-6625839Y-29792728D01*
X-6625839Y-29887966D01*
X-6578220Y-30030823D01*
X-6530600Y-30078442D01*
X-5625839Y-31030823D02*
X-5625839Y-30459395D01*
X-5625839Y-30745109D02*
X-6625839Y-30745109D01*
X-6482981Y-30649871D01*
X-6387743Y-30554633D01*
X-6340124Y-30459395D01*
X-6625839Y-31935585D02*
X-6625839Y-31459395D01*
X-6149648Y-31411776D01*
X-6197267Y-31459395D01*
X-6244886Y-31554633D01*
X-6244886Y-31792728D01*
X-6197267Y-31887966D01*
X-6149648Y-31935585D01*
X-6054410Y-31983204D01*
X-5816315Y-31983204D01*
X-5721077Y-31935585D01*
X-5673458Y-31887966D01*
X-5625839Y-31792728D01*
X-5625839Y-31554633D01*
X-5673458Y-31459395D01*
X-5721077Y-31411776D01*
X2802380Y8506666D02*
X2326190Y8840000D01*
X2802380Y9078095D02*
X1802380Y9078095D01*
X1802380Y8697142D01*
X1850000Y8601904D01*
X1897619Y8554285D01*
X1992857Y8506666D01*
X2135714Y8506666D01*
X2230952Y8554285D01*
X2278571Y8601904D01*
X2326190Y8697142D01*
X2326190Y9078095D01*
X2802380Y7554285D02*
X2802380Y8125714D01*
X2802380Y7840000D02*
X1802380Y7840000D01*
X1945238Y7935238D01*
X2040476Y8030476D01*
X2088095Y8125714D01*
X-12803333Y5462857D02*
X-12755714Y5415238D01*
X-12612857Y5367619D01*
X-12517619Y5367619D01*
X-12374761Y5415238D01*
X-12279523Y5510476D01*
X-12231904Y5605714D01*
X-12184285Y5796190D01*
X-12184285Y5939047D01*
X-12231904Y6129523D01*
X-12279523Y6224761D01*
X-12374761Y6320000D01*
X-12517619Y6367619D01*
X-12612857Y6367619D01*
X-12755714Y6320000D01*
X-12803333Y6272380D01*
X-13708095Y6367619D02*
X-13231904Y6367619D01*
X-13184285Y5891428D01*
X-13231904Y5939047D01*
X-13327142Y5986666D01*
X-13565238Y5986666D01*
X-13660476Y5939047D01*
X-13708095Y5891428D01*
X-13755714Y5796190D01*
X-13755714Y5558095D01*
X-13708095Y5462857D01*
X-13660476Y5415238D01*
X-13565238Y5367619D01*
X-13327142Y5367619D01*
X-13231904Y5415238D01*
X-13184285Y5462857D01*
X-4662857Y3606666D02*
X-4615238Y3654285D01*
X-4567619Y3797142D01*
X-4567619Y3892380D01*
X-4615238Y4035238D01*
X-4710476Y4130476D01*
X-4805714Y4178095D01*
X-4996190Y4225714D01*
X-5139047Y4225714D01*
X-5329523Y4178095D01*
X-5424761Y4130476D01*
X-5520000Y4035238D01*
X-5567619Y3892380D01*
X-5567619Y3797142D01*
X-5520000Y3654285D01*
X-5472380Y3606666D01*
X-5567619Y3273333D02*
X-5567619Y2654285D01*
X-5186666Y2987619D01*
X-5186666Y2844761D01*
X-5139047Y2749523D01*
X-5091428Y2701904D01*
X-4996190Y2654285D01*
X-4758095Y2654285D01*
X-4662857Y2701904D01*
X-4615238Y2749523D01*
X-4567619Y2844761D01*
X-4567619Y3130476D01*
X-4615238Y3225714D01*
X-4662857Y3273333D01*
X-7063333Y6662857D02*
X-7015714Y6615238D01*
X-6872857Y6567619D01*
X-6777619Y6567619D01*
X-6634761Y6615238D01*
X-6539523Y6710476D01*
X-6491904Y6805714D01*
X-6444285Y6996190D01*
X-6444285Y7139047D01*
X-6491904Y7329523D01*
X-6539523Y7424761D01*
X-6634761Y7520000D01*
X-6777619Y7567619D01*
X-6872857Y7567619D01*
X-7015714Y7520000D01*
X-7063333Y7472380D01*
X-7920476Y7234285D02*
X-7920476Y6567619D01*
X-7682380Y7615238D02*
X-7444285Y6900952D01*
X-8063333Y6900952D01*
X6572857Y9967619D02*
X6906190Y10443809D01*
X7144285Y9967619D02*
X7144285Y10967619D01*
X6763333Y10967619D01*
X6668095Y10920000D01*
X6620476Y10872380D01*
X6572857Y10777142D01*
X6572857Y10634285D01*
X6620476Y10539047D01*
X6668095Y10491428D01*
X6763333Y10443809D01*
X7144285Y10443809D01*
X5620476Y9967619D02*
X6191904Y9967619D01*
X5906190Y9967619D02*
X5906190Y10967619D01*
X6001428Y10824761D01*
X6096666Y10729523D01*
X6191904Y10681904D01*
X5049047Y10539047D02*
X5144285Y10586666D01*
X5191904Y10634285D01*
X5239523Y10729523D01*
X5239523Y10777142D01*
X5191904Y10872380D01*
X5144285Y10920000D01*
X5049047Y10967619D01*
X4858571Y10967619D01*
X4763333Y10920000D01*
X4715714Y10872380D01*
X4668095Y10777142D01*
X4668095Y10729523D01*
X4715714Y10634285D01*
X4763333Y10586666D01*
X4858571Y10539047D01*
X5049047Y10539047D01*
X5144285Y10491428D01*
X5191904Y10443809D01*
X5239523Y10348571D01*
X5239523Y10158095D01*
X5191904Y10062857D01*
X5144285Y10015238D01*
X5049047Y9967619D01*
X4858571Y9967619D01*
X4763333Y10015238D01*
X4715714Y10062857D01*
X4668095Y10158095D01*
X4668095Y10348571D01*
X4715714Y10443809D01*
X4763333Y10491428D01*
X4858571Y10539047D01*
X5692857Y16317619D02*
X6026190Y16793809D01*
X6264285Y16317619D02*
X6264285Y17317619D01*
X5883333Y17317619D01*
X5788095Y17270000D01*
X5740476Y17222380D01*
X5692857Y17127142D01*
X5692857Y16984285D01*
X5740476Y16889047D01*
X5788095Y16841428D01*
X5883333Y16793809D01*
X6264285Y16793809D01*
X4740476Y16317619D02*
X5311904Y16317619D01*
X5026190Y16317619D02*
X5026190Y17317619D01*
X5121428Y17174761D01*
X5216666Y17079523D01*
X5311904Y17031904D01*
X4264285Y16317619D02*
X4073809Y16317619D01*
X3978571Y16365238D01*
X3930952Y16412857D01*
X3835714Y16555714D01*
X3788095Y16746190D01*
X3788095Y17127142D01*
X3835714Y17222380D01*
X3883333Y17270000D01*
X3978571Y17317619D01*
X4169047Y17317619D01*
X4264285Y17270000D01*
X4311904Y17222380D01*
X4359523Y17127142D01*
X4359523Y16889047D01*
X4311904Y16793809D01*
X4264285Y16746190D01*
X4169047Y16698571D01*
X3978571Y16698571D01*
X3883333Y16746190D01*
X3835714Y16793809D01*
X3788095Y16889047D01*
X3228095Y9687619D02*
X3228095Y10687619D01*
X2990000Y10687619D01*
X2847142Y10640000D01*
X2751904Y10544761D01*
X2704285Y10449523D01*
X2656666Y10259047D01*
X2656666Y10116190D01*
X2704285Y9925714D01*
X2751904Y9830476D01*
X2847142Y9735238D01*
X2990000Y9687619D01*
X3228095Y9687619D01*
X2323333Y10687619D02*
X1656666Y10687619D01*
X2085238Y9687619D01*
X-6637853Y-3186082D02*
X-6590234Y-3233701D01*
X-6447377Y-3281320D01*
X-6352139Y-3281320D01*
X-6209281Y-3233701D01*
X-6114043Y-3138463D01*
X-6066424Y-3043225D01*
X-6018805Y-2852749D01*
X-6018805Y-2709892D01*
X-6066424Y-2519416D01*
X-6114043Y-2424178D01*
X-6209281Y-2328940D01*
X-6352139Y-2281320D01*
X-6447377Y-2281320D01*
X-6590234Y-2328940D01*
X-6637853Y-2376559D01*
X-7590234Y-3281320D02*
X-7018805Y-3281320D01*
X-7304519Y-3281320D02*
X-7304519Y-2281320D01*
X-7209281Y-2424178D01*
X-7114043Y-2519416D01*
X-7018805Y-2567035D01*
X-12325714Y7804285D02*
X-12287619Y7766190D01*
X-12173333Y7728095D01*
X-12097142Y7728095D01*
X-11982857Y7766190D01*
X-11906666Y7842380D01*
X-11868571Y7918571D01*
X-11830476Y8070952D01*
X-11830476Y8185238D01*
X-11868571Y8337619D01*
X-11906666Y8413809D01*
X-11982857Y8490000D01*
X-12097142Y8528095D01*
X-12173333Y8528095D01*
X-12287619Y8490000D01*
X-12325714Y8451904D01*
X-12630476Y8451904D02*
X-12668571Y8490000D01*
X-12744761Y8528095D01*
X-12935238Y8528095D01*
X-13011428Y8490000D01*
X-13049523Y8451904D01*
X-13087619Y8375714D01*
X-13087619Y8299523D01*
X-13049523Y8185238D01*
X-12592380Y7728095D01*
X-13087619Y7728095D01*
X-13773333Y8528095D02*
X-13620952Y8528095D01*
X-13544761Y8490000D01*
X-13506666Y8451904D01*
X-13430476Y8337619D01*
X-13392380Y8185238D01*
X-13392380Y7880476D01*
X-13430476Y7804285D01*
X-13468571Y7766190D01*
X-13544761Y7728095D01*
X-13697142Y7728095D01*
X-13773333Y7766190D01*
X-13811428Y7804285D01*
X-13849523Y7880476D01*
X-13849523Y8070952D01*
X-13811428Y8147142D01*
X-13773333Y8185238D01*
X-13697142Y8223333D01*
X-13544761Y8223333D01*
X-13468571Y8185238D01*
X-13430476Y8147142D01*
X-13392380Y8070952D01*
X-6285714Y8814285D02*
X-6247619Y8776190D01*
X-6133333Y8738095D01*
X-6057142Y8738095D01*
X-5942857Y8776190D01*
X-5866666Y8852380D01*
X-5828571Y8928571D01*
X-5790476Y9080952D01*
X-5790476Y9195238D01*
X-5828571Y9347619D01*
X-5866666Y9423809D01*
X-5942857Y9500000D01*
X-6057142Y9538095D01*
X-6133333Y9538095D01*
X-6247619Y9500000D01*
X-6285714Y9461904D01*
X-6590476Y9461904D02*
X-6628571Y9500000D01*
X-6704761Y9538095D01*
X-6895238Y9538095D01*
X-6971428Y9500000D01*
X-7009523Y9461904D01*
X-7047619Y9385714D01*
X-7047619Y9309523D01*
X-7009523Y9195238D01*
X-6552380Y8738095D01*
X-7047619Y8738095D01*
X-7314285Y9538095D02*
X-7847619Y9538095D01*
X-7504761Y8738095D01*
X-5407142Y-27107142D02*
X-5359523Y-27154761D01*
X-5216666Y-27202380D01*
X-5121428Y-27202380D01*
X-4978571Y-27154761D01*
X-4883333Y-27059523D01*
X-4835714Y-26964285D01*
X-4788095Y-26773809D01*
X-4788095Y-26630952D01*
X-4835714Y-26440476D01*
X-4883333Y-26345238D01*
X-4978571Y-26250000D01*
X-5121428Y-26202380D01*
X-5216666Y-26202380D01*
X-5359523Y-26250000D01*
X-5407142Y-26297619D01*
X-5788095Y-26297619D02*
X-5835714Y-26250000D01*
X-5930952Y-26202380D01*
X-6169047Y-26202380D01*
X-6264285Y-26250000D01*
X-6311904Y-26297619D01*
X-6359523Y-26392857D01*
X-6359523Y-26488095D01*
X-6311904Y-26630952D01*
X-5740476Y-27202380D01*
X-6359523Y-27202380D01*
X-6930952Y-26630952D02*
X-6835714Y-26583333D01*
X-6788095Y-26535714D01*
X-6740476Y-26440476D01*
X-6740476Y-26392857D01*
X-6788095Y-26297619D01*
X-6835714Y-26250000D01*
X-6930952Y-26202380D01*
X-7121428Y-26202380D01*
X-7216666Y-26250000D01*
X-7264285Y-26297619D01*
X-7311904Y-26392857D01*
X-7311904Y-26440476D01*
X-7264285Y-26535714D01*
X-7216666Y-26583333D01*
X-7121428Y-26630952D01*
X-6930952Y-26630952D01*
X-6835714Y-26678571D01*
X-6788095Y-26726190D01*
X-6740476Y-26821428D01*
X-6740476Y-27011904D01*
X-6788095Y-27107142D01*
X-6835714Y-27154761D01*
X-6930952Y-27202380D01*
X-7121428Y-27202380D01*
X-7216666Y-27154761D01*
X-7264285Y-27107142D01*
X-7311904Y-27011904D01*
X-7311904Y-26821428D01*
X-7264285Y-26726190D01*
X-7216666Y-26678571D01*
X-7121428Y-26630952D01*
X-11721722Y-3198782D02*
X-11674103Y-3246401D01*
X-11531246Y-3294020D01*
X-11436008Y-3294020D01*
X-11293151Y-3246401D01*
X-11197913Y-3151163D01*
X-11150294Y-3055925D01*
X-11102675Y-2865449D01*
X-11102675Y-2722592D01*
X-11150294Y-2532116D01*
X-11197913Y-2436878D01*
X-11293151Y-2341640D01*
X-11436008Y-2294020D01*
X-11531246Y-2294020D01*
X-11674103Y-2341640D01*
X-11721722Y-2389259D01*
X-12102675Y-2389259D02*
X-12150294Y-2341640D01*
X-12245532Y-2294020D01*
X-12483627Y-2294020D01*
X-12578865Y-2341640D01*
X-12626484Y-2389259D01*
X-12674103Y-2484497D01*
X-12674103Y-2579735D01*
X-12626484Y-2722592D01*
X-12055056Y-3294020D01*
X-12674103Y-3294020D01*
X-13150294Y-3294020D02*
X-13340770Y-3294020D01*
X-13436008Y-3246401D01*
X-13483627Y-3198782D01*
X-13578865Y-3055925D01*
X-13626484Y-2865449D01*
X-13626484Y-2484497D01*
X-13578865Y-2389259D01*
X-13531246Y-2341640D01*
X-13436008Y-2294020D01*
X-13245532Y-2294020D01*
X-13150294Y-2341640D01*
X-13102675Y-2389259D01*
X-13055056Y-2484497D01*
X-13055056Y-2722592D01*
X-13102675Y-2817830D01*
X-13150294Y-2865449D01*
X-13245532Y-2913068D01*
X-13436008Y-2913068D01*
X-13531246Y-2865449D01*
X-13578865Y-2817830D01*
X-13626484Y-2722592D01*
D16*
X-1782838Y4241316D02*
X-1782838Y5511316D01*
X-3113314Y4362268D02*
X-3052838Y4301792D01*
X-2871409Y4241316D01*
X-2750457Y4241316D01*
X-2569028Y4301792D01*
X-2448076Y4422744D01*
X-2387600Y4543697D01*
X-2327123Y4785601D01*
X-2327123Y4967030D01*
X-2387600Y5208935D01*
X-2448076Y5329887D01*
X-2569028Y5450840D01*
X-2750457Y5511316D01*
X-2871409Y5511316D01*
X-3052838Y5450840D01*
X-3113314Y5390363D01*
X-3536647Y5511316D02*
X-4383314Y5511316D01*
X-3839028Y4241316D01*
D10*
X-8304829Y-3354980D02*
X-8304829Y-2354980D01*
X-9352448Y-3259742D02*
X-9304829Y-3307361D01*
X-9161972Y-3354980D01*
X-9066734Y-3354980D01*
X-8923877Y-3307361D01*
X-8828639Y-3212123D01*
X-8781020Y-3116885D01*
X-8733400Y-2926409D01*
X-8733400Y-2783552D01*
X-8781020Y-2593076D01*
X-8828639Y-2497838D01*
X-8923877Y-2402600D01*
X-9066734Y-2354980D01*
X-9161972Y-2354980D01*
X-9304829Y-2402600D01*
X-9352448Y-2450219D01*
X-9828639Y-3354980D02*
X-10019115Y-3354980D01*
X-10114353Y-3307361D01*
X-10161972Y-3259742D01*
X-10257210Y-3116885D01*
X-10304829Y-2926409D01*
X-10304829Y-2545457D01*
X-10257210Y-2450219D01*
X-10209591Y-2402600D01*
X-10114353Y-2354980D01*
X-9923877Y-2354980D01*
X-9828639Y-2402600D01*
X-9781020Y-2450219D01*
X-9733400Y-2545457D01*
X-9733400Y-2783552D01*
X-9781020Y-2878790D01*
X-9828639Y-2926409D01*
X-9923877Y-2974028D01*
X-10114353Y-2974028D01*
X-10209591Y-2926409D01*
X-10257210Y-2878790D01*
X-10304829Y-2783552D01*
X3129540Y24506157D02*
X2653350Y24839490D01*
X3129540Y25077585D02*
X2129540Y25077585D01*
X2129540Y24696633D01*
X2177160Y24601395D01*
X2224779Y24553776D01*
X2320017Y24506157D01*
X2462874Y24506157D01*
X2558112Y24553776D01*
X2605731Y24601395D01*
X2653350Y24696633D01*
X2653350Y25077585D01*
X2224779Y24125204D02*
X2177160Y24077585D01*
X2129540Y23982347D01*
X2129540Y23744252D01*
X2177160Y23649014D01*
X2224779Y23601395D01*
X2320017Y23553776D01*
X2415255Y23553776D01*
X2558112Y23601395D01*
X3129540Y24172823D01*
X3129540Y23553776D01*
X3129540Y23077585D02*
X3129540Y22887109D01*
X3081921Y22791871D01*
X3034302Y22744252D01*
X2891445Y22649014D01*
X2700969Y22601395D01*
X2320017Y22601395D01*
X2224779Y22649014D01*
X2177160Y22696633D01*
X2129540Y22791871D01*
X2129540Y22982347D01*
X2177160Y23077585D01*
X2224779Y23125204D01*
X2320017Y23172823D01*
X2558112Y23172823D01*
X2653350Y23125204D01*
X2700969Y23077585D01*
X2748588Y22982347D01*
X2748588Y22791871D01*
X2700969Y22696633D01*
X2653350Y22649014D01*
X2558112Y22601395D01*
X9222857Y-382380D02*
X9556190Y93809D01*
X9794285Y-382380D02*
X9794285Y617619D01*
X9413333Y617619D01*
X9318095Y570000D01*
X9270476Y522380D01*
X9222857Y427142D01*
X9222857Y284285D01*
X9270476Y189047D01*
X9318095Y141428D01*
X9413333Y93809D01*
X9794285Y93809D01*
X8889523Y617619D02*
X8270476Y617619D01*
X8603809Y236666D01*
X8460952Y236666D01*
X8365714Y189047D01*
X8318095Y141428D01*
X8270476Y46190D01*
X8270476Y-191904D01*
X8318095Y-287142D01*
X8365714Y-334761D01*
X8460952Y-382380D01*
X8746666Y-382380D01*
X8841904Y-334761D01*
X8889523Y-287142D01*
X7651428Y617619D02*
X7556190Y617619D01*
X7460952Y570000D01*
X7413333Y522380D01*
X7365714Y427142D01*
X7318095Y236666D01*
X7318095Y-1428D01*
X7365714Y-191904D01*
X7413333Y-287142D01*
X7460952Y-334761D01*
X7556190Y-382380D01*
X7651428Y-382380D01*
X7746666Y-334761D01*
X7794285Y-287142D01*
X7841904Y-191904D01*
X7889523Y-1428D01*
X7889523Y236666D01*
X7841904Y427142D01*
X7794285Y522380D01*
X7746666Y570000D01*
X7651428Y617619D01*
X1293897Y1176339D02*
X1627230Y1652529D01*
X1865325Y1176339D02*
X1865325Y2176339D01*
X1484373Y2176339D01*
X1389135Y2128720D01*
X1341516Y2081100D01*
X1293897Y1985862D01*
X1293897Y1843005D01*
X1341516Y1747767D01*
X1389135Y1700148D01*
X1484373Y1652529D01*
X1865325Y1652529D01*
X960563Y2176339D02*
X341516Y2176339D01*
X674849Y1795386D01*
X531992Y1795386D01*
X436754Y1747767D01*
X389135Y1700148D01*
X341516Y1604910D01*
X341516Y1366815D01*
X389135Y1271577D01*
X436754Y1223958D01*
X531992Y1176339D01*
X817706Y1176339D01*
X912944Y1223958D01*
X960563Y1271577D01*
X-610864Y1176339D02*
X-39436Y1176339D01*
X-325150Y1176339D02*
X-325150Y2176339D01*
X-229912Y2033481D01*
X-134674Y1938243D01*
X-39436Y1890624D01*
X1293897Y3208339D02*
X1627230Y3684529D01*
X1865325Y3208339D02*
X1865325Y4208339D01*
X1484373Y4208339D01*
X1389135Y4160720D01*
X1341516Y4113100D01*
X1293897Y4017862D01*
X1293897Y3875005D01*
X1341516Y3779767D01*
X1389135Y3732148D01*
X1484373Y3684529D01*
X1865325Y3684529D01*
X960563Y4208339D02*
X341516Y4208339D01*
X674849Y3827386D01*
X531992Y3827386D01*
X436754Y3779767D01*
X389135Y3732148D01*
X341516Y3636910D01*
X341516Y3398815D01*
X389135Y3303577D01*
X436754Y3255958D01*
X531992Y3208339D01*
X817706Y3208339D01*
X912944Y3255958D01*
X960563Y3303577D01*
X8182Y4208339D02*
X-610864Y4208339D01*
X-277531Y3827386D01*
X-420388Y3827386D01*
X-515626Y3779767D01*
X-563245Y3732148D01*
X-610864Y3636910D01*
X-610864Y3398815D01*
X-563245Y3303577D01*
X-515626Y3255958D01*
X-420388Y3208339D01*
X-134674Y3208339D01*
X-39436Y3255958D01*
X8182Y3303577D01*
X8024897Y6891339D02*
X8358230Y7367529D01*
X8596325Y6891339D02*
X8596325Y7891339D01*
X8215373Y7891339D01*
X8120135Y7843720D01*
X8072516Y7796100D01*
X8024897Y7700862D01*
X8024897Y7558005D01*
X8072516Y7462767D01*
X8120135Y7415148D01*
X8215373Y7367529D01*
X8596325Y7367529D01*
X7691563Y7891339D02*
X7072516Y7891339D01*
X7405849Y7510386D01*
X7262992Y7510386D01*
X7167754Y7462767D01*
X7120135Y7415148D01*
X7072516Y7319910D01*
X7072516Y7081815D01*
X7120135Y6986577D01*
X7167754Y6938958D01*
X7262992Y6891339D01*
X7548706Y6891339D01*
X7643944Y6938958D01*
X7691563Y6986577D01*
X6215373Y7558005D02*
X6215373Y6891339D01*
X6453468Y7938958D02*
X6691563Y7224672D01*
X6072516Y7224672D01*
X1293897Y5240339D02*
X1627230Y5716529D01*
X1865325Y5240339D02*
X1865325Y6240339D01*
X1484373Y6240339D01*
X1389135Y6192720D01*
X1341516Y6145100D01*
X1293897Y6049862D01*
X1293897Y5907005D01*
X1341516Y5811767D01*
X1389135Y5764148D01*
X1484373Y5716529D01*
X1865325Y5716529D01*
X960563Y6240339D02*
X341516Y6240339D01*
X674849Y5859386D01*
X531992Y5859386D01*
X436754Y5811767D01*
X389135Y5764148D01*
X341516Y5668910D01*
X341516Y5430815D01*
X389135Y5335577D01*
X436754Y5287958D01*
X531992Y5240339D01*
X817706Y5240339D01*
X912944Y5287958D01*
X960563Y5335577D01*
X-563245Y6240339D02*
X-87055Y6240339D01*
X-39436Y5764148D01*
X-87055Y5811767D01*
X-182293Y5859386D01*
X-420388Y5859386D01*
X-515626Y5811767D01*
X-563245Y5764148D01*
X-610864Y5668910D01*
X-610864Y5430815D01*
X-563245Y5335577D01*
X-515626Y5287958D01*
X-420388Y5240339D01*
X-182293Y5240339D01*
X-87055Y5287958D01*
X-39436Y5335577D01*
X-9403809Y10523809D02*
X-9403809Y10047619D01*
X-9070476Y11047619D02*
X-9403809Y10523809D01*
X-9737142Y11047619D01*
X-10594285Y10047619D02*
X-10022857Y10047619D01*
X-10308571Y10047619D02*
X-10308571Y11047619D01*
X-10213333Y10904761D01*
X-10118095Y10809523D01*
X-10022857Y10761904D01*
X13316480Y9052797D02*
X12840290Y9386130D01*
X13316480Y9624225D02*
X12316480Y9624225D01*
X12316480Y9243273D01*
X12364100Y9148035D01*
X12411719Y9100416D01*
X12506957Y9052797D01*
X12649814Y9052797D01*
X12745052Y9100416D01*
X12792671Y9148035D01*
X12840290Y9243273D01*
X12840290Y9624225D01*
X12316480Y8719463D02*
X12316480Y8100416D01*
X12697433Y8433749D01*
X12697433Y8290892D01*
X12745052Y8195654D01*
X12792671Y8148035D01*
X12887909Y8100416D01*
X13126004Y8100416D01*
X13221242Y8148035D01*
X13268861Y8195654D01*
X13316480Y8290892D01*
X13316480Y8576606D01*
X13268861Y8671844D01*
X13221242Y8719463D01*
X12745052Y7528987D02*
X12697433Y7624225D01*
X12649814Y7671844D01*
X12554576Y7719463D01*
X12506957Y7719463D01*
X12411719Y7671844D01*
X12364100Y7624225D01*
X12316480Y7528987D01*
X12316480Y7338511D01*
X12364100Y7243273D01*
X12411719Y7195654D01*
X12506957Y7148035D01*
X12554576Y7148035D01*
X12649814Y7195654D01*
X12697433Y7243273D01*
X12745052Y7338511D01*
X12745052Y7528987D01*
X12792671Y7624225D01*
X12840290Y7671844D01*
X12935528Y7719463D01*
X13126004Y7719463D01*
X13221242Y7671844D01*
X13268861Y7624225D01*
X13316480Y7528987D01*
X13316480Y7338511D01*
X13268861Y7243273D01*
X13221242Y7195654D01*
X13126004Y7148035D01*
X12935528Y7148035D01*
X12840290Y7195654D01*
X12792671Y7243273D01*
X12745052Y7338511D01*
M02*
