G04 #@! TF.GenerationSoftware,KiCad,Pcbnew,(5.1.4)-1*
G04 #@! TF.CreationDate,2020-08-10T08:42:24-07:00*
G04 #@! TF.ProjectId,SkateLightMainBoard,536b6174-654c-4696-9768-744d61696e42,rev?*
G04 #@! TF.SameCoordinates,Original*
G04 #@! TF.FileFunction,Copper,L3,Inr*
G04 #@! TF.FilePolarity,Positive*
%FSLAX46Y46*%
G04 Gerber Fmt 4.6, Leading zero omitted, Abs format (unit mm)*
G04 Created by KiCad (PCBNEW (5.1.4)-1) date 2020-08-10 08:42:24*
%MOMM*%
%LPD*%
G04 APERTURE LIST*
%ADD10C,1.016000*%
%ADD11C,4.318000*%
%ADD12R,1.700000X1.700000*%
%ADD13O,1.700000X1.700000*%
%ADD14C,0.600000*%
%ADD15C,0.152400*%
%ADD16C,3.000000*%
%ADD17C,0.350000*%
%ADD18C,0.500000*%
%ADD19C,0.200000*%
%ADD20C,0.700000*%
%ADD21C,0.254000*%
G04 APERTURE END LIST*
D10*
X-4445000Y-33613000D03*
X-4445000Y-34883000D03*
X-3175000Y-33613000D03*
X-3175000Y-34883000D03*
X-1905000Y-33613000D03*
X-1905000Y-34883000D03*
X-635000Y-33613000D03*
X-635000Y-34883000D03*
X635000Y-33613000D03*
X635000Y-34883000D03*
X1905000Y-33613000D03*
X1905000Y-34883000D03*
X3175000Y-33613000D03*
X3175000Y-34883000D03*
X4445000Y-33613000D03*
X4445000Y-34883000D03*
D11*
X-19685000Y9660000D03*
X-19685000Y-13843000D03*
X19685000Y9660000D03*
X19685000Y-13843000D03*
D12*
X4730000Y12360000D03*
D13*
X4730000Y14900000D03*
X7270000Y12360000D03*
X7270000Y14900000D03*
X9810000Y12360000D03*
X9810000Y14900000D03*
D14*
X-16510000Y-13970000D03*
X16370300Y-15471140D03*
X-21590000Y-11430000D03*
X-16510000Y-11430000D03*
X21590000Y-11430000D03*
X-21590000Y-8890000D03*
X-19050000Y-8890000D03*
X-16510000Y-8890000D03*
X19050000Y-8890000D03*
X21590000Y-8890000D03*
X-21590000Y-6350000D03*
X-19050000Y-6350000D03*
X-16510000Y-6350000D03*
X19050000Y-6350000D03*
X21590000Y-6350000D03*
X-21590000Y-3810000D03*
X-19050000Y-3810000D03*
X-16510000Y-3810000D03*
X21590000Y-3810000D03*
X-21590000Y-1270000D03*
X-19050000Y-1270000D03*
X-16510000Y-1270000D03*
X17655540Y-3312160D03*
X21590000Y-1270000D03*
X-21590000Y1270000D03*
X-19050000Y1270000D03*
X-16510000Y1270000D03*
X16510000Y1270000D03*
X19140000Y1280000D03*
X21590000Y1270000D03*
X-21590000Y3810000D03*
X-19050000Y3810000D03*
X-16510000Y3810000D03*
X16510000Y3810000D03*
X19050000Y3810000D03*
X21590000Y3810000D03*
X-21590000Y6350000D03*
X-19050000Y6350000D03*
X-16510000Y6350000D03*
X16510000Y6350000D03*
X19050000Y6350000D03*
X21590000Y6350000D03*
X-16510000Y8890000D03*
X16510000Y8890000D03*
X-16510000Y11430000D03*
X16510000Y11430000D03*
X11430000Y21590000D03*
X11430000Y24130000D03*
X11470000Y19300000D03*
X-8420000Y10770000D03*
X-11474088Y15337912D03*
X2320000Y18360000D03*
X-2490000Y19550000D03*
X-4240000Y20330000D03*
X-5920000Y20290000D03*
X-7870000Y21180000D03*
X-6590000Y18300000D03*
X3540000Y24940000D03*
X-10890000Y19800000D03*
X-6910000Y8230000D03*
X-13470000Y16060000D03*
X-6250000Y1630000D03*
X900000Y1570000D03*
X710000Y6600000D03*
X750000Y4040000D03*
X13600000Y-16970000D03*
X13580000Y-22560000D03*
X13340000Y-33720000D03*
X8190000Y-35050000D03*
X4880000Y-36680000D03*
X-4960000Y-36850000D03*
X-1640000Y-36860000D03*
X1720000Y-36860000D03*
X-8150000Y-33880000D03*
X-10560000Y-31470000D03*
X-10900000Y-34000000D03*
X-12380000Y-34180000D03*
X-12360000Y-32060000D03*
X-12380000Y-33150000D03*
X-6930000Y-28280000D03*
X-4950000Y-27710000D03*
X-6500000Y-26530000D03*
X-4780000Y-26770000D03*
X-5700000Y-23870000D03*
X-12040000Y-21080000D03*
X-11530000Y-23210000D03*
X-3800000Y-17840000D03*
X-4000000Y-11000000D03*
X-4750000Y-8750000D03*
X180000Y-9000000D03*
X9291080Y-20045680D03*
X9296160Y-18016220D03*
X5320000Y-19550000D03*
X4300000Y-18120000D03*
X3780000Y-18820000D03*
X3260000Y-19500000D03*
X13540000Y-19790000D03*
X-2620000Y1190000D03*
X-9750000Y340000D03*
X-9590000Y3770000D03*
X-6770000Y6130000D03*
X-3960000Y-29660000D03*
X5350000Y-27090000D03*
X10570000Y-3340000D03*
X5490000Y-3310000D03*
X4120000Y20490000D03*
X9400000Y10340000D03*
X830000Y15050000D03*
X710000Y12200000D03*
X13080000Y10920000D03*
X20159Y-29979841D03*
X736600Y18646140D03*
X17035780Y-11816080D03*
X19194780Y-1214120D03*
X9679940Y-13187680D03*
X9679940Y-10802620D03*
X10624820Y-8836660D03*
X9330000Y-22160000D03*
X9340000Y-21460000D03*
X-12460000Y-8980000D03*
X-12460000Y-9810000D03*
X-12460000Y-10600000D03*
X-12460000Y-11400000D03*
X-3780000Y-28590000D03*
X-10901680Y-4999860D03*
X-7950725Y5521028D03*
X-500000Y11010000D03*
X-7570000Y7800000D03*
X9330000Y-22850000D03*
X13270000Y3590000D03*
X-5440000Y990000D03*
X-9660000Y1240000D03*
X-3985714Y17480880D03*
X-7640000Y13330000D03*
X-7080000Y17470000D03*
X6000000Y-11000000D03*
X5000000Y-10000000D03*
X6000000Y-10000000D03*
X6000000Y-9000000D03*
X7000000Y-10000000D03*
X-5470000Y-11270000D03*
X-7400000Y-5180000D03*
X-347042Y-28948897D03*
X-15268Y16009099D03*
X-4529796Y18000590D03*
X9936480Y21597620D03*
X13519073Y7325992D03*
X-3233807Y17453303D03*
X10550000Y900000D03*
X13130000Y7970000D03*
X-2482810Y17499419D03*
X300000Y-19600000D03*
X-700000Y-18600000D03*
X-700000Y-17600000D03*
X300000Y-17600000D03*
X1300000Y-17600000D03*
X1300000Y-18600000D03*
X320000Y-18620000D03*
X-13080000Y16820000D03*
X-6500000Y19368610D03*
X13624560Y1143000D03*
X13708098Y5905500D03*
X5778500Y8160242D03*
X1887220Y9408160D03*
X1121063Y16465366D03*
X-6538640Y-33075880D03*
X-12200000Y13300000D03*
X-12650000Y21780000D03*
X-12200000Y17608610D03*
X-5493345Y17446446D03*
X-6280000Y17470000D03*
X-8027384Y18685849D03*
X-8690000Y16715062D03*
X-7480000Y18110000D03*
X-7960000Y-35273100D03*
X-7290000Y18840000D03*
X-3896114Y-24526601D03*
X3139172Y-30748962D03*
X-7800000Y-16500000D03*
X-8800000Y-16500000D03*
X-9800000Y-16500000D03*
X-9800000Y-14500000D03*
X-8800000Y-14500000D03*
X-7800000Y-14500000D03*
X-7800000Y-15500000D03*
X-8800000Y-15500000D03*
X-9800000Y-15500000D03*
X-10120000Y-27690000D03*
X-3913659Y-25819783D03*
X-11488232Y-25170000D03*
X4830000Y-25450000D03*
X-4765337Y-19958074D03*
X-7985646Y-27776731D03*
X-7540000Y-7920000D03*
X-8730000Y-18318142D03*
X-7984202Y-25177262D03*
X5360000Y-18580000D03*
X-331740Y24798260D03*
X-5910000Y-28340000D03*
X-3460000Y-18560000D03*
X-10915238Y-246647D03*
X-10590000Y1920000D03*
X-6780000Y2732500D03*
X-2240000Y20910000D03*
X-2280000Y11120000D03*
X520000Y5630000D03*
X12138660Y-32067500D03*
X12143740Y-31115000D03*
X13195300Y-32090360D03*
X12153900Y-33065720D03*
X11140440Y-32072580D03*
X11166080Y-20045680D03*
X8110000Y-32720000D03*
X-5430000Y5380000D03*
X4213860Y-1226820D03*
X3723640Y-1932940D03*
X4724400Y-1965960D03*
X4198620Y-2707640D03*
X1825000Y1055000D03*
X11492411Y-15307491D03*
X10558780Y-15308580D03*
X11485880Y-14401800D03*
X12486640Y-15298420D03*
X11496040Y-16202660D03*
X11171160Y-18016220D03*
X-3016436Y21722349D03*
X4210000Y10460000D03*
X4204249Y16091569D03*
X1698108Y15982518D03*
X3931390Y21814555D03*
X13310000Y17560000D03*
X10490000Y17000000D03*
X-4810000Y-19200000D03*
X-4580000Y-17820000D03*
X-4552410Y22472410D03*
X13708098Y10341960D03*
X6910000Y23280000D03*
X-7183820Y23337407D03*
X-7081898Y-19947844D03*
X8691390Y16470367D03*
X9832368Y6777793D03*
X-8241031Y23349903D03*
X7048744Y20212178D03*
X-6547626Y-19203328D03*
X7500000Y4190382D03*
X4180000Y8890000D03*
X6656542Y17555574D03*
X-643754Y941786D03*
X-3428024Y23150521D03*
X-7977587Y-18318142D03*
X-2567187Y22330903D03*
X9390000Y-16300000D03*
X13707668Y8498610D03*
X5281390Y16445344D03*
X-2307590Y23310258D03*
X3045180Y18150000D03*
X2530001Y7140001D03*
X-3335292Y22403846D03*
X3695962Y17565433D03*
X6671863Y9296729D03*
X12420000Y18280000D03*
X-4572412Y23232617D03*
X13708088Y9251021D03*
X7416214Y1187730D03*
X12840000Y6730000D03*
X4710000Y8050000D03*
X-5629623Y23241765D03*
X4391176Y17148780D03*
X-6186020Y22735261D03*
X-1419860Y-1226820D03*
X650000Y7832500D03*
X-3959860Y-1226820D03*
X650000Y9707500D03*
D15*
X-7950725Y5945292D02*
X-6506017Y7390000D01*
X-7950725Y5521028D02*
X-7950725Y5945292D01*
X-6506017Y7390000D02*
X-2700000Y7390000D01*
X-2700000Y7390000D02*
X-500000Y9590000D01*
X-500000Y9590000D02*
X-500000Y11010000D01*
X-12003421Y10895924D02*
X-9569345Y13330000D01*
X-1128000Y-31850000D02*
X-6830000Y-31850000D01*
X-10654811Y-8227047D02*
X-12003422Y-6878436D01*
X635000Y-33613000D02*
X-1128000Y-31850000D01*
X-6830000Y-31850000D02*
X-10654811Y-28025189D01*
X-10654811Y-28025189D02*
X-10654811Y-8227047D01*
X-9569345Y13330000D02*
X-8064264Y13330000D01*
X-12003422Y-6878436D02*
X-12003421Y10895924D01*
X-8064264Y13330000D02*
X-7640000Y13330000D01*
X-8183758Y17853286D02*
X-7800473Y17470000D01*
X-1682000Y-35930000D02*
X-4922134Y-35930000D01*
X-10296714Y17853286D02*
X-8183758Y17853286D01*
X-13528864Y-27323270D02*
X-13528864Y14621136D01*
X-13528864Y14621136D02*
X-10296714Y17853286D01*
X-7800473Y17470000D02*
X-7504264Y17470000D01*
X-4922134Y-35930000D02*
X-13528864Y-27323270D01*
X-7504264Y17470000D02*
X-7080000Y17470000D01*
X-635000Y-34883000D02*
X-1682000Y-35930000D01*
D16*
X4647401Y-32722599D02*
X2941993Y-32722599D01*
X2941993Y-32722599D02*
X2795401Y-32722599D01*
X7338679Y-30031321D02*
X4647401Y-32722599D01*
X7338679Y-16693303D02*
X7338679Y-30031321D01*
X6000000Y-15354624D02*
X7338679Y-16693303D01*
X6000000Y-10000000D02*
X6000000Y-15354624D01*
D15*
X5600000Y-25330000D02*
X5600000Y-25310000D01*
X5600000Y-25310000D02*
X4980000Y-24690000D01*
X4980000Y-24690000D02*
X2810000Y-24690000D01*
X2810000Y-24690000D02*
X-2070000Y-19810000D01*
X-2070000Y-19810000D02*
X-2070000Y-15570000D01*
X-2070000Y-15570000D02*
X-3900000Y-13740000D01*
X-3900000Y-13740000D02*
X-5720000Y-11920000D01*
X-5720000Y-11920000D02*
X-5720000Y-11520000D01*
X-5720000Y-11520000D02*
X-5470000Y-11270000D01*
X1851855Y-26750000D02*
X4830000Y-26750000D01*
X4830000Y-26750000D02*
X5600000Y-25980000D01*
X5600000Y-25980000D02*
X5600000Y-25330000D01*
X-347042Y-28948897D02*
X1851855Y-26750000D01*
X110000Y9740000D02*
X110000Y15459567D01*
X-7400000Y-5180000D02*
X-7400000Y-4755736D01*
X-4490000Y-1845736D02*
X-4490000Y5140000D01*
X-7400000Y-4755736D02*
X-4490000Y-1845736D01*
X-4490000Y5140000D02*
X110000Y9740000D01*
X110000Y15459567D02*
X-15268Y15584835D01*
X-15268Y15584835D02*
X-15268Y16009099D01*
X10550000Y3520000D02*
X14150000Y7120000D01*
X10550000Y900000D02*
X10550000Y3520000D01*
X14150000Y7120000D02*
X14150000Y7540000D01*
X14150000Y7540000D02*
X13720000Y7970000D01*
X13720000Y7970000D02*
X13130000Y7970000D01*
X-6924264Y19368610D02*
X-6500000Y19368610D01*
X-9671390Y19368610D02*
X-6924264Y19368610D01*
X-12220000Y16820000D02*
X-9671390Y19368610D01*
X-13080000Y16820000D02*
X-12220000Y16820000D01*
D17*
X13708098Y4080456D02*
X13708098Y5905500D01*
X13897401Y3891153D02*
X13708098Y4080456D01*
X13624560Y1143000D02*
X13897401Y1415841D01*
X13897401Y1415841D02*
X13897401Y3891153D01*
X821064Y16165367D02*
X1121063Y16465366D01*
X1887220Y14904701D02*
X821064Y15970857D01*
X821064Y15970857D02*
X821064Y16165367D01*
X1887220Y9408160D02*
X1887220Y14904701D01*
D15*
X-11570000Y-11840000D02*
X-11570000Y-8614267D01*
X-12914431Y-27075569D02*
X-12914431Y-13184431D01*
X-12499999Y13000001D02*
X-12200000Y13300000D01*
X-12914431Y-13184431D02*
X-11570000Y-11840000D01*
X-6538640Y-33075880D02*
X-6914120Y-33075880D01*
X-12919242Y-7265025D02*
X-12919242Y12580758D01*
X-6914120Y-33075880D02*
X-12914431Y-27075569D01*
X-11570000Y-8614267D02*
X-12919242Y-7265025D01*
X-12919242Y12580758D02*
X-12499999Y13000001D01*
X-12650000Y21780000D02*
X-12200000Y21330000D01*
X-12200000Y18032874D02*
X-12200000Y17608610D01*
X-12200000Y21330000D02*
X-12200000Y18032874D01*
X-8436270Y17243664D02*
X-7797415Y16604809D01*
X-5793344Y17146447D02*
X-5493345Y17446446D01*
X-7080000Y-32470000D02*
X-12609620Y-26940380D01*
X-12614431Y-7129561D02*
X-12614431Y12115569D01*
X-10924811Y13805189D02*
X-10924811Y15876256D01*
X-1905000Y-33613000D02*
X-3048000Y-32470000D01*
X-11264433Y-8479559D02*
X-12614431Y-7129561D01*
X-11264433Y-11974433D02*
X-11264433Y-8479559D01*
X-12609620Y-13319620D02*
X-11264433Y-11974433D01*
X-12614431Y12115569D02*
X-10924811Y13805189D01*
X-3048000Y-32470000D02*
X-7080000Y-32470000D01*
X-6334982Y16604809D02*
X-5793344Y17146447D01*
X-12609620Y-26940380D02*
X-12609620Y-13319620D01*
X-9557403Y17243664D02*
X-8436270Y17243664D01*
X-10924811Y15876256D02*
X-9557403Y17243664D01*
X-7797415Y16604809D02*
X-6334982Y16604809D01*
X-7671539Y16910000D02*
X-6840000Y16910000D01*
X-6840000Y16910000D02*
X-6579999Y17170001D01*
X-1905000Y-34883000D02*
X-2641601Y-35619601D01*
X-10161525Y17548475D02*
X-8310014Y17548475D01*
X-8310014Y17548475D02*
X-7671539Y16910000D01*
X-2641601Y-35619601D02*
X-4801465Y-35619601D01*
X-4801465Y-35619601D02*
X-13224053Y-27197013D01*
X-13224053Y-27197013D02*
X-13224053Y14485947D01*
X-13224053Y14485947D02*
X-10161525Y17548475D01*
X-6579999Y17170001D02*
X-6280000Y17470000D01*
X-8690000Y16290798D02*
X-8690000Y16715062D01*
X-10959622Y-28151445D02*
X-10959622Y-8353304D01*
X-8690000Y15600000D02*
X-8690000Y16290798D01*
X-12309620Y11980380D02*
X-8690000Y15600000D01*
X-12309620Y-7003306D02*
X-12309620Y11980380D01*
X-10959622Y-8353304D02*
X-12309620Y-7003306D01*
X-6956256Y-32154811D02*
X-10959622Y-28151445D01*
X-2093189Y-32154811D02*
X-6956256Y-32154811D01*
X-635000Y-33613000D02*
X-2093189Y-32154811D01*
X-10431903Y18158097D02*
X-8057502Y18158097D01*
X-7960000Y-35273100D02*
X-13833675Y-29399425D01*
X-7904264Y18110000D02*
X-7480000Y18110000D01*
X-13833675Y-29399425D02*
X-13833675Y14756325D01*
X-13833675Y14756325D02*
X-10431903Y18158097D01*
X-8057502Y18158097D02*
X-8009405Y18110000D01*
X-8009405Y18110000D02*
X-7904264Y18110000D01*
D18*
X-10120000Y-17820000D02*
X-8800000Y-16500000D01*
X-10120000Y-27690000D02*
X-10120000Y-17820000D01*
D15*
X4830000Y-25450000D02*
X3130000Y-25450000D01*
X3130000Y-25450000D02*
X-1730000Y-20590000D01*
X-1730000Y-20590000D02*
X-4133411Y-20590000D01*
X-4465338Y-20258073D02*
X-4765337Y-19958074D01*
X-4133411Y-20590000D02*
X-4465338Y-20258073D01*
X-7985646Y-27776731D02*
X-9478609Y-26283768D01*
X-9478609Y-26283768D02*
X-9478609Y-18958855D01*
X-9137893Y-18618139D02*
X-8837894Y-18318140D01*
X-9478609Y-18958855D02*
X-9137893Y-18618139D01*
D19*
X-8837894Y-18318140D02*
X-8730002Y-18318140D01*
X-8730002Y-18318140D02*
X-8730000Y-18318142D01*
D20*
X-10590000Y1920000D02*
X-10590000Y2344264D01*
X-10590000Y2344264D02*
X-11120001Y2874265D01*
X-11120001Y2874265D02*
X-11120001Y10529999D01*
X-11120001Y10529999D02*
X-9430000Y12220000D01*
X-9430000Y12220000D02*
X-7130000Y12220000D01*
X-7130000Y12220000D02*
X-3620000Y15730000D01*
X-3620000Y15730000D02*
X-2110000Y15730000D01*
X-2110000Y15730000D02*
X-720000Y17120000D01*
X-720000Y17120000D02*
X-720000Y19390000D01*
X-720000Y19390000D02*
X-2240000Y20910000D01*
X-10590000Y78591D02*
X-10915238Y-246647D01*
X-10590000Y1920000D02*
X-10590000Y78591D01*
D17*
X-6346390Y-25437180D02*
X-6346390Y-21523610D01*
X-5910000Y-28340000D02*
X-5610001Y-28040001D01*
X-5610001Y-28040001D02*
X-5610001Y-26173569D01*
X-6346390Y-21523610D02*
X-6430000Y-21440000D01*
X-5610001Y-26173569D02*
X-6346390Y-25437180D01*
X-5437401Y-20447401D02*
X-5437401Y-18898847D01*
X-6430000Y-21440000D02*
X-5437401Y-20447401D01*
X-5437401Y-18898847D02*
X-5098554Y-18560000D01*
X-5098554Y-18560000D02*
X-3884264Y-18560000D01*
X-3884264Y-18560000D02*
X-3460000Y-18560000D01*
D20*
X-7175185Y-18703296D02*
X-7175185Y-18490881D01*
X-9760000Y-10130000D02*
X-9760000Y-1401885D01*
X-9760000Y-1401885D02*
X-10615239Y-546646D01*
X-8840000Y-20740000D02*
X-8840000Y-20368111D01*
X-6450000Y-17765696D02*
X-6450000Y-13440000D01*
X-10615239Y-546646D02*
X-10915238Y-246647D01*
X-6450000Y-13440000D02*
X-9760000Y-10130000D01*
X-7175185Y-18490881D02*
X-6450000Y-17765696D01*
X-8840000Y-20368111D02*
X-7175185Y-18703296D01*
X-8140000Y-21440000D02*
X-8840000Y-20740000D01*
X-6430000Y-21440000D02*
X-8140000Y-21440000D01*
D19*
X10420000Y-20791760D02*
X11166080Y-20045680D01*
X8110000Y-32720000D02*
X10420000Y-30410000D01*
X10420000Y-30410000D02*
X10420000Y-20791760D01*
X4210000Y10460000D02*
X3627599Y11042401D01*
X3904250Y15791570D02*
X4204249Y16091569D01*
X3627599Y11042401D02*
X3627599Y15514919D01*
X3627599Y15514919D02*
X3904250Y15791570D01*
X1698108Y16406782D02*
X1698108Y15982518D01*
X1698108Y19871892D02*
X1698108Y16406782D01*
X-152349Y21722349D02*
X1698108Y19871892D01*
X-3016436Y21722349D02*
X-152349Y21722349D01*
D15*
X6729801Y18376402D02*
X6729801Y19783553D01*
X5990153Y20523201D02*
X5222744Y20523201D01*
X5222744Y20523201D02*
X3931390Y21814555D01*
X6729801Y19783553D02*
X5990153Y20523201D01*
X13710000Y10024234D02*
X13710000Y17160000D01*
X13710000Y17160000D02*
X13609999Y17260001D01*
X10895000Y7209234D02*
X13710000Y10024234D01*
X10895000Y6825000D02*
X10895000Y7209234D01*
X13609999Y17260001D02*
X13310000Y17560000D01*
X8106203Y17000000D02*
X10490000Y17000000D01*
X6729801Y18376402D02*
X8106203Y17000000D01*
X4730000Y12360000D02*
X4730000Y13362400D01*
X6090000Y17736601D02*
X6729801Y18376402D01*
X4730000Y13362400D02*
X5810000Y14442400D01*
X5810000Y14442400D02*
X5810000Y17456601D01*
X5810000Y17456601D02*
X6090000Y17736601D01*
X8325310Y4255310D02*
X10895000Y6825000D01*
X-4580000Y-17820000D02*
X-4580000Y-13500000D01*
X-4580000Y-13500000D02*
X-6030000Y-12050000D01*
X-6030000Y-4720000D02*
X-4660000Y-3350000D01*
X-6030000Y-12050000D02*
X-6030000Y-4720000D01*
X-4660000Y-3350000D02*
X720000Y-3350000D01*
X720000Y-3350000D02*
X8325310Y4255310D01*
X11280000Y18390000D02*
X6910000Y22760000D01*
X6910000Y22855736D02*
X6910000Y23280000D01*
X6910000Y22760000D02*
X6910000Y22855736D01*
X9373644Y6846356D02*
X11280000Y8752712D01*
X-5841012Y-19279046D02*
X-5841012Y-18731666D01*
X6971399Y4444111D02*
X9373644Y6846356D01*
X-4787868Y-3040000D02*
X591066Y-3040000D01*
X6971399Y3340333D02*
X6971399Y4444111D01*
X-6340000Y-4592132D02*
X-4787868Y-3040000D01*
X-7081898Y-19947844D02*
X-6509810Y-19947844D01*
X-5351579Y-13166562D02*
X-6340000Y-12178141D01*
X-6509810Y-19947844D02*
X-5841012Y-19279046D01*
X-5841012Y-18731666D02*
X-5351579Y-18242234D01*
X-5351579Y-18242234D02*
X-5351579Y-13166562D01*
X591066Y-3040000D02*
X6971399Y3340333D01*
X-6340000Y-12178141D02*
X-6340000Y-4592132D01*
X11280000Y8752712D02*
X11280000Y11760000D01*
X11280000Y11760000D02*
X11280000Y16380000D01*
X11280000Y16380000D02*
X11280000Y18390000D01*
X11280000Y16380000D02*
X11189633Y16470367D01*
X11189633Y16470367D02*
X9115654Y16470367D01*
X9115654Y16470367D02*
X8691390Y16470367D01*
X9408104Y6777793D02*
X9832368Y6777793D01*
X9373644Y6846356D02*
X9373644Y6812253D01*
X9373644Y6812253D02*
X9408104Y6777793D01*
X7270000Y12360000D02*
X8348601Y13438601D01*
X8348601Y15863515D02*
X6956541Y17255575D01*
X6956541Y17255575D02*
X6656542Y17555574D01*
X8348601Y13438601D02*
X8348601Y15863515D01*
X485881Y-187849D02*
X-343755Y641787D01*
X-6547626Y-18734558D02*
X-5656390Y-17843322D01*
X464811Y-2735189D02*
X485881Y-2714119D01*
X-5656390Y-13292818D02*
X-6644811Y-12304397D01*
X-6644811Y-4465876D02*
X-4914124Y-2735189D01*
X-5656390Y-17843322D02*
X-5656390Y-13292818D01*
X-6547626Y-19203328D02*
X-6547626Y-18734558D01*
X485881Y-2714119D02*
X485881Y-187849D01*
X-343755Y641787D02*
X-643754Y941786D01*
X-4914124Y-2735189D02*
X464811Y-2735189D01*
X-6644811Y-12304397D02*
X-6644811Y-4465876D01*
X4180000Y8890000D02*
X4479999Y9189999D01*
X4479999Y9569999D02*
X7270000Y12360000D01*
X4479999Y9189999D02*
X4479999Y9569999D01*
X-7411389Y12798611D02*
X-9669668Y12798611D01*
X-9669668Y12798611D02*
X-11698612Y10769667D01*
X-7080000Y-13628278D02*
X-7080000Y-17420555D01*
X-11698612Y10769667D02*
X-11698611Y-6752181D01*
X-10343611Y-8107181D02*
X-10343611Y-10364667D01*
X-7677588Y-18018143D02*
X-7977587Y-18318142D01*
X-7080000Y-17420555D02*
X-7677588Y-18018143D01*
X-3868976Y22239986D02*
X-5058397Y21050565D01*
X-10343611Y-10364667D02*
X-7080000Y-13628278D01*
X-11698611Y-6752181D02*
X-10343611Y-8107181D01*
X-4930000Y15280000D02*
X-7411389Y12798611D01*
X-4930000Y17618464D02*
X-4930000Y15280000D01*
X-5058397Y17746861D02*
X-4930000Y17618464D01*
X-5058397Y21050565D02*
X-5058397Y17746861D01*
X-3868976Y22709569D02*
X-3868976Y22239986D01*
X-3428024Y23150521D02*
X-3868976Y22709569D01*
X-278571Y22330903D02*
X4223730Y17828602D01*
X4223730Y17828602D02*
X4653730Y17828602D01*
X5281390Y16869608D02*
X5281390Y16445344D01*
X-2567187Y22330903D02*
X-278571Y22330903D01*
X5281390Y17200942D02*
X5281390Y16869608D01*
X4653730Y17828602D02*
X5281390Y17200942D01*
X9859080Y-16769080D02*
X9390000Y-16300000D01*
X12989560Y-16769080D02*
X9859080Y-16769080D01*
X14810000Y-14948640D02*
X12989560Y-16769080D01*
X13707668Y8498610D02*
X14810000Y7396278D01*
X14810000Y7396278D02*
X14810000Y-14948640D01*
D19*
X2530001Y17634821D02*
X2745181Y17850001D01*
X2745181Y17850001D02*
X3045180Y18150000D01*
X2530001Y7140001D02*
X2530001Y17634821D01*
X5765812Y7330000D02*
X6671863Y8236051D01*
X3695962Y17565433D02*
X2922777Y16792248D01*
X2922777Y8831285D02*
X4424062Y7330000D01*
X6671863Y8872465D02*
X6671863Y9296729D01*
X4424062Y7330000D02*
X5765812Y7330000D01*
X6671863Y8236051D02*
X6671863Y8872465D01*
X2922777Y16792248D02*
X2922777Y8831285D01*
D15*
X9166799Y25603201D02*
X-2201828Y25603201D01*
X-2201828Y25603201D02*
X-4272413Y23532616D01*
X12420000Y18280000D02*
X12420000Y22350000D01*
X12420000Y22350000D02*
X9166799Y25603201D01*
X-4272413Y23532616D02*
X-4572412Y23232617D01*
X7716213Y1487729D02*
X7416214Y1187730D01*
X11856644Y7546644D02*
X11856644Y5628160D01*
X13408089Y8951022D02*
X13261022Y8951022D01*
X11856644Y5628160D02*
X7716213Y1487729D01*
X13708088Y9251021D02*
X13408089Y8951022D01*
X13261022Y8951022D02*
X11856644Y7546644D01*
D19*
X3275188Y8977258D02*
X3275188Y16032792D01*
X3275188Y16032792D02*
X4091177Y16848781D01*
X4202446Y8050000D02*
X3275188Y8977258D01*
X4710000Y8050000D02*
X4202446Y8050000D01*
X4091177Y16848781D02*
X4391176Y17148780D01*
D17*
X-1419860Y-1226820D02*
X-1419860Y5950140D01*
X-1419860Y5950140D02*
X462500Y7832500D01*
X462500Y7832500D02*
X650000Y7832500D01*
X-3959860Y5097640D02*
X650000Y9707500D01*
X-3959860Y-1226820D02*
X-3959860Y5097640D01*
D21*
G36*
X14074427Y13015893D02*
G01*
X14077696Y13013188D01*
X14077702Y13013182D01*
X14077709Y13013178D01*
X14231364Y12887859D01*
X14254361Y12872579D01*
X14277108Y12857005D01*
X14280846Y12854983D01*
X14455924Y12761892D01*
X14481485Y12751356D01*
X14506792Y12740510D01*
X14510844Y12739255D01*
X14510850Y12739253D01*
X14510856Y12739252D01*
X14700678Y12681942D01*
X14727741Y12676583D01*
X14754726Y12670847D01*
X14758947Y12670404D01*
X14758955Y12670402D01*
X14758963Y12670402D01*
X14956295Y12651053D01*
X14956301Y12651053D01*
X14971054Y12649600D01*
X19670115Y12649600D01*
X20168282Y12600755D01*
X20633159Y12460400D01*
X21061914Y12232426D01*
X21438229Y11925511D01*
X21747762Y11551351D01*
X21978725Y11124194D01*
X22122321Y10660308D01*
X22174588Y10163027D01*
X22174600Y10159513D01*
X22174601Y-13828105D01*
X22125755Y-14326282D01*
X21985401Y-14791158D01*
X21757426Y-15219914D01*
X21450512Y-15596229D01*
X21076351Y-15905762D01*
X20649194Y-16136725D01*
X20185308Y-16280321D01*
X19688026Y-16332588D01*
X19684513Y-16332600D01*
X15098054Y-16332600D01*
X15084630Y-16333922D01*
X15078318Y-16333878D01*
X15074088Y-16334293D01*
X14876886Y-16355020D01*
X14849841Y-16360571D01*
X14822761Y-16365737D01*
X14818697Y-16366964D01*
X14818691Y-16366965D01*
X14818685Y-16366967D01*
X14629271Y-16425600D01*
X14603826Y-16436296D01*
X14578256Y-16446627D01*
X14574503Y-16448622D01*
X14400080Y-16542933D01*
X14377182Y-16558378D01*
X14354122Y-16573468D01*
X14350828Y-16576154D01*
X14198044Y-16702548D01*
X14178583Y-16722146D01*
X14158893Y-16741427D01*
X14156183Y-16744702D01*
X14030859Y-16898364D01*
X14015569Y-16921377D01*
X14000005Y-16944108D01*
X13997986Y-16947842D01*
X13997983Y-16947846D01*
X13997983Y-16947847D01*
X13904892Y-17122924D01*
X13894361Y-17148473D01*
X13883510Y-17173792D01*
X13882255Y-17177844D01*
X13882253Y-17177850D01*
X13882253Y-17177852D01*
X13824942Y-17367678D01*
X13819580Y-17394756D01*
X13813847Y-17421727D01*
X13813404Y-17425947D01*
X13813402Y-17425955D01*
X13813402Y-17425963D01*
X13794053Y-17623295D01*
X13794053Y-17623311D01*
X13792601Y-17638054D01*
X13792600Y-32941615D01*
X13743755Y-33439782D01*
X13603401Y-33904658D01*
X13375426Y-34333414D01*
X13068512Y-34709729D01*
X12694351Y-35019262D01*
X12267194Y-35250225D01*
X11803308Y-35393821D01*
X11306026Y-35446088D01*
X11302513Y-35446100D01*
X5890554Y-35446100D01*
X5877614Y-35447374D01*
X5875694Y-35447361D01*
X5871464Y-35447776D01*
X5809840Y-35454253D01*
X5782818Y-35459799D01*
X5755716Y-35464969D01*
X5751647Y-35466197D01*
X5692453Y-35484520D01*
X5666973Y-35495230D01*
X5641434Y-35505549D01*
X5637694Y-35507538D01*
X5637686Y-35507541D01*
X5637682Y-35507544D01*
X5583174Y-35537017D01*
X5560261Y-35552472D01*
X5537218Y-35567551D01*
X5533926Y-35570235D01*
X5533922Y-35570238D01*
X5533918Y-35570242D01*
X5486179Y-35609735D01*
X5466716Y-35629334D01*
X5447026Y-35648616D01*
X5444317Y-35651890D01*
X5405154Y-35699909D01*
X5389872Y-35722911D01*
X5374301Y-35745652D01*
X5372279Y-35749391D01*
X5343188Y-35804102D01*
X5332663Y-35829637D01*
X5321806Y-35854969D01*
X5320549Y-35859029D01*
X5302639Y-35918350D01*
X5297273Y-35945450D01*
X5291545Y-35972398D01*
X5291101Y-35976618D01*
X5291099Y-35976627D01*
X5291099Y-35976635D01*
X5285053Y-36038294D01*
X5285053Y-36038302D01*
X5283600Y-36053055D01*
X5283601Y-37069102D01*
X5281919Y-37086260D01*
X5281262Y-37088435D01*
X5280195Y-37090441D01*
X5278758Y-37092203D01*
X5277009Y-37093650D01*
X5275012Y-37094730D01*
X5272837Y-37095403D01*
X5256693Y-37097100D01*
X-5255612Y-37097100D01*
X-5272760Y-37095419D01*
X-5274935Y-37094762D01*
X-5276941Y-37093695D01*
X-5278703Y-37092258D01*
X-5280150Y-37090509D01*
X-5281230Y-37088512D01*
X-5281903Y-37086337D01*
X-5283600Y-37070193D01*
X-5283600Y-36071429D01*
X-5185924Y-36169105D01*
X-5174797Y-36182663D01*
X-5161239Y-36193790D01*
X-5161234Y-36193795D01*
X-5135825Y-36214647D01*
X-5120650Y-36227101D01*
X-5058874Y-36260121D01*
X-4991844Y-36280454D01*
X-4939597Y-36285600D01*
X-4939588Y-36285600D01*
X-4922135Y-36287319D01*
X-4904682Y-36285600D01*
X-1699455Y-36285600D01*
X-1682000Y-36287319D01*
X-1664545Y-36285600D01*
X-1664537Y-36285600D01*
X-1612290Y-36280454D01*
X-1545260Y-36260121D01*
X-1483484Y-36227101D01*
X-1429337Y-36182663D01*
X-1418201Y-36169094D01*
X-882051Y-35632944D01*
X-864676Y-35640141D01*
X-712552Y-35670400D01*
X-557448Y-35670400D01*
X-405324Y-35640141D01*
X-262026Y-35580785D01*
X-133062Y-35494614D01*
X-23386Y-35384938D01*
X62785Y-35255974D01*
X122141Y-35112676D01*
X152400Y-34960552D01*
X152400Y-34805448D01*
X122141Y-34653324D01*
X62785Y-34510026D01*
X-23386Y-34381062D01*
X-133062Y-34271386D01*
X-168062Y-34248000D01*
X-133062Y-34224614D01*
X-23386Y-34114938D01*
X0Y-34079938D01*
X23386Y-34114938D01*
X133062Y-34224614D01*
X262026Y-34310785D01*
X405324Y-34370141D01*
X557448Y-34400400D01*
X712552Y-34400400D01*
X864676Y-34370141D01*
X1007974Y-34310785D01*
X1136938Y-34224614D01*
X1246614Y-34114938D01*
X1270000Y-34079938D01*
X1293386Y-34114938D01*
X1403062Y-34224614D01*
X1438062Y-34248000D01*
X1403062Y-34271386D01*
X1293386Y-34381062D01*
X1207215Y-34510026D01*
X1147859Y-34653324D01*
X1117600Y-34805448D01*
X1117600Y-34960552D01*
X1147859Y-35112676D01*
X1207215Y-35255974D01*
X1293386Y-35384938D01*
X1403062Y-35494614D01*
X1532026Y-35580785D01*
X1675324Y-35640141D01*
X1827448Y-35670400D01*
X1982552Y-35670400D01*
X2134676Y-35640141D01*
X2277974Y-35580785D01*
X2406938Y-35494614D01*
X2516614Y-35384938D01*
X2540000Y-35349938D01*
X2563386Y-35384938D01*
X2673062Y-35494614D01*
X2802026Y-35580785D01*
X2945324Y-35640141D01*
X3097448Y-35670400D01*
X3252552Y-35670400D01*
X3404676Y-35640141D01*
X3547974Y-35580785D01*
X3676938Y-35494614D01*
X3786614Y-35384938D01*
X3810000Y-35349938D01*
X3833386Y-35384938D01*
X3943062Y-35494614D01*
X4072026Y-35580785D01*
X4215324Y-35640141D01*
X4367448Y-35670400D01*
X4522552Y-35670400D01*
X4674676Y-35640141D01*
X4817974Y-35580785D01*
X4946938Y-35494614D01*
X5056614Y-35384938D01*
X5142785Y-35255974D01*
X5202141Y-35112676D01*
X5232400Y-34960552D01*
X5232400Y-34805448D01*
X5202141Y-34653324D01*
X5142785Y-34510026D01*
X5099321Y-34444978D01*
X5331642Y-34374504D01*
X5640766Y-34209274D01*
X5911714Y-33986912D01*
X5967435Y-33919016D01*
X7223517Y-32662934D01*
X7530600Y-32662934D01*
X7530600Y-32777066D01*
X7552866Y-32889005D01*
X7596543Y-32994449D01*
X7659951Y-33089346D01*
X7740654Y-33170049D01*
X7835551Y-33233457D01*
X7940995Y-33277134D01*
X8052934Y-33299400D01*
X8167066Y-33299400D01*
X8279005Y-33277134D01*
X8384449Y-33233457D01*
X8479346Y-33170049D01*
X8560049Y-33089346D01*
X8623457Y-32994449D01*
X8667134Y-32889005D01*
X8689400Y-32777066D01*
X8689400Y-32677152D01*
X9351038Y-32015514D01*
X10561040Y-32015514D01*
X10561040Y-32129646D01*
X10583306Y-32241585D01*
X10626983Y-32347029D01*
X10690391Y-32441926D01*
X10771094Y-32522629D01*
X10865991Y-32586037D01*
X10971435Y-32629714D01*
X11083374Y-32651980D01*
X11197506Y-32651980D01*
X11309445Y-32629714D01*
X11414889Y-32586037D01*
X11509786Y-32522629D01*
X11590489Y-32441926D01*
X11641247Y-32365961D01*
X11688611Y-32436846D01*
X11769314Y-32517549D01*
X11850359Y-32571702D01*
X11784554Y-32615671D01*
X11703851Y-32696374D01*
X11640443Y-32791271D01*
X11596766Y-32896715D01*
X11574500Y-33008654D01*
X11574500Y-33122786D01*
X11596766Y-33234725D01*
X11640443Y-33340169D01*
X11703851Y-33435066D01*
X11784554Y-33515769D01*
X11879451Y-33579177D01*
X11984895Y-33622854D01*
X12096834Y-33645120D01*
X12210966Y-33645120D01*
X12322905Y-33622854D01*
X12428349Y-33579177D01*
X12523246Y-33515769D01*
X12603949Y-33435066D01*
X12667357Y-33340169D01*
X12711034Y-33234725D01*
X12733300Y-33122786D01*
X12733300Y-33008654D01*
X12711034Y-32896715D01*
X12667357Y-32791271D01*
X12603949Y-32696374D01*
X12523246Y-32615671D01*
X12442201Y-32561518D01*
X12508006Y-32517549D01*
X12588709Y-32436846D01*
X12652117Y-32341949D01*
X12662245Y-32317497D01*
X12681843Y-32364809D01*
X12745251Y-32459706D01*
X12825954Y-32540409D01*
X12920851Y-32603817D01*
X13026295Y-32647494D01*
X13138234Y-32669760D01*
X13252366Y-32669760D01*
X13364305Y-32647494D01*
X13469749Y-32603817D01*
X13564646Y-32540409D01*
X13645349Y-32459706D01*
X13708757Y-32364809D01*
X13752434Y-32259365D01*
X13774700Y-32147426D01*
X13774700Y-32033294D01*
X13752434Y-31921355D01*
X13708757Y-31815911D01*
X13645349Y-31721014D01*
X13564646Y-31640311D01*
X13469749Y-31576903D01*
X13364305Y-31533226D01*
X13252366Y-31510960D01*
X13138234Y-31510960D01*
X13026295Y-31533226D01*
X12920851Y-31576903D01*
X12825954Y-31640311D01*
X12745251Y-31721014D01*
X12681843Y-31815911D01*
X12671715Y-31840363D01*
X12652117Y-31793051D01*
X12588709Y-31698154D01*
X12508006Y-31617451D01*
X12471333Y-31592947D01*
X12513086Y-31565049D01*
X12593789Y-31484346D01*
X12657197Y-31389449D01*
X12700874Y-31284005D01*
X12723140Y-31172066D01*
X12723140Y-31057934D01*
X12700874Y-30945995D01*
X12657197Y-30840551D01*
X12593789Y-30745654D01*
X12513086Y-30664951D01*
X12418189Y-30601543D01*
X12312745Y-30557866D01*
X12200806Y-30535600D01*
X12086674Y-30535600D01*
X11974735Y-30557866D01*
X11869291Y-30601543D01*
X11774394Y-30664951D01*
X11693691Y-30745654D01*
X11630283Y-30840551D01*
X11586606Y-30945995D01*
X11564340Y-31057934D01*
X11564340Y-31172066D01*
X11586606Y-31284005D01*
X11630283Y-31389449D01*
X11693691Y-31484346D01*
X11774394Y-31565049D01*
X11811067Y-31589553D01*
X11769314Y-31617451D01*
X11688611Y-31698154D01*
X11637853Y-31774119D01*
X11590489Y-31703234D01*
X11509786Y-31622531D01*
X11414889Y-31559123D01*
X11309445Y-31515446D01*
X11197506Y-31493180D01*
X11083374Y-31493180D01*
X10971435Y-31515446D01*
X10865991Y-31559123D01*
X10771094Y-31622531D01*
X10690391Y-31703234D01*
X10626983Y-31798131D01*
X10583306Y-31903575D01*
X10561040Y-32015514D01*
X9351038Y-32015514D01*
X10675099Y-30691453D01*
X10689574Y-30679574D01*
X10718473Y-30644361D01*
X10736985Y-30621804D01*
X10759352Y-30579957D01*
X10772215Y-30555892D01*
X10793910Y-30484375D01*
X10799400Y-30428632D01*
X10799400Y-30428623D01*
X10801234Y-30410001D01*
X10799400Y-30391379D01*
X10799400Y-20948912D01*
X11123232Y-20625080D01*
X11223146Y-20625080D01*
X11335085Y-20602814D01*
X11440529Y-20559137D01*
X11535426Y-20495729D01*
X11616129Y-20415026D01*
X11679537Y-20320129D01*
X11723214Y-20214685D01*
X11745480Y-20102746D01*
X11745480Y-19988614D01*
X11723214Y-19876675D01*
X11679537Y-19771231D01*
X11616129Y-19676334D01*
X11535426Y-19595631D01*
X11440529Y-19532223D01*
X11335085Y-19488546D01*
X11223146Y-19466280D01*
X11109014Y-19466280D01*
X10997075Y-19488546D01*
X10891631Y-19532223D01*
X10796734Y-19595631D01*
X10716031Y-19676334D01*
X10652623Y-19771231D01*
X10608946Y-19876675D01*
X10586680Y-19988614D01*
X10586680Y-20088528D01*
X10164898Y-20510310D01*
X10150427Y-20522186D01*
X10138551Y-20536657D01*
X10138549Y-20536659D01*
X10103015Y-20579957D01*
X10080471Y-20622135D01*
X10067786Y-20645868D01*
X10051040Y-20701073D01*
X10046091Y-20717386D01*
X10038765Y-20791760D01*
X10040601Y-20810399D01*
X10040600Y-30252848D01*
X8152848Y-32140600D01*
X8052934Y-32140600D01*
X7940995Y-32162866D01*
X7835551Y-32206543D01*
X7740654Y-32269951D01*
X7659951Y-32350654D01*
X7596543Y-32445551D01*
X7552866Y-32550995D01*
X7530600Y-32662934D01*
X7223517Y-32662934D01*
X8535101Y-31351351D01*
X8602992Y-31295634D01*
X8658708Y-31227744D01*
X8658712Y-31227740D01*
X8825354Y-31024686D01*
X8990584Y-30715562D01*
X9092332Y-30380144D01*
X9118079Y-30118730D01*
X9118079Y-30118722D01*
X9126687Y-30031321D01*
X9118079Y-29943920D01*
X9118079Y-23389357D01*
X9160995Y-23407134D01*
X9272934Y-23429400D01*
X9387066Y-23429400D01*
X9499005Y-23407134D01*
X9604449Y-23363457D01*
X9699346Y-23300049D01*
X9780049Y-23219346D01*
X9843457Y-23124449D01*
X9887134Y-23019005D01*
X9909400Y-22907066D01*
X9909400Y-22792934D01*
X9887134Y-22680995D01*
X9843457Y-22575551D01*
X9796316Y-22505000D01*
X9843457Y-22434449D01*
X9887134Y-22329005D01*
X9909400Y-22217066D01*
X9909400Y-22102934D01*
X9887134Y-21990995D01*
X9843457Y-21885551D01*
X9797976Y-21817483D01*
X9853457Y-21734449D01*
X9897134Y-21629005D01*
X9919400Y-21517066D01*
X9919400Y-21402934D01*
X9897134Y-21290995D01*
X9853457Y-21185551D01*
X9790049Y-21090654D01*
X9709346Y-21009951D01*
X9614449Y-20946543D01*
X9509005Y-20902866D01*
X9397066Y-20880600D01*
X9282934Y-20880600D01*
X9170995Y-20902866D01*
X9118079Y-20924785D01*
X9118079Y-17959154D01*
X10591760Y-17959154D01*
X10591760Y-18073286D01*
X10614026Y-18185225D01*
X10657703Y-18290669D01*
X10721111Y-18385566D01*
X10801814Y-18466269D01*
X10896711Y-18529677D01*
X11002155Y-18573354D01*
X11114094Y-18595620D01*
X11228226Y-18595620D01*
X11340165Y-18573354D01*
X11445609Y-18529677D01*
X11540506Y-18466269D01*
X11621209Y-18385566D01*
X11684617Y-18290669D01*
X11728294Y-18185225D01*
X11750560Y-18073286D01*
X11750560Y-17959154D01*
X11728294Y-17847215D01*
X11684617Y-17741771D01*
X11621209Y-17646874D01*
X11540506Y-17566171D01*
X11445609Y-17502763D01*
X11340165Y-17459086D01*
X11228226Y-17436820D01*
X11114094Y-17436820D01*
X11002155Y-17459086D01*
X10896711Y-17502763D01*
X10801814Y-17566171D01*
X10721111Y-17646874D01*
X10657703Y-17741771D01*
X10614026Y-17847215D01*
X10591760Y-17959154D01*
X9118079Y-17959154D01*
X9118079Y-16814504D01*
X9220995Y-16857134D01*
X9332934Y-16879400D01*
X9447066Y-16879400D01*
X9463280Y-16876175D01*
X9595290Y-17008185D01*
X9606417Y-17021743D01*
X9619975Y-17032870D01*
X9619980Y-17032875D01*
X9635050Y-17045242D01*
X9660564Y-17066181D01*
X9722340Y-17099201D01*
X9789370Y-17119534D01*
X9841617Y-17124680D01*
X9841626Y-17124680D01*
X9859079Y-17126399D01*
X9876532Y-17124680D01*
X12972105Y-17124680D01*
X12989560Y-17126399D01*
X13007015Y-17124680D01*
X13007023Y-17124680D01*
X13059270Y-17119534D01*
X13126300Y-17099201D01*
X13188076Y-17066181D01*
X13242223Y-17021743D01*
X13253359Y-17008174D01*
X15049100Y-15212434D01*
X15062663Y-15201303D01*
X15107101Y-15147156D01*
X15140121Y-15085380D01*
X15160454Y-15018350D01*
X15165600Y-14966103D01*
X15165600Y-14966096D01*
X15167319Y-14948640D01*
X15165600Y-14931185D01*
X15165600Y7378823D01*
X15167319Y7396278D01*
X15165600Y7413734D01*
X15165600Y7413741D01*
X15160454Y7465988D01*
X15159100Y7470454D01*
X15147301Y7509347D01*
X15140121Y7533018D01*
X15107101Y7594794D01*
X15086787Y7619546D01*
X15073795Y7635377D01*
X15073790Y7635382D01*
X15062662Y7648941D01*
X15049104Y7660068D01*
X14283843Y8425329D01*
X14287068Y8441544D01*
X14287068Y8555676D01*
X14264802Y8667615D01*
X14221125Y8773059D01*
X14157717Y8867956D01*
X14151068Y8874606D01*
X14158137Y8881675D01*
X14221545Y8976572D01*
X14265222Y9082016D01*
X14287488Y9193955D01*
X14287488Y9308087D01*
X14265222Y9420026D01*
X14221545Y9525470D01*
X14158137Y9620367D01*
X14077434Y9701070D01*
X13982537Y9764478D01*
X13963360Y9772421D01*
X13973785Y9785124D01*
X13973795Y9785134D01*
X14007100Y9825717D01*
X14007102Y9825719D01*
X14023058Y9855572D01*
X14077444Y9891911D01*
X14158147Y9972614D01*
X14221555Y10067511D01*
X14265232Y10172955D01*
X14287498Y10284894D01*
X14287498Y10399026D01*
X14265232Y10510965D01*
X14221555Y10616409D01*
X14158147Y10711306D01*
X14077444Y10792009D01*
X14065600Y10799923D01*
X14065600Y13024907D01*
X14074427Y13015893D01*
X14074427Y13015893D01*
G37*
X14074427Y13015893D02*
X14077696Y13013188D01*
X14077702Y13013182D01*
X14077709Y13013178D01*
X14231364Y12887859D01*
X14254361Y12872579D01*
X14277108Y12857005D01*
X14280846Y12854983D01*
X14455924Y12761892D01*
X14481485Y12751356D01*
X14506792Y12740510D01*
X14510844Y12739255D01*
X14510850Y12739253D01*
X14510856Y12739252D01*
X14700678Y12681942D01*
X14727741Y12676583D01*
X14754726Y12670847D01*
X14758947Y12670404D01*
X14758955Y12670402D01*
X14758963Y12670402D01*
X14956295Y12651053D01*
X14956301Y12651053D01*
X14971054Y12649600D01*
X19670115Y12649600D01*
X20168282Y12600755D01*
X20633159Y12460400D01*
X21061914Y12232426D01*
X21438229Y11925511D01*
X21747762Y11551351D01*
X21978725Y11124194D01*
X22122321Y10660308D01*
X22174588Y10163027D01*
X22174600Y10159513D01*
X22174601Y-13828105D01*
X22125755Y-14326282D01*
X21985401Y-14791158D01*
X21757426Y-15219914D01*
X21450512Y-15596229D01*
X21076351Y-15905762D01*
X20649194Y-16136725D01*
X20185308Y-16280321D01*
X19688026Y-16332588D01*
X19684513Y-16332600D01*
X15098054Y-16332600D01*
X15084630Y-16333922D01*
X15078318Y-16333878D01*
X15074088Y-16334293D01*
X14876886Y-16355020D01*
X14849841Y-16360571D01*
X14822761Y-16365737D01*
X14818697Y-16366964D01*
X14818691Y-16366965D01*
X14818685Y-16366967D01*
X14629271Y-16425600D01*
X14603826Y-16436296D01*
X14578256Y-16446627D01*
X14574503Y-16448622D01*
X14400080Y-16542933D01*
X14377182Y-16558378D01*
X14354122Y-16573468D01*
X14350828Y-16576154D01*
X14198044Y-16702548D01*
X14178583Y-16722146D01*
X14158893Y-16741427D01*
X14156183Y-16744702D01*
X14030859Y-16898364D01*
X14015569Y-16921377D01*
X14000005Y-16944108D01*
X13997986Y-16947842D01*
X13997983Y-16947846D01*
X13997983Y-16947847D01*
X13904892Y-17122924D01*
X13894361Y-17148473D01*
X13883510Y-17173792D01*
X13882255Y-17177844D01*
X13882253Y-17177850D01*
X13882253Y-17177852D01*
X13824942Y-17367678D01*
X13819580Y-17394756D01*
X13813847Y-17421727D01*
X13813404Y-17425947D01*
X13813402Y-17425955D01*
X13813402Y-17425963D01*
X13794053Y-17623295D01*
X13794053Y-17623311D01*
X13792601Y-17638054D01*
X13792600Y-32941615D01*
X13743755Y-33439782D01*
X13603401Y-33904658D01*
X13375426Y-34333414D01*
X13068512Y-34709729D01*
X12694351Y-35019262D01*
X12267194Y-35250225D01*
X11803308Y-35393821D01*
X11306026Y-35446088D01*
X11302513Y-35446100D01*
X5890554Y-35446100D01*
X5877614Y-35447374D01*
X5875694Y-35447361D01*
X5871464Y-35447776D01*
X5809840Y-35454253D01*
X5782818Y-35459799D01*
X5755716Y-35464969D01*
X5751647Y-35466197D01*
X5692453Y-35484520D01*
X5666973Y-35495230D01*
X5641434Y-35505549D01*
X5637694Y-35507538D01*
X5637686Y-35507541D01*
X5637682Y-35507544D01*
X5583174Y-35537017D01*
X5560261Y-35552472D01*
X5537218Y-35567551D01*
X5533926Y-35570235D01*
X5533922Y-35570238D01*
X5533918Y-35570242D01*
X5486179Y-35609735D01*
X5466716Y-35629334D01*
X5447026Y-35648616D01*
X5444317Y-35651890D01*
X5405154Y-35699909D01*
X5389872Y-35722911D01*
X5374301Y-35745652D01*
X5372279Y-35749391D01*
X5343188Y-35804102D01*
X5332663Y-35829637D01*
X5321806Y-35854969D01*
X5320549Y-35859029D01*
X5302639Y-35918350D01*
X5297273Y-35945450D01*
X5291545Y-35972398D01*
X5291101Y-35976618D01*
X5291099Y-35976627D01*
X5291099Y-35976635D01*
X5285053Y-36038294D01*
X5285053Y-36038302D01*
X5283600Y-36053055D01*
X5283601Y-37069102D01*
X5281919Y-37086260D01*
X5281262Y-37088435D01*
X5280195Y-37090441D01*
X5278758Y-37092203D01*
X5277009Y-37093650D01*
X5275012Y-37094730D01*
X5272837Y-37095403D01*
X5256693Y-37097100D01*
X-5255612Y-37097100D01*
X-5272760Y-37095419D01*
X-5274935Y-37094762D01*
X-5276941Y-37093695D01*
X-5278703Y-37092258D01*
X-5280150Y-37090509D01*
X-5281230Y-37088512D01*
X-5281903Y-37086337D01*
X-5283600Y-37070193D01*
X-5283600Y-36071429D01*
X-5185924Y-36169105D01*
X-5174797Y-36182663D01*
X-5161239Y-36193790D01*
X-5161234Y-36193795D01*
X-5135825Y-36214647D01*
X-5120650Y-36227101D01*
X-5058874Y-36260121D01*
X-4991844Y-36280454D01*
X-4939597Y-36285600D01*
X-4939588Y-36285600D01*
X-4922135Y-36287319D01*
X-4904682Y-36285600D01*
X-1699455Y-36285600D01*
X-1682000Y-36287319D01*
X-1664545Y-36285600D01*
X-1664537Y-36285600D01*
X-1612290Y-36280454D01*
X-1545260Y-36260121D01*
X-1483484Y-36227101D01*
X-1429337Y-36182663D01*
X-1418201Y-36169094D01*
X-882051Y-35632944D01*
X-864676Y-35640141D01*
X-712552Y-35670400D01*
X-557448Y-35670400D01*
X-405324Y-35640141D01*
X-262026Y-35580785D01*
X-133062Y-35494614D01*
X-23386Y-35384938D01*
X62785Y-35255974D01*
X122141Y-35112676D01*
X152400Y-34960552D01*
X152400Y-34805448D01*
X122141Y-34653324D01*
X62785Y-34510026D01*
X-23386Y-34381062D01*
X-133062Y-34271386D01*
X-168062Y-34248000D01*
X-133062Y-34224614D01*
X-23386Y-34114938D01*
X0Y-34079938D01*
X23386Y-34114938D01*
X133062Y-34224614D01*
X262026Y-34310785D01*
X405324Y-34370141D01*
X557448Y-34400400D01*
X712552Y-34400400D01*
X864676Y-34370141D01*
X1007974Y-34310785D01*
X1136938Y-34224614D01*
X1246614Y-34114938D01*
X1270000Y-34079938D01*
X1293386Y-34114938D01*
X1403062Y-34224614D01*
X1438062Y-34248000D01*
X1403062Y-34271386D01*
X1293386Y-34381062D01*
X1207215Y-34510026D01*
X1147859Y-34653324D01*
X1117600Y-34805448D01*
X1117600Y-34960552D01*
X1147859Y-35112676D01*
X1207215Y-35255974D01*
X1293386Y-35384938D01*
X1403062Y-35494614D01*
X1532026Y-35580785D01*
X1675324Y-35640141D01*
X1827448Y-35670400D01*
X1982552Y-35670400D01*
X2134676Y-35640141D01*
X2277974Y-35580785D01*
X2406938Y-35494614D01*
X2516614Y-35384938D01*
X2540000Y-35349938D01*
X2563386Y-35384938D01*
X2673062Y-35494614D01*
X2802026Y-35580785D01*
X2945324Y-35640141D01*
X3097448Y-35670400D01*
X3252552Y-35670400D01*
X3404676Y-35640141D01*
X3547974Y-35580785D01*
X3676938Y-35494614D01*
X3786614Y-35384938D01*
X3810000Y-35349938D01*
X3833386Y-35384938D01*
X3943062Y-35494614D01*
X4072026Y-35580785D01*
X4215324Y-35640141D01*
X4367448Y-35670400D01*
X4522552Y-35670400D01*
X4674676Y-35640141D01*
X4817974Y-35580785D01*
X4946938Y-35494614D01*
X5056614Y-35384938D01*
X5142785Y-35255974D01*
X5202141Y-35112676D01*
X5232400Y-34960552D01*
X5232400Y-34805448D01*
X5202141Y-34653324D01*
X5142785Y-34510026D01*
X5099321Y-34444978D01*
X5331642Y-34374504D01*
X5640766Y-34209274D01*
X5911714Y-33986912D01*
X5967435Y-33919016D01*
X7223517Y-32662934D01*
X7530600Y-32662934D01*
X7530600Y-32777066D01*
X7552866Y-32889005D01*
X7596543Y-32994449D01*
X7659951Y-33089346D01*
X7740654Y-33170049D01*
X7835551Y-33233457D01*
X7940995Y-33277134D01*
X8052934Y-33299400D01*
X8167066Y-33299400D01*
X8279005Y-33277134D01*
X8384449Y-33233457D01*
X8479346Y-33170049D01*
X8560049Y-33089346D01*
X8623457Y-32994449D01*
X8667134Y-32889005D01*
X8689400Y-32777066D01*
X8689400Y-32677152D01*
X9351038Y-32015514D01*
X10561040Y-32015514D01*
X10561040Y-32129646D01*
X10583306Y-32241585D01*
X10626983Y-32347029D01*
X10690391Y-32441926D01*
X10771094Y-32522629D01*
X10865991Y-32586037D01*
X10971435Y-32629714D01*
X11083374Y-32651980D01*
X11197506Y-32651980D01*
X11309445Y-32629714D01*
X11414889Y-32586037D01*
X11509786Y-32522629D01*
X11590489Y-32441926D01*
X11641247Y-32365961D01*
X11688611Y-32436846D01*
X11769314Y-32517549D01*
X11850359Y-32571702D01*
X11784554Y-32615671D01*
X11703851Y-32696374D01*
X11640443Y-32791271D01*
X11596766Y-32896715D01*
X11574500Y-33008654D01*
X11574500Y-33122786D01*
X11596766Y-33234725D01*
X11640443Y-33340169D01*
X11703851Y-33435066D01*
X11784554Y-33515769D01*
X11879451Y-33579177D01*
X11984895Y-33622854D01*
X12096834Y-33645120D01*
X12210966Y-33645120D01*
X12322905Y-33622854D01*
X12428349Y-33579177D01*
X12523246Y-33515769D01*
X12603949Y-33435066D01*
X12667357Y-33340169D01*
X12711034Y-33234725D01*
X12733300Y-33122786D01*
X12733300Y-33008654D01*
X12711034Y-32896715D01*
X12667357Y-32791271D01*
X12603949Y-32696374D01*
X12523246Y-32615671D01*
X12442201Y-32561518D01*
X12508006Y-32517549D01*
X12588709Y-32436846D01*
X12652117Y-32341949D01*
X12662245Y-32317497D01*
X12681843Y-32364809D01*
X12745251Y-32459706D01*
X12825954Y-32540409D01*
X12920851Y-32603817D01*
X13026295Y-32647494D01*
X13138234Y-32669760D01*
X13252366Y-32669760D01*
X13364305Y-32647494D01*
X13469749Y-32603817D01*
X13564646Y-32540409D01*
X13645349Y-32459706D01*
X13708757Y-32364809D01*
X13752434Y-32259365D01*
X13774700Y-32147426D01*
X13774700Y-32033294D01*
X13752434Y-31921355D01*
X13708757Y-31815911D01*
X13645349Y-31721014D01*
X13564646Y-31640311D01*
X13469749Y-31576903D01*
X13364305Y-31533226D01*
X13252366Y-31510960D01*
X13138234Y-31510960D01*
X13026295Y-31533226D01*
X12920851Y-31576903D01*
X12825954Y-31640311D01*
X12745251Y-31721014D01*
X12681843Y-31815911D01*
X12671715Y-31840363D01*
X12652117Y-31793051D01*
X12588709Y-31698154D01*
X12508006Y-31617451D01*
X12471333Y-31592947D01*
X12513086Y-31565049D01*
X12593789Y-31484346D01*
X12657197Y-31389449D01*
X12700874Y-31284005D01*
X12723140Y-31172066D01*
X12723140Y-31057934D01*
X12700874Y-30945995D01*
X12657197Y-30840551D01*
X12593789Y-30745654D01*
X12513086Y-30664951D01*
X12418189Y-30601543D01*
X12312745Y-30557866D01*
X12200806Y-30535600D01*
X12086674Y-30535600D01*
X11974735Y-30557866D01*
X11869291Y-30601543D01*
X11774394Y-30664951D01*
X11693691Y-30745654D01*
X11630283Y-30840551D01*
X11586606Y-30945995D01*
X11564340Y-31057934D01*
X11564340Y-31172066D01*
X11586606Y-31284005D01*
X11630283Y-31389449D01*
X11693691Y-31484346D01*
X11774394Y-31565049D01*
X11811067Y-31589553D01*
X11769314Y-31617451D01*
X11688611Y-31698154D01*
X11637853Y-31774119D01*
X11590489Y-31703234D01*
X11509786Y-31622531D01*
X11414889Y-31559123D01*
X11309445Y-31515446D01*
X11197506Y-31493180D01*
X11083374Y-31493180D01*
X10971435Y-31515446D01*
X10865991Y-31559123D01*
X10771094Y-31622531D01*
X10690391Y-31703234D01*
X10626983Y-31798131D01*
X10583306Y-31903575D01*
X10561040Y-32015514D01*
X9351038Y-32015514D01*
X10675099Y-30691453D01*
X10689574Y-30679574D01*
X10718473Y-30644361D01*
X10736985Y-30621804D01*
X10759352Y-30579957D01*
X10772215Y-30555892D01*
X10793910Y-30484375D01*
X10799400Y-30428632D01*
X10799400Y-30428623D01*
X10801234Y-30410001D01*
X10799400Y-30391379D01*
X10799400Y-20948912D01*
X11123232Y-20625080D01*
X11223146Y-20625080D01*
X11335085Y-20602814D01*
X11440529Y-20559137D01*
X11535426Y-20495729D01*
X11616129Y-20415026D01*
X11679537Y-20320129D01*
X11723214Y-20214685D01*
X11745480Y-20102746D01*
X11745480Y-19988614D01*
X11723214Y-19876675D01*
X11679537Y-19771231D01*
X11616129Y-19676334D01*
X11535426Y-19595631D01*
X11440529Y-19532223D01*
X11335085Y-19488546D01*
X11223146Y-19466280D01*
X11109014Y-19466280D01*
X10997075Y-19488546D01*
X10891631Y-19532223D01*
X10796734Y-19595631D01*
X10716031Y-19676334D01*
X10652623Y-19771231D01*
X10608946Y-19876675D01*
X10586680Y-19988614D01*
X10586680Y-20088528D01*
X10164898Y-20510310D01*
X10150427Y-20522186D01*
X10138551Y-20536657D01*
X10138549Y-20536659D01*
X10103015Y-20579957D01*
X10080471Y-20622135D01*
X10067786Y-20645868D01*
X10051040Y-20701073D01*
X10046091Y-20717386D01*
X10038765Y-20791760D01*
X10040601Y-20810399D01*
X10040600Y-30252848D01*
X8152848Y-32140600D01*
X8052934Y-32140600D01*
X7940995Y-32162866D01*
X7835551Y-32206543D01*
X7740654Y-32269951D01*
X7659951Y-32350654D01*
X7596543Y-32445551D01*
X7552866Y-32550995D01*
X7530600Y-32662934D01*
X7223517Y-32662934D01*
X8535101Y-31351351D01*
X8602992Y-31295634D01*
X8658708Y-31227744D01*
X8658712Y-31227740D01*
X8825354Y-31024686D01*
X8990584Y-30715562D01*
X9092332Y-30380144D01*
X9118079Y-30118730D01*
X9118079Y-30118722D01*
X9126687Y-30031321D01*
X9118079Y-29943920D01*
X9118079Y-23389357D01*
X9160995Y-23407134D01*
X9272934Y-23429400D01*
X9387066Y-23429400D01*
X9499005Y-23407134D01*
X9604449Y-23363457D01*
X9699346Y-23300049D01*
X9780049Y-23219346D01*
X9843457Y-23124449D01*
X9887134Y-23019005D01*
X9909400Y-22907066D01*
X9909400Y-22792934D01*
X9887134Y-22680995D01*
X9843457Y-22575551D01*
X9796316Y-22505000D01*
X9843457Y-22434449D01*
X9887134Y-22329005D01*
X9909400Y-22217066D01*
X9909400Y-22102934D01*
X9887134Y-21990995D01*
X9843457Y-21885551D01*
X9797976Y-21817483D01*
X9853457Y-21734449D01*
X9897134Y-21629005D01*
X9919400Y-21517066D01*
X9919400Y-21402934D01*
X9897134Y-21290995D01*
X9853457Y-21185551D01*
X9790049Y-21090654D01*
X9709346Y-21009951D01*
X9614449Y-20946543D01*
X9509005Y-20902866D01*
X9397066Y-20880600D01*
X9282934Y-20880600D01*
X9170995Y-20902866D01*
X9118079Y-20924785D01*
X9118079Y-17959154D01*
X10591760Y-17959154D01*
X10591760Y-18073286D01*
X10614026Y-18185225D01*
X10657703Y-18290669D01*
X10721111Y-18385566D01*
X10801814Y-18466269D01*
X10896711Y-18529677D01*
X11002155Y-18573354D01*
X11114094Y-18595620D01*
X11228226Y-18595620D01*
X11340165Y-18573354D01*
X11445609Y-18529677D01*
X11540506Y-18466269D01*
X11621209Y-18385566D01*
X11684617Y-18290669D01*
X11728294Y-18185225D01*
X11750560Y-18073286D01*
X11750560Y-17959154D01*
X11728294Y-17847215D01*
X11684617Y-17741771D01*
X11621209Y-17646874D01*
X11540506Y-17566171D01*
X11445609Y-17502763D01*
X11340165Y-17459086D01*
X11228226Y-17436820D01*
X11114094Y-17436820D01*
X11002155Y-17459086D01*
X10896711Y-17502763D01*
X10801814Y-17566171D01*
X10721111Y-17646874D01*
X10657703Y-17741771D01*
X10614026Y-17847215D01*
X10591760Y-17959154D01*
X9118079Y-17959154D01*
X9118079Y-16814504D01*
X9220995Y-16857134D01*
X9332934Y-16879400D01*
X9447066Y-16879400D01*
X9463280Y-16876175D01*
X9595290Y-17008185D01*
X9606417Y-17021743D01*
X9619975Y-17032870D01*
X9619980Y-17032875D01*
X9635050Y-17045242D01*
X9660564Y-17066181D01*
X9722340Y-17099201D01*
X9789370Y-17119534D01*
X9841617Y-17124680D01*
X9841626Y-17124680D01*
X9859079Y-17126399D01*
X9876532Y-17124680D01*
X12972105Y-17124680D01*
X12989560Y-17126399D01*
X13007015Y-17124680D01*
X13007023Y-17124680D01*
X13059270Y-17119534D01*
X13126300Y-17099201D01*
X13188076Y-17066181D01*
X13242223Y-17021743D01*
X13253359Y-17008174D01*
X15049100Y-15212434D01*
X15062663Y-15201303D01*
X15107101Y-15147156D01*
X15140121Y-15085380D01*
X15160454Y-15018350D01*
X15165600Y-14966103D01*
X15165600Y-14966096D01*
X15167319Y-14948640D01*
X15165600Y-14931185D01*
X15165600Y7378823D01*
X15167319Y7396278D01*
X15165600Y7413734D01*
X15165600Y7413741D01*
X15160454Y7465988D01*
X15159100Y7470454D01*
X15147301Y7509347D01*
X15140121Y7533018D01*
X15107101Y7594794D01*
X15086787Y7619546D01*
X15073795Y7635377D01*
X15073790Y7635382D01*
X15062662Y7648941D01*
X15049104Y7660068D01*
X14283843Y8425329D01*
X14287068Y8441544D01*
X14287068Y8555676D01*
X14264802Y8667615D01*
X14221125Y8773059D01*
X14157717Y8867956D01*
X14151068Y8874606D01*
X14158137Y8881675D01*
X14221545Y8976572D01*
X14265222Y9082016D01*
X14287488Y9193955D01*
X14287488Y9308087D01*
X14265222Y9420026D01*
X14221545Y9525470D01*
X14158137Y9620367D01*
X14077434Y9701070D01*
X13982537Y9764478D01*
X13963360Y9772421D01*
X13973785Y9785124D01*
X13973795Y9785134D01*
X14007100Y9825717D01*
X14007102Y9825719D01*
X14023058Y9855572D01*
X14077444Y9891911D01*
X14158147Y9972614D01*
X14221555Y10067511D01*
X14265232Y10172955D01*
X14287498Y10284894D01*
X14287498Y10399026D01*
X14265232Y10510965D01*
X14221555Y10616409D01*
X14158147Y10711306D01*
X14077444Y10792009D01*
X14065600Y10799923D01*
X14065600Y13024907D01*
X14074427Y13015893D01*
G36*
X-8536175Y-35199819D02*
G01*
X-8539400Y-35216034D01*
X-8539400Y-35330166D01*
X-8517134Y-35442105D01*
X-8515479Y-35446100D01*
X-11288115Y-35446100D01*
X-11786282Y-35397255D01*
X-12251158Y-35256901D01*
X-12679914Y-35028926D01*
X-13056229Y-34722012D01*
X-13365762Y-34347851D01*
X-13596725Y-33920694D01*
X-13740321Y-33456808D01*
X-13792588Y-32959526D01*
X-13792600Y-32956013D01*
X-13792600Y-29943393D01*
X-8536175Y-35199819D01*
X-8536175Y-35199819D01*
G37*
X-8536175Y-35199819D02*
X-8539400Y-35216034D01*
X-8539400Y-35330166D01*
X-8517134Y-35442105D01*
X-8515479Y-35446100D01*
X-11288115Y-35446100D01*
X-11786282Y-35397255D01*
X-12251158Y-35256901D01*
X-12679914Y-35028926D01*
X-13056229Y-34722012D01*
X-13365762Y-34347851D01*
X-13596725Y-33920694D01*
X-13740321Y-33456808D01*
X-13792588Y-32959526D01*
X-13792600Y-32956013D01*
X-13792600Y-29943393D01*
X-8536175Y-35199819D01*
G36*
X-5908929Y-35446100D02*
G01*
X-7404521Y-35446100D01*
X-7402866Y-35442105D01*
X-7380600Y-35330166D01*
X-7380600Y-35216034D01*
X-7402866Y-35104095D01*
X-7446543Y-34998651D01*
X-7509951Y-34903754D01*
X-7590654Y-34823051D01*
X-7685551Y-34759643D01*
X-7790995Y-34715966D01*
X-7902934Y-34693700D01*
X-8017066Y-34693700D01*
X-8033281Y-34696925D01*
X-13478075Y-29252132D01*
X-13478075Y-27876952D01*
X-5908929Y-35446100D01*
X-5908929Y-35446100D01*
G37*
X-5908929Y-35446100D02*
X-7404521Y-35446100D01*
X-7402866Y-35442105D01*
X-7380600Y-35330166D01*
X-7380600Y-35216034D01*
X-7402866Y-35104095D01*
X-7446543Y-34998651D01*
X-7509951Y-34903754D01*
X-7590654Y-34823051D01*
X-7685551Y-34759643D01*
X-7790995Y-34715966D01*
X-7902934Y-34693700D01*
X-8017066Y-34693700D01*
X-8033281Y-34696925D01*
X-13478075Y-29252132D01*
X-13478075Y-27876952D01*
X-5908929Y-35446100D01*
G36*
X-4934342Y-20515208D02*
G01*
X-4822403Y-20537474D01*
X-4708271Y-20537474D01*
X-4692056Y-20534249D01*
X-4397207Y-20829098D01*
X-4386074Y-20842663D01*
X-4331927Y-20887101D01*
X-4270151Y-20920121D01*
X-4203121Y-20940454D01*
X-4150874Y-20945600D01*
X-4150866Y-20945600D01*
X-4133411Y-20947319D01*
X-4115956Y-20945600D01*
X-1877293Y-20945600D01*
X2866206Y-25689100D01*
X2877337Y-25702663D01*
X2931484Y-25747101D01*
X2993260Y-25780121D01*
X3038757Y-25793922D01*
X3060289Y-25800454D01*
X3066566Y-25801072D01*
X3112537Y-25805600D01*
X3112544Y-25805600D01*
X3130000Y-25807319D01*
X3147455Y-25805600D01*
X4370766Y-25805600D01*
X4379951Y-25819346D01*
X4460654Y-25900049D01*
X4555551Y-25963457D01*
X4660995Y-26007134D01*
X4772934Y-26029400D01*
X4887066Y-26029400D01*
X4999005Y-26007134D01*
X5104449Y-25963457D01*
X5132173Y-25944932D01*
X4682707Y-26394400D01*
X1869310Y-26394400D01*
X1851855Y-26392681D01*
X1834399Y-26394400D01*
X1834392Y-26394400D01*
X1788421Y-26398928D01*
X1782144Y-26399546D01*
X1761811Y-26405714D01*
X1715115Y-26419879D01*
X1653339Y-26452899D01*
X1599192Y-26497337D01*
X1588061Y-26510900D01*
X-273761Y-28372722D01*
X-289976Y-28369497D01*
X-404108Y-28369497D01*
X-516047Y-28391763D01*
X-621491Y-28435440D01*
X-716388Y-28498848D01*
X-797091Y-28579551D01*
X-860499Y-28674448D01*
X-904176Y-28779892D01*
X-926442Y-28891831D01*
X-926442Y-29005963D01*
X-904176Y-29117902D01*
X-860499Y-29223346D01*
X-797091Y-29318243D01*
X-716388Y-29398946D01*
X-621491Y-29462354D01*
X-516047Y-29506031D01*
X-404108Y-29528297D01*
X-289976Y-29528297D01*
X-178037Y-29506031D01*
X-72593Y-29462354D01*
X22304Y-29398946D01*
X103007Y-29318243D01*
X166415Y-29223346D01*
X210092Y-29117902D01*
X232358Y-29005963D01*
X232358Y-28891831D01*
X229133Y-28875616D01*
X1999149Y-27105600D01*
X4812545Y-27105600D01*
X4830000Y-27107319D01*
X4847455Y-27105600D01*
X4847463Y-27105600D01*
X4899710Y-27100454D01*
X4966740Y-27080121D01*
X5028516Y-27047101D01*
X5082663Y-27002663D01*
X5093799Y-26989095D01*
X5559280Y-26523614D01*
X5559280Y-29294268D01*
X3910350Y-30943199D01*
X3685854Y-30943199D01*
X3696306Y-30917967D01*
X3718572Y-30806028D01*
X3718572Y-30691896D01*
X3696306Y-30579957D01*
X3652629Y-30474513D01*
X3589221Y-30379616D01*
X3508518Y-30298913D01*
X3413621Y-30235505D01*
X3308177Y-30191828D01*
X3196238Y-30169562D01*
X3082106Y-30169562D01*
X2970167Y-30191828D01*
X2864723Y-30235505D01*
X2769826Y-30298913D01*
X2689123Y-30379616D01*
X2625715Y-30474513D01*
X2582038Y-30579957D01*
X2559772Y-30691896D01*
X2559772Y-30806028D01*
X2582038Y-30917967D01*
X2597017Y-30954129D01*
X2446578Y-30968946D01*
X2111160Y-31070694D01*
X1802036Y-31235924D01*
X1531088Y-31458286D01*
X1308726Y-31729234D01*
X1143496Y-32038358D01*
X1041748Y-32373776D01*
X1007392Y-32722599D01*
X1027658Y-32928368D01*
X1007974Y-32915215D01*
X864676Y-32855859D01*
X712552Y-32825600D01*
X557448Y-32825600D01*
X405324Y-32855859D01*
X387949Y-32863056D01*
X-864201Y-31610906D01*
X-875337Y-31597337D01*
X-929484Y-31552899D01*
X-991260Y-31519879D01*
X-1058290Y-31499546D01*
X-1110537Y-31494400D01*
X-1110545Y-31494400D01*
X-1128000Y-31492681D01*
X-1145455Y-31494400D01*
X-6682706Y-31494400D01*
X-9936130Y-28240977D01*
X-9845551Y-28203457D01*
X-9750654Y-28140049D01*
X-9669951Y-28059346D01*
X-9606543Y-27964449D01*
X-9562866Y-27859005D01*
X-9540600Y-27747066D01*
X-9540600Y-27632934D01*
X-9562866Y-27520995D01*
X-9590600Y-27454040D01*
X-9590600Y-26674670D01*
X-8561821Y-27703450D01*
X-8565046Y-27719665D01*
X-8565046Y-27833797D01*
X-8542780Y-27945736D01*
X-8499103Y-28051180D01*
X-8435695Y-28146077D01*
X-8354992Y-28226780D01*
X-8260095Y-28290188D01*
X-8154651Y-28333865D01*
X-8042712Y-28356131D01*
X-7928580Y-28356131D01*
X-7816641Y-28333865D01*
X-7711197Y-28290188D01*
X-7616300Y-28226780D01*
X-7535597Y-28146077D01*
X-7472189Y-28051180D01*
X-7428512Y-27945736D01*
X-7406246Y-27833797D01*
X-7406246Y-27719665D01*
X-7428512Y-27607726D01*
X-7472189Y-27502282D01*
X-7535597Y-27407385D01*
X-7616300Y-27326682D01*
X-7711197Y-27263274D01*
X-7816641Y-27219597D01*
X-7928580Y-27197331D01*
X-8042712Y-27197331D01*
X-8058927Y-27200556D01*
X-9123009Y-26136475D01*
X-9123009Y-25120196D01*
X-8563602Y-25120196D01*
X-8563602Y-25234328D01*
X-8541336Y-25346267D01*
X-8497659Y-25451711D01*
X-8434251Y-25546608D01*
X-8353548Y-25627311D01*
X-8258651Y-25690719D01*
X-8153207Y-25734396D01*
X-8041268Y-25756662D01*
X-7927136Y-25756662D01*
X-7815197Y-25734396D01*
X-7709753Y-25690719D01*
X-7614856Y-25627311D01*
X-7534153Y-25546608D01*
X-7470745Y-25451711D01*
X-7427068Y-25346267D01*
X-7404802Y-25234328D01*
X-7404802Y-25120196D01*
X-7427068Y-25008257D01*
X-7470745Y-24902813D01*
X-7534153Y-24807916D01*
X-7614856Y-24727213D01*
X-7709753Y-24663805D01*
X-7815197Y-24620128D01*
X-7927136Y-24597862D01*
X-8041268Y-24597862D01*
X-8153207Y-24620128D01*
X-8258651Y-24663805D01*
X-8353548Y-24727213D01*
X-8434251Y-24807916D01*
X-8497659Y-24902813D01*
X-8541336Y-25008257D01*
X-8563602Y-25120196D01*
X-9123009Y-25120196D01*
X-9123009Y-21347096D01*
X-8606914Y-21863192D01*
X-8587206Y-21887206D01*
X-8491368Y-21965859D01*
X-8382026Y-22024303D01*
X-8263384Y-22060293D01*
X-8170917Y-22069400D01*
X-8170908Y-22069400D01*
X-8140001Y-22072444D01*
X-8109094Y-22069400D01*
X-6800789Y-22069400D01*
X-6800790Y-25414865D01*
X-6802988Y-25437180D01*
X-6800790Y-25459495D01*
X-6800790Y-25459497D01*
X-6794215Y-25526257D01*
X-6775867Y-25586741D01*
X-6768231Y-25611913D01*
X-6726037Y-25690852D01*
X-6716344Y-25702663D01*
X-6669254Y-25760044D01*
X-6651913Y-25774275D01*
X-6064400Y-26361789D01*
X-6064401Y-27779961D01*
X-6079005Y-27782866D01*
X-6184449Y-27826543D01*
X-6279346Y-27889951D01*
X-6360049Y-27970654D01*
X-6423457Y-28065551D01*
X-6467134Y-28170995D01*
X-6489400Y-28282934D01*
X-6489400Y-28397066D01*
X-6467134Y-28509005D01*
X-6423457Y-28614449D01*
X-6360049Y-28709346D01*
X-6279346Y-28790049D01*
X-6184449Y-28853457D01*
X-6079005Y-28897134D01*
X-5967066Y-28919400D01*
X-5852934Y-28919400D01*
X-5740995Y-28897134D01*
X-5635551Y-28853457D01*
X-5540654Y-28790049D01*
X-5459951Y-28709346D01*
X-5396543Y-28614449D01*
X-5362778Y-28532934D01*
X-4359400Y-28532934D01*
X-4359400Y-28647066D01*
X-4337134Y-28759005D01*
X-4293457Y-28864449D01*
X-4230049Y-28959346D01*
X-4149346Y-29040049D01*
X-4054449Y-29103457D01*
X-3949005Y-29147134D01*
X-3837066Y-29169400D01*
X-3722934Y-29169400D01*
X-3610995Y-29147134D01*
X-3505551Y-29103457D01*
X-3410654Y-29040049D01*
X-3329951Y-28959346D01*
X-3266543Y-28864449D01*
X-3222866Y-28759005D01*
X-3200600Y-28647066D01*
X-3200600Y-28532934D01*
X-3222866Y-28420995D01*
X-3266543Y-28315551D01*
X-3329951Y-28220654D01*
X-3410654Y-28139951D01*
X-3505551Y-28076543D01*
X-3610995Y-28032866D01*
X-3722934Y-28010600D01*
X-3837066Y-28010600D01*
X-3949005Y-28032866D01*
X-4054449Y-28076543D01*
X-4149346Y-28139951D01*
X-4230049Y-28220654D01*
X-4293457Y-28315551D01*
X-4337134Y-28420995D01*
X-4359400Y-28532934D01*
X-5362778Y-28532934D01*
X-5352866Y-28509005D01*
X-5332127Y-28404745D01*
X-5304482Y-28377099D01*
X-5287137Y-28362865D01*
X-5243910Y-28310191D01*
X-5230354Y-28293674D01*
X-5203436Y-28243313D01*
X-5188159Y-28214733D01*
X-5162176Y-28129079D01*
X-5155601Y-28062319D01*
X-5155601Y-28062316D01*
X-5153403Y-28040001D01*
X-5155601Y-28017686D01*
X-5155601Y-26195881D01*
X-5153403Y-26173568D01*
X-5155601Y-26151251D01*
X-5162176Y-26084491D01*
X-5188159Y-25998837D01*
X-5193530Y-25988788D01*
X-5230354Y-25919896D01*
X-5272911Y-25868040D01*
X-5287137Y-25850705D01*
X-5304473Y-25836478D01*
X-5378234Y-25762717D01*
X-4493059Y-25762717D01*
X-4493059Y-25876849D01*
X-4470793Y-25988788D01*
X-4427116Y-26094232D01*
X-4363708Y-26189129D01*
X-4283005Y-26269832D01*
X-4188108Y-26333240D01*
X-4082664Y-26376917D01*
X-3970725Y-26399183D01*
X-3856593Y-26399183D01*
X-3744654Y-26376917D01*
X-3639210Y-26333240D01*
X-3544313Y-26269832D01*
X-3463610Y-26189129D01*
X-3400202Y-26094232D01*
X-3356525Y-25988788D01*
X-3334259Y-25876849D01*
X-3334259Y-25762717D01*
X-3356525Y-25650778D01*
X-3400202Y-25545334D01*
X-3463610Y-25450437D01*
X-3544313Y-25369734D01*
X-3639210Y-25306326D01*
X-3744654Y-25262649D01*
X-3856593Y-25240383D01*
X-3970725Y-25240383D01*
X-4082664Y-25262649D01*
X-4188108Y-25306326D01*
X-4283005Y-25369734D01*
X-4363708Y-25450437D01*
X-4427116Y-25545334D01*
X-4470793Y-25650778D01*
X-4493059Y-25762717D01*
X-5378234Y-25762717D01*
X-5891990Y-25248962D01*
X-5891990Y-24469535D01*
X-4475514Y-24469535D01*
X-4475514Y-24583667D01*
X-4453248Y-24695606D01*
X-4409571Y-24801050D01*
X-4346163Y-24895947D01*
X-4265460Y-24976650D01*
X-4170563Y-25040058D01*
X-4065119Y-25083735D01*
X-3953180Y-25106001D01*
X-3839048Y-25106001D01*
X-3727109Y-25083735D01*
X-3621665Y-25040058D01*
X-3526768Y-24976650D01*
X-3446065Y-24895947D01*
X-3382657Y-24801050D01*
X-3338980Y-24695606D01*
X-3316714Y-24583667D01*
X-3316714Y-24469535D01*
X-3338980Y-24357596D01*
X-3382657Y-24252152D01*
X-3446065Y-24157255D01*
X-3526768Y-24076552D01*
X-3621665Y-24013144D01*
X-3727109Y-23969467D01*
X-3839048Y-23947201D01*
X-3953180Y-23947201D01*
X-4065119Y-23969467D01*
X-4170563Y-24013144D01*
X-4265460Y-24076552D01*
X-4346163Y-24157255D01*
X-4409571Y-24252152D01*
X-4453248Y-24357596D01*
X-4475514Y-24469535D01*
X-5891990Y-24469535D01*
X-5891990Y-21768635D01*
X-5845697Y-21682026D01*
X-5809707Y-21563384D01*
X-5798666Y-21451285D01*
X-5131872Y-20784491D01*
X-5114537Y-20770265D01*
X-5089700Y-20740000D01*
X-5057754Y-20701074D01*
X-5015560Y-20622135D01*
X-5013886Y-20616617D01*
X-4989576Y-20536479D01*
X-4985398Y-20494059D01*
X-4934342Y-20515208D01*
X-4934342Y-20515208D01*
G37*
X-4934342Y-20515208D02*
X-4822403Y-20537474D01*
X-4708271Y-20537474D01*
X-4692056Y-20534249D01*
X-4397207Y-20829098D01*
X-4386074Y-20842663D01*
X-4331927Y-20887101D01*
X-4270151Y-20920121D01*
X-4203121Y-20940454D01*
X-4150874Y-20945600D01*
X-4150866Y-20945600D01*
X-4133411Y-20947319D01*
X-4115956Y-20945600D01*
X-1877293Y-20945600D01*
X2866206Y-25689100D01*
X2877337Y-25702663D01*
X2931484Y-25747101D01*
X2993260Y-25780121D01*
X3038757Y-25793922D01*
X3060289Y-25800454D01*
X3066566Y-25801072D01*
X3112537Y-25805600D01*
X3112544Y-25805600D01*
X3130000Y-25807319D01*
X3147455Y-25805600D01*
X4370766Y-25805600D01*
X4379951Y-25819346D01*
X4460654Y-25900049D01*
X4555551Y-25963457D01*
X4660995Y-26007134D01*
X4772934Y-26029400D01*
X4887066Y-26029400D01*
X4999005Y-26007134D01*
X5104449Y-25963457D01*
X5132173Y-25944932D01*
X4682707Y-26394400D01*
X1869310Y-26394400D01*
X1851855Y-26392681D01*
X1834399Y-26394400D01*
X1834392Y-26394400D01*
X1788421Y-26398928D01*
X1782144Y-26399546D01*
X1761811Y-26405714D01*
X1715115Y-26419879D01*
X1653339Y-26452899D01*
X1599192Y-26497337D01*
X1588061Y-26510900D01*
X-273761Y-28372722D01*
X-289976Y-28369497D01*
X-404108Y-28369497D01*
X-516047Y-28391763D01*
X-621491Y-28435440D01*
X-716388Y-28498848D01*
X-797091Y-28579551D01*
X-860499Y-28674448D01*
X-904176Y-28779892D01*
X-926442Y-28891831D01*
X-926442Y-29005963D01*
X-904176Y-29117902D01*
X-860499Y-29223346D01*
X-797091Y-29318243D01*
X-716388Y-29398946D01*
X-621491Y-29462354D01*
X-516047Y-29506031D01*
X-404108Y-29528297D01*
X-289976Y-29528297D01*
X-178037Y-29506031D01*
X-72593Y-29462354D01*
X22304Y-29398946D01*
X103007Y-29318243D01*
X166415Y-29223346D01*
X210092Y-29117902D01*
X232358Y-29005963D01*
X232358Y-28891831D01*
X229133Y-28875616D01*
X1999149Y-27105600D01*
X4812545Y-27105600D01*
X4830000Y-27107319D01*
X4847455Y-27105600D01*
X4847463Y-27105600D01*
X4899710Y-27100454D01*
X4966740Y-27080121D01*
X5028516Y-27047101D01*
X5082663Y-27002663D01*
X5093799Y-26989095D01*
X5559280Y-26523614D01*
X5559280Y-29294268D01*
X3910350Y-30943199D01*
X3685854Y-30943199D01*
X3696306Y-30917967D01*
X3718572Y-30806028D01*
X3718572Y-30691896D01*
X3696306Y-30579957D01*
X3652629Y-30474513D01*
X3589221Y-30379616D01*
X3508518Y-30298913D01*
X3413621Y-30235505D01*
X3308177Y-30191828D01*
X3196238Y-30169562D01*
X3082106Y-30169562D01*
X2970167Y-30191828D01*
X2864723Y-30235505D01*
X2769826Y-30298913D01*
X2689123Y-30379616D01*
X2625715Y-30474513D01*
X2582038Y-30579957D01*
X2559772Y-30691896D01*
X2559772Y-30806028D01*
X2582038Y-30917967D01*
X2597017Y-30954129D01*
X2446578Y-30968946D01*
X2111160Y-31070694D01*
X1802036Y-31235924D01*
X1531088Y-31458286D01*
X1308726Y-31729234D01*
X1143496Y-32038358D01*
X1041748Y-32373776D01*
X1007392Y-32722599D01*
X1027658Y-32928368D01*
X1007974Y-32915215D01*
X864676Y-32855859D01*
X712552Y-32825600D01*
X557448Y-32825600D01*
X405324Y-32855859D01*
X387949Y-32863056D01*
X-864201Y-31610906D01*
X-875337Y-31597337D01*
X-929484Y-31552899D01*
X-991260Y-31519879D01*
X-1058290Y-31499546D01*
X-1110537Y-31494400D01*
X-1110545Y-31494400D01*
X-1128000Y-31492681D01*
X-1145455Y-31494400D01*
X-6682706Y-31494400D01*
X-9936130Y-28240977D01*
X-9845551Y-28203457D01*
X-9750654Y-28140049D01*
X-9669951Y-28059346D01*
X-9606543Y-27964449D01*
X-9562866Y-27859005D01*
X-9540600Y-27747066D01*
X-9540600Y-27632934D01*
X-9562866Y-27520995D01*
X-9590600Y-27454040D01*
X-9590600Y-26674670D01*
X-8561821Y-27703450D01*
X-8565046Y-27719665D01*
X-8565046Y-27833797D01*
X-8542780Y-27945736D01*
X-8499103Y-28051180D01*
X-8435695Y-28146077D01*
X-8354992Y-28226780D01*
X-8260095Y-28290188D01*
X-8154651Y-28333865D01*
X-8042712Y-28356131D01*
X-7928580Y-28356131D01*
X-7816641Y-28333865D01*
X-7711197Y-28290188D01*
X-7616300Y-28226780D01*
X-7535597Y-28146077D01*
X-7472189Y-28051180D01*
X-7428512Y-27945736D01*
X-7406246Y-27833797D01*
X-7406246Y-27719665D01*
X-7428512Y-27607726D01*
X-7472189Y-27502282D01*
X-7535597Y-27407385D01*
X-7616300Y-27326682D01*
X-7711197Y-27263274D01*
X-7816641Y-27219597D01*
X-7928580Y-27197331D01*
X-8042712Y-27197331D01*
X-8058927Y-27200556D01*
X-9123009Y-26136475D01*
X-9123009Y-25120196D01*
X-8563602Y-25120196D01*
X-8563602Y-25234328D01*
X-8541336Y-25346267D01*
X-8497659Y-25451711D01*
X-8434251Y-25546608D01*
X-8353548Y-25627311D01*
X-8258651Y-25690719D01*
X-8153207Y-25734396D01*
X-8041268Y-25756662D01*
X-7927136Y-25756662D01*
X-7815197Y-25734396D01*
X-7709753Y-25690719D01*
X-7614856Y-25627311D01*
X-7534153Y-25546608D01*
X-7470745Y-25451711D01*
X-7427068Y-25346267D01*
X-7404802Y-25234328D01*
X-7404802Y-25120196D01*
X-7427068Y-25008257D01*
X-7470745Y-24902813D01*
X-7534153Y-24807916D01*
X-7614856Y-24727213D01*
X-7709753Y-24663805D01*
X-7815197Y-24620128D01*
X-7927136Y-24597862D01*
X-8041268Y-24597862D01*
X-8153207Y-24620128D01*
X-8258651Y-24663805D01*
X-8353548Y-24727213D01*
X-8434251Y-24807916D01*
X-8497659Y-24902813D01*
X-8541336Y-25008257D01*
X-8563602Y-25120196D01*
X-9123009Y-25120196D01*
X-9123009Y-21347096D01*
X-8606914Y-21863192D01*
X-8587206Y-21887206D01*
X-8491368Y-21965859D01*
X-8382026Y-22024303D01*
X-8263384Y-22060293D01*
X-8170917Y-22069400D01*
X-8170908Y-22069400D01*
X-8140001Y-22072444D01*
X-8109094Y-22069400D01*
X-6800789Y-22069400D01*
X-6800790Y-25414865D01*
X-6802988Y-25437180D01*
X-6800790Y-25459495D01*
X-6800790Y-25459497D01*
X-6794215Y-25526257D01*
X-6775867Y-25586741D01*
X-6768231Y-25611913D01*
X-6726037Y-25690852D01*
X-6716344Y-25702663D01*
X-6669254Y-25760044D01*
X-6651913Y-25774275D01*
X-6064400Y-26361789D01*
X-6064401Y-27779961D01*
X-6079005Y-27782866D01*
X-6184449Y-27826543D01*
X-6279346Y-27889951D01*
X-6360049Y-27970654D01*
X-6423457Y-28065551D01*
X-6467134Y-28170995D01*
X-6489400Y-28282934D01*
X-6489400Y-28397066D01*
X-6467134Y-28509005D01*
X-6423457Y-28614449D01*
X-6360049Y-28709346D01*
X-6279346Y-28790049D01*
X-6184449Y-28853457D01*
X-6079005Y-28897134D01*
X-5967066Y-28919400D01*
X-5852934Y-28919400D01*
X-5740995Y-28897134D01*
X-5635551Y-28853457D01*
X-5540654Y-28790049D01*
X-5459951Y-28709346D01*
X-5396543Y-28614449D01*
X-5362778Y-28532934D01*
X-4359400Y-28532934D01*
X-4359400Y-28647066D01*
X-4337134Y-28759005D01*
X-4293457Y-28864449D01*
X-4230049Y-28959346D01*
X-4149346Y-29040049D01*
X-4054449Y-29103457D01*
X-3949005Y-29147134D01*
X-3837066Y-29169400D01*
X-3722934Y-29169400D01*
X-3610995Y-29147134D01*
X-3505551Y-29103457D01*
X-3410654Y-29040049D01*
X-3329951Y-28959346D01*
X-3266543Y-28864449D01*
X-3222866Y-28759005D01*
X-3200600Y-28647066D01*
X-3200600Y-28532934D01*
X-3222866Y-28420995D01*
X-3266543Y-28315551D01*
X-3329951Y-28220654D01*
X-3410654Y-28139951D01*
X-3505551Y-28076543D01*
X-3610995Y-28032866D01*
X-3722934Y-28010600D01*
X-3837066Y-28010600D01*
X-3949005Y-28032866D01*
X-4054449Y-28076543D01*
X-4149346Y-28139951D01*
X-4230049Y-28220654D01*
X-4293457Y-28315551D01*
X-4337134Y-28420995D01*
X-4359400Y-28532934D01*
X-5362778Y-28532934D01*
X-5352866Y-28509005D01*
X-5332127Y-28404745D01*
X-5304482Y-28377099D01*
X-5287137Y-28362865D01*
X-5243910Y-28310191D01*
X-5230354Y-28293674D01*
X-5203436Y-28243313D01*
X-5188159Y-28214733D01*
X-5162176Y-28129079D01*
X-5155601Y-28062319D01*
X-5155601Y-28062316D01*
X-5153403Y-28040001D01*
X-5155601Y-28017686D01*
X-5155601Y-26195881D01*
X-5153403Y-26173568D01*
X-5155601Y-26151251D01*
X-5162176Y-26084491D01*
X-5188159Y-25998837D01*
X-5193530Y-25988788D01*
X-5230354Y-25919896D01*
X-5272911Y-25868040D01*
X-5287137Y-25850705D01*
X-5304473Y-25836478D01*
X-5378234Y-25762717D01*
X-4493059Y-25762717D01*
X-4493059Y-25876849D01*
X-4470793Y-25988788D01*
X-4427116Y-26094232D01*
X-4363708Y-26189129D01*
X-4283005Y-26269832D01*
X-4188108Y-26333240D01*
X-4082664Y-26376917D01*
X-3970725Y-26399183D01*
X-3856593Y-26399183D01*
X-3744654Y-26376917D01*
X-3639210Y-26333240D01*
X-3544313Y-26269832D01*
X-3463610Y-26189129D01*
X-3400202Y-26094232D01*
X-3356525Y-25988788D01*
X-3334259Y-25876849D01*
X-3334259Y-25762717D01*
X-3356525Y-25650778D01*
X-3400202Y-25545334D01*
X-3463610Y-25450437D01*
X-3544313Y-25369734D01*
X-3639210Y-25306326D01*
X-3744654Y-25262649D01*
X-3856593Y-25240383D01*
X-3970725Y-25240383D01*
X-4082664Y-25262649D01*
X-4188108Y-25306326D01*
X-4283005Y-25369734D01*
X-4363708Y-25450437D01*
X-4427116Y-25545334D01*
X-4470793Y-25650778D01*
X-4493059Y-25762717D01*
X-5378234Y-25762717D01*
X-5891990Y-25248962D01*
X-5891990Y-24469535D01*
X-4475514Y-24469535D01*
X-4475514Y-24583667D01*
X-4453248Y-24695606D01*
X-4409571Y-24801050D01*
X-4346163Y-24895947D01*
X-4265460Y-24976650D01*
X-4170563Y-25040058D01*
X-4065119Y-25083735D01*
X-3953180Y-25106001D01*
X-3839048Y-25106001D01*
X-3727109Y-25083735D01*
X-3621665Y-25040058D01*
X-3526768Y-24976650D01*
X-3446065Y-24895947D01*
X-3382657Y-24801050D01*
X-3338980Y-24695606D01*
X-3316714Y-24583667D01*
X-3316714Y-24469535D01*
X-3338980Y-24357596D01*
X-3382657Y-24252152D01*
X-3446065Y-24157255D01*
X-3526768Y-24076552D01*
X-3621665Y-24013144D01*
X-3727109Y-23969467D01*
X-3839048Y-23947201D01*
X-3953180Y-23947201D01*
X-4065119Y-23969467D01*
X-4170563Y-24013144D01*
X-4265460Y-24076552D01*
X-4346163Y-24157255D01*
X-4409571Y-24252152D01*
X-4453248Y-24357596D01*
X-4475514Y-24469535D01*
X-5891990Y-24469535D01*
X-5891990Y-21768635D01*
X-5845697Y-21682026D01*
X-5809707Y-21563384D01*
X-5798666Y-21451285D01*
X-5131872Y-20784491D01*
X-5114537Y-20770265D01*
X-5089700Y-20740000D01*
X-5057754Y-20701074D01*
X-5015560Y-20622135D01*
X-5013886Y-20616617D01*
X-4989576Y-20536479D01*
X-4985398Y-20494059D01*
X-4934342Y-20515208D01*
G36*
X-11315222Y-24614525D02*
G01*
X-11319227Y-24612866D01*
X-11431166Y-24590600D01*
X-11545298Y-24590600D01*
X-11657237Y-24612866D01*
X-11762681Y-24656543D01*
X-11857578Y-24719951D01*
X-11938281Y-24800654D01*
X-12001689Y-24895551D01*
X-12045366Y-25000995D01*
X-12067632Y-25112934D01*
X-12067632Y-25227066D01*
X-12045366Y-25339005D01*
X-12001689Y-25444449D01*
X-11938281Y-25539346D01*
X-11857578Y-25620049D01*
X-11762681Y-25683457D01*
X-11657237Y-25727134D01*
X-11545298Y-25749400D01*
X-11431166Y-25749400D01*
X-11319227Y-25727134D01*
X-11315222Y-25725475D01*
X-11315222Y-27731885D01*
X-12254020Y-26793087D01*
X-12254020Y-13466913D01*
X-11315221Y-12528115D01*
X-11315222Y-24614525D01*
X-11315222Y-24614525D01*
G37*
X-11315222Y-24614525D02*
X-11319227Y-24612866D01*
X-11431166Y-24590600D01*
X-11545298Y-24590600D01*
X-11657237Y-24612866D01*
X-11762681Y-24656543D01*
X-11857578Y-24719951D01*
X-11938281Y-24800654D01*
X-12001689Y-24895551D01*
X-12045366Y-25000995D01*
X-12067632Y-25112934D01*
X-12067632Y-25227066D01*
X-12045366Y-25339005D01*
X-12001689Y-25444449D01*
X-11938281Y-25539346D01*
X-11857578Y-25620049D01*
X-11762681Y-25683457D01*
X-11657237Y-25727134D01*
X-11545298Y-25749400D01*
X-11431166Y-25749400D01*
X-11319227Y-25727134D01*
X-11315222Y-25725475D01*
X-11315222Y-27731885D01*
X-12254020Y-26793087D01*
X-12254020Y-13466913D01*
X-11315221Y-12528115D01*
X-11315222Y-24614525D01*
G36*
X-5621321Y-7483569D02*
G01*
X-5605876Y-7506467D01*
X-5590786Y-7529527D01*
X-5588100Y-7532821D01*
X-5401495Y-7758388D01*
X-5381897Y-7777850D01*
X-5362615Y-7797540D01*
X-5359341Y-7800249D01*
X-5132477Y-7985275D01*
X-5109479Y-8000555D01*
X-5086733Y-8016129D01*
X-5082994Y-8018151D01*
X-4824513Y-8155588D01*
X-4799030Y-8166091D01*
X-4773648Y-8176970D01*
X-4769588Y-8178227D01*
X-4489333Y-8262841D01*
X-4462240Y-8268206D01*
X-4435283Y-8273936D01*
X-4431067Y-8274379D01*
X-4431056Y-8274381D01*
X-4431046Y-8274381D01*
X-4139704Y-8302947D01*
X-4139699Y-8302947D01*
X-4124946Y-8304400D01*
X5459802Y-8304400D01*
X5315759Y-8348095D01*
X5006635Y-8513325D01*
X4735687Y-8735687D01*
X4513325Y-9006636D01*
X4348095Y-9315760D01*
X4246347Y-9651178D01*
X4220600Y-9912592D01*
X4220601Y-15267213D01*
X4211992Y-15354624D01*
X4246347Y-15703446D01*
X4348096Y-16038865D01*
X4513325Y-16347988D01*
X4679967Y-16551042D01*
X4679972Y-16551047D01*
X4735688Y-16618937D01*
X4803578Y-16674653D01*
X5559279Y-17430355D01*
X5559279Y-18035406D01*
X5529005Y-18022866D01*
X5417066Y-18000600D01*
X5302934Y-18000600D01*
X5190995Y-18022866D01*
X5085551Y-18066543D01*
X4990654Y-18129951D01*
X4909951Y-18210654D01*
X4846543Y-18305551D01*
X4802866Y-18410995D01*
X4780600Y-18522934D01*
X4780600Y-18637066D01*
X4802866Y-18749005D01*
X4846543Y-18854449D01*
X4909951Y-18949346D01*
X4990654Y-19030049D01*
X5085551Y-19093457D01*
X5190995Y-19137134D01*
X5302934Y-19159400D01*
X5417066Y-19159400D01*
X5529005Y-19137134D01*
X5559279Y-19124594D01*
X5559280Y-24766386D01*
X5243798Y-24450905D01*
X5232663Y-24437337D01*
X5178516Y-24392899D01*
X5116740Y-24359879D01*
X5049710Y-24339546D01*
X4997463Y-24334400D01*
X4997455Y-24334400D01*
X4980000Y-24332681D01*
X4962545Y-24334400D01*
X2957295Y-24334400D01*
X-1714400Y-19662707D01*
X-1714400Y-17542934D01*
X-1279400Y-17542934D01*
X-1279400Y-17657066D01*
X-1257134Y-17769005D01*
X-1213457Y-17874449D01*
X-1150049Y-17969346D01*
X-1069346Y-18050049D01*
X-994589Y-18100000D01*
X-1069346Y-18149951D01*
X-1150049Y-18230654D01*
X-1213457Y-18325551D01*
X-1257134Y-18430995D01*
X-1279400Y-18542934D01*
X-1279400Y-18657066D01*
X-1257134Y-18769005D01*
X-1213457Y-18874449D01*
X-1150049Y-18969346D01*
X-1069346Y-19050049D01*
X-974449Y-19113457D01*
X-869005Y-19157134D01*
X-757066Y-19179400D01*
X-642934Y-19179400D01*
X-530995Y-19157134D01*
X-425551Y-19113457D01*
X-330654Y-19050049D01*
X-249951Y-18969346D01*
X-195925Y-18888490D01*
X-193457Y-18894449D01*
X-130049Y-18989346D01*
X-49346Y-19070049D01*
X445Y-19103318D01*
X-69346Y-19149951D01*
X-150049Y-19230654D01*
X-213457Y-19325551D01*
X-257134Y-19430995D01*
X-279400Y-19542934D01*
X-279400Y-19657066D01*
X-257134Y-19769005D01*
X-213457Y-19874449D01*
X-150049Y-19969346D01*
X-69346Y-20050049D01*
X25551Y-20113457D01*
X130995Y-20157134D01*
X242934Y-20179400D01*
X357066Y-20179400D01*
X469005Y-20157134D01*
X574449Y-20113457D01*
X669346Y-20050049D01*
X750049Y-19969346D01*
X813457Y-19874449D01*
X857134Y-19769005D01*
X879400Y-19657066D01*
X879400Y-19542934D01*
X857134Y-19430995D01*
X813457Y-19325551D01*
X750049Y-19230654D01*
X669346Y-19149951D01*
X619555Y-19116682D01*
X689346Y-19070049D01*
X770049Y-18989346D01*
X816682Y-18919555D01*
X849951Y-18969346D01*
X930654Y-19050049D01*
X1025551Y-19113457D01*
X1130995Y-19157134D01*
X1242934Y-19179400D01*
X1357066Y-19179400D01*
X1469005Y-19157134D01*
X1574449Y-19113457D01*
X1669346Y-19050049D01*
X1750049Y-18969346D01*
X1813457Y-18874449D01*
X1857134Y-18769005D01*
X1879400Y-18657066D01*
X1879400Y-18542934D01*
X1857134Y-18430995D01*
X1813457Y-18325551D01*
X1750049Y-18230654D01*
X1669346Y-18149951D01*
X1594589Y-18100000D01*
X1669346Y-18050049D01*
X1750049Y-17969346D01*
X1813457Y-17874449D01*
X1857134Y-17769005D01*
X1879400Y-17657066D01*
X1879400Y-17542934D01*
X1857134Y-17430995D01*
X1813457Y-17325551D01*
X1750049Y-17230654D01*
X1669346Y-17149951D01*
X1574449Y-17086543D01*
X1469005Y-17042866D01*
X1357066Y-17020600D01*
X1242934Y-17020600D01*
X1130995Y-17042866D01*
X1025551Y-17086543D01*
X930654Y-17149951D01*
X849951Y-17230654D01*
X800000Y-17305411D01*
X750049Y-17230654D01*
X669346Y-17149951D01*
X574449Y-17086543D01*
X469005Y-17042866D01*
X357066Y-17020600D01*
X242934Y-17020600D01*
X130995Y-17042866D01*
X25551Y-17086543D01*
X-69346Y-17149951D01*
X-150049Y-17230654D01*
X-200000Y-17305411D01*
X-249951Y-17230654D01*
X-330654Y-17149951D01*
X-425551Y-17086543D01*
X-530995Y-17042866D01*
X-642934Y-17020600D01*
X-757066Y-17020600D01*
X-869005Y-17042866D01*
X-974449Y-17086543D01*
X-1069346Y-17149951D01*
X-1150049Y-17230654D01*
X-1213457Y-17325551D01*
X-1257134Y-17430995D01*
X-1279400Y-17542934D01*
X-1714400Y-17542934D01*
X-1714400Y-15587455D01*
X-1712681Y-15570000D01*
X-1714400Y-15552545D01*
X-1714400Y-15552537D01*
X-1719546Y-15500290D01*
X-1739879Y-15433260D01*
X-1772899Y-15371484D01*
X-1817337Y-15317337D01*
X-1830900Y-15306206D01*
X-3636200Y-13500907D01*
X-3636205Y-13500901D01*
X-5308483Y-11828624D01*
X-5300995Y-11827134D01*
X-5195551Y-11783457D01*
X-5100654Y-11720049D01*
X-5019951Y-11639346D01*
X-4956543Y-11544449D01*
X-4912866Y-11439005D01*
X-4890600Y-11327066D01*
X-4890600Y-11212934D01*
X-4912866Y-11100995D01*
X-4956543Y-10995551D01*
X-5019951Y-10900654D01*
X-5100654Y-10819951D01*
X-5195551Y-10756543D01*
X-5300995Y-10712866D01*
X-5412934Y-10690600D01*
X-5527066Y-10690600D01*
X-5639005Y-10712866D01*
X-5674400Y-10727527D01*
X-5674400Y-7385402D01*
X-5621321Y-7483569D01*
X-5621321Y-7483569D01*
G37*
X-5621321Y-7483569D02*
X-5605876Y-7506467D01*
X-5590786Y-7529527D01*
X-5588100Y-7532821D01*
X-5401495Y-7758388D01*
X-5381897Y-7777850D01*
X-5362615Y-7797540D01*
X-5359341Y-7800249D01*
X-5132477Y-7985275D01*
X-5109479Y-8000555D01*
X-5086733Y-8016129D01*
X-5082994Y-8018151D01*
X-4824513Y-8155588D01*
X-4799030Y-8166091D01*
X-4773648Y-8176970D01*
X-4769588Y-8178227D01*
X-4489333Y-8262841D01*
X-4462240Y-8268206D01*
X-4435283Y-8273936D01*
X-4431067Y-8274379D01*
X-4431056Y-8274381D01*
X-4431046Y-8274381D01*
X-4139704Y-8302947D01*
X-4139699Y-8302947D01*
X-4124946Y-8304400D01*
X5459802Y-8304400D01*
X5315759Y-8348095D01*
X5006635Y-8513325D01*
X4735687Y-8735687D01*
X4513325Y-9006636D01*
X4348095Y-9315760D01*
X4246347Y-9651178D01*
X4220600Y-9912592D01*
X4220601Y-15267213D01*
X4211992Y-15354624D01*
X4246347Y-15703446D01*
X4348096Y-16038865D01*
X4513325Y-16347988D01*
X4679967Y-16551042D01*
X4679972Y-16551047D01*
X4735688Y-16618937D01*
X4803578Y-16674653D01*
X5559279Y-17430355D01*
X5559279Y-18035406D01*
X5529005Y-18022866D01*
X5417066Y-18000600D01*
X5302934Y-18000600D01*
X5190995Y-18022866D01*
X5085551Y-18066543D01*
X4990654Y-18129951D01*
X4909951Y-18210654D01*
X4846543Y-18305551D01*
X4802866Y-18410995D01*
X4780600Y-18522934D01*
X4780600Y-18637066D01*
X4802866Y-18749005D01*
X4846543Y-18854449D01*
X4909951Y-18949346D01*
X4990654Y-19030049D01*
X5085551Y-19093457D01*
X5190995Y-19137134D01*
X5302934Y-19159400D01*
X5417066Y-19159400D01*
X5529005Y-19137134D01*
X5559279Y-19124594D01*
X5559280Y-24766386D01*
X5243798Y-24450905D01*
X5232663Y-24437337D01*
X5178516Y-24392899D01*
X5116740Y-24359879D01*
X5049710Y-24339546D01*
X4997463Y-24334400D01*
X4997455Y-24334400D01*
X4980000Y-24332681D01*
X4962545Y-24334400D01*
X2957295Y-24334400D01*
X-1714400Y-19662707D01*
X-1714400Y-17542934D01*
X-1279400Y-17542934D01*
X-1279400Y-17657066D01*
X-1257134Y-17769005D01*
X-1213457Y-17874449D01*
X-1150049Y-17969346D01*
X-1069346Y-18050049D01*
X-994589Y-18100000D01*
X-1069346Y-18149951D01*
X-1150049Y-18230654D01*
X-1213457Y-18325551D01*
X-1257134Y-18430995D01*
X-1279400Y-18542934D01*
X-1279400Y-18657066D01*
X-1257134Y-18769005D01*
X-1213457Y-18874449D01*
X-1150049Y-18969346D01*
X-1069346Y-19050049D01*
X-974449Y-19113457D01*
X-869005Y-19157134D01*
X-757066Y-19179400D01*
X-642934Y-19179400D01*
X-530995Y-19157134D01*
X-425551Y-19113457D01*
X-330654Y-19050049D01*
X-249951Y-18969346D01*
X-195925Y-18888490D01*
X-193457Y-18894449D01*
X-130049Y-18989346D01*
X-49346Y-19070049D01*
X445Y-19103318D01*
X-69346Y-19149951D01*
X-150049Y-19230654D01*
X-213457Y-19325551D01*
X-257134Y-19430995D01*
X-279400Y-19542934D01*
X-279400Y-19657066D01*
X-257134Y-19769005D01*
X-213457Y-19874449D01*
X-150049Y-19969346D01*
X-69346Y-20050049D01*
X25551Y-20113457D01*
X130995Y-20157134D01*
X242934Y-20179400D01*
X357066Y-20179400D01*
X469005Y-20157134D01*
X574449Y-20113457D01*
X669346Y-20050049D01*
X750049Y-19969346D01*
X813457Y-19874449D01*
X857134Y-19769005D01*
X879400Y-19657066D01*
X879400Y-19542934D01*
X857134Y-19430995D01*
X813457Y-19325551D01*
X750049Y-19230654D01*
X669346Y-19149951D01*
X619555Y-19116682D01*
X689346Y-19070049D01*
X770049Y-18989346D01*
X816682Y-18919555D01*
X849951Y-18969346D01*
X930654Y-19050049D01*
X1025551Y-19113457D01*
X1130995Y-19157134D01*
X1242934Y-19179400D01*
X1357066Y-19179400D01*
X1469005Y-19157134D01*
X1574449Y-19113457D01*
X1669346Y-19050049D01*
X1750049Y-18969346D01*
X1813457Y-18874449D01*
X1857134Y-18769005D01*
X1879400Y-18657066D01*
X1879400Y-18542934D01*
X1857134Y-18430995D01*
X1813457Y-18325551D01*
X1750049Y-18230654D01*
X1669346Y-18149951D01*
X1594589Y-18100000D01*
X1669346Y-18050049D01*
X1750049Y-17969346D01*
X1813457Y-17874449D01*
X1857134Y-17769005D01*
X1879400Y-17657066D01*
X1879400Y-17542934D01*
X1857134Y-17430995D01*
X1813457Y-17325551D01*
X1750049Y-17230654D01*
X1669346Y-17149951D01*
X1574449Y-17086543D01*
X1469005Y-17042866D01*
X1357066Y-17020600D01*
X1242934Y-17020600D01*
X1130995Y-17042866D01*
X1025551Y-17086543D01*
X930654Y-17149951D01*
X849951Y-17230654D01*
X800000Y-17305411D01*
X750049Y-17230654D01*
X669346Y-17149951D01*
X574449Y-17086543D01*
X469005Y-17042866D01*
X357066Y-17020600D01*
X242934Y-17020600D01*
X130995Y-17042866D01*
X25551Y-17086543D01*
X-69346Y-17149951D01*
X-150049Y-17230654D01*
X-200000Y-17305411D01*
X-249951Y-17230654D01*
X-330654Y-17149951D01*
X-425551Y-17086543D01*
X-530995Y-17042866D01*
X-642934Y-17020600D01*
X-757066Y-17020600D01*
X-869005Y-17042866D01*
X-974449Y-17086543D01*
X-1069346Y-17149951D01*
X-1150049Y-17230654D01*
X-1213457Y-17325551D01*
X-1257134Y-17430995D01*
X-1279400Y-17542934D01*
X-1714400Y-17542934D01*
X-1714400Y-15587455D01*
X-1712681Y-15570000D01*
X-1714400Y-15552545D01*
X-1714400Y-15552537D01*
X-1719546Y-15500290D01*
X-1739879Y-15433260D01*
X-1772899Y-15371484D01*
X-1817337Y-15317337D01*
X-1830900Y-15306206D01*
X-3636200Y-13500907D01*
X-3636205Y-13500901D01*
X-5308483Y-11828624D01*
X-5300995Y-11827134D01*
X-5195551Y-11783457D01*
X-5100654Y-11720049D01*
X-5019951Y-11639346D01*
X-4956543Y-11544449D01*
X-4912866Y-11439005D01*
X-4890600Y-11327066D01*
X-4890600Y-11212934D01*
X-4912866Y-11100995D01*
X-4956543Y-10995551D01*
X-5019951Y-10900654D01*
X-5100654Y-10819951D01*
X-5195551Y-10756543D01*
X-5300995Y-10712866D01*
X-5412934Y-10690600D01*
X-5527066Y-10690600D01*
X-5639005Y-10712866D01*
X-5674400Y-10727527D01*
X-5674400Y-7385402D01*
X-5621321Y-7483569D01*
G36*
X-4139099Y-14003795D02*
G01*
X-4139093Y-14003800D01*
X-2425599Y-15717295D01*
X-2425600Y-19792544D01*
X-2427319Y-19810000D01*
X-2425600Y-19827455D01*
X-2425600Y-19827462D01*
X-2420454Y-19879709D01*
X-2400121Y-19946739D01*
X-2367101Y-20008515D01*
X-2322663Y-20062662D01*
X-2309098Y-20073795D01*
X-2148493Y-20234400D01*
X-3986117Y-20234400D01*
X-4189162Y-20031355D01*
X-4185937Y-20015140D01*
X-4185937Y-19901008D01*
X-4208203Y-19789069D01*
X-4251880Y-19683625D01*
X-4315288Y-19588728D01*
X-4349825Y-19554191D01*
X-4296543Y-19474449D01*
X-4252866Y-19369005D01*
X-4230600Y-19257066D01*
X-4230600Y-19142934D01*
X-4252866Y-19030995D01*
X-4259740Y-19014400D01*
X-3822834Y-19014400D01*
X-3734449Y-19073457D01*
X-3629005Y-19117134D01*
X-3517066Y-19139400D01*
X-3402934Y-19139400D01*
X-3290995Y-19117134D01*
X-3185551Y-19073457D01*
X-3090654Y-19010049D01*
X-3009951Y-18929346D01*
X-2946543Y-18834449D01*
X-2902866Y-18729005D01*
X-2880600Y-18617066D01*
X-2880600Y-18502934D01*
X-2902866Y-18390995D01*
X-2946543Y-18285551D01*
X-3009951Y-18190654D01*
X-3090654Y-18109951D01*
X-3185551Y-18046543D01*
X-3290995Y-18002866D01*
X-3402934Y-17980600D01*
X-3517066Y-17980600D01*
X-3629005Y-18002866D01*
X-3734449Y-18046543D01*
X-3822834Y-18105600D01*
X-4073994Y-18105600D01*
X-4066543Y-18094449D01*
X-4022866Y-17989005D01*
X-4000600Y-17877066D01*
X-4000600Y-17762934D01*
X-4022866Y-17650995D01*
X-4066543Y-17545551D01*
X-4129951Y-17450654D01*
X-4210654Y-17369951D01*
X-4224400Y-17360766D01*
X-4224400Y-13918494D01*
X-4139099Y-14003795D01*
X-4139099Y-14003795D01*
G37*
X-4139099Y-14003795D02*
X-4139093Y-14003800D01*
X-2425599Y-15717295D01*
X-2425600Y-19792544D01*
X-2427319Y-19810000D01*
X-2425600Y-19827455D01*
X-2425600Y-19827462D01*
X-2420454Y-19879709D01*
X-2400121Y-19946739D01*
X-2367101Y-20008515D01*
X-2322663Y-20062662D01*
X-2309098Y-20073795D01*
X-2148493Y-20234400D01*
X-3986117Y-20234400D01*
X-4189162Y-20031355D01*
X-4185937Y-20015140D01*
X-4185937Y-19901008D01*
X-4208203Y-19789069D01*
X-4251880Y-19683625D01*
X-4315288Y-19588728D01*
X-4349825Y-19554191D01*
X-4296543Y-19474449D01*
X-4252866Y-19369005D01*
X-4230600Y-19257066D01*
X-4230600Y-19142934D01*
X-4252866Y-19030995D01*
X-4259740Y-19014400D01*
X-3822834Y-19014400D01*
X-3734449Y-19073457D01*
X-3629005Y-19117134D01*
X-3517066Y-19139400D01*
X-3402934Y-19139400D01*
X-3290995Y-19117134D01*
X-3185551Y-19073457D01*
X-3090654Y-19010049D01*
X-3009951Y-18929346D01*
X-2946543Y-18834449D01*
X-2902866Y-18729005D01*
X-2880600Y-18617066D01*
X-2880600Y-18502934D01*
X-2902866Y-18390995D01*
X-2946543Y-18285551D01*
X-3009951Y-18190654D01*
X-3090654Y-18109951D01*
X-3185551Y-18046543D01*
X-3290995Y-18002866D01*
X-3402934Y-17980600D01*
X-3517066Y-17980600D01*
X-3629005Y-18002866D01*
X-3734449Y-18046543D01*
X-3822834Y-18105600D01*
X-4073994Y-18105600D01*
X-4066543Y-18094449D01*
X-4022866Y-17989005D01*
X-4000600Y-17877066D01*
X-4000600Y-17762934D01*
X-4022866Y-17650995D01*
X-4066543Y-17545551D01*
X-4129951Y-17450654D01*
X-4210654Y-17369951D01*
X-4224400Y-17360766D01*
X-4224400Y-13918494D01*
X-4139099Y-14003795D01*
G36*
X-14189275Y-16711303D02*
G01*
X-14201427Y-16698893D01*
X-14204702Y-16696183D01*
X-14358364Y-16570859D01*
X-14381377Y-16555569D01*
X-14404108Y-16540005D01*
X-14407842Y-16537986D01*
X-14407846Y-16537983D01*
X-14407850Y-16537981D01*
X-14582924Y-16444892D01*
X-14608473Y-16434361D01*
X-14633792Y-16423510D01*
X-14637844Y-16422255D01*
X-14637850Y-16422253D01*
X-14637856Y-16422252D01*
X-14827678Y-16364942D01*
X-14854756Y-16359580D01*
X-14881727Y-16353847D01*
X-14885947Y-16353404D01*
X-14885955Y-16353402D01*
X-14885963Y-16353402D01*
X-15083295Y-16334053D01*
X-15083301Y-16334053D01*
X-15098054Y-16332600D01*
X-19670115Y-16332600D01*
X-20168282Y-16283755D01*
X-20633158Y-16143401D01*
X-21061914Y-15915426D01*
X-21438229Y-15608512D01*
X-21747762Y-15234351D01*
X-21978725Y-14807194D01*
X-22122321Y-14343308D01*
X-22174588Y-13846026D01*
X-22174600Y-13842513D01*
X-22174600Y10145115D01*
X-22125755Y10643282D01*
X-21985400Y11108159D01*
X-21757426Y11536914D01*
X-21450511Y11913229D01*
X-21076351Y12222762D01*
X-20649194Y12453725D01*
X-20185308Y12597321D01*
X-19688027Y12649588D01*
X-19684513Y12649600D01*
X-15098054Y12649600D01*
X-15084630Y12650922D01*
X-15078318Y12650878D01*
X-15074088Y12651293D01*
X-14876886Y12672020D01*
X-14849841Y12677571D01*
X-14822761Y12682737D01*
X-14818694Y12683964D01*
X-14818688Y12683966D01*
X-14629271Y12742600D01*
X-14603803Y12753305D01*
X-14578256Y12763627D01*
X-14574513Y12765617D01*
X-14574504Y12765621D01*
X-14574497Y12765626D01*
X-14400080Y12859933D01*
X-14377197Y12875368D01*
X-14354122Y12890468D01*
X-14350828Y12893154D01*
X-14198044Y13019548D01*
X-14189274Y13028379D01*
X-14189275Y-16711303D01*
X-14189275Y-16711303D01*
G37*
X-14189275Y-16711303D02*
X-14201427Y-16698893D01*
X-14204702Y-16696183D01*
X-14358364Y-16570859D01*
X-14381377Y-16555569D01*
X-14404108Y-16540005D01*
X-14407842Y-16537986D01*
X-14407846Y-16537983D01*
X-14407850Y-16537981D01*
X-14582924Y-16444892D01*
X-14608473Y-16434361D01*
X-14633792Y-16423510D01*
X-14637844Y-16422255D01*
X-14637850Y-16422253D01*
X-14637856Y-16422252D01*
X-14827678Y-16364942D01*
X-14854756Y-16359580D01*
X-14881727Y-16353847D01*
X-14885947Y-16353404D01*
X-14885955Y-16353402D01*
X-14885963Y-16353402D01*
X-15083295Y-16334053D01*
X-15083301Y-16334053D01*
X-15098054Y-16332600D01*
X-19670115Y-16332600D01*
X-20168282Y-16283755D01*
X-20633158Y-16143401D01*
X-21061914Y-15915426D01*
X-21438229Y-15608512D01*
X-21747762Y-15234351D01*
X-21978725Y-14807194D01*
X-22122321Y-14343308D01*
X-22174588Y-13846026D01*
X-22174600Y-13842513D01*
X-22174600Y10145115D01*
X-22125755Y10643282D01*
X-21985400Y11108159D01*
X-21757426Y11536914D01*
X-21450511Y11913229D01*
X-21076351Y12222762D01*
X-20649194Y12453725D01*
X-20185308Y12597321D01*
X-19688027Y12649588D01*
X-19684513Y12649600D01*
X-15098054Y12649600D01*
X-15084630Y12650922D01*
X-15078318Y12650878D01*
X-15074088Y12651293D01*
X-14876886Y12672020D01*
X-14849841Y12677571D01*
X-14822761Y12682737D01*
X-14818694Y12683964D01*
X-14818688Y12683966D01*
X-14629271Y12742600D01*
X-14603803Y12753305D01*
X-14578256Y12763627D01*
X-14574513Y12765617D01*
X-14574504Y12765621D01*
X-14574497Y12765626D01*
X-14400080Y12859933D01*
X-14377197Y12875368D01*
X-14354122Y12890468D01*
X-14350828Y12893154D01*
X-14198044Y13019548D01*
X-14189274Y13028379D01*
X-14189275Y-16711303D01*
G36*
X11501045Y5775455D02*
G01*
X7489496Y1763905D01*
X7473280Y1767130D01*
X7359148Y1767130D01*
X7247209Y1744864D01*
X7141765Y1701187D01*
X7046868Y1637779D01*
X6966165Y1557076D01*
X6902757Y1462179D01*
X6859080Y1356735D01*
X6836814Y1244796D01*
X6836814Y1130664D01*
X6859080Y1018725D01*
X6902757Y913281D01*
X6966165Y818384D01*
X7046868Y737681D01*
X7141765Y674273D01*
X7247209Y630596D01*
X7359148Y608330D01*
X7473280Y608330D01*
X7585219Y630596D01*
X7690663Y674273D01*
X7785560Y737681D01*
X7866263Y818384D01*
X7929671Y913281D01*
X7973348Y1018725D01*
X7995614Y1130664D01*
X7995614Y1244796D01*
X7992389Y1261012D01*
X10194401Y3463023D01*
X10194400Y1359234D01*
X10180654Y1350049D01*
X10099951Y1269346D01*
X10036543Y1174449D01*
X9992866Y1069005D01*
X9970600Y957066D01*
X9970600Y842934D01*
X9992866Y730995D01*
X10036543Y625551D01*
X10099951Y530654D01*
X10180654Y449951D01*
X10275551Y386543D01*
X10380995Y342866D01*
X10492934Y320600D01*
X10607066Y320600D01*
X10719005Y342866D01*
X10824449Y386543D01*
X10919346Y449951D01*
X11000049Y530654D01*
X11063457Y625551D01*
X11107134Y730995D01*
X11129400Y842934D01*
X11129400Y957066D01*
X11107134Y1069005D01*
X11063457Y1174449D01*
X11000049Y1269346D01*
X10919346Y1350049D01*
X10905600Y1359234D01*
X10905600Y3372707D01*
X13185650Y5652756D01*
X13194641Y5631051D01*
X13253699Y5542665D01*
X13253698Y4169400D01*
X13212934Y4169400D01*
X13100995Y4147134D01*
X12995551Y4103457D01*
X12900654Y4040049D01*
X12819951Y3959346D01*
X12756543Y3864449D01*
X12712866Y3759005D01*
X12690600Y3647066D01*
X12690600Y3532934D01*
X12712866Y3420995D01*
X12756543Y3315551D01*
X12819951Y3220654D01*
X12900654Y3139951D01*
X12995551Y3076543D01*
X13100995Y3032866D01*
X13212934Y3010600D01*
X13327066Y3010600D01*
X13439005Y3032866D01*
X13443002Y3034521D01*
X13443001Y1694934D01*
X13350111Y1656457D01*
X13255214Y1593049D01*
X13174511Y1512346D01*
X13111103Y1417449D01*
X13067426Y1312005D01*
X13045160Y1200066D01*
X13045160Y1085934D01*
X13067426Y973995D01*
X13111103Y868551D01*
X13174511Y773654D01*
X13255214Y692951D01*
X13350111Y629543D01*
X13455555Y585866D01*
X13567494Y563600D01*
X13681626Y563600D01*
X13793565Y585866D01*
X13899009Y629543D01*
X13993906Y692951D01*
X14074609Y773654D01*
X14138017Y868551D01*
X14181694Y973995D01*
X14202432Y1078254D01*
X14202925Y1078747D01*
X14220265Y1092977D01*
X14273306Y1157609D01*
X14277048Y1162168D01*
X14319242Y1241107D01*
X14321524Y1248630D01*
X14345226Y1326763D01*
X14351801Y1393523D01*
X14351801Y1393527D01*
X14353999Y1415840D01*
X14351801Y1438153D01*
X14351801Y3868838D01*
X14353999Y3891153D01*
X14351801Y3913471D01*
X14345226Y3980231D01*
X14319243Y4065885D01*
X14277048Y4144825D01*
X14220265Y4214017D01*
X14202924Y4228248D01*
X14162498Y4268674D01*
X14162498Y5542666D01*
X14221555Y5631051D01*
X14265232Y5736495D01*
X14287498Y5848434D01*
X14287498Y5962566D01*
X14265232Y6074505D01*
X14221555Y6179949D01*
X14158147Y6274846D01*
X14077444Y6355549D01*
X13982547Y6418957D01*
X13960842Y6427948D01*
X14389104Y6856210D01*
X14402662Y6867337D01*
X14413790Y6880896D01*
X14413795Y6880901D01*
X14441396Y6914533D01*
X14447101Y6921484D01*
X14454400Y6935139D01*
X14454401Y-14801345D01*
X12842267Y-16413480D01*
X12035853Y-16413480D01*
X12053174Y-16371665D01*
X12075440Y-16259726D01*
X12075440Y-16145594D01*
X12053174Y-16033655D01*
X12009497Y-15928211D01*
X11946089Y-15833314D01*
X11866036Y-15753261D01*
X11942460Y-15676837D01*
X11992556Y-15601863D01*
X12036591Y-15667766D01*
X12117294Y-15748469D01*
X12212191Y-15811877D01*
X12317635Y-15855554D01*
X12429574Y-15877820D01*
X12543706Y-15877820D01*
X12655645Y-15855554D01*
X12761089Y-15811877D01*
X12855986Y-15748469D01*
X12936689Y-15667766D01*
X13000097Y-15572869D01*
X13043774Y-15467425D01*
X13066040Y-15355486D01*
X13066040Y-15241354D01*
X13043774Y-15129415D01*
X13000097Y-15023971D01*
X12936689Y-14929074D01*
X12855986Y-14848371D01*
X12761089Y-14784963D01*
X12655645Y-14741286D01*
X12543706Y-14719020D01*
X12429574Y-14719020D01*
X12317635Y-14741286D01*
X12212191Y-14784963D01*
X12117294Y-14848371D01*
X12036591Y-14929074D01*
X11986495Y-15004048D01*
X11942460Y-14938145D01*
X11861757Y-14857442D01*
X11854306Y-14852464D01*
X11855226Y-14851849D01*
X11935929Y-14771146D01*
X11999337Y-14676249D01*
X12043014Y-14570805D01*
X12065280Y-14458866D01*
X12065280Y-14344734D01*
X12043014Y-14232795D01*
X11999337Y-14127351D01*
X11935929Y-14032454D01*
X11855226Y-13951751D01*
X11760329Y-13888343D01*
X11654885Y-13844666D01*
X11542946Y-13822400D01*
X11428814Y-13822400D01*
X11316875Y-13844666D01*
X11211431Y-13888343D01*
X11116534Y-13951751D01*
X11035831Y-14032454D01*
X10972423Y-14127351D01*
X10928746Y-14232795D01*
X10906480Y-14344734D01*
X10906480Y-14458866D01*
X10928746Y-14570805D01*
X10972423Y-14676249D01*
X11035831Y-14771146D01*
X11116534Y-14851849D01*
X11123985Y-14856827D01*
X11123065Y-14857442D01*
X11042362Y-14938145D01*
X11025232Y-14963782D01*
X11008829Y-14939234D01*
X10928126Y-14858531D01*
X10833229Y-14795123D01*
X10727785Y-14751446D01*
X10615846Y-14729180D01*
X10501714Y-14729180D01*
X10389775Y-14751446D01*
X10284331Y-14795123D01*
X10189434Y-14858531D01*
X10108731Y-14939234D01*
X10045323Y-15034131D01*
X10001646Y-15139575D01*
X9979380Y-15251514D01*
X9979380Y-15365646D01*
X10001646Y-15477585D01*
X10045323Y-15583029D01*
X10108731Y-15677926D01*
X10189434Y-15758629D01*
X10284331Y-15822037D01*
X10389775Y-15865714D01*
X10501714Y-15887980D01*
X10615846Y-15887980D01*
X10727785Y-15865714D01*
X10833229Y-15822037D01*
X10928126Y-15758629D01*
X11008829Y-15677926D01*
X11025959Y-15652289D01*
X11042362Y-15676837D01*
X11122415Y-15756890D01*
X11045991Y-15833314D01*
X10982583Y-15928211D01*
X10938906Y-16033655D01*
X10916640Y-16145594D01*
X10916640Y-16259726D01*
X10938906Y-16371665D01*
X10956227Y-16413480D01*
X10006375Y-16413480D01*
X9966175Y-16373280D01*
X9969400Y-16357066D01*
X9969400Y-16242934D01*
X9947134Y-16130995D01*
X9903457Y-16025551D01*
X9840049Y-15930654D01*
X9759346Y-15849951D01*
X9664449Y-15786543D01*
X9559005Y-15742866D01*
X9447066Y-15720600D01*
X9332934Y-15720600D01*
X9220995Y-15742866D01*
X9115551Y-15786543D01*
X9020654Y-15849951D01*
X8945636Y-15924969D01*
X8825354Y-15699938D01*
X8807289Y-15677926D01*
X8658712Y-15496884D01*
X8658708Y-15496880D01*
X8602992Y-15428990D01*
X8535102Y-15373274D01*
X7779400Y-14617573D01*
X7779400Y-9912591D01*
X7753653Y-9651177D01*
X7651905Y-9315759D01*
X7486675Y-9006635D01*
X7264313Y-8735687D01*
X6993364Y-8513325D01*
X6684240Y-8348095D01*
X6540197Y-8304400D01*
X12404946Y-8304400D01*
X12418708Y-8303045D01*
X12428060Y-8303110D01*
X12432290Y-8302696D01*
X12723435Y-8272095D01*
X12750454Y-8266549D01*
X12777562Y-8261378D01*
X12781631Y-8260150D01*
X13061286Y-8173582D01*
X13086714Y-8162893D01*
X13112301Y-8152555D01*
X13116054Y-8150560D01*
X13373569Y-8011321D01*
X13396467Y-7995876D01*
X13419527Y-7980786D01*
X13422821Y-7978100D01*
X13648388Y-7791495D01*
X13667850Y-7771897D01*
X13687540Y-7752615D01*
X13690249Y-7749341D01*
X13875275Y-7522477D01*
X13890555Y-7499479D01*
X13906129Y-7476733D01*
X13908151Y-7472994D01*
X14045588Y-7214513D01*
X14056091Y-7189030D01*
X14066970Y-7163648D01*
X14068227Y-7159588D01*
X14152841Y-6879333D01*
X14158206Y-6852240D01*
X14163936Y-6825283D01*
X14164379Y-6821067D01*
X14164381Y-6821056D01*
X14164381Y-6821046D01*
X14192947Y-6529704D01*
X14192947Y-6529699D01*
X14194400Y-6514946D01*
X14194400Y-5485054D01*
X14193045Y-5471292D01*
X14193110Y-5461940D01*
X14192696Y-5457710D01*
X14162096Y-5166565D01*
X14156542Y-5139509D01*
X14151378Y-5112438D01*
X14150150Y-5108369D01*
X14063582Y-4828713D01*
X14052887Y-4803272D01*
X14042555Y-4777699D01*
X14040560Y-4773946D01*
X13901321Y-4516430D01*
X13885864Y-4493515D01*
X13870786Y-4470473D01*
X13868100Y-4467179D01*
X13681495Y-4241612D01*
X13661916Y-4222169D01*
X13642616Y-4202460D01*
X13639341Y-4199751D01*
X13412477Y-4014725D01*
X13389479Y-3999445D01*
X13366733Y-3983871D01*
X13362994Y-3981849D01*
X13104513Y-3844412D01*
X13078990Y-3833892D01*
X13053648Y-3823030D01*
X13049588Y-3821773D01*
X12769334Y-3737159D01*
X12742259Y-3731798D01*
X12715283Y-3726064D01*
X12711058Y-3725620D01*
X12711056Y-3725620D01*
X12419704Y-3697053D01*
X12419699Y-3697053D01*
X12404946Y-3695600D01*
X805712Y-3695600D01*
X856740Y-3680121D01*
X918516Y-3647101D01*
X972663Y-3602663D01*
X983799Y-3589094D01*
X2697019Y-1875874D01*
X3144240Y-1875874D01*
X3144240Y-1990006D01*
X3166506Y-2101945D01*
X3210183Y-2207389D01*
X3273591Y-2302286D01*
X3354294Y-2382989D01*
X3449191Y-2446397D01*
X3554635Y-2490074D01*
X3653459Y-2509731D01*
X3641486Y-2538635D01*
X3619220Y-2650574D01*
X3619220Y-2764706D01*
X3641486Y-2876645D01*
X3685163Y-2982089D01*
X3748571Y-3076986D01*
X3829274Y-3157689D01*
X3924171Y-3221097D01*
X4029615Y-3264774D01*
X4141554Y-3287040D01*
X4255686Y-3287040D01*
X4367625Y-3264774D01*
X4473069Y-3221097D01*
X4567966Y-3157689D01*
X4648669Y-3076986D01*
X4712077Y-2982089D01*
X4755754Y-2876645D01*
X4778020Y-2764706D01*
X4778020Y-2650574D01*
X4757092Y-2545360D01*
X4781466Y-2545360D01*
X4893405Y-2523094D01*
X4998849Y-2479417D01*
X5093746Y-2416009D01*
X5174449Y-2335306D01*
X5237857Y-2240409D01*
X5281534Y-2134965D01*
X5303800Y-2023026D01*
X5303800Y-1908894D01*
X5281534Y-1796955D01*
X5237857Y-1691511D01*
X5174449Y-1596614D01*
X5093746Y-1515911D01*
X4998849Y-1452503D01*
X4893405Y-1408826D01*
X4781466Y-1386560D01*
X4772837Y-1386560D01*
X4793260Y-1283886D01*
X4793260Y-1169754D01*
X4770994Y-1057815D01*
X4727317Y-952371D01*
X4663909Y-857474D01*
X4583206Y-776771D01*
X4488309Y-713363D01*
X4382865Y-669686D01*
X4270926Y-647420D01*
X4156794Y-647420D01*
X4044855Y-669686D01*
X3939411Y-713363D01*
X3844514Y-776771D01*
X3763811Y-857474D01*
X3700403Y-952371D01*
X3656726Y-1057815D01*
X3634460Y-1169754D01*
X3634460Y-1283886D01*
X3649010Y-1357034D01*
X3554635Y-1375806D01*
X3449191Y-1419483D01*
X3354294Y-1482891D01*
X3273591Y-1563594D01*
X3210183Y-1658491D01*
X3166506Y-1763935D01*
X3144240Y-1875874D01*
X2697019Y-1875874D01*
X8589105Y4016211D01*
X8589109Y4016216D01*
X11134110Y6561215D01*
X11147662Y6572337D01*
X11158785Y6585890D01*
X11158795Y6585900D01*
X11192100Y6626483D01*
X11192102Y6626485D01*
X11225121Y6688260D01*
X11245454Y6755290D01*
X11250600Y6807537D01*
X11250600Y6807546D01*
X11252319Y6824999D01*
X11250600Y6842452D01*
X11250600Y7061941D01*
X11501044Y7312385D01*
X11501045Y5775455D01*
X11501045Y5775455D01*
G37*
X11501045Y5775455D02*
X7489496Y1763905D01*
X7473280Y1767130D01*
X7359148Y1767130D01*
X7247209Y1744864D01*
X7141765Y1701187D01*
X7046868Y1637779D01*
X6966165Y1557076D01*
X6902757Y1462179D01*
X6859080Y1356735D01*
X6836814Y1244796D01*
X6836814Y1130664D01*
X6859080Y1018725D01*
X6902757Y913281D01*
X6966165Y818384D01*
X7046868Y737681D01*
X7141765Y674273D01*
X7247209Y630596D01*
X7359148Y608330D01*
X7473280Y608330D01*
X7585219Y630596D01*
X7690663Y674273D01*
X7785560Y737681D01*
X7866263Y818384D01*
X7929671Y913281D01*
X7973348Y1018725D01*
X7995614Y1130664D01*
X7995614Y1244796D01*
X7992389Y1261012D01*
X10194401Y3463023D01*
X10194400Y1359234D01*
X10180654Y1350049D01*
X10099951Y1269346D01*
X10036543Y1174449D01*
X9992866Y1069005D01*
X9970600Y957066D01*
X9970600Y842934D01*
X9992866Y730995D01*
X10036543Y625551D01*
X10099951Y530654D01*
X10180654Y449951D01*
X10275551Y386543D01*
X10380995Y342866D01*
X10492934Y320600D01*
X10607066Y320600D01*
X10719005Y342866D01*
X10824449Y386543D01*
X10919346Y449951D01*
X11000049Y530654D01*
X11063457Y625551D01*
X11107134Y730995D01*
X11129400Y842934D01*
X11129400Y957066D01*
X11107134Y1069005D01*
X11063457Y1174449D01*
X11000049Y1269346D01*
X10919346Y1350049D01*
X10905600Y1359234D01*
X10905600Y3372707D01*
X13185650Y5652756D01*
X13194641Y5631051D01*
X13253699Y5542665D01*
X13253698Y4169400D01*
X13212934Y4169400D01*
X13100995Y4147134D01*
X12995551Y4103457D01*
X12900654Y4040049D01*
X12819951Y3959346D01*
X12756543Y3864449D01*
X12712866Y3759005D01*
X12690600Y3647066D01*
X12690600Y3532934D01*
X12712866Y3420995D01*
X12756543Y3315551D01*
X12819951Y3220654D01*
X12900654Y3139951D01*
X12995551Y3076543D01*
X13100995Y3032866D01*
X13212934Y3010600D01*
X13327066Y3010600D01*
X13439005Y3032866D01*
X13443002Y3034521D01*
X13443001Y1694934D01*
X13350111Y1656457D01*
X13255214Y1593049D01*
X13174511Y1512346D01*
X13111103Y1417449D01*
X13067426Y1312005D01*
X13045160Y1200066D01*
X13045160Y1085934D01*
X13067426Y973995D01*
X13111103Y868551D01*
X13174511Y773654D01*
X13255214Y692951D01*
X13350111Y629543D01*
X13455555Y585866D01*
X13567494Y563600D01*
X13681626Y563600D01*
X13793565Y585866D01*
X13899009Y629543D01*
X13993906Y692951D01*
X14074609Y773654D01*
X14138017Y868551D01*
X14181694Y973995D01*
X14202432Y1078254D01*
X14202925Y1078747D01*
X14220265Y1092977D01*
X14273306Y1157609D01*
X14277048Y1162168D01*
X14319242Y1241107D01*
X14321524Y1248630D01*
X14345226Y1326763D01*
X14351801Y1393523D01*
X14351801Y1393527D01*
X14353999Y1415840D01*
X14351801Y1438153D01*
X14351801Y3868838D01*
X14353999Y3891153D01*
X14351801Y3913471D01*
X14345226Y3980231D01*
X14319243Y4065885D01*
X14277048Y4144825D01*
X14220265Y4214017D01*
X14202924Y4228248D01*
X14162498Y4268674D01*
X14162498Y5542666D01*
X14221555Y5631051D01*
X14265232Y5736495D01*
X14287498Y5848434D01*
X14287498Y5962566D01*
X14265232Y6074505D01*
X14221555Y6179949D01*
X14158147Y6274846D01*
X14077444Y6355549D01*
X13982547Y6418957D01*
X13960842Y6427948D01*
X14389104Y6856210D01*
X14402662Y6867337D01*
X14413790Y6880896D01*
X14413795Y6880901D01*
X14441396Y6914533D01*
X14447101Y6921484D01*
X14454400Y6935139D01*
X14454401Y-14801345D01*
X12842267Y-16413480D01*
X12035853Y-16413480D01*
X12053174Y-16371665D01*
X12075440Y-16259726D01*
X12075440Y-16145594D01*
X12053174Y-16033655D01*
X12009497Y-15928211D01*
X11946089Y-15833314D01*
X11866036Y-15753261D01*
X11942460Y-15676837D01*
X11992556Y-15601863D01*
X12036591Y-15667766D01*
X12117294Y-15748469D01*
X12212191Y-15811877D01*
X12317635Y-15855554D01*
X12429574Y-15877820D01*
X12543706Y-15877820D01*
X12655645Y-15855554D01*
X12761089Y-15811877D01*
X12855986Y-15748469D01*
X12936689Y-15667766D01*
X13000097Y-15572869D01*
X13043774Y-15467425D01*
X13066040Y-15355486D01*
X13066040Y-15241354D01*
X13043774Y-15129415D01*
X13000097Y-15023971D01*
X12936689Y-14929074D01*
X12855986Y-14848371D01*
X12761089Y-14784963D01*
X12655645Y-14741286D01*
X12543706Y-14719020D01*
X12429574Y-14719020D01*
X12317635Y-14741286D01*
X12212191Y-14784963D01*
X12117294Y-14848371D01*
X12036591Y-14929074D01*
X11986495Y-15004048D01*
X11942460Y-14938145D01*
X11861757Y-14857442D01*
X11854306Y-14852464D01*
X11855226Y-14851849D01*
X11935929Y-14771146D01*
X11999337Y-14676249D01*
X12043014Y-14570805D01*
X12065280Y-14458866D01*
X12065280Y-14344734D01*
X12043014Y-14232795D01*
X11999337Y-14127351D01*
X11935929Y-14032454D01*
X11855226Y-13951751D01*
X11760329Y-13888343D01*
X11654885Y-13844666D01*
X11542946Y-13822400D01*
X11428814Y-13822400D01*
X11316875Y-13844666D01*
X11211431Y-13888343D01*
X11116534Y-13951751D01*
X11035831Y-14032454D01*
X10972423Y-14127351D01*
X10928746Y-14232795D01*
X10906480Y-14344734D01*
X10906480Y-14458866D01*
X10928746Y-14570805D01*
X10972423Y-14676249D01*
X11035831Y-14771146D01*
X11116534Y-14851849D01*
X11123985Y-14856827D01*
X11123065Y-14857442D01*
X11042362Y-14938145D01*
X11025232Y-14963782D01*
X11008829Y-14939234D01*
X10928126Y-14858531D01*
X10833229Y-14795123D01*
X10727785Y-14751446D01*
X10615846Y-14729180D01*
X10501714Y-14729180D01*
X10389775Y-14751446D01*
X10284331Y-14795123D01*
X10189434Y-14858531D01*
X10108731Y-14939234D01*
X10045323Y-15034131D01*
X10001646Y-15139575D01*
X9979380Y-15251514D01*
X9979380Y-15365646D01*
X10001646Y-15477585D01*
X10045323Y-15583029D01*
X10108731Y-15677926D01*
X10189434Y-15758629D01*
X10284331Y-15822037D01*
X10389775Y-15865714D01*
X10501714Y-15887980D01*
X10615846Y-15887980D01*
X10727785Y-15865714D01*
X10833229Y-15822037D01*
X10928126Y-15758629D01*
X11008829Y-15677926D01*
X11025959Y-15652289D01*
X11042362Y-15676837D01*
X11122415Y-15756890D01*
X11045991Y-15833314D01*
X10982583Y-15928211D01*
X10938906Y-16033655D01*
X10916640Y-16145594D01*
X10916640Y-16259726D01*
X10938906Y-16371665D01*
X10956227Y-16413480D01*
X10006375Y-16413480D01*
X9966175Y-16373280D01*
X9969400Y-16357066D01*
X9969400Y-16242934D01*
X9947134Y-16130995D01*
X9903457Y-16025551D01*
X9840049Y-15930654D01*
X9759346Y-15849951D01*
X9664449Y-15786543D01*
X9559005Y-15742866D01*
X9447066Y-15720600D01*
X9332934Y-15720600D01*
X9220995Y-15742866D01*
X9115551Y-15786543D01*
X9020654Y-15849951D01*
X8945636Y-15924969D01*
X8825354Y-15699938D01*
X8807289Y-15677926D01*
X8658712Y-15496884D01*
X8658708Y-15496880D01*
X8602992Y-15428990D01*
X8535102Y-15373274D01*
X7779400Y-14617573D01*
X7779400Y-9912591D01*
X7753653Y-9651177D01*
X7651905Y-9315759D01*
X7486675Y-9006635D01*
X7264313Y-8735687D01*
X6993364Y-8513325D01*
X6684240Y-8348095D01*
X6540197Y-8304400D01*
X12404946Y-8304400D01*
X12418708Y-8303045D01*
X12428060Y-8303110D01*
X12432290Y-8302696D01*
X12723435Y-8272095D01*
X12750454Y-8266549D01*
X12777562Y-8261378D01*
X12781631Y-8260150D01*
X13061286Y-8173582D01*
X13086714Y-8162893D01*
X13112301Y-8152555D01*
X13116054Y-8150560D01*
X13373569Y-8011321D01*
X13396467Y-7995876D01*
X13419527Y-7980786D01*
X13422821Y-7978100D01*
X13648388Y-7791495D01*
X13667850Y-7771897D01*
X13687540Y-7752615D01*
X13690249Y-7749341D01*
X13875275Y-7522477D01*
X13890555Y-7499479D01*
X13906129Y-7476733D01*
X13908151Y-7472994D01*
X14045588Y-7214513D01*
X14056091Y-7189030D01*
X14066970Y-7163648D01*
X14068227Y-7159588D01*
X14152841Y-6879333D01*
X14158206Y-6852240D01*
X14163936Y-6825283D01*
X14164379Y-6821067D01*
X14164381Y-6821056D01*
X14164381Y-6821046D01*
X14192947Y-6529704D01*
X14192947Y-6529699D01*
X14194400Y-6514946D01*
X14194400Y-5485054D01*
X14193045Y-5471292D01*
X14193110Y-5461940D01*
X14192696Y-5457710D01*
X14162096Y-5166565D01*
X14156542Y-5139509D01*
X14151378Y-5112438D01*
X14150150Y-5108369D01*
X14063582Y-4828713D01*
X14052887Y-4803272D01*
X14042555Y-4777699D01*
X14040560Y-4773946D01*
X13901321Y-4516430D01*
X13885864Y-4493515D01*
X13870786Y-4470473D01*
X13868100Y-4467179D01*
X13681495Y-4241612D01*
X13661916Y-4222169D01*
X13642616Y-4202460D01*
X13639341Y-4199751D01*
X13412477Y-4014725D01*
X13389479Y-3999445D01*
X13366733Y-3983871D01*
X13362994Y-3981849D01*
X13104513Y-3844412D01*
X13078990Y-3833892D01*
X13053648Y-3823030D01*
X13049588Y-3821773D01*
X12769334Y-3737159D01*
X12742259Y-3731798D01*
X12715283Y-3726064D01*
X12711058Y-3725620D01*
X12711056Y-3725620D01*
X12419704Y-3697053D01*
X12419699Y-3697053D01*
X12404946Y-3695600D01*
X805712Y-3695600D01*
X856740Y-3680121D01*
X918516Y-3647101D01*
X972663Y-3602663D01*
X983799Y-3589094D01*
X2697019Y-1875874D01*
X3144240Y-1875874D01*
X3144240Y-1990006D01*
X3166506Y-2101945D01*
X3210183Y-2207389D01*
X3273591Y-2302286D01*
X3354294Y-2382989D01*
X3449191Y-2446397D01*
X3554635Y-2490074D01*
X3653459Y-2509731D01*
X3641486Y-2538635D01*
X3619220Y-2650574D01*
X3619220Y-2764706D01*
X3641486Y-2876645D01*
X3685163Y-2982089D01*
X3748571Y-3076986D01*
X3829274Y-3157689D01*
X3924171Y-3221097D01*
X4029615Y-3264774D01*
X4141554Y-3287040D01*
X4255686Y-3287040D01*
X4367625Y-3264774D01*
X4473069Y-3221097D01*
X4567966Y-3157689D01*
X4648669Y-3076986D01*
X4712077Y-2982089D01*
X4755754Y-2876645D01*
X4778020Y-2764706D01*
X4778020Y-2650574D01*
X4757092Y-2545360D01*
X4781466Y-2545360D01*
X4893405Y-2523094D01*
X4998849Y-2479417D01*
X5093746Y-2416009D01*
X5174449Y-2335306D01*
X5237857Y-2240409D01*
X5281534Y-2134965D01*
X5303800Y-2023026D01*
X5303800Y-1908894D01*
X5281534Y-1796955D01*
X5237857Y-1691511D01*
X5174449Y-1596614D01*
X5093746Y-1515911D01*
X4998849Y-1452503D01*
X4893405Y-1408826D01*
X4781466Y-1386560D01*
X4772837Y-1386560D01*
X4793260Y-1283886D01*
X4793260Y-1169754D01*
X4770994Y-1057815D01*
X4727317Y-952371D01*
X4663909Y-857474D01*
X4583206Y-776771D01*
X4488309Y-713363D01*
X4382865Y-669686D01*
X4270926Y-647420D01*
X4156794Y-647420D01*
X4044855Y-669686D01*
X3939411Y-713363D01*
X3844514Y-776771D01*
X3763811Y-857474D01*
X3700403Y-952371D01*
X3656726Y-1057815D01*
X3634460Y-1169754D01*
X3634460Y-1283886D01*
X3649010Y-1357034D01*
X3554635Y-1375806D01*
X3449191Y-1419483D01*
X3354294Y-1482891D01*
X3273591Y-1563594D01*
X3210183Y-1658491D01*
X3166506Y-1763935D01*
X3144240Y-1875874D01*
X2697019Y-1875874D01*
X8589105Y4016211D01*
X8589109Y4016216D01*
X11134110Y6561215D01*
X11147662Y6572337D01*
X11158785Y6585890D01*
X11158795Y6585900D01*
X11192100Y6626483D01*
X11192102Y6626485D01*
X11225121Y6688260D01*
X11245454Y6755290D01*
X11250600Y6807537D01*
X11250600Y6807546D01*
X11252319Y6824999D01*
X11250600Y6842452D01*
X11250600Y7061941D01*
X11501044Y7312385D01*
X11501045Y5775455D01*
G36*
X1318708Y19714740D02*
G01*
X1318709Y17010636D01*
X1290068Y17022500D01*
X1178129Y17044766D01*
X1063997Y17044766D01*
X952058Y17022500D01*
X846614Y16978823D01*
X751717Y16915415D01*
X671014Y16834712D01*
X607606Y16739815D01*
X563929Y16634371D01*
X543191Y16530111D01*
X515537Y16502458D01*
X498201Y16488231D01*
X441417Y16419039D01*
X424965Y16388261D01*
X354078Y16459148D01*
X259181Y16522556D01*
X153737Y16566233D01*
X41798Y16588499D01*
X-72334Y16588499D01*
X-184273Y16566233D01*
X-289717Y16522556D01*
X-384614Y16459148D01*
X-465317Y16378445D01*
X-528725Y16283548D01*
X-572402Y16178104D01*
X-594668Y16066165D01*
X-594668Y15952033D01*
X-572402Y15840094D01*
X-528725Y15734650D01*
X-465317Y15639753D01*
X-384614Y15559050D01*
X-369022Y15548632D01*
X-366501Y15523032D01*
X-365722Y15515125D01*
X-365459Y15514259D01*
X-345389Y15448096D01*
X-312369Y15386320D01*
X-267931Y15332173D01*
X-254366Y15321040D01*
X-245599Y15312273D01*
X-245600Y11531762D01*
X-330995Y11567134D01*
X-442934Y11589400D01*
X-557066Y11589400D01*
X-669005Y11567134D01*
X-774449Y11523457D01*
X-869346Y11460049D01*
X-950049Y11379346D01*
X-1013457Y11284449D01*
X-1057134Y11179005D01*
X-1079400Y11067066D01*
X-1079400Y10952934D01*
X-1057134Y10840995D01*
X-1013457Y10735551D01*
X-950049Y10640654D01*
X-869346Y10559951D01*
X-855599Y10550766D01*
X-855600Y9737294D01*
X-2847293Y7745600D01*
X-6488562Y7745600D01*
X-6506017Y7747319D01*
X-6523472Y7745600D01*
X-6523480Y7745600D01*
X-6575727Y7740454D01*
X-6642757Y7720121D01*
X-6692788Y7693379D01*
X-6704533Y7687101D01*
X-6717156Y7676741D01*
X-6758680Y7642663D01*
X-6769811Y7629100D01*
X-8189824Y6209086D01*
X-8203387Y6197955D01*
X-8214518Y6184392D01*
X-8214520Y6184390D01*
X-8223767Y6173122D01*
X-8247825Y6143808D01*
X-8264335Y6112920D01*
X-8280845Y6082033D01*
X-8301179Y6015002D01*
X-8303190Y5994578D01*
X-8304479Y5981495D01*
X-8320071Y5971077D01*
X-8400774Y5890374D01*
X-8464182Y5795477D01*
X-8507859Y5690033D01*
X-8530125Y5578094D01*
X-8530125Y5463962D01*
X-8507859Y5352023D01*
X-8464182Y5246579D01*
X-8400774Y5151682D01*
X-8320071Y5070979D01*
X-8225174Y5007571D01*
X-8119730Y4963894D01*
X-8007791Y4941628D01*
X-7893659Y4941628D01*
X-7781720Y4963894D01*
X-7676276Y5007571D01*
X-7581379Y5070979D01*
X-7500676Y5151682D01*
X-7437268Y5246579D01*
X-7393591Y5352023D01*
X-7376675Y5437066D01*
X-6009400Y5437066D01*
X-6009400Y5322934D01*
X-5987134Y5210995D01*
X-5943457Y5105551D01*
X-5880049Y5010654D01*
X-5799346Y4929951D01*
X-5704449Y4866543D01*
X-5599005Y4822866D01*
X-5487066Y4800600D01*
X-5372934Y4800600D01*
X-5260995Y4822866D01*
X-5155551Y4866543D01*
X-5060654Y4929951D01*
X-4979951Y5010654D01*
X-4916543Y5105551D01*
X-4872866Y5210995D01*
X-4850600Y5322934D01*
X-4850600Y5437066D01*
X-4872866Y5549005D01*
X-4916543Y5654449D01*
X-4979951Y5749346D01*
X-5060654Y5830049D01*
X-5155551Y5893457D01*
X-5260995Y5937134D01*
X-5372934Y5959400D01*
X-5487066Y5959400D01*
X-5599005Y5937134D01*
X-5704449Y5893457D01*
X-5799346Y5830049D01*
X-5880049Y5749346D01*
X-5943457Y5654449D01*
X-5987134Y5549005D01*
X-6009400Y5437066D01*
X-7376675Y5437066D01*
X-7371325Y5463962D01*
X-7371325Y5578094D01*
X-7393591Y5690033D01*
X-7437268Y5795477D01*
X-7500676Y5890374D01*
X-7501713Y5891411D01*
X-6358723Y7034400D01*
X-3098494Y7034400D01*
X-4729099Y5403794D01*
X-4742662Y5392663D01*
X-4787100Y5338516D01*
X-4795654Y5322513D01*
X-4820120Y5276741D01*
X-4840454Y5209710D01*
X-4847319Y5140000D01*
X-4845599Y5122534D01*
X-4845600Y-1698441D01*
X-7639099Y-4491942D01*
X-7652662Y-4503073D01*
X-7697100Y-4557220D01*
X-7706746Y-4575266D01*
X-7730120Y-4618995D01*
X-7750454Y-4686026D01*
X-7753401Y-4715949D01*
X-7753754Y-4719533D01*
X-7769346Y-4729951D01*
X-7850049Y-4810654D01*
X-7913457Y-4905551D01*
X-7957134Y-5010995D01*
X-7979400Y-5122934D01*
X-7979400Y-5237066D01*
X-7957134Y-5349005D01*
X-7913457Y-5454449D01*
X-7850049Y-5549346D01*
X-7769346Y-5630049D01*
X-7674449Y-5693457D01*
X-7569005Y-5737134D01*
X-7457066Y-5759400D01*
X-7342934Y-5759400D01*
X-7230995Y-5737134D01*
X-7125551Y-5693457D01*
X-7030654Y-5630049D01*
X-7000410Y-5599805D01*
X-7000410Y-7708640D01*
X-7026543Y-7645551D01*
X-7089951Y-7550654D01*
X-7170654Y-7469951D01*
X-7265551Y-7406543D01*
X-7370995Y-7362866D01*
X-7482934Y-7340600D01*
X-7597066Y-7340600D01*
X-7709005Y-7362866D01*
X-7814449Y-7406543D01*
X-7909346Y-7469951D01*
X-7990049Y-7550654D01*
X-8053457Y-7645551D01*
X-8097134Y-7750995D01*
X-8119400Y-7862934D01*
X-8119400Y-7977066D01*
X-8097134Y-8089005D01*
X-8053457Y-8194449D01*
X-7990049Y-8289346D01*
X-7909346Y-8370049D01*
X-7814449Y-8433457D01*
X-7709005Y-8477134D01*
X-7597066Y-8499400D01*
X-7482934Y-8499400D01*
X-7370995Y-8477134D01*
X-7265551Y-8433457D01*
X-7170654Y-8370049D01*
X-7089951Y-8289346D01*
X-7026543Y-8194449D01*
X-7000410Y-8131360D01*
X-7000411Y-11999483D01*
X-9130600Y-9869295D01*
X-9130600Y-1432802D01*
X-9127555Y-1401885D01*
X-9139707Y-1278501D01*
X-9175697Y-1159858D01*
X-9234141Y-1050517D01*
X-9293086Y-978693D01*
X-9312794Y-954679D01*
X-9336808Y-934971D01*
X-10041452Y-230328D01*
X-10005697Y-163435D01*
X-9969707Y-44793D01*
X-9960600Y47674D01*
X-9960600Y47682D01*
X-9957556Y78591D01*
X-9960600Y109500D01*
X-9960600Y744016D01*
X-9934449Y726543D01*
X-9829005Y682866D01*
X-9717066Y660600D01*
X-9602934Y660600D01*
X-9490995Y682866D01*
X-9385551Y726543D01*
X-9290654Y789951D01*
X-9209951Y870654D01*
X-9146543Y965551D01*
X-9112778Y1047066D01*
X-6019400Y1047066D01*
X-6019400Y932934D01*
X-5997134Y820995D01*
X-5953457Y715551D01*
X-5890049Y620654D01*
X-5809346Y539951D01*
X-5714449Y476543D01*
X-5609005Y432866D01*
X-5497066Y410600D01*
X-5382934Y410600D01*
X-5270995Y432866D01*
X-5165551Y476543D01*
X-5070654Y539951D01*
X-4989951Y620654D01*
X-4926543Y715551D01*
X-4882866Y820995D01*
X-4860600Y932934D01*
X-4860600Y1047066D01*
X-4882866Y1159005D01*
X-4926543Y1264449D01*
X-4989951Y1359346D01*
X-5070654Y1440049D01*
X-5165551Y1503457D01*
X-5270995Y1547134D01*
X-5382934Y1569400D01*
X-5497066Y1569400D01*
X-5609005Y1547134D01*
X-5714449Y1503457D01*
X-5809346Y1440049D01*
X-5890049Y1359346D01*
X-5953457Y1264449D01*
X-5997134Y1159005D01*
X-6019400Y1047066D01*
X-9112778Y1047066D01*
X-9102866Y1070995D01*
X-9080600Y1182934D01*
X-9080600Y1297066D01*
X-9102866Y1409005D01*
X-9146543Y1514449D01*
X-9209951Y1609346D01*
X-9290654Y1690049D01*
X-9385551Y1753457D01*
X-9490995Y1797134D01*
X-9602934Y1819400D01*
X-9717066Y1819400D01*
X-9829005Y1797134D01*
X-9934449Y1753457D01*
X-9960600Y1735984D01*
X-9960600Y2313347D01*
X-9957555Y2344264D01*
X-9969707Y2467648D01*
X-10005697Y2586291D01*
X-10064141Y2695632D01*
X-10123086Y2767456D01*
X-10141231Y2789566D01*
X-7359400Y2789566D01*
X-7359400Y2675434D01*
X-7337134Y2563495D01*
X-7293457Y2458051D01*
X-7230049Y2363154D01*
X-7149346Y2282451D01*
X-7054449Y2219043D01*
X-6949005Y2175366D01*
X-6837066Y2153100D01*
X-6722934Y2153100D01*
X-6610995Y2175366D01*
X-6505551Y2219043D01*
X-6410654Y2282451D01*
X-6329951Y2363154D01*
X-6266543Y2458051D01*
X-6222866Y2563495D01*
X-6200600Y2675434D01*
X-6200600Y2789566D01*
X-6222866Y2901505D01*
X-6266543Y3006949D01*
X-6329951Y3101846D01*
X-6410654Y3182549D01*
X-6505551Y3245957D01*
X-6610995Y3289634D01*
X-6722934Y3311900D01*
X-6837066Y3311900D01*
X-6949005Y3289634D01*
X-7054449Y3245957D01*
X-7149346Y3182549D01*
X-7230049Y3101846D01*
X-7293457Y3006949D01*
X-7337134Y2901505D01*
X-7359400Y2789566D01*
X-10141231Y2789566D01*
X-10142794Y2791470D01*
X-10166808Y2811178D01*
X-10490601Y3134970D01*
X-10490601Y7857066D01*
X-8149400Y7857066D01*
X-8149400Y7742934D01*
X-8127134Y7630995D01*
X-8083457Y7525551D01*
X-8020049Y7430654D01*
X-7939346Y7349951D01*
X-7844449Y7286543D01*
X-7739005Y7242866D01*
X-7627066Y7220600D01*
X-7512934Y7220600D01*
X-7400995Y7242866D01*
X-7295551Y7286543D01*
X-7200654Y7349951D01*
X-7119951Y7430654D01*
X-7056543Y7525551D01*
X-7012866Y7630995D01*
X-6990600Y7742934D01*
X-6990600Y7857066D01*
X-7012866Y7969005D01*
X-7056543Y8074449D01*
X-7119951Y8169346D01*
X-7200654Y8250049D01*
X-7295551Y8313457D01*
X-7400995Y8357134D01*
X-7512934Y8379400D01*
X-7627066Y8379400D01*
X-7739005Y8357134D01*
X-7844449Y8313457D01*
X-7939346Y8250049D01*
X-8020049Y8169346D01*
X-8083457Y8074449D01*
X-8127134Y7969005D01*
X-8149400Y7857066D01*
X-10490601Y7857066D01*
X-10490601Y10269294D01*
X-9582829Y11177066D01*
X-2859400Y11177066D01*
X-2859400Y11062934D01*
X-2837134Y10950995D01*
X-2793457Y10845551D01*
X-2730049Y10750654D01*
X-2649346Y10669951D01*
X-2554449Y10606543D01*
X-2449005Y10562866D01*
X-2337066Y10540600D01*
X-2222934Y10540600D01*
X-2110995Y10562866D01*
X-2005551Y10606543D01*
X-1910654Y10669951D01*
X-1829951Y10750654D01*
X-1766543Y10845551D01*
X-1722866Y10950995D01*
X-1700600Y11062934D01*
X-1700600Y11177066D01*
X-1722866Y11289005D01*
X-1766543Y11394449D01*
X-1829951Y11489346D01*
X-1910654Y11570049D01*
X-2005551Y11633457D01*
X-2110995Y11677134D01*
X-2222934Y11699400D01*
X-2337066Y11699400D01*
X-2449005Y11677134D01*
X-2554449Y11633457D01*
X-2649346Y11570049D01*
X-2730049Y11489346D01*
X-2793457Y11394449D01*
X-2837134Y11289005D01*
X-2859400Y11177066D01*
X-9582829Y11177066D01*
X-9169294Y11590600D01*
X-7160909Y11590600D01*
X-7130000Y11587556D01*
X-7099091Y11590600D01*
X-7099083Y11590600D01*
X-7006616Y11599707D01*
X-6887974Y11635697D01*
X-6778632Y11694141D01*
X-6682794Y11772794D01*
X-6663082Y11796813D01*
X-3359294Y15100600D01*
X-2140909Y15100600D01*
X-2110000Y15097556D01*
X-2079091Y15100600D01*
X-2079083Y15100600D01*
X-1986616Y15109707D01*
X-1867974Y15145697D01*
X-1758632Y15204141D01*
X-1662794Y15282794D01*
X-1643082Y15306813D01*
X-296807Y16653087D01*
X-272794Y16672794D01*
X-194141Y16768632D01*
X-135697Y16877974D01*
X-99707Y16996616D01*
X-90600Y17089083D01*
X-90600Y17089091D01*
X-87556Y17120000D01*
X-90600Y17150909D01*
X-90600Y19359083D01*
X-87555Y19390000D01*
X-99707Y19513384D01*
X-135697Y19632027D01*
X-194141Y19741368D01*
X-253086Y19813192D01*
X-272794Y19837206D01*
X-296808Y19856914D01*
X-1782844Y21342949D01*
X-309501Y21342949D01*
X1318708Y19714740D01*
X1318708Y19714740D01*
G37*
X1318708Y19714740D02*
X1318709Y17010636D01*
X1290068Y17022500D01*
X1178129Y17044766D01*
X1063997Y17044766D01*
X952058Y17022500D01*
X846614Y16978823D01*
X751717Y16915415D01*
X671014Y16834712D01*
X607606Y16739815D01*
X563929Y16634371D01*
X543191Y16530111D01*
X515537Y16502458D01*
X498201Y16488231D01*
X441417Y16419039D01*
X424965Y16388261D01*
X354078Y16459148D01*
X259181Y16522556D01*
X153737Y16566233D01*
X41798Y16588499D01*
X-72334Y16588499D01*
X-184273Y16566233D01*
X-289717Y16522556D01*
X-384614Y16459148D01*
X-465317Y16378445D01*
X-528725Y16283548D01*
X-572402Y16178104D01*
X-594668Y16066165D01*
X-594668Y15952033D01*
X-572402Y15840094D01*
X-528725Y15734650D01*
X-465317Y15639753D01*
X-384614Y15559050D01*
X-369022Y15548632D01*
X-366501Y15523032D01*
X-365722Y15515125D01*
X-365459Y15514259D01*
X-345389Y15448096D01*
X-312369Y15386320D01*
X-267931Y15332173D01*
X-254366Y15321040D01*
X-245599Y15312273D01*
X-245600Y11531762D01*
X-330995Y11567134D01*
X-442934Y11589400D01*
X-557066Y11589400D01*
X-669005Y11567134D01*
X-774449Y11523457D01*
X-869346Y11460049D01*
X-950049Y11379346D01*
X-1013457Y11284449D01*
X-1057134Y11179005D01*
X-1079400Y11067066D01*
X-1079400Y10952934D01*
X-1057134Y10840995D01*
X-1013457Y10735551D01*
X-950049Y10640654D01*
X-869346Y10559951D01*
X-855599Y10550766D01*
X-855600Y9737294D01*
X-2847293Y7745600D01*
X-6488562Y7745600D01*
X-6506017Y7747319D01*
X-6523472Y7745600D01*
X-6523480Y7745600D01*
X-6575727Y7740454D01*
X-6642757Y7720121D01*
X-6692788Y7693379D01*
X-6704533Y7687101D01*
X-6717156Y7676741D01*
X-6758680Y7642663D01*
X-6769811Y7629100D01*
X-8189824Y6209086D01*
X-8203387Y6197955D01*
X-8214518Y6184392D01*
X-8214520Y6184390D01*
X-8223767Y6173122D01*
X-8247825Y6143808D01*
X-8264335Y6112920D01*
X-8280845Y6082033D01*
X-8301179Y6015002D01*
X-8303190Y5994578D01*
X-8304479Y5981495D01*
X-8320071Y5971077D01*
X-8400774Y5890374D01*
X-8464182Y5795477D01*
X-8507859Y5690033D01*
X-8530125Y5578094D01*
X-8530125Y5463962D01*
X-8507859Y5352023D01*
X-8464182Y5246579D01*
X-8400774Y5151682D01*
X-8320071Y5070979D01*
X-8225174Y5007571D01*
X-8119730Y4963894D01*
X-8007791Y4941628D01*
X-7893659Y4941628D01*
X-7781720Y4963894D01*
X-7676276Y5007571D01*
X-7581379Y5070979D01*
X-7500676Y5151682D01*
X-7437268Y5246579D01*
X-7393591Y5352023D01*
X-7376675Y5437066D01*
X-6009400Y5437066D01*
X-6009400Y5322934D01*
X-5987134Y5210995D01*
X-5943457Y5105551D01*
X-5880049Y5010654D01*
X-5799346Y4929951D01*
X-5704449Y4866543D01*
X-5599005Y4822866D01*
X-5487066Y4800600D01*
X-5372934Y4800600D01*
X-5260995Y4822866D01*
X-5155551Y4866543D01*
X-5060654Y4929951D01*
X-4979951Y5010654D01*
X-4916543Y5105551D01*
X-4872866Y5210995D01*
X-4850600Y5322934D01*
X-4850600Y5437066D01*
X-4872866Y5549005D01*
X-4916543Y5654449D01*
X-4979951Y5749346D01*
X-5060654Y5830049D01*
X-5155551Y5893457D01*
X-5260995Y5937134D01*
X-5372934Y5959400D01*
X-5487066Y5959400D01*
X-5599005Y5937134D01*
X-5704449Y5893457D01*
X-5799346Y5830049D01*
X-5880049Y5749346D01*
X-5943457Y5654449D01*
X-5987134Y5549005D01*
X-6009400Y5437066D01*
X-7376675Y5437066D01*
X-7371325Y5463962D01*
X-7371325Y5578094D01*
X-7393591Y5690033D01*
X-7437268Y5795477D01*
X-7500676Y5890374D01*
X-7501713Y5891411D01*
X-6358723Y7034400D01*
X-3098494Y7034400D01*
X-4729099Y5403794D01*
X-4742662Y5392663D01*
X-4787100Y5338516D01*
X-4795654Y5322513D01*
X-4820120Y5276741D01*
X-4840454Y5209710D01*
X-4847319Y5140000D01*
X-4845599Y5122534D01*
X-4845600Y-1698441D01*
X-7639099Y-4491942D01*
X-7652662Y-4503073D01*
X-7697100Y-4557220D01*
X-7706746Y-4575266D01*
X-7730120Y-4618995D01*
X-7750454Y-4686026D01*
X-7753401Y-4715949D01*
X-7753754Y-4719533D01*
X-7769346Y-4729951D01*
X-7850049Y-4810654D01*
X-7913457Y-4905551D01*
X-7957134Y-5010995D01*
X-7979400Y-5122934D01*
X-7979400Y-5237066D01*
X-7957134Y-5349005D01*
X-7913457Y-5454449D01*
X-7850049Y-5549346D01*
X-7769346Y-5630049D01*
X-7674449Y-5693457D01*
X-7569005Y-5737134D01*
X-7457066Y-5759400D01*
X-7342934Y-5759400D01*
X-7230995Y-5737134D01*
X-7125551Y-5693457D01*
X-7030654Y-5630049D01*
X-7000410Y-5599805D01*
X-7000410Y-7708640D01*
X-7026543Y-7645551D01*
X-7089951Y-7550654D01*
X-7170654Y-7469951D01*
X-7265551Y-7406543D01*
X-7370995Y-7362866D01*
X-7482934Y-7340600D01*
X-7597066Y-7340600D01*
X-7709005Y-7362866D01*
X-7814449Y-7406543D01*
X-7909346Y-7469951D01*
X-7990049Y-7550654D01*
X-8053457Y-7645551D01*
X-8097134Y-7750995D01*
X-8119400Y-7862934D01*
X-8119400Y-7977066D01*
X-8097134Y-8089005D01*
X-8053457Y-8194449D01*
X-7990049Y-8289346D01*
X-7909346Y-8370049D01*
X-7814449Y-8433457D01*
X-7709005Y-8477134D01*
X-7597066Y-8499400D01*
X-7482934Y-8499400D01*
X-7370995Y-8477134D01*
X-7265551Y-8433457D01*
X-7170654Y-8370049D01*
X-7089951Y-8289346D01*
X-7026543Y-8194449D01*
X-7000410Y-8131360D01*
X-7000411Y-11999483D01*
X-9130600Y-9869295D01*
X-9130600Y-1432802D01*
X-9127555Y-1401885D01*
X-9139707Y-1278501D01*
X-9175697Y-1159858D01*
X-9234141Y-1050517D01*
X-9293086Y-978693D01*
X-9312794Y-954679D01*
X-9336808Y-934971D01*
X-10041452Y-230328D01*
X-10005697Y-163435D01*
X-9969707Y-44793D01*
X-9960600Y47674D01*
X-9960600Y47682D01*
X-9957556Y78591D01*
X-9960600Y109500D01*
X-9960600Y744016D01*
X-9934449Y726543D01*
X-9829005Y682866D01*
X-9717066Y660600D01*
X-9602934Y660600D01*
X-9490995Y682866D01*
X-9385551Y726543D01*
X-9290654Y789951D01*
X-9209951Y870654D01*
X-9146543Y965551D01*
X-9112778Y1047066D01*
X-6019400Y1047066D01*
X-6019400Y932934D01*
X-5997134Y820995D01*
X-5953457Y715551D01*
X-5890049Y620654D01*
X-5809346Y539951D01*
X-5714449Y476543D01*
X-5609005Y432866D01*
X-5497066Y410600D01*
X-5382934Y410600D01*
X-5270995Y432866D01*
X-5165551Y476543D01*
X-5070654Y539951D01*
X-4989951Y620654D01*
X-4926543Y715551D01*
X-4882866Y820995D01*
X-4860600Y932934D01*
X-4860600Y1047066D01*
X-4882866Y1159005D01*
X-4926543Y1264449D01*
X-4989951Y1359346D01*
X-5070654Y1440049D01*
X-5165551Y1503457D01*
X-5270995Y1547134D01*
X-5382934Y1569400D01*
X-5497066Y1569400D01*
X-5609005Y1547134D01*
X-5714449Y1503457D01*
X-5809346Y1440049D01*
X-5890049Y1359346D01*
X-5953457Y1264449D01*
X-5997134Y1159005D01*
X-6019400Y1047066D01*
X-9112778Y1047066D01*
X-9102866Y1070995D01*
X-9080600Y1182934D01*
X-9080600Y1297066D01*
X-9102866Y1409005D01*
X-9146543Y1514449D01*
X-9209951Y1609346D01*
X-9290654Y1690049D01*
X-9385551Y1753457D01*
X-9490995Y1797134D01*
X-9602934Y1819400D01*
X-9717066Y1819400D01*
X-9829005Y1797134D01*
X-9934449Y1753457D01*
X-9960600Y1735984D01*
X-9960600Y2313347D01*
X-9957555Y2344264D01*
X-9969707Y2467648D01*
X-10005697Y2586291D01*
X-10064141Y2695632D01*
X-10123086Y2767456D01*
X-10141231Y2789566D01*
X-7359400Y2789566D01*
X-7359400Y2675434D01*
X-7337134Y2563495D01*
X-7293457Y2458051D01*
X-7230049Y2363154D01*
X-7149346Y2282451D01*
X-7054449Y2219043D01*
X-6949005Y2175366D01*
X-6837066Y2153100D01*
X-6722934Y2153100D01*
X-6610995Y2175366D01*
X-6505551Y2219043D01*
X-6410654Y2282451D01*
X-6329951Y2363154D01*
X-6266543Y2458051D01*
X-6222866Y2563495D01*
X-6200600Y2675434D01*
X-6200600Y2789566D01*
X-6222866Y2901505D01*
X-6266543Y3006949D01*
X-6329951Y3101846D01*
X-6410654Y3182549D01*
X-6505551Y3245957D01*
X-6610995Y3289634D01*
X-6722934Y3311900D01*
X-6837066Y3311900D01*
X-6949005Y3289634D01*
X-7054449Y3245957D01*
X-7149346Y3182549D01*
X-7230049Y3101846D01*
X-7293457Y3006949D01*
X-7337134Y2901505D01*
X-7359400Y2789566D01*
X-10141231Y2789566D01*
X-10142794Y2791470D01*
X-10166808Y2811178D01*
X-10490601Y3134970D01*
X-10490601Y7857066D01*
X-8149400Y7857066D01*
X-8149400Y7742934D01*
X-8127134Y7630995D01*
X-8083457Y7525551D01*
X-8020049Y7430654D01*
X-7939346Y7349951D01*
X-7844449Y7286543D01*
X-7739005Y7242866D01*
X-7627066Y7220600D01*
X-7512934Y7220600D01*
X-7400995Y7242866D01*
X-7295551Y7286543D01*
X-7200654Y7349951D01*
X-7119951Y7430654D01*
X-7056543Y7525551D01*
X-7012866Y7630995D01*
X-6990600Y7742934D01*
X-6990600Y7857066D01*
X-7012866Y7969005D01*
X-7056543Y8074449D01*
X-7119951Y8169346D01*
X-7200654Y8250049D01*
X-7295551Y8313457D01*
X-7400995Y8357134D01*
X-7512934Y8379400D01*
X-7627066Y8379400D01*
X-7739005Y8357134D01*
X-7844449Y8313457D01*
X-7939346Y8250049D01*
X-8020049Y8169346D01*
X-8083457Y8074449D01*
X-8127134Y7969005D01*
X-8149400Y7857066D01*
X-10490601Y7857066D01*
X-10490601Y10269294D01*
X-9582829Y11177066D01*
X-2859400Y11177066D01*
X-2859400Y11062934D01*
X-2837134Y10950995D01*
X-2793457Y10845551D01*
X-2730049Y10750654D01*
X-2649346Y10669951D01*
X-2554449Y10606543D01*
X-2449005Y10562866D01*
X-2337066Y10540600D01*
X-2222934Y10540600D01*
X-2110995Y10562866D01*
X-2005551Y10606543D01*
X-1910654Y10669951D01*
X-1829951Y10750654D01*
X-1766543Y10845551D01*
X-1722866Y10950995D01*
X-1700600Y11062934D01*
X-1700600Y11177066D01*
X-1722866Y11289005D01*
X-1766543Y11394449D01*
X-1829951Y11489346D01*
X-1910654Y11570049D01*
X-2005551Y11633457D01*
X-2110995Y11677134D01*
X-2222934Y11699400D01*
X-2337066Y11699400D01*
X-2449005Y11677134D01*
X-2554449Y11633457D01*
X-2649346Y11570049D01*
X-2730049Y11489346D01*
X-2793457Y11394449D01*
X-2837134Y11289005D01*
X-2859400Y11177066D01*
X-9582829Y11177066D01*
X-9169294Y11590600D01*
X-7160909Y11590600D01*
X-7130000Y11587556D01*
X-7099091Y11590600D01*
X-7099083Y11590600D01*
X-7006616Y11599707D01*
X-6887974Y11635697D01*
X-6778632Y11694141D01*
X-6682794Y11772794D01*
X-6663082Y11796813D01*
X-3359294Y15100600D01*
X-2140909Y15100600D01*
X-2110000Y15097556D01*
X-2079091Y15100600D01*
X-2079083Y15100600D01*
X-1986616Y15109707D01*
X-1867974Y15145697D01*
X-1758632Y15204141D01*
X-1662794Y15282794D01*
X-1643082Y15306813D01*
X-296807Y16653087D01*
X-272794Y16672794D01*
X-194141Y16768632D01*
X-135697Y16877974D01*
X-99707Y16996616D01*
X-90600Y17089083D01*
X-90600Y17089091D01*
X-87556Y17120000D01*
X-90600Y17150909D01*
X-90600Y19359083D01*
X-87555Y19390000D01*
X-99707Y19513384D01*
X-135697Y19632027D01*
X-194141Y19741368D01*
X-253086Y19813192D01*
X-272794Y19837206D01*
X-296808Y19856914D01*
X-1782844Y21342949D01*
X-309501Y21342949D01*
X1318708Y19714740D01*
G36*
X10924400Y12567774D02*
G01*
X10923058Y12581401D01*
X10858478Y12794294D01*
X10753605Y12990497D01*
X10612470Y13162470D01*
X10440497Y13303605D01*
X10244294Y13408478D01*
X10031401Y13473058D01*
X9865477Y13489400D01*
X9754523Y13489400D01*
X9588599Y13473058D01*
X9375706Y13408478D01*
X9179503Y13303605D01*
X9007530Y13162470D01*
X8866395Y12990497D01*
X8761522Y12794294D01*
X8696942Y12581401D01*
X8675136Y12360000D01*
X8696942Y12138599D01*
X8761522Y11925706D01*
X8866395Y11729503D01*
X9007530Y11557530D01*
X9179503Y11416395D01*
X9375706Y11311522D01*
X9588599Y11246942D01*
X9754523Y11230600D01*
X9865477Y11230600D01*
X10031401Y11246942D01*
X10244294Y11311522D01*
X10440497Y11416395D01*
X10612470Y11557530D01*
X10753605Y11729503D01*
X10858478Y11925706D01*
X10923058Y12138599D01*
X10924400Y12152226D01*
X10924400Y11742538D01*
X10924401Y11742528D01*
X10924400Y8900006D01*
X9134555Y7110160D01*
X9134544Y7110151D01*
X9134534Y7110141D01*
X9120981Y7099018D01*
X9109859Y7085466D01*
X6732300Y4707905D01*
X6718737Y4696774D01*
X6674299Y4642627D01*
X6658265Y4612629D01*
X6641279Y4580852D01*
X6620945Y4513821D01*
X6614080Y4444111D01*
X6615800Y4426646D01*
X6615799Y3487628D01*
X841481Y-2286692D01*
X841481Y-205301D01*
X843200Y-187848D01*
X841481Y-170395D01*
X841481Y-170386D01*
X836335Y-118139D01*
X816002Y-51109D01*
X782982Y10667D01*
X777725Y17073D01*
X749676Y51251D01*
X749671Y51256D01*
X738544Y64814D01*
X724986Y75941D01*
X-67579Y868505D01*
X-64354Y884720D01*
X-64354Y998852D01*
X-86620Y1110791D01*
X-87148Y1112066D01*
X1245600Y1112066D01*
X1245600Y997934D01*
X1267866Y885995D01*
X1311543Y780551D01*
X1374951Y685654D01*
X1455654Y604951D01*
X1550551Y541543D01*
X1655995Y497866D01*
X1767934Y475600D01*
X1882066Y475600D01*
X1994005Y497866D01*
X2099449Y541543D01*
X2194346Y604951D01*
X2275049Y685654D01*
X2338457Y780551D01*
X2382134Y885995D01*
X2404400Y997934D01*
X2404400Y1112066D01*
X2382134Y1224005D01*
X2338457Y1329449D01*
X2275049Y1424346D01*
X2194346Y1505049D01*
X2099449Y1568457D01*
X1994005Y1612134D01*
X1882066Y1634400D01*
X1767934Y1634400D01*
X1655995Y1612134D01*
X1550551Y1568457D01*
X1455654Y1505049D01*
X1374951Y1424346D01*
X1311543Y1329449D01*
X1267866Y1224005D01*
X1245600Y1112066D01*
X-87148Y1112066D01*
X-130297Y1216235D01*
X-193705Y1311132D01*
X-274408Y1391835D01*
X-369305Y1455243D01*
X-474749Y1498920D01*
X-586688Y1521186D01*
X-700820Y1521186D01*
X-812759Y1498920D01*
X-918203Y1455243D01*
X-965460Y1423667D01*
X-965460Y5687066D01*
X-59400Y5687066D01*
X-59400Y5572934D01*
X-37134Y5460995D01*
X6543Y5355551D01*
X69951Y5260654D01*
X150654Y5179951D01*
X245551Y5116543D01*
X350995Y5072866D01*
X462934Y5050600D01*
X577066Y5050600D01*
X689005Y5072866D01*
X794449Y5116543D01*
X889346Y5179951D01*
X970049Y5260654D01*
X1033457Y5355551D01*
X1077134Y5460995D01*
X1099400Y5572934D01*
X1099400Y5687066D01*
X1077134Y5799005D01*
X1033457Y5904449D01*
X970049Y5999346D01*
X889346Y6080049D01*
X794449Y6143457D01*
X689005Y6187134D01*
X577066Y6209400D01*
X462934Y6209400D01*
X350995Y6187134D01*
X245551Y6143457D01*
X150654Y6080049D01*
X69951Y5999346D01*
X6543Y5904449D01*
X-37134Y5799005D01*
X-59400Y5687066D01*
X-965460Y5687066D01*
X-965460Y5761922D01*
X536871Y7264252D01*
X592934Y7253100D01*
X707066Y7253100D01*
X819005Y7275366D01*
X924449Y7319043D01*
X1019346Y7382451D01*
X1100049Y7463154D01*
X1163457Y7558051D01*
X1207134Y7663495D01*
X1229400Y7775434D01*
X1229400Y7889566D01*
X1207134Y8001505D01*
X1163457Y8106949D01*
X1100049Y8201846D01*
X1019346Y8282549D01*
X924449Y8345957D01*
X819005Y8389634D01*
X707066Y8411900D01*
X592934Y8411900D01*
X480995Y8389634D01*
X375551Y8345957D01*
X280654Y8282549D01*
X211888Y8213783D01*
X208827Y8212147D01*
X163314Y8174795D01*
X139636Y8155364D01*
X125409Y8138028D01*
X-1725387Y6287231D01*
X-1742723Y6273004D01*
X-1756950Y6255668D01*
X-1799507Y6203812D01*
X-1841701Y6124873D01*
X-1867684Y6039217D01*
X-1876458Y5950140D01*
X-1874259Y5927818D01*
X-1874260Y-863986D01*
X-1933317Y-952371D01*
X-1976994Y-1057815D01*
X-1999260Y-1169754D01*
X-1999260Y-1283886D01*
X-1976994Y-1395825D01*
X-1933317Y-1501269D01*
X-1869909Y-1596166D01*
X-1789206Y-1676869D01*
X-1694309Y-1740277D01*
X-1588865Y-1783954D01*
X-1476926Y-1806220D01*
X-1362794Y-1806220D01*
X-1250855Y-1783954D01*
X-1145411Y-1740277D01*
X-1050514Y-1676869D01*
X-969811Y-1596166D01*
X-906403Y-1501269D01*
X-862726Y-1395825D01*
X-840460Y-1283886D01*
X-840460Y-1169754D01*
X-862726Y-1057815D01*
X-906403Y-952371D01*
X-965460Y-863986D01*
X-965460Y459905D01*
X-918203Y428329D01*
X-812759Y384652D01*
X-700820Y362386D01*
X-586688Y362386D01*
X-570473Y365611D01*
X130282Y-335145D01*
X130281Y-2379589D01*
X-4520958Y-2379589D01*
X-4250890Y-2109521D01*
X-4237338Y-2098399D01*
X-4226215Y-2084846D01*
X-4226205Y-2084836D01*
X-4192900Y-2044253D01*
X-4192898Y-2044251D01*
X-4159879Y-1982476D01*
X-4139546Y-1915446D01*
X-4134400Y-1863199D01*
X-4134400Y-1863190D01*
X-4132681Y-1845737D01*
X-4134400Y-1828284D01*
X-4134400Y-1781661D01*
X-4128865Y-1783954D01*
X-4016926Y-1806220D01*
X-3902794Y-1806220D01*
X-3790855Y-1783954D01*
X-3685411Y-1740277D01*
X-3590514Y-1676869D01*
X-3509811Y-1596166D01*
X-3446403Y-1501269D01*
X-3402726Y-1395825D01*
X-3380460Y-1283886D01*
X-3380460Y-1169754D01*
X-3402726Y-1057815D01*
X-3446403Y-952371D01*
X-3505460Y-863986D01*
X-3505460Y4909422D01*
X714746Y9129628D01*
X819005Y9150366D01*
X924449Y9194043D01*
X1019346Y9257451D01*
X1100049Y9338154D01*
X1163457Y9433051D01*
X1207134Y9538495D01*
X1229400Y9650434D01*
X1229400Y9764566D01*
X1207134Y9876505D01*
X1163457Y9981949D01*
X1100049Y10076846D01*
X1019346Y10157549D01*
X924449Y10220957D01*
X819005Y10264634D01*
X707066Y10286900D01*
X592934Y10286900D01*
X480995Y10264634D01*
X465600Y10258257D01*
X465600Y15442112D01*
X467319Y15459567D01*
X465600Y15477022D01*
X465600Y15477030D01*
X460454Y15529277D01*
X440121Y15596307D01*
X423128Y15628100D01*
X434781Y15639753D01*
X466278Y15686892D01*
X498200Y15647993D01*
X515541Y15633762D01*
X1432821Y14716481D01*
X1432820Y9770994D01*
X1373763Y9682609D01*
X1330086Y9577165D01*
X1307820Y9465226D01*
X1307820Y9351094D01*
X1330086Y9239155D01*
X1373763Y9133711D01*
X1437171Y9038814D01*
X1517874Y8958111D01*
X1612771Y8894703D01*
X1718215Y8851026D01*
X1830154Y8828760D01*
X1944286Y8828760D01*
X2056225Y8851026D01*
X2150601Y8890118D01*
X2150601Y7579996D01*
X2079952Y7509347D01*
X2016544Y7414450D01*
X1972867Y7309006D01*
X1950601Y7197067D01*
X1950601Y7082935D01*
X1972867Y6970996D01*
X2016544Y6865552D01*
X2079952Y6770655D01*
X2160655Y6689952D01*
X2255552Y6626544D01*
X2360996Y6582867D01*
X2472935Y6560601D01*
X2587067Y6560601D01*
X2699006Y6582867D01*
X2804450Y6626544D01*
X2899347Y6689952D01*
X2980050Y6770655D01*
X3043458Y6865552D01*
X3087135Y6970996D01*
X3109401Y7082935D01*
X3109401Y7197067D01*
X3087135Y7309006D01*
X3043458Y7414450D01*
X2980050Y7509347D01*
X2909401Y7579996D01*
X2909401Y8308109D01*
X4142612Y7074897D01*
X4154488Y7060426D01*
X4168959Y7048550D01*
X4168960Y7048549D01*
X4212259Y7013015D01*
X4278169Y6977785D01*
X4294815Y6972736D01*
X4349687Y6956090D01*
X4405430Y6950600D01*
X4405433Y6950600D01*
X4424062Y6948765D01*
X4442691Y6950600D01*
X5747183Y6950600D01*
X5765812Y6948765D01*
X5784441Y6950600D01*
X5784444Y6950600D01*
X5840187Y6956090D01*
X5911704Y6977785D01*
X5977615Y7013015D01*
X6035386Y7060426D01*
X6047266Y7074902D01*
X6926967Y7954602D01*
X6941437Y7966477D01*
X6963150Y7992934D01*
X6988848Y8024248D01*
X7024078Y8090158D01*
X7029207Y8107066D01*
X7045773Y8161676D01*
X7051263Y8217419D01*
X7051263Y8217422D01*
X7053098Y8236051D01*
X7051263Y8254680D01*
X7051263Y8856734D01*
X7121912Y8927383D01*
X7185320Y9022280D01*
X7228997Y9127724D01*
X7251263Y9239663D01*
X7251263Y9353795D01*
X7228997Y9465734D01*
X7185320Y9571178D01*
X7121912Y9666075D01*
X7041209Y9746778D01*
X6946312Y9810186D01*
X6840868Y9853863D01*
X6728929Y9876129D01*
X6614797Y9876129D01*
X6502858Y9853863D01*
X6397414Y9810186D01*
X6302517Y9746778D01*
X6221814Y9666075D01*
X6158406Y9571178D01*
X6114729Y9465734D01*
X6092463Y9353795D01*
X6092463Y9239663D01*
X6114729Y9127724D01*
X6158406Y9022280D01*
X6221814Y8927383D01*
X6292463Y8856734D01*
X6292463Y8853834D01*
X6292464Y8853824D01*
X6292463Y8433469D01*
X6291957Y8434691D01*
X6228549Y8529588D01*
X6147846Y8610291D01*
X6052949Y8673699D01*
X5947505Y8717376D01*
X5835566Y8739642D01*
X5721434Y8739642D01*
X5609495Y8717376D01*
X5504051Y8673699D01*
X5409154Y8610291D01*
X5328451Y8529588D01*
X5265043Y8434691D01*
X5221366Y8329247D01*
X5221110Y8327961D01*
X5160049Y8419346D01*
X5079346Y8500049D01*
X4984449Y8563457D01*
X4879005Y8607134D01*
X4767066Y8629400D01*
X4699194Y8629400D01*
X4737134Y8720995D01*
X4759400Y8832934D01*
X4759400Y8947066D01*
X4755742Y8965458D01*
X4777100Y8991483D01*
X4788102Y9012067D01*
X4810120Y9053259D01*
X4830453Y9120289D01*
X4835599Y9172536D01*
X4835599Y9172544D01*
X4837318Y9189999D01*
X4835599Y9207454D01*
X4835599Y9422706D01*
X6763182Y11350287D01*
X6835706Y11311522D01*
X7048599Y11246942D01*
X7214523Y11230600D01*
X7325477Y11230600D01*
X7491401Y11246942D01*
X7704294Y11311522D01*
X7900497Y11416395D01*
X8072470Y11557530D01*
X8213605Y11729503D01*
X8318478Y11925706D01*
X8383058Y12138599D01*
X8404864Y12360000D01*
X8383058Y12581401D01*
X8318478Y12794294D01*
X8279713Y12866818D01*
X8587711Y13174816D01*
X8601263Y13185938D01*
X8612386Y13199491D01*
X8612396Y13199501D01*
X8645701Y13240084D01*
X8645703Y13240086D01*
X8678722Y13301861D01*
X8690920Y13342074D01*
X8699055Y13368890D01*
X8701144Y13390103D01*
X8704201Y13421138D01*
X8704201Y13421145D01*
X8705920Y13438600D01*
X8704201Y13456056D01*
X8704201Y15846060D01*
X8705920Y15863516D01*
X8704201Y15880971D01*
X8704201Y15880978D01*
X8703217Y15890967D01*
X8748456Y15890967D01*
X8860395Y15913233D01*
X8965839Y15956910D01*
X9060736Y16020318D01*
X9141439Y16101021D01*
X9150624Y16114767D01*
X10924401Y16114767D01*
X10924400Y12567774D01*
X10924400Y12567774D01*
G37*
X10924400Y12567774D02*
X10923058Y12581401D01*
X10858478Y12794294D01*
X10753605Y12990497D01*
X10612470Y13162470D01*
X10440497Y13303605D01*
X10244294Y13408478D01*
X10031401Y13473058D01*
X9865477Y13489400D01*
X9754523Y13489400D01*
X9588599Y13473058D01*
X9375706Y13408478D01*
X9179503Y13303605D01*
X9007530Y13162470D01*
X8866395Y12990497D01*
X8761522Y12794294D01*
X8696942Y12581401D01*
X8675136Y12360000D01*
X8696942Y12138599D01*
X8761522Y11925706D01*
X8866395Y11729503D01*
X9007530Y11557530D01*
X9179503Y11416395D01*
X9375706Y11311522D01*
X9588599Y11246942D01*
X9754523Y11230600D01*
X9865477Y11230600D01*
X10031401Y11246942D01*
X10244294Y11311522D01*
X10440497Y11416395D01*
X10612470Y11557530D01*
X10753605Y11729503D01*
X10858478Y11925706D01*
X10923058Y12138599D01*
X10924400Y12152226D01*
X10924400Y11742538D01*
X10924401Y11742528D01*
X10924400Y8900006D01*
X9134555Y7110160D01*
X9134544Y7110151D01*
X9134534Y7110141D01*
X9120981Y7099018D01*
X9109859Y7085466D01*
X6732300Y4707905D01*
X6718737Y4696774D01*
X6674299Y4642627D01*
X6658265Y4612629D01*
X6641279Y4580852D01*
X6620945Y4513821D01*
X6614080Y4444111D01*
X6615800Y4426646D01*
X6615799Y3487628D01*
X841481Y-2286692D01*
X841481Y-205301D01*
X843200Y-187848D01*
X841481Y-170395D01*
X841481Y-170386D01*
X836335Y-118139D01*
X816002Y-51109D01*
X782982Y10667D01*
X777725Y17073D01*
X749676Y51251D01*
X749671Y51256D01*
X738544Y64814D01*
X724986Y75941D01*
X-67579Y868505D01*
X-64354Y884720D01*
X-64354Y998852D01*
X-86620Y1110791D01*
X-87148Y1112066D01*
X1245600Y1112066D01*
X1245600Y997934D01*
X1267866Y885995D01*
X1311543Y780551D01*
X1374951Y685654D01*
X1455654Y604951D01*
X1550551Y541543D01*
X1655995Y497866D01*
X1767934Y475600D01*
X1882066Y475600D01*
X1994005Y497866D01*
X2099449Y541543D01*
X2194346Y604951D01*
X2275049Y685654D01*
X2338457Y780551D01*
X2382134Y885995D01*
X2404400Y997934D01*
X2404400Y1112066D01*
X2382134Y1224005D01*
X2338457Y1329449D01*
X2275049Y1424346D01*
X2194346Y1505049D01*
X2099449Y1568457D01*
X1994005Y1612134D01*
X1882066Y1634400D01*
X1767934Y1634400D01*
X1655995Y1612134D01*
X1550551Y1568457D01*
X1455654Y1505049D01*
X1374951Y1424346D01*
X1311543Y1329449D01*
X1267866Y1224005D01*
X1245600Y1112066D01*
X-87148Y1112066D01*
X-130297Y1216235D01*
X-193705Y1311132D01*
X-274408Y1391835D01*
X-369305Y1455243D01*
X-474749Y1498920D01*
X-586688Y1521186D01*
X-700820Y1521186D01*
X-812759Y1498920D01*
X-918203Y1455243D01*
X-965460Y1423667D01*
X-965460Y5687066D01*
X-59400Y5687066D01*
X-59400Y5572934D01*
X-37134Y5460995D01*
X6543Y5355551D01*
X69951Y5260654D01*
X150654Y5179951D01*
X245551Y5116543D01*
X350995Y5072866D01*
X462934Y5050600D01*
X577066Y5050600D01*
X689005Y5072866D01*
X794449Y5116543D01*
X889346Y5179951D01*
X970049Y5260654D01*
X1033457Y5355551D01*
X1077134Y5460995D01*
X1099400Y5572934D01*
X1099400Y5687066D01*
X1077134Y5799005D01*
X1033457Y5904449D01*
X970049Y5999346D01*
X889346Y6080049D01*
X794449Y6143457D01*
X689005Y6187134D01*
X577066Y6209400D01*
X462934Y6209400D01*
X350995Y6187134D01*
X245551Y6143457D01*
X150654Y6080049D01*
X69951Y5999346D01*
X6543Y5904449D01*
X-37134Y5799005D01*
X-59400Y5687066D01*
X-965460Y5687066D01*
X-965460Y5761922D01*
X536871Y7264252D01*
X592934Y7253100D01*
X707066Y7253100D01*
X819005Y7275366D01*
X924449Y7319043D01*
X1019346Y7382451D01*
X1100049Y7463154D01*
X1163457Y7558051D01*
X1207134Y7663495D01*
X1229400Y7775434D01*
X1229400Y7889566D01*
X1207134Y8001505D01*
X1163457Y8106949D01*
X1100049Y8201846D01*
X1019346Y8282549D01*
X924449Y8345957D01*
X819005Y8389634D01*
X707066Y8411900D01*
X592934Y8411900D01*
X480995Y8389634D01*
X375551Y8345957D01*
X280654Y8282549D01*
X211888Y8213783D01*
X208827Y8212147D01*
X163314Y8174795D01*
X139636Y8155364D01*
X125409Y8138028D01*
X-1725387Y6287231D01*
X-1742723Y6273004D01*
X-1756950Y6255668D01*
X-1799507Y6203812D01*
X-1841701Y6124873D01*
X-1867684Y6039217D01*
X-1876458Y5950140D01*
X-1874259Y5927818D01*
X-1874260Y-863986D01*
X-1933317Y-952371D01*
X-1976994Y-1057815D01*
X-1999260Y-1169754D01*
X-1999260Y-1283886D01*
X-1976994Y-1395825D01*
X-1933317Y-1501269D01*
X-1869909Y-1596166D01*
X-1789206Y-1676869D01*
X-1694309Y-1740277D01*
X-1588865Y-1783954D01*
X-1476926Y-1806220D01*
X-1362794Y-1806220D01*
X-1250855Y-1783954D01*
X-1145411Y-1740277D01*
X-1050514Y-1676869D01*
X-969811Y-1596166D01*
X-906403Y-1501269D01*
X-862726Y-1395825D01*
X-840460Y-1283886D01*
X-840460Y-1169754D01*
X-862726Y-1057815D01*
X-906403Y-952371D01*
X-965460Y-863986D01*
X-965460Y459905D01*
X-918203Y428329D01*
X-812759Y384652D01*
X-700820Y362386D01*
X-586688Y362386D01*
X-570473Y365611D01*
X130282Y-335145D01*
X130281Y-2379589D01*
X-4520958Y-2379589D01*
X-4250890Y-2109521D01*
X-4237338Y-2098399D01*
X-4226215Y-2084846D01*
X-4226205Y-2084836D01*
X-4192900Y-2044253D01*
X-4192898Y-2044251D01*
X-4159879Y-1982476D01*
X-4139546Y-1915446D01*
X-4134400Y-1863199D01*
X-4134400Y-1863190D01*
X-4132681Y-1845737D01*
X-4134400Y-1828284D01*
X-4134400Y-1781661D01*
X-4128865Y-1783954D01*
X-4016926Y-1806220D01*
X-3902794Y-1806220D01*
X-3790855Y-1783954D01*
X-3685411Y-1740277D01*
X-3590514Y-1676869D01*
X-3509811Y-1596166D01*
X-3446403Y-1501269D01*
X-3402726Y-1395825D01*
X-3380460Y-1283886D01*
X-3380460Y-1169754D01*
X-3402726Y-1057815D01*
X-3446403Y-952371D01*
X-3505460Y-863986D01*
X-3505460Y4909422D01*
X714746Y9129628D01*
X819005Y9150366D01*
X924449Y9194043D01*
X1019346Y9257451D01*
X1100049Y9338154D01*
X1163457Y9433051D01*
X1207134Y9538495D01*
X1229400Y9650434D01*
X1229400Y9764566D01*
X1207134Y9876505D01*
X1163457Y9981949D01*
X1100049Y10076846D01*
X1019346Y10157549D01*
X924449Y10220957D01*
X819005Y10264634D01*
X707066Y10286900D01*
X592934Y10286900D01*
X480995Y10264634D01*
X465600Y10258257D01*
X465600Y15442112D01*
X467319Y15459567D01*
X465600Y15477022D01*
X465600Y15477030D01*
X460454Y15529277D01*
X440121Y15596307D01*
X423128Y15628100D01*
X434781Y15639753D01*
X466278Y15686892D01*
X498200Y15647993D01*
X515541Y15633762D01*
X1432821Y14716481D01*
X1432820Y9770994D01*
X1373763Y9682609D01*
X1330086Y9577165D01*
X1307820Y9465226D01*
X1307820Y9351094D01*
X1330086Y9239155D01*
X1373763Y9133711D01*
X1437171Y9038814D01*
X1517874Y8958111D01*
X1612771Y8894703D01*
X1718215Y8851026D01*
X1830154Y8828760D01*
X1944286Y8828760D01*
X2056225Y8851026D01*
X2150601Y8890118D01*
X2150601Y7579996D01*
X2079952Y7509347D01*
X2016544Y7414450D01*
X1972867Y7309006D01*
X1950601Y7197067D01*
X1950601Y7082935D01*
X1972867Y6970996D01*
X2016544Y6865552D01*
X2079952Y6770655D01*
X2160655Y6689952D01*
X2255552Y6626544D01*
X2360996Y6582867D01*
X2472935Y6560601D01*
X2587067Y6560601D01*
X2699006Y6582867D01*
X2804450Y6626544D01*
X2899347Y6689952D01*
X2980050Y6770655D01*
X3043458Y6865552D01*
X3087135Y6970996D01*
X3109401Y7082935D01*
X3109401Y7197067D01*
X3087135Y7309006D01*
X3043458Y7414450D01*
X2980050Y7509347D01*
X2909401Y7579996D01*
X2909401Y8308109D01*
X4142612Y7074897D01*
X4154488Y7060426D01*
X4168959Y7048550D01*
X4168960Y7048549D01*
X4212259Y7013015D01*
X4278169Y6977785D01*
X4294815Y6972736D01*
X4349687Y6956090D01*
X4405430Y6950600D01*
X4405433Y6950600D01*
X4424062Y6948765D01*
X4442691Y6950600D01*
X5747183Y6950600D01*
X5765812Y6948765D01*
X5784441Y6950600D01*
X5784444Y6950600D01*
X5840187Y6956090D01*
X5911704Y6977785D01*
X5977615Y7013015D01*
X6035386Y7060426D01*
X6047266Y7074902D01*
X6926967Y7954602D01*
X6941437Y7966477D01*
X6963150Y7992934D01*
X6988848Y8024248D01*
X7024078Y8090158D01*
X7029207Y8107066D01*
X7045773Y8161676D01*
X7051263Y8217419D01*
X7051263Y8217422D01*
X7053098Y8236051D01*
X7051263Y8254680D01*
X7051263Y8856734D01*
X7121912Y8927383D01*
X7185320Y9022280D01*
X7228997Y9127724D01*
X7251263Y9239663D01*
X7251263Y9353795D01*
X7228997Y9465734D01*
X7185320Y9571178D01*
X7121912Y9666075D01*
X7041209Y9746778D01*
X6946312Y9810186D01*
X6840868Y9853863D01*
X6728929Y9876129D01*
X6614797Y9876129D01*
X6502858Y9853863D01*
X6397414Y9810186D01*
X6302517Y9746778D01*
X6221814Y9666075D01*
X6158406Y9571178D01*
X6114729Y9465734D01*
X6092463Y9353795D01*
X6092463Y9239663D01*
X6114729Y9127724D01*
X6158406Y9022280D01*
X6221814Y8927383D01*
X6292463Y8856734D01*
X6292463Y8853834D01*
X6292464Y8853824D01*
X6292463Y8433469D01*
X6291957Y8434691D01*
X6228549Y8529588D01*
X6147846Y8610291D01*
X6052949Y8673699D01*
X5947505Y8717376D01*
X5835566Y8739642D01*
X5721434Y8739642D01*
X5609495Y8717376D01*
X5504051Y8673699D01*
X5409154Y8610291D01*
X5328451Y8529588D01*
X5265043Y8434691D01*
X5221366Y8329247D01*
X5221110Y8327961D01*
X5160049Y8419346D01*
X5079346Y8500049D01*
X4984449Y8563457D01*
X4879005Y8607134D01*
X4767066Y8629400D01*
X4699194Y8629400D01*
X4737134Y8720995D01*
X4759400Y8832934D01*
X4759400Y8947066D01*
X4755742Y8965458D01*
X4777100Y8991483D01*
X4788102Y9012067D01*
X4810120Y9053259D01*
X4830453Y9120289D01*
X4835599Y9172536D01*
X4835599Y9172544D01*
X4837318Y9189999D01*
X4835599Y9207454D01*
X4835599Y9422706D01*
X6763182Y11350287D01*
X6835706Y11311522D01*
X7048599Y11246942D01*
X7214523Y11230600D01*
X7325477Y11230600D01*
X7491401Y11246942D01*
X7704294Y11311522D01*
X7900497Y11416395D01*
X8072470Y11557530D01*
X8213605Y11729503D01*
X8318478Y11925706D01*
X8383058Y12138599D01*
X8404864Y12360000D01*
X8383058Y12581401D01*
X8318478Y12794294D01*
X8279713Y12866818D01*
X8587711Y13174816D01*
X8601263Y13185938D01*
X8612386Y13199491D01*
X8612396Y13199501D01*
X8645701Y13240084D01*
X8645703Y13240086D01*
X8678722Y13301861D01*
X8690920Y13342074D01*
X8699055Y13368890D01*
X8701144Y13390103D01*
X8704201Y13421138D01*
X8704201Y13421145D01*
X8705920Y13438600D01*
X8704201Y13456056D01*
X8704201Y15846060D01*
X8705920Y15863516D01*
X8704201Y15880971D01*
X8704201Y15880978D01*
X8703217Y15890967D01*
X8748456Y15890967D01*
X8860395Y15913233D01*
X8965839Y15956910D01*
X9060736Y16020318D01*
X9141439Y16101021D01*
X9150624Y16114767D01*
X10924401Y16114767D01*
X10924400Y12567774D01*
G36*
X12064401Y22202705D02*
G01*
X12064400Y18739234D01*
X12050654Y18730049D01*
X11969951Y18649346D01*
X11906543Y18554449D01*
X11862866Y18449005D01*
X11840600Y18337066D01*
X11840600Y18222934D01*
X11862866Y18110995D01*
X11906543Y18005551D01*
X11969951Y17910654D01*
X12050654Y17829951D01*
X12145551Y17766543D01*
X12250995Y17722866D01*
X12362934Y17700600D01*
X12477066Y17700600D01*
X12589005Y17722866D01*
X12694449Y17766543D01*
X12789346Y17829951D01*
X12801978Y17842583D01*
X12796543Y17834449D01*
X12752866Y17729005D01*
X12730600Y17617066D01*
X12730600Y17502934D01*
X12752866Y17390995D01*
X12796543Y17285551D01*
X12859951Y17190654D01*
X12940654Y17109951D01*
X13035551Y17046543D01*
X13140995Y17002866D01*
X13252934Y16980600D01*
X13354401Y16980600D01*
X13354400Y10802465D01*
X13338752Y10792009D01*
X13258049Y10711306D01*
X13194641Y10616409D01*
X13150964Y10510965D01*
X13128698Y10399026D01*
X13128698Y10284894D01*
X13150964Y10172955D01*
X13194641Y10067511D01*
X13216968Y10034097D01*
X10655901Y7473028D01*
X10642338Y7461897D01*
X10597900Y7407750D01*
X10585566Y7384675D01*
X10564880Y7345975D01*
X10549108Y7293981D01*
X10544546Y7278944D01*
X10539400Y7226697D01*
X10539400Y7226689D01*
X10537681Y7209234D01*
X10539400Y7191779D01*
X10539400Y6972295D01*
X10410141Y6843036D01*
X10389502Y6946798D01*
X10345825Y7052242D01*
X10282417Y7147139D01*
X10229869Y7199687D01*
X11519104Y8488922D01*
X11532662Y8500049D01*
X11543790Y8513608D01*
X11543795Y8513613D01*
X11577101Y8554196D01*
X11595312Y8588266D01*
X11610121Y8615972D01*
X11630454Y8683002D01*
X11635600Y8735249D01*
X11635600Y8735257D01*
X11637319Y8752712D01*
X11635600Y8770167D01*
X11635600Y16362548D01*
X11637319Y16380001D01*
X11635600Y16397454D01*
X11635600Y18372548D01*
X11637319Y18390001D01*
X11635600Y18407454D01*
X11635600Y18407463D01*
X11630454Y18459710D01*
X11610121Y18526740D01*
X11577101Y18588516D01*
X11567636Y18600049D01*
X11543795Y18629100D01*
X11543790Y18629105D01*
X11532663Y18642663D01*
X11519105Y18653790D01*
X10360894Y19812000D01*
X10467454Y19812000D01*
X10624485Y19843235D01*
X10772405Y19904506D01*
X10905530Y19993457D01*
X11018743Y20106670D01*
X11107694Y20239795D01*
X11168965Y20387715D01*
X11200200Y20544746D01*
X11200200Y20704854D01*
X11168965Y20861885D01*
X11107694Y21009805D01*
X11018743Y21142930D01*
X10905530Y21256143D01*
X10772405Y21345094D01*
X10624485Y21406365D01*
X10494338Y21432253D01*
X10515880Y21540554D01*
X10515880Y21654686D01*
X10493614Y21766625D01*
X10461564Y21844000D01*
X10467454Y21844000D01*
X10624485Y21875235D01*
X10772405Y21936506D01*
X10905530Y22025457D01*
X11018743Y22138670D01*
X11107694Y22271795D01*
X11168965Y22419715D01*
X11200200Y22576746D01*
X11200200Y22736854D01*
X11168965Y22893885D01*
X11107694Y23041805D01*
X11018743Y23174930D01*
X10905530Y23288143D01*
X10772405Y23377094D01*
X10624485Y23438365D01*
X10467454Y23469600D01*
X10307346Y23469600D01*
X10150315Y23438365D01*
X10002395Y23377094D01*
X9869270Y23288143D01*
X9756057Y23174930D01*
X9667106Y23041805D01*
X9605835Y22893885D01*
X9574600Y22736854D01*
X9574600Y22576746D01*
X9605835Y22419715D01*
X9667106Y22271795D01*
X9750115Y22147563D01*
X9662031Y22111077D01*
X9567134Y22047669D01*
X9486431Y21966966D01*
X9423023Y21872069D01*
X9379346Y21766625D01*
X9357080Y21654686D01*
X9357080Y21540554D01*
X9379346Y21428615D01*
X9423023Y21323171D01*
X9486431Y21228274D01*
X9567134Y21147571D01*
X9662031Y21084163D01*
X9704920Y21066398D01*
X9667106Y21009805D01*
X9605835Y20861885D01*
X9574600Y20704854D01*
X9574600Y20598294D01*
X7311144Y22861749D01*
X7360049Y22910654D01*
X7423457Y23005551D01*
X7467134Y23110995D01*
X7467408Y23112373D01*
X7543290Y23036491D01*
X7784578Y22875267D01*
X8052683Y22764214D01*
X8337302Y22707600D01*
X8627498Y22707600D01*
X8912117Y22764214D01*
X9180222Y22875267D01*
X9421510Y23036491D01*
X9626709Y23241690D01*
X9787933Y23482978D01*
X9898986Y23751083D01*
X9955600Y24035702D01*
X9955600Y24311507D01*
X12064401Y22202705D01*
X12064401Y22202705D01*
G37*
X12064401Y22202705D02*
X12064400Y18739234D01*
X12050654Y18730049D01*
X11969951Y18649346D01*
X11906543Y18554449D01*
X11862866Y18449005D01*
X11840600Y18337066D01*
X11840600Y18222934D01*
X11862866Y18110995D01*
X11906543Y18005551D01*
X11969951Y17910654D01*
X12050654Y17829951D01*
X12145551Y17766543D01*
X12250995Y17722866D01*
X12362934Y17700600D01*
X12477066Y17700600D01*
X12589005Y17722866D01*
X12694449Y17766543D01*
X12789346Y17829951D01*
X12801978Y17842583D01*
X12796543Y17834449D01*
X12752866Y17729005D01*
X12730600Y17617066D01*
X12730600Y17502934D01*
X12752866Y17390995D01*
X12796543Y17285551D01*
X12859951Y17190654D01*
X12940654Y17109951D01*
X13035551Y17046543D01*
X13140995Y17002866D01*
X13252934Y16980600D01*
X13354401Y16980600D01*
X13354400Y10802465D01*
X13338752Y10792009D01*
X13258049Y10711306D01*
X13194641Y10616409D01*
X13150964Y10510965D01*
X13128698Y10399026D01*
X13128698Y10284894D01*
X13150964Y10172955D01*
X13194641Y10067511D01*
X13216968Y10034097D01*
X10655901Y7473028D01*
X10642338Y7461897D01*
X10597900Y7407750D01*
X10585566Y7384675D01*
X10564880Y7345975D01*
X10549108Y7293981D01*
X10544546Y7278944D01*
X10539400Y7226697D01*
X10539400Y7226689D01*
X10537681Y7209234D01*
X10539400Y7191779D01*
X10539400Y6972295D01*
X10410141Y6843036D01*
X10389502Y6946798D01*
X10345825Y7052242D01*
X10282417Y7147139D01*
X10229869Y7199687D01*
X11519104Y8488922D01*
X11532662Y8500049D01*
X11543790Y8513608D01*
X11543795Y8513613D01*
X11577101Y8554196D01*
X11595312Y8588266D01*
X11610121Y8615972D01*
X11630454Y8683002D01*
X11635600Y8735249D01*
X11635600Y8735257D01*
X11637319Y8752712D01*
X11635600Y8770167D01*
X11635600Y16362548D01*
X11637319Y16380001D01*
X11635600Y16397454D01*
X11635600Y18372548D01*
X11637319Y18390001D01*
X11635600Y18407454D01*
X11635600Y18407463D01*
X11630454Y18459710D01*
X11610121Y18526740D01*
X11577101Y18588516D01*
X11567636Y18600049D01*
X11543795Y18629100D01*
X11543790Y18629105D01*
X11532663Y18642663D01*
X11519105Y18653790D01*
X10360894Y19812000D01*
X10467454Y19812000D01*
X10624485Y19843235D01*
X10772405Y19904506D01*
X10905530Y19993457D01*
X11018743Y20106670D01*
X11107694Y20239795D01*
X11168965Y20387715D01*
X11200200Y20544746D01*
X11200200Y20704854D01*
X11168965Y20861885D01*
X11107694Y21009805D01*
X11018743Y21142930D01*
X10905530Y21256143D01*
X10772405Y21345094D01*
X10624485Y21406365D01*
X10494338Y21432253D01*
X10515880Y21540554D01*
X10515880Y21654686D01*
X10493614Y21766625D01*
X10461564Y21844000D01*
X10467454Y21844000D01*
X10624485Y21875235D01*
X10772405Y21936506D01*
X10905530Y22025457D01*
X11018743Y22138670D01*
X11107694Y22271795D01*
X11168965Y22419715D01*
X11200200Y22576746D01*
X11200200Y22736854D01*
X11168965Y22893885D01*
X11107694Y23041805D01*
X11018743Y23174930D01*
X10905530Y23288143D01*
X10772405Y23377094D01*
X10624485Y23438365D01*
X10467454Y23469600D01*
X10307346Y23469600D01*
X10150315Y23438365D01*
X10002395Y23377094D01*
X9869270Y23288143D01*
X9756057Y23174930D01*
X9667106Y23041805D01*
X9605835Y22893885D01*
X9574600Y22736854D01*
X9574600Y22576746D01*
X9605835Y22419715D01*
X9667106Y22271795D01*
X9750115Y22147563D01*
X9662031Y22111077D01*
X9567134Y22047669D01*
X9486431Y21966966D01*
X9423023Y21872069D01*
X9379346Y21766625D01*
X9357080Y21654686D01*
X9357080Y21540554D01*
X9379346Y21428615D01*
X9423023Y21323171D01*
X9486431Y21228274D01*
X9567134Y21147571D01*
X9662031Y21084163D01*
X9704920Y21066398D01*
X9667106Y21009805D01*
X9605835Y20861885D01*
X9574600Y20704854D01*
X9574600Y20598294D01*
X7311144Y22861749D01*
X7360049Y22910654D01*
X7423457Y23005551D01*
X7467134Y23110995D01*
X7467408Y23112373D01*
X7543290Y23036491D01*
X7784578Y22875267D01*
X8052683Y22764214D01*
X8337302Y22707600D01*
X8627498Y22707600D01*
X8912117Y22764214D01*
X9180222Y22875267D01*
X9421510Y23036491D01*
X9626709Y23241690D01*
X9787933Y23482978D01*
X9898986Y23751083D01*
X9955600Y24035702D01*
X9955600Y24311507D01*
X12064401Y22202705D01*
G36*
X-11282130Y15876256D02*
G01*
X-11280410Y15858791D01*
X-11280411Y13952483D01*
X-11678313Y13554581D01*
X-11686543Y13574449D01*
X-11749951Y13669346D01*
X-11830654Y13750049D01*
X-11925551Y13813457D01*
X-12030995Y13857134D01*
X-12142934Y13879400D01*
X-12257066Y13879400D01*
X-12369005Y13857134D01*
X-12474449Y13813457D01*
X-12569346Y13750049D01*
X-12650049Y13669346D01*
X-12713457Y13574449D01*
X-12757134Y13469005D01*
X-12779400Y13357066D01*
X-12779400Y13242934D01*
X-12776175Y13226720D01*
X-12868453Y13134441D01*
X-12868453Y14338654D01*
X-11276808Y15930299D01*
X-11282130Y15876256D01*
X-11282130Y15876256D01*
G37*
X-11282130Y15876256D02*
X-11280410Y15858791D01*
X-11280411Y13952483D01*
X-11678313Y13554581D01*
X-11686543Y13574449D01*
X-11749951Y13669346D01*
X-11830654Y13750049D01*
X-11925551Y13813457D01*
X-12030995Y13857134D01*
X-12142934Y13879400D01*
X-12257066Y13879400D01*
X-12369005Y13857134D01*
X-12474449Y13813457D01*
X-12569346Y13750049D01*
X-12650049Y13669346D01*
X-12713457Y13574449D01*
X-12757134Y13469005D01*
X-12779400Y13357066D01*
X-12779400Y13242934D01*
X-12776175Y13226720D01*
X-12868453Y13134441D01*
X-12868453Y14338654D01*
X-11276808Y15930299D01*
X-11282130Y15876256D01*
G36*
X11659282Y26062755D02*
G01*
X12124159Y25922400D01*
X12552914Y25694426D01*
X12929229Y25387511D01*
X13238762Y25013351D01*
X13469725Y24586194D01*
X13613321Y24122308D01*
X13665588Y23625027D01*
X13665601Y23621226D01*
X13665600Y18019233D01*
X13584449Y18073457D01*
X13479005Y18117134D01*
X13367066Y18139400D01*
X13252934Y18139400D01*
X13140995Y18117134D01*
X13035551Y18073457D01*
X12940654Y18010049D01*
X12928022Y17997417D01*
X12933457Y18005551D01*
X12977134Y18110995D01*
X12999400Y18222934D01*
X12999400Y18337066D01*
X12977134Y18449005D01*
X12933457Y18554449D01*
X12870049Y18649346D01*
X12789346Y18730049D01*
X12775600Y18739234D01*
X12775600Y22332545D01*
X12777319Y22350000D01*
X12775600Y22367456D01*
X12775600Y22367463D01*
X12770454Y22419710D01*
X12770453Y22419715D01*
X12757986Y22460812D01*
X12750121Y22486740D01*
X12717101Y22548516D01*
X12672663Y22602663D01*
X12659100Y22613794D01*
X9430598Y25842295D01*
X9419462Y25855864D01*
X9365315Y25900302D01*
X9303539Y25933322D01*
X9236509Y25953655D01*
X9184262Y25958801D01*
X9184254Y25958801D01*
X9166799Y25960520D01*
X9149344Y25958801D01*
X-2184376Y25958801D01*
X-2201829Y25960520D01*
X-2219282Y25958801D01*
X-2219291Y25958801D01*
X-2271538Y25953655D01*
X-2338568Y25933322D01*
X-2400344Y25900302D01*
X-2400346Y25900301D01*
X-2400345Y25900301D01*
X-2440928Y25866996D01*
X-2440933Y25866991D01*
X-2454491Y25855864D01*
X-2465618Y25842306D01*
X-4499130Y23808792D01*
X-4515346Y23812017D01*
X-4629478Y23812017D01*
X-4741417Y23789751D01*
X-4846861Y23746074D01*
X-4941758Y23682666D01*
X-5022461Y23601963D01*
X-5085869Y23507066D01*
X-5099123Y23475069D01*
X-5116166Y23516214D01*
X-5179574Y23611111D01*
X-5260277Y23691814D01*
X-5355174Y23755222D01*
X-5460618Y23798899D01*
X-5572557Y23821165D01*
X-5686689Y23821165D01*
X-5798628Y23798899D01*
X-5904072Y23755222D01*
X-5998969Y23691814D01*
X-6079672Y23611111D01*
X-6143080Y23516214D01*
X-6186757Y23410770D01*
X-6205874Y23314661D01*
X-6243086Y23314661D01*
X-6355025Y23292395D01*
X-6460469Y23248718D01*
X-6555366Y23185310D01*
X-6636069Y23104607D01*
X-6699477Y23009710D01*
X-6743154Y22904266D01*
X-6765420Y22792327D01*
X-6765420Y22678195D01*
X-6743154Y22566256D01*
X-6699477Y22460812D01*
X-6636069Y22365915D01*
X-6555366Y22285212D01*
X-6460469Y22221804D01*
X-6355025Y22178127D01*
X-6243086Y22155861D01*
X-6128954Y22155861D01*
X-6017015Y22178127D01*
X-5911571Y22221804D01*
X-5816674Y22285212D01*
X-5735971Y22365915D01*
X-5672563Y22460812D01*
X-5628886Y22566256D01*
X-5609769Y22662365D01*
X-5572557Y22662365D01*
X-5460618Y22684631D01*
X-5355174Y22728308D01*
X-5260277Y22791716D01*
X-5179574Y22872419D01*
X-5116166Y22967316D01*
X-5102912Y22999313D01*
X-5085869Y22958168D01*
X-5022461Y22863271D01*
X-5001703Y22842513D01*
X-5002459Y22841756D01*
X-5065867Y22746859D01*
X-5109544Y22641415D01*
X-5131810Y22529476D01*
X-5131810Y22415344D01*
X-5109544Y22303405D01*
X-5065867Y22197961D01*
X-5002459Y22103064D01*
X-4921756Y22022361D01*
X-4826859Y21958953D01*
X-4721415Y21915276D01*
X-4700700Y21911156D01*
X-5297496Y21314359D01*
X-5311060Y21303227D01*
X-5355498Y21249080D01*
X-5388518Y21187304D01*
X-5399219Y21152026D01*
X-5401978Y21142930D01*
X-5408851Y21120274D01*
X-5413997Y21068027D01*
X-5413997Y21068020D01*
X-5415716Y21050565D01*
X-5413997Y21033109D01*
X-5413996Y18021414D01*
X-5436279Y18025846D01*
X-5550411Y18025846D01*
X-5662350Y18003580D01*
X-5767794Y17959903D01*
X-5862691Y17896495D01*
X-5874896Y17884291D01*
X-5910654Y17920049D01*
X-6005551Y17983457D01*
X-6110995Y18027134D01*
X-6222934Y18049400D01*
X-6337066Y18049400D01*
X-6449005Y18027134D01*
X-6554449Y17983457D01*
X-6649346Y17920049D01*
X-6680000Y17889395D01*
X-6710654Y17920049D01*
X-6805551Y17983457D01*
X-6906133Y18025120D01*
X-6900600Y18052934D01*
X-6900600Y18167066D01*
X-6922866Y18279005D01*
X-6958380Y18364743D01*
X-6920654Y18389951D01*
X-6839951Y18470654D01*
X-6776543Y18565551D01*
X-6732866Y18670995D01*
X-6710600Y18782934D01*
X-6710600Y18828705D01*
X-6669005Y18811476D01*
X-6557066Y18789210D01*
X-6442934Y18789210D01*
X-6330995Y18811476D01*
X-6225551Y18855153D01*
X-6130654Y18918561D01*
X-6049951Y18999264D01*
X-5986543Y19094161D01*
X-5942866Y19199605D01*
X-5920600Y19311544D01*
X-5920600Y19425676D01*
X-5942866Y19537615D01*
X-5986543Y19643059D01*
X-6049951Y19737956D01*
X-6130654Y19818659D01*
X-6225551Y19882067D01*
X-6330995Y19925744D01*
X-6442934Y19948010D01*
X-6557066Y19948010D01*
X-6669005Y19925744D01*
X-6774449Y19882067D01*
X-6869346Y19818659D01*
X-6950049Y19737956D01*
X-6959234Y19724210D01*
X-9653935Y19724210D01*
X-9671390Y19725929D01*
X-9688845Y19724210D01*
X-9688853Y19724210D01*
X-9741100Y19719064D01*
X-9808130Y19698731D01*
X-9869906Y19665711D01*
X-9924053Y19621273D01*
X-9935184Y19607710D01*
X-11678720Y17864173D01*
X-11686543Y17883059D01*
X-11749951Y17977956D01*
X-11830654Y18058659D01*
X-11844400Y18067844D01*
X-11844400Y21312545D01*
X-11842681Y21330001D01*
X-11844400Y21347456D01*
X-11844400Y21347463D01*
X-11849546Y21399710D01*
X-11869879Y21466740D01*
X-11870150Y21467248D01*
X-11893294Y21510546D01*
X-11902899Y21528516D01*
X-11912411Y21540106D01*
X-11936205Y21569100D01*
X-11936215Y21569110D01*
X-11947338Y21582663D01*
X-11960891Y21593786D01*
X-12073825Y21706720D01*
X-12070600Y21722934D01*
X-12070600Y21837066D01*
X-12092866Y21949005D01*
X-12136543Y22054449D01*
X-12199951Y22149346D01*
X-12280654Y22230049D01*
X-12375551Y22293457D01*
X-12480995Y22337134D01*
X-12592934Y22359400D01*
X-12707066Y22359400D01*
X-12819005Y22337134D01*
X-12924449Y22293457D01*
X-13019346Y22230049D01*
X-13100049Y22149346D01*
X-13163457Y22054449D01*
X-13207134Y21949005D01*
X-13229400Y21837066D01*
X-13229400Y21722934D01*
X-13207134Y21610995D01*
X-13163457Y21505551D01*
X-13100049Y21410654D01*
X-13019346Y21329951D01*
X-12924449Y21266543D01*
X-12819005Y21222866D01*
X-12707066Y21200600D01*
X-12592934Y21200600D01*
X-12576720Y21203825D01*
X-12555600Y21182705D01*
X-12555599Y18067844D01*
X-12569346Y18058659D01*
X-12650049Y17977956D01*
X-12713457Y17883059D01*
X-12757134Y17777615D01*
X-12779400Y17665676D01*
X-12779400Y17551544D01*
X-12757134Y17439605D01*
X-12713457Y17334161D01*
X-12650049Y17239264D01*
X-12586385Y17175600D01*
X-12620766Y17175600D01*
X-12629951Y17189346D01*
X-12710654Y17270049D01*
X-12805551Y17333457D01*
X-12910995Y17377134D01*
X-13022934Y17399400D01*
X-13137066Y17399400D01*
X-13249005Y17377134D01*
X-13354449Y17333457D01*
X-13449346Y17270049D01*
X-13530049Y17189346D01*
X-13593457Y17094449D01*
X-13637134Y16989005D01*
X-13659400Y16877066D01*
X-13659400Y16762934D01*
X-13637134Y16650995D01*
X-13593457Y16545551D01*
X-13530049Y16450654D01*
X-13449346Y16369951D01*
X-13354449Y16306543D01*
X-13249005Y16262866D01*
X-13137066Y16240600D01*
X-13022934Y16240600D01*
X-12910995Y16262866D01*
X-12805551Y16306543D01*
X-12747688Y16345206D01*
X-13792600Y15300293D01*
X-13792600Y23406969D01*
X-8820431Y23406969D01*
X-8820431Y23292837D01*
X-8798165Y23180898D01*
X-8754488Y23075454D01*
X-8691080Y22980557D01*
X-8610377Y22899854D01*
X-8515480Y22836446D01*
X-8410036Y22792769D01*
X-8298097Y22770503D01*
X-8183965Y22770503D01*
X-8072026Y22792769D01*
X-7966582Y22836446D01*
X-7871685Y22899854D01*
X-7790982Y22980557D01*
X-7727574Y23075454D01*
X-7715014Y23105777D01*
X-7697277Y23062958D01*
X-7633869Y22968061D01*
X-7553166Y22887358D01*
X-7458269Y22823950D01*
X-7352825Y22780273D01*
X-7240886Y22758007D01*
X-7126754Y22758007D01*
X-7014815Y22780273D01*
X-6909371Y22823950D01*
X-6814474Y22887358D01*
X-6733771Y22968061D01*
X-6670363Y23062958D01*
X-6626686Y23168402D01*
X-6604420Y23280341D01*
X-6604420Y23394473D01*
X-6626686Y23506412D01*
X-6670363Y23611856D01*
X-6733771Y23706753D01*
X-6814474Y23787456D01*
X-6909371Y23850864D01*
X-7014815Y23894541D01*
X-7126754Y23916807D01*
X-7240886Y23916807D01*
X-7352825Y23894541D01*
X-7458269Y23850864D01*
X-7553166Y23787456D01*
X-7633869Y23706753D01*
X-7697277Y23611856D01*
X-7709837Y23581533D01*
X-7727574Y23624352D01*
X-7790982Y23719249D01*
X-7871685Y23799952D01*
X-7966582Y23863360D01*
X-8072026Y23907037D01*
X-8183965Y23929303D01*
X-8298097Y23929303D01*
X-8410036Y23907037D01*
X-8515480Y23863360D01*
X-8610377Y23799952D01*
X-8691080Y23719249D01*
X-8754488Y23624352D01*
X-8798165Y23518908D01*
X-8820431Y23406969D01*
X-13792600Y23406969D01*
X-13792600Y23607115D01*
X-13743755Y24105282D01*
X-13603400Y24570159D01*
X-13375426Y24998914D01*
X-13068511Y25375229D01*
X-12694351Y25684762D01*
X-12267194Y25915725D01*
X-11803308Y26059321D01*
X-11306027Y26111588D01*
X-11302513Y26111600D01*
X11161115Y26111600D01*
X11659282Y26062755D01*
X11659282Y26062755D01*
G37*
X11659282Y26062755D02*
X12124159Y25922400D01*
X12552914Y25694426D01*
X12929229Y25387511D01*
X13238762Y25013351D01*
X13469725Y24586194D01*
X13613321Y24122308D01*
X13665588Y23625027D01*
X13665601Y23621226D01*
X13665600Y18019233D01*
X13584449Y18073457D01*
X13479005Y18117134D01*
X13367066Y18139400D01*
X13252934Y18139400D01*
X13140995Y18117134D01*
X13035551Y18073457D01*
X12940654Y18010049D01*
X12928022Y17997417D01*
X12933457Y18005551D01*
X12977134Y18110995D01*
X12999400Y18222934D01*
X12999400Y18337066D01*
X12977134Y18449005D01*
X12933457Y18554449D01*
X12870049Y18649346D01*
X12789346Y18730049D01*
X12775600Y18739234D01*
X12775600Y22332545D01*
X12777319Y22350000D01*
X12775600Y22367456D01*
X12775600Y22367463D01*
X12770454Y22419710D01*
X12770453Y22419715D01*
X12757986Y22460812D01*
X12750121Y22486740D01*
X12717101Y22548516D01*
X12672663Y22602663D01*
X12659100Y22613794D01*
X9430598Y25842295D01*
X9419462Y25855864D01*
X9365315Y25900302D01*
X9303539Y25933322D01*
X9236509Y25953655D01*
X9184262Y25958801D01*
X9184254Y25958801D01*
X9166799Y25960520D01*
X9149344Y25958801D01*
X-2184376Y25958801D01*
X-2201829Y25960520D01*
X-2219282Y25958801D01*
X-2219291Y25958801D01*
X-2271538Y25953655D01*
X-2338568Y25933322D01*
X-2400344Y25900302D01*
X-2400346Y25900301D01*
X-2400345Y25900301D01*
X-2440928Y25866996D01*
X-2440933Y25866991D01*
X-2454491Y25855864D01*
X-2465618Y25842306D01*
X-4499130Y23808792D01*
X-4515346Y23812017D01*
X-4629478Y23812017D01*
X-4741417Y23789751D01*
X-4846861Y23746074D01*
X-4941758Y23682666D01*
X-5022461Y23601963D01*
X-5085869Y23507066D01*
X-5099123Y23475069D01*
X-5116166Y23516214D01*
X-5179574Y23611111D01*
X-5260277Y23691814D01*
X-5355174Y23755222D01*
X-5460618Y23798899D01*
X-5572557Y23821165D01*
X-5686689Y23821165D01*
X-5798628Y23798899D01*
X-5904072Y23755222D01*
X-5998969Y23691814D01*
X-6079672Y23611111D01*
X-6143080Y23516214D01*
X-6186757Y23410770D01*
X-6205874Y23314661D01*
X-6243086Y23314661D01*
X-6355025Y23292395D01*
X-6460469Y23248718D01*
X-6555366Y23185310D01*
X-6636069Y23104607D01*
X-6699477Y23009710D01*
X-6743154Y22904266D01*
X-6765420Y22792327D01*
X-6765420Y22678195D01*
X-6743154Y22566256D01*
X-6699477Y22460812D01*
X-6636069Y22365915D01*
X-6555366Y22285212D01*
X-6460469Y22221804D01*
X-6355025Y22178127D01*
X-6243086Y22155861D01*
X-6128954Y22155861D01*
X-6017015Y22178127D01*
X-5911571Y22221804D01*
X-5816674Y22285212D01*
X-5735971Y22365915D01*
X-5672563Y22460812D01*
X-5628886Y22566256D01*
X-5609769Y22662365D01*
X-5572557Y22662365D01*
X-5460618Y22684631D01*
X-5355174Y22728308D01*
X-5260277Y22791716D01*
X-5179574Y22872419D01*
X-5116166Y22967316D01*
X-5102912Y22999313D01*
X-5085869Y22958168D01*
X-5022461Y22863271D01*
X-5001703Y22842513D01*
X-5002459Y22841756D01*
X-5065867Y22746859D01*
X-5109544Y22641415D01*
X-5131810Y22529476D01*
X-5131810Y22415344D01*
X-5109544Y22303405D01*
X-5065867Y22197961D01*
X-5002459Y22103064D01*
X-4921756Y22022361D01*
X-4826859Y21958953D01*
X-4721415Y21915276D01*
X-4700700Y21911156D01*
X-5297496Y21314359D01*
X-5311060Y21303227D01*
X-5355498Y21249080D01*
X-5388518Y21187304D01*
X-5399219Y21152026D01*
X-5401978Y21142930D01*
X-5408851Y21120274D01*
X-5413997Y21068027D01*
X-5413997Y21068020D01*
X-5415716Y21050565D01*
X-5413997Y21033109D01*
X-5413996Y18021414D01*
X-5436279Y18025846D01*
X-5550411Y18025846D01*
X-5662350Y18003580D01*
X-5767794Y17959903D01*
X-5862691Y17896495D01*
X-5874896Y17884291D01*
X-5910654Y17920049D01*
X-6005551Y17983457D01*
X-6110995Y18027134D01*
X-6222934Y18049400D01*
X-6337066Y18049400D01*
X-6449005Y18027134D01*
X-6554449Y17983457D01*
X-6649346Y17920049D01*
X-6680000Y17889395D01*
X-6710654Y17920049D01*
X-6805551Y17983457D01*
X-6906133Y18025120D01*
X-6900600Y18052934D01*
X-6900600Y18167066D01*
X-6922866Y18279005D01*
X-6958380Y18364743D01*
X-6920654Y18389951D01*
X-6839951Y18470654D01*
X-6776543Y18565551D01*
X-6732866Y18670995D01*
X-6710600Y18782934D01*
X-6710600Y18828705D01*
X-6669005Y18811476D01*
X-6557066Y18789210D01*
X-6442934Y18789210D01*
X-6330995Y18811476D01*
X-6225551Y18855153D01*
X-6130654Y18918561D01*
X-6049951Y18999264D01*
X-5986543Y19094161D01*
X-5942866Y19199605D01*
X-5920600Y19311544D01*
X-5920600Y19425676D01*
X-5942866Y19537615D01*
X-5986543Y19643059D01*
X-6049951Y19737956D01*
X-6130654Y19818659D01*
X-6225551Y19882067D01*
X-6330995Y19925744D01*
X-6442934Y19948010D01*
X-6557066Y19948010D01*
X-6669005Y19925744D01*
X-6774449Y19882067D01*
X-6869346Y19818659D01*
X-6950049Y19737956D01*
X-6959234Y19724210D01*
X-9653935Y19724210D01*
X-9671390Y19725929D01*
X-9688845Y19724210D01*
X-9688853Y19724210D01*
X-9741100Y19719064D01*
X-9808130Y19698731D01*
X-9869906Y19665711D01*
X-9924053Y19621273D01*
X-9935184Y19607710D01*
X-11678720Y17864173D01*
X-11686543Y17883059D01*
X-11749951Y17977956D01*
X-11830654Y18058659D01*
X-11844400Y18067844D01*
X-11844400Y21312545D01*
X-11842681Y21330001D01*
X-11844400Y21347456D01*
X-11844400Y21347463D01*
X-11849546Y21399710D01*
X-11869879Y21466740D01*
X-11870150Y21467248D01*
X-11893294Y21510546D01*
X-11902899Y21528516D01*
X-11912411Y21540106D01*
X-11936205Y21569100D01*
X-11936215Y21569110D01*
X-11947338Y21582663D01*
X-11960891Y21593786D01*
X-12073825Y21706720D01*
X-12070600Y21722934D01*
X-12070600Y21837066D01*
X-12092866Y21949005D01*
X-12136543Y22054449D01*
X-12199951Y22149346D01*
X-12280654Y22230049D01*
X-12375551Y22293457D01*
X-12480995Y22337134D01*
X-12592934Y22359400D01*
X-12707066Y22359400D01*
X-12819005Y22337134D01*
X-12924449Y22293457D01*
X-13019346Y22230049D01*
X-13100049Y22149346D01*
X-13163457Y22054449D01*
X-13207134Y21949005D01*
X-13229400Y21837066D01*
X-13229400Y21722934D01*
X-13207134Y21610995D01*
X-13163457Y21505551D01*
X-13100049Y21410654D01*
X-13019346Y21329951D01*
X-12924449Y21266543D01*
X-12819005Y21222866D01*
X-12707066Y21200600D01*
X-12592934Y21200600D01*
X-12576720Y21203825D01*
X-12555600Y21182705D01*
X-12555599Y18067844D01*
X-12569346Y18058659D01*
X-12650049Y17977956D01*
X-12713457Y17883059D01*
X-12757134Y17777615D01*
X-12779400Y17665676D01*
X-12779400Y17551544D01*
X-12757134Y17439605D01*
X-12713457Y17334161D01*
X-12650049Y17239264D01*
X-12586385Y17175600D01*
X-12620766Y17175600D01*
X-12629951Y17189346D01*
X-12710654Y17270049D01*
X-12805551Y17333457D01*
X-12910995Y17377134D01*
X-13022934Y17399400D01*
X-13137066Y17399400D01*
X-13249005Y17377134D01*
X-13354449Y17333457D01*
X-13449346Y17270049D01*
X-13530049Y17189346D01*
X-13593457Y17094449D01*
X-13637134Y16989005D01*
X-13659400Y16877066D01*
X-13659400Y16762934D01*
X-13637134Y16650995D01*
X-13593457Y16545551D01*
X-13530049Y16450654D01*
X-13449346Y16369951D01*
X-13354449Y16306543D01*
X-13249005Y16262866D01*
X-13137066Y16240600D01*
X-13022934Y16240600D01*
X-12910995Y16262866D01*
X-12805551Y16306543D01*
X-12747688Y16345206D01*
X-13792600Y15300293D01*
X-13792600Y23406969D01*
X-8820431Y23406969D01*
X-8820431Y23292837D01*
X-8798165Y23180898D01*
X-8754488Y23075454D01*
X-8691080Y22980557D01*
X-8610377Y22899854D01*
X-8515480Y22836446D01*
X-8410036Y22792769D01*
X-8298097Y22770503D01*
X-8183965Y22770503D01*
X-8072026Y22792769D01*
X-7966582Y22836446D01*
X-7871685Y22899854D01*
X-7790982Y22980557D01*
X-7727574Y23075454D01*
X-7715014Y23105777D01*
X-7697277Y23062958D01*
X-7633869Y22968061D01*
X-7553166Y22887358D01*
X-7458269Y22823950D01*
X-7352825Y22780273D01*
X-7240886Y22758007D01*
X-7126754Y22758007D01*
X-7014815Y22780273D01*
X-6909371Y22823950D01*
X-6814474Y22887358D01*
X-6733771Y22968061D01*
X-6670363Y23062958D01*
X-6626686Y23168402D01*
X-6604420Y23280341D01*
X-6604420Y23394473D01*
X-6626686Y23506412D01*
X-6670363Y23611856D01*
X-6733771Y23706753D01*
X-6814474Y23787456D01*
X-6909371Y23850864D01*
X-7014815Y23894541D01*
X-7126754Y23916807D01*
X-7240886Y23916807D01*
X-7352825Y23894541D01*
X-7458269Y23850864D01*
X-7553166Y23787456D01*
X-7633869Y23706753D01*
X-7697277Y23611856D01*
X-7709837Y23581533D01*
X-7727574Y23624352D01*
X-7790982Y23719249D01*
X-7871685Y23799952D01*
X-7966582Y23863360D01*
X-8072026Y23907037D01*
X-8183965Y23929303D01*
X-8298097Y23929303D01*
X-8410036Y23907037D01*
X-8515480Y23863360D01*
X-8610377Y23799952D01*
X-8691080Y23719249D01*
X-8754488Y23624352D01*
X-8798165Y23518908D01*
X-8820431Y23406969D01*
X-13792600Y23406969D01*
X-13792600Y23607115D01*
X-13743755Y24105282D01*
X-13603400Y24570159D01*
X-13375426Y24998914D01*
X-13068511Y25375229D01*
X-12694351Y25684762D01*
X-12267194Y25915725D01*
X-11803308Y26059321D01*
X-11306027Y26111588D01*
X-11302513Y26111600D01*
X11161115Y26111600D01*
X11659282Y26062755D01*
G36*
X-3609741Y21890389D02*
G01*
X-3576501Y21876620D01*
X-3595836Y21779415D01*
X-3595836Y21665283D01*
X-3573570Y21553344D01*
X-3529893Y21447900D01*
X-3466485Y21353003D01*
X-3385782Y21272300D01*
X-3290885Y21208892D01*
X-3185441Y21165215D01*
X-3073502Y21142949D01*
X-2959370Y21142949D01*
X-2847431Y21165215D01*
X-2808671Y21181270D01*
X-2824302Y21152026D01*
X-2860293Y21033383D01*
X-2872444Y20910000D01*
X-2860293Y20786617D01*
X-2824302Y20667974D01*
X-2765859Y20558633D01*
X-2706914Y20486809D01*
X-1349399Y19129293D01*
X-1349400Y17380706D01*
X-2370705Y16359400D01*
X-3589083Y16359400D01*
X-3620000Y16362445D01*
X-3743384Y16350293D01*
X-3862027Y16314303D01*
X-3941447Y16271852D01*
X-3971368Y16255859D01*
X-4067206Y16177206D01*
X-4086914Y16153192D01*
X-4574400Y15665706D01*
X-4574400Y17421190D01*
X-4564592Y17421190D01*
X-4542848Y17311875D01*
X-4499171Y17206431D01*
X-4435763Y17111534D01*
X-4355060Y17030831D01*
X-4260163Y16967423D01*
X-4154719Y16923746D01*
X-4042780Y16901480D01*
X-3928648Y16901480D01*
X-3816709Y16923746D01*
X-3711265Y16967423D01*
X-3624977Y17025078D01*
X-3603153Y17003254D01*
X-3508256Y16939846D01*
X-3402812Y16896169D01*
X-3290873Y16873903D01*
X-3176741Y16873903D01*
X-3064802Y16896169D01*
X-2959358Y16939846D01*
X-2864461Y17003254D01*
X-2831888Y17035827D01*
X-2757259Y16985962D01*
X-2651815Y16942285D01*
X-2539876Y16920019D01*
X-2425744Y16920019D01*
X-2313805Y16942285D01*
X-2208361Y16985962D01*
X-2113464Y17049370D01*
X-2032761Y17130073D01*
X-1969353Y17224970D01*
X-1925676Y17330414D01*
X-1903410Y17442353D01*
X-1903410Y17556485D01*
X-1925676Y17668424D01*
X-1969353Y17773868D01*
X-2032761Y17868765D01*
X-2113464Y17949468D01*
X-2208361Y18012876D01*
X-2313805Y18056553D01*
X-2425744Y18078819D01*
X-2539876Y18078819D01*
X-2651815Y18056553D01*
X-2757259Y18012876D01*
X-2852156Y17949468D01*
X-2884729Y17916895D01*
X-2959358Y17966760D01*
X-3064802Y18010437D01*
X-3176741Y18032703D01*
X-3290873Y18032703D01*
X-3402812Y18010437D01*
X-3508256Y17966760D01*
X-3594544Y17909105D01*
X-3616368Y17930929D01*
X-3711265Y17994337D01*
X-3816709Y18038014D01*
X-3928648Y18060280D01*
X-3950918Y18060280D01*
X-3972662Y18169595D01*
X-4016339Y18275039D01*
X-4079747Y18369936D01*
X-4160450Y18450639D01*
X-4255347Y18514047D01*
X-4360791Y18557724D01*
X-4472730Y18579990D01*
X-4586862Y18579990D01*
X-4698801Y18557724D01*
X-4702797Y18556069D01*
X-4702797Y20903272D01*
X-3673246Y21932821D01*
X-3609741Y21890389D01*
X-3609741Y21890389D01*
G37*
X-3609741Y21890389D02*
X-3576501Y21876620D01*
X-3595836Y21779415D01*
X-3595836Y21665283D01*
X-3573570Y21553344D01*
X-3529893Y21447900D01*
X-3466485Y21353003D01*
X-3385782Y21272300D01*
X-3290885Y21208892D01*
X-3185441Y21165215D01*
X-3073502Y21142949D01*
X-2959370Y21142949D01*
X-2847431Y21165215D01*
X-2808671Y21181270D01*
X-2824302Y21152026D01*
X-2860293Y21033383D01*
X-2872444Y20910000D01*
X-2860293Y20786617D01*
X-2824302Y20667974D01*
X-2765859Y20558633D01*
X-2706914Y20486809D01*
X-1349399Y19129293D01*
X-1349400Y17380706D01*
X-2370705Y16359400D01*
X-3589083Y16359400D01*
X-3620000Y16362445D01*
X-3743384Y16350293D01*
X-3862027Y16314303D01*
X-3941447Y16271852D01*
X-3971368Y16255859D01*
X-4067206Y16177206D01*
X-4086914Y16153192D01*
X-4574400Y15665706D01*
X-4574400Y17421190D01*
X-4564592Y17421190D01*
X-4542848Y17311875D01*
X-4499171Y17206431D01*
X-4435763Y17111534D01*
X-4355060Y17030831D01*
X-4260163Y16967423D01*
X-4154719Y16923746D01*
X-4042780Y16901480D01*
X-3928648Y16901480D01*
X-3816709Y16923746D01*
X-3711265Y16967423D01*
X-3624977Y17025078D01*
X-3603153Y17003254D01*
X-3508256Y16939846D01*
X-3402812Y16896169D01*
X-3290873Y16873903D01*
X-3176741Y16873903D01*
X-3064802Y16896169D01*
X-2959358Y16939846D01*
X-2864461Y17003254D01*
X-2831888Y17035827D01*
X-2757259Y16985962D01*
X-2651815Y16942285D01*
X-2539876Y16920019D01*
X-2425744Y16920019D01*
X-2313805Y16942285D01*
X-2208361Y16985962D01*
X-2113464Y17049370D01*
X-2032761Y17130073D01*
X-1969353Y17224970D01*
X-1925676Y17330414D01*
X-1903410Y17442353D01*
X-1903410Y17556485D01*
X-1925676Y17668424D01*
X-1969353Y17773868D01*
X-2032761Y17868765D01*
X-2113464Y17949468D01*
X-2208361Y18012876D01*
X-2313805Y18056553D01*
X-2425744Y18078819D01*
X-2539876Y18078819D01*
X-2651815Y18056553D01*
X-2757259Y18012876D01*
X-2852156Y17949468D01*
X-2884729Y17916895D01*
X-2959358Y17966760D01*
X-3064802Y18010437D01*
X-3176741Y18032703D01*
X-3290873Y18032703D01*
X-3402812Y18010437D01*
X-3508256Y17966760D01*
X-3594544Y17909105D01*
X-3616368Y17930929D01*
X-3711265Y17994337D01*
X-3816709Y18038014D01*
X-3928648Y18060280D01*
X-3950918Y18060280D01*
X-3972662Y18169595D01*
X-4016339Y18275039D01*
X-4079747Y18369936D01*
X-4160450Y18450639D01*
X-4255347Y18514047D01*
X-4360791Y18557724D01*
X-4472730Y18579990D01*
X-4586862Y18579990D01*
X-4698801Y18557724D01*
X-4702797Y18556069D01*
X-4702797Y20903272D01*
X-3673246Y21932821D01*
X-3609741Y21890389D01*
G36*
X2852224Y18697213D02*
G01*
X2770731Y18663457D01*
X2675834Y18600049D01*
X2595131Y18519346D01*
X2531723Y18424449D01*
X2488046Y18319005D01*
X2465780Y18207066D01*
X2465780Y18107152D01*
X2463730Y18105102D01*
X2463726Y18105097D01*
X2274899Y17916271D01*
X2260428Y17904395D01*
X2248552Y17889924D01*
X2248550Y17889922D01*
X2213016Y17846624D01*
X2188160Y17800120D01*
X2177787Y17780713D01*
X2156092Y17709196D01*
X2155769Y17705914D01*
X2148766Y17634821D01*
X2150602Y17616182D01*
X2150602Y16348205D01*
X2148157Y16351864D01*
X2077508Y16422513D01*
X2077508Y19471930D01*
X2852224Y18697213D01*
X2852224Y18697213D01*
G37*
X2852224Y18697213D02*
X2770731Y18663457D01*
X2675834Y18600049D01*
X2595131Y18519346D01*
X2531723Y18424449D01*
X2488046Y18319005D01*
X2465780Y18207066D01*
X2465780Y18107152D01*
X2463730Y18105102D01*
X2463726Y18105097D01*
X2274899Y17916271D01*
X2260428Y17904395D01*
X2248552Y17889924D01*
X2248550Y17889922D01*
X2213016Y17846624D01*
X2188160Y17800120D01*
X2177787Y17780713D01*
X2156092Y17709196D01*
X2155769Y17705914D01*
X2148766Y17634821D01*
X2150602Y17616182D01*
X2150602Y16348205D01*
X2148157Y16351864D01*
X2077508Y16422513D01*
X2077508Y19471930D01*
X2852224Y18697213D01*
G36*
X-781789Y25167606D02*
G01*
X-845197Y25072709D01*
X-888874Y24967265D01*
X-911140Y24855326D01*
X-911140Y24741194D01*
X-888874Y24629255D01*
X-845197Y24523811D01*
X-781789Y24428914D01*
X-701086Y24348211D01*
X-606189Y24284803D01*
X-500745Y24241126D01*
X-388806Y24218860D01*
X-274674Y24218860D01*
X-162735Y24241126D01*
X-57291Y24284803D01*
X37606Y24348211D01*
X118309Y24428914D01*
X181717Y24523811D01*
X225394Y24629255D01*
X247660Y24741194D01*
X247660Y24855326D01*
X225394Y24967265D01*
X181717Y25072709D01*
X118309Y25167606D01*
X38314Y25247601D01*
X4290782Y25247601D01*
X4163091Y25119910D01*
X4001867Y24878622D01*
X3890814Y24610517D01*
X3834200Y24325898D01*
X3834200Y24035702D01*
X3890814Y23751083D01*
X4001867Y23482978D01*
X4163091Y23241690D01*
X4368290Y23036491D01*
X4609578Y22875267D01*
X4877683Y22764214D01*
X5162302Y22707600D01*
X5452498Y22707600D01*
X5737117Y22764214D01*
X6005222Y22875267D01*
X6246510Y23036491D01*
X6347581Y23137562D01*
X6352866Y23110995D01*
X6396543Y23005551D01*
X6459951Y22910654D01*
X6540654Y22829951D01*
X6554400Y22820766D01*
X6554400Y22777455D01*
X6552681Y22760000D01*
X6554400Y22742545D01*
X6554400Y22742538D01*
X6556338Y22722866D01*
X6559546Y22690290D01*
X6560695Y22686503D01*
X6579879Y22623261D01*
X6612899Y22561485D01*
X6657337Y22507338D01*
X6670902Y22496205D01*
X8593106Y20574000D01*
X8337302Y20574000D01*
X8052683Y20517386D01*
X7784578Y20406333D01*
X7622427Y20297987D01*
X7605878Y20381183D01*
X7562201Y20486627D01*
X7498793Y20581524D01*
X7418090Y20662227D01*
X7323193Y20725635D01*
X7217749Y20769312D01*
X7105810Y20791578D01*
X6991678Y20791578D01*
X6879739Y20769312D01*
X6774295Y20725635D01*
X6679398Y20662227D01*
X6598695Y20581524D01*
X6535287Y20486627D01*
X6533627Y20482620D01*
X6253952Y20762296D01*
X6242816Y20775864D01*
X6188669Y20820302D01*
X6126893Y20853322D01*
X6059863Y20873655D01*
X6007616Y20878801D01*
X6007608Y20878801D01*
X5990153Y20880520D01*
X5972698Y20878801D01*
X5591721Y20878801D01*
X5692405Y20920506D01*
X5825530Y21009457D01*
X5938743Y21122670D01*
X6027694Y21255795D01*
X6088965Y21403715D01*
X6120200Y21560746D01*
X6120200Y21720854D01*
X6088965Y21877885D01*
X6027694Y22025805D01*
X5938743Y22158930D01*
X5825530Y22272143D01*
X5692405Y22361094D01*
X5544485Y22422365D01*
X5387454Y22453600D01*
X5227346Y22453600D01*
X5070315Y22422365D01*
X4922395Y22361094D01*
X4789270Y22272143D01*
X4676057Y22158930D01*
X4587106Y22025805D01*
X4525835Y21877885D01*
X4510790Y21802248D01*
X4510790Y21871621D01*
X4488524Y21983560D01*
X4444847Y22089004D01*
X4381439Y22183901D01*
X4300736Y22264604D01*
X4205839Y22328012D01*
X4100395Y22371689D01*
X3988456Y22393955D01*
X3874324Y22393955D01*
X3762385Y22371689D01*
X3656941Y22328012D01*
X3562044Y22264604D01*
X3481341Y22183901D01*
X3417933Y22089004D01*
X3374256Y21983560D01*
X3351990Y21871621D01*
X3351990Y21757489D01*
X3374256Y21645550D01*
X3417933Y21540106D01*
X3481341Y21445209D01*
X3562044Y21364506D01*
X3656941Y21301098D01*
X3762385Y21257421D01*
X3874324Y21235155D01*
X3988456Y21235155D01*
X4004671Y21238380D01*
X4770190Y20472861D01*
X4609578Y20406333D01*
X4368290Y20245109D01*
X4163091Y20039910D01*
X4001867Y19798622D01*
X3890814Y19530517D01*
X3834200Y19245898D01*
X3834200Y18955702D01*
X3890814Y18671083D01*
X3895531Y18659696D01*
X-14772Y22569997D01*
X-25908Y22583566D01*
X-80055Y22628004D01*
X-141831Y22661024D01*
X-208861Y22681357D01*
X-261108Y22686503D01*
X-261116Y22686503D01*
X-278571Y22688222D01*
X-296026Y22686503D01*
X-2107953Y22686503D01*
X-2117138Y22700249D01*
X-2164799Y22747910D01*
X-2138585Y22753124D01*
X-2033141Y22796801D01*
X-1938244Y22860209D01*
X-1857541Y22940912D01*
X-1794133Y23035809D01*
X-1750456Y23141253D01*
X-1728190Y23253192D01*
X-1728190Y23367324D01*
X-1750456Y23479263D01*
X-1794133Y23584707D01*
X-1857541Y23679604D01*
X-1938244Y23760307D01*
X-2033141Y23823715D01*
X-2138585Y23867392D01*
X-2250524Y23889658D01*
X-2364656Y23889658D01*
X-2476595Y23867392D01*
X-2582039Y23823715D01*
X-2676936Y23760307D01*
X-2757639Y23679604D01*
X-2821047Y23584707D01*
X-2864724Y23479263D01*
X-2886990Y23367324D01*
X-2886990Y23358394D01*
X-2914567Y23424970D01*
X-2977975Y23519867D01*
X-3058678Y23600570D01*
X-3153575Y23663978D01*
X-3259019Y23707655D01*
X-3370958Y23729921D01*
X-3485090Y23729921D01*
X-3593848Y23708288D01*
X-2054533Y25247601D01*
X-701794Y25247601D01*
X-781789Y25167606D01*
X-781789Y25167606D01*
G37*
X-781789Y25167606D02*
X-845197Y25072709D01*
X-888874Y24967265D01*
X-911140Y24855326D01*
X-911140Y24741194D01*
X-888874Y24629255D01*
X-845197Y24523811D01*
X-781789Y24428914D01*
X-701086Y24348211D01*
X-606189Y24284803D01*
X-500745Y24241126D01*
X-388806Y24218860D01*
X-274674Y24218860D01*
X-162735Y24241126D01*
X-57291Y24284803D01*
X37606Y24348211D01*
X118309Y24428914D01*
X181717Y24523811D01*
X225394Y24629255D01*
X247660Y24741194D01*
X247660Y24855326D01*
X225394Y24967265D01*
X181717Y25072709D01*
X118309Y25167606D01*
X38314Y25247601D01*
X4290782Y25247601D01*
X4163091Y25119910D01*
X4001867Y24878622D01*
X3890814Y24610517D01*
X3834200Y24325898D01*
X3834200Y24035702D01*
X3890814Y23751083D01*
X4001867Y23482978D01*
X4163091Y23241690D01*
X4368290Y23036491D01*
X4609578Y22875267D01*
X4877683Y22764214D01*
X5162302Y22707600D01*
X5452498Y22707600D01*
X5737117Y22764214D01*
X6005222Y22875267D01*
X6246510Y23036491D01*
X6347581Y23137562D01*
X6352866Y23110995D01*
X6396543Y23005551D01*
X6459951Y22910654D01*
X6540654Y22829951D01*
X6554400Y22820766D01*
X6554400Y22777455D01*
X6552681Y22760000D01*
X6554400Y22742545D01*
X6554400Y22742538D01*
X6556338Y22722866D01*
X6559546Y22690290D01*
X6560695Y22686503D01*
X6579879Y22623261D01*
X6612899Y22561485D01*
X6657337Y22507338D01*
X6670902Y22496205D01*
X8593106Y20574000D01*
X8337302Y20574000D01*
X8052683Y20517386D01*
X7784578Y20406333D01*
X7622427Y20297987D01*
X7605878Y20381183D01*
X7562201Y20486627D01*
X7498793Y20581524D01*
X7418090Y20662227D01*
X7323193Y20725635D01*
X7217749Y20769312D01*
X7105810Y20791578D01*
X6991678Y20791578D01*
X6879739Y20769312D01*
X6774295Y20725635D01*
X6679398Y20662227D01*
X6598695Y20581524D01*
X6535287Y20486627D01*
X6533627Y20482620D01*
X6253952Y20762296D01*
X6242816Y20775864D01*
X6188669Y20820302D01*
X6126893Y20853322D01*
X6059863Y20873655D01*
X6007616Y20878801D01*
X6007608Y20878801D01*
X5990153Y20880520D01*
X5972698Y20878801D01*
X5591721Y20878801D01*
X5692405Y20920506D01*
X5825530Y21009457D01*
X5938743Y21122670D01*
X6027694Y21255795D01*
X6088965Y21403715D01*
X6120200Y21560746D01*
X6120200Y21720854D01*
X6088965Y21877885D01*
X6027694Y22025805D01*
X5938743Y22158930D01*
X5825530Y22272143D01*
X5692405Y22361094D01*
X5544485Y22422365D01*
X5387454Y22453600D01*
X5227346Y22453600D01*
X5070315Y22422365D01*
X4922395Y22361094D01*
X4789270Y22272143D01*
X4676057Y22158930D01*
X4587106Y22025805D01*
X4525835Y21877885D01*
X4510790Y21802248D01*
X4510790Y21871621D01*
X4488524Y21983560D01*
X4444847Y22089004D01*
X4381439Y22183901D01*
X4300736Y22264604D01*
X4205839Y22328012D01*
X4100395Y22371689D01*
X3988456Y22393955D01*
X3874324Y22393955D01*
X3762385Y22371689D01*
X3656941Y22328012D01*
X3562044Y22264604D01*
X3481341Y22183901D01*
X3417933Y22089004D01*
X3374256Y21983560D01*
X3351990Y21871621D01*
X3351990Y21757489D01*
X3374256Y21645550D01*
X3417933Y21540106D01*
X3481341Y21445209D01*
X3562044Y21364506D01*
X3656941Y21301098D01*
X3762385Y21257421D01*
X3874324Y21235155D01*
X3988456Y21235155D01*
X4004671Y21238380D01*
X4770190Y20472861D01*
X4609578Y20406333D01*
X4368290Y20245109D01*
X4163091Y20039910D01*
X4001867Y19798622D01*
X3890814Y19530517D01*
X3834200Y19245898D01*
X3834200Y18955702D01*
X3890814Y18671083D01*
X3895531Y18659696D01*
X-14772Y22569997D01*
X-25908Y22583566D01*
X-80055Y22628004D01*
X-141831Y22661024D01*
X-208861Y22681357D01*
X-261108Y22686503D01*
X-261116Y22686503D01*
X-278571Y22688222D01*
X-296026Y22686503D01*
X-2107953Y22686503D01*
X-2117138Y22700249D01*
X-2164799Y22747910D01*
X-2138585Y22753124D01*
X-2033141Y22796801D01*
X-1938244Y22860209D01*
X-1857541Y22940912D01*
X-1794133Y23035809D01*
X-1750456Y23141253D01*
X-1728190Y23253192D01*
X-1728190Y23367324D01*
X-1750456Y23479263D01*
X-1794133Y23584707D01*
X-1857541Y23679604D01*
X-1938244Y23760307D01*
X-2033141Y23823715D01*
X-2138585Y23867392D01*
X-2250524Y23889658D01*
X-2364656Y23889658D01*
X-2476595Y23867392D01*
X-2582039Y23823715D01*
X-2676936Y23760307D01*
X-2757639Y23679604D01*
X-2821047Y23584707D01*
X-2864724Y23479263D01*
X-2886990Y23367324D01*
X-2886990Y23358394D01*
X-2914567Y23424970D01*
X-2977975Y23519867D01*
X-3058678Y23600570D01*
X-3153575Y23663978D01*
X-3259019Y23707655D01*
X-3370958Y23729921D01*
X-3485090Y23729921D01*
X-3593848Y23708288D01*
X-2054533Y25247601D01*
X-701794Y25247601D01*
X-781789Y25167606D01*
M02*
