G04 #@! TF.GenerationSoftware,KiCad,Pcbnew,(5.1.4)-1*
G04 #@! TF.CreationDate,2019-12-23T12:12:04-10:00*
G04 #@! TF.ProjectId,SkateLightLEDBoard,536b6174-654c-4696-9768-744c4544426f,rev?*
G04 #@! TF.SameCoordinates,Original*
G04 #@! TF.FileFunction,Copper,L2,Bot*
G04 #@! TF.FilePolarity,Positive*
%FSLAX46Y46*%
G04 Gerber Fmt 4.6, Leading zero omitted, Abs format (unit mm)*
G04 Created by KiCad (PCBNEW (5.1.4)-1) date 2019-12-23 12:12:04*
%MOMM*%
%LPD*%
G04 APERTURE LIST*
%ADD10C,1.016000*%
%ADD11C,2.921000*%
%ADD12C,1.800000*%
%ADD13C,0.600000*%
%ADD14C,0.200000*%
%ADD15C,0.350000*%
%ADD16C,0.152400*%
G04 APERTURE END LIST*
D10*
X7620000Y-1905000D03*
X8890000Y-1905000D03*
X7620000Y-635000D03*
X8890000Y-635000D03*
X7620000Y635000D03*
X8890000Y635000D03*
X7620000Y1905000D03*
X8890000Y1905000D03*
D11*
X8255000Y-4953000D03*
X8255000Y4953000D03*
X-8255000Y-4953000D03*
X-8255000Y4953000D03*
D10*
X-8890000Y-1905000D03*
X-7620000Y-1905000D03*
X-8890000Y-635000D03*
X-7620000Y-635000D03*
X-8890000Y635000D03*
X-7620000Y635000D03*
X-8890000Y1905000D03*
X-7620000Y1905000D03*
D11*
X23812500Y5207000D03*
X23812500Y-5207000D03*
X-23812500Y5207000D03*
X-23812500Y-5207000D03*
D12*
X20933000Y4423000D03*
X12087000Y-4423000D03*
X4423000Y-4423000D03*
X-4423000Y4423000D03*
X-12087000Y4423000D03*
X-20933000Y-4423000D03*
D13*
X-18618200Y-5791200D03*
X-10416540Y-4259580D03*
X-12684760Y-5875020D03*
X11630660Y-1435100D03*
X-11678920Y1887220D03*
X-9969500Y1889760D03*
X-4693920Y2131060D03*
X-2024380Y4871720D03*
X2085340Y-4881880D03*
X4795520Y-1854200D03*
X14127480Y-5633720D03*
X-10350500Y-254000D03*
X10350500Y-787500D03*
X10056000Y-2032000D03*
X11770360Y2148840D03*
X15062480Y-5308600D03*
X-13316858Y-4536645D03*
X12334240Y3954780D03*
X10764520Y4203700D03*
X12542520Y5278120D03*
X10589260Y3169920D03*
X14569440Y5069840D03*
X16520160Y5255260D03*
X18514060Y5092700D03*
D14*
X9397999Y-127001D02*
X9631679Y-127001D01*
X8890000Y-635000D02*
X9397999Y-127001D01*
X9631679Y-127001D02*
X10449560Y690880D01*
X10449560Y690880D02*
X10449560Y1892300D01*
X10449560Y1892300D02*
X10706100Y2148840D01*
X10706100Y2148840D02*
X11770360Y2148840D01*
X10451000Y-2032000D02*
X10461160Y-2021840D01*
X10056000Y-2032000D02*
X10451000Y-2032000D01*
X10461160Y-2021840D02*
X11574780Y-2021840D01*
X11574780Y-2021840D02*
X14861540Y-5308600D01*
X14861540Y-5308600D02*
X15062480Y-5308600D01*
D15*
X-10651653Y500401D02*
X-10977901Y174153D01*
X-8890000Y1905000D02*
X-10294599Y500401D01*
X-10294599Y500401D02*
X-10651653Y500401D01*
X-10977901Y-2197688D02*
X-10977901Y-1836399D01*
X-13316858Y-4536645D02*
X-10977901Y-2197688D01*
X-10977901Y174153D02*
X-10977901Y-1836399D01*
D14*
X11013440Y3954780D02*
X12334240Y3954780D01*
X10764520Y4203700D02*
X11013440Y3954780D01*
D16*
G36*
X22632925Y12469D02*
G01*
X22632924Y-3003064D01*
X22633436Y-3008265D01*
X22635559Y-3061562D01*
X22637717Y-3077155D01*
X22638755Y-3092856D01*
X22639357Y-3096351D01*
X22665644Y-3242726D01*
X22671922Y-3264941D01*
X22677857Y-3287118D01*
X22679126Y-3290429D01*
X22733343Y-3428910D01*
X22743804Y-3449458D01*
X22753945Y-3470085D01*
X22755830Y-3473082D01*
X22755833Y-3473087D01*
X22755836Y-3473091D01*
X22835915Y-3598399D01*
X22850183Y-3616543D01*
X22864123Y-3634788D01*
X22866553Y-3637361D01*
X22866558Y-3637367D01*
X22866563Y-3637372D01*
X22969455Y-3744738D01*
X22986929Y-3759726D01*
X23004193Y-3774956D01*
X23007083Y-3777011D01*
X23128876Y-3862352D01*
X23148955Y-3873675D01*
X23168822Y-3885247D01*
X23172056Y-3886702D01*
X23308105Y-3946761D01*
X23330039Y-3953981D01*
X23351737Y-3961460D01*
X23355182Y-3962257D01*
X23355192Y-3962260D01*
X23355202Y-3962261D01*
X23500315Y-3994749D01*
X23523186Y-3997565D01*
X23545972Y-4000694D01*
X23549516Y-4000807D01*
X23549517Y-4000807D01*
X23698188Y-4004490D01*
X23698411Y-4004474D01*
X23698937Y-4004490D01*
X23958976Y-4010759D01*
X24188536Y-4061991D01*
X24403777Y-4156838D01*
X24596491Y-4291682D01*
X24759348Y-4461395D01*
X24886136Y-4659503D01*
X24972031Y-4878466D01*
X25013761Y-5109946D01*
X25009734Y-5345124D01*
X24960106Y-5575033D01*
X24866765Y-5790929D01*
X24733268Y-5984583D01*
X24564699Y-6148619D01*
X24367480Y-6276788D01*
X24149119Y-6364210D01*
X23911139Y-6408829D01*
X23804981Y-6413500D01*
X13817600Y-6413500D01*
X13817600Y-4729370D01*
X14556439Y-5468209D01*
X14594040Y-5558986D01*
X14651889Y-5645563D01*
X14725517Y-5719191D01*
X14812094Y-5777040D01*
X14908293Y-5816887D01*
X15010417Y-5837200D01*
X15114543Y-5837200D01*
X15216667Y-5816887D01*
X15312866Y-5777040D01*
X15399443Y-5719191D01*
X15473071Y-5645563D01*
X15530920Y-5558986D01*
X15570767Y-5462787D01*
X15591080Y-5360663D01*
X15591080Y-5256537D01*
X15570767Y-5154413D01*
X15530920Y-5058214D01*
X15473071Y-4971637D01*
X15399443Y-4898009D01*
X15312866Y-4840160D01*
X15216667Y-4800313D01*
X15114543Y-4780000D01*
X15010417Y-4780000D01*
X14908293Y-4800313D01*
X14844420Y-4826770D01*
X14348955Y-4331305D01*
X15101549Y-4643040D01*
X16034424Y-4828600D01*
X16985576Y-4828600D01*
X17918451Y-4643040D01*
X18797200Y-4279050D01*
X19588053Y-3750619D01*
X20260619Y-3078053D01*
X20789050Y-2287200D01*
X21153040Y-1408451D01*
X21338600Y-475576D01*
X21338600Y475576D01*
X21153040Y1408451D01*
X20789050Y2287200D01*
X20707427Y2409358D01*
X22632924Y2409358D01*
X22632925Y12469D01*
X22632925Y12469D01*
G37*
X22632925Y12469D02*
X22632924Y-3003064D01*
X22633436Y-3008265D01*
X22635559Y-3061562D01*
X22637717Y-3077155D01*
X22638755Y-3092856D01*
X22639357Y-3096351D01*
X22665644Y-3242726D01*
X22671922Y-3264941D01*
X22677857Y-3287118D01*
X22679126Y-3290429D01*
X22733343Y-3428910D01*
X22743804Y-3449458D01*
X22753945Y-3470085D01*
X22755830Y-3473082D01*
X22755833Y-3473087D01*
X22755836Y-3473091D01*
X22835915Y-3598399D01*
X22850183Y-3616543D01*
X22864123Y-3634788D01*
X22866553Y-3637361D01*
X22866558Y-3637367D01*
X22866563Y-3637372D01*
X22969455Y-3744738D01*
X22986929Y-3759726D01*
X23004193Y-3774956D01*
X23007083Y-3777011D01*
X23128876Y-3862352D01*
X23148955Y-3873675D01*
X23168822Y-3885247D01*
X23172056Y-3886702D01*
X23308105Y-3946761D01*
X23330039Y-3953981D01*
X23351737Y-3961460D01*
X23355182Y-3962257D01*
X23355192Y-3962260D01*
X23355202Y-3962261D01*
X23500315Y-3994749D01*
X23523186Y-3997565D01*
X23545972Y-4000694D01*
X23549516Y-4000807D01*
X23549517Y-4000807D01*
X23698188Y-4004490D01*
X23698411Y-4004474D01*
X23698937Y-4004490D01*
X23958976Y-4010759D01*
X24188536Y-4061991D01*
X24403777Y-4156838D01*
X24596491Y-4291682D01*
X24759348Y-4461395D01*
X24886136Y-4659503D01*
X24972031Y-4878466D01*
X25013761Y-5109946D01*
X25009734Y-5345124D01*
X24960106Y-5575033D01*
X24866765Y-5790929D01*
X24733268Y-5984583D01*
X24564699Y-6148619D01*
X24367480Y-6276788D01*
X24149119Y-6364210D01*
X23911139Y-6408829D01*
X23804981Y-6413500D01*
X13817600Y-6413500D01*
X13817600Y-4729370D01*
X14556439Y-5468209D01*
X14594040Y-5558986D01*
X14651889Y-5645563D01*
X14725517Y-5719191D01*
X14812094Y-5777040D01*
X14908293Y-5816887D01*
X15010417Y-5837200D01*
X15114543Y-5837200D01*
X15216667Y-5816887D01*
X15312866Y-5777040D01*
X15399443Y-5719191D01*
X15473071Y-5645563D01*
X15530920Y-5558986D01*
X15570767Y-5462787D01*
X15591080Y-5360663D01*
X15591080Y-5256537D01*
X15570767Y-5154413D01*
X15530920Y-5058214D01*
X15473071Y-4971637D01*
X15399443Y-4898009D01*
X15312866Y-4840160D01*
X15216667Y-4800313D01*
X15114543Y-4780000D01*
X15010417Y-4780000D01*
X14908293Y-4800313D01*
X14844420Y-4826770D01*
X14348955Y-4331305D01*
X15101549Y-4643040D01*
X16034424Y-4828600D01*
X16985576Y-4828600D01*
X17918451Y-4643040D01*
X18797200Y-4279050D01*
X19588053Y-3750619D01*
X20260619Y-3078053D01*
X20789050Y-2287200D01*
X21153040Y-1408451D01*
X21338600Y-475576D01*
X21338600Y475576D01*
X21153040Y1408451D01*
X20789050Y2287200D01*
X20707427Y2409358D01*
X22632924Y2409358D01*
X22632925Y12469D01*
G36*
X-13817600Y4572000D02*
G01*
X-13813208Y4527402D01*
X-13800199Y4484519D01*
X-13779074Y4444997D01*
X-13750645Y4410355D01*
X-11591645Y2251355D01*
X-11557003Y2222926D01*
X-11517481Y2201801D01*
X-11474598Y2188792D01*
X-11430000Y2184400D01*
X-9571559Y2184400D01*
X-9598293Y2119858D01*
X-9626600Y1977549D01*
X-9626600Y1832451D01*
X-9611125Y1754651D01*
X-10461774Y904001D01*
X-10631836Y904001D01*
X-10651654Y905953D01*
X-10730773Y898160D01*
X-10753851Y891159D01*
X-10806851Y875082D01*
X-10876966Y837605D01*
X-10938422Y787170D01*
X-10951056Y771775D01*
X-11249264Y473565D01*
X-11264670Y460922D01*
X-11315105Y399465D01*
X-11332439Y367035D01*
X-11352582Y329350D01*
X-11375660Y253271D01*
X-11383453Y174153D01*
X-11381501Y154335D01*
X-11381500Y-1816571D01*
X-11381501Y-1816581D01*
X-11381501Y-2030512D01*
X-13359033Y-4008045D01*
X-13368921Y-4008045D01*
X-13471045Y-4028358D01*
X-13567244Y-4068205D01*
X-13653821Y-4126054D01*
X-13727449Y-4199682D01*
X-13785298Y-4286259D01*
X-13825145Y-4382458D01*
X-13845458Y-4484582D01*
X-13845458Y-4588708D01*
X-13825145Y-4690832D01*
X-13785298Y-4787031D01*
X-13727449Y-4873608D01*
X-13653821Y-4947236D01*
X-13567244Y-5005085D01*
X-13471045Y-5044932D01*
X-13368921Y-5065245D01*
X-13264795Y-5065245D01*
X-13162671Y-5044932D01*
X-13066472Y-5005085D01*
X-12979895Y-4947236D01*
X-12906267Y-4873608D01*
X-12848418Y-4787031D01*
X-12808571Y-4690832D01*
X-12788258Y-4588708D01*
X-12788258Y-4578820D01*
X-10706533Y-2497096D01*
X-10691132Y-2484457D01*
X-10640697Y-2423001D01*
X-10603220Y-2352886D01*
X-10580142Y-2276807D01*
X-10574301Y-2217506D01*
X-10574301Y-2217505D01*
X-10572349Y-2197688D01*
X-10574301Y-2177870D01*
X-10574301Y6977D01*
X-10484477Y96801D01*
X-10314417Y96801D01*
X-10294599Y94849D01*
X-10274781Y96801D01*
X-10215480Y102642D01*
X-10139401Y125720D01*
X-10069286Y163197D01*
X-10007830Y213632D01*
X-9995186Y229039D01*
X-9626600Y597625D01*
X-9626600Y562451D01*
X-9598293Y420142D01*
X-9542766Y286089D01*
X-9462155Y165445D01*
X-9359555Y62845D01*
X-9265500Y0D01*
X-9359555Y-62845D01*
X-9462155Y-165445D01*
X-9542766Y-286089D01*
X-9598293Y-420142D01*
X-9626600Y-562451D01*
X-9626600Y-707549D01*
X-9598293Y-849858D01*
X-9542766Y-983911D01*
X-9462155Y-1104555D01*
X-9359555Y-1207155D01*
X-9238911Y-1287766D01*
X-9104858Y-1343293D01*
X-8962549Y-1371600D01*
X-8817451Y-1371600D01*
X-8675142Y-1343293D01*
X-8541089Y-1287766D01*
X-8420445Y-1207155D01*
X-8317845Y-1104555D01*
X-8237234Y-983911D01*
X-8181707Y-849858D01*
X-8153400Y-707549D01*
X-8153400Y-562451D01*
X-8181707Y-420142D01*
X-8237234Y-286089D01*
X-8317845Y-165445D01*
X-8420445Y-62845D01*
X-8514500Y0D01*
X-8420445Y62845D01*
X-8317845Y165445D01*
X-8255000Y259500D01*
X-8192155Y165445D01*
X-8089555Y62845D01*
X-7968911Y-17766D01*
X-7834858Y-73293D01*
X-7692549Y-101600D01*
X-7547451Y-101600D01*
X-7405142Y-73293D01*
X-7271089Y-17766D01*
X-7150445Y62845D01*
X-7047845Y165445D01*
X-6967234Y286089D01*
X-6911707Y420142D01*
X-6900681Y475576D01*
X-4828600Y475576D01*
X-4828600Y-475576D01*
X-4643040Y-1408451D01*
X-4279050Y-2287200D01*
X-3750619Y-3078053D01*
X-3078053Y-3750619D01*
X-2287200Y-4279050D01*
X-1408451Y-4643040D01*
X-475576Y-4828600D01*
X475576Y-4828600D01*
X1408451Y-4643040D01*
X2287200Y-4279050D01*
X3078053Y-3750619D01*
X3750619Y-3078053D01*
X4279050Y-2287200D01*
X4643040Y-1408451D01*
X4828600Y-475576D01*
X4828600Y475576D01*
X4643040Y1408451D01*
X4279050Y2287200D01*
X3750619Y3078053D01*
X3078053Y3750619D01*
X2287200Y4279050D01*
X1408451Y4643040D01*
X475576Y4828600D01*
X-475576Y4828600D01*
X-1408451Y4643040D01*
X-2287200Y4279050D01*
X-3078053Y3750619D01*
X-3750619Y3078053D01*
X-4279050Y2287200D01*
X-4643040Y1408451D01*
X-4828600Y475576D01*
X-6900681Y475576D01*
X-6883400Y562451D01*
X-6883400Y707549D01*
X-6911707Y849858D01*
X-6967234Y983911D01*
X-7047845Y1104555D01*
X-7150445Y1207155D01*
X-7244500Y1270000D01*
X-7150445Y1332845D01*
X-7047845Y1435445D01*
X-6967234Y1556089D01*
X-6911707Y1690142D01*
X-6883400Y1832451D01*
X-6883400Y1977549D01*
X-6911707Y2119858D01*
X-6938441Y2184400D01*
X-5080000Y2184400D01*
X-5035402Y2188792D01*
X-4992519Y2201801D01*
X-4952997Y2222926D01*
X-4918355Y2251355D01*
X-2632355Y4537355D01*
X-2603926Y4571997D01*
X-2582801Y4611519D01*
X-2569792Y4654402D01*
X-2565400Y4699000D01*
X-2565400Y6413500D01*
X8407400Y6413500D01*
X8407400Y3501558D01*
X8128000Y3501558D01*
X8083402Y3497166D01*
X8040519Y3484157D01*
X8000997Y3463032D01*
X7966355Y3434603D01*
X6950355Y2418603D01*
X6921926Y2383961D01*
X6900801Y2344439D01*
X6887792Y2301556D01*
X6883400Y2256958D01*
X6883400Y1494958D01*
X6887792Y1450360D01*
X6900801Y1407477D01*
X6921926Y1367955D01*
X6950355Y1333313D01*
X7113479Y1170189D01*
X7047845Y1104555D01*
X6967234Y983911D01*
X6911707Y849858D01*
X6883400Y707549D01*
X6883400Y562451D01*
X6911707Y420142D01*
X6967234Y286089D01*
X7047845Y165445D01*
X7150445Y62845D01*
X7244500Y0D01*
X7150445Y-62845D01*
X7047845Y-165445D01*
X6967234Y-286089D01*
X6911707Y-420142D01*
X6883400Y-562451D01*
X6883400Y-707549D01*
X6911707Y-849858D01*
X6967234Y-983911D01*
X7047845Y-1104555D01*
X7150445Y-1207155D01*
X7244500Y-1270000D01*
X7150445Y-1332845D01*
X7047845Y-1435445D01*
X6967234Y-1556089D01*
X6911707Y-1690142D01*
X6883400Y-1832451D01*
X6883400Y-1977549D01*
X6911707Y-2119858D01*
X6938441Y-2184400D01*
X5080000Y-2184400D01*
X5035402Y-2188792D01*
X4992519Y-2201801D01*
X4952997Y-2222926D01*
X4918355Y-2251355D01*
X2632355Y-4537355D01*
X2603926Y-4571997D01*
X2582801Y-4611519D01*
X2569792Y-4654402D01*
X2565400Y-4699000D01*
X2565400Y-6413500D01*
X-23799449Y-6413500D01*
X-24046977Y-6389146D01*
X-24272129Y-6321087D01*
X-24479766Y-6210596D01*
X-24661992Y-6061876D01*
X-24811860Y-5880595D01*
X-24923662Y-5673655D01*
X-24993142Y-5448937D01*
X-25017650Y-5215014D01*
X-24996254Y-4980779D01*
X-24929769Y-4755161D01*
X-24820728Y-4546754D01*
X-24673284Y-4363496D01*
X-24493057Y-4212368D01*
X-24286899Y-4099121D01*
X-24062680Y-4028077D01*
X-23822052Y-4001167D01*
X-23712678Y-4004450D01*
X-23712535Y-4004440D01*
X-23651689Y-4006439D01*
X-23635983Y-4005418D01*
X-23620244Y-4005523D01*
X-23616714Y-4005176D01*
X-23468818Y-3989581D01*
X-23446193Y-3984929D01*
X-23423658Y-3980622D01*
X-23420265Y-3979598D01*
X-23420259Y-3979596D01*
X-23278212Y-3935573D01*
X-23256934Y-3926620D01*
X-23235652Y-3918014D01*
X-23232529Y-3916352D01*
X-23232519Y-3916348D01*
X-23232511Y-3916343D01*
X-23101727Y-3845572D01*
X-23082619Y-3832675D01*
X-23063384Y-3820079D01*
X-23060636Y-3817837D01*
X-22946081Y-3723003D01*
X-22929839Y-3706637D01*
X-22913423Y-3690550D01*
X-22911163Y-3687817D01*
X-22817208Y-3572540D01*
X-22804442Y-3553312D01*
X-22791474Y-3534359D01*
X-22789788Y-3531240D01*
X-22720014Y-3399908D01*
X-22711215Y-3378539D01*
X-22702187Y-3357457D01*
X-22701139Y-3354069D01*
X-22658203Y-3211685D01*
X-22653723Y-3189024D01*
X-22648961Y-3166582D01*
X-22648592Y-3163064D01*
X-22648590Y-3163054D01*
X-22648590Y-3163045D01*
X-22636607Y-3040411D01*
X-22636600Y-3040389D01*
X-22632924Y-3003065D01*
X-22632924Y475576D01*
X-21338600Y475576D01*
X-21338600Y-475576D01*
X-21153040Y-1408451D01*
X-20789050Y-2287200D01*
X-20260619Y-3078053D01*
X-19588053Y-3750619D01*
X-18797200Y-4279050D01*
X-17918451Y-4643040D01*
X-16985576Y-4828600D01*
X-16034424Y-4828600D01*
X-15101549Y-4643040D01*
X-14222800Y-4279050D01*
X-13431947Y-3750619D01*
X-12759381Y-3078053D01*
X-12230950Y-2287200D01*
X-11866960Y-1408451D01*
X-11681400Y-475576D01*
X-11681400Y475576D01*
X-11866960Y1408451D01*
X-12230950Y2287200D01*
X-12759381Y3078053D01*
X-13431947Y3750619D01*
X-14222800Y4279050D01*
X-15101549Y4643040D01*
X-16034424Y4828600D01*
X-16985576Y4828600D01*
X-17918451Y4643040D01*
X-18797200Y4279050D01*
X-19588053Y3750619D01*
X-20260619Y3078053D01*
X-20789050Y2287200D01*
X-21153040Y1408451D01*
X-21338600Y475576D01*
X-22632924Y475576D01*
X-22632924Y3003065D01*
X-22633436Y3008266D01*
X-22635559Y3061562D01*
X-22637717Y3077155D01*
X-22638755Y3092856D01*
X-22639357Y3096350D01*
X-22665644Y3242726D01*
X-22671922Y3264941D01*
X-22677857Y3287118D01*
X-22679126Y3290429D01*
X-22733343Y3428910D01*
X-22743804Y3449458D01*
X-22753945Y3470085D01*
X-22755830Y3473082D01*
X-22755833Y3473087D01*
X-22755836Y3473091D01*
X-22835915Y3598399D01*
X-22850210Y3616578D01*
X-22864123Y3634789D01*
X-22866553Y3637361D01*
X-22866558Y3637367D01*
X-22866563Y3637372D01*
X-22969455Y3744738D01*
X-22986951Y3759744D01*
X-23004193Y3774955D01*
X-23007083Y3777011D01*
X-23128876Y3862352D01*
X-23148955Y3873675D01*
X-23168822Y3885247D01*
X-23172047Y3886697D01*
X-23172056Y3886702D01*
X-23172065Y3886705D01*
X-23308105Y3946761D01*
X-23330049Y3953984D01*
X-23351737Y3961460D01*
X-23355182Y3962257D01*
X-23355192Y3962260D01*
X-23355202Y3962261D01*
X-23500316Y3994749D01*
X-23523210Y3997568D01*
X-23545972Y4000694D01*
X-23549506Y4000807D01*
X-23549517Y4000808D01*
X-23549527Y4000807D01*
X-23698188Y4004490D01*
X-23698411Y4004474D01*
X-23698936Y4004490D01*
X-23958976Y4010759D01*
X-24188535Y4061991D01*
X-24403777Y4156838D01*
X-24596491Y4291682D01*
X-24759348Y4461395D01*
X-24886136Y4659503D01*
X-24972031Y4878466D01*
X-25013761Y5109947D01*
X-25009734Y5345124D01*
X-24960106Y5575033D01*
X-24866764Y5790931D01*
X-24733264Y5984587D01*
X-24564697Y6148620D01*
X-24367478Y6276789D01*
X-24149119Y6364210D01*
X-23911139Y6408829D01*
X-23804982Y6413500D01*
X-13817600Y6413500D01*
X-13817600Y4572000D01*
X-13817600Y4572000D01*
G37*
X-13817600Y4572000D02*
X-13813208Y4527402D01*
X-13800199Y4484519D01*
X-13779074Y4444997D01*
X-13750645Y4410355D01*
X-11591645Y2251355D01*
X-11557003Y2222926D01*
X-11517481Y2201801D01*
X-11474598Y2188792D01*
X-11430000Y2184400D01*
X-9571559Y2184400D01*
X-9598293Y2119858D01*
X-9626600Y1977549D01*
X-9626600Y1832451D01*
X-9611125Y1754651D01*
X-10461774Y904001D01*
X-10631836Y904001D01*
X-10651654Y905953D01*
X-10730773Y898160D01*
X-10753851Y891159D01*
X-10806851Y875082D01*
X-10876966Y837605D01*
X-10938422Y787170D01*
X-10951056Y771775D01*
X-11249264Y473565D01*
X-11264670Y460922D01*
X-11315105Y399465D01*
X-11332439Y367035D01*
X-11352582Y329350D01*
X-11375660Y253271D01*
X-11383453Y174153D01*
X-11381501Y154335D01*
X-11381500Y-1816571D01*
X-11381501Y-1816581D01*
X-11381501Y-2030512D01*
X-13359033Y-4008045D01*
X-13368921Y-4008045D01*
X-13471045Y-4028358D01*
X-13567244Y-4068205D01*
X-13653821Y-4126054D01*
X-13727449Y-4199682D01*
X-13785298Y-4286259D01*
X-13825145Y-4382458D01*
X-13845458Y-4484582D01*
X-13845458Y-4588708D01*
X-13825145Y-4690832D01*
X-13785298Y-4787031D01*
X-13727449Y-4873608D01*
X-13653821Y-4947236D01*
X-13567244Y-5005085D01*
X-13471045Y-5044932D01*
X-13368921Y-5065245D01*
X-13264795Y-5065245D01*
X-13162671Y-5044932D01*
X-13066472Y-5005085D01*
X-12979895Y-4947236D01*
X-12906267Y-4873608D01*
X-12848418Y-4787031D01*
X-12808571Y-4690832D01*
X-12788258Y-4588708D01*
X-12788258Y-4578820D01*
X-10706533Y-2497096D01*
X-10691132Y-2484457D01*
X-10640697Y-2423001D01*
X-10603220Y-2352886D01*
X-10580142Y-2276807D01*
X-10574301Y-2217506D01*
X-10574301Y-2217505D01*
X-10572349Y-2197688D01*
X-10574301Y-2177870D01*
X-10574301Y6977D01*
X-10484477Y96801D01*
X-10314417Y96801D01*
X-10294599Y94849D01*
X-10274781Y96801D01*
X-10215480Y102642D01*
X-10139401Y125720D01*
X-10069286Y163197D01*
X-10007830Y213632D01*
X-9995186Y229039D01*
X-9626600Y597625D01*
X-9626600Y562451D01*
X-9598293Y420142D01*
X-9542766Y286089D01*
X-9462155Y165445D01*
X-9359555Y62845D01*
X-9265500Y0D01*
X-9359555Y-62845D01*
X-9462155Y-165445D01*
X-9542766Y-286089D01*
X-9598293Y-420142D01*
X-9626600Y-562451D01*
X-9626600Y-707549D01*
X-9598293Y-849858D01*
X-9542766Y-983911D01*
X-9462155Y-1104555D01*
X-9359555Y-1207155D01*
X-9238911Y-1287766D01*
X-9104858Y-1343293D01*
X-8962549Y-1371600D01*
X-8817451Y-1371600D01*
X-8675142Y-1343293D01*
X-8541089Y-1287766D01*
X-8420445Y-1207155D01*
X-8317845Y-1104555D01*
X-8237234Y-983911D01*
X-8181707Y-849858D01*
X-8153400Y-707549D01*
X-8153400Y-562451D01*
X-8181707Y-420142D01*
X-8237234Y-286089D01*
X-8317845Y-165445D01*
X-8420445Y-62845D01*
X-8514500Y0D01*
X-8420445Y62845D01*
X-8317845Y165445D01*
X-8255000Y259500D01*
X-8192155Y165445D01*
X-8089555Y62845D01*
X-7968911Y-17766D01*
X-7834858Y-73293D01*
X-7692549Y-101600D01*
X-7547451Y-101600D01*
X-7405142Y-73293D01*
X-7271089Y-17766D01*
X-7150445Y62845D01*
X-7047845Y165445D01*
X-6967234Y286089D01*
X-6911707Y420142D01*
X-6900681Y475576D01*
X-4828600Y475576D01*
X-4828600Y-475576D01*
X-4643040Y-1408451D01*
X-4279050Y-2287200D01*
X-3750619Y-3078053D01*
X-3078053Y-3750619D01*
X-2287200Y-4279050D01*
X-1408451Y-4643040D01*
X-475576Y-4828600D01*
X475576Y-4828600D01*
X1408451Y-4643040D01*
X2287200Y-4279050D01*
X3078053Y-3750619D01*
X3750619Y-3078053D01*
X4279050Y-2287200D01*
X4643040Y-1408451D01*
X4828600Y-475576D01*
X4828600Y475576D01*
X4643040Y1408451D01*
X4279050Y2287200D01*
X3750619Y3078053D01*
X3078053Y3750619D01*
X2287200Y4279050D01*
X1408451Y4643040D01*
X475576Y4828600D01*
X-475576Y4828600D01*
X-1408451Y4643040D01*
X-2287200Y4279050D01*
X-3078053Y3750619D01*
X-3750619Y3078053D01*
X-4279050Y2287200D01*
X-4643040Y1408451D01*
X-4828600Y475576D01*
X-6900681Y475576D01*
X-6883400Y562451D01*
X-6883400Y707549D01*
X-6911707Y849858D01*
X-6967234Y983911D01*
X-7047845Y1104555D01*
X-7150445Y1207155D01*
X-7244500Y1270000D01*
X-7150445Y1332845D01*
X-7047845Y1435445D01*
X-6967234Y1556089D01*
X-6911707Y1690142D01*
X-6883400Y1832451D01*
X-6883400Y1977549D01*
X-6911707Y2119858D01*
X-6938441Y2184400D01*
X-5080000Y2184400D01*
X-5035402Y2188792D01*
X-4992519Y2201801D01*
X-4952997Y2222926D01*
X-4918355Y2251355D01*
X-2632355Y4537355D01*
X-2603926Y4571997D01*
X-2582801Y4611519D01*
X-2569792Y4654402D01*
X-2565400Y4699000D01*
X-2565400Y6413500D01*
X8407400Y6413500D01*
X8407400Y3501558D01*
X8128000Y3501558D01*
X8083402Y3497166D01*
X8040519Y3484157D01*
X8000997Y3463032D01*
X7966355Y3434603D01*
X6950355Y2418603D01*
X6921926Y2383961D01*
X6900801Y2344439D01*
X6887792Y2301556D01*
X6883400Y2256958D01*
X6883400Y1494958D01*
X6887792Y1450360D01*
X6900801Y1407477D01*
X6921926Y1367955D01*
X6950355Y1333313D01*
X7113479Y1170189D01*
X7047845Y1104555D01*
X6967234Y983911D01*
X6911707Y849858D01*
X6883400Y707549D01*
X6883400Y562451D01*
X6911707Y420142D01*
X6967234Y286089D01*
X7047845Y165445D01*
X7150445Y62845D01*
X7244500Y0D01*
X7150445Y-62845D01*
X7047845Y-165445D01*
X6967234Y-286089D01*
X6911707Y-420142D01*
X6883400Y-562451D01*
X6883400Y-707549D01*
X6911707Y-849858D01*
X6967234Y-983911D01*
X7047845Y-1104555D01*
X7150445Y-1207155D01*
X7244500Y-1270000D01*
X7150445Y-1332845D01*
X7047845Y-1435445D01*
X6967234Y-1556089D01*
X6911707Y-1690142D01*
X6883400Y-1832451D01*
X6883400Y-1977549D01*
X6911707Y-2119858D01*
X6938441Y-2184400D01*
X5080000Y-2184400D01*
X5035402Y-2188792D01*
X4992519Y-2201801D01*
X4952997Y-2222926D01*
X4918355Y-2251355D01*
X2632355Y-4537355D01*
X2603926Y-4571997D01*
X2582801Y-4611519D01*
X2569792Y-4654402D01*
X2565400Y-4699000D01*
X2565400Y-6413500D01*
X-23799449Y-6413500D01*
X-24046977Y-6389146D01*
X-24272129Y-6321087D01*
X-24479766Y-6210596D01*
X-24661992Y-6061876D01*
X-24811860Y-5880595D01*
X-24923662Y-5673655D01*
X-24993142Y-5448937D01*
X-25017650Y-5215014D01*
X-24996254Y-4980779D01*
X-24929769Y-4755161D01*
X-24820728Y-4546754D01*
X-24673284Y-4363496D01*
X-24493057Y-4212368D01*
X-24286899Y-4099121D01*
X-24062680Y-4028077D01*
X-23822052Y-4001167D01*
X-23712678Y-4004450D01*
X-23712535Y-4004440D01*
X-23651689Y-4006439D01*
X-23635983Y-4005418D01*
X-23620244Y-4005523D01*
X-23616714Y-4005176D01*
X-23468818Y-3989581D01*
X-23446193Y-3984929D01*
X-23423658Y-3980622D01*
X-23420265Y-3979598D01*
X-23420259Y-3979596D01*
X-23278212Y-3935573D01*
X-23256934Y-3926620D01*
X-23235652Y-3918014D01*
X-23232529Y-3916352D01*
X-23232519Y-3916348D01*
X-23232511Y-3916343D01*
X-23101727Y-3845572D01*
X-23082619Y-3832675D01*
X-23063384Y-3820079D01*
X-23060636Y-3817837D01*
X-22946081Y-3723003D01*
X-22929839Y-3706637D01*
X-22913423Y-3690550D01*
X-22911163Y-3687817D01*
X-22817208Y-3572540D01*
X-22804442Y-3553312D01*
X-22791474Y-3534359D01*
X-22789788Y-3531240D01*
X-22720014Y-3399908D01*
X-22711215Y-3378539D01*
X-22702187Y-3357457D01*
X-22701139Y-3354069D01*
X-22658203Y-3211685D01*
X-22653723Y-3189024D01*
X-22648961Y-3166582D01*
X-22648592Y-3163064D01*
X-22648590Y-3163054D01*
X-22648590Y-3163045D01*
X-22636607Y-3040411D01*
X-22636600Y-3040389D01*
X-22632924Y-3003065D01*
X-22632924Y475576D01*
X-21338600Y475576D01*
X-21338600Y-475576D01*
X-21153040Y-1408451D01*
X-20789050Y-2287200D01*
X-20260619Y-3078053D01*
X-19588053Y-3750619D01*
X-18797200Y-4279050D01*
X-17918451Y-4643040D01*
X-16985576Y-4828600D01*
X-16034424Y-4828600D01*
X-15101549Y-4643040D01*
X-14222800Y-4279050D01*
X-13431947Y-3750619D01*
X-12759381Y-3078053D01*
X-12230950Y-2287200D01*
X-11866960Y-1408451D01*
X-11681400Y-475576D01*
X-11681400Y475576D01*
X-11866960Y1408451D01*
X-12230950Y2287200D01*
X-12759381Y3078053D01*
X-13431947Y3750619D01*
X-14222800Y4279050D01*
X-15101549Y4643040D01*
X-16034424Y4828600D01*
X-16985576Y4828600D01*
X-17918451Y4643040D01*
X-18797200Y4279050D01*
X-19588053Y3750619D01*
X-20260619Y3078053D01*
X-20789050Y2287200D01*
X-21153040Y1408451D01*
X-21338600Y475576D01*
X-22632924Y475576D01*
X-22632924Y3003065D01*
X-22633436Y3008266D01*
X-22635559Y3061562D01*
X-22637717Y3077155D01*
X-22638755Y3092856D01*
X-22639357Y3096350D01*
X-22665644Y3242726D01*
X-22671922Y3264941D01*
X-22677857Y3287118D01*
X-22679126Y3290429D01*
X-22733343Y3428910D01*
X-22743804Y3449458D01*
X-22753945Y3470085D01*
X-22755830Y3473082D01*
X-22755833Y3473087D01*
X-22755836Y3473091D01*
X-22835915Y3598399D01*
X-22850210Y3616578D01*
X-22864123Y3634789D01*
X-22866553Y3637361D01*
X-22866558Y3637367D01*
X-22866563Y3637372D01*
X-22969455Y3744738D01*
X-22986951Y3759744D01*
X-23004193Y3774955D01*
X-23007083Y3777011D01*
X-23128876Y3862352D01*
X-23148955Y3873675D01*
X-23168822Y3885247D01*
X-23172047Y3886697D01*
X-23172056Y3886702D01*
X-23172065Y3886705D01*
X-23308105Y3946761D01*
X-23330049Y3953984D01*
X-23351737Y3961460D01*
X-23355182Y3962257D01*
X-23355192Y3962260D01*
X-23355202Y3962261D01*
X-23500316Y3994749D01*
X-23523210Y3997568D01*
X-23545972Y4000694D01*
X-23549506Y4000807D01*
X-23549517Y4000808D01*
X-23549527Y4000807D01*
X-23698188Y4004490D01*
X-23698411Y4004474D01*
X-23698936Y4004490D01*
X-23958976Y4010759D01*
X-24188535Y4061991D01*
X-24403777Y4156838D01*
X-24596491Y4291682D01*
X-24759348Y4461395D01*
X-24886136Y4659503D01*
X-24972031Y4878466D01*
X-25013761Y5109947D01*
X-25009734Y5345124D01*
X-24960106Y5575033D01*
X-24866764Y5790931D01*
X-24733264Y5984587D01*
X-24564697Y6148620D01*
X-24367478Y6276789D01*
X-24149119Y6364210D01*
X-23911139Y6408829D01*
X-23804982Y6413500D01*
X-13817600Y6413500D01*
X-13817600Y4572000D01*
G36*
X11359769Y1811877D02*
G01*
X11433397Y1738249D01*
X11519974Y1680400D01*
X11616173Y1640553D01*
X11718297Y1620240D01*
X11822423Y1620240D01*
X11924547Y1640553D01*
X11971084Y1659829D01*
X11866960Y1408451D01*
X11681400Y475576D01*
X11681400Y-475576D01*
X11866960Y-1408451D01*
X12178695Y-2161045D01*
X11818546Y-1800896D01*
X11808259Y-1788361D01*
X11758223Y-1747298D01*
X11701138Y-1716785D01*
X11639197Y-1697995D01*
X11590915Y-1693240D01*
X11590912Y-1693240D01*
X11574780Y-1691651D01*
X11558648Y-1693240D01*
X10477284Y-1693240D01*
X10463430Y-1691876D01*
X10392963Y-1621409D01*
X10306386Y-1563560D01*
X10210187Y-1523713D01*
X10108063Y-1503400D01*
X10003937Y-1503400D01*
X9901813Y-1523713D01*
X9805614Y-1563560D01*
X9719037Y-1621409D01*
X9645409Y-1695037D01*
X9609852Y-1748252D01*
X9598293Y-1690142D01*
X9542766Y-1556089D01*
X9462155Y-1435445D01*
X9359555Y-1332845D01*
X9265500Y-1270000D01*
X9359555Y-1207155D01*
X9462155Y-1104555D01*
X9542766Y-983911D01*
X9598293Y-849858D01*
X9626600Y-707549D01*
X9626600Y-562451D01*
X9605346Y-455601D01*
X9615547Y-455601D01*
X9631679Y-457190D01*
X9647811Y-455601D01*
X9647814Y-455601D01*
X9696096Y-450846D01*
X9758037Y-432056D01*
X9815122Y-401543D01*
X9865158Y-360480D01*
X9875445Y-347945D01*
X10670510Y447119D01*
X10683039Y457401D01*
X10697955Y475576D01*
X10724102Y507436D01*
X10754614Y564521D01*
X10754615Y564522D01*
X10773405Y626463D01*
X10778160Y674745D01*
X10778160Y674754D01*
X10779748Y690879D01*
X10778160Y707004D01*
X10778160Y1756190D01*
X10842211Y1820240D01*
X11354181Y1820240D01*
X11359769Y1811877D01*
X11359769Y1811877D01*
G37*
X11359769Y1811877D02*
X11433397Y1738249D01*
X11519974Y1680400D01*
X11616173Y1640553D01*
X11718297Y1620240D01*
X11822423Y1620240D01*
X11924547Y1640553D01*
X11971084Y1659829D01*
X11866960Y1408451D01*
X11681400Y475576D01*
X11681400Y-475576D01*
X11866960Y-1408451D01*
X12178695Y-2161045D01*
X11818546Y-1800896D01*
X11808259Y-1788361D01*
X11758223Y-1747298D01*
X11701138Y-1716785D01*
X11639197Y-1697995D01*
X11590915Y-1693240D01*
X11590912Y-1693240D01*
X11574780Y-1691651D01*
X11558648Y-1693240D01*
X10477284Y-1693240D01*
X10463430Y-1691876D01*
X10392963Y-1621409D01*
X10306386Y-1563560D01*
X10210187Y-1523713D01*
X10108063Y-1503400D01*
X10003937Y-1503400D01*
X9901813Y-1523713D01*
X9805614Y-1563560D01*
X9719037Y-1621409D01*
X9645409Y-1695037D01*
X9609852Y-1748252D01*
X9598293Y-1690142D01*
X9542766Y-1556089D01*
X9462155Y-1435445D01*
X9359555Y-1332845D01*
X9265500Y-1270000D01*
X9359555Y-1207155D01*
X9462155Y-1104555D01*
X9542766Y-983911D01*
X9598293Y-849858D01*
X9626600Y-707549D01*
X9626600Y-562451D01*
X9605346Y-455601D01*
X9615547Y-455601D01*
X9631679Y-457190D01*
X9647811Y-455601D01*
X9647814Y-455601D01*
X9696096Y-450846D01*
X9758037Y-432056D01*
X9815122Y-401543D01*
X9865158Y-360480D01*
X9875445Y-347945D01*
X10670510Y447119D01*
X10683039Y457401D01*
X10697955Y475576D01*
X10724102Y507436D01*
X10754614Y564521D01*
X10754615Y564522D01*
X10773405Y626463D01*
X10778160Y674745D01*
X10778160Y674754D01*
X10779748Y690879D01*
X10778160Y707004D01*
X10778160Y1756190D01*
X10842211Y1820240D01*
X11354181Y1820240D01*
X11359769Y1811877D01*
G36*
X-9331739Y6265010D02*
G01*
X-9567010Y6029739D01*
X-9751861Y5753089D01*
X-9879189Y5445692D01*
X-9944100Y5119362D01*
X-9944100Y4786638D01*
X-9879189Y4460308D01*
X-9751861Y4152911D01*
X-9567010Y3876261D01*
X-9331739Y3640990D01*
X-9055089Y3456139D01*
X-8747692Y3328811D01*
X-8421362Y3263900D01*
X-8088638Y3263900D01*
X-7762308Y3328811D01*
X-7454911Y3456139D01*
X-7178261Y3640990D01*
X-6942990Y3876261D01*
X-6758139Y4152911D01*
X-6630811Y4460308D01*
X-6565900Y4786638D01*
X-6565900Y5119362D01*
X-6630811Y5445692D01*
X-6758139Y5753089D01*
X-6942990Y6029739D01*
X-7178261Y6265010D01*
X-7400493Y6413500D01*
X-2870200Y6413500D01*
X-2870200Y4730564D01*
X-5111564Y2489200D01*
X-7168472Y2489200D01*
X-7271089Y2557766D01*
X-7405142Y2613293D01*
X-7547451Y2641600D01*
X-7692549Y2641600D01*
X-7834858Y2613293D01*
X-7968911Y2557766D01*
X-8071528Y2489200D01*
X-8438472Y2489200D01*
X-8541089Y2557766D01*
X-8675142Y2613293D01*
X-8817451Y2641600D01*
X-8962549Y2641600D01*
X-9104858Y2613293D01*
X-9238911Y2557766D01*
X-9341528Y2489200D01*
X-11398436Y2489200D01*
X-13512800Y4603564D01*
X-13512800Y6413500D01*
X-9109507Y6413500D01*
X-9331739Y6265010D01*
X-9331739Y6265010D01*
G37*
X-9331739Y6265010D02*
X-9567010Y6029739D01*
X-9751861Y5753089D01*
X-9879189Y5445692D01*
X-9944100Y5119362D01*
X-9944100Y4786638D01*
X-9879189Y4460308D01*
X-9751861Y4152911D01*
X-9567010Y3876261D01*
X-9331739Y3640990D01*
X-9055089Y3456139D01*
X-8747692Y3328811D01*
X-8421362Y3263900D01*
X-8088638Y3263900D01*
X-7762308Y3328811D01*
X-7454911Y3456139D01*
X-7178261Y3640990D01*
X-6942990Y3876261D01*
X-6758139Y4152911D01*
X-6630811Y4460308D01*
X-6565900Y4786638D01*
X-6565900Y5119362D01*
X-6630811Y5445692D01*
X-6758139Y5753089D01*
X-6942990Y6029739D01*
X-7178261Y6265010D01*
X-7400493Y6413500D01*
X-2870200Y6413500D01*
X-2870200Y4730564D01*
X-5111564Y2489200D01*
X-7168472Y2489200D01*
X-7271089Y2557766D01*
X-7405142Y2613293D01*
X-7547451Y2641600D01*
X-7692549Y2641600D01*
X-7834858Y2613293D01*
X-7968911Y2557766D01*
X-8071528Y2489200D01*
X-8438472Y2489200D01*
X-8541089Y2557766D01*
X-8675142Y2613293D01*
X-8817451Y2641600D01*
X-8962549Y2641600D01*
X-9104858Y2613293D01*
X-9238911Y2557766D01*
X-9341528Y2489200D01*
X-11398436Y2489200D01*
X-13512800Y4603564D01*
X-13512800Y6413500D01*
X-9109507Y6413500D01*
X-9331739Y6265010D01*
G36*
X7271089Y-2557766D02*
G01*
X7405142Y-2613293D01*
X7547451Y-2641600D01*
X7692549Y-2641600D01*
X7834858Y-2613293D01*
X7968911Y-2557766D01*
X8071528Y-2489200D01*
X8438472Y-2489200D01*
X8541089Y-2557766D01*
X8675142Y-2613293D01*
X8817451Y-2641600D01*
X8962549Y-2641600D01*
X9104858Y-2613293D01*
X9238911Y-2557766D01*
X9341528Y-2489200D01*
X9788792Y-2489200D01*
X9805614Y-2500440D01*
X9901813Y-2540287D01*
X10003937Y-2560600D01*
X10108063Y-2560600D01*
X10210187Y-2540287D01*
X10306386Y-2500440D01*
X10323208Y-2489200D01*
X11398436Y-2489200D01*
X13512800Y-4603564D01*
X13512800Y-6413500D01*
X9109507Y-6413500D01*
X9331739Y-6265010D01*
X9567010Y-6029739D01*
X9751861Y-5753089D01*
X9879189Y-5445692D01*
X9944100Y-5119362D01*
X9944100Y-4786638D01*
X9879189Y-4460308D01*
X9751861Y-4152911D01*
X9567010Y-3876261D01*
X9331739Y-3640990D01*
X9055089Y-3456139D01*
X8747692Y-3328811D01*
X8421362Y-3263900D01*
X8088638Y-3263900D01*
X7762308Y-3328811D01*
X7454911Y-3456139D01*
X7178261Y-3640990D01*
X6942990Y-3876261D01*
X6758139Y-4152911D01*
X6630811Y-4460308D01*
X6565900Y-4786638D01*
X6565900Y-5119362D01*
X6630811Y-5445692D01*
X6758139Y-5753089D01*
X6942990Y-6029739D01*
X7178261Y-6265010D01*
X7400493Y-6413500D01*
X2870200Y-6413500D01*
X2870200Y-4730564D01*
X5111564Y-2489200D01*
X7168472Y-2489200D01*
X7271089Y-2557766D01*
X7271089Y-2557766D01*
G37*
X7271089Y-2557766D02*
X7405142Y-2613293D01*
X7547451Y-2641600D01*
X7692549Y-2641600D01*
X7834858Y-2613293D01*
X7968911Y-2557766D01*
X8071528Y-2489200D01*
X8438472Y-2489200D01*
X8541089Y-2557766D01*
X8675142Y-2613293D01*
X8817451Y-2641600D01*
X8962549Y-2641600D01*
X9104858Y-2613293D01*
X9238911Y-2557766D01*
X9341528Y-2489200D01*
X9788792Y-2489200D01*
X9805614Y-2500440D01*
X9901813Y-2540287D01*
X10003937Y-2560600D01*
X10108063Y-2560600D01*
X10210187Y-2540287D01*
X10306386Y-2500440D01*
X10323208Y-2489200D01*
X11398436Y-2489200D01*
X13512800Y-4603564D01*
X13512800Y-6413500D01*
X9109507Y-6413500D01*
X9331739Y-6265010D01*
X9567010Y-6029739D01*
X9751861Y-5753089D01*
X9879189Y-5445692D01*
X9944100Y-5119362D01*
X9944100Y-4786638D01*
X9879189Y-4460308D01*
X9751861Y-4152911D01*
X9567010Y-3876261D01*
X9331739Y-3640990D01*
X9055089Y-3456139D01*
X8747692Y-3328811D01*
X8421362Y-3263900D01*
X8088638Y-3263900D01*
X7762308Y-3328811D01*
X7454911Y-3456139D01*
X7178261Y-3640990D01*
X6942990Y-3876261D01*
X6758139Y-4152911D01*
X6630811Y-4460308D01*
X6565900Y-4786638D01*
X6565900Y-5119362D01*
X6630811Y-5445692D01*
X6758139Y-5753089D01*
X6942990Y-6029739D01*
X7178261Y-6265010D01*
X7400493Y-6413500D01*
X2870200Y-6413500D01*
X2870200Y-4730564D01*
X5111564Y-2489200D01*
X7168472Y-2489200D01*
X7271089Y-2557766D01*
G36*
X-6426200Y984436D02*
G01*
X-6426200Y-6413500D01*
X-23799449Y-6413500D01*
X-24046977Y-6389146D01*
X-24272129Y-6321087D01*
X-24479766Y-6210596D01*
X-24661992Y-6061876D01*
X-24811860Y-5880595D01*
X-24923662Y-5673655D01*
X-24993142Y-5448937D01*
X-25017650Y-5215014D01*
X-24996254Y-4980779D01*
X-24929769Y-4755161D01*
X-24820728Y-4546754D01*
X-24673284Y-4363496D01*
X-24493057Y-4212368D01*
X-24286899Y-4099121D01*
X-24062680Y-4028077D01*
X-23822052Y-4001167D01*
X-23712678Y-4004450D01*
X-23712535Y-4004440D01*
X-23651689Y-4006439D01*
X-23635983Y-4005418D01*
X-23620244Y-4005523D01*
X-23616714Y-4005176D01*
X-23468818Y-3989581D01*
X-23446193Y-3984929D01*
X-23423658Y-3980622D01*
X-23420265Y-3979598D01*
X-23420259Y-3979596D01*
X-23278212Y-3935573D01*
X-23256934Y-3926620D01*
X-23235652Y-3918014D01*
X-23232529Y-3916352D01*
X-23232519Y-3916348D01*
X-23232511Y-3916343D01*
X-23101727Y-3845572D01*
X-23082619Y-3832675D01*
X-23063384Y-3820079D01*
X-23060636Y-3817837D01*
X-22946081Y-3723003D01*
X-22929839Y-3706637D01*
X-22913423Y-3690550D01*
X-22911163Y-3687817D01*
X-22817208Y-3572540D01*
X-22804442Y-3553312D01*
X-22791474Y-3534359D01*
X-22789788Y-3531240D01*
X-22720014Y-3399908D01*
X-22711215Y-3378539D01*
X-22702187Y-3357457D01*
X-22701139Y-3354069D01*
X-22658203Y-3211685D01*
X-22653723Y-3189024D01*
X-22648961Y-3166582D01*
X-22648592Y-3163064D01*
X-22648590Y-3163054D01*
X-22648590Y-3163045D01*
X-22636607Y-3040411D01*
X-22636600Y-3040389D01*
X-22632924Y-3003065D01*
X-22632924Y-2743200D01*
X-20484361Y-2743200D01*
X-20260619Y-3078053D01*
X-19588053Y-3750619D01*
X-18797200Y-4279050D01*
X-17918451Y-4643040D01*
X-16985576Y-4828600D01*
X-16034424Y-4828600D01*
X-15101549Y-4643040D01*
X-14222800Y-4279050D01*
X-13431947Y-3750619D01*
X-12759381Y-3078053D01*
X-12535639Y-2743200D01*
X-12094189Y-2743200D01*
X-13359033Y-4008045D01*
X-13368921Y-4008045D01*
X-13471045Y-4028358D01*
X-13567244Y-4068205D01*
X-13653821Y-4126054D01*
X-13727449Y-4199682D01*
X-13785298Y-4286259D01*
X-13825145Y-4382458D01*
X-13845458Y-4484582D01*
X-13845458Y-4588708D01*
X-13825145Y-4690832D01*
X-13785298Y-4787031D01*
X-13727449Y-4873608D01*
X-13653821Y-4947236D01*
X-13567244Y-5005085D01*
X-13471045Y-5044932D01*
X-13368921Y-5065245D01*
X-13264795Y-5065245D01*
X-13162671Y-5044932D01*
X-13066472Y-5005085D01*
X-12979895Y-4947236D01*
X-12906267Y-4873608D01*
X-12848418Y-4787031D01*
X-12808571Y-4690832D01*
X-12788258Y-4588708D01*
X-12788258Y-4578820D01*
X-10952637Y-2743200D01*
X-8890000Y-2743200D01*
X-8875134Y-2741736D01*
X-8860840Y-2737400D01*
X-8847666Y-2730358D01*
X-8836118Y-2720882D01*
X-8328118Y-2212882D01*
X-8318642Y-2201334D01*
X-8311600Y-2188160D01*
X-8307264Y-2173866D01*
X-8305800Y-2159000D01*
X-8305800Y-1086528D01*
X-8237234Y-983911D01*
X-8181707Y-849858D01*
X-8153400Y-707549D01*
X-8153400Y-562451D01*
X-8181707Y-420142D01*
X-8237234Y-286089D01*
X-8305800Y-183472D01*
X-8305800Y183472D01*
X-8255000Y259500D01*
X-8192155Y165445D01*
X-8089555Y62845D01*
X-7968911Y-17766D01*
X-7834858Y-73293D01*
X-7692549Y-101600D01*
X-7547451Y-101600D01*
X-7405142Y-73293D01*
X-7271089Y-17766D01*
X-7150445Y62845D01*
X-7047845Y165445D01*
X-6967234Y286089D01*
X-6911707Y420142D01*
X-6883400Y562451D01*
X-6883400Y707549D01*
X-6911707Y849858D01*
X-6967234Y983911D01*
X-7047845Y1104555D01*
X-7150445Y1207155D01*
X-7244500Y1270000D01*
X-7168472Y1320800D01*
X-6762564Y1320800D01*
X-6426200Y984436D01*
X-6426200Y984436D01*
G37*
X-6426200Y984436D02*
X-6426200Y-6413500D01*
X-23799449Y-6413500D01*
X-24046977Y-6389146D01*
X-24272129Y-6321087D01*
X-24479766Y-6210596D01*
X-24661992Y-6061876D01*
X-24811860Y-5880595D01*
X-24923662Y-5673655D01*
X-24993142Y-5448937D01*
X-25017650Y-5215014D01*
X-24996254Y-4980779D01*
X-24929769Y-4755161D01*
X-24820728Y-4546754D01*
X-24673284Y-4363496D01*
X-24493057Y-4212368D01*
X-24286899Y-4099121D01*
X-24062680Y-4028077D01*
X-23822052Y-4001167D01*
X-23712678Y-4004450D01*
X-23712535Y-4004440D01*
X-23651689Y-4006439D01*
X-23635983Y-4005418D01*
X-23620244Y-4005523D01*
X-23616714Y-4005176D01*
X-23468818Y-3989581D01*
X-23446193Y-3984929D01*
X-23423658Y-3980622D01*
X-23420265Y-3979598D01*
X-23420259Y-3979596D01*
X-23278212Y-3935573D01*
X-23256934Y-3926620D01*
X-23235652Y-3918014D01*
X-23232529Y-3916352D01*
X-23232519Y-3916348D01*
X-23232511Y-3916343D01*
X-23101727Y-3845572D01*
X-23082619Y-3832675D01*
X-23063384Y-3820079D01*
X-23060636Y-3817837D01*
X-22946081Y-3723003D01*
X-22929839Y-3706637D01*
X-22913423Y-3690550D01*
X-22911163Y-3687817D01*
X-22817208Y-3572540D01*
X-22804442Y-3553312D01*
X-22791474Y-3534359D01*
X-22789788Y-3531240D01*
X-22720014Y-3399908D01*
X-22711215Y-3378539D01*
X-22702187Y-3357457D01*
X-22701139Y-3354069D01*
X-22658203Y-3211685D01*
X-22653723Y-3189024D01*
X-22648961Y-3166582D01*
X-22648592Y-3163064D01*
X-22648590Y-3163054D01*
X-22648590Y-3163045D01*
X-22636607Y-3040411D01*
X-22636600Y-3040389D01*
X-22632924Y-3003065D01*
X-22632924Y-2743200D01*
X-20484361Y-2743200D01*
X-20260619Y-3078053D01*
X-19588053Y-3750619D01*
X-18797200Y-4279050D01*
X-17918451Y-4643040D01*
X-16985576Y-4828600D01*
X-16034424Y-4828600D01*
X-15101549Y-4643040D01*
X-14222800Y-4279050D01*
X-13431947Y-3750619D01*
X-12759381Y-3078053D01*
X-12535639Y-2743200D01*
X-12094189Y-2743200D01*
X-13359033Y-4008045D01*
X-13368921Y-4008045D01*
X-13471045Y-4028358D01*
X-13567244Y-4068205D01*
X-13653821Y-4126054D01*
X-13727449Y-4199682D01*
X-13785298Y-4286259D01*
X-13825145Y-4382458D01*
X-13845458Y-4484582D01*
X-13845458Y-4588708D01*
X-13825145Y-4690832D01*
X-13785298Y-4787031D01*
X-13727449Y-4873608D01*
X-13653821Y-4947236D01*
X-13567244Y-5005085D01*
X-13471045Y-5044932D01*
X-13368921Y-5065245D01*
X-13264795Y-5065245D01*
X-13162671Y-5044932D01*
X-13066472Y-5005085D01*
X-12979895Y-4947236D01*
X-12906267Y-4873608D01*
X-12848418Y-4787031D01*
X-12808571Y-4690832D01*
X-12788258Y-4588708D01*
X-12788258Y-4578820D01*
X-10952637Y-2743200D01*
X-8890000Y-2743200D01*
X-8875134Y-2741736D01*
X-8860840Y-2737400D01*
X-8847666Y-2730358D01*
X-8836118Y-2720882D01*
X-8328118Y-2212882D01*
X-8318642Y-2201334D01*
X-8311600Y-2188160D01*
X-8307264Y-2173866D01*
X-8305800Y-2159000D01*
X-8305800Y-1086528D01*
X-8237234Y-983911D01*
X-8181707Y-849858D01*
X-8153400Y-707549D01*
X-8153400Y-562451D01*
X-8181707Y-420142D01*
X-8237234Y-286089D01*
X-8305800Y-183472D01*
X-8305800Y183472D01*
X-8255000Y259500D01*
X-8192155Y165445D01*
X-8089555Y62845D01*
X-7968911Y-17766D01*
X-7834858Y-73293D01*
X-7692549Y-101600D01*
X-7547451Y-101600D01*
X-7405142Y-73293D01*
X-7271089Y-17766D01*
X-7150445Y62845D01*
X-7047845Y165445D01*
X-6967234Y286089D01*
X-6911707Y420142D01*
X-6883400Y562451D01*
X-6883400Y707549D01*
X-6911707Y849858D01*
X-6967234Y983911D01*
X-7047845Y1104555D01*
X-7150445Y1207155D01*
X-7244500Y1270000D01*
X-7168472Y1320800D01*
X-6762564Y1320800D01*
X-6426200Y984436D01*
G36*
X22500490Y6283739D02*
G01*
X22315639Y6007089D01*
X22188311Y5699692D01*
X22123400Y5373362D01*
X22123400Y5040638D01*
X22188311Y4714308D01*
X22315639Y4406911D01*
X22500490Y4130261D01*
X22735761Y3894990D01*
X22967107Y3740410D01*
X22946080Y3723003D01*
X22929824Y3706622D01*
X22913422Y3690550D01*
X22911168Y3687823D01*
X22911161Y3687816D01*
X22911156Y3687808D01*
X22817208Y3572539D01*
X22804438Y3553306D01*
X22791474Y3534359D01*
X22789794Y3531250D01*
X22789788Y3531241D01*
X22789784Y3531232D01*
X22720014Y3399908D01*
X22711225Y3378563D01*
X22702187Y3357457D01*
X22701139Y3354069D01*
X22658203Y3211685D01*
X22653723Y3189024D01*
X22648961Y3166582D01*
X22648592Y3163064D01*
X22648590Y3163054D01*
X22648590Y3163045D01*
X22636607Y3040410D01*
X22636600Y3040388D01*
X22632924Y3003064D01*
X22632924Y2714158D01*
X20503766Y2714158D01*
X20260619Y3078053D01*
X19588053Y3750619D01*
X18797200Y4279050D01*
X17918451Y4643040D01*
X16985576Y4828600D01*
X16034424Y4828600D01*
X15101549Y4643040D01*
X14222800Y4279050D01*
X13431947Y3750619D01*
X12759381Y3078053D01*
X12516234Y2714158D01*
X10795000Y2714158D01*
X10780134Y2712694D01*
X10765840Y2708358D01*
X10752666Y2701316D01*
X10741118Y2691840D01*
X10106118Y2056840D01*
X10096642Y2045292D01*
X10089600Y2032118D01*
X10085264Y2017824D01*
X10083800Y2002958D01*
X10083800Y789831D01*
X9495569Y201599D01*
X9414130Y201599D01*
X9397998Y203188D01*
X9381866Y201599D01*
X9381864Y201599D01*
X9333582Y196844D01*
X9271641Y178054D01*
X9214555Y147541D01*
X9177052Y116763D01*
X9164520Y106478D01*
X9154237Y93948D01*
X9125169Y64880D01*
X9104858Y73293D01*
X8962549Y101600D01*
X8817451Y101600D01*
X8675142Y73293D01*
X8651303Y63419D01*
X8318419Y396303D01*
X8328293Y420142D01*
X8356600Y562451D01*
X8356600Y707549D01*
X8328293Y849858D01*
X8272766Y983911D01*
X8192155Y1104555D01*
X8089555Y1207155D01*
X7968911Y1287766D01*
X7834858Y1343293D01*
X7692549Y1371600D01*
X7547451Y1371600D01*
X7405142Y1343293D01*
X7381303Y1333419D01*
X7188200Y1526522D01*
X7188200Y2225394D01*
X8159564Y3196758D01*
X8636000Y3196758D01*
X8650866Y3198222D01*
X8665160Y3202558D01*
X8678334Y3209600D01*
X8689882Y3219076D01*
X8699358Y3230624D01*
X8706400Y3243798D01*
X8710736Y3258092D01*
X8712200Y3272958D01*
X8712200Y3321751D01*
X8747692Y3328811D01*
X9055089Y3456139D01*
X9331739Y3640990D01*
X9567010Y3876261D01*
X9751861Y4152911D01*
X9794463Y4255763D01*
X10235920Y4255763D01*
X10235920Y4151637D01*
X10256233Y4049513D01*
X10296080Y3953314D01*
X10353929Y3866737D01*
X10427557Y3793109D01*
X10514134Y3735260D01*
X10610333Y3695413D01*
X10712457Y3675100D01*
X10816583Y3675100D01*
X10833364Y3678438D01*
X10866613Y3660666D01*
X10887082Y3649725D01*
X10949023Y3630935D01*
X10997305Y3626180D01*
X10997307Y3626180D01*
X11013439Y3624591D01*
X11029571Y3626180D01*
X11918061Y3626180D01*
X11923649Y3617817D01*
X11997277Y3544189D01*
X12083854Y3486340D01*
X12180053Y3446493D01*
X12282177Y3426180D01*
X12386303Y3426180D01*
X12488427Y3446493D01*
X12584626Y3486340D01*
X12671203Y3544189D01*
X12744831Y3617817D01*
X12802680Y3704394D01*
X12842527Y3800593D01*
X12862840Y3902717D01*
X12862840Y4006843D01*
X12842527Y4108967D01*
X12802680Y4205166D01*
X12744831Y4291743D01*
X12671203Y4365371D01*
X12584626Y4423220D01*
X12488427Y4463067D01*
X12386303Y4483380D01*
X12282177Y4483380D01*
X12180053Y4463067D01*
X12083854Y4423220D01*
X11997277Y4365371D01*
X11923649Y4291743D01*
X11918061Y4283380D01*
X11287627Y4283380D01*
X11272807Y4357887D01*
X11232960Y4454086D01*
X11175111Y4540663D01*
X11101483Y4614291D01*
X11014906Y4672140D01*
X10918707Y4711987D01*
X10816583Y4732300D01*
X10712457Y4732300D01*
X10610333Y4711987D01*
X10514134Y4672140D01*
X10427557Y4614291D01*
X10353929Y4540663D01*
X10296080Y4454086D01*
X10256233Y4357887D01*
X10235920Y4255763D01*
X9794463Y4255763D01*
X9879189Y4460308D01*
X9944100Y4786638D01*
X9944100Y5119362D01*
X9879189Y5445692D01*
X9751861Y5753089D01*
X9567010Y6029739D01*
X9331739Y6265010D01*
X9109507Y6413500D01*
X22630251Y6413500D01*
X22500490Y6283739D01*
X22500490Y6283739D01*
G37*
X22500490Y6283739D02*
X22315639Y6007089D01*
X22188311Y5699692D01*
X22123400Y5373362D01*
X22123400Y5040638D01*
X22188311Y4714308D01*
X22315639Y4406911D01*
X22500490Y4130261D01*
X22735761Y3894990D01*
X22967107Y3740410D01*
X22946080Y3723003D01*
X22929824Y3706622D01*
X22913422Y3690550D01*
X22911168Y3687823D01*
X22911161Y3687816D01*
X22911156Y3687808D01*
X22817208Y3572539D01*
X22804438Y3553306D01*
X22791474Y3534359D01*
X22789794Y3531250D01*
X22789788Y3531241D01*
X22789784Y3531232D01*
X22720014Y3399908D01*
X22711225Y3378563D01*
X22702187Y3357457D01*
X22701139Y3354069D01*
X22658203Y3211685D01*
X22653723Y3189024D01*
X22648961Y3166582D01*
X22648592Y3163064D01*
X22648590Y3163054D01*
X22648590Y3163045D01*
X22636607Y3040410D01*
X22636600Y3040388D01*
X22632924Y3003064D01*
X22632924Y2714158D01*
X20503766Y2714158D01*
X20260619Y3078053D01*
X19588053Y3750619D01*
X18797200Y4279050D01*
X17918451Y4643040D01*
X16985576Y4828600D01*
X16034424Y4828600D01*
X15101549Y4643040D01*
X14222800Y4279050D01*
X13431947Y3750619D01*
X12759381Y3078053D01*
X12516234Y2714158D01*
X10795000Y2714158D01*
X10780134Y2712694D01*
X10765840Y2708358D01*
X10752666Y2701316D01*
X10741118Y2691840D01*
X10106118Y2056840D01*
X10096642Y2045292D01*
X10089600Y2032118D01*
X10085264Y2017824D01*
X10083800Y2002958D01*
X10083800Y789831D01*
X9495569Y201599D01*
X9414130Y201599D01*
X9397998Y203188D01*
X9381866Y201599D01*
X9381864Y201599D01*
X9333582Y196844D01*
X9271641Y178054D01*
X9214555Y147541D01*
X9177052Y116763D01*
X9164520Y106478D01*
X9154237Y93948D01*
X9125169Y64880D01*
X9104858Y73293D01*
X8962549Y101600D01*
X8817451Y101600D01*
X8675142Y73293D01*
X8651303Y63419D01*
X8318419Y396303D01*
X8328293Y420142D01*
X8356600Y562451D01*
X8356600Y707549D01*
X8328293Y849858D01*
X8272766Y983911D01*
X8192155Y1104555D01*
X8089555Y1207155D01*
X7968911Y1287766D01*
X7834858Y1343293D01*
X7692549Y1371600D01*
X7547451Y1371600D01*
X7405142Y1343293D01*
X7381303Y1333419D01*
X7188200Y1526522D01*
X7188200Y2225394D01*
X8159564Y3196758D01*
X8636000Y3196758D01*
X8650866Y3198222D01*
X8665160Y3202558D01*
X8678334Y3209600D01*
X8689882Y3219076D01*
X8699358Y3230624D01*
X8706400Y3243798D01*
X8710736Y3258092D01*
X8712200Y3272958D01*
X8712200Y3321751D01*
X8747692Y3328811D01*
X9055089Y3456139D01*
X9331739Y3640990D01*
X9567010Y3876261D01*
X9751861Y4152911D01*
X9794463Y4255763D01*
X10235920Y4255763D01*
X10235920Y4151637D01*
X10256233Y4049513D01*
X10296080Y3953314D01*
X10353929Y3866737D01*
X10427557Y3793109D01*
X10514134Y3735260D01*
X10610333Y3695413D01*
X10712457Y3675100D01*
X10816583Y3675100D01*
X10833364Y3678438D01*
X10866613Y3660666D01*
X10887082Y3649725D01*
X10949023Y3630935D01*
X10997305Y3626180D01*
X10997307Y3626180D01*
X11013439Y3624591D01*
X11029571Y3626180D01*
X11918061Y3626180D01*
X11923649Y3617817D01*
X11997277Y3544189D01*
X12083854Y3486340D01*
X12180053Y3446493D01*
X12282177Y3426180D01*
X12386303Y3426180D01*
X12488427Y3446493D01*
X12584626Y3486340D01*
X12671203Y3544189D01*
X12744831Y3617817D01*
X12802680Y3704394D01*
X12842527Y3800593D01*
X12862840Y3902717D01*
X12862840Y4006843D01*
X12842527Y4108967D01*
X12802680Y4205166D01*
X12744831Y4291743D01*
X12671203Y4365371D01*
X12584626Y4423220D01*
X12488427Y4463067D01*
X12386303Y4483380D01*
X12282177Y4483380D01*
X12180053Y4463067D01*
X12083854Y4423220D01*
X11997277Y4365371D01*
X11923649Y4291743D01*
X11918061Y4283380D01*
X11287627Y4283380D01*
X11272807Y4357887D01*
X11232960Y4454086D01*
X11175111Y4540663D01*
X11101483Y4614291D01*
X11014906Y4672140D01*
X10918707Y4711987D01*
X10816583Y4732300D01*
X10712457Y4732300D01*
X10610333Y4711987D01*
X10514134Y4672140D01*
X10427557Y4614291D01*
X10353929Y4540663D01*
X10296080Y4454086D01*
X10256233Y4357887D01*
X10235920Y4255763D01*
X9794463Y4255763D01*
X9879189Y4460308D01*
X9944100Y4786638D01*
X9944100Y5119362D01*
X9879189Y5445692D01*
X9751861Y5753089D01*
X9567010Y6029739D01*
X9331739Y6265010D01*
X9109507Y6413500D01*
X22630251Y6413500D01*
X22500490Y6283739D01*
M02*
