M48
; DRILL file {KiCad (5.1.4)-1} date 12/23/2019 12:12:07 PM
; FORMAT={2:4/ absolute / inch / suppress leading zeros}
; #@! TF.CreationDate,2019-12-23T12:12:07-10:00
; #@! TF.GenerationSoftware,Kicad,Pcbnew,(5.1.4)-1
FMAT,2
INCH,TZ
T1C0.0118
T2C0.0240
T3C0.0606
T4C0.0650
T5C0.3622
%
G90
G05
T1
X-7330Y-2280
X-5243Y-1786
X-4994Y-2313
X-4598Y743
X-4101Y-1677
X-4075Y-100
X-3925Y744
X-1848Y839
X-797Y1918
X821Y-1922
X1888Y-730
X3959Y-800
X4075Y-310
X4169Y1248
X4238Y1655
X4579Y-565
X4634Y846
X4856Y1557
X4938Y2078
X5562Y-2218
X5736Y1996
X5930Y-2090
X6504Y2069
X7289Y2005
T2
X-3500Y750
X-3500Y250
X-3500Y-250
X-3500Y-750
X-3000Y750
X-3000Y250
X-3000Y-250
X-3000Y-750
X3000Y750
X3000Y250
X3000Y-250
X3000Y-750
X3500Y750
X3500Y250
X3500Y-250
X3500Y-750
T3
X-8241Y-1741
X-4759Y1741
X-1741Y1741
X1741Y-1741
X4759Y-1741
X8241Y1741
T4
X-9375Y2050
X-3250Y-1950
X3250Y1950
X9375Y-2050
X3250Y-1950
X9375Y2050
X-3250Y1950
X-9375Y-2050
T5
X-6500Y0
X0Y0
X6500Y0
T0
M30
