G04 #@! TF.GenerationSoftware,KiCad,Pcbnew,(5.1.4)-1*
G04 #@! TF.CreationDate,2019-12-23T12:12:04-10:00*
G04 #@! TF.ProjectId,SkateLightLEDBoard,536b6174-654c-4696-9768-744c4544426f,rev?*
G04 #@! TF.SameCoordinates,Original*
G04 #@! TF.FileFunction,Paste,Top*
G04 #@! TF.FilePolarity,Positive*
%FSLAX46Y46*%
G04 Gerber Fmt 4.6, Leading zero omitted, Abs format (unit mm)*
G04 Created by KiCad (PCBNEW (5.1.4)-1) date 2019-12-23 12:12:04*
%MOMM*%
%LPD*%
G04 APERTURE LIST*
%ADD10C,0.800000*%
%ADD11C,0.100000*%
%ADD12C,0.590000*%
%ADD13C,0.875000*%
G04 APERTURE END LIST*
D10*
X-11230893Y-5279107D03*
D11*
G36*
X-11831934Y-5243752D02*
G01*
X-11266248Y-4678066D01*
X-10629852Y-5314462D01*
X-11195538Y-5880148D01*
X-11831934Y-5243752D01*
X-11831934Y-5243752D01*
G37*
D10*
X-13316858Y-4536645D03*
D11*
G36*
X-13917899Y-4501290D02*
G01*
X-13352213Y-3935604D01*
X-12715817Y-4572000D01*
X-13281503Y-5137686D01*
X-13917899Y-4501290D01*
X-13917899Y-4501290D01*
G37*
D10*
X-11973355Y-3193142D03*
D11*
G36*
X-12574396Y-3157787D02*
G01*
X-12008710Y-2592101D01*
X-11372314Y-3228497D01*
X-11938000Y-3794183D01*
X-12574396Y-3157787D01*
X-12574396Y-3157787D01*
G37*
D10*
X11230893Y5152107D03*
D11*
G36*
X11831934Y5116752D02*
G01*
X11266248Y4551066D01*
X10629852Y5187462D01*
X11195538Y5753148D01*
X11831934Y5116752D01*
X11831934Y5116752D01*
G37*
D10*
X13316858Y4409645D03*
D11*
G36*
X13917899Y4374290D02*
G01*
X13352213Y3808604D01*
X12715817Y4445000D01*
X13281503Y5010686D01*
X13917899Y4374290D01*
X13917899Y4374290D01*
G37*
D10*
X11973355Y3066142D03*
D11*
G36*
X12574396Y3030787D02*
G01*
X12008710Y2465101D01*
X11372314Y3101497D01*
X11938000Y3667183D01*
X12574396Y3030787D01*
X12574396Y3030787D01*
G37*
G36*
X-15829742Y-4966450D02*
G01*
X-15815424Y-4968574D01*
X-15801383Y-4972091D01*
X-15787754Y-4976968D01*
X-15774669Y-4983157D01*
X-15762253Y-4990598D01*
X-15750627Y-4999221D01*
X-15739902Y-5008942D01*
X-15730181Y-5019667D01*
X-15721558Y-5031293D01*
X-15714117Y-5043709D01*
X-15707928Y-5056794D01*
X-15703051Y-5070423D01*
X-15699534Y-5084464D01*
X-15697410Y-5098782D01*
X-15696700Y-5113240D01*
X-15696700Y-5458240D01*
X-15697410Y-5472698D01*
X-15699534Y-5487016D01*
X-15703051Y-5501057D01*
X-15707928Y-5514686D01*
X-15714117Y-5527771D01*
X-15721558Y-5540187D01*
X-15730181Y-5551813D01*
X-15739902Y-5562538D01*
X-15750627Y-5572259D01*
X-15762253Y-5580882D01*
X-15774669Y-5588323D01*
X-15787754Y-5594512D01*
X-15801383Y-5599389D01*
X-15815424Y-5602906D01*
X-15829742Y-5605030D01*
X-15844200Y-5605740D01*
X-16139200Y-5605740D01*
X-16153658Y-5605030D01*
X-16167976Y-5602906D01*
X-16182017Y-5599389D01*
X-16195646Y-5594512D01*
X-16208731Y-5588323D01*
X-16221147Y-5580882D01*
X-16232773Y-5572259D01*
X-16243498Y-5562538D01*
X-16253219Y-5551813D01*
X-16261842Y-5540187D01*
X-16269283Y-5527771D01*
X-16275472Y-5514686D01*
X-16280349Y-5501057D01*
X-16283866Y-5487016D01*
X-16285990Y-5472698D01*
X-16286700Y-5458240D01*
X-16286700Y-5113240D01*
X-16285990Y-5098782D01*
X-16283866Y-5084464D01*
X-16280349Y-5070423D01*
X-16275472Y-5056794D01*
X-16269283Y-5043709D01*
X-16261842Y-5031293D01*
X-16253219Y-5019667D01*
X-16243498Y-5008942D01*
X-16232773Y-4999221D01*
X-16221147Y-4990598D01*
X-16208731Y-4983157D01*
X-16195646Y-4976968D01*
X-16182017Y-4972091D01*
X-16167976Y-4968574D01*
X-16153658Y-4966450D01*
X-16139200Y-4965740D01*
X-15844200Y-4965740D01*
X-15829742Y-4966450D01*
X-15829742Y-4966450D01*
G37*
D12*
X-15991700Y-5285740D03*
D11*
G36*
X-14859742Y-4966450D02*
G01*
X-14845424Y-4968574D01*
X-14831383Y-4972091D01*
X-14817754Y-4976968D01*
X-14804669Y-4983157D01*
X-14792253Y-4990598D01*
X-14780627Y-4999221D01*
X-14769902Y-5008942D01*
X-14760181Y-5019667D01*
X-14751558Y-5031293D01*
X-14744117Y-5043709D01*
X-14737928Y-5056794D01*
X-14733051Y-5070423D01*
X-14729534Y-5084464D01*
X-14727410Y-5098782D01*
X-14726700Y-5113240D01*
X-14726700Y-5458240D01*
X-14727410Y-5472698D01*
X-14729534Y-5487016D01*
X-14733051Y-5501057D01*
X-14737928Y-5514686D01*
X-14744117Y-5527771D01*
X-14751558Y-5540187D01*
X-14760181Y-5551813D01*
X-14769902Y-5562538D01*
X-14780627Y-5572259D01*
X-14792253Y-5580882D01*
X-14804669Y-5588323D01*
X-14817754Y-5594512D01*
X-14831383Y-5599389D01*
X-14845424Y-5602906D01*
X-14859742Y-5605030D01*
X-14874200Y-5605740D01*
X-15169200Y-5605740D01*
X-15183658Y-5605030D01*
X-15197976Y-5602906D01*
X-15212017Y-5599389D01*
X-15225646Y-5594512D01*
X-15238731Y-5588323D01*
X-15251147Y-5580882D01*
X-15262773Y-5572259D01*
X-15273498Y-5562538D01*
X-15283219Y-5551813D01*
X-15291842Y-5540187D01*
X-15299283Y-5527771D01*
X-15305472Y-5514686D01*
X-15310349Y-5501057D01*
X-15313866Y-5487016D01*
X-15315990Y-5472698D01*
X-15316700Y-5458240D01*
X-15316700Y-5113240D01*
X-15315990Y-5098782D01*
X-15313866Y-5084464D01*
X-15310349Y-5070423D01*
X-15305472Y-5056794D01*
X-15299283Y-5043709D01*
X-15291842Y-5031293D01*
X-15283219Y-5019667D01*
X-15273498Y-5008942D01*
X-15262773Y-4999221D01*
X-15251147Y-4990598D01*
X-15238731Y-4983157D01*
X-15225646Y-4976968D01*
X-15212017Y-4972091D01*
X-15197976Y-4968574D01*
X-15183658Y-4966450D01*
X-15169200Y-4965740D01*
X-14874200Y-4965740D01*
X-14859742Y-4966450D01*
X-14859742Y-4966450D01*
G37*
D12*
X-15021700Y-5285740D03*
D11*
G36*
X-5093702Y352850D02*
G01*
X-5079384Y350726D01*
X-5065343Y347209D01*
X-5051714Y342332D01*
X-5038629Y336143D01*
X-5026213Y328702D01*
X-5014587Y320079D01*
X-5003862Y310358D01*
X-4994141Y299633D01*
X-4985518Y288007D01*
X-4978077Y275591D01*
X-4971888Y262506D01*
X-4967011Y248877D01*
X-4963494Y234836D01*
X-4961370Y220518D01*
X-4960660Y206060D01*
X-4960660Y-88940D01*
X-4961370Y-103398D01*
X-4963494Y-117716D01*
X-4967011Y-131757D01*
X-4971888Y-145386D01*
X-4978077Y-158471D01*
X-4985518Y-170887D01*
X-4994141Y-182513D01*
X-5003862Y-193238D01*
X-5014587Y-202959D01*
X-5026213Y-211582D01*
X-5038629Y-219023D01*
X-5051714Y-225212D01*
X-5065343Y-230089D01*
X-5079384Y-233606D01*
X-5093702Y-235730D01*
X-5108160Y-236440D01*
X-5453160Y-236440D01*
X-5467618Y-235730D01*
X-5481936Y-233606D01*
X-5495977Y-230089D01*
X-5509606Y-225212D01*
X-5522691Y-219023D01*
X-5535107Y-211582D01*
X-5546733Y-202959D01*
X-5557458Y-193238D01*
X-5567179Y-182513D01*
X-5575802Y-170887D01*
X-5583243Y-158471D01*
X-5589432Y-145386D01*
X-5594309Y-131757D01*
X-5597826Y-117716D01*
X-5599950Y-103398D01*
X-5600660Y-88940D01*
X-5600660Y206060D01*
X-5599950Y220518D01*
X-5597826Y234836D01*
X-5594309Y248877D01*
X-5589432Y262506D01*
X-5583243Y275591D01*
X-5575802Y288007D01*
X-5567179Y299633D01*
X-5557458Y310358D01*
X-5546733Y320079D01*
X-5535107Y328702D01*
X-5522691Y336143D01*
X-5509606Y342332D01*
X-5495977Y347209D01*
X-5481936Y350726D01*
X-5467618Y352850D01*
X-5453160Y353560D01*
X-5108160Y353560D01*
X-5093702Y352850D01*
X-5093702Y352850D01*
G37*
D12*
X-5280660Y58560D03*
D11*
G36*
X-5093702Y1322850D02*
G01*
X-5079384Y1320726D01*
X-5065343Y1317209D01*
X-5051714Y1312332D01*
X-5038629Y1306143D01*
X-5026213Y1298702D01*
X-5014587Y1290079D01*
X-5003862Y1280358D01*
X-4994141Y1269633D01*
X-4985518Y1258007D01*
X-4978077Y1245591D01*
X-4971888Y1232506D01*
X-4967011Y1218877D01*
X-4963494Y1204836D01*
X-4961370Y1190518D01*
X-4960660Y1176060D01*
X-4960660Y881060D01*
X-4961370Y866602D01*
X-4963494Y852284D01*
X-4967011Y838243D01*
X-4971888Y824614D01*
X-4978077Y811529D01*
X-4985518Y799113D01*
X-4994141Y787487D01*
X-5003862Y776762D01*
X-5014587Y767041D01*
X-5026213Y758418D01*
X-5038629Y750977D01*
X-5051714Y744788D01*
X-5065343Y739911D01*
X-5079384Y736394D01*
X-5093702Y734270D01*
X-5108160Y733560D01*
X-5453160Y733560D01*
X-5467618Y734270D01*
X-5481936Y736394D01*
X-5495977Y739911D01*
X-5509606Y744788D01*
X-5522691Y750977D01*
X-5535107Y758418D01*
X-5546733Y767041D01*
X-5557458Y776762D01*
X-5567179Y787487D01*
X-5575802Y799113D01*
X-5583243Y811529D01*
X-5589432Y824614D01*
X-5594309Y838243D01*
X-5597826Y852284D01*
X-5599950Y866602D01*
X-5600660Y881060D01*
X-5600660Y1176060D01*
X-5599950Y1190518D01*
X-5597826Y1204836D01*
X-5594309Y1218877D01*
X-5589432Y1232506D01*
X-5583243Y1245591D01*
X-5575802Y1258007D01*
X-5567179Y1269633D01*
X-5557458Y1280358D01*
X-5546733Y1290079D01*
X-5535107Y1298702D01*
X-5522691Y1306143D01*
X-5509606Y1312332D01*
X-5495977Y1317209D01*
X-5481936Y1320726D01*
X-5467618Y1322850D01*
X-5453160Y1323560D01*
X-5108160Y1323560D01*
X-5093702Y1322850D01*
X-5093702Y1322850D01*
G37*
D12*
X-5280660Y1028560D03*
D11*
G36*
X-6109702Y1322850D02*
G01*
X-6095384Y1320726D01*
X-6081343Y1317209D01*
X-6067714Y1312332D01*
X-6054629Y1306143D01*
X-6042213Y1298702D01*
X-6030587Y1290079D01*
X-6019862Y1280358D01*
X-6010141Y1269633D01*
X-6001518Y1258007D01*
X-5994077Y1245591D01*
X-5987888Y1232506D01*
X-5983011Y1218877D01*
X-5979494Y1204836D01*
X-5977370Y1190518D01*
X-5976660Y1176060D01*
X-5976660Y881060D01*
X-5977370Y866602D01*
X-5979494Y852284D01*
X-5983011Y838243D01*
X-5987888Y824614D01*
X-5994077Y811529D01*
X-6001518Y799113D01*
X-6010141Y787487D01*
X-6019862Y776762D01*
X-6030587Y767041D01*
X-6042213Y758418D01*
X-6054629Y750977D01*
X-6067714Y744788D01*
X-6081343Y739911D01*
X-6095384Y736394D01*
X-6109702Y734270D01*
X-6124160Y733560D01*
X-6469160Y733560D01*
X-6483618Y734270D01*
X-6497936Y736394D01*
X-6511977Y739911D01*
X-6525606Y744788D01*
X-6538691Y750977D01*
X-6551107Y758418D01*
X-6562733Y767041D01*
X-6573458Y776762D01*
X-6583179Y787487D01*
X-6591802Y799113D01*
X-6599243Y811529D01*
X-6605432Y824614D01*
X-6610309Y838243D01*
X-6613826Y852284D01*
X-6615950Y866602D01*
X-6616660Y881060D01*
X-6616660Y1176060D01*
X-6615950Y1190518D01*
X-6613826Y1204836D01*
X-6610309Y1218877D01*
X-6605432Y1232506D01*
X-6599243Y1245591D01*
X-6591802Y1258007D01*
X-6583179Y1269633D01*
X-6573458Y1280358D01*
X-6562733Y1290079D01*
X-6551107Y1298702D01*
X-6538691Y1306143D01*
X-6525606Y1312332D01*
X-6511977Y1317209D01*
X-6497936Y1320726D01*
X-6483618Y1322850D01*
X-6469160Y1323560D01*
X-6124160Y1323560D01*
X-6109702Y1322850D01*
X-6109702Y1322850D01*
G37*
D12*
X-6296660Y1028560D03*
D11*
G36*
X-6109702Y352850D02*
G01*
X-6095384Y350726D01*
X-6081343Y347209D01*
X-6067714Y342332D01*
X-6054629Y336143D01*
X-6042213Y328702D01*
X-6030587Y320079D01*
X-6019862Y310358D01*
X-6010141Y299633D01*
X-6001518Y288007D01*
X-5994077Y275591D01*
X-5987888Y262506D01*
X-5983011Y248877D01*
X-5979494Y234836D01*
X-5977370Y220518D01*
X-5976660Y206060D01*
X-5976660Y-88940D01*
X-5977370Y-103398D01*
X-5979494Y-117716D01*
X-5983011Y-131757D01*
X-5987888Y-145386D01*
X-5994077Y-158471D01*
X-6001518Y-170887D01*
X-6010141Y-182513D01*
X-6019862Y-193238D01*
X-6030587Y-202959D01*
X-6042213Y-211582D01*
X-6054629Y-219023D01*
X-6067714Y-225212D01*
X-6081343Y-230089D01*
X-6095384Y-233606D01*
X-6109702Y-235730D01*
X-6124160Y-236440D01*
X-6469160Y-236440D01*
X-6483618Y-235730D01*
X-6497936Y-233606D01*
X-6511977Y-230089D01*
X-6525606Y-225212D01*
X-6538691Y-219023D01*
X-6551107Y-211582D01*
X-6562733Y-202959D01*
X-6573458Y-193238D01*
X-6583179Y-182513D01*
X-6591802Y-170887D01*
X-6599243Y-158471D01*
X-6605432Y-145386D01*
X-6610309Y-131757D01*
X-6613826Y-117716D01*
X-6615950Y-103398D01*
X-6616660Y-88940D01*
X-6616660Y206060D01*
X-6615950Y220518D01*
X-6613826Y234836D01*
X-6610309Y248877D01*
X-6605432Y262506D01*
X-6599243Y275591D01*
X-6591802Y288007D01*
X-6583179Y299633D01*
X-6573458Y310358D01*
X-6562733Y320079D01*
X-6551107Y328702D01*
X-6538691Y336143D01*
X-6525606Y342332D01*
X-6511977Y347209D01*
X-6497936Y350726D01*
X-6483618Y352850D01*
X-6469160Y353560D01*
X-6124160Y353560D01*
X-6109702Y352850D01*
X-6109702Y352850D01*
G37*
D12*
X-6296660Y58560D03*
D11*
G36*
X15224438Y-4989310D02*
G01*
X15238756Y-4991434D01*
X15252797Y-4994951D01*
X15266426Y-4999828D01*
X15279511Y-5006017D01*
X15291927Y-5013458D01*
X15303553Y-5022081D01*
X15314278Y-5031802D01*
X15323999Y-5042527D01*
X15332622Y-5054153D01*
X15340063Y-5066569D01*
X15346252Y-5079654D01*
X15351129Y-5093283D01*
X15354646Y-5107324D01*
X15356770Y-5121642D01*
X15357480Y-5136100D01*
X15357480Y-5481100D01*
X15356770Y-5495558D01*
X15354646Y-5509876D01*
X15351129Y-5523917D01*
X15346252Y-5537546D01*
X15340063Y-5550631D01*
X15332622Y-5563047D01*
X15323999Y-5574673D01*
X15314278Y-5585398D01*
X15303553Y-5595119D01*
X15291927Y-5603742D01*
X15279511Y-5611183D01*
X15266426Y-5617372D01*
X15252797Y-5622249D01*
X15238756Y-5625766D01*
X15224438Y-5627890D01*
X15209980Y-5628600D01*
X14914980Y-5628600D01*
X14900522Y-5627890D01*
X14886204Y-5625766D01*
X14872163Y-5622249D01*
X14858534Y-5617372D01*
X14845449Y-5611183D01*
X14833033Y-5603742D01*
X14821407Y-5595119D01*
X14810682Y-5585398D01*
X14800961Y-5574673D01*
X14792338Y-5563047D01*
X14784897Y-5550631D01*
X14778708Y-5537546D01*
X14773831Y-5523917D01*
X14770314Y-5509876D01*
X14768190Y-5495558D01*
X14767480Y-5481100D01*
X14767480Y-5136100D01*
X14768190Y-5121642D01*
X14770314Y-5107324D01*
X14773831Y-5093283D01*
X14778708Y-5079654D01*
X14784897Y-5066569D01*
X14792338Y-5054153D01*
X14800961Y-5042527D01*
X14810682Y-5031802D01*
X14821407Y-5022081D01*
X14833033Y-5013458D01*
X14845449Y-5006017D01*
X14858534Y-4999828D01*
X14872163Y-4994951D01*
X14886204Y-4991434D01*
X14900522Y-4989310D01*
X14914980Y-4988600D01*
X15209980Y-4988600D01*
X15224438Y-4989310D01*
X15224438Y-4989310D01*
G37*
D12*
X15062480Y-5308600D03*
D11*
G36*
X16194438Y-4989310D02*
G01*
X16208756Y-4991434D01*
X16222797Y-4994951D01*
X16236426Y-4999828D01*
X16249511Y-5006017D01*
X16261927Y-5013458D01*
X16273553Y-5022081D01*
X16284278Y-5031802D01*
X16293999Y-5042527D01*
X16302622Y-5054153D01*
X16310063Y-5066569D01*
X16316252Y-5079654D01*
X16321129Y-5093283D01*
X16324646Y-5107324D01*
X16326770Y-5121642D01*
X16327480Y-5136100D01*
X16327480Y-5481100D01*
X16326770Y-5495558D01*
X16324646Y-5509876D01*
X16321129Y-5523917D01*
X16316252Y-5537546D01*
X16310063Y-5550631D01*
X16302622Y-5563047D01*
X16293999Y-5574673D01*
X16284278Y-5585398D01*
X16273553Y-5595119D01*
X16261927Y-5603742D01*
X16249511Y-5611183D01*
X16236426Y-5617372D01*
X16222797Y-5622249D01*
X16208756Y-5625766D01*
X16194438Y-5627890D01*
X16179980Y-5628600D01*
X15884980Y-5628600D01*
X15870522Y-5627890D01*
X15856204Y-5625766D01*
X15842163Y-5622249D01*
X15828534Y-5617372D01*
X15815449Y-5611183D01*
X15803033Y-5603742D01*
X15791407Y-5595119D01*
X15780682Y-5585398D01*
X15770961Y-5574673D01*
X15762338Y-5563047D01*
X15754897Y-5550631D01*
X15748708Y-5537546D01*
X15743831Y-5523917D01*
X15740314Y-5509876D01*
X15738190Y-5495558D01*
X15737480Y-5481100D01*
X15737480Y-5136100D01*
X15738190Y-5121642D01*
X15740314Y-5107324D01*
X15743831Y-5093283D01*
X15748708Y-5079654D01*
X15754897Y-5066569D01*
X15762338Y-5054153D01*
X15770961Y-5042527D01*
X15780682Y-5031802D01*
X15791407Y-5022081D01*
X15803033Y-5013458D01*
X15815449Y-5006017D01*
X15828534Y-4999828D01*
X15842163Y-4994951D01*
X15856204Y-4991434D01*
X15870522Y-4989310D01*
X15884980Y-4988600D01*
X16179980Y-4988600D01*
X16194438Y-4989310D01*
X16194438Y-4989310D01*
G37*
D12*
X16032480Y-5308600D03*
D11*
G36*
X-10072809Y-351053D02*
G01*
X-10051574Y-354203D01*
X-10030750Y-359419D01*
X-10010538Y-366651D01*
X-9991132Y-375830D01*
X-9972719Y-386866D01*
X-9955476Y-399654D01*
X-9939570Y-414070D01*
X-9925154Y-429976D01*
X-9912366Y-447219D01*
X-9901330Y-465632D01*
X-9892151Y-485038D01*
X-9884919Y-505250D01*
X-9879703Y-526074D01*
X-9876553Y-547309D01*
X-9875500Y-568750D01*
X-9875500Y-1006250D01*
X-9876553Y-1027691D01*
X-9879703Y-1048926D01*
X-9884919Y-1069750D01*
X-9892151Y-1089962D01*
X-9901330Y-1109368D01*
X-9912366Y-1127781D01*
X-9925154Y-1145024D01*
X-9939570Y-1160930D01*
X-9955476Y-1175346D01*
X-9972719Y-1188134D01*
X-9991132Y-1199170D01*
X-10010538Y-1208349D01*
X-10030750Y-1215581D01*
X-10051574Y-1220797D01*
X-10072809Y-1223947D01*
X-10094250Y-1225000D01*
X-10606750Y-1225000D01*
X-10628191Y-1223947D01*
X-10649426Y-1220797D01*
X-10670250Y-1215581D01*
X-10690462Y-1208349D01*
X-10709868Y-1199170D01*
X-10728281Y-1188134D01*
X-10745524Y-1175346D01*
X-10761430Y-1160930D01*
X-10775846Y-1145024D01*
X-10788634Y-1127781D01*
X-10799670Y-1109368D01*
X-10808849Y-1089962D01*
X-10816081Y-1069750D01*
X-10821297Y-1048926D01*
X-10824447Y-1027691D01*
X-10825500Y-1006250D01*
X-10825500Y-568750D01*
X-10824447Y-547309D01*
X-10821297Y-526074D01*
X-10816081Y-505250D01*
X-10808849Y-485038D01*
X-10799670Y-465632D01*
X-10788634Y-447219D01*
X-10775846Y-429976D01*
X-10761430Y-414070D01*
X-10745524Y-399654D01*
X-10728281Y-386866D01*
X-10709868Y-375830D01*
X-10690462Y-366651D01*
X-10670250Y-359419D01*
X-10649426Y-354203D01*
X-10628191Y-351053D01*
X-10606750Y-350000D01*
X-10094250Y-350000D01*
X-10072809Y-351053D01*
X-10072809Y-351053D01*
G37*
D13*
X-10350500Y-787500D03*
D11*
G36*
X-10072809Y1223947D02*
G01*
X-10051574Y1220797D01*
X-10030750Y1215581D01*
X-10010538Y1208349D01*
X-9991132Y1199170D01*
X-9972719Y1188134D01*
X-9955476Y1175346D01*
X-9939570Y1160930D01*
X-9925154Y1145024D01*
X-9912366Y1127781D01*
X-9901330Y1109368D01*
X-9892151Y1089962D01*
X-9884919Y1069750D01*
X-9879703Y1048926D01*
X-9876553Y1027691D01*
X-9875500Y1006250D01*
X-9875500Y568750D01*
X-9876553Y547309D01*
X-9879703Y526074D01*
X-9884919Y505250D01*
X-9892151Y485038D01*
X-9901330Y465632D01*
X-9912366Y447219D01*
X-9925154Y429976D01*
X-9939570Y414070D01*
X-9955476Y399654D01*
X-9972719Y386866D01*
X-9991132Y375830D01*
X-10010538Y366651D01*
X-10030750Y359419D01*
X-10051574Y354203D01*
X-10072809Y351053D01*
X-10094250Y350000D01*
X-10606750Y350000D01*
X-10628191Y351053D01*
X-10649426Y354203D01*
X-10670250Y359419D01*
X-10690462Y366651D01*
X-10709868Y375830D01*
X-10728281Y386866D01*
X-10745524Y399654D01*
X-10761430Y414070D01*
X-10775846Y429976D01*
X-10788634Y447219D01*
X-10799670Y465632D01*
X-10808849Y485038D01*
X-10816081Y505250D01*
X-10821297Y526074D01*
X-10824447Y547309D01*
X-10825500Y568750D01*
X-10825500Y1006250D01*
X-10824447Y1027691D01*
X-10821297Y1048926D01*
X-10816081Y1069750D01*
X-10808849Y1089962D01*
X-10799670Y1109368D01*
X-10788634Y1127781D01*
X-10775846Y1145024D01*
X-10761430Y1160930D01*
X-10745524Y1175346D01*
X-10728281Y1188134D01*
X-10709868Y1199170D01*
X-10690462Y1208349D01*
X-10670250Y1215581D01*
X-10649426Y1220797D01*
X-10628191Y1223947D01*
X-10606750Y1225000D01*
X-10094250Y1225000D01*
X-10072809Y1223947D01*
X-10072809Y1223947D01*
G37*
D13*
X-10350500Y787500D03*
D11*
G36*
X10628191Y1223947D02*
G01*
X10649426Y1220797D01*
X10670250Y1215581D01*
X10690462Y1208349D01*
X10709868Y1199170D01*
X10728281Y1188134D01*
X10745524Y1175346D01*
X10761430Y1160930D01*
X10775846Y1145024D01*
X10788634Y1127781D01*
X10799670Y1109368D01*
X10808849Y1089962D01*
X10816081Y1069750D01*
X10821297Y1048926D01*
X10824447Y1027691D01*
X10825500Y1006250D01*
X10825500Y568750D01*
X10824447Y547309D01*
X10821297Y526074D01*
X10816081Y505250D01*
X10808849Y485038D01*
X10799670Y465632D01*
X10788634Y447219D01*
X10775846Y429976D01*
X10761430Y414070D01*
X10745524Y399654D01*
X10728281Y386866D01*
X10709868Y375830D01*
X10690462Y366651D01*
X10670250Y359419D01*
X10649426Y354203D01*
X10628191Y351053D01*
X10606750Y350000D01*
X10094250Y350000D01*
X10072809Y351053D01*
X10051574Y354203D01*
X10030750Y359419D01*
X10010538Y366651D01*
X9991132Y375830D01*
X9972719Y386866D01*
X9955476Y399654D01*
X9939570Y414070D01*
X9925154Y429976D01*
X9912366Y447219D01*
X9901330Y465632D01*
X9892151Y485038D01*
X9884919Y505250D01*
X9879703Y526074D01*
X9876553Y547309D01*
X9875500Y568750D01*
X9875500Y1006250D01*
X9876553Y1027691D01*
X9879703Y1048926D01*
X9884919Y1069750D01*
X9892151Y1089962D01*
X9901330Y1109368D01*
X9912366Y1127781D01*
X9925154Y1145024D01*
X9939570Y1160930D01*
X9955476Y1175346D01*
X9972719Y1188134D01*
X9991132Y1199170D01*
X10010538Y1208349D01*
X10030750Y1215581D01*
X10051574Y1220797D01*
X10072809Y1223947D01*
X10094250Y1225000D01*
X10606750Y1225000D01*
X10628191Y1223947D01*
X10628191Y1223947D01*
G37*
D13*
X10350500Y787500D03*
D11*
G36*
X10628191Y-351053D02*
G01*
X10649426Y-354203D01*
X10670250Y-359419D01*
X10690462Y-366651D01*
X10709868Y-375830D01*
X10728281Y-386866D01*
X10745524Y-399654D01*
X10761430Y-414070D01*
X10775846Y-429976D01*
X10788634Y-447219D01*
X10799670Y-465632D01*
X10808849Y-485038D01*
X10816081Y-505250D01*
X10821297Y-526074D01*
X10824447Y-547309D01*
X10825500Y-568750D01*
X10825500Y-1006250D01*
X10824447Y-1027691D01*
X10821297Y-1048926D01*
X10816081Y-1069750D01*
X10808849Y-1089962D01*
X10799670Y-1109368D01*
X10788634Y-1127781D01*
X10775846Y-1145024D01*
X10761430Y-1160930D01*
X10745524Y-1175346D01*
X10728281Y-1188134D01*
X10709868Y-1199170D01*
X10690462Y-1208349D01*
X10670250Y-1215581D01*
X10649426Y-1220797D01*
X10628191Y-1223947D01*
X10606750Y-1225000D01*
X10094250Y-1225000D01*
X10072809Y-1223947D01*
X10051574Y-1220797D01*
X10030750Y-1215581D01*
X10010538Y-1208349D01*
X9991132Y-1199170D01*
X9972719Y-1188134D01*
X9955476Y-1175346D01*
X9939570Y-1160930D01*
X9925154Y-1145024D01*
X9912366Y-1127781D01*
X9901330Y-1109368D01*
X9892151Y-1089962D01*
X9884919Y-1069750D01*
X9879703Y-1048926D01*
X9876553Y-1027691D01*
X9875500Y-1006250D01*
X9875500Y-568750D01*
X9876553Y-547309D01*
X9879703Y-526074D01*
X9884919Y-505250D01*
X9892151Y-485038D01*
X9901330Y-465632D01*
X9912366Y-447219D01*
X9925154Y-429976D01*
X9939570Y-414070D01*
X9955476Y-399654D01*
X9972719Y-386866D01*
X9991132Y-375830D01*
X10010538Y-366651D01*
X10030750Y-359419D01*
X10051574Y-354203D01*
X10072809Y-351053D01*
X10094250Y-350000D01*
X10606750Y-350000D01*
X10628191Y-351053D01*
X10628191Y-351053D01*
G37*
D13*
X10350500Y-787500D03*
D11*
G36*
X-10864042Y-1712710D02*
G01*
X-10849724Y-1714834D01*
X-10835683Y-1718351D01*
X-10822054Y-1723228D01*
X-10808969Y-1729417D01*
X-10796553Y-1736858D01*
X-10784927Y-1745481D01*
X-10774202Y-1755202D01*
X-10764481Y-1765927D01*
X-10755858Y-1777553D01*
X-10748417Y-1789969D01*
X-10742228Y-1803054D01*
X-10737351Y-1816683D01*
X-10733834Y-1830724D01*
X-10731710Y-1845042D01*
X-10731000Y-1859500D01*
X-10731000Y-2204500D01*
X-10731710Y-2218958D01*
X-10733834Y-2233276D01*
X-10737351Y-2247317D01*
X-10742228Y-2260946D01*
X-10748417Y-2274031D01*
X-10755858Y-2286447D01*
X-10764481Y-2298073D01*
X-10774202Y-2308798D01*
X-10784927Y-2318519D01*
X-10796553Y-2327142D01*
X-10808969Y-2334583D01*
X-10822054Y-2340772D01*
X-10835683Y-2345649D01*
X-10849724Y-2349166D01*
X-10864042Y-2351290D01*
X-10878500Y-2352000D01*
X-11173500Y-2352000D01*
X-11187958Y-2351290D01*
X-11202276Y-2349166D01*
X-11216317Y-2345649D01*
X-11229946Y-2340772D01*
X-11243031Y-2334583D01*
X-11255447Y-2327142D01*
X-11267073Y-2318519D01*
X-11277798Y-2308798D01*
X-11287519Y-2298073D01*
X-11296142Y-2286447D01*
X-11303583Y-2274031D01*
X-11309772Y-2260946D01*
X-11314649Y-2247317D01*
X-11318166Y-2233276D01*
X-11320290Y-2218958D01*
X-11321000Y-2204500D01*
X-11321000Y-1859500D01*
X-11320290Y-1845042D01*
X-11318166Y-1830724D01*
X-11314649Y-1816683D01*
X-11309772Y-1803054D01*
X-11303583Y-1789969D01*
X-11296142Y-1777553D01*
X-11287519Y-1765927D01*
X-11277798Y-1755202D01*
X-11267073Y-1745481D01*
X-11255447Y-1736858D01*
X-11243031Y-1729417D01*
X-11229946Y-1723228D01*
X-11216317Y-1718351D01*
X-11202276Y-1714834D01*
X-11187958Y-1712710D01*
X-11173500Y-1712000D01*
X-10878500Y-1712000D01*
X-10864042Y-1712710D01*
X-10864042Y-1712710D01*
G37*
D12*
X-11026000Y-2032000D03*
D11*
G36*
X-9894042Y-1712710D02*
G01*
X-9879724Y-1714834D01*
X-9865683Y-1718351D01*
X-9852054Y-1723228D01*
X-9838969Y-1729417D01*
X-9826553Y-1736858D01*
X-9814927Y-1745481D01*
X-9804202Y-1755202D01*
X-9794481Y-1765927D01*
X-9785858Y-1777553D01*
X-9778417Y-1789969D01*
X-9772228Y-1803054D01*
X-9767351Y-1816683D01*
X-9763834Y-1830724D01*
X-9761710Y-1845042D01*
X-9761000Y-1859500D01*
X-9761000Y-2204500D01*
X-9761710Y-2218958D01*
X-9763834Y-2233276D01*
X-9767351Y-2247317D01*
X-9772228Y-2260946D01*
X-9778417Y-2274031D01*
X-9785858Y-2286447D01*
X-9794481Y-2298073D01*
X-9804202Y-2308798D01*
X-9814927Y-2318519D01*
X-9826553Y-2327142D01*
X-9838969Y-2334583D01*
X-9852054Y-2340772D01*
X-9865683Y-2345649D01*
X-9879724Y-2349166D01*
X-9894042Y-2351290D01*
X-9908500Y-2352000D01*
X-10203500Y-2352000D01*
X-10217958Y-2351290D01*
X-10232276Y-2349166D01*
X-10246317Y-2345649D01*
X-10259946Y-2340772D01*
X-10273031Y-2334583D01*
X-10285447Y-2327142D01*
X-10297073Y-2318519D01*
X-10307798Y-2308798D01*
X-10317519Y-2298073D01*
X-10326142Y-2286447D01*
X-10333583Y-2274031D01*
X-10339772Y-2260946D01*
X-10344649Y-2247317D01*
X-10348166Y-2233276D01*
X-10350290Y-2218958D01*
X-10351000Y-2204500D01*
X-10351000Y-1859500D01*
X-10350290Y-1845042D01*
X-10348166Y-1830724D01*
X-10344649Y-1816683D01*
X-10339772Y-1803054D01*
X-10333583Y-1789969D01*
X-10326142Y-1777553D01*
X-10317519Y-1765927D01*
X-10307798Y-1755202D01*
X-10297073Y-1745481D01*
X-10285447Y-1736858D01*
X-10273031Y-1729417D01*
X-10259946Y-1723228D01*
X-10246317Y-1718351D01*
X-10232276Y-1714834D01*
X-10217958Y-1712710D01*
X-10203500Y-1712000D01*
X-9908500Y-1712000D01*
X-9894042Y-1712710D01*
X-9894042Y-1712710D01*
G37*
D12*
X-10056000Y-2032000D03*
D11*
G36*
X10217958Y-1712710D02*
G01*
X10232276Y-1714834D01*
X10246317Y-1718351D01*
X10259946Y-1723228D01*
X10273031Y-1729417D01*
X10285447Y-1736858D01*
X10297073Y-1745481D01*
X10307798Y-1755202D01*
X10317519Y-1765927D01*
X10326142Y-1777553D01*
X10333583Y-1789969D01*
X10339772Y-1803054D01*
X10344649Y-1816683D01*
X10348166Y-1830724D01*
X10350290Y-1845042D01*
X10351000Y-1859500D01*
X10351000Y-2204500D01*
X10350290Y-2218958D01*
X10348166Y-2233276D01*
X10344649Y-2247317D01*
X10339772Y-2260946D01*
X10333583Y-2274031D01*
X10326142Y-2286447D01*
X10317519Y-2298073D01*
X10307798Y-2308798D01*
X10297073Y-2318519D01*
X10285447Y-2327142D01*
X10273031Y-2334583D01*
X10259946Y-2340772D01*
X10246317Y-2345649D01*
X10232276Y-2349166D01*
X10217958Y-2351290D01*
X10203500Y-2352000D01*
X9908500Y-2352000D01*
X9894042Y-2351290D01*
X9879724Y-2349166D01*
X9865683Y-2345649D01*
X9852054Y-2340772D01*
X9838969Y-2334583D01*
X9826553Y-2327142D01*
X9814927Y-2318519D01*
X9804202Y-2308798D01*
X9794481Y-2298073D01*
X9785858Y-2286447D01*
X9778417Y-2274031D01*
X9772228Y-2260946D01*
X9767351Y-2247317D01*
X9763834Y-2233276D01*
X9761710Y-2218958D01*
X9761000Y-2204500D01*
X9761000Y-1859500D01*
X9761710Y-1845042D01*
X9763834Y-1830724D01*
X9767351Y-1816683D01*
X9772228Y-1803054D01*
X9778417Y-1789969D01*
X9785858Y-1777553D01*
X9794481Y-1765927D01*
X9804202Y-1755202D01*
X9814927Y-1745481D01*
X9826553Y-1736858D01*
X9838969Y-1729417D01*
X9852054Y-1723228D01*
X9865683Y-1718351D01*
X9879724Y-1714834D01*
X9894042Y-1712710D01*
X9908500Y-1712000D01*
X10203500Y-1712000D01*
X10217958Y-1712710D01*
X10217958Y-1712710D01*
G37*
D12*
X10056000Y-2032000D03*
D11*
G36*
X11187958Y-1712710D02*
G01*
X11202276Y-1714834D01*
X11216317Y-1718351D01*
X11229946Y-1723228D01*
X11243031Y-1729417D01*
X11255447Y-1736858D01*
X11267073Y-1745481D01*
X11277798Y-1755202D01*
X11287519Y-1765927D01*
X11296142Y-1777553D01*
X11303583Y-1789969D01*
X11309772Y-1803054D01*
X11314649Y-1816683D01*
X11318166Y-1830724D01*
X11320290Y-1845042D01*
X11321000Y-1859500D01*
X11321000Y-2204500D01*
X11320290Y-2218958D01*
X11318166Y-2233276D01*
X11314649Y-2247317D01*
X11309772Y-2260946D01*
X11303583Y-2274031D01*
X11296142Y-2286447D01*
X11287519Y-2298073D01*
X11277798Y-2308798D01*
X11267073Y-2318519D01*
X11255447Y-2327142D01*
X11243031Y-2334583D01*
X11229946Y-2340772D01*
X11216317Y-2345649D01*
X11202276Y-2349166D01*
X11187958Y-2351290D01*
X11173500Y-2352000D01*
X10878500Y-2352000D01*
X10864042Y-2351290D01*
X10849724Y-2349166D01*
X10835683Y-2345649D01*
X10822054Y-2340772D01*
X10808969Y-2334583D01*
X10796553Y-2327142D01*
X10784927Y-2318519D01*
X10774202Y-2308798D01*
X10764481Y-2298073D01*
X10755858Y-2286447D01*
X10748417Y-2274031D01*
X10742228Y-2260946D01*
X10737351Y-2247317D01*
X10733834Y-2233276D01*
X10731710Y-2218958D01*
X10731000Y-2204500D01*
X10731000Y-1859500D01*
X10731710Y-1845042D01*
X10733834Y-1830724D01*
X10737351Y-1816683D01*
X10742228Y-1803054D01*
X10748417Y-1789969D01*
X10755858Y-1777553D01*
X10764481Y-1765927D01*
X10774202Y-1755202D01*
X10784927Y-1745481D01*
X10796553Y-1736858D01*
X10808969Y-1729417D01*
X10822054Y-1723228D01*
X10835683Y-1718351D01*
X10849724Y-1714834D01*
X10864042Y-1712710D01*
X10878500Y-1712000D01*
X11173500Y-1712000D01*
X11187958Y-1712710D01*
X11187958Y-1712710D01*
G37*
D12*
X11026000Y-2032000D03*
D11*
G36*
X-17798242Y-4966450D02*
G01*
X-17783924Y-4968574D01*
X-17769883Y-4972091D01*
X-17756254Y-4976968D01*
X-17743169Y-4983157D01*
X-17730753Y-4990598D01*
X-17719127Y-4999221D01*
X-17708402Y-5008942D01*
X-17698681Y-5019667D01*
X-17690058Y-5031293D01*
X-17682617Y-5043709D01*
X-17676428Y-5056794D01*
X-17671551Y-5070423D01*
X-17668034Y-5084464D01*
X-17665910Y-5098782D01*
X-17665200Y-5113240D01*
X-17665200Y-5458240D01*
X-17665910Y-5472698D01*
X-17668034Y-5487016D01*
X-17671551Y-5501057D01*
X-17676428Y-5514686D01*
X-17682617Y-5527771D01*
X-17690058Y-5540187D01*
X-17698681Y-5551813D01*
X-17708402Y-5562538D01*
X-17719127Y-5572259D01*
X-17730753Y-5580882D01*
X-17743169Y-5588323D01*
X-17756254Y-5594512D01*
X-17769883Y-5599389D01*
X-17783924Y-5602906D01*
X-17798242Y-5605030D01*
X-17812700Y-5605740D01*
X-18107700Y-5605740D01*
X-18122158Y-5605030D01*
X-18136476Y-5602906D01*
X-18150517Y-5599389D01*
X-18164146Y-5594512D01*
X-18177231Y-5588323D01*
X-18189647Y-5580882D01*
X-18201273Y-5572259D01*
X-18211998Y-5562538D01*
X-18221719Y-5551813D01*
X-18230342Y-5540187D01*
X-18237783Y-5527771D01*
X-18243972Y-5514686D01*
X-18248849Y-5501057D01*
X-18252366Y-5487016D01*
X-18254490Y-5472698D01*
X-18255200Y-5458240D01*
X-18255200Y-5113240D01*
X-18254490Y-5098782D01*
X-18252366Y-5084464D01*
X-18248849Y-5070423D01*
X-18243972Y-5056794D01*
X-18237783Y-5043709D01*
X-18230342Y-5031293D01*
X-18221719Y-5019667D01*
X-18211998Y-5008942D01*
X-18201273Y-4999221D01*
X-18189647Y-4990598D01*
X-18177231Y-4983157D01*
X-18164146Y-4976968D01*
X-18150517Y-4972091D01*
X-18136476Y-4968574D01*
X-18122158Y-4966450D01*
X-18107700Y-4965740D01*
X-17812700Y-4965740D01*
X-17798242Y-4966450D01*
X-17798242Y-4966450D01*
G37*
D12*
X-17960200Y-5285740D03*
D11*
G36*
X-16828242Y-4966450D02*
G01*
X-16813924Y-4968574D01*
X-16799883Y-4972091D01*
X-16786254Y-4976968D01*
X-16773169Y-4983157D01*
X-16760753Y-4990598D01*
X-16749127Y-4999221D01*
X-16738402Y-5008942D01*
X-16728681Y-5019667D01*
X-16720058Y-5031293D01*
X-16712617Y-5043709D01*
X-16706428Y-5056794D01*
X-16701551Y-5070423D01*
X-16698034Y-5084464D01*
X-16695910Y-5098782D01*
X-16695200Y-5113240D01*
X-16695200Y-5458240D01*
X-16695910Y-5472698D01*
X-16698034Y-5487016D01*
X-16701551Y-5501057D01*
X-16706428Y-5514686D01*
X-16712617Y-5527771D01*
X-16720058Y-5540187D01*
X-16728681Y-5551813D01*
X-16738402Y-5562538D01*
X-16749127Y-5572259D01*
X-16760753Y-5580882D01*
X-16773169Y-5588323D01*
X-16786254Y-5594512D01*
X-16799883Y-5599389D01*
X-16813924Y-5602906D01*
X-16828242Y-5605030D01*
X-16842700Y-5605740D01*
X-17137700Y-5605740D01*
X-17152158Y-5605030D01*
X-17166476Y-5602906D01*
X-17180517Y-5599389D01*
X-17194146Y-5594512D01*
X-17207231Y-5588323D01*
X-17219647Y-5580882D01*
X-17231273Y-5572259D01*
X-17241998Y-5562538D01*
X-17251719Y-5551813D01*
X-17260342Y-5540187D01*
X-17267783Y-5527771D01*
X-17273972Y-5514686D01*
X-17278849Y-5501057D01*
X-17282366Y-5487016D01*
X-17284490Y-5472698D01*
X-17285200Y-5458240D01*
X-17285200Y-5113240D01*
X-17284490Y-5098782D01*
X-17282366Y-5084464D01*
X-17278849Y-5070423D01*
X-17273972Y-5056794D01*
X-17267783Y-5043709D01*
X-17260342Y-5031293D01*
X-17251719Y-5019667D01*
X-17241998Y-5008942D01*
X-17231273Y-4999221D01*
X-17219647Y-4990598D01*
X-17207231Y-4983157D01*
X-17194146Y-4976968D01*
X-17180517Y-4972091D01*
X-17166476Y-4968574D01*
X-17152158Y-4966450D01*
X-17137700Y-4965740D01*
X-16842700Y-4965740D01*
X-16828242Y-4966450D01*
X-16828242Y-4966450D01*
G37*
D12*
X-16990200Y-5285740D03*
D11*
G36*
X-5093702Y-1615650D02*
G01*
X-5079384Y-1617774D01*
X-5065343Y-1621291D01*
X-5051714Y-1626168D01*
X-5038629Y-1632357D01*
X-5026213Y-1639798D01*
X-5014587Y-1648421D01*
X-5003862Y-1658142D01*
X-4994141Y-1668867D01*
X-4985518Y-1680493D01*
X-4978077Y-1692909D01*
X-4971888Y-1705994D01*
X-4967011Y-1719623D01*
X-4963494Y-1733664D01*
X-4961370Y-1747982D01*
X-4960660Y-1762440D01*
X-4960660Y-2057440D01*
X-4961370Y-2071898D01*
X-4963494Y-2086216D01*
X-4967011Y-2100257D01*
X-4971888Y-2113886D01*
X-4978077Y-2126971D01*
X-4985518Y-2139387D01*
X-4994141Y-2151013D01*
X-5003862Y-2161738D01*
X-5014587Y-2171459D01*
X-5026213Y-2180082D01*
X-5038629Y-2187523D01*
X-5051714Y-2193712D01*
X-5065343Y-2198589D01*
X-5079384Y-2202106D01*
X-5093702Y-2204230D01*
X-5108160Y-2204940D01*
X-5453160Y-2204940D01*
X-5467618Y-2204230D01*
X-5481936Y-2202106D01*
X-5495977Y-2198589D01*
X-5509606Y-2193712D01*
X-5522691Y-2187523D01*
X-5535107Y-2180082D01*
X-5546733Y-2171459D01*
X-5557458Y-2161738D01*
X-5567179Y-2151013D01*
X-5575802Y-2139387D01*
X-5583243Y-2126971D01*
X-5589432Y-2113886D01*
X-5594309Y-2100257D01*
X-5597826Y-2086216D01*
X-5599950Y-2071898D01*
X-5600660Y-2057440D01*
X-5600660Y-1762440D01*
X-5599950Y-1747982D01*
X-5597826Y-1733664D01*
X-5594309Y-1719623D01*
X-5589432Y-1705994D01*
X-5583243Y-1692909D01*
X-5575802Y-1680493D01*
X-5567179Y-1668867D01*
X-5557458Y-1658142D01*
X-5546733Y-1648421D01*
X-5535107Y-1639798D01*
X-5522691Y-1632357D01*
X-5509606Y-1626168D01*
X-5495977Y-1621291D01*
X-5481936Y-1617774D01*
X-5467618Y-1615650D01*
X-5453160Y-1614940D01*
X-5108160Y-1614940D01*
X-5093702Y-1615650D01*
X-5093702Y-1615650D01*
G37*
D12*
X-5280660Y-1909940D03*
D11*
G36*
X-5093702Y-645650D02*
G01*
X-5079384Y-647774D01*
X-5065343Y-651291D01*
X-5051714Y-656168D01*
X-5038629Y-662357D01*
X-5026213Y-669798D01*
X-5014587Y-678421D01*
X-5003862Y-688142D01*
X-4994141Y-698867D01*
X-4985518Y-710493D01*
X-4978077Y-722909D01*
X-4971888Y-735994D01*
X-4967011Y-749623D01*
X-4963494Y-763664D01*
X-4961370Y-777982D01*
X-4960660Y-792440D01*
X-4960660Y-1087440D01*
X-4961370Y-1101898D01*
X-4963494Y-1116216D01*
X-4967011Y-1130257D01*
X-4971888Y-1143886D01*
X-4978077Y-1156971D01*
X-4985518Y-1169387D01*
X-4994141Y-1181013D01*
X-5003862Y-1191738D01*
X-5014587Y-1201459D01*
X-5026213Y-1210082D01*
X-5038629Y-1217523D01*
X-5051714Y-1223712D01*
X-5065343Y-1228589D01*
X-5079384Y-1232106D01*
X-5093702Y-1234230D01*
X-5108160Y-1234940D01*
X-5453160Y-1234940D01*
X-5467618Y-1234230D01*
X-5481936Y-1232106D01*
X-5495977Y-1228589D01*
X-5509606Y-1223712D01*
X-5522691Y-1217523D01*
X-5535107Y-1210082D01*
X-5546733Y-1201459D01*
X-5557458Y-1191738D01*
X-5567179Y-1181013D01*
X-5575802Y-1169387D01*
X-5583243Y-1156971D01*
X-5589432Y-1143886D01*
X-5594309Y-1130257D01*
X-5597826Y-1116216D01*
X-5599950Y-1101898D01*
X-5600660Y-1087440D01*
X-5600660Y-792440D01*
X-5599950Y-777982D01*
X-5597826Y-763664D01*
X-5594309Y-749623D01*
X-5589432Y-735994D01*
X-5583243Y-722909D01*
X-5575802Y-710493D01*
X-5567179Y-698867D01*
X-5557458Y-688142D01*
X-5546733Y-678421D01*
X-5535107Y-669798D01*
X-5522691Y-662357D01*
X-5509606Y-656168D01*
X-5495977Y-651291D01*
X-5481936Y-647774D01*
X-5467618Y-645650D01*
X-5453160Y-644940D01*
X-5108160Y-644940D01*
X-5093702Y-645650D01*
X-5093702Y-645650D01*
G37*
D12*
X-5280660Y-939940D03*
D11*
G36*
X-6109702Y-645650D02*
G01*
X-6095384Y-647774D01*
X-6081343Y-651291D01*
X-6067714Y-656168D01*
X-6054629Y-662357D01*
X-6042213Y-669798D01*
X-6030587Y-678421D01*
X-6019862Y-688142D01*
X-6010141Y-698867D01*
X-6001518Y-710493D01*
X-5994077Y-722909D01*
X-5987888Y-735994D01*
X-5983011Y-749623D01*
X-5979494Y-763664D01*
X-5977370Y-777982D01*
X-5976660Y-792440D01*
X-5976660Y-1087440D01*
X-5977370Y-1101898D01*
X-5979494Y-1116216D01*
X-5983011Y-1130257D01*
X-5987888Y-1143886D01*
X-5994077Y-1156971D01*
X-6001518Y-1169387D01*
X-6010141Y-1181013D01*
X-6019862Y-1191738D01*
X-6030587Y-1201459D01*
X-6042213Y-1210082D01*
X-6054629Y-1217523D01*
X-6067714Y-1223712D01*
X-6081343Y-1228589D01*
X-6095384Y-1232106D01*
X-6109702Y-1234230D01*
X-6124160Y-1234940D01*
X-6469160Y-1234940D01*
X-6483618Y-1234230D01*
X-6497936Y-1232106D01*
X-6511977Y-1228589D01*
X-6525606Y-1223712D01*
X-6538691Y-1217523D01*
X-6551107Y-1210082D01*
X-6562733Y-1201459D01*
X-6573458Y-1191738D01*
X-6583179Y-1181013D01*
X-6591802Y-1169387D01*
X-6599243Y-1156971D01*
X-6605432Y-1143886D01*
X-6610309Y-1130257D01*
X-6613826Y-1116216D01*
X-6615950Y-1101898D01*
X-6616660Y-1087440D01*
X-6616660Y-792440D01*
X-6615950Y-777982D01*
X-6613826Y-763664D01*
X-6610309Y-749623D01*
X-6605432Y-735994D01*
X-6599243Y-722909D01*
X-6591802Y-710493D01*
X-6583179Y-698867D01*
X-6573458Y-688142D01*
X-6562733Y-678421D01*
X-6551107Y-669798D01*
X-6538691Y-662357D01*
X-6525606Y-656168D01*
X-6511977Y-651291D01*
X-6497936Y-647774D01*
X-6483618Y-645650D01*
X-6469160Y-644940D01*
X-6124160Y-644940D01*
X-6109702Y-645650D01*
X-6109702Y-645650D01*
G37*
D12*
X-6296660Y-939940D03*
D11*
G36*
X-6109702Y-1615650D02*
G01*
X-6095384Y-1617774D01*
X-6081343Y-1621291D01*
X-6067714Y-1626168D01*
X-6054629Y-1632357D01*
X-6042213Y-1639798D01*
X-6030587Y-1648421D01*
X-6019862Y-1658142D01*
X-6010141Y-1668867D01*
X-6001518Y-1680493D01*
X-5994077Y-1692909D01*
X-5987888Y-1705994D01*
X-5983011Y-1719623D01*
X-5979494Y-1733664D01*
X-5977370Y-1747982D01*
X-5976660Y-1762440D01*
X-5976660Y-2057440D01*
X-5977370Y-2071898D01*
X-5979494Y-2086216D01*
X-5983011Y-2100257D01*
X-5987888Y-2113886D01*
X-5994077Y-2126971D01*
X-6001518Y-2139387D01*
X-6010141Y-2151013D01*
X-6019862Y-2161738D01*
X-6030587Y-2171459D01*
X-6042213Y-2180082D01*
X-6054629Y-2187523D01*
X-6067714Y-2193712D01*
X-6081343Y-2198589D01*
X-6095384Y-2202106D01*
X-6109702Y-2204230D01*
X-6124160Y-2204940D01*
X-6469160Y-2204940D01*
X-6483618Y-2204230D01*
X-6497936Y-2202106D01*
X-6511977Y-2198589D01*
X-6525606Y-2193712D01*
X-6538691Y-2187523D01*
X-6551107Y-2180082D01*
X-6562733Y-2171459D01*
X-6573458Y-2161738D01*
X-6583179Y-2151013D01*
X-6591802Y-2139387D01*
X-6599243Y-2126971D01*
X-6605432Y-2113886D01*
X-6610309Y-2100257D01*
X-6613826Y-2086216D01*
X-6615950Y-2071898D01*
X-6616660Y-2057440D01*
X-6616660Y-1762440D01*
X-6615950Y-1747982D01*
X-6613826Y-1733664D01*
X-6610309Y-1719623D01*
X-6605432Y-1705994D01*
X-6599243Y-1692909D01*
X-6591802Y-1680493D01*
X-6583179Y-1668867D01*
X-6573458Y-1658142D01*
X-6562733Y-1648421D01*
X-6551107Y-1639798D01*
X-6538691Y-1632357D01*
X-6525606Y-1626168D01*
X-6511977Y-1621291D01*
X-6497936Y-1617774D01*
X-6483618Y-1615650D01*
X-6469160Y-1614940D01*
X-6124160Y-1614940D01*
X-6109702Y-1615650D01*
X-6109702Y-1615650D01*
G37*
D12*
X-6296660Y-1909940D03*
D11*
G36*
X17169938Y-4989310D02*
G01*
X17184256Y-4991434D01*
X17198297Y-4994951D01*
X17211926Y-4999828D01*
X17225011Y-5006017D01*
X17237427Y-5013458D01*
X17249053Y-5022081D01*
X17259778Y-5031802D01*
X17269499Y-5042527D01*
X17278122Y-5054153D01*
X17285563Y-5066569D01*
X17291752Y-5079654D01*
X17296629Y-5093283D01*
X17300146Y-5107324D01*
X17302270Y-5121642D01*
X17302980Y-5136100D01*
X17302980Y-5481100D01*
X17302270Y-5495558D01*
X17300146Y-5509876D01*
X17296629Y-5523917D01*
X17291752Y-5537546D01*
X17285563Y-5550631D01*
X17278122Y-5563047D01*
X17269499Y-5574673D01*
X17259778Y-5585398D01*
X17249053Y-5595119D01*
X17237427Y-5603742D01*
X17225011Y-5611183D01*
X17211926Y-5617372D01*
X17198297Y-5622249D01*
X17184256Y-5625766D01*
X17169938Y-5627890D01*
X17155480Y-5628600D01*
X16860480Y-5628600D01*
X16846022Y-5627890D01*
X16831704Y-5625766D01*
X16817663Y-5622249D01*
X16804034Y-5617372D01*
X16790949Y-5611183D01*
X16778533Y-5603742D01*
X16766907Y-5595119D01*
X16756182Y-5585398D01*
X16746461Y-5574673D01*
X16737838Y-5563047D01*
X16730397Y-5550631D01*
X16724208Y-5537546D01*
X16719331Y-5523917D01*
X16715814Y-5509876D01*
X16713690Y-5495558D01*
X16712980Y-5481100D01*
X16712980Y-5136100D01*
X16713690Y-5121642D01*
X16715814Y-5107324D01*
X16719331Y-5093283D01*
X16724208Y-5079654D01*
X16730397Y-5066569D01*
X16737838Y-5054153D01*
X16746461Y-5042527D01*
X16756182Y-5031802D01*
X16766907Y-5022081D01*
X16778533Y-5013458D01*
X16790949Y-5006017D01*
X16804034Y-4999828D01*
X16817663Y-4994951D01*
X16831704Y-4991434D01*
X16846022Y-4989310D01*
X16860480Y-4988600D01*
X17155480Y-4988600D01*
X17169938Y-4989310D01*
X17169938Y-4989310D01*
G37*
D12*
X17007980Y-5308600D03*
D11*
G36*
X18139938Y-4989310D02*
G01*
X18154256Y-4991434D01*
X18168297Y-4994951D01*
X18181926Y-4999828D01*
X18195011Y-5006017D01*
X18207427Y-5013458D01*
X18219053Y-5022081D01*
X18229778Y-5031802D01*
X18239499Y-5042527D01*
X18248122Y-5054153D01*
X18255563Y-5066569D01*
X18261752Y-5079654D01*
X18266629Y-5093283D01*
X18270146Y-5107324D01*
X18272270Y-5121642D01*
X18272980Y-5136100D01*
X18272980Y-5481100D01*
X18272270Y-5495558D01*
X18270146Y-5509876D01*
X18266629Y-5523917D01*
X18261752Y-5537546D01*
X18255563Y-5550631D01*
X18248122Y-5563047D01*
X18239499Y-5574673D01*
X18229778Y-5585398D01*
X18219053Y-5595119D01*
X18207427Y-5603742D01*
X18195011Y-5611183D01*
X18181926Y-5617372D01*
X18168297Y-5622249D01*
X18154256Y-5625766D01*
X18139938Y-5627890D01*
X18125480Y-5628600D01*
X17830480Y-5628600D01*
X17816022Y-5627890D01*
X17801704Y-5625766D01*
X17787663Y-5622249D01*
X17774034Y-5617372D01*
X17760949Y-5611183D01*
X17748533Y-5603742D01*
X17736907Y-5595119D01*
X17726182Y-5585398D01*
X17716461Y-5574673D01*
X17707838Y-5563047D01*
X17700397Y-5550631D01*
X17694208Y-5537546D01*
X17689331Y-5523917D01*
X17685814Y-5509876D01*
X17683690Y-5495558D01*
X17682980Y-5481100D01*
X17682980Y-5136100D01*
X17683690Y-5121642D01*
X17685814Y-5107324D01*
X17689331Y-5093283D01*
X17694208Y-5079654D01*
X17700397Y-5066569D01*
X17707838Y-5054153D01*
X17716461Y-5042527D01*
X17726182Y-5031802D01*
X17736907Y-5022081D01*
X17748533Y-5013458D01*
X17760949Y-5006017D01*
X17774034Y-4999828D01*
X17787663Y-4994951D01*
X17801704Y-4991434D01*
X17816022Y-4989310D01*
X17830480Y-4988600D01*
X18125480Y-4988600D01*
X18139938Y-4989310D01*
X18139938Y-4989310D01*
G37*
D12*
X17977980Y-5308600D03*
M02*
