G04 #@! TF.GenerationSoftware,KiCad,Pcbnew,(5.1.4)-1*
G04 #@! TF.CreationDate,2019-11-14T22:57:53-08:00*
G04 #@! TF.ProjectId,SkateLightConnBoard,536b6174-654c-4696-9768-74436f6e6e42,rev?*
G04 #@! TF.SameCoordinates,Original*
G04 #@! TF.FileFunction,Copper,L1,Top*
G04 #@! TF.FilePolarity,Positive*
%FSLAX46Y46*%
G04 Gerber Fmt 4.6, Leading zero omitted, Abs format (unit mm)*
G04 Created by KiCad (PCBNEW (5.1.4)-1) date 2019-11-14 22:57:53*
%MOMM*%
%LPD*%
G04 APERTURE LIST*
%ADD10C,1.016000*%
%ADD11C,0.800000*%
%ADD12C,0.200000*%
%ADD13C,0.800000*%
%ADD14C,1.000000*%
%ADD15C,0.203200*%
G04 APERTURE END LIST*
D10*
X4445000Y-2857500D03*
X4445000Y-1587500D03*
X3175000Y-2857500D03*
X3175000Y-1587500D03*
X1905000Y-2857500D03*
X1905000Y-1587500D03*
X635000Y-2857500D03*
X635000Y-1587500D03*
X-635000Y-2857500D03*
X-635000Y-1587500D03*
X-1905000Y-2857500D03*
X-1905000Y-1587500D03*
X-3175000Y-2857500D03*
X-3175000Y-1587500D03*
X-4445000Y-2857500D03*
X-4445000Y-1587500D03*
X7620000Y1905000D03*
X8890000Y1905000D03*
X7620000Y635000D03*
X8890000Y635000D03*
X7620000Y-635000D03*
X8890000Y-635000D03*
X7620000Y-1905000D03*
X8890000Y-1905000D03*
X-7620000Y-1905000D03*
X-8890000Y-1905000D03*
X-7620000Y-635000D03*
X-8890000Y-635000D03*
X-7620000Y635000D03*
X-8890000Y635000D03*
X-7620000Y1905000D03*
X-8890000Y1905000D03*
D11*
X-94362Y-175783D03*
X-6275676Y55007D03*
X10098001Y-2441979D03*
X10089198Y-3757754D03*
X686295Y1064862D03*
X3609340Y-454660D03*
X5311989Y-705525D03*
X-1068941Y274228D03*
D12*
X8007841Y2713001D02*
X7232159Y2713001D01*
X8307843Y2412999D02*
X8007841Y2713001D01*
X8890000Y1905000D02*
X8382001Y2412999D01*
X8382001Y2412999D02*
X8307843Y2412999D01*
X7232159Y2713001D02*
X6872748Y2353590D01*
X6902154Y2324183D02*
X6799580Y2076536D01*
X6872748Y2353590D02*
X6902154Y2324183D01*
X6799580Y2076536D02*
X6799580Y1844040D01*
X6799580Y1844040D02*
X5212080Y256540D01*
X5212080Y256540D02*
X170180Y256540D01*
X-5875677Y455006D02*
X-6275676Y55007D01*
X-6809740Y2089724D02*
X-6809740Y589071D01*
X170180Y256540D02*
X199936Y226784D01*
X-1166988Y-712701D02*
X-2334695Y455006D01*
X199936Y118515D02*
X-94362Y-175783D01*
X199936Y226784D02*
X199936Y118515D01*
X-8890000Y1905000D02*
X-8081999Y2713001D01*
X-6675675Y455006D02*
X-6275676Y55007D01*
X-799061Y-712701D02*
X-1166988Y-712701D01*
X-6809740Y589071D02*
X-6675675Y455006D01*
X170180Y256540D02*
X-799061Y-712701D01*
X-2334695Y455006D02*
X-5875677Y455006D01*
X-6830408Y2104389D02*
X-6809740Y2089724D01*
X-6876488Y2375608D02*
X-6830408Y2104389D01*
X-7213881Y2713001D02*
X-6876488Y2375608D01*
X-8081999Y2713001D02*
X-7213881Y2713001D01*
D13*
X10098001Y-1876294D02*
X10098001Y-2441979D01*
X10098001Y145419D02*
X10098001Y-1876294D01*
X9608420Y635000D02*
X10098001Y145419D01*
X8890000Y635000D02*
X9608420Y635000D01*
D14*
X635000Y-2857500D02*
X635000Y-3575920D01*
X6411999Y145419D02*
X6901580Y635000D01*
X6901580Y635000D02*
X7620000Y635000D01*
X6411999Y-2678343D02*
X6411999Y145419D01*
X5024841Y-4065501D02*
X6411999Y-2678343D01*
X1124581Y-4065501D02*
X5024841Y-4065501D01*
X635000Y-3575920D02*
X1124581Y-4065501D01*
D12*
X8890000Y-2558556D02*
X8890000Y-1905000D01*
X10089198Y-3757754D02*
X8890000Y-2558556D01*
X5061124Y-454660D02*
X5311989Y-705525D01*
X3609340Y-454660D02*
X5061124Y-454660D01*
X-278307Y1064862D02*
X-668942Y674227D01*
X686295Y1064862D02*
X-278307Y1064862D01*
X-668942Y674227D02*
X-1068941Y274228D01*
D14*
X-5024841Y-379499D02*
X-2641506Y-379499D01*
X-7620000Y-1905000D02*
X-6550342Y-1905000D01*
X-6550342Y-1905000D02*
X-5024841Y-379499D01*
X-2641506Y-379499D02*
X-1905000Y-1116005D01*
X-1905000Y-1116005D02*
X-1905000Y-1587500D01*
X-635000Y-3647762D02*
X-635000Y-2857500D01*
X-1584638Y-4597400D02*
X-635000Y-3647762D01*
X-9682513Y-4597400D02*
X-7363460Y-4597400D01*
X-11298012Y-828099D02*
X-11298012Y-2981901D01*
X-11298012Y-2981901D02*
X-9682513Y-4597400D01*
X-9834913Y635000D02*
X-11298012Y-828099D01*
X-8890000Y635000D02*
X-9834913Y635000D01*
X-7363460Y-4597400D02*
X-1584638Y-4597400D01*
X-8951999Y-696999D02*
X-8890000Y-635000D01*
X-9469841Y-696999D02*
X-8951999Y-696999D01*
X-10098001Y-1325159D02*
X-9469841Y-696999D01*
X-10098001Y-2484841D02*
X-10098001Y-1325159D01*
X-9217343Y-3365499D02*
X-10098001Y-2484841D01*
X-4952999Y-3365499D02*
X-9217343Y-3365499D01*
X-4445000Y-2857500D02*
X-4952999Y-3365499D01*
D15*
G36*
X11612311Y3778243D02*
G01*
X11787682Y3725295D01*
X11949423Y3639295D01*
X12091382Y3523517D01*
X12208152Y3382366D01*
X12295276Y3221233D01*
X12349449Y3046232D01*
X12370201Y2848781D01*
X12370200Y-2841370D01*
X12326556Y-3286489D01*
X12201969Y-3699141D01*
X11999605Y-4079732D01*
X11727172Y-4413767D01*
X11395043Y-4688528D01*
X11015875Y-4893543D01*
X10604101Y-5021009D01*
X10159877Y-5067698D01*
X10159419Y-5067700D01*
X-916780Y-5067700D01*
X-93875Y-4244796D01*
X-63167Y-4219595D01*
X-13154Y-4158654D01*
X29480Y-4106704D01*
X36721Y-4115527D01*
X63168Y-4147753D01*
X93877Y-4172955D01*
X527541Y-4606619D01*
X552748Y-4637334D01*
X616558Y-4689701D01*
X675294Y-4737905D01*
X807223Y-4808423D01*
X815107Y-4812637D01*
X966813Y-4858656D01*
X1085045Y-4870301D01*
X1085054Y-4870301D01*
X1124580Y-4874194D01*
X1164106Y-4870301D01*
X4985315Y-4870301D01*
X5024841Y-4874194D01*
X5064367Y-4870301D01*
X5064377Y-4870301D01*
X5182609Y-4858656D01*
X5334315Y-4812637D01*
X5474127Y-4737905D01*
X5596674Y-4637334D01*
X5621881Y-4606619D01*
X6953124Y-3275377D01*
X6983832Y-3250176D01*
X7016557Y-3210300D01*
X7084403Y-3127630D01*
X7159135Y-2987817D01*
X7174382Y-2937554D01*
X7205154Y-2836111D01*
X7216799Y-2717879D01*
X7216799Y-2717877D01*
X7220693Y-2678343D01*
X7216799Y-2638810D01*
X7216799Y-2625235D01*
X7241153Y-2685715D01*
X7400742Y-2744624D01*
X7568757Y-2771265D01*
X7738742Y-2764617D01*
X7904163Y-2724935D01*
X7998847Y-2685715D01*
X8052342Y-2552868D01*
X7620000Y-2120526D01*
X7605858Y-2134669D01*
X7390332Y-1919143D01*
X7404474Y-1905000D01*
X7390332Y-1890858D01*
X7605858Y-1675332D01*
X7620000Y-1689474D01*
X7918241Y-1391233D01*
X8005005Y-1355294D01*
X8138130Y-1266343D01*
X8251343Y-1153130D01*
X8255000Y-1147657D01*
X8258657Y-1153130D01*
X8371870Y-1266343D01*
X8377343Y-1270000D01*
X8371870Y-1273657D01*
X8258657Y-1386870D01*
X8169706Y-1519995D01*
X8133767Y-1606759D01*
X7835526Y-1905000D01*
X8133767Y-2203241D01*
X8169706Y-2290005D01*
X8258657Y-2423130D01*
X8371870Y-2536343D01*
X8488746Y-2614437D01*
X8491058Y-2637910D01*
X8514205Y-2714215D01*
X8551793Y-2784538D01*
X8602379Y-2846177D01*
X8617822Y-2858851D01*
X9394835Y-3635865D01*
X9384398Y-3688337D01*
X9384398Y-3827171D01*
X9411483Y-3963337D01*
X9464613Y-4091602D01*
X9541744Y-4207038D01*
X9639914Y-4305208D01*
X9755350Y-4382339D01*
X9883615Y-4435469D01*
X10019781Y-4462554D01*
X10158615Y-4462554D01*
X10294781Y-4435469D01*
X10423046Y-4382339D01*
X10538482Y-4305208D01*
X10636652Y-4207038D01*
X10713783Y-4091602D01*
X10766913Y-3963337D01*
X10793998Y-3827171D01*
X10793998Y-3688337D01*
X10766913Y-3552171D01*
X10713783Y-3423906D01*
X10636652Y-3308470D01*
X10538482Y-3210300D01*
X10423046Y-3133169D01*
X10348799Y-3102414D01*
X10369021Y-3096280D01*
X10399707Y-3079878D01*
X10431849Y-3066564D01*
X10460778Y-3047235D01*
X10491461Y-3030834D01*
X10518352Y-3008765D01*
X10547285Y-2989433D01*
X10571891Y-2964827D01*
X10598781Y-2942759D01*
X10620849Y-2915869D01*
X10645455Y-2891263D01*
X10664787Y-2862330D01*
X10686856Y-2835439D01*
X10703257Y-2804756D01*
X10722586Y-2775827D01*
X10735900Y-2743685D01*
X10752302Y-2712999D01*
X10762401Y-2679706D01*
X10775716Y-2647562D01*
X10782504Y-2613436D01*
X10792603Y-2580144D01*
X10796013Y-2545522D01*
X10802801Y-2511396D01*
X10802801Y110807D01*
X10806210Y145420D01*
X10802801Y180032D01*
X10802801Y180041D01*
X10792603Y283584D01*
X10752302Y416439D01*
X10699938Y514405D01*
X10686856Y538880D01*
X10620851Y619307D01*
X10620845Y619313D01*
X10598780Y646199D01*
X10571895Y668263D01*
X10131272Y1108885D01*
X10109200Y1135780D01*
X10001880Y1223855D01*
X9879440Y1289301D01*
X9746585Y1329602D01*
X9643042Y1339800D01*
X9643032Y1339800D01*
X9608420Y1343209D01*
X9573808Y1339800D01*
X9474273Y1339800D01*
X9521343Y1386870D01*
X9610294Y1519995D01*
X9671565Y1667915D01*
X9702800Y1824946D01*
X9702800Y1985054D01*
X9671565Y2142085D01*
X9610294Y2290005D01*
X9521343Y2423130D01*
X9408130Y2536343D01*
X9275005Y2625294D01*
X9127085Y2686565D01*
X8970054Y2717800D01*
X8809946Y2717800D01*
X8677194Y2691394D01*
X8669622Y2700620D01*
X8607984Y2751206D01*
X8537661Y2788794D01*
X8490092Y2803224D01*
X8308136Y2985180D01*
X8295462Y3000622D01*
X8233824Y3051208D01*
X8163501Y3088796D01*
X8087196Y3111943D01*
X8027720Y3117801D01*
X8027713Y3117801D01*
X8007841Y3119758D01*
X7987969Y3117801D01*
X7252031Y3117801D01*
X7232159Y3119758D01*
X7212287Y3117801D01*
X7212280Y3117801D01*
X7152804Y3111943D01*
X7076499Y3088796D01*
X7019723Y3058449D01*
X7006176Y3051208D01*
X6959978Y3013294D01*
X6959975Y3013291D01*
X6944538Y3000622D01*
X6931868Y2985184D01*
X6870300Y2923616D01*
X6870300Y3476372D01*
X6877663Y3551472D01*
X6894791Y3608201D01*
X6922611Y3660521D01*
X6960060Y3706438D01*
X7005722Y3744213D01*
X7057840Y3772394D01*
X7114451Y3789917D01*
X7188494Y3797700D01*
X11413870Y3797700D01*
X11612311Y3778243D01*
X11612311Y3778243D01*
G37*
X11612311Y3778243D02*
X11787682Y3725295D01*
X11949423Y3639295D01*
X12091382Y3523517D01*
X12208152Y3382366D01*
X12295276Y3221233D01*
X12349449Y3046232D01*
X12370201Y2848781D01*
X12370200Y-2841370D01*
X12326556Y-3286489D01*
X12201969Y-3699141D01*
X11999605Y-4079732D01*
X11727172Y-4413767D01*
X11395043Y-4688528D01*
X11015875Y-4893543D01*
X10604101Y-5021009D01*
X10159877Y-5067698D01*
X10159419Y-5067700D01*
X-916780Y-5067700D01*
X-93875Y-4244796D01*
X-63167Y-4219595D01*
X-13154Y-4158654D01*
X29480Y-4106704D01*
X36721Y-4115527D01*
X63168Y-4147753D01*
X93877Y-4172955D01*
X527541Y-4606619D01*
X552748Y-4637334D01*
X616558Y-4689701D01*
X675294Y-4737905D01*
X807223Y-4808423D01*
X815107Y-4812637D01*
X966813Y-4858656D01*
X1085045Y-4870301D01*
X1085054Y-4870301D01*
X1124580Y-4874194D01*
X1164106Y-4870301D01*
X4985315Y-4870301D01*
X5024841Y-4874194D01*
X5064367Y-4870301D01*
X5064377Y-4870301D01*
X5182609Y-4858656D01*
X5334315Y-4812637D01*
X5474127Y-4737905D01*
X5596674Y-4637334D01*
X5621881Y-4606619D01*
X6953124Y-3275377D01*
X6983832Y-3250176D01*
X7016557Y-3210300D01*
X7084403Y-3127630D01*
X7159135Y-2987817D01*
X7174382Y-2937554D01*
X7205154Y-2836111D01*
X7216799Y-2717879D01*
X7216799Y-2717877D01*
X7220693Y-2678343D01*
X7216799Y-2638810D01*
X7216799Y-2625235D01*
X7241153Y-2685715D01*
X7400742Y-2744624D01*
X7568757Y-2771265D01*
X7738742Y-2764617D01*
X7904163Y-2724935D01*
X7998847Y-2685715D01*
X8052342Y-2552868D01*
X7620000Y-2120526D01*
X7605858Y-2134669D01*
X7390332Y-1919143D01*
X7404474Y-1905000D01*
X7390332Y-1890858D01*
X7605858Y-1675332D01*
X7620000Y-1689474D01*
X7918241Y-1391233D01*
X8005005Y-1355294D01*
X8138130Y-1266343D01*
X8251343Y-1153130D01*
X8255000Y-1147657D01*
X8258657Y-1153130D01*
X8371870Y-1266343D01*
X8377343Y-1270000D01*
X8371870Y-1273657D01*
X8258657Y-1386870D01*
X8169706Y-1519995D01*
X8133767Y-1606759D01*
X7835526Y-1905000D01*
X8133767Y-2203241D01*
X8169706Y-2290005D01*
X8258657Y-2423130D01*
X8371870Y-2536343D01*
X8488746Y-2614437D01*
X8491058Y-2637910D01*
X8514205Y-2714215D01*
X8551793Y-2784538D01*
X8602379Y-2846177D01*
X8617822Y-2858851D01*
X9394835Y-3635865D01*
X9384398Y-3688337D01*
X9384398Y-3827171D01*
X9411483Y-3963337D01*
X9464613Y-4091602D01*
X9541744Y-4207038D01*
X9639914Y-4305208D01*
X9755350Y-4382339D01*
X9883615Y-4435469D01*
X10019781Y-4462554D01*
X10158615Y-4462554D01*
X10294781Y-4435469D01*
X10423046Y-4382339D01*
X10538482Y-4305208D01*
X10636652Y-4207038D01*
X10713783Y-4091602D01*
X10766913Y-3963337D01*
X10793998Y-3827171D01*
X10793998Y-3688337D01*
X10766913Y-3552171D01*
X10713783Y-3423906D01*
X10636652Y-3308470D01*
X10538482Y-3210300D01*
X10423046Y-3133169D01*
X10348799Y-3102414D01*
X10369021Y-3096280D01*
X10399707Y-3079878D01*
X10431849Y-3066564D01*
X10460778Y-3047235D01*
X10491461Y-3030834D01*
X10518352Y-3008765D01*
X10547285Y-2989433D01*
X10571891Y-2964827D01*
X10598781Y-2942759D01*
X10620849Y-2915869D01*
X10645455Y-2891263D01*
X10664787Y-2862330D01*
X10686856Y-2835439D01*
X10703257Y-2804756D01*
X10722586Y-2775827D01*
X10735900Y-2743685D01*
X10752302Y-2712999D01*
X10762401Y-2679706D01*
X10775716Y-2647562D01*
X10782504Y-2613436D01*
X10792603Y-2580144D01*
X10796013Y-2545522D01*
X10802801Y-2511396D01*
X10802801Y110807D01*
X10806210Y145420D01*
X10802801Y180032D01*
X10802801Y180041D01*
X10792603Y283584D01*
X10752302Y416439D01*
X10699938Y514405D01*
X10686856Y538880D01*
X10620851Y619307D01*
X10620845Y619313D01*
X10598780Y646199D01*
X10571895Y668263D01*
X10131272Y1108885D01*
X10109200Y1135780D01*
X10001880Y1223855D01*
X9879440Y1289301D01*
X9746585Y1329602D01*
X9643042Y1339800D01*
X9643032Y1339800D01*
X9608420Y1343209D01*
X9573808Y1339800D01*
X9474273Y1339800D01*
X9521343Y1386870D01*
X9610294Y1519995D01*
X9671565Y1667915D01*
X9702800Y1824946D01*
X9702800Y1985054D01*
X9671565Y2142085D01*
X9610294Y2290005D01*
X9521343Y2423130D01*
X9408130Y2536343D01*
X9275005Y2625294D01*
X9127085Y2686565D01*
X8970054Y2717800D01*
X8809946Y2717800D01*
X8677194Y2691394D01*
X8669622Y2700620D01*
X8607984Y2751206D01*
X8537661Y2788794D01*
X8490092Y2803224D01*
X8308136Y2985180D01*
X8295462Y3000622D01*
X8233824Y3051208D01*
X8163501Y3088796D01*
X8087196Y3111943D01*
X8027720Y3117801D01*
X8027713Y3117801D01*
X8007841Y3119758D01*
X7987969Y3117801D01*
X7252031Y3117801D01*
X7232159Y3119758D01*
X7212287Y3117801D01*
X7212280Y3117801D01*
X7152804Y3111943D01*
X7076499Y3088796D01*
X7019723Y3058449D01*
X7006176Y3051208D01*
X6959978Y3013294D01*
X6959975Y3013291D01*
X6944538Y3000622D01*
X6931868Y2985184D01*
X6870300Y2923616D01*
X6870300Y3476372D01*
X6877663Y3551472D01*
X6894791Y3608201D01*
X6922611Y3660521D01*
X6960060Y3706438D01*
X7005722Y3744213D01*
X7057840Y3772394D01*
X7114451Y3789917D01*
X7188494Y3797700D01*
X11413870Y3797700D01*
X11612311Y3778243D01*
G36*
X5607199Y-2344984D02*
G01*
X5244019Y-2708164D01*
X5226565Y-2620415D01*
X5165294Y-2472495D01*
X5076343Y-2339370D01*
X4963130Y-2226157D01*
X4957657Y-2222500D01*
X4963130Y-2218843D01*
X5076343Y-2105630D01*
X5165294Y-1972505D01*
X5226565Y-1824585D01*
X5257800Y-1667554D01*
X5257800Y-1507446D01*
X5226565Y-1350415D01*
X5165294Y-1202495D01*
X5076343Y-1069370D01*
X4963130Y-956157D01*
X4830005Y-867206D01*
X4682085Y-805935D01*
X4525054Y-774700D01*
X4364946Y-774700D01*
X4207915Y-805935D01*
X4059995Y-867206D01*
X3926870Y-956157D01*
X3813657Y-1069370D01*
X3810000Y-1074843D01*
X3806343Y-1069370D01*
X3693130Y-956157D01*
X3560005Y-867206D01*
X3412085Y-805935D01*
X3255054Y-774700D01*
X3094946Y-774700D01*
X2937915Y-805935D01*
X2789995Y-867206D01*
X2656870Y-956157D01*
X2543657Y-1069370D01*
X2540000Y-1074843D01*
X2536343Y-1069370D01*
X2423130Y-956157D01*
X2290005Y-867206D01*
X2142085Y-805935D01*
X1985054Y-774700D01*
X1824946Y-774700D01*
X1667915Y-805935D01*
X1519995Y-867206D01*
X1386870Y-956157D01*
X1273657Y-1069370D01*
X1270000Y-1074843D01*
X1266343Y-1069370D01*
X1153130Y-956157D01*
X1020005Y-867206D01*
X872085Y-805935D01*
X715054Y-774700D01*
X554946Y-774700D01*
X397915Y-805935D01*
X249995Y-867206D01*
X116870Y-956157D01*
X3657Y-1069370D01*
X0Y-1074843D01*
X-3657Y-1069370D01*
X-116870Y-956157D01*
X-249995Y-867206D01*
X-267516Y-859949D01*
X-163779Y-880583D01*
X-24945Y-880583D01*
X111221Y-853498D01*
X239486Y-800368D01*
X354922Y-723237D01*
X453092Y-625067D01*
X530223Y-509631D01*
X583353Y-381366D01*
X610438Y-245200D01*
X610438Y-148260D01*
X5192208Y-148260D01*
X5212080Y-150217D01*
X5231952Y-148260D01*
X5231959Y-148260D01*
X5291435Y-142402D01*
X5367740Y-119255D01*
X5438063Y-81667D01*
X5499701Y-31081D01*
X5512375Y-15638D01*
X5607200Y79187D01*
X5607199Y-2344984D01*
X5607199Y-2344984D01*
G37*
X5607199Y-2344984D02*
X5244019Y-2708164D01*
X5226565Y-2620415D01*
X5165294Y-2472495D01*
X5076343Y-2339370D01*
X4963130Y-2226157D01*
X4957657Y-2222500D01*
X4963130Y-2218843D01*
X5076343Y-2105630D01*
X5165294Y-1972505D01*
X5226565Y-1824585D01*
X5257800Y-1667554D01*
X5257800Y-1507446D01*
X5226565Y-1350415D01*
X5165294Y-1202495D01*
X5076343Y-1069370D01*
X4963130Y-956157D01*
X4830005Y-867206D01*
X4682085Y-805935D01*
X4525054Y-774700D01*
X4364946Y-774700D01*
X4207915Y-805935D01*
X4059995Y-867206D01*
X3926870Y-956157D01*
X3813657Y-1069370D01*
X3810000Y-1074843D01*
X3806343Y-1069370D01*
X3693130Y-956157D01*
X3560005Y-867206D01*
X3412085Y-805935D01*
X3255054Y-774700D01*
X3094946Y-774700D01*
X2937915Y-805935D01*
X2789995Y-867206D01*
X2656870Y-956157D01*
X2543657Y-1069370D01*
X2540000Y-1074843D01*
X2536343Y-1069370D01*
X2423130Y-956157D01*
X2290005Y-867206D01*
X2142085Y-805935D01*
X1985054Y-774700D01*
X1824946Y-774700D01*
X1667915Y-805935D01*
X1519995Y-867206D01*
X1386870Y-956157D01*
X1273657Y-1069370D01*
X1270000Y-1074843D01*
X1266343Y-1069370D01*
X1153130Y-956157D01*
X1020005Y-867206D01*
X872085Y-805935D01*
X715054Y-774700D01*
X554946Y-774700D01*
X397915Y-805935D01*
X249995Y-867206D01*
X116870Y-956157D01*
X3657Y-1069370D01*
X0Y-1074843D01*
X-3657Y-1069370D01*
X-116870Y-956157D01*
X-249995Y-867206D01*
X-267516Y-859949D01*
X-163779Y-880583D01*
X-24945Y-880583D01*
X111221Y-853498D01*
X239486Y-800368D01*
X354922Y-723237D01*
X453092Y-625067D01*
X530223Y-509631D01*
X583353Y-381366D01*
X610438Y-245200D01*
X610438Y-148260D01*
X5192208Y-148260D01*
X5212080Y-150217D01*
X5231952Y-148260D01*
X5231959Y-148260D01*
X5291435Y-142402D01*
X5367740Y-119255D01*
X5438063Y-81667D01*
X5499701Y-31081D01*
X5512375Y-15638D01*
X5607200Y79187D01*
X5607199Y-2344984D01*
G36*
X-8251343Y-1153130D02*
G01*
X-8138130Y-1266343D01*
X-8132657Y-1270000D01*
X-8138130Y-1273657D01*
X-8251343Y-1386870D01*
X-8340294Y-1519995D01*
X-8376233Y-1606759D01*
X-8674474Y-1905000D01*
X-8376233Y-2203241D01*
X-8340294Y-2290005D01*
X-8251343Y-2423130D01*
X-8138130Y-2536343D01*
X-8101679Y-2560699D01*
X-8460811Y-2560699D01*
X-8457658Y-2552868D01*
X-8890000Y-2120526D01*
X-8904143Y-2134669D01*
X-9119669Y-1919143D01*
X-9105526Y-1905000D01*
X-9119669Y-1890858D01*
X-8904143Y-1675332D01*
X-8890000Y-1689474D01*
X-8645591Y-1445065D01*
X-8642525Y-1444135D01*
X-8502713Y-1369403D01*
X-8400194Y-1285268D01*
X-8371870Y-1266343D01*
X-8258657Y-1153130D01*
X-8255000Y-1147657D01*
X-8251343Y-1153130D01*
X-8251343Y-1153130D01*
G37*
X-8251343Y-1153130D02*
X-8138130Y-1266343D01*
X-8132657Y-1270000D01*
X-8138130Y-1273657D01*
X-8251343Y-1386870D01*
X-8340294Y-1519995D01*
X-8376233Y-1606759D01*
X-8674474Y-1905000D01*
X-8376233Y-2203241D01*
X-8340294Y-2290005D01*
X-8251343Y-2423130D01*
X-8138130Y-2536343D01*
X-8101679Y-2560699D01*
X-8460811Y-2560699D01*
X-8457658Y-2552868D01*
X-8890000Y-2120526D01*
X-8904143Y-2134669D01*
X-9119669Y-1919143D01*
X-9105526Y-1905000D01*
X-9119669Y-1890858D01*
X-8904143Y-1675332D01*
X-8890000Y-1689474D01*
X-8645591Y-1445065D01*
X-8642525Y-1444135D01*
X-8502713Y-1369403D01*
X-8400194Y-1285268D01*
X-8371870Y-1266343D01*
X-8258657Y-1153130D01*
X-8255000Y-1147657D01*
X-8251343Y-1153130D01*
G36*
X-4215332Y-1573358D02*
G01*
X-4229474Y-1587500D01*
X-3931233Y-1885741D01*
X-3895294Y-1972505D01*
X-3806343Y-2105630D01*
X-3693130Y-2218843D01*
X-3687657Y-2222500D01*
X-3693130Y-2226157D01*
X-3806343Y-2339370D01*
X-3810000Y-2344843D01*
X-3813657Y-2339370D01*
X-3926870Y-2226157D01*
X-4059995Y-2137206D01*
X-4146759Y-2101267D01*
X-4445000Y-1803026D01*
X-4743241Y-2101267D01*
X-4830005Y-2137206D01*
X-4963130Y-2226157D01*
X-5076343Y-2339370D01*
X-5099127Y-2373469D01*
X-5286357Y-2560699D01*
X-6080701Y-2560699D01*
X-5978509Y-2476833D01*
X-5953302Y-2446118D01*
X-5286974Y-1779790D01*
X-5264935Y-1871663D01*
X-5225715Y-1966347D01*
X-5092868Y-2019842D01*
X-4660526Y-1587500D01*
X-4674669Y-1573358D01*
X-4459143Y-1357832D01*
X-4445000Y-1371974D01*
X-4430858Y-1357832D01*
X-4215332Y-1573358D01*
X-4215332Y-1573358D01*
G37*
X-4215332Y-1573358D02*
X-4229474Y-1587500D01*
X-3931233Y-1885741D01*
X-3895294Y-1972505D01*
X-3806343Y-2105630D01*
X-3693130Y-2218843D01*
X-3687657Y-2222500D01*
X-3693130Y-2226157D01*
X-3806343Y-2339370D01*
X-3810000Y-2344843D01*
X-3813657Y-2339370D01*
X-3926870Y-2226157D01*
X-4059995Y-2137206D01*
X-4146759Y-2101267D01*
X-4445000Y-1803026D01*
X-4743241Y-2101267D01*
X-4830005Y-2137206D01*
X-4963130Y-2226157D01*
X-5076343Y-2339370D01*
X-5099127Y-2373469D01*
X-5286357Y-2560699D01*
X-6080701Y-2560699D01*
X-5978509Y-2476833D01*
X-5953302Y-2446118D01*
X-5286974Y-1779790D01*
X-5264935Y-1871663D01*
X-5225715Y-1966347D01*
X-5092868Y-2019842D01*
X-4660526Y-1587500D01*
X-4674669Y-1573358D01*
X-4459143Y-1357832D01*
X-4445000Y-1371974D01*
X-4430858Y-1357832D01*
X-4215332Y-1573358D01*
G36*
X-6379991Y1735023D02*
G01*
X-6350698Y1729223D01*
X-6321433Y1723002D01*
X-6316853Y1722521D01*
X-6255184Y1716474D01*
X-6255173Y1716474D01*
X-6239193Y1714900D01*
X6097966Y1714900D01*
X5044407Y661340D01*
X190052Y661340D01*
X170180Y663297D01*
X150308Y661340D01*
X150301Y661340D01*
X90825Y655482D01*
X14520Y632335D01*
X-55803Y594747D01*
X-85205Y570617D01*
X-102001Y556833D01*
X-102004Y556830D01*
X-117441Y544161D01*
X-129870Y529017D01*
X-163779Y529017D01*
X-299945Y501932D01*
X-428210Y448802D01*
X-543646Y371671D01*
X-641816Y273501D01*
X-718947Y158065D01*
X-772077Y29800D01*
X-799162Y-106366D01*
X-799162Y-140329D01*
X-966734Y-307901D01*
X-999314Y-307901D01*
X-2034401Y727185D01*
X-2047074Y742627D01*
X-2108712Y793213D01*
X-2179035Y830801D01*
X-2255340Y853948D01*
X-2314816Y859806D01*
X-2314823Y859806D01*
X-2334695Y861763D01*
X-2354567Y859806D01*
X-5855806Y859806D01*
X-5875678Y861763D01*
X-5895550Y859806D01*
X-5895556Y859806D01*
X-5955032Y853948D01*
X-6031337Y830801D01*
X-6089486Y799720D01*
X-6101660Y793213D01*
X-6147858Y755299D01*
X-6147861Y755296D01*
X-6154829Y749577D01*
X-6206259Y759807D01*
X-6345093Y759807D01*
X-6397566Y749370D01*
X-6403495Y755299D01*
X-6403500Y755303D01*
X-6404940Y756743D01*
X-6404940Y1742556D01*
X-6379991Y1735023D01*
X-6379991Y1735023D01*
G37*
X-6379991Y1735023D02*
X-6350698Y1729223D01*
X-6321433Y1723002D01*
X-6316853Y1722521D01*
X-6255184Y1716474D01*
X-6255173Y1716474D01*
X-6239193Y1714900D01*
X6097966Y1714900D01*
X5044407Y661340D01*
X190052Y661340D01*
X170180Y663297D01*
X150308Y661340D01*
X150301Y661340D01*
X90825Y655482D01*
X14520Y632335D01*
X-55803Y594747D01*
X-85205Y570617D01*
X-102001Y556833D01*
X-102004Y556830D01*
X-117441Y544161D01*
X-129870Y529017D01*
X-163779Y529017D01*
X-299945Y501932D01*
X-428210Y448802D01*
X-543646Y371671D01*
X-641816Y273501D01*
X-718947Y158065D01*
X-772077Y29800D01*
X-799162Y-106366D01*
X-799162Y-140329D01*
X-966734Y-307901D01*
X-999314Y-307901D01*
X-2034401Y727185D01*
X-2047074Y742627D01*
X-2108712Y793213D01*
X-2179035Y830801D01*
X-2255340Y853948D01*
X-2314816Y859806D01*
X-2314823Y859806D01*
X-2334695Y861763D01*
X-2354567Y859806D01*
X-5855806Y859806D01*
X-5875678Y861763D01*
X-5895550Y859806D01*
X-5895556Y859806D01*
X-5955032Y853948D01*
X-6031337Y830801D01*
X-6089486Y799720D01*
X-6101660Y793213D01*
X-6147858Y755299D01*
X-6147861Y755296D01*
X-6154829Y749577D01*
X-6206259Y759807D01*
X-6345093Y759807D01*
X-6397566Y749370D01*
X-6403495Y755299D01*
X-6403500Y755303D01*
X-6404940Y756743D01*
X-6404940Y1742556D01*
X-6379991Y1735023D01*
M02*
