G04 #@! TF.GenerationSoftware,KiCad,Pcbnew,(5.1.4)-1*
G04 #@! TF.CreationDate,2019-11-14T22:57:53-08:00*
G04 #@! TF.ProjectId,SkateLightConnBoard,536b6174-654c-4696-9768-74436f6e6e42,rev?*
G04 #@! TF.SameCoordinates,Original*
G04 #@! TF.FileFunction,Copper,L2,Bot*
G04 #@! TF.FilePolarity,Positive*
%FSLAX46Y46*%
G04 Gerber Fmt 4.6, Leading zero omitted, Abs format (unit mm)*
G04 Created by KiCad (PCBNEW (5.1.4)-1) date 2019-11-14 22:57:53*
%MOMM*%
%LPD*%
G04 APERTURE LIST*
%ADD10C,1.016000*%
%ADD11C,0.800000*%
%ADD12C,0.500000*%
%ADD13C,0.200000*%
%ADD14C,0.800000*%
%ADD15C,1.000000*%
%ADD16C,0.203200*%
G04 APERTURE END LIST*
D10*
X4445000Y-2857500D03*
X4445000Y-1587500D03*
X3175000Y-2857500D03*
X3175000Y-1587500D03*
X1905000Y-2857500D03*
X1905000Y-1587500D03*
X635000Y-2857500D03*
X635000Y-1587500D03*
X-635000Y-2857500D03*
X-635000Y-1587500D03*
X-1905000Y-2857500D03*
X-1905000Y-1587500D03*
X-3175000Y-2857500D03*
X-3175000Y-1587500D03*
X-4445000Y-2857500D03*
X-4445000Y-1587500D03*
X7620000Y1905000D03*
X8890000Y1905000D03*
X7620000Y635000D03*
X8890000Y635000D03*
X7620000Y-635000D03*
X8890000Y-635000D03*
X7620000Y-1905000D03*
X8890000Y-1905000D03*
X-7620000Y-1905000D03*
X-8890000Y-1905000D03*
X-7620000Y-635000D03*
X-8890000Y-635000D03*
X-7620000Y635000D03*
X-8890000Y635000D03*
X-7620000Y1905000D03*
X-8890000Y1905000D03*
D11*
X-94362Y-175783D03*
X-6275676Y55007D03*
X10098001Y-2441979D03*
X10089198Y-3757754D03*
X686295Y1064862D03*
X3609340Y-454660D03*
X5311989Y-705525D03*
X-1068941Y274228D03*
D12*
X-3175000Y-1439658D02*
X-3175000Y-1587500D01*
X-2311124Y-575782D02*
X-3175000Y-1439658D01*
X-494361Y-575782D02*
X-2311124Y-575782D01*
X-94362Y-175783D02*
X-494361Y-575782D01*
D13*
X4445000Y-435114D02*
X4445000Y-869080D01*
X6785114Y1905000D02*
X4445000Y-435114D01*
X4445000Y-869080D02*
X4445000Y-1587500D01*
X7620000Y1905000D02*
X6785114Y1905000D01*
D14*
X10098001Y-2441979D02*
X9992863Y-2441979D01*
X9992863Y-2441979D02*
X9421841Y-3013001D01*
X9421841Y-3013001D02*
X5318921Y-3013001D01*
X5163420Y-2857500D02*
X4445000Y-2857500D01*
X5318921Y-3013001D02*
X5163420Y-2857500D01*
D13*
X-1407156Y972017D02*
X-6687017Y972017D01*
X-635000Y-1587500D02*
X76716Y-875784D01*
X-732939Y974230D02*
X-1404943Y974230D01*
X241639Y-875784D02*
X605639Y-511784D01*
X-6687017Y972017D02*
X-7112001Y1397001D01*
X76716Y-875784D02*
X241639Y-875784D01*
X241639Y524218D02*
X-282927Y524218D01*
X-7112001Y1397001D02*
X-7620000Y1905000D01*
X-1404943Y974230D02*
X-1407156Y972017D01*
X-282927Y524218D02*
X-732939Y974230D01*
X605639Y-511784D02*
X605639Y160218D01*
X605639Y160218D02*
X241639Y524218D01*
D14*
X11198010Y-4071145D02*
X10533580Y-4735575D01*
X10385051Y-4759099D02*
X10310256Y-4766466D01*
X-708430Y-4772490D02*
X-1905000Y-3575920D01*
X10459561Y-4748793D02*
X10385051Y-4759099D01*
X10310256Y-4766466D02*
X10235167Y-4770894D01*
X10533580Y-4735575D02*
X10459561Y-4748793D01*
X8890000Y-635000D02*
X9846670Y-635000D01*
X10153887Y-4772490D02*
X-708430Y-4772490D01*
X11198010Y-1986340D02*
X11198010Y-4071145D01*
X-1905000Y-3575920D02*
X-1905000Y-2857500D01*
X9846670Y-635000D02*
X11198010Y-1986340D01*
X10235167Y-4770894D02*
X10153887Y-4772490D01*
D13*
X3175000Y-2857500D02*
X4361180Y-4043680D01*
X7724141Y-4043679D02*
X7828280Y-4043679D01*
X4361180Y-4043680D02*
X7724141Y-4043679D01*
X9803273Y-4043679D02*
X10089198Y-3757754D01*
X7828280Y-4043679D02*
X9803273Y-4043679D01*
X686295Y1064862D02*
X2089818Y1064862D01*
X2089818Y1064862D02*
X3609340Y-454660D01*
X6511464Y-1905000D02*
X7620000Y-1905000D01*
X5311989Y-705525D02*
X6511464Y-1905000D01*
X-1634626Y274228D02*
X-1068941Y274228D01*
X-2583272Y274228D02*
X-1634626Y274228D01*
X-4445000Y-1587500D02*
X-2583272Y274228D01*
D15*
X-5024841Y-4065501D02*
X-3664581Y-4065501D01*
X-7175949Y-635000D02*
X-5653001Y-2157948D01*
X-7620000Y-635000D02*
X-7175949Y-635000D01*
X-5653001Y-3437341D02*
X-5024841Y-4065501D01*
X-5653001Y-2157948D02*
X-5653001Y-3437341D01*
X-3664581Y-4065501D02*
X-3175000Y-3575920D01*
X-3175000Y-3575920D02*
X-3175000Y-2857500D01*
D16*
G36*
X-7116528Y3790337D02*
G01*
X-7059799Y3773209D01*
X-7007479Y3745389D01*
X-6961562Y3707940D01*
X-6923787Y3662278D01*
X-6895606Y3610160D01*
X-6878083Y3553549D01*
X-6870300Y3479505D01*
X-6870299Y2346007D01*
X-6868922Y2332022D01*
X-6868935Y2330093D01*
X-6868485Y2325510D01*
X-6862008Y2263885D01*
X-6856005Y2234641D01*
X-6850398Y2205245D01*
X-6849067Y2200836D01*
X-6830744Y2141642D01*
X-6819152Y2114065D01*
X-6807961Y2086367D01*
X-6805799Y2082301D01*
X-6776326Y2027792D01*
X-6759605Y2003003D01*
X-6743245Y1978002D01*
X-6740335Y1974434D01*
X-6700837Y1926689D01*
X-6679630Y1905629D01*
X-6658712Y1884269D01*
X-6655163Y1881333D01*
X-6607144Y1842171D01*
X-6582273Y1825647D01*
X-6557585Y1808742D01*
X-6553534Y1806552D01*
X-6498822Y1777461D01*
X-6471192Y1766073D01*
X-6443712Y1754295D01*
X-6439312Y1752933D01*
X-6379991Y1735023D01*
X-6350698Y1729223D01*
X-6321433Y1723002D01*
X-6316853Y1722521D01*
X-6255184Y1716474D01*
X-6255173Y1716474D01*
X-6239193Y1714900D01*
X6022540Y1714900D01*
X4172822Y-134819D01*
X4157379Y-147493D01*
X4106793Y-209132D01*
X4069205Y-279455D01*
X4046058Y-355760D01*
X4040200Y-415236D01*
X4040200Y-415242D01*
X4038243Y-435114D01*
X4040200Y-454986D01*
X4040200Y-880433D01*
X3926870Y-956157D01*
X3813657Y-1069370D01*
X3810000Y-1074843D01*
X3806343Y-1069370D01*
X3693130Y-956157D01*
X3560005Y-867206D01*
X3412085Y-805935D01*
X3255054Y-774700D01*
X3094946Y-774700D01*
X2937915Y-805935D01*
X2789995Y-867206D01*
X2656870Y-956157D01*
X2543657Y-1069370D01*
X2540000Y-1074843D01*
X2536343Y-1069370D01*
X2423130Y-956157D01*
X2290005Y-867206D01*
X2142085Y-805935D01*
X1985054Y-774700D01*
X1824946Y-774700D01*
X1667915Y-805935D01*
X1519995Y-867206D01*
X1386870Y-956157D01*
X1273657Y-1069370D01*
X1270000Y-1074843D01*
X1266343Y-1069370D01*
X1153130Y-956157D01*
X1020005Y-867206D01*
X880869Y-809574D01*
X893260Y-799405D01*
X943846Y-737767D01*
X981434Y-667444D01*
X1004581Y-591139D01*
X1010439Y-531663D01*
X1010439Y-531656D01*
X1012396Y-511784D01*
X1010439Y-491912D01*
X1010439Y140346D01*
X1012396Y160218D01*
X1010439Y180090D01*
X1010439Y180097D01*
X1004581Y239573D01*
X981434Y315878D01*
X943846Y386201D01*
X893260Y447839D01*
X877822Y460509D01*
X541934Y796396D01*
X529260Y811839D01*
X467622Y862425D01*
X397299Y900013D01*
X320994Y923160D01*
X261518Y929018D01*
X261511Y929018D01*
X241639Y930975D01*
X221767Y929018D01*
X-115253Y929018D01*
X-432644Y1246408D01*
X-445318Y1261851D01*
X-506956Y1312437D01*
X-577279Y1350025D01*
X-653584Y1373172D01*
X-713060Y1379030D01*
X-713067Y1379030D01*
X-732939Y1380987D01*
X-752811Y1379030D01*
X-1385071Y1379030D01*
X-1404943Y1380987D01*
X-1424815Y1379030D01*
X-1424822Y1379030D01*
X-1447290Y1376817D01*
X-6519343Y1376817D01*
X-6811704Y1669177D01*
X-6811708Y1669182D01*
X-6833791Y1691265D01*
X-6807200Y1824946D01*
X-6807200Y1985054D01*
X-6838435Y2142085D01*
X-6899706Y2290005D01*
X-6988657Y2423130D01*
X-7101870Y2536343D01*
X-7234995Y2625294D01*
X-7382915Y2686565D01*
X-7539946Y2717800D01*
X-7700054Y2717800D01*
X-7857085Y2686565D01*
X-8005005Y2625294D01*
X-8138130Y2536343D01*
X-8251343Y2423130D01*
X-8255000Y2417657D01*
X-8258657Y2423130D01*
X-8371870Y2536343D01*
X-8504995Y2625294D01*
X-8652915Y2686565D01*
X-8809946Y2717800D01*
X-8970054Y2717800D01*
X-9127085Y2686565D01*
X-9275005Y2625294D01*
X-9408130Y2536343D01*
X-9521343Y2423130D01*
X-9610294Y2290005D01*
X-9671565Y2142085D01*
X-9702800Y1985054D01*
X-9702800Y1824946D01*
X-9671565Y1667915D01*
X-9610294Y1519995D01*
X-9521343Y1386870D01*
X-9408130Y1273657D01*
X-9402657Y1270000D01*
X-9408130Y1266343D01*
X-9521343Y1153130D01*
X-9610294Y1020005D01*
X-9671565Y872085D01*
X-9702800Y715054D01*
X-9702800Y554946D01*
X-9671565Y397915D01*
X-9610294Y249995D01*
X-9521343Y116870D01*
X-9408130Y3657D01*
X-9402657Y0D01*
X-9408130Y-3657D01*
X-9521343Y-116870D01*
X-9610294Y-249995D01*
X-9671565Y-397915D01*
X-9702800Y-554946D01*
X-9702800Y-715054D01*
X-9671565Y-872085D01*
X-9610294Y-1020005D01*
X-9521343Y-1153130D01*
X-9408130Y-1266343D01*
X-9275005Y-1355294D01*
X-9188241Y-1391233D01*
X-8890000Y-1689474D01*
X-8591759Y-1391233D01*
X-8504995Y-1355294D01*
X-8371870Y-1266343D01*
X-8258657Y-1153130D01*
X-8255000Y-1147657D01*
X-8251343Y-1153130D01*
X-8138130Y-1266343D01*
X-8132657Y-1270000D01*
X-8138130Y-1273657D01*
X-8251343Y-1386870D01*
X-8340294Y-1519995D01*
X-8376233Y-1606759D01*
X-8674474Y-1905000D01*
X-8376233Y-2203241D01*
X-8340294Y-2290005D01*
X-8251343Y-2423130D01*
X-8138130Y-2536343D01*
X-8005005Y-2625294D01*
X-7857085Y-2686565D01*
X-7700054Y-2717800D01*
X-7539946Y-2717800D01*
X-7382915Y-2686565D01*
X-7234995Y-2625294D01*
X-7101870Y-2536343D01*
X-6988657Y-2423130D01*
X-6899706Y-2290005D01*
X-6838435Y-2142085D01*
X-6833223Y-2115884D01*
X-6457801Y-2491307D01*
X-6457800Y-3397806D01*
X-6461694Y-3437341D01*
X-6446155Y-3595109D01*
X-6400137Y-3746814D01*
X-6325405Y-3886627D01*
X-6261639Y-3964326D01*
X-6224833Y-4009174D01*
X-6194124Y-4034376D01*
X-5621877Y-4606624D01*
X-5596674Y-4637334D01*
X-5474127Y-4737905D01*
X-5334315Y-4812637D01*
X-5182609Y-4858656D01*
X-5064377Y-4870301D01*
X-5064368Y-4870301D01*
X-5024842Y-4874194D01*
X-4985316Y-4870301D01*
X-3704107Y-4870301D01*
X-3664581Y-4874194D01*
X-3625055Y-4870301D01*
X-3625045Y-4870301D01*
X-3506813Y-4858656D01*
X-3355107Y-4812637D01*
X-3215295Y-4737905D01*
X-3092748Y-4637334D01*
X-3067541Y-4606619D01*
X-2633881Y-4172959D01*
X-2603167Y-4147753D01*
X-2526777Y-4054671D01*
X-2502596Y-4025207D01*
X-2481078Y-3984949D01*
X-2427850Y-4049807D01*
X-2405780Y-4076699D01*
X-2378889Y-4098768D01*
X-1409958Y-5067700D01*
X-10143870Y-5067700D01*
X-10588989Y-5024056D01*
X-11001641Y-4899469D01*
X-11382232Y-4697105D01*
X-11716267Y-4424672D01*
X-11991028Y-4092543D01*
X-12196043Y-3713375D01*
X-12323509Y-3301601D01*
X-12370198Y-2857377D01*
X-12370200Y-2856919D01*
X-12370200Y-2552868D01*
X-9322342Y-2552868D01*
X-9268847Y-2685715D01*
X-9109258Y-2744624D01*
X-8941243Y-2771265D01*
X-8771258Y-2764617D01*
X-8605837Y-2724935D01*
X-8511153Y-2685715D01*
X-8457658Y-2552868D01*
X-8890000Y-2120526D01*
X-9322342Y-2552868D01*
X-12370200Y-2552868D01*
X-12370200Y-1853757D01*
X-9756265Y-1853757D01*
X-9749617Y-2023742D01*
X-9709935Y-2189163D01*
X-9670715Y-2283847D01*
X-9537868Y-2337342D01*
X-9105526Y-1905000D01*
X-9537868Y-1472658D01*
X-9670715Y-1526153D01*
X-9729624Y-1685742D01*
X-9756265Y-1853757D01*
X-12370200Y-1853757D01*
X-12370200Y2841370D01*
X-12350743Y3039811D01*
X-12297795Y3215182D01*
X-12211795Y3376923D01*
X-12096017Y3518882D01*
X-11954866Y3635652D01*
X-11793733Y3722776D01*
X-11618732Y3776949D01*
X-11421291Y3797700D01*
X-7191628Y3797700D01*
X-7116528Y3790337D01*
X-7116528Y3790337D01*
G37*
X-7116528Y3790337D02*
X-7059799Y3773209D01*
X-7007479Y3745389D01*
X-6961562Y3707940D01*
X-6923787Y3662278D01*
X-6895606Y3610160D01*
X-6878083Y3553549D01*
X-6870300Y3479505D01*
X-6870299Y2346007D01*
X-6868922Y2332022D01*
X-6868935Y2330093D01*
X-6868485Y2325510D01*
X-6862008Y2263885D01*
X-6856005Y2234641D01*
X-6850398Y2205245D01*
X-6849067Y2200836D01*
X-6830744Y2141642D01*
X-6819152Y2114065D01*
X-6807961Y2086367D01*
X-6805799Y2082301D01*
X-6776326Y2027792D01*
X-6759605Y2003003D01*
X-6743245Y1978002D01*
X-6740335Y1974434D01*
X-6700837Y1926689D01*
X-6679630Y1905629D01*
X-6658712Y1884269D01*
X-6655163Y1881333D01*
X-6607144Y1842171D01*
X-6582273Y1825647D01*
X-6557585Y1808742D01*
X-6553534Y1806552D01*
X-6498822Y1777461D01*
X-6471192Y1766073D01*
X-6443712Y1754295D01*
X-6439312Y1752933D01*
X-6379991Y1735023D01*
X-6350698Y1729223D01*
X-6321433Y1723002D01*
X-6316853Y1722521D01*
X-6255184Y1716474D01*
X-6255173Y1716474D01*
X-6239193Y1714900D01*
X6022540Y1714900D01*
X4172822Y-134819D01*
X4157379Y-147493D01*
X4106793Y-209132D01*
X4069205Y-279455D01*
X4046058Y-355760D01*
X4040200Y-415236D01*
X4040200Y-415242D01*
X4038243Y-435114D01*
X4040200Y-454986D01*
X4040200Y-880433D01*
X3926870Y-956157D01*
X3813657Y-1069370D01*
X3810000Y-1074843D01*
X3806343Y-1069370D01*
X3693130Y-956157D01*
X3560005Y-867206D01*
X3412085Y-805935D01*
X3255054Y-774700D01*
X3094946Y-774700D01*
X2937915Y-805935D01*
X2789995Y-867206D01*
X2656870Y-956157D01*
X2543657Y-1069370D01*
X2540000Y-1074843D01*
X2536343Y-1069370D01*
X2423130Y-956157D01*
X2290005Y-867206D01*
X2142085Y-805935D01*
X1985054Y-774700D01*
X1824946Y-774700D01*
X1667915Y-805935D01*
X1519995Y-867206D01*
X1386870Y-956157D01*
X1273657Y-1069370D01*
X1270000Y-1074843D01*
X1266343Y-1069370D01*
X1153130Y-956157D01*
X1020005Y-867206D01*
X880869Y-809574D01*
X893260Y-799405D01*
X943846Y-737767D01*
X981434Y-667444D01*
X1004581Y-591139D01*
X1010439Y-531663D01*
X1010439Y-531656D01*
X1012396Y-511784D01*
X1010439Y-491912D01*
X1010439Y140346D01*
X1012396Y160218D01*
X1010439Y180090D01*
X1010439Y180097D01*
X1004581Y239573D01*
X981434Y315878D01*
X943846Y386201D01*
X893260Y447839D01*
X877822Y460509D01*
X541934Y796396D01*
X529260Y811839D01*
X467622Y862425D01*
X397299Y900013D01*
X320994Y923160D01*
X261518Y929018D01*
X261511Y929018D01*
X241639Y930975D01*
X221767Y929018D01*
X-115253Y929018D01*
X-432644Y1246408D01*
X-445318Y1261851D01*
X-506956Y1312437D01*
X-577279Y1350025D01*
X-653584Y1373172D01*
X-713060Y1379030D01*
X-713067Y1379030D01*
X-732939Y1380987D01*
X-752811Y1379030D01*
X-1385071Y1379030D01*
X-1404943Y1380987D01*
X-1424815Y1379030D01*
X-1424822Y1379030D01*
X-1447290Y1376817D01*
X-6519343Y1376817D01*
X-6811704Y1669177D01*
X-6811708Y1669182D01*
X-6833791Y1691265D01*
X-6807200Y1824946D01*
X-6807200Y1985054D01*
X-6838435Y2142085D01*
X-6899706Y2290005D01*
X-6988657Y2423130D01*
X-7101870Y2536343D01*
X-7234995Y2625294D01*
X-7382915Y2686565D01*
X-7539946Y2717800D01*
X-7700054Y2717800D01*
X-7857085Y2686565D01*
X-8005005Y2625294D01*
X-8138130Y2536343D01*
X-8251343Y2423130D01*
X-8255000Y2417657D01*
X-8258657Y2423130D01*
X-8371870Y2536343D01*
X-8504995Y2625294D01*
X-8652915Y2686565D01*
X-8809946Y2717800D01*
X-8970054Y2717800D01*
X-9127085Y2686565D01*
X-9275005Y2625294D01*
X-9408130Y2536343D01*
X-9521343Y2423130D01*
X-9610294Y2290005D01*
X-9671565Y2142085D01*
X-9702800Y1985054D01*
X-9702800Y1824946D01*
X-9671565Y1667915D01*
X-9610294Y1519995D01*
X-9521343Y1386870D01*
X-9408130Y1273657D01*
X-9402657Y1270000D01*
X-9408130Y1266343D01*
X-9521343Y1153130D01*
X-9610294Y1020005D01*
X-9671565Y872085D01*
X-9702800Y715054D01*
X-9702800Y554946D01*
X-9671565Y397915D01*
X-9610294Y249995D01*
X-9521343Y116870D01*
X-9408130Y3657D01*
X-9402657Y0D01*
X-9408130Y-3657D01*
X-9521343Y-116870D01*
X-9610294Y-249995D01*
X-9671565Y-397915D01*
X-9702800Y-554946D01*
X-9702800Y-715054D01*
X-9671565Y-872085D01*
X-9610294Y-1020005D01*
X-9521343Y-1153130D01*
X-9408130Y-1266343D01*
X-9275005Y-1355294D01*
X-9188241Y-1391233D01*
X-8890000Y-1689474D01*
X-8591759Y-1391233D01*
X-8504995Y-1355294D01*
X-8371870Y-1266343D01*
X-8258657Y-1153130D01*
X-8255000Y-1147657D01*
X-8251343Y-1153130D01*
X-8138130Y-1266343D01*
X-8132657Y-1270000D01*
X-8138130Y-1273657D01*
X-8251343Y-1386870D01*
X-8340294Y-1519995D01*
X-8376233Y-1606759D01*
X-8674474Y-1905000D01*
X-8376233Y-2203241D01*
X-8340294Y-2290005D01*
X-8251343Y-2423130D01*
X-8138130Y-2536343D01*
X-8005005Y-2625294D01*
X-7857085Y-2686565D01*
X-7700054Y-2717800D01*
X-7539946Y-2717800D01*
X-7382915Y-2686565D01*
X-7234995Y-2625294D01*
X-7101870Y-2536343D01*
X-6988657Y-2423130D01*
X-6899706Y-2290005D01*
X-6838435Y-2142085D01*
X-6833223Y-2115884D01*
X-6457801Y-2491307D01*
X-6457800Y-3397806D01*
X-6461694Y-3437341D01*
X-6446155Y-3595109D01*
X-6400137Y-3746814D01*
X-6325405Y-3886627D01*
X-6261639Y-3964326D01*
X-6224833Y-4009174D01*
X-6194124Y-4034376D01*
X-5621877Y-4606624D01*
X-5596674Y-4637334D01*
X-5474127Y-4737905D01*
X-5334315Y-4812637D01*
X-5182609Y-4858656D01*
X-5064377Y-4870301D01*
X-5064368Y-4870301D01*
X-5024842Y-4874194D01*
X-4985316Y-4870301D01*
X-3704107Y-4870301D01*
X-3664581Y-4874194D01*
X-3625055Y-4870301D01*
X-3625045Y-4870301D01*
X-3506813Y-4858656D01*
X-3355107Y-4812637D01*
X-3215295Y-4737905D01*
X-3092748Y-4637334D01*
X-3067541Y-4606619D01*
X-2633881Y-4172959D01*
X-2603167Y-4147753D01*
X-2526777Y-4054671D01*
X-2502596Y-4025207D01*
X-2481078Y-3984949D01*
X-2427850Y-4049807D01*
X-2405780Y-4076699D01*
X-2378889Y-4098768D01*
X-1409958Y-5067700D01*
X-10143870Y-5067700D01*
X-10588989Y-5024056D01*
X-11001641Y-4899469D01*
X-11382232Y-4697105D01*
X-11716267Y-4424672D01*
X-11991028Y-4092543D01*
X-12196043Y-3713375D01*
X-12323509Y-3301601D01*
X-12370198Y-2857377D01*
X-12370200Y-2856919D01*
X-12370200Y-2552868D01*
X-9322342Y-2552868D01*
X-9268847Y-2685715D01*
X-9109258Y-2744624D01*
X-8941243Y-2771265D01*
X-8771258Y-2764617D01*
X-8605837Y-2724935D01*
X-8511153Y-2685715D01*
X-8457658Y-2552868D01*
X-8890000Y-2120526D01*
X-9322342Y-2552868D01*
X-12370200Y-2552868D01*
X-12370200Y-1853757D01*
X-9756265Y-1853757D01*
X-9749617Y-2023742D01*
X-9709935Y-2189163D01*
X-9670715Y-2283847D01*
X-9537868Y-2337342D01*
X-9105526Y-1905000D01*
X-9537868Y-1472658D01*
X-9670715Y-1526153D01*
X-9729624Y-1685742D01*
X-9756265Y-1853757D01*
X-12370200Y-1853757D01*
X-12370200Y2841370D01*
X-12350743Y3039811D01*
X-12297795Y3215182D01*
X-12211795Y3376923D01*
X-12096017Y3518882D01*
X-11954866Y3635652D01*
X-11793733Y3722776D01*
X-11618732Y3776949D01*
X-11421291Y3797700D01*
X-7191628Y3797700D01*
X-7116528Y3790337D01*
G36*
X-623250Y292067D02*
G01*
X-641816Y273501D01*
X-718947Y158065D01*
X-772077Y29800D01*
X-782178Y-20982D01*
X-2283874Y-20982D01*
X-2311125Y-18298D01*
X-2413244Y-28356D01*
X-2419884Y-29010D01*
X-2524464Y-60734D01*
X-2620846Y-112251D01*
X-2705325Y-181581D01*
X-2722697Y-202749D01*
X-3304478Y-784531D01*
X-3412085Y-805935D01*
X-3560005Y-867206D01*
X-3693130Y-956157D01*
X-3806343Y-1069370D01*
X-3895294Y-1202495D01*
X-3931233Y-1289259D01*
X-4229474Y-1587500D01*
X-3931233Y-1885741D01*
X-3895294Y-1972505D01*
X-3806343Y-2105630D01*
X-3693130Y-2218843D01*
X-3687657Y-2222500D01*
X-3693130Y-2226157D01*
X-3806343Y-2339370D01*
X-3810000Y-2344843D01*
X-3813657Y-2339370D01*
X-3926870Y-2226157D01*
X-4059995Y-2137206D01*
X-4146759Y-2101267D01*
X-4445000Y-1803026D01*
X-4459143Y-1817169D01*
X-4674669Y-1601643D01*
X-4660526Y-1587500D01*
X-5092868Y-1155158D01*
X-5225715Y-1208653D01*
X-5284624Y-1368242D01*
X-5287351Y-1385439D01*
X-5733158Y-939632D01*
X-4877342Y-939632D01*
X-4445000Y-1371974D01*
X-4012658Y-939632D01*
X-4066153Y-806785D01*
X-4225742Y-747876D01*
X-4393757Y-721235D01*
X-4563742Y-727883D01*
X-4729163Y-767565D01*
X-4823847Y-806785D01*
X-4877342Y-939632D01*
X-5733158Y-939632D01*
X-6055944Y-616847D01*
X-5941828Y-569578D01*
X-5826392Y-492447D01*
X-5728222Y-394277D01*
X-5651091Y-278841D01*
X-5597961Y-150576D01*
X-5570876Y-14410D01*
X-5570876Y124424D01*
X-5597961Y260590D01*
X-5651091Y388855D01*
X-5728222Y504291D01*
X-5791148Y567217D01*
X-1427028Y567217D01*
X-1407156Y565260D01*
X-1387284Y567217D01*
X-1387277Y567217D01*
X-1364809Y569430D01*
X-900612Y569430D01*
X-623250Y292067D01*
X-623250Y292067D01*
G37*
X-623250Y292067D02*
X-641816Y273501D01*
X-718947Y158065D01*
X-772077Y29800D01*
X-782178Y-20982D01*
X-2283874Y-20982D01*
X-2311125Y-18298D01*
X-2413244Y-28356D01*
X-2419884Y-29010D01*
X-2524464Y-60734D01*
X-2620846Y-112251D01*
X-2705325Y-181581D01*
X-2722697Y-202749D01*
X-3304478Y-784531D01*
X-3412085Y-805935D01*
X-3560005Y-867206D01*
X-3693130Y-956157D01*
X-3806343Y-1069370D01*
X-3895294Y-1202495D01*
X-3931233Y-1289259D01*
X-4229474Y-1587500D01*
X-3931233Y-1885741D01*
X-3895294Y-1972505D01*
X-3806343Y-2105630D01*
X-3693130Y-2218843D01*
X-3687657Y-2222500D01*
X-3693130Y-2226157D01*
X-3806343Y-2339370D01*
X-3810000Y-2344843D01*
X-3813657Y-2339370D01*
X-3926870Y-2226157D01*
X-4059995Y-2137206D01*
X-4146759Y-2101267D01*
X-4445000Y-1803026D01*
X-4459143Y-1817169D01*
X-4674669Y-1601643D01*
X-4660526Y-1587500D01*
X-5092868Y-1155158D01*
X-5225715Y-1208653D01*
X-5284624Y-1368242D01*
X-5287351Y-1385439D01*
X-5733158Y-939632D01*
X-4877342Y-939632D01*
X-4445000Y-1371974D01*
X-4012658Y-939632D01*
X-4066153Y-806785D01*
X-4225742Y-747876D01*
X-4393757Y-721235D01*
X-4563742Y-727883D01*
X-4729163Y-767565D01*
X-4823847Y-806785D01*
X-4877342Y-939632D01*
X-5733158Y-939632D01*
X-6055944Y-616847D01*
X-5941828Y-569578D01*
X-5826392Y-492447D01*
X-5728222Y-394277D01*
X-5651091Y-278841D01*
X-5597961Y-150576D01*
X-5570876Y-14410D01*
X-5570876Y124424D01*
X-5597961Y260590D01*
X-5651091Y388855D01*
X-5728222Y504291D01*
X-5791148Y567217D01*
X-1427028Y567217D01*
X-1407156Y565260D01*
X-1387284Y567217D01*
X-1387277Y567217D01*
X-1364809Y569430D01*
X-900612Y569430D01*
X-623250Y292067D01*
G36*
X6988657Y1386870D02*
G01*
X7101870Y1273657D01*
X7107343Y1270000D01*
X7101870Y1266343D01*
X6988657Y1153130D01*
X6899706Y1020005D01*
X6838435Y872085D01*
X6807200Y715054D01*
X6807200Y554946D01*
X6838435Y397915D01*
X6899706Y249995D01*
X6988657Y116870D01*
X7101870Y3657D01*
X7107343Y0D01*
X7101870Y-3657D01*
X6988657Y-116870D01*
X6899706Y-249995D01*
X6838435Y-397915D01*
X6807200Y-554946D01*
X6807200Y-715054D01*
X6838435Y-872085D01*
X6899706Y-1020005D01*
X6988657Y-1153130D01*
X7101870Y-1266343D01*
X7234995Y-1355294D01*
X7321759Y-1391233D01*
X7620000Y-1689474D01*
X7918241Y-1391233D01*
X8005005Y-1355294D01*
X8138130Y-1266343D01*
X8251343Y-1153130D01*
X8255000Y-1147657D01*
X8258657Y-1153130D01*
X8371870Y-1266343D01*
X8377343Y-1270000D01*
X8371870Y-1273657D01*
X8258657Y-1386870D01*
X8169706Y-1519995D01*
X8133767Y-1606759D01*
X7835526Y-1905000D01*
X7849669Y-1919143D01*
X7634143Y-2134669D01*
X7620000Y-2120526D01*
X7605858Y-2134669D01*
X7390332Y-1919143D01*
X7404474Y-1905000D01*
X6972132Y-1472658D01*
X6839285Y-1526153D01*
X6780376Y-1685742D01*
X6753735Y-1853757D01*
X6760383Y-2023742D01*
X6800065Y-2189163D01*
X6839285Y-2283847D01*
X6899765Y-2308201D01*
X5605079Y-2308201D01*
X5556880Y-2268645D01*
X5434440Y-2203199D01*
X5301585Y-2162898D01*
X5198042Y-2152700D01*
X5198032Y-2152700D01*
X5163420Y-2149291D01*
X5128808Y-2152700D01*
X5029273Y-2152700D01*
X5076343Y-2105630D01*
X5165294Y-1972505D01*
X5226565Y-1824585D01*
X5257800Y-1667554D01*
X5257800Y-1507446D01*
X5226565Y-1350415D01*
X5165294Y-1202495D01*
X5076343Y-1069370D01*
X4963130Y-956157D01*
X4849800Y-880433D01*
X4849800Y-602787D01*
X6928896Y1476308D01*
X6988657Y1386870D01*
X6988657Y1386870D01*
G37*
X6988657Y1386870D02*
X7101870Y1273657D01*
X7107343Y1270000D01*
X7101870Y1266343D01*
X6988657Y1153130D01*
X6899706Y1020005D01*
X6838435Y872085D01*
X6807200Y715054D01*
X6807200Y554946D01*
X6838435Y397915D01*
X6899706Y249995D01*
X6988657Y116870D01*
X7101870Y3657D01*
X7107343Y0D01*
X7101870Y-3657D01*
X6988657Y-116870D01*
X6899706Y-249995D01*
X6838435Y-397915D01*
X6807200Y-554946D01*
X6807200Y-715054D01*
X6838435Y-872085D01*
X6899706Y-1020005D01*
X6988657Y-1153130D01*
X7101870Y-1266343D01*
X7234995Y-1355294D01*
X7321759Y-1391233D01*
X7620000Y-1689474D01*
X7918241Y-1391233D01*
X8005005Y-1355294D01*
X8138130Y-1266343D01*
X8251343Y-1153130D01*
X8255000Y-1147657D01*
X8258657Y-1153130D01*
X8371870Y-1266343D01*
X8377343Y-1270000D01*
X8371870Y-1273657D01*
X8258657Y-1386870D01*
X8169706Y-1519995D01*
X8133767Y-1606759D01*
X7835526Y-1905000D01*
X7849669Y-1919143D01*
X7634143Y-2134669D01*
X7620000Y-2120526D01*
X7605858Y-2134669D01*
X7390332Y-1919143D01*
X7404474Y-1905000D01*
X6972132Y-1472658D01*
X6839285Y-1526153D01*
X6780376Y-1685742D01*
X6753735Y-1853757D01*
X6760383Y-2023742D01*
X6800065Y-2189163D01*
X6839285Y-2283847D01*
X6899765Y-2308201D01*
X5605079Y-2308201D01*
X5556880Y-2268645D01*
X5434440Y-2203199D01*
X5301585Y-2162898D01*
X5198042Y-2152700D01*
X5198032Y-2152700D01*
X5163420Y-2149291D01*
X5128808Y-2152700D01*
X5029273Y-2152700D01*
X5076343Y-2105630D01*
X5165294Y-1972505D01*
X5226565Y-1824585D01*
X5257800Y-1667554D01*
X5257800Y-1507446D01*
X5226565Y-1350415D01*
X5165294Y-1202495D01*
X5076343Y-1069370D01*
X4963130Y-956157D01*
X4849800Y-880433D01*
X4849800Y-602787D01*
X6928896Y1476308D01*
X6988657Y1386870D01*
M02*
