M48
; DRILL file {KiCad (5.1.4)-1} date 11/14/2019 10:57:55 PM
; FORMAT={2:4/ absolute / inch / suppress leading zeros}
; #@! TF.CreationDate,2019-11-14T22:57:55-08:00
; #@! TF.GenerationSoftware,Kicad,Pcbnew,(5.1.4)-1
FMAT,2
INCH,TZ
T1C0.0157
T2C0.0240
T3C0.0280
%
G90
G05
T1
X-2471Y22
X-421Y108
X-37Y-69
X270Y419
X1421Y-179
X2091Y-278
X3972Y-1479
X3976Y-961
T2
X3000Y750
X3000Y250
X3000Y-250
X3000Y-750
X3500Y750
X3500Y250
X3500Y-250
X3500Y-750
X-3500Y750
X-3500Y250
X-3500Y-250
X-3500Y-750
X-3000Y750
X-3000Y250
X-3000Y-250
X-3000Y-750
T3
X-1750Y-625
X-1750Y-1125
X-1250Y-625
X-1250Y-1125
X-750Y-625
X-750Y-1125
X-250Y-625
X-250Y-1125
X250Y-625
X250Y-1125
X750Y-625
X750Y-1125
X1250Y-625
X1250Y-1125
X1750Y-625
X1750Y-1125
T0
M30
