G04 #@! TF.GenerationSoftware,KiCad,Pcbnew,(5.1.4)-1*
G04 #@! TF.CreationDate,2019-12-23T10:57:34-10:00*
G04 #@! TF.ProjectId,SkateLightConnBoard,536b6174-654c-4696-9768-74436f6e6e42,rev?*
G04 #@! TF.SameCoordinates,Original*
G04 #@! TF.FileFunction,Copper,L2,Bot*
G04 #@! TF.FilePolarity,Positive*
%FSLAX46Y46*%
G04 Gerber Fmt 4.6, Leading zero omitted, Abs format (unit mm)*
G04 Created by KiCad (PCBNEW (5.1.4)-1) date 2019-12-23 10:57:34*
%MOMM*%
%LPD*%
G04 APERTURE LIST*
%ADD10C,1.016000*%
%ADD11C,0.600000*%
%ADD12C,0.500000*%
%ADD13C,0.152400*%
G04 APERTURE END LIST*
D10*
X4445000Y-2171700D03*
X4445000Y-901700D03*
X3175000Y-2171700D03*
X3175000Y-901700D03*
X1905000Y-2171700D03*
X1905000Y-901700D03*
X635000Y-2171700D03*
X635000Y-901700D03*
X-635000Y-2171700D03*
X-635000Y-901700D03*
X-1905000Y-2171700D03*
X-1905000Y-901700D03*
X-3175000Y-2171700D03*
X-3175000Y-901700D03*
X-4445000Y-2171700D03*
X-4445000Y-901700D03*
X7620000Y1905000D03*
X8890000Y1905000D03*
X7620000Y635000D03*
X8890000Y635000D03*
X7620000Y-635000D03*
X8890000Y-635000D03*
X7620000Y-1905000D03*
X8890000Y-1905000D03*
X-7620000Y-1905000D03*
X-8890000Y-1905000D03*
X-7620000Y-635000D03*
X-8890000Y-635000D03*
X-7620000Y635000D03*
X-8890000Y635000D03*
X-7620000Y1905000D03*
X-8890000Y1905000D03*
D11*
X-6060440Y-5280660D03*
X-9398000Y-5135880D03*
X-11430000Y-3175000D03*
X-11430000Y182880D03*
X-11430000Y3683000D03*
X-2585720Y-5227320D03*
X1369060Y-3721100D03*
X-5842000Y-2032000D03*
X-7807960Y3616960D03*
X-3252761Y-4215421D03*
X8509000Y-5334000D03*
X11430000Y-2667000D03*
X11430000Y508000D03*
X11430000Y3429000D03*
D12*
X635000Y-901700D02*
X635000Y-183280D01*
X635000Y-183280D02*
X-1978370Y2430090D01*
X-1978370Y2430090D02*
X-6184518Y2430090D01*
X-6184518Y2430090D02*
X-6617430Y2863001D01*
X-9848001Y2575835D02*
X-9848001Y874581D01*
X-9608420Y635000D02*
X-8890000Y635000D01*
X-8104474Y4319362D02*
X-9848001Y2575835D01*
X-7470806Y4319362D02*
X-8104474Y4319362D01*
X-6617430Y3465986D02*
X-7470806Y4319362D01*
X-9848001Y874581D02*
X-9608420Y635000D01*
X-6617430Y2863001D02*
X-6617430Y3465986D01*
X-7620000Y3429000D02*
X-7807960Y3616960D01*
X-7620000Y1905000D02*
X-7620000Y3429000D01*
X-1905000Y-2867660D02*
X-3252761Y-4215421D01*
X-1905000Y-2171700D02*
X-1905000Y-2867660D01*
X1905000Y-901700D02*
X3175000Y-901700D01*
X3175000Y-901700D02*
X4445000Y-901700D01*
D13*
G36*
X-6401322Y5141489D02*
G01*
X-6389613Y5137954D01*
X-6378812Y5132211D01*
X-6369329Y5124477D01*
X-6361534Y5115055D01*
X-6355713Y5104289D01*
X-6352097Y5092608D01*
X-6349600Y5068853D01*
X-6349599Y3874998D01*
X-7115764Y4641162D01*
X-7130748Y4659420D01*
X-7203624Y4719228D01*
X-7286768Y4763670D01*
X-7376984Y4791036D01*
X-7447302Y4797962D01*
X-7447310Y4797962D01*
X-7470806Y4800276D01*
X-7494302Y4797962D01*
X-8080978Y4797962D01*
X-8104474Y4800276D01*
X-8127970Y4797962D01*
X-8127978Y4797962D01*
X-8198296Y4791036D01*
X-8288513Y4763670D01*
X-8371656Y4719228D01*
X-8426276Y4674403D01*
X-8426280Y4674399D01*
X-8444532Y4659420D01*
X-8459512Y4641167D01*
X-10169801Y2930877D01*
X-10188059Y2915893D01*
X-10247867Y2843017D01*
X-10292309Y2759872D01*
X-10319675Y2669656D01*
X-10326601Y2599338D01*
X-10326601Y2599331D01*
X-10328915Y2575835D01*
X-10326601Y2552339D01*
X-10326600Y898087D01*
X-10328915Y874581D01*
X-10319675Y780760D01*
X-10292308Y690543D01*
X-10247867Y607400D01*
X-10203042Y552780D01*
X-10203037Y552775D01*
X-10188058Y534523D01*
X-10169806Y519544D01*
X-9963462Y313200D01*
X-9948478Y294942D01*
X-9875602Y235134D01*
X-9792458Y190692D01*
X-9702242Y163326D01*
X-9631924Y156400D01*
X-9631916Y156400D01*
X-9608420Y154086D01*
X-9584924Y156400D01*
X-9453110Y156400D01*
X-9359555Y62845D01*
X-9265500Y0D01*
X-9359555Y-62845D01*
X-9462155Y-165445D01*
X-9542766Y-286089D01*
X-9598293Y-420142D01*
X-9626600Y-562451D01*
X-9626600Y-707549D01*
X-9598293Y-849858D01*
X-9542766Y-983911D01*
X-9462155Y-1104555D01*
X-9359555Y-1207155D01*
X-9238911Y-1287766D01*
X-9104858Y-1343293D01*
X-8962549Y-1371600D01*
X-8817451Y-1371600D01*
X-8675142Y-1343293D01*
X-8541089Y-1287766D01*
X-8420445Y-1207155D01*
X-8317845Y-1104555D01*
X-8237234Y-983911D01*
X-8181707Y-849858D01*
X-8153400Y-707549D01*
X-8153400Y-562451D01*
X-8181707Y-420142D01*
X-8237234Y-286089D01*
X-8317845Y-165445D01*
X-8420445Y-62845D01*
X-8514500Y0D01*
X-8420445Y62845D01*
X-8317845Y165445D01*
X-8255000Y259500D01*
X-8192155Y165445D01*
X-8089555Y62845D01*
X-7968911Y-17766D01*
X-7834858Y-73293D01*
X-7692549Y-101600D01*
X-7547451Y-101600D01*
X-7405142Y-73293D01*
X-7271089Y-17766D01*
X-7150445Y62845D01*
X-7047845Y165445D01*
X-6967234Y286089D01*
X-6911707Y420142D01*
X-6883400Y562451D01*
X-6883400Y707549D01*
X-6911707Y849858D01*
X-6967234Y983911D01*
X-7047845Y1104555D01*
X-7150445Y1207155D01*
X-7244500Y1270000D01*
X-7150445Y1332845D01*
X-7047845Y1435445D01*
X-6967234Y1556089D01*
X-6911707Y1690142D01*
X-6883400Y1832451D01*
X-6883400Y1977549D01*
X-6911707Y2119858D01*
X-6967234Y2253911D01*
X-7047845Y2374555D01*
X-7141400Y2468110D01*
X-7141400Y3313113D01*
X-7096029Y3267743D01*
X-7096030Y2886498D01*
X-7098344Y2863001D01*
X-7096030Y2839505D01*
X-7096030Y2839498D01*
X-7090675Y2785131D01*
X-7089104Y2769179D01*
X-7078835Y2735327D01*
X-7061738Y2678964D01*
X-7017296Y2595819D01*
X-6957488Y2522943D01*
X-6939225Y2507955D01*
X-6539556Y2108285D01*
X-6524576Y2090032D01*
X-6506324Y2075053D01*
X-6506320Y2075049D01*
X-6451701Y2030225D01*
X-6451700Y2030224D01*
X-6368556Y1985782D01*
X-6278340Y1958416D01*
X-6208022Y1951490D01*
X-6208014Y1951490D01*
X-6184518Y1949176D01*
X-6161024Y1951490D01*
X-2176612Y1951490D01*
X134934Y-360056D01*
X62845Y-432145D01*
X0Y-526200D01*
X-62845Y-432145D01*
X-165445Y-329545D01*
X-286089Y-248934D01*
X-420142Y-193407D01*
X-562451Y-165100D01*
X-707549Y-165100D01*
X-849858Y-193407D01*
X-983911Y-248934D01*
X-1104555Y-329545D01*
X-1207155Y-432145D01*
X-1270000Y-526200D01*
X-1332845Y-432145D01*
X-1435445Y-329545D01*
X-1556089Y-248934D01*
X-1690142Y-193407D01*
X-1832451Y-165100D01*
X-1977549Y-165100D01*
X-2119858Y-193407D01*
X-2253911Y-248934D01*
X-2374555Y-329545D01*
X-2477155Y-432145D01*
X-2557766Y-552789D01*
X-2613293Y-686842D01*
X-2641600Y-829151D01*
X-2641600Y-974249D01*
X-2613293Y-1116558D01*
X-2557766Y-1250611D01*
X-2477155Y-1371255D01*
X-2374555Y-1473855D01*
X-2280500Y-1536700D01*
X-2374555Y-1599545D01*
X-2477155Y-1702145D01*
X-2540000Y-1796200D01*
X-2602845Y-1702145D01*
X-2705445Y-1599545D01*
X-2826089Y-1518934D01*
X-2960142Y-1463407D01*
X-3102451Y-1435100D01*
X-3247549Y-1435100D01*
X-3389858Y-1463407D01*
X-3523911Y-1518934D01*
X-3644555Y-1599545D01*
X-3747155Y-1702145D01*
X-3827766Y-1822789D01*
X-3883293Y-1956842D01*
X-3911600Y-2099151D01*
X-3911600Y-2244249D01*
X-3883293Y-2386558D01*
X-3827766Y-2520611D01*
X-3747155Y-2641255D01*
X-3644555Y-2743855D01*
X-3523911Y-2824466D01*
X-3389858Y-2879993D01*
X-3247549Y-2908300D01*
X-3102451Y-2908300D01*
X-2960142Y-2879993D01*
X-2826089Y-2824466D01*
X-2705445Y-2743855D01*
X-2602845Y-2641255D01*
X-2540000Y-2547200D01*
X-2477155Y-2641255D01*
X-2416296Y-2702114D01*
X-3431476Y-3717294D01*
X-3503147Y-3746981D01*
X-3589724Y-3804830D01*
X-3663352Y-3878458D01*
X-3721201Y-3965035D01*
X-3761048Y-4061234D01*
X-3781361Y-4163358D01*
X-3781361Y-4267484D01*
X-3761048Y-4369608D01*
X-3721201Y-4465807D01*
X-3663352Y-4552384D01*
X-3589724Y-4626012D01*
X-3503147Y-4683861D01*
X-3406948Y-4723708D01*
X-3304824Y-4744021D01*
X-3200698Y-4744021D01*
X-3098574Y-4723708D01*
X-3002375Y-4683861D01*
X-2915798Y-4626012D01*
X-2842170Y-4552384D01*
X-2784321Y-4465807D01*
X-2754634Y-4394136D01*
X-1583195Y-3222698D01*
X-1564942Y-3207718D01*
X-1549963Y-3189466D01*
X-1549959Y-3189462D01*
X-1505134Y-3134842D01*
X-1460693Y-3051699D01*
X-1460692Y-3051698D01*
X-1433326Y-2961482D01*
X-1426400Y-2891164D01*
X-1426400Y-2891156D01*
X-1424086Y-2867660D01*
X-1426400Y-2844164D01*
X-1426400Y-2734810D01*
X-1332845Y-2641255D01*
X-1270000Y-2547200D01*
X-1207155Y-2641255D01*
X-1104555Y-2743855D01*
X-983911Y-2824466D01*
X-849858Y-2879993D01*
X-707549Y-2908300D01*
X-562451Y-2908300D01*
X-420142Y-2879993D01*
X-286089Y-2824466D01*
X-165445Y-2743855D01*
X-62845Y-2641255D01*
X17766Y-2520611D01*
X73293Y-2386558D01*
X101600Y-2244249D01*
X101600Y-2099151D01*
X73293Y-1956842D01*
X17766Y-1822789D01*
X-62845Y-1702145D01*
X-165445Y-1599545D01*
X-259500Y-1536700D01*
X-165445Y-1473855D01*
X-62845Y-1371255D01*
X0Y-1277200D01*
X62845Y-1371255D01*
X165445Y-1473855D01*
X286089Y-1554466D01*
X420142Y-1609993D01*
X562451Y-1638300D01*
X707549Y-1638300D01*
X787400Y-1622417D01*
X787400Y-1778000D01*
X791792Y-1822598D01*
X804801Y-1865481D01*
X825926Y-1905003D01*
X854355Y-1939645D01*
X888997Y-1968074D01*
X928519Y-1989199D01*
X971402Y-2002208D01*
X1016000Y-2006600D01*
X1186810Y-2006600D01*
X1168400Y-2099151D01*
X1168400Y-2244249D01*
X1196707Y-2386558D01*
X1252234Y-2520611D01*
X1332845Y-2641255D01*
X1435445Y-2743855D01*
X1556089Y-2824466D01*
X1690142Y-2879993D01*
X1832451Y-2908300D01*
X1977549Y-2908300D01*
X2119858Y-2879993D01*
X2253911Y-2824466D01*
X2374555Y-2743855D01*
X2477155Y-2641255D01*
X2540000Y-2547200D01*
X2602845Y-2641255D01*
X2705445Y-2743855D01*
X2826089Y-2824466D01*
X2960142Y-2879993D01*
X3102451Y-2908300D01*
X3247549Y-2908300D01*
X3389858Y-2879993D01*
X3523911Y-2824466D01*
X3644555Y-2743855D01*
X3747155Y-2641255D01*
X3810000Y-2547200D01*
X3872845Y-2641255D01*
X3975445Y-2743855D01*
X4096089Y-2824466D01*
X4230142Y-2879993D01*
X4372451Y-2908300D01*
X4517549Y-2908300D01*
X4659858Y-2879993D01*
X4793911Y-2824466D01*
X4914555Y-2743855D01*
X5017155Y-2641255D01*
X5097766Y-2520611D01*
X5153293Y-2386558D01*
X5181600Y-2244249D01*
X5181600Y-2099151D01*
X5153293Y-1956842D01*
X5099739Y-1827551D01*
X6190690Y-736600D01*
X6889179Y-736600D01*
X6911707Y-849858D01*
X6967234Y-983911D01*
X7047845Y-1104555D01*
X7150445Y-1207155D01*
X7244500Y-1270000D01*
X7150445Y-1332845D01*
X7047845Y-1435445D01*
X6967234Y-1556089D01*
X6911707Y-1690142D01*
X6883400Y-1832451D01*
X6883400Y-1977549D01*
X6911707Y-2119858D01*
X6967234Y-2253911D01*
X7047845Y-2374555D01*
X7150445Y-2477155D01*
X7271089Y-2557766D01*
X7405142Y-2613293D01*
X7547451Y-2641600D01*
X7692549Y-2641600D01*
X7834858Y-2613293D01*
X7968911Y-2557766D01*
X8089555Y-2477155D01*
X8192155Y-2374555D01*
X8255000Y-2280500D01*
X8317845Y-2374555D01*
X8420445Y-2477155D01*
X8541089Y-2557766D01*
X8675142Y-2613293D01*
X8817451Y-2641600D01*
X8962549Y-2641600D01*
X9104858Y-2613293D01*
X9238911Y-2557766D01*
X9359555Y-2477155D01*
X9462155Y-2374555D01*
X9542766Y-2253911D01*
X9598293Y-2119858D01*
X9626600Y-1977549D01*
X9626600Y-1832451D01*
X9598293Y-1690142D01*
X9542766Y-1556089D01*
X9462155Y-1435445D01*
X9359555Y-1332845D01*
X9265500Y-1270000D01*
X9359555Y-1207155D01*
X9462155Y-1104555D01*
X9542766Y-983911D01*
X9598293Y-849858D01*
X9620821Y-736600D01*
X10414000Y-736600D01*
X10458598Y-732208D01*
X10501481Y-719199D01*
X10541003Y-698074D01*
X10575645Y-669645D01*
X10604074Y-635003D01*
X10625199Y-595481D01*
X10638208Y-552598D01*
X10642600Y-508000D01*
X10642600Y5087467D01*
X11030813Y4970259D01*
X11424599Y4760880D01*
X11770220Y4478999D01*
X12054501Y4135361D01*
X12266626Y3743045D01*
X12398509Y3317003D01*
X12446385Y2861492D01*
X12446401Y2856900D01*
X12446400Y-3480093D01*
X12401662Y-3936363D01*
X12272759Y-4363313D01*
X12063377Y-4757102D01*
X11781497Y-5102722D01*
X11437861Y-5387001D01*
X11045546Y-5599126D01*
X10619498Y-5731009D01*
X10163993Y-5778885D01*
X10159685Y-5778900D01*
X-10147594Y-5778900D01*
X-10603863Y-5734162D01*
X-11030813Y-5605259D01*
X-11424602Y-5395877D01*
X-11770222Y-5113997D01*
X-12054501Y-4770361D01*
X-12266626Y-4378046D01*
X-12398509Y-3951998D01*
X-12446385Y-3496493D01*
X-12446400Y-3492185D01*
X-12446400Y2845094D01*
X-12401662Y3301364D01*
X-12272759Y3728313D01*
X-12063380Y4122099D01*
X-11781499Y4467720D01*
X-11437861Y4752001D01*
X-11045545Y4964126D01*
X-10619503Y5096009D01*
X-10163992Y5143885D01*
X-10159685Y5143900D01*
X-6425908Y5143900D01*
X-6401322Y5141489D01*
X-6401322Y5141489D01*
G37*
X-6401322Y5141489D02*
X-6389613Y5137954D01*
X-6378812Y5132211D01*
X-6369329Y5124477D01*
X-6361534Y5115055D01*
X-6355713Y5104289D01*
X-6352097Y5092608D01*
X-6349600Y5068853D01*
X-6349599Y3874998D01*
X-7115764Y4641162D01*
X-7130748Y4659420D01*
X-7203624Y4719228D01*
X-7286768Y4763670D01*
X-7376984Y4791036D01*
X-7447302Y4797962D01*
X-7447310Y4797962D01*
X-7470806Y4800276D01*
X-7494302Y4797962D01*
X-8080978Y4797962D01*
X-8104474Y4800276D01*
X-8127970Y4797962D01*
X-8127978Y4797962D01*
X-8198296Y4791036D01*
X-8288513Y4763670D01*
X-8371656Y4719228D01*
X-8426276Y4674403D01*
X-8426280Y4674399D01*
X-8444532Y4659420D01*
X-8459512Y4641167D01*
X-10169801Y2930877D01*
X-10188059Y2915893D01*
X-10247867Y2843017D01*
X-10292309Y2759872D01*
X-10319675Y2669656D01*
X-10326601Y2599338D01*
X-10326601Y2599331D01*
X-10328915Y2575835D01*
X-10326601Y2552339D01*
X-10326600Y898087D01*
X-10328915Y874581D01*
X-10319675Y780760D01*
X-10292308Y690543D01*
X-10247867Y607400D01*
X-10203042Y552780D01*
X-10203037Y552775D01*
X-10188058Y534523D01*
X-10169806Y519544D01*
X-9963462Y313200D01*
X-9948478Y294942D01*
X-9875602Y235134D01*
X-9792458Y190692D01*
X-9702242Y163326D01*
X-9631924Y156400D01*
X-9631916Y156400D01*
X-9608420Y154086D01*
X-9584924Y156400D01*
X-9453110Y156400D01*
X-9359555Y62845D01*
X-9265500Y0D01*
X-9359555Y-62845D01*
X-9462155Y-165445D01*
X-9542766Y-286089D01*
X-9598293Y-420142D01*
X-9626600Y-562451D01*
X-9626600Y-707549D01*
X-9598293Y-849858D01*
X-9542766Y-983911D01*
X-9462155Y-1104555D01*
X-9359555Y-1207155D01*
X-9238911Y-1287766D01*
X-9104858Y-1343293D01*
X-8962549Y-1371600D01*
X-8817451Y-1371600D01*
X-8675142Y-1343293D01*
X-8541089Y-1287766D01*
X-8420445Y-1207155D01*
X-8317845Y-1104555D01*
X-8237234Y-983911D01*
X-8181707Y-849858D01*
X-8153400Y-707549D01*
X-8153400Y-562451D01*
X-8181707Y-420142D01*
X-8237234Y-286089D01*
X-8317845Y-165445D01*
X-8420445Y-62845D01*
X-8514500Y0D01*
X-8420445Y62845D01*
X-8317845Y165445D01*
X-8255000Y259500D01*
X-8192155Y165445D01*
X-8089555Y62845D01*
X-7968911Y-17766D01*
X-7834858Y-73293D01*
X-7692549Y-101600D01*
X-7547451Y-101600D01*
X-7405142Y-73293D01*
X-7271089Y-17766D01*
X-7150445Y62845D01*
X-7047845Y165445D01*
X-6967234Y286089D01*
X-6911707Y420142D01*
X-6883400Y562451D01*
X-6883400Y707549D01*
X-6911707Y849858D01*
X-6967234Y983911D01*
X-7047845Y1104555D01*
X-7150445Y1207155D01*
X-7244500Y1270000D01*
X-7150445Y1332845D01*
X-7047845Y1435445D01*
X-6967234Y1556089D01*
X-6911707Y1690142D01*
X-6883400Y1832451D01*
X-6883400Y1977549D01*
X-6911707Y2119858D01*
X-6967234Y2253911D01*
X-7047845Y2374555D01*
X-7141400Y2468110D01*
X-7141400Y3313113D01*
X-7096029Y3267743D01*
X-7096030Y2886498D01*
X-7098344Y2863001D01*
X-7096030Y2839505D01*
X-7096030Y2839498D01*
X-7090675Y2785131D01*
X-7089104Y2769179D01*
X-7078835Y2735327D01*
X-7061738Y2678964D01*
X-7017296Y2595819D01*
X-6957488Y2522943D01*
X-6939225Y2507955D01*
X-6539556Y2108285D01*
X-6524576Y2090032D01*
X-6506324Y2075053D01*
X-6506320Y2075049D01*
X-6451701Y2030225D01*
X-6451700Y2030224D01*
X-6368556Y1985782D01*
X-6278340Y1958416D01*
X-6208022Y1951490D01*
X-6208014Y1951490D01*
X-6184518Y1949176D01*
X-6161024Y1951490D01*
X-2176612Y1951490D01*
X134934Y-360056D01*
X62845Y-432145D01*
X0Y-526200D01*
X-62845Y-432145D01*
X-165445Y-329545D01*
X-286089Y-248934D01*
X-420142Y-193407D01*
X-562451Y-165100D01*
X-707549Y-165100D01*
X-849858Y-193407D01*
X-983911Y-248934D01*
X-1104555Y-329545D01*
X-1207155Y-432145D01*
X-1270000Y-526200D01*
X-1332845Y-432145D01*
X-1435445Y-329545D01*
X-1556089Y-248934D01*
X-1690142Y-193407D01*
X-1832451Y-165100D01*
X-1977549Y-165100D01*
X-2119858Y-193407D01*
X-2253911Y-248934D01*
X-2374555Y-329545D01*
X-2477155Y-432145D01*
X-2557766Y-552789D01*
X-2613293Y-686842D01*
X-2641600Y-829151D01*
X-2641600Y-974249D01*
X-2613293Y-1116558D01*
X-2557766Y-1250611D01*
X-2477155Y-1371255D01*
X-2374555Y-1473855D01*
X-2280500Y-1536700D01*
X-2374555Y-1599545D01*
X-2477155Y-1702145D01*
X-2540000Y-1796200D01*
X-2602845Y-1702145D01*
X-2705445Y-1599545D01*
X-2826089Y-1518934D01*
X-2960142Y-1463407D01*
X-3102451Y-1435100D01*
X-3247549Y-1435100D01*
X-3389858Y-1463407D01*
X-3523911Y-1518934D01*
X-3644555Y-1599545D01*
X-3747155Y-1702145D01*
X-3827766Y-1822789D01*
X-3883293Y-1956842D01*
X-3911600Y-2099151D01*
X-3911600Y-2244249D01*
X-3883293Y-2386558D01*
X-3827766Y-2520611D01*
X-3747155Y-2641255D01*
X-3644555Y-2743855D01*
X-3523911Y-2824466D01*
X-3389858Y-2879993D01*
X-3247549Y-2908300D01*
X-3102451Y-2908300D01*
X-2960142Y-2879993D01*
X-2826089Y-2824466D01*
X-2705445Y-2743855D01*
X-2602845Y-2641255D01*
X-2540000Y-2547200D01*
X-2477155Y-2641255D01*
X-2416296Y-2702114D01*
X-3431476Y-3717294D01*
X-3503147Y-3746981D01*
X-3589724Y-3804830D01*
X-3663352Y-3878458D01*
X-3721201Y-3965035D01*
X-3761048Y-4061234D01*
X-3781361Y-4163358D01*
X-3781361Y-4267484D01*
X-3761048Y-4369608D01*
X-3721201Y-4465807D01*
X-3663352Y-4552384D01*
X-3589724Y-4626012D01*
X-3503147Y-4683861D01*
X-3406948Y-4723708D01*
X-3304824Y-4744021D01*
X-3200698Y-4744021D01*
X-3098574Y-4723708D01*
X-3002375Y-4683861D01*
X-2915798Y-4626012D01*
X-2842170Y-4552384D01*
X-2784321Y-4465807D01*
X-2754634Y-4394136D01*
X-1583195Y-3222698D01*
X-1564942Y-3207718D01*
X-1549963Y-3189466D01*
X-1549959Y-3189462D01*
X-1505134Y-3134842D01*
X-1460693Y-3051699D01*
X-1460692Y-3051698D01*
X-1433326Y-2961482D01*
X-1426400Y-2891164D01*
X-1426400Y-2891156D01*
X-1424086Y-2867660D01*
X-1426400Y-2844164D01*
X-1426400Y-2734810D01*
X-1332845Y-2641255D01*
X-1270000Y-2547200D01*
X-1207155Y-2641255D01*
X-1104555Y-2743855D01*
X-983911Y-2824466D01*
X-849858Y-2879993D01*
X-707549Y-2908300D01*
X-562451Y-2908300D01*
X-420142Y-2879993D01*
X-286089Y-2824466D01*
X-165445Y-2743855D01*
X-62845Y-2641255D01*
X17766Y-2520611D01*
X73293Y-2386558D01*
X101600Y-2244249D01*
X101600Y-2099151D01*
X73293Y-1956842D01*
X17766Y-1822789D01*
X-62845Y-1702145D01*
X-165445Y-1599545D01*
X-259500Y-1536700D01*
X-165445Y-1473855D01*
X-62845Y-1371255D01*
X0Y-1277200D01*
X62845Y-1371255D01*
X165445Y-1473855D01*
X286089Y-1554466D01*
X420142Y-1609993D01*
X562451Y-1638300D01*
X707549Y-1638300D01*
X787400Y-1622417D01*
X787400Y-1778000D01*
X791792Y-1822598D01*
X804801Y-1865481D01*
X825926Y-1905003D01*
X854355Y-1939645D01*
X888997Y-1968074D01*
X928519Y-1989199D01*
X971402Y-2002208D01*
X1016000Y-2006600D01*
X1186810Y-2006600D01*
X1168400Y-2099151D01*
X1168400Y-2244249D01*
X1196707Y-2386558D01*
X1252234Y-2520611D01*
X1332845Y-2641255D01*
X1435445Y-2743855D01*
X1556089Y-2824466D01*
X1690142Y-2879993D01*
X1832451Y-2908300D01*
X1977549Y-2908300D01*
X2119858Y-2879993D01*
X2253911Y-2824466D01*
X2374555Y-2743855D01*
X2477155Y-2641255D01*
X2540000Y-2547200D01*
X2602845Y-2641255D01*
X2705445Y-2743855D01*
X2826089Y-2824466D01*
X2960142Y-2879993D01*
X3102451Y-2908300D01*
X3247549Y-2908300D01*
X3389858Y-2879993D01*
X3523911Y-2824466D01*
X3644555Y-2743855D01*
X3747155Y-2641255D01*
X3810000Y-2547200D01*
X3872845Y-2641255D01*
X3975445Y-2743855D01*
X4096089Y-2824466D01*
X4230142Y-2879993D01*
X4372451Y-2908300D01*
X4517549Y-2908300D01*
X4659858Y-2879993D01*
X4793911Y-2824466D01*
X4914555Y-2743855D01*
X5017155Y-2641255D01*
X5097766Y-2520611D01*
X5153293Y-2386558D01*
X5181600Y-2244249D01*
X5181600Y-2099151D01*
X5153293Y-1956842D01*
X5099739Y-1827551D01*
X6190690Y-736600D01*
X6889179Y-736600D01*
X6911707Y-849858D01*
X6967234Y-983911D01*
X7047845Y-1104555D01*
X7150445Y-1207155D01*
X7244500Y-1270000D01*
X7150445Y-1332845D01*
X7047845Y-1435445D01*
X6967234Y-1556089D01*
X6911707Y-1690142D01*
X6883400Y-1832451D01*
X6883400Y-1977549D01*
X6911707Y-2119858D01*
X6967234Y-2253911D01*
X7047845Y-2374555D01*
X7150445Y-2477155D01*
X7271089Y-2557766D01*
X7405142Y-2613293D01*
X7547451Y-2641600D01*
X7692549Y-2641600D01*
X7834858Y-2613293D01*
X7968911Y-2557766D01*
X8089555Y-2477155D01*
X8192155Y-2374555D01*
X8255000Y-2280500D01*
X8317845Y-2374555D01*
X8420445Y-2477155D01*
X8541089Y-2557766D01*
X8675142Y-2613293D01*
X8817451Y-2641600D01*
X8962549Y-2641600D01*
X9104858Y-2613293D01*
X9238911Y-2557766D01*
X9359555Y-2477155D01*
X9462155Y-2374555D01*
X9542766Y-2253911D01*
X9598293Y-2119858D01*
X9626600Y-1977549D01*
X9626600Y-1832451D01*
X9598293Y-1690142D01*
X9542766Y-1556089D01*
X9462155Y-1435445D01*
X9359555Y-1332845D01*
X9265500Y-1270000D01*
X9359555Y-1207155D01*
X9462155Y-1104555D01*
X9542766Y-983911D01*
X9598293Y-849858D01*
X9620821Y-736600D01*
X10414000Y-736600D01*
X10458598Y-732208D01*
X10501481Y-719199D01*
X10541003Y-698074D01*
X10575645Y-669645D01*
X10604074Y-635003D01*
X10625199Y-595481D01*
X10638208Y-552598D01*
X10642600Y-508000D01*
X10642600Y5087467D01*
X11030813Y4970259D01*
X11424599Y4760880D01*
X11770220Y4478999D01*
X12054501Y4135361D01*
X12266626Y3743045D01*
X12398509Y3317003D01*
X12446385Y2861492D01*
X12446401Y2856900D01*
X12446400Y-3480093D01*
X12401662Y-3936363D01*
X12272759Y-4363313D01*
X12063377Y-4757102D01*
X11781497Y-5102722D01*
X11437861Y-5387001D01*
X11045546Y-5599126D01*
X10619498Y-5731009D01*
X10163993Y-5778885D01*
X10159685Y-5778900D01*
X-10147594Y-5778900D01*
X-10603863Y-5734162D01*
X-11030813Y-5605259D01*
X-11424602Y-5395877D01*
X-11770222Y-5113997D01*
X-12054501Y-4770361D01*
X-12266626Y-4378046D01*
X-12398509Y-3951998D01*
X-12446385Y-3496493D01*
X-12446400Y-3492185D01*
X-12446400Y2845094D01*
X-12401662Y3301364D01*
X-12272759Y3728313D01*
X-12063380Y4122099D01*
X-11781499Y4467720D01*
X-11437861Y4752001D01*
X-11045545Y4964126D01*
X-10619503Y5096009D01*
X-10163992Y5143885D01*
X-10159685Y5143900D01*
X-6425908Y5143900D01*
X-6401322Y5141489D01*
G36*
X10337800Y5125250D02*
G01*
X10337800Y-431800D01*
X9600612Y-431800D01*
X9598293Y-420142D01*
X9542766Y-286089D01*
X9462155Y-165445D01*
X9359555Y-62845D01*
X9238911Y17766D01*
X9104858Y73293D01*
X8962549Y101600D01*
X8817451Y101600D01*
X8675142Y73293D01*
X8541089Y17766D01*
X8420445Y-62845D01*
X8317845Y-165445D01*
X8255000Y-259500D01*
X8192155Y-165445D01*
X8089555Y-62845D01*
X7995500Y0D01*
X8089555Y62845D01*
X8192155Y165445D01*
X8272766Y286089D01*
X8328293Y420142D01*
X8356600Y562451D01*
X8356600Y707549D01*
X8328293Y849858D01*
X8272766Y983911D01*
X8192155Y1104555D01*
X8089555Y1207155D01*
X7968911Y1287766D01*
X7834858Y1343293D01*
X7692549Y1371600D01*
X7547451Y1371600D01*
X7405142Y1343293D01*
X7271089Y1287766D01*
X7150445Y1207155D01*
X7047845Y1104555D01*
X6967234Y983911D01*
X6911707Y849858D01*
X6883400Y707549D01*
X6883400Y562451D01*
X6911707Y420142D01*
X6967234Y286089D01*
X7047845Y165445D01*
X7150445Y62845D01*
X7244500Y0D01*
X7150445Y-62845D01*
X7047845Y-165445D01*
X6967234Y-286089D01*
X6911707Y-420142D01*
X6909388Y-431800D01*
X6096000Y-431800D01*
X6081134Y-433264D01*
X6066840Y-437600D01*
X6053666Y-444642D01*
X6042118Y-454118D01*
X4903846Y-1592390D01*
X4793911Y-1518934D01*
X4659858Y-1463407D01*
X4517549Y-1435100D01*
X4372451Y-1435100D01*
X4230142Y-1463407D01*
X4096089Y-1518934D01*
X3975445Y-1599545D01*
X3873190Y-1701800D01*
X3746810Y-1701800D01*
X3644555Y-1599545D01*
X3523911Y-1518934D01*
X3389858Y-1463407D01*
X3247549Y-1435100D01*
X3102451Y-1435100D01*
X2960142Y-1463407D01*
X2826089Y-1518934D01*
X2705445Y-1599545D01*
X2603190Y-1701800D01*
X2476810Y-1701800D01*
X2374555Y-1599545D01*
X2253911Y-1518934D01*
X2119858Y-1463407D01*
X1977549Y-1435100D01*
X1832451Y-1435100D01*
X1690142Y-1463407D01*
X1556089Y-1518934D01*
X1435445Y-1599545D01*
X1333190Y-1701800D01*
X1206810Y-1701800D01*
X1104555Y-1599545D01*
X1092200Y-1591290D01*
X1092200Y-1482110D01*
X1104555Y-1473855D01*
X1207155Y-1371255D01*
X1287766Y-1250611D01*
X1343293Y-1116558D01*
X1371600Y-974249D01*
X1371600Y-829151D01*
X1343293Y-686842D01*
X1287766Y-552789D01*
X1207155Y-432145D01*
X1113600Y-338590D01*
X1113600Y-206773D01*
X1115914Y-183279D01*
X1113600Y-159786D01*
X1113600Y-159776D01*
X1106674Y-89458D01*
X1092200Y-41742D01*
X1092200Y222436D01*
X3473664Y2603900D01*
X5790959Y2603900D01*
X5801778Y2604965D01*
X5803701Y2604952D01*
X5807225Y2605297D01*
X5868850Y2611774D01*
X5891394Y2616402D01*
X5913941Y2620703D01*
X5917331Y2621726D01*
X5976525Y2640049D01*
X5997715Y2648956D01*
X6019030Y2657568D01*
X6022156Y2659230D01*
X6076664Y2688703D01*
X6095729Y2701563D01*
X6114950Y2714141D01*
X6117694Y2716379D01*
X6117697Y2716381D01*
X6117700Y2716384D01*
X6165439Y2755877D01*
X6181639Y2772190D01*
X6198058Y2788269D01*
X6200316Y2790997D01*
X6239478Y2839016D01*
X6252190Y2858148D01*
X6265183Y2877125D01*
X6266867Y2880240D01*
X6295958Y2934951D01*
X6304726Y2956224D01*
X6313772Y2977329D01*
X6314819Y2980712D01*
X6332729Y3040033D01*
X6337193Y3062579D01*
X6341972Y3085061D01*
X6342343Y3088583D01*
X6348390Y3150252D01*
X6348390Y3150255D01*
X6349600Y3162541D01*
X6349600Y5067592D01*
X6352011Y5092178D01*
X6355546Y5103887D01*
X6361289Y5114688D01*
X6369023Y5124171D01*
X6378445Y5131966D01*
X6389211Y5137787D01*
X6400892Y5141403D01*
X6424652Y5143900D01*
X10147594Y5143900D01*
X10337800Y5125250D01*
X10337800Y5125250D01*
G37*
X10337800Y5125250D02*
X10337800Y-431800D01*
X9600612Y-431800D01*
X9598293Y-420142D01*
X9542766Y-286089D01*
X9462155Y-165445D01*
X9359555Y-62845D01*
X9238911Y17766D01*
X9104858Y73293D01*
X8962549Y101600D01*
X8817451Y101600D01*
X8675142Y73293D01*
X8541089Y17766D01*
X8420445Y-62845D01*
X8317845Y-165445D01*
X8255000Y-259500D01*
X8192155Y-165445D01*
X8089555Y-62845D01*
X7995500Y0D01*
X8089555Y62845D01*
X8192155Y165445D01*
X8272766Y286089D01*
X8328293Y420142D01*
X8356600Y562451D01*
X8356600Y707549D01*
X8328293Y849858D01*
X8272766Y983911D01*
X8192155Y1104555D01*
X8089555Y1207155D01*
X7968911Y1287766D01*
X7834858Y1343293D01*
X7692549Y1371600D01*
X7547451Y1371600D01*
X7405142Y1343293D01*
X7271089Y1287766D01*
X7150445Y1207155D01*
X7047845Y1104555D01*
X6967234Y983911D01*
X6911707Y849858D01*
X6883400Y707549D01*
X6883400Y562451D01*
X6911707Y420142D01*
X6967234Y286089D01*
X7047845Y165445D01*
X7150445Y62845D01*
X7244500Y0D01*
X7150445Y-62845D01*
X7047845Y-165445D01*
X6967234Y-286089D01*
X6911707Y-420142D01*
X6909388Y-431800D01*
X6096000Y-431800D01*
X6081134Y-433264D01*
X6066840Y-437600D01*
X6053666Y-444642D01*
X6042118Y-454118D01*
X4903846Y-1592390D01*
X4793911Y-1518934D01*
X4659858Y-1463407D01*
X4517549Y-1435100D01*
X4372451Y-1435100D01*
X4230142Y-1463407D01*
X4096089Y-1518934D01*
X3975445Y-1599545D01*
X3873190Y-1701800D01*
X3746810Y-1701800D01*
X3644555Y-1599545D01*
X3523911Y-1518934D01*
X3389858Y-1463407D01*
X3247549Y-1435100D01*
X3102451Y-1435100D01*
X2960142Y-1463407D01*
X2826089Y-1518934D01*
X2705445Y-1599545D01*
X2603190Y-1701800D01*
X2476810Y-1701800D01*
X2374555Y-1599545D01*
X2253911Y-1518934D01*
X2119858Y-1463407D01*
X1977549Y-1435100D01*
X1832451Y-1435100D01*
X1690142Y-1463407D01*
X1556089Y-1518934D01*
X1435445Y-1599545D01*
X1333190Y-1701800D01*
X1206810Y-1701800D01*
X1104555Y-1599545D01*
X1092200Y-1591290D01*
X1092200Y-1482110D01*
X1104555Y-1473855D01*
X1207155Y-1371255D01*
X1287766Y-1250611D01*
X1343293Y-1116558D01*
X1371600Y-974249D01*
X1371600Y-829151D01*
X1343293Y-686842D01*
X1287766Y-552789D01*
X1207155Y-432145D01*
X1113600Y-338590D01*
X1113600Y-206773D01*
X1115914Y-183279D01*
X1113600Y-159786D01*
X1113600Y-159776D01*
X1106674Y-89458D01*
X1092200Y-41742D01*
X1092200Y222436D01*
X3473664Y2603900D01*
X5790959Y2603900D01*
X5801778Y2604965D01*
X5803701Y2604952D01*
X5807225Y2605297D01*
X5868850Y2611774D01*
X5891394Y2616402D01*
X5913941Y2620703D01*
X5917331Y2621726D01*
X5976525Y2640049D01*
X5997715Y2648956D01*
X6019030Y2657568D01*
X6022156Y2659230D01*
X6076664Y2688703D01*
X6095729Y2701563D01*
X6114950Y2714141D01*
X6117694Y2716379D01*
X6117697Y2716381D01*
X6117700Y2716384D01*
X6165439Y2755877D01*
X6181639Y2772190D01*
X6198058Y2788269D01*
X6200316Y2790997D01*
X6239478Y2839016D01*
X6252190Y2858148D01*
X6265183Y2877125D01*
X6266867Y2880240D01*
X6295958Y2934951D01*
X6304726Y2956224D01*
X6313772Y2977329D01*
X6314819Y2980712D01*
X6332729Y3040033D01*
X6337193Y3062579D01*
X6341972Y3085061D01*
X6342343Y3088583D01*
X6348390Y3150252D01*
X6348390Y3150255D01*
X6349600Y3162541D01*
X6349600Y5067592D01*
X6352011Y5092178D01*
X6355546Y5103887D01*
X6361289Y5114688D01*
X6369023Y5124171D01*
X6378445Y5131966D01*
X6389211Y5137787D01*
X6400892Y5141403D01*
X6424652Y5143900D01*
X10147594Y5143900D01*
X10337800Y5125250D01*
M02*
