M48
; DRILL file {KiCad (5.1.4)-1} date 12/23/2019 10:57:37 AM
; FORMAT={2:4/ absolute / inch / suppress leading zeros}
; #@! TF.CreationDate,2019-12-23T10:57:37-10:00
; #@! TF.GenerationSoftware,Kicad,Pcbnew,(5.1.4)-1
FMAT,2
INCH,TZ
T1C0.0118
T2C0.0240
T3C0.0280
%
G90
G05
T1
X-4500Y1450
X-4500Y72
X-4500Y-1250
X-3700Y-2022
X-3074Y1424
X-2386Y-2079
X-2300Y-800
X-1281Y-1660
X-1018Y-2058
X539Y-1465
X3350Y-2100
X4500Y1350
X4500Y200
X4500Y-1050
T2
X-3500Y750
X-3500Y250
X-3500Y-250
X-3500Y-750
X-3000Y750
X-3000Y250
X-3000Y-250
X-3000Y-750
X3000Y750
X3000Y250
X3000Y-250
X3000Y-750
X3500Y750
X3500Y250
X3500Y-250
X3500Y-750
T3
X-1750Y-355
X-1750Y-855
X-1250Y-355
X-1250Y-855
X-750Y-355
X-750Y-855
X-250Y-355
X-250Y-855
X250Y-355
X250Y-855
X750Y-355
X750Y-855
X1250Y-355
X1250Y-855
X1750Y-355
X1750Y-855
T0
M30
