G04 #@! TF.GenerationSoftware,KiCad,Pcbnew,(5.1.4)-1*
G04 #@! TF.CreationDate,2019-12-23T10:57:35-10:00*
G04 #@! TF.ProjectId,SkateLightConnBoard,536b6174-654c-4696-9768-74436f6e6e42,rev?*
G04 #@! TF.SameCoordinates,Original*
G04 #@! TF.FileFunction,Legend,Top*
G04 #@! TF.FilePolarity,Positive*
%FSLAX46Y46*%
G04 Gerber Fmt 4.6, Leading zero omitted, Abs format (unit mm)*
G04 Created by KiCad (PCBNEW (5.1.4)-1) date 2019-12-23 10:57:35*
%MOMM*%
%LPD*%
G04 APERTURE LIST*
%ADD10C,0.203200*%
%ADD11C,0.120000*%
G04 APERTURE END LIST*
D10*
X-4572000Y1493761D02*
X-4426857Y1445380D01*
X-4184952Y1445380D01*
X-4088190Y1493761D01*
X-4039809Y1542142D01*
X-3991428Y1638904D01*
X-3991428Y1735666D01*
X-4039809Y1832428D01*
X-4088190Y1880809D01*
X-4184952Y1929190D01*
X-4378476Y1977571D01*
X-4475238Y2025952D01*
X-4523619Y2074333D01*
X-4572000Y2171095D01*
X-4572000Y2267857D01*
X-4523619Y2364619D01*
X-4475238Y2413000D01*
X-4378476Y2461380D01*
X-4136571Y2461380D01*
X-3991428Y2413000D01*
X-3072190Y1445380D02*
X-3556000Y1445380D01*
X-3556000Y2461380D01*
X-1378857Y1542142D02*
X-1427238Y1493761D01*
X-1572380Y1445380D01*
X-1669142Y1445380D01*
X-1814285Y1493761D01*
X-1911047Y1590523D01*
X-1959428Y1687285D01*
X-2007809Y1880809D01*
X-2007809Y2025952D01*
X-1959428Y2219476D01*
X-1911047Y2316238D01*
X-1814285Y2413000D01*
X-1669142Y2461380D01*
X-1572380Y2461380D01*
X-1427238Y2413000D01*
X-1378857Y2364619D01*
X-798285Y1445380D02*
X-895047Y1493761D01*
X-943428Y1542142D01*
X-991809Y1638904D01*
X-991809Y1929190D01*
X-943428Y2025952D01*
X-895047Y2074333D01*
X-798285Y2122714D01*
X-653142Y2122714D01*
X-556380Y2074333D01*
X-508000Y2025952D01*
X-459619Y1929190D01*
X-459619Y1638904D01*
X-508000Y1542142D01*
X-556380Y1493761D01*
X-653142Y1445380D01*
X-798285Y1445380D01*
X-24190Y2122714D02*
X-24190Y1445380D01*
X-24190Y2025952D02*
X24190Y2074333D01*
X120952Y2122714D01*
X266095Y2122714D01*
X362857Y2074333D01*
X411238Y1977571D01*
X411238Y1445380D01*
X895047Y2122714D02*
X895047Y1445380D01*
X895047Y2025952D02*
X943428Y2074333D01*
X1040190Y2122714D01*
X1185333Y2122714D01*
X1282095Y2074333D01*
X1330476Y1977571D01*
X1330476Y1445380D01*
X3120571Y1445380D02*
X2539999Y1445380D01*
X2830285Y1445380D02*
X2830285Y2461380D01*
X2733523Y2316238D01*
X2636761Y2219476D01*
X2539999Y2171095D01*
X3555999Y1542142D02*
X3604380Y1493761D01*
X3555999Y1445380D01*
X3507619Y1493761D01*
X3555999Y1542142D01*
X3555999Y1445380D01*
X3991428Y2364619D02*
X4039809Y2413000D01*
X4136571Y2461380D01*
X4378476Y2461380D01*
X4475238Y2413000D01*
X4523619Y2364619D01*
X4572000Y2267857D01*
X4572000Y2171095D01*
X4523619Y2025952D01*
X3943047Y1445380D01*
X4572000Y1445380D01*
D11*
X6477000Y2540000D02*
X10033000Y2540000D01*
X10033000Y2540000D02*
X10033000Y-2540000D01*
X10033000Y-2540000D02*
X6477000Y-2540000D01*
X6477000Y-2540000D02*
X6477000Y2540000D01*
X-10033000Y-2540000D02*
X-10033000Y2540000D01*
X-6477000Y-2540000D02*
X-10033000Y-2540000D01*
X-6477000Y2540000D02*
X-6477000Y-2540000D01*
X-10033000Y2540000D02*
X-6477000Y2540000D01*
M02*
