G04 #@! TF.GenerationSoftware,KiCad,Pcbnew,(5.1.4)-1*
G04 #@! TF.CreationDate,2019-12-23T10:57:35-10:00*
G04 #@! TF.ProjectId,SkateLightConnBoard,536b6174-654c-4696-9768-74436f6e6e42,rev?*
G04 #@! TF.SameCoordinates,Original*
G04 #@! TF.FileFunction,Legend,Bot*
G04 #@! TF.FilePolarity,Positive*
%FSLAX46Y46*%
G04 Gerber Fmt 4.6, Leading zero omitted, Abs format (unit mm)*
G04 Created by KiCad (PCBNEW (5.1.4)-1) date 2019-12-23 10:57:35*
%MOMM*%
%LPD*%
G04 APERTURE LIST*
%ADD10C,0.203200*%
%ADD11C,0.120000*%
G04 APERTURE END LIST*
D10*
X5539619Y1445380D02*
X5539619Y2461380D01*
X5297714Y2461380D01*
X5152571Y2413000D01*
X5055809Y2316238D01*
X5007428Y2219476D01*
X4959047Y2025952D01*
X4959047Y1880809D01*
X5007428Y1687285D01*
X5055809Y1590523D01*
X5152571Y1493761D01*
X5297714Y1445380D01*
X5539619Y1445380D01*
X4523619Y1542142D02*
X4475238Y1493761D01*
X4523619Y1445380D01*
X4572000Y1493761D01*
X4523619Y1542142D01*
X4523619Y1445380D01*
X4088190Y1735666D02*
X3604380Y1735666D01*
X4184952Y1445380D02*
X3846285Y2461380D01*
X3507619Y1445380D01*
X3168952Y1542142D02*
X3120571Y1493761D01*
X3168952Y1445380D01*
X3217333Y1493761D01*
X3168952Y1542142D01*
X3168952Y1445380D01*
X1378857Y1445380D02*
X1959428Y1445380D01*
X1669142Y1445380D02*
X1669142Y2461380D01*
X1765904Y2316238D01*
X1862666Y2219476D01*
X1959428Y2171095D01*
X991809Y2364619D02*
X943428Y2413000D01*
X846666Y2461380D01*
X604761Y2461380D01*
X507999Y2413000D01*
X459619Y2364619D01*
X411238Y2267857D01*
X411238Y2171095D01*
X459619Y2025952D01*
X1040190Y1445380D01*
X411238Y1445380D01*
X-749904Y2509761D02*
X120952Y1203476D01*
X-1040190Y2364619D02*
X-1088571Y2413000D01*
X-1185333Y2461380D01*
X-1427238Y2461380D01*
X-1524000Y2413000D01*
X-1572380Y2364619D01*
X-1620761Y2267857D01*
X-1620761Y2171095D01*
X-1572380Y2025952D01*
X-991809Y1445380D01*
X-1620761Y1445380D01*
X-2007809Y2364619D02*
X-2056190Y2413000D01*
X-2152952Y2461380D01*
X-2394857Y2461380D01*
X-2491619Y2413000D01*
X-2540000Y2364619D01*
X-2588380Y2267857D01*
X-2588380Y2171095D01*
X-2540000Y2025952D01*
X-1959428Y1445380D01*
X-2588380Y1445380D01*
X-3749523Y2509761D02*
X-2878666Y1203476D01*
X-4620380Y1445380D02*
X-4039809Y1445380D01*
X-4330095Y1445380D02*
X-4330095Y2461380D01*
X-4233333Y2316238D01*
X-4136571Y2219476D01*
X-4039809Y2171095D01*
X-5104190Y1445380D02*
X-5297714Y1445380D01*
X-5394476Y1493761D01*
X-5442857Y1542142D01*
X-5539619Y1687285D01*
X-5588000Y1880809D01*
X-5588000Y2267857D01*
X-5539619Y2364619D01*
X-5491238Y2413000D01*
X-5394476Y2461380D01*
X-5200952Y2461380D01*
X-5104190Y2413000D01*
X-5055809Y2364619D01*
X-5007428Y2267857D01*
X-5007428Y2025952D01*
X-5055809Y1929190D01*
X-5104190Y1880809D01*
X-5200952Y1832428D01*
X-5394476Y1832428D01*
X-5491238Y1880809D01*
X-5539619Y1929190D01*
X-5588000Y2025952D01*
D11*
X5080000Y241300D02*
X-5080000Y241300D01*
X5080000Y-3314700D02*
X5080000Y241300D01*
X-5080000Y-3314700D02*
X5080000Y-3314700D01*
X-5080000Y241300D02*
X-5080000Y-3314700D01*
M02*
