G04 #@! TF.GenerationSoftware,KiCad,Pcbnew,(5.1.4)-1*
G04 #@! TF.CreationDate,2019-12-23T10:57:34-10:00*
G04 #@! TF.ProjectId,SkateLightConnBoard,536b6174-654c-4696-9768-74436f6e6e42,rev?*
G04 #@! TF.SameCoordinates,Original*
G04 #@! TF.FileFunction,Copper,L1,Top*
G04 #@! TF.FilePolarity,Positive*
%FSLAX46Y46*%
G04 Gerber Fmt 4.6, Leading zero omitted, Abs format (unit mm)*
G04 Created by KiCad (PCBNEW (5.1.4)-1) date 2019-12-23 10:57:34*
%MOMM*%
%LPD*%
G04 APERTURE LIST*
%ADD10C,1.016000*%
%ADD11C,0.600000*%
%ADD12C,0.500000*%
%ADD13C,0.152400*%
G04 APERTURE END LIST*
D10*
X4445000Y-2171700D03*
X4445000Y-901700D03*
X3175000Y-2171700D03*
X3175000Y-901700D03*
X1905000Y-2171700D03*
X1905000Y-901700D03*
X635000Y-2171700D03*
X635000Y-901700D03*
X-635000Y-2171700D03*
X-635000Y-901700D03*
X-1905000Y-2171700D03*
X-1905000Y-901700D03*
X-3175000Y-2171700D03*
X-3175000Y-901700D03*
X-4445000Y-2171700D03*
X-4445000Y-901700D03*
X7620000Y1905000D03*
X8890000Y1905000D03*
X7620000Y635000D03*
X8890000Y635000D03*
X7620000Y-635000D03*
X8890000Y-635000D03*
X7620000Y-1905000D03*
X8890000Y-1905000D03*
X-7620000Y-1905000D03*
X-8890000Y-1905000D03*
X-7620000Y-635000D03*
X-8890000Y-635000D03*
X-7620000Y635000D03*
X-8890000Y635000D03*
X-7620000Y1905000D03*
X-8890000Y1905000D03*
D11*
X-6060440Y-5280660D03*
X-9398000Y-5135880D03*
X-11430000Y-3175000D03*
X-11430000Y182880D03*
X-11430000Y3683000D03*
X-2585720Y-5227320D03*
X1369060Y-3721100D03*
X-5842000Y-2032000D03*
X-7807960Y3616960D03*
X-3252761Y-4215421D03*
X8509000Y-5334000D03*
X11430000Y-2667000D03*
X11430000Y508000D03*
X11430000Y3429000D03*
D12*
X-8649831Y-3563011D02*
X-3847891Y-3563011D01*
X-9848001Y-2364841D02*
X-8649831Y-3563011D01*
X-9848001Y-874581D02*
X-9848001Y-2364841D01*
X-3847891Y-3563011D02*
X-3175000Y-2890120D01*
X-9608420Y-635000D02*
X-9848001Y-874581D01*
X-8890000Y-635000D02*
X-9608420Y-635000D01*
X-835389Y-5229731D02*
X-3175000Y-2890120D01*
X-3175000Y-2890120D02*
X-3175000Y-2171700D01*
X6912663Y-5229731D02*
X6123811Y-5229731D01*
X9800401Y-2341993D02*
X6912663Y-5229731D01*
X9800401Y-1468007D02*
X9800401Y-2341993D01*
X9326993Y-994599D02*
X9800401Y-1468007D01*
X9114979Y-994599D02*
X9326993Y-994599D01*
X6123811Y-5229731D02*
X-835389Y-5229731D01*
X8890000Y-769620D02*
X9114979Y-994599D01*
X8890000Y-635000D02*
X8890000Y-769620D01*
X-8890000Y2623420D02*
X-8890000Y1905000D01*
X-635000Y1257300D02*
X-1807790Y2430090D01*
X-1807790Y2430090D02*
X-6160677Y2430090D01*
X-6160677Y2430090D02*
X-6593588Y2863001D01*
X-6593588Y2863001D02*
X-8650419Y2863001D01*
X-635000Y-901700D02*
X-635000Y1257300D01*
X-8650419Y2863001D02*
X-8890000Y2623420D01*
X-7353300Y-901700D02*
X-7620000Y-635000D01*
X-4445000Y-901700D02*
X-7353300Y-901700D01*
X-635000Y-2890120D02*
X-635000Y-2171700D01*
X1004601Y-4529721D02*
X-635000Y-2890120D01*
X8382001Y-2412999D02*
X8890000Y-1905000D01*
X8382001Y-2784065D02*
X8382001Y-2412999D01*
X6636345Y-4529721D02*
X8382001Y-2784065D01*
X5122279Y-4529721D02*
X6636345Y-4529721D01*
X5122279Y-4529721D02*
X1004601Y-4529721D01*
X-8920068Y-4215421D02*
X-3252761Y-4215421D01*
X-10500411Y-2635078D02*
X-8920068Y-4215421D01*
X-10500411Y1935656D02*
X-10500411Y-2635078D01*
X-7807960Y3616960D02*
X-8819107Y3616960D01*
X-8819107Y3616960D02*
X-10500411Y1935656D01*
X1905000Y-2890120D02*
X1905000Y-2171700D01*
X2844591Y-3829711D02*
X1905000Y-2890120D01*
X3175000Y-2890120D02*
X3175000Y-2171700D01*
X3414581Y-3129701D02*
X3175000Y-2890120D01*
X-4952999Y-2679699D02*
X-4445000Y-2171700D01*
X-5136301Y-2863001D02*
X-4952999Y-2679699D01*
X-8079841Y-2863001D02*
X-5136301Y-2863001D01*
X6901580Y635000D02*
X7620000Y635000D01*
X4445000Y-2171700D02*
X5956300Y-2171700D01*
X5956300Y-2171700D02*
X6057189Y-2070811D01*
X6057189Y-1197770D02*
X6709599Y-545361D01*
X6057189Y-2070811D02*
X6057189Y-1197770D01*
X6709599Y-545361D02*
X6709599Y443019D01*
X6709599Y443019D02*
X6901580Y635000D01*
X7620000Y-2623420D02*
X7620000Y-1905000D01*
X6413709Y-3829711D02*
X7620000Y-2623420D01*
X4552289Y-3829711D02*
X6413709Y-3829711D01*
X4552289Y-3829711D02*
X2844591Y-3829711D01*
X6709599Y-2341993D02*
X6709599Y-1468007D01*
X5921891Y-3129701D02*
X6709599Y-2341993D01*
X5506299Y-3129701D02*
X5921891Y-3129701D01*
X5506299Y-3129701D02*
X3414581Y-3129701D01*
X6709599Y-1468007D02*
X7161606Y-1016000D01*
X7239000Y-1016000D02*
X7620000Y-635000D01*
X7161606Y-1016000D02*
X7239000Y-1016000D01*
X-1905000Y-183280D02*
X-1905000Y-901700D01*
X-2723280Y635000D02*
X-1905000Y-183280D01*
X-7620000Y635000D02*
X-2723280Y635000D01*
D13*
G36*
X-6401322Y5141489D02*
G01*
X-6389613Y5137954D01*
X-6378812Y5132211D01*
X-6369329Y5124477D01*
X-6361534Y5115055D01*
X-6355713Y5104289D01*
X-6352097Y5092608D01*
X-6349600Y5068853D01*
X-6349599Y3275264D01*
X-6409550Y3307309D01*
X-6499766Y3334675D01*
X-6570084Y3341601D01*
X-6570092Y3341601D01*
X-6593588Y3343915D01*
X-6617084Y3341601D01*
X-7356206Y3341601D01*
X-7339520Y3366574D01*
X-7299673Y3462773D01*
X-7279360Y3564897D01*
X-7279360Y3669023D01*
X-7299673Y3771147D01*
X-7339520Y3867346D01*
X-7397369Y3953923D01*
X-7470997Y4027551D01*
X-7557574Y4085400D01*
X-7653773Y4125247D01*
X-7755897Y4145560D01*
X-7860023Y4145560D01*
X-7962147Y4125247D01*
X-8033818Y4095560D01*
X-8795611Y4095560D01*
X-8819107Y4097874D01*
X-8842603Y4095560D01*
X-8842611Y4095560D01*
X-8912929Y4088634D01*
X-9003145Y4061268D01*
X-9078815Y4020821D01*
X-9086289Y4016826D01*
X-9140909Y3972001D01*
X-9140913Y3971997D01*
X-9159165Y3957018D01*
X-9174145Y3938765D01*
X-10822211Y2290698D01*
X-10840469Y2275714D01*
X-10900277Y2202838D01*
X-10944719Y2119693D01*
X-10972085Y2029477D01*
X-10979011Y1959159D01*
X-10979011Y1959152D01*
X-10981325Y1935656D01*
X-10979011Y1912160D01*
X-10979010Y-2611572D01*
X-10981325Y-2635078D01*
X-10972085Y-2728899D01*
X-10944718Y-2819116D01*
X-10900277Y-2902259D01*
X-10855452Y-2956879D01*
X-10855447Y-2956884D01*
X-10840468Y-2975136D01*
X-10822216Y-2990115D01*
X-9275106Y-4537226D01*
X-9260126Y-4555479D01*
X-9241874Y-4570458D01*
X-9241870Y-4570462D01*
X-9187250Y-4615287D01*
X-9104107Y-4659729D01*
X-9025748Y-4683498D01*
X-9013890Y-4687095D01*
X-8943572Y-4694021D01*
X-8943564Y-4694021D01*
X-8920068Y-4696335D01*
X-8896572Y-4694021D01*
X-3478619Y-4694021D01*
X-3406948Y-4723708D01*
X-3304824Y-4744021D01*
X-3200698Y-4744021D01*
X-3098574Y-4723708D01*
X-3002375Y-4683861D01*
X-2915798Y-4626012D01*
X-2842170Y-4552384D01*
X-2784321Y-4465807D01*
X-2744474Y-4369608D01*
X-2724161Y-4267484D01*
X-2724161Y-4163358D01*
X-2744474Y-4061234D01*
X-2784321Y-3965035D01*
X-2799210Y-3942753D01*
X-1190427Y-5551536D01*
X-1175447Y-5569789D01*
X-1157195Y-5584768D01*
X-1157191Y-5584772D01*
X-1110607Y-5623002D01*
X-1102571Y-5629597D01*
X-1019427Y-5674039D01*
X-929211Y-5701405D01*
X-858893Y-5708331D01*
X-858885Y-5708331D01*
X-835389Y-5710645D01*
X-811893Y-5708331D01*
X6889167Y-5708331D01*
X6912663Y-5710645D01*
X6936159Y-5708331D01*
X6936167Y-5708331D01*
X7006485Y-5701405D01*
X7096701Y-5674039D01*
X7179845Y-5629597D01*
X7252721Y-5569789D01*
X7267705Y-5551531D01*
X10122201Y-2697035D01*
X10140459Y-2682051D01*
X10200267Y-2609175D01*
X10244709Y-2526031D01*
X10272075Y-2435815D01*
X10279001Y-2365497D01*
X10279001Y-2365487D01*
X10281315Y-2341994D01*
X10279001Y-2318500D01*
X10279001Y-1491502D01*
X10281315Y-1468006D01*
X10279001Y-1444510D01*
X10279001Y-1444503D01*
X10272075Y-1374185D01*
X10244709Y-1283969D01*
X10200267Y-1200825D01*
X10174052Y-1168882D01*
X10155442Y-1146205D01*
X10155438Y-1146201D01*
X10140459Y-1127949D01*
X10122206Y-1112969D01*
X9745836Y-736600D01*
X10414000Y-736600D01*
X10458598Y-732208D01*
X10501481Y-719199D01*
X10541003Y-698074D01*
X10575645Y-669645D01*
X10604074Y-635003D01*
X10625199Y-595481D01*
X10638208Y-552598D01*
X10642600Y-508000D01*
X10642600Y5087467D01*
X11030813Y4970259D01*
X11424599Y4760880D01*
X11770220Y4478999D01*
X12054501Y4135361D01*
X12266626Y3743045D01*
X12398509Y3317003D01*
X12446385Y2861492D01*
X12446401Y2856900D01*
X12446400Y-3480093D01*
X12401662Y-3936363D01*
X12272759Y-4363313D01*
X12063377Y-4757102D01*
X11781497Y-5102722D01*
X11437861Y-5387001D01*
X11045546Y-5599126D01*
X10619498Y-5731009D01*
X10163993Y-5778885D01*
X10159685Y-5778900D01*
X-10147594Y-5778900D01*
X-10603863Y-5734162D01*
X-11030813Y-5605259D01*
X-11424602Y-5395877D01*
X-11770222Y-5113997D01*
X-12054501Y-4770361D01*
X-12266626Y-4378046D01*
X-12398509Y-3951998D01*
X-12446385Y-3496493D01*
X-12446400Y-3492185D01*
X-12446400Y2845094D01*
X-12401662Y3301364D01*
X-12272759Y3728313D01*
X-12063380Y4122099D01*
X-11781499Y4467720D01*
X-11437861Y4752001D01*
X-11045545Y4964126D01*
X-10619503Y5096009D01*
X-10163992Y5143885D01*
X-10159685Y5143900D01*
X-6425908Y5143900D01*
X-6401322Y5141489D01*
X-6401322Y5141489D01*
G37*
X-6401322Y5141489D02*
X-6389613Y5137954D01*
X-6378812Y5132211D01*
X-6369329Y5124477D01*
X-6361534Y5115055D01*
X-6355713Y5104289D01*
X-6352097Y5092608D01*
X-6349600Y5068853D01*
X-6349599Y3275264D01*
X-6409550Y3307309D01*
X-6499766Y3334675D01*
X-6570084Y3341601D01*
X-6570092Y3341601D01*
X-6593588Y3343915D01*
X-6617084Y3341601D01*
X-7356206Y3341601D01*
X-7339520Y3366574D01*
X-7299673Y3462773D01*
X-7279360Y3564897D01*
X-7279360Y3669023D01*
X-7299673Y3771147D01*
X-7339520Y3867346D01*
X-7397369Y3953923D01*
X-7470997Y4027551D01*
X-7557574Y4085400D01*
X-7653773Y4125247D01*
X-7755897Y4145560D01*
X-7860023Y4145560D01*
X-7962147Y4125247D01*
X-8033818Y4095560D01*
X-8795611Y4095560D01*
X-8819107Y4097874D01*
X-8842603Y4095560D01*
X-8842611Y4095560D01*
X-8912929Y4088634D01*
X-9003145Y4061268D01*
X-9078815Y4020821D01*
X-9086289Y4016826D01*
X-9140909Y3972001D01*
X-9140913Y3971997D01*
X-9159165Y3957018D01*
X-9174145Y3938765D01*
X-10822211Y2290698D01*
X-10840469Y2275714D01*
X-10900277Y2202838D01*
X-10944719Y2119693D01*
X-10972085Y2029477D01*
X-10979011Y1959159D01*
X-10979011Y1959152D01*
X-10981325Y1935656D01*
X-10979011Y1912160D01*
X-10979010Y-2611572D01*
X-10981325Y-2635078D01*
X-10972085Y-2728899D01*
X-10944718Y-2819116D01*
X-10900277Y-2902259D01*
X-10855452Y-2956879D01*
X-10855447Y-2956884D01*
X-10840468Y-2975136D01*
X-10822216Y-2990115D01*
X-9275106Y-4537226D01*
X-9260126Y-4555479D01*
X-9241874Y-4570458D01*
X-9241870Y-4570462D01*
X-9187250Y-4615287D01*
X-9104107Y-4659729D01*
X-9025748Y-4683498D01*
X-9013890Y-4687095D01*
X-8943572Y-4694021D01*
X-8943564Y-4694021D01*
X-8920068Y-4696335D01*
X-8896572Y-4694021D01*
X-3478619Y-4694021D01*
X-3406948Y-4723708D01*
X-3304824Y-4744021D01*
X-3200698Y-4744021D01*
X-3098574Y-4723708D01*
X-3002375Y-4683861D01*
X-2915798Y-4626012D01*
X-2842170Y-4552384D01*
X-2784321Y-4465807D01*
X-2744474Y-4369608D01*
X-2724161Y-4267484D01*
X-2724161Y-4163358D01*
X-2744474Y-4061234D01*
X-2784321Y-3965035D01*
X-2799210Y-3942753D01*
X-1190427Y-5551536D01*
X-1175447Y-5569789D01*
X-1157195Y-5584768D01*
X-1157191Y-5584772D01*
X-1110607Y-5623002D01*
X-1102571Y-5629597D01*
X-1019427Y-5674039D01*
X-929211Y-5701405D01*
X-858893Y-5708331D01*
X-858885Y-5708331D01*
X-835389Y-5710645D01*
X-811893Y-5708331D01*
X6889167Y-5708331D01*
X6912663Y-5710645D01*
X6936159Y-5708331D01*
X6936167Y-5708331D01*
X7006485Y-5701405D01*
X7096701Y-5674039D01*
X7179845Y-5629597D01*
X7252721Y-5569789D01*
X7267705Y-5551531D01*
X10122201Y-2697035D01*
X10140459Y-2682051D01*
X10200267Y-2609175D01*
X10244709Y-2526031D01*
X10272075Y-2435815D01*
X10279001Y-2365497D01*
X10279001Y-2365487D01*
X10281315Y-2341994D01*
X10279001Y-2318500D01*
X10279001Y-1491502D01*
X10281315Y-1468006D01*
X10279001Y-1444510D01*
X10279001Y-1444503D01*
X10272075Y-1374185D01*
X10244709Y-1283969D01*
X10200267Y-1200825D01*
X10174052Y-1168882D01*
X10155442Y-1146205D01*
X10155438Y-1146201D01*
X10140459Y-1127949D01*
X10122206Y-1112969D01*
X9745836Y-736600D01*
X10414000Y-736600D01*
X10458598Y-732208D01*
X10501481Y-719199D01*
X10541003Y-698074D01*
X10575645Y-669645D01*
X10604074Y-635003D01*
X10625199Y-595481D01*
X10638208Y-552598D01*
X10642600Y-508000D01*
X10642600Y5087467D01*
X11030813Y4970259D01*
X11424599Y4760880D01*
X11770220Y4478999D01*
X12054501Y4135361D01*
X12266626Y3743045D01*
X12398509Y3317003D01*
X12446385Y2861492D01*
X12446401Y2856900D01*
X12446400Y-3480093D01*
X12401662Y-3936363D01*
X12272759Y-4363313D01*
X12063377Y-4757102D01*
X11781497Y-5102722D01*
X11437861Y-5387001D01*
X11045546Y-5599126D01*
X10619498Y-5731009D01*
X10163993Y-5778885D01*
X10159685Y-5778900D01*
X-10147594Y-5778900D01*
X-10603863Y-5734162D01*
X-11030813Y-5605259D01*
X-11424602Y-5395877D01*
X-11770222Y-5113997D01*
X-12054501Y-4770361D01*
X-12266626Y-4378046D01*
X-12398509Y-3951998D01*
X-12446385Y-3496493D01*
X-12446400Y-3492185D01*
X-12446400Y2845094D01*
X-12401662Y3301364D01*
X-12272759Y3728313D01*
X-12063380Y4122099D01*
X-11781499Y4467720D01*
X-11437861Y4752001D01*
X-11045545Y4964126D01*
X-10619503Y5096009D01*
X-10163992Y5143885D01*
X-10159685Y5143900D01*
X-6425908Y5143900D01*
X-6401322Y5141489D01*
G36*
X62845Y-1371255D02*
G01*
X165445Y-1473855D01*
X286089Y-1554466D01*
X420142Y-1609993D01*
X562451Y-1638300D01*
X707549Y-1638300D01*
X787400Y-1622417D01*
X787400Y-1778000D01*
X791792Y-1822598D01*
X804801Y-1865481D01*
X825926Y-1905003D01*
X854355Y-1939645D01*
X888997Y-1968074D01*
X928519Y-1989199D01*
X971402Y-2002208D01*
X1016000Y-2006600D01*
X1186810Y-2006600D01*
X1168400Y-2099151D01*
X1168400Y-2244249D01*
X1196707Y-2386558D01*
X1252234Y-2520611D01*
X1332845Y-2641255D01*
X1426400Y-2734810D01*
X1426400Y-2866624D01*
X1424086Y-2890120D01*
X1426400Y-2913616D01*
X1426400Y-2913623D01*
X1433326Y-2983941D01*
X1460692Y-3074157D01*
X1505134Y-3157302D01*
X1564942Y-3230178D01*
X1583200Y-3245162D01*
X2389159Y-4051121D01*
X1202844Y-4051121D01*
X-134934Y-2713344D01*
X-62845Y-2641255D01*
X17766Y-2520611D01*
X73293Y-2386558D01*
X101600Y-2244249D01*
X101600Y-2099151D01*
X73293Y-1956842D01*
X17766Y-1822789D01*
X-62845Y-1702145D01*
X-165445Y-1599545D01*
X-259500Y-1536700D01*
X-165445Y-1473855D01*
X-62845Y-1371255D01*
X0Y-1277200D01*
X62845Y-1371255D01*
X62845Y-1371255D01*
G37*
X62845Y-1371255D02*
X165445Y-1473855D01*
X286089Y-1554466D01*
X420142Y-1609993D01*
X562451Y-1638300D01*
X707549Y-1638300D01*
X787400Y-1622417D01*
X787400Y-1778000D01*
X791792Y-1822598D01*
X804801Y-1865481D01*
X825926Y-1905003D01*
X854355Y-1939645D01*
X888997Y-1968074D01*
X928519Y-1989199D01*
X971402Y-2002208D01*
X1016000Y-2006600D01*
X1186810Y-2006600D01*
X1168400Y-2099151D01*
X1168400Y-2244249D01*
X1196707Y-2386558D01*
X1252234Y-2520611D01*
X1332845Y-2641255D01*
X1426400Y-2734810D01*
X1426400Y-2866624D01*
X1424086Y-2890120D01*
X1426400Y-2913616D01*
X1426400Y-2913623D01*
X1433326Y-2983941D01*
X1460692Y-3074157D01*
X1505134Y-3157302D01*
X1564942Y-3230178D01*
X1583200Y-3245162D01*
X2389159Y-4051121D01*
X1202844Y-4051121D01*
X-134934Y-2713344D01*
X-62845Y-2641255D01*
X17766Y-2520611D01*
X73293Y-2386558D01*
X101600Y-2244249D01*
X101600Y-2099151D01*
X73293Y-1956842D01*
X17766Y-1822789D01*
X-62845Y-1702145D01*
X-165445Y-1599545D01*
X-259500Y-1536700D01*
X-165445Y-1473855D01*
X-62845Y-1371255D01*
X0Y-1277200D01*
X62845Y-1371255D01*
G36*
X-8192155Y165445D02*
G01*
X-8089555Y62845D01*
X-7968911Y-17766D01*
X-7834858Y-73293D01*
X-7692549Y-101600D01*
X-7547451Y-101600D01*
X-7405142Y-73293D01*
X-7271089Y-17766D01*
X-7150445Y62845D01*
X-7056890Y156400D01*
X-2921522Y156400D01*
X-2405066Y-360056D01*
X-2477155Y-432145D01*
X-2557766Y-552789D01*
X-2613293Y-686842D01*
X-2641600Y-829151D01*
X-2641600Y-974249D01*
X-2613293Y-1116558D01*
X-2557766Y-1250611D01*
X-2477155Y-1371255D01*
X-2374555Y-1473855D01*
X-2280500Y-1536700D01*
X-2374555Y-1599545D01*
X-2477155Y-1702145D01*
X-2540000Y-1796200D01*
X-2602845Y-1702145D01*
X-2705445Y-1599545D01*
X-2826089Y-1518934D01*
X-2960142Y-1463407D01*
X-3102451Y-1435100D01*
X-3247549Y-1435100D01*
X-3389858Y-1463407D01*
X-3523911Y-1518934D01*
X-3644555Y-1599545D01*
X-3747155Y-1702145D01*
X-3827766Y-1822789D01*
X-3883293Y-1956842D01*
X-3911600Y-2099151D01*
X-3911600Y-2244249D01*
X-3883293Y-2386558D01*
X-3827766Y-2520611D01*
X-3747155Y-2641255D01*
X-3675066Y-2713344D01*
X-4046133Y-3084411D01*
X-8451589Y-3084411D01*
X-9369401Y-2166599D01*
X-9369401Y-1197309D01*
X-9359555Y-1207155D01*
X-9238911Y-1287766D01*
X-9104858Y-1343293D01*
X-8962549Y-1371600D01*
X-8817451Y-1371600D01*
X-8675142Y-1343293D01*
X-8541089Y-1287766D01*
X-8420445Y-1207155D01*
X-8317845Y-1104555D01*
X-8237234Y-983911D01*
X-8181707Y-849858D01*
X-8153400Y-707549D01*
X-8153400Y-562451D01*
X-8181707Y-420142D01*
X-8237234Y-286089D01*
X-8317845Y-165445D01*
X-8420445Y-62845D01*
X-8514500Y0D01*
X-8420445Y62845D01*
X-8317845Y165445D01*
X-8255000Y259500D01*
X-8192155Y165445D01*
X-8192155Y165445D01*
G37*
X-8192155Y165445D02*
X-8089555Y62845D01*
X-7968911Y-17766D01*
X-7834858Y-73293D01*
X-7692549Y-101600D01*
X-7547451Y-101600D01*
X-7405142Y-73293D01*
X-7271089Y-17766D01*
X-7150445Y62845D01*
X-7056890Y156400D01*
X-2921522Y156400D01*
X-2405066Y-360056D01*
X-2477155Y-432145D01*
X-2557766Y-552789D01*
X-2613293Y-686842D01*
X-2641600Y-829151D01*
X-2641600Y-974249D01*
X-2613293Y-1116558D01*
X-2557766Y-1250611D01*
X-2477155Y-1371255D01*
X-2374555Y-1473855D01*
X-2280500Y-1536700D01*
X-2374555Y-1599545D01*
X-2477155Y-1702145D01*
X-2540000Y-1796200D01*
X-2602845Y-1702145D01*
X-2705445Y-1599545D01*
X-2826089Y-1518934D01*
X-2960142Y-1463407D01*
X-3102451Y-1435100D01*
X-3247549Y-1435100D01*
X-3389858Y-1463407D01*
X-3523911Y-1518934D01*
X-3644555Y-1599545D01*
X-3747155Y-1702145D01*
X-3827766Y-1822789D01*
X-3883293Y-1956842D01*
X-3911600Y-2099151D01*
X-3911600Y-2244249D01*
X-3883293Y-2386558D01*
X-3827766Y-2520611D01*
X-3747155Y-2641255D01*
X-3675066Y-2713344D01*
X-4046133Y-3084411D01*
X-8451589Y-3084411D01*
X-9369401Y-2166599D01*
X-9369401Y-1197309D01*
X-9359555Y-1207155D01*
X-9238911Y-1287766D01*
X-9104858Y-1343293D01*
X-8962549Y-1371600D01*
X-8817451Y-1371600D01*
X-8675142Y-1343293D01*
X-8541089Y-1287766D01*
X-8420445Y-1207155D01*
X-8317845Y-1104555D01*
X-8237234Y-983911D01*
X-8181707Y-849858D01*
X-8153400Y-707549D01*
X-8153400Y-562451D01*
X-8181707Y-420142D01*
X-8237234Y-286089D01*
X-8317845Y-165445D01*
X-8420445Y-62845D01*
X-8514500Y0D01*
X-8420445Y62845D01*
X-8317845Y165445D01*
X-8255000Y259500D01*
X-8192155Y165445D01*
G36*
X10337800Y5125250D02*
G01*
X10337800Y-431800D01*
X9600612Y-431800D01*
X9598293Y-420142D01*
X9542766Y-286089D01*
X9462155Y-165445D01*
X9359555Y-62845D01*
X9238911Y17766D01*
X9104858Y73293D01*
X8962549Y101600D01*
X8817451Y101600D01*
X8675142Y73293D01*
X8541089Y17766D01*
X8420445Y-62845D01*
X8317845Y-165445D01*
X8255000Y-259500D01*
X8192155Y-165445D01*
X8089555Y-62845D01*
X7995500Y0D01*
X8089555Y62845D01*
X8192155Y165445D01*
X8272766Y286089D01*
X8328293Y420142D01*
X8356600Y562451D01*
X8356600Y707549D01*
X8328293Y849858D01*
X8272766Y983911D01*
X8192155Y1104555D01*
X8089555Y1207155D01*
X7968911Y1287766D01*
X7834858Y1343293D01*
X7692549Y1371600D01*
X7547451Y1371600D01*
X7405142Y1343293D01*
X7271089Y1287766D01*
X7150445Y1207155D01*
X7056890Y1113600D01*
X6925075Y1113600D01*
X6901579Y1115914D01*
X6878083Y1113600D01*
X6878076Y1113600D01*
X6807758Y1106674D01*
X6717542Y1079308D01*
X6634398Y1034866D01*
X6561522Y975058D01*
X6546538Y956800D01*
X6387794Y798056D01*
X6369542Y783077D01*
X6354563Y764825D01*
X6354558Y764820D01*
X6309733Y710200D01*
X6265292Y627057D01*
X6237925Y536840D01*
X6228685Y443019D01*
X6231000Y419513D01*
X6230999Y-347118D01*
X6146317Y-431800D01*
X6096000Y-431800D01*
X6081134Y-433264D01*
X6066840Y-437600D01*
X6053666Y-444642D01*
X6042118Y-454118D01*
X4903846Y-1592390D01*
X4793911Y-1518934D01*
X4659858Y-1463407D01*
X4517549Y-1435100D01*
X4372451Y-1435100D01*
X4230142Y-1463407D01*
X4096089Y-1518934D01*
X3975445Y-1599545D01*
X3873190Y-1701800D01*
X3746810Y-1701800D01*
X3644555Y-1599545D01*
X3523911Y-1518934D01*
X3389858Y-1463407D01*
X3247549Y-1435100D01*
X3102451Y-1435100D01*
X2960142Y-1463407D01*
X2826089Y-1518934D01*
X2705445Y-1599545D01*
X2603190Y-1701800D01*
X2476810Y-1701800D01*
X2374555Y-1599545D01*
X2253911Y-1518934D01*
X2119858Y-1463407D01*
X1977549Y-1435100D01*
X1832451Y-1435100D01*
X1690142Y-1463407D01*
X1556089Y-1518934D01*
X1435445Y-1599545D01*
X1333190Y-1701800D01*
X1206810Y-1701800D01*
X1104555Y-1599545D01*
X1092200Y-1591290D01*
X1092200Y-1482110D01*
X1104555Y-1473855D01*
X1207155Y-1371255D01*
X1287766Y-1250611D01*
X1343293Y-1116558D01*
X1371600Y-974249D01*
X1371600Y-829151D01*
X1343293Y-686842D01*
X1287766Y-552789D01*
X1207155Y-432145D01*
X1104555Y-329545D01*
X1092200Y-321290D01*
X1092200Y222436D01*
X3473664Y2603900D01*
X5790959Y2603900D01*
X5801778Y2604965D01*
X5803701Y2604952D01*
X5807225Y2605297D01*
X5868850Y2611774D01*
X5891394Y2616402D01*
X5913941Y2620703D01*
X5917331Y2621726D01*
X5976525Y2640049D01*
X5997715Y2648956D01*
X6019030Y2657568D01*
X6022156Y2659230D01*
X6076664Y2688703D01*
X6095729Y2701563D01*
X6114950Y2714141D01*
X6117694Y2716379D01*
X6117697Y2716381D01*
X6117700Y2716384D01*
X6165439Y2755877D01*
X6181639Y2772190D01*
X6198058Y2788269D01*
X6200316Y2790997D01*
X6239478Y2839016D01*
X6252190Y2858148D01*
X6265183Y2877125D01*
X6266867Y2880240D01*
X6295958Y2934951D01*
X6304726Y2956224D01*
X6313772Y2977329D01*
X6314819Y2980712D01*
X6332729Y3040033D01*
X6337193Y3062579D01*
X6341972Y3085061D01*
X6342343Y3088583D01*
X6348390Y3150252D01*
X6348390Y3150255D01*
X6349600Y3162541D01*
X6349600Y5067592D01*
X6352011Y5092178D01*
X6355546Y5103887D01*
X6361289Y5114688D01*
X6369023Y5124171D01*
X6378445Y5131966D01*
X6389211Y5137787D01*
X6400892Y5141403D01*
X6424652Y5143900D01*
X10147594Y5143900D01*
X10337800Y5125250D01*
X10337800Y5125250D01*
G37*
X10337800Y5125250D02*
X10337800Y-431800D01*
X9600612Y-431800D01*
X9598293Y-420142D01*
X9542766Y-286089D01*
X9462155Y-165445D01*
X9359555Y-62845D01*
X9238911Y17766D01*
X9104858Y73293D01*
X8962549Y101600D01*
X8817451Y101600D01*
X8675142Y73293D01*
X8541089Y17766D01*
X8420445Y-62845D01*
X8317845Y-165445D01*
X8255000Y-259500D01*
X8192155Y-165445D01*
X8089555Y-62845D01*
X7995500Y0D01*
X8089555Y62845D01*
X8192155Y165445D01*
X8272766Y286089D01*
X8328293Y420142D01*
X8356600Y562451D01*
X8356600Y707549D01*
X8328293Y849858D01*
X8272766Y983911D01*
X8192155Y1104555D01*
X8089555Y1207155D01*
X7968911Y1287766D01*
X7834858Y1343293D01*
X7692549Y1371600D01*
X7547451Y1371600D01*
X7405142Y1343293D01*
X7271089Y1287766D01*
X7150445Y1207155D01*
X7056890Y1113600D01*
X6925075Y1113600D01*
X6901579Y1115914D01*
X6878083Y1113600D01*
X6878076Y1113600D01*
X6807758Y1106674D01*
X6717542Y1079308D01*
X6634398Y1034866D01*
X6561522Y975058D01*
X6546538Y956800D01*
X6387794Y798056D01*
X6369542Y783077D01*
X6354563Y764825D01*
X6354558Y764820D01*
X6309733Y710200D01*
X6265292Y627057D01*
X6237925Y536840D01*
X6228685Y443019D01*
X6231000Y419513D01*
X6230999Y-347118D01*
X6146317Y-431800D01*
X6096000Y-431800D01*
X6081134Y-433264D01*
X6066840Y-437600D01*
X6053666Y-444642D01*
X6042118Y-454118D01*
X4903846Y-1592390D01*
X4793911Y-1518934D01*
X4659858Y-1463407D01*
X4517549Y-1435100D01*
X4372451Y-1435100D01*
X4230142Y-1463407D01*
X4096089Y-1518934D01*
X3975445Y-1599545D01*
X3873190Y-1701800D01*
X3746810Y-1701800D01*
X3644555Y-1599545D01*
X3523911Y-1518934D01*
X3389858Y-1463407D01*
X3247549Y-1435100D01*
X3102451Y-1435100D01*
X2960142Y-1463407D01*
X2826089Y-1518934D01*
X2705445Y-1599545D01*
X2603190Y-1701800D01*
X2476810Y-1701800D01*
X2374555Y-1599545D01*
X2253911Y-1518934D01*
X2119858Y-1463407D01*
X1977549Y-1435100D01*
X1832451Y-1435100D01*
X1690142Y-1463407D01*
X1556089Y-1518934D01*
X1435445Y-1599545D01*
X1333190Y-1701800D01*
X1206810Y-1701800D01*
X1104555Y-1599545D01*
X1092200Y-1591290D01*
X1092200Y-1482110D01*
X1104555Y-1473855D01*
X1207155Y-1371255D01*
X1287766Y-1250611D01*
X1343293Y-1116558D01*
X1371600Y-974249D01*
X1371600Y-829151D01*
X1343293Y-686842D01*
X1287766Y-552789D01*
X1207155Y-432145D01*
X1104555Y-329545D01*
X1092200Y-321290D01*
X1092200Y222436D01*
X3473664Y2603900D01*
X5790959Y2603900D01*
X5801778Y2604965D01*
X5803701Y2604952D01*
X5807225Y2605297D01*
X5868850Y2611774D01*
X5891394Y2616402D01*
X5913941Y2620703D01*
X5917331Y2621726D01*
X5976525Y2640049D01*
X5997715Y2648956D01*
X6019030Y2657568D01*
X6022156Y2659230D01*
X6076664Y2688703D01*
X6095729Y2701563D01*
X6114950Y2714141D01*
X6117694Y2716379D01*
X6117697Y2716381D01*
X6117700Y2716384D01*
X6165439Y2755877D01*
X6181639Y2772190D01*
X6198058Y2788269D01*
X6200316Y2790997D01*
X6239478Y2839016D01*
X6252190Y2858148D01*
X6265183Y2877125D01*
X6266867Y2880240D01*
X6295958Y2934951D01*
X6304726Y2956224D01*
X6313772Y2977329D01*
X6314819Y2980712D01*
X6332729Y3040033D01*
X6337193Y3062579D01*
X6341972Y3085061D01*
X6342343Y3088583D01*
X6348390Y3150252D01*
X6348390Y3150255D01*
X6349600Y3162541D01*
X6349600Y5067592D01*
X6352011Y5092178D01*
X6355546Y5103887D01*
X6361289Y5114688D01*
X6369023Y5124171D01*
X6378445Y5131966D01*
X6389211Y5137787D01*
X6400892Y5141403D01*
X6424652Y5143900D01*
X10147594Y5143900D01*
X10337800Y5125250D01*
M02*
