G04 #@! TF.GenerationSoftware,KiCad,Pcbnew,(5.1.4)-1*
G04 #@! TF.CreationDate,2020-07-19T23:15:40-07:00*
G04 #@! TF.ProjectId,SkateLightMainBoard,536b6174-654c-4696-9768-744d61696e42,rev?*
G04 #@! TF.SameCoordinates,Original*
G04 #@! TF.FileFunction,Paste,Bot*
G04 #@! TF.FilePolarity,Positive*
%FSLAX46Y46*%
G04 Gerber Fmt 4.6, Leading zero omitted, Abs format (unit mm)*
G04 Created by KiCad (PCBNEW (5.1.4)-1) date 2020-07-19 23:15:40*
%MOMM*%
%LPD*%
G04 APERTURE LIST*
%ADD10R,0.650000X1.850000*%
%ADD11R,2.900000X5.400000*%
%ADD12R,3.800000X4.800000*%
%ADD13R,0.475000X0.250000*%
%ADD14R,0.250000X0.475000*%
%ADD15C,0.100000*%
%ADD16C,0.975000*%
%ADD17C,1.250000*%
%ADD18R,0.600000X0.250000*%
%ADD19C,5.588000*%
%ADD20R,5.588000X29.591000*%
%ADD21R,2.794000X24.003000*%
%ADD22R,0.450000X0.600000*%
%ADD23R,0.650000X1.500000*%
%ADD24R,0.650000X1.060000*%
%ADD25R,1.250000X1.600000*%
G04 APERTURE END LIST*
D10*
X-1313180Y15337660D03*
X-2583180Y15337660D03*
X-3853180Y15337660D03*
X-5123180Y15337660D03*
X-6393180Y15337660D03*
X-7663180Y15337660D03*
X-8933180Y15337660D03*
X-10203180Y15337660D03*
X-11473180Y15337660D03*
X-11473180Y24687660D03*
X-10203180Y24687660D03*
X-8933180Y24687660D03*
X-7663180Y24687660D03*
X-6393180Y24687660D03*
X-5123180Y24687660D03*
X-3853180Y24687660D03*
X-2583180Y24687660D03*
X-1313180Y24687660D03*
D11*
X1501600Y-26035000D03*
X11401600Y-26035000D03*
D12*
X-3657140Y-14224000D03*
X6242860Y-14224000D03*
D13*
X9771540Y4160720D03*
X9771540Y3660720D03*
X9771540Y3160720D03*
D14*
X9934040Y2498220D03*
X10434040Y2498220D03*
X10934040Y2498220D03*
X11434040Y2498220D03*
D13*
X11596540Y3160720D03*
X11596540Y3660720D03*
X11596540Y4160720D03*
D14*
X11434040Y4823220D03*
X10934040Y4823220D03*
X10434040Y4823220D03*
X9934040Y4823220D03*
D15*
G36*
X13577182Y5084546D02*
G01*
X13600843Y5081036D01*
X13624047Y5075224D01*
X13646569Y5067166D01*
X13668193Y5056938D01*
X13688710Y5044641D01*
X13707923Y5030391D01*
X13725647Y5014327D01*
X13741711Y4996603D01*
X13755961Y4977390D01*
X13768258Y4956873D01*
X13778486Y4935249D01*
X13786544Y4912727D01*
X13792356Y4889523D01*
X13795866Y4865862D01*
X13797040Y4841970D01*
X13797040Y4354470D01*
X13795866Y4330578D01*
X13792356Y4306917D01*
X13786544Y4283713D01*
X13778486Y4261191D01*
X13768258Y4239567D01*
X13755961Y4219050D01*
X13741711Y4199837D01*
X13725647Y4182113D01*
X13707923Y4166049D01*
X13688710Y4151799D01*
X13668193Y4139502D01*
X13646569Y4129274D01*
X13624047Y4121216D01*
X13600843Y4115404D01*
X13577182Y4111894D01*
X13553290Y4110720D01*
X12640790Y4110720D01*
X12616898Y4111894D01*
X12593237Y4115404D01*
X12570033Y4121216D01*
X12547511Y4129274D01*
X12525887Y4139502D01*
X12505370Y4151799D01*
X12486157Y4166049D01*
X12468433Y4182113D01*
X12452369Y4199837D01*
X12438119Y4219050D01*
X12425822Y4239567D01*
X12415594Y4261191D01*
X12407536Y4283713D01*
X12401724Y4306917D01*
X12398214Y4330578D01*
X12397040Y4354470D01*
X12397040Y4841970D01*
X12398214Y4865862D01*
X12401724Y4889523D01*
X12407536Y4912727D01*
X12415594Y4935249D01*
X12425822Y4956873D01*
X12438119Y4977390D01*
X12452369Y4996603D01*
X12468433Y5014327D01*
X12486157Y5030391D01*
X12505370Y5044641D01*
X12525887Y5056938D01*
X12547511Y5067166D01*
X12570033Y5075224D01*
X12593237Y5081036D01*
X12616898Y5084546D01*
X12640790Y5085720D01*
X13553290Y5085720D01*
X13577182Y5084546D01*
X13577182Y5084546D01*
G37*
D16*
X13097040Y4598220D03*
D15*
G36*
X13577182Y3209546D02*
G01*
X13600843Y3206036D01*
X13624047Y3200224D01*
X13646569Y3192166D01*
X13668193Y3181938D01*
X13688710Y3169641D01*
X13707923Y3155391D01*
X13725647Y3139327D01*
X13741711Y3121603D01*
X13755961Y3102390D01*
X13768258Y3081873D01*
X13778486Y3060249D01*
X13786544Y3037727D01*
X13792356Y3014523D01*
X13795866Y2990862D01*
X13797040Y2966970D01*
X13797040Y2479470D01*
X13795866Y2455578D01*
X13792356Y2431917D01*
X13786544Y2408713D01*
X13778486Y2386191D01*
X13768258Y2364567D01*
X13755961Y2344050D01*
X13741711Y2324837D01*
X13725647Y2307113D01*
X13707923Y2291049D01*
X13688710Y2276799D01*
X13668193Y2264502D01*
X13646569Y2254274D01*
X13624047Y2246216D01*
X13600843Y2240404D01*
X13577182Y2236894D01*
X13553290Y2235720D01*
X12640790Y2235720D01*
X12616898Y2236894D01*
X12593237Y2240404D01*
X12570033Y2246216D01*
X12547511Y2254274D01*
X12525887Y2264502D01*
X12505370Y2276799D01*
X12486157Y2291049D01*
X12468433Y2307113D01*
X12452369Y2324837D01*
X12438119Y2344050D01*
X12425822Y2364567D01*
X12415594Y2386191D01*
X12407536Y2408713D01*
X12401724Y2431917D01*
X12398214Y2455578D01*
X12397040Y2479470D01*
X12397040Y2966970D01*
X12398214Y2990862D01*
X12401724Y3014523D01*
X12407536Y3037727D01*
X12415594Y3060249D01*
X12425822Y3081873D01*
X12438119Y3102390D01*
X12452369Y3121603D01*
X12468433Y3139327D01*
X12486157Y3155391D01*
X12505370Y3169641D01*
X12525887Y3181938D01*
X12547511Y3192166D01*
X12570033Y3200224D01*
X12593237Y3206036D01*
X12616898Y3209546D01*
X12640790Y3210720D01*
X13553290Y3210720D01*
X13577182Y3209546D01*
X13577182Y3209546D01*
G37*
D16*
X13097040Y2723220D03*
D15*
G36*
X-9323156Y-9110524D02*
G01*
X-9298887Y-9114124D01*
X-9275089Y-9120085D01*
X-9251989Y-9128350D01*
X-9229811Y-9138840D01*
X-9208767Y-9151453D01*
X-9189062Y-9166067D01*
X-9170883Y-9182543D01*
X-9154407Y-9200722D01*
X-9139793Y-9220427D01*
X-9127180Y-9241471D01*
X-9116690Y-9263649D01*
X-9108425Y-9286749D01*
X-9102464Y-9310547D01*
X-9098864Y-9334816D01*
X-9097660Y-9359320D01*
X-9097660Y-11509320D01*
X-9098864Y-11533824D01*
X-9102464Y-11558093D01*
X-9108425Y-11581891D01*
X-9116690Y-11604991D01*
X-9127180Y-11627169D01*
X-9139793Y-11648213D01*
X-9154407Y-11667918D01*
X-9170883Y-11686097D01*
X-9189062Y-11702573D01*
X-9208767Y-11717187D01*
X-9229811Y-11729800D01*
X-9251989Y-11740290D01*
X-9275089Y-11748555D01*
X-9298887Y-11754516D01*
X-9323156Y-11758116D01*
X-9347660Y-11759320D01*
X-10097660Y-11759320D01*
X-10122164Y-11758116D01*
X-10146433Y-11754516D01*
X-10170231Y-11748555D01*
X-10193331Y-11740290D01*
X-10215509Y-11729800D01*
X-10236553Y-11717187D01*
X-10256258Y-11702573D01*
X-10274437Y-11686097D01*
X-10290913Y-11667918D01*
X-10305527Y-11648213D01*
X-10318140Y-11627169D01*
X-10328630Y-11604991D01*
X-10336895Y-11581891D01*
X-10342856Y-11558093D01*
X-10346456Y-11533824D01*
X-10347660Y-11509320D01*
X-10347660Y-9359320D01*
X-10346456Y-9334816D01*
X-10342856Y-9310547D01*
X-10336895Y-9286749D01*
X-10328630Y-9263649D01*
X-10318140Y-9241471D01*
X-10305527Y-9220427D01*
X-10290913Y-9200722D01*
X-10274437Y-9182543D01*
X-10256258Y-9166067D01*
X-10236553Y-9151453D01*
X-10215509Y-9138840D01*
X-10193331Y-9128350D01*
X-10170231Y-9120085D01*
X-10146433Y-9114124D01*
X-10122164Y-9110524D01*
X-10097660Y-9109320D01*
X-9347660Y-9109320D01*
X-9323156Y-9110524D01*
X-9323156Y-9110524D01*
G37*
D17*
X-9722660Y-10434320D03*
D15*
G36*
X-12123156Y-9110524D02*
G01*
X-12098887Y-9114124D01*
X-12075089Y-9120085D01*
X-12051989Y-9128350D01*
X-12029811Y-9138840D01*
X-12008767Y-9151453D01*
X-11989062Y-9166067D01*
X-11970883Y-9182543D01*
X-11954407Y-9200722D01*
X-11939793Y-9220427D01*
X-11927180Y-9241471D01*
X-11916690Y-9263649D01*
X-11908425Y-9286749D01*
X-11902464Y-9310547D01*
X-11898864Y-9334816D01*
X-11897660Y-9359320D01*
X-11897660Y-11509320D01*
X-11898864Y-11533824D01*
X-11902464Y-11558093D01*
X-11908425Y-11581891D01*
X-11916690Y-11604991D01*
X-11927180Y-11627169D01*
X-11939793Y-11648213D01*
X-11954407Y-11667918D01*
X-11970883Y-11686097D01*
X-11989062Y-11702573D01*
X-12008767Y-11717187D01*
X-12029811Y-11729800D01*
X-12051989Y-11740290D01*
X-12075089Y-11748555D01*
X-12098887Y-11754516D01*
X-12123156Y-11758116D01*
X-12147660Y-11759320D01*
X-12897660Y-11759320D01*
X-12922164Y-11758116D01*
X-12946433Y-11754516D01*
X-12970231Y-11748555D01*
X-12993331Y-11740290D01*
X-13015509Y-11729800D01*
X-13036553Y-11717187D01*
X-13056258Y-11702573D01*
X-13074437Y-11686097D01*
X-13090913Y-11667918D01*
X-13105527Y-11648213D01*
X-13118140Y-11627169D01*
X-13128630Y-11604991D01*
X-13136895Y-11581891D01*
X-13142856Y-11558093D01*
X-13146456Y-11533824D01*
X-13147660Y-11509320D01*
X-13147660Y-9359320D01*
X-13146456Y-9334816D01*
X-13142856Y-9310547D01*
X-13136895Y-9286749D01*
X-13128630Y-9263649D01*
X-13118140Y-9241471D01*
X-13105527Y-9220427D01*
X-13090913Y-9200722D01*
X-13074437Y-9182543D01*
X-13056258Y-9166067D01*
X-13036553Y-9151453D01*
X-13015509Y-9138840D01*
X-12993331Y-9128350D01*
X-12970231Y-9120085D01*
X-12946433Y-9114124D01*
X-12922164Y-9110524D01*
X-12897660Y-9109320D01*
X-12147660Y-9109320D01*
X-12123156Y-9110524D01*
X-12123156Y-9110524D01*
G37*
D17*
X-12522660Y-10434320D03*
D15*
G36*
X9975764Y-32564884D02*
G01*
X10000033Y-32568484D01*
X10023831Y-32574445D01*
X10046931Y-32582710D01*
X10069109Y-32593200D01*
X10090153Y-32605813D01*
X10109858Y-32620427D01*
X10128037Y-32636903D01*
X10144513Y-32655082D01*
X10159127Y-32674787D01*
X10171740Y-32695831D01*
X10182230Y-32718009D01*
X10190495Y-32741109D01*
X10196456Y-32764907D01*
X10200056Y-32789176D01*
X10201260Y-32813680D01*
X10201260Y-34963680D01*
X10200056Y-34988184D01*
X10196456Y-35012453D01*
X10190495Y-35036251D01*
X10182230Y-35059351D01*
X10171740Y-35081529D01*
X10159127Y-35102573D01*
X10144513Y-35122278D01*
X10128037Y-35140457D01*
X10109858Y-35156933D01*
X10090153Y-35171547D01*
X10069109Y-35184160D01*
X10046931Y-35194650D01*
X10023831Y-35202915D01*
X10000033Y-35208876D01*
X9975764Y-35212476D01*
X9951260Y-35213680D01*
X9201260Y-35213680D01*
X9176756Y-35212476D01*
X9152487Y-35208876D01*
X9128689Y-35202915D01*
X9105589Y-35194650D01*
X9083411Y-35184160D01*
X9062367Y-35171547D01*
X9042662Y-35156933D01*
X9024483Y-35140457D01*
X9008007Y-35122278D01*
X8993393Y-35102573D01*
X8980780Y-35081529D01*
X8970290Y-35059351D01*
X8962025Y-35036251D01*
X8956064Y-35012453D01*
X8952464Y-34988184D01*
X8951260Y-34963680D01*
X8951260Y-32813680D01*
X8952464Y-32789176D01*
X8956064Y-32764907D01*
X8962025Y-32741109D01*
X8970290Y-32718009D01*
X8980780Y-32695831D01*
X8993393Y-32674787D01*
X9008007Y-32655082D01*
X9024483Y-32636903D01*
X9042662Y-32620427D01*
X9062367Y-32605813D01*
X9083411Y-32593200D01*
X9105589Y-32582710D01*
X9128689Y-32574445D01*
X9152487Y-32568484D01*
X9176756Y-32564884D01*
X9201260Y-32563680D01*
X9951260Y-32563680D01*
X9975764Y-32564884D01*
X9975764Y-32564884D01*
G37*
D17*
X9576260Y-33888680D03*
D15*
G36*
X7175764Y-32564884D02*
G01*
X7200033Y-32568484D01*
X7223831Y-32574445D01*
X7246931Y-32582710D01*
X7269109Y-32593200D01*
X7290153Y-32605813D01*
X7309858Y-32620427D01*
X7328037Y-32636903D01*
X7344513Y-32655082D01*
X7359127Y-32674787D01*
X7371740Y-32695831D01*
X7382230Y-32718009D01*
X7390495Y-32741109D01*
X7396456Y-32764907D01*
X7400056Y-32789176D01*
X7401260Y-32813680D01*
X7401260Y-34963680D01*
X7400056Y-34988184D01*
X7396456Y-35012453D01*
X7390495Y-35036251D01*
X7382230Y-35059351D01*
X7371740Y-35081529D01*
X7359127Y-35102573D01*
X7344513Y-35122278D01*
X7328037Y-35140457D01*
X7309858Y-35156933D01*
X7290153Y-35171547D01*
X7269109Y-35184160D01*
X7246931Y-35194650D01*
X7223831Y-35202915D01*
X7200033Y-35208876D01*
X7175764Y-35212476D01*
X7151260Y-35213680D01*
X6401260Y-35213680D01*
X6376756Y-35212476D01*
X6352487Y-35208876D01*
X6328689Y-35202915D01*
X6305589Y-35194650D01*
X6283411Y-35184160D01*
X6262367Y-35171547D01*
X6242662Y-35156933D01*
X6224483Y-35140457D01*
X6208007Y-35122278D01*
X6193393Y-35102573D01*
X6180780Y-35081529D01*
X6170290Y-35059351D01*
X6162025Y-35036251D01*
X6156064Y-35012453D01*
X6152464Y-34988184D01*
X6151260Y-34963680D01*
X6151260Y-32813680D01*
X6152464Y-32789176D01*
X6156064Y-32764907D01*
X6162025Y-32741109D01*
X6170290Y-32718009D01*
X6180780Y-32695831D01*
X6193393Y-32674787D01*
X6208007Y-32655082D01*
X6224483Y-32636903D01*
X6242662Y-32620427D01*
X6262367Y-32605813D01*
X6283411Y-32593200D01*
X6305589Y-32582710D01*
X6328689Y-32574445D01*
X6352487Y-32568484D01*
X6376756Y-32564884D01*
X6401260Y-32563680D01*
X7151260Y-32563680D01*
X7175764Y-32564884D01*
X7175764Y-32564884D01*
G37*
D17*
X6776260Y-33888680D03*
D15*
G36*
X1130142Y10193826D02*
G01*
X1153803Y10190316D01*
X1177007Y10184504D01*
X1199529Y10176446D01*
X1221153Y10166218D01*
X1241670Y10153921D01*
X1260883Y10139671D01*
X1278607Y10123607D01*
X1294671Y10105883D01*
X1308921Y10086670D01*
X1321218Y10066153D01*
X1331446Y10044529D01*
X1339504Y10022007D01*
X1345316Y9998803D01*
X1348826Y9975142D01*
X1350000Y9951250D01*
X1350000Y9463750D01*
X1348826Y9439858D01*
X1345316Y9416197D01*
X1339504Y9392993D01*
X1331446Y9370471D01*
X1321218Y9348847D01*
X1308921Y9328330D01*
X1294671Y9309117D01*
X1278607Y9291393D01*
X1260883Y9275329D01*
X1241670Y9261079D01*
X1221153Y9248782D01*
X1199529Y9238554D01*
X1177007Y9230496D01*
X1153803Y9224684D01*
X1130142Y9221174D01*
X1106250Y9220000D01*
X193750Y9220000D01*
X169858Y9221174D01*
X146197Y9224684D01*
X122993Y9230496D01*
X100471Y9238554D01*
X78847Y9248782D01*
X58330Y9261079D01*
X39117Y9275329D01*
X21393Y9291393D01*
X5329Y9309117D01*
X-8921Y9328330D01*
X-21218Y9348847D01*
X-31446Y9370471D01*
X-39504Y9392993D01*
X-45316Y9416197D01*
X-48826Y9439858D01*
X-50000Y9463750D01*
X-50000Y9951250D01*
X-48826Y9975142D01*
X-45316Y9998803D01*
X-39504Y10022007D01*
X-31446Y10044529D01*
X-21218Y10066153D01*
X-8921Y10086670D01*
X5329Y10105883D01*
X21393Y10123607D01*
X39117Y10139671D01*
X58330Y10153921D01*
X78847Y10166218D01*
X100471Y10176446D01*
X122993Y10184504D01*
X146197Y10190316D01*
X169858Y10193826D01*
X193750Y10195000D01*
X1106250Y10195000D01*
X1130142Y10193826D01*
X1130142Y10193826D01*
G37*
D16*
X650000Y9707500D03*
D15*
G36*
X1130142Y8318826D02*
G01*
X1153803Y8315316D01*
X1177007Y8309504D01*
X1199529Y8301446D01*
X1221153Y8291218D01*
X1241670Y8278921D01*
X1260883Y8264671D01*
X1278607Y8248607D01*
X1294671Y8230883D01*
X1308921Y8211670D01*
X1321218Y8191153D01*
X1331446Y8169529D01*
X1339504Y8147007D01*
X1345316Y8123803D01*
X1348826Y8100142D01*
X1350000Y8076250D01*
X1350000Y7588750D01*
X1348826Y7564858D01*
X1345316Y7541197D01*
X1339504Y7517993D01*
X1331446Y7495471D01*
X1321218Y7473847D01*
X1308921Y7453330D01*
X1294671Y7434117D01*
X1278607Y7416393D01*
X1260883Y7400329D01*
X1241670Y7386079D01*
X1221153Y7373782D01*
X1199529Y7363554D01*
X1177007Y7355496D01*
X1153803Y7349684D01*
X1130142Y7346174D01*
X1106250Y7345000D01*
X193750Y7345000D01*
X169858Y7346174D01*
X146197Y7349684D01*
X122993Y7355496D01*
X100471Y7363554D01*
X78847Y7373782D01*
X58330Y7386079D01*
X39117Y7400329D01*
X21393Y7416393D01*
X5329Y7434117D01*
X-8921Y7453330D01*
X-21218Y7473847D01*
X-31446Y7495471D01*
X-39504Y7517993D01*
X-45316Y7541197D01*
X-48826Y7564858D01*
X-50000Y7588750D01*
X-50000Y8076250D01*
X-48826Y8100142D01*
X-45316Y8123803D01*
X-39504Y8147007D01*
X-31446Y8169529D01*
X-21218Y8191153D01*
X-8921Y8211670D01*
X5329Y8230883D01*
X21393Y8248607D01*
X39117Y8264671D01*
X58330Y8278921D01*
X78847Y8291218D01*
X100471Y8301446D01*
X122993Y8309504D01*
X146197Y8315316D01*
X169858Y8318826D01*
X193750Y8320000D01*
X1106250Y8320000D01*
X1130142Y8318826D01*
X1130142Y8318826D01*
G37*
D16*
X650000Y7832500D03*
D15*
G36*
X-12189858Y3098826D02*
G01*
X-12166197Y3095316D01*
X-12142993Y3089504D01*
X-12120471Y3081446D01*
X-12098847Y3071218D01*
X-12078330Y3058921D01*
X-12059117Y3044671D01*
X-12041393Y3028607D01*
X-12025329Y3010883D01*
X-12011079Y2991670D01*
X-11998782Y2971153D01*
X-11988554Y2949529D01*
X-11980496Y2927007D01*
X-11974684Y2903803D01*
X-11971174Y2880142D01*
X-11970000Y2856250D01*
X-11970000Y2368750D01*
X-11971174Y2344858D01*
X-11974684Y2321197D01*
X-11980496Y2297993D01*
X-11988554Y2275471D01*
X-11998782Y2253847D01*
X-12011079Y2233330D01*
X-12025329Y2214117D01*
X-12041393Y2196393D01*
X-12059117Y2180329D01*
X-12078330Y2166079D01*
X-12098847Y2153782D01*
X-12120471Y2143554D01*
X-12142993Y2135496D01*
X-12166197Y2129684D01*
X-12189858Y2126174D01*
X-12213750Y2125000D01*
X-13126250Y2125000D01*
X-13150142Y2126174D01*
X-13173803Y2129684D01*
X-13197007Y2135496D01*
X-13219529Y2143554D01*
X-13241153Y2153782D01*
X-13261670Y2166079D01*
X-13280883Y2180329D01*
X-13298607Y2196393D01*
X-13314671Y2214117D01*
X-13328921Y2233330D01*
X-13341218Y2253847D01*
X-13351446Y2275471D01*
X-13359504Y2297993D01*
X-13365316Y2321197D01*
X-13368826Y2344858D01*
X-13370000Y2368750D01*
X-13370000Y2856250D01*
X-13368826Y2880142D01*
X-13365316Y2903803D01*
X-13359504Y2927007D01*
X-13351446Y2949529D01*
X-13341218Y2971153D01*
X-13328921Y2991670D01*
X-13314671Y3010883D01*
X-13298607Y3028607D01*
X-13280883Y3044671D01*
X-13261670Y3058921D01*
X-13241153Y3071218D01*
X-13219529Y3081446D01*
X-13197007Y3089504D01*
X-13173803Y3095316D01*
X-13150142Y3098826D01*
X-13126250Y3100000D01*
X-12213750Y3100000D01*
X-12189858Y3098826D01*
X-12189858Y3098826D01*
G37*
D16*
X-12670000Y2612500D03*
D15*
G36*
X-12189858Y4973826D02*
G01*
X-12166197Y4970316D01*
X-12142993Y4964504D01*
X-12120471Y4956446D01*
X-12098847Y4946218D01*
X-12078330Y4933921D01*
X-12059117Y4919671D01*
X-12041393Y4903607D01*
X-12025329Y4885883D01*
X-12011079Y4866670D01*
X-11998782Y4846153D01*
X-11988554Y4824529D01*
X-11980496Y4802007D01*
X-11974684Y4778803D01*
X-11971174Y4755142D01*
X-11970000Y4731250D01*
X-11970000Y4243750D01*
X-11971174Y4219858D01*
X-11974684Y4196197D01*
X-11980496Y4172993D01*
X-11988554Y4150471D01*
X-11998782Y4128847D01*
X-12011079Y4108330D01*
X-12025329Y4089117D01*
X-12041393Y4071393D01*
X-12059117Y4055329D01*
X-12078330Y4041079D01*
X-12098847Y4028782D01*
X-12120471Y4018554D01*
X-12142993Y4010496D01*
X-12166197Y4004684D01*
X-12189858Y4001174D01*
X-12213750Y4000000D01*
X-13126250Y4000000D01*
X-13150142Y4001174D01*
X-13173803Y4004684D01*
X-13197007Y4010496D01*
X-13219529Y4018554D01*
X-13241153Y4028782D01*
X-13261670Y4041079D01*
X-13280883Y4055329D01*
X-13298607Y4071393D01*
X-13314671Y4089117D01*
X-13328921Y4108330D01*
X-13341218Y4128847D01*
X-13351446Y4150471D01*
X-13359504Y4172993D01*
X-13365316Y4196197D01*
X-13368826Y4219858D01*
X-13370000Y4243750D01*
X-13370000Y4731250D01*
X-13368826Y4755142D01*
X-13365316Y4778803D01*
X-13359504Y4802007D01*
X-13351446Y4824529D01*
X-13341218Y4846153D01*
X-13328921Y4866670D01*
X-13314671Y4885883D01*
X-13298607Y4903607D01*
X-13280883Y4919671D01*
X-13261670Y4933921D01*
X-13241153Y4946218D01*
X-13219529Y4956446D01*
X-13197007Y4964504D01*
X-13173803Y4970316D01*
X-13150142Y4973826D01*
X-13126250Y4975000D01*
X-12213750Y4975000D01*
X-12189858Y4973826D01*
X-12189858Y4973826D01*
G37*
D16*
X-12670000Y4487500D03*
D15*
G36*
X-6299858Y3218826D02*
G01*
X-6276197Y3215316D01*
X-6252993Y3209504D01*
X-6230471Y3201446D01*
X-6208847Y3191218D01*
X-6188330Y3178921D01*
X-6169117Y3164671D01*
X-6151393Y3148607D01*
X-6135329Y3130883D01*
X-6121079Y3111670D01*
X-6108782Y3091153D01*
X-6098554Y3069529D01*
X-6090496Y3047007D01*
X-6084684Y3023803D01*
X-6081174Y3000142D01*
X-6080000Y2976250D01*
X-6080000Y2488750D01*
X-6081174Y2464858D01*
X-6084684Y2441197D01*
X-6090496Y2417993D01*
X-6098554Y2395471D01*
X-6108782Y2373847D01*
X-6121079Y2353330D01*
X-6135329Y2334117D01*
X-6151393Y2316393D01*
X-6169117Y2300329D01*
X-6188330Y2286079D01*
X-6208847Y2273782D01*
X-6230471Y2263554D01*
X-6252993Y2255496D01*
X-6276197Y2249684D01*
X-6299858Y2246174D01*
X-6323750Y2245000D01*
X-7236250Y2245000D01*
X-7260142Y2246174D01*
X-7283803Y2249684D01*
X-7307007Y2255496D01*
X-7329529Y2263554D01*
X-7351153Y2273782D01*
X-7371670Y2286079D01*
X-7390883Y2300329D01*
X-7408607Y2316393D01*
X-7424671Y2334117D01*
X-7438921Y2353330D01*
X-7451218Y2373847D01*
X-7461446Y2395471D01*
X-7469504Y2417993D01*
X-7475316Y2441197D01*
X-7478826Y2464858D01*
X-7480000Y2488750D01*
X-7480000Y2976250D01*
X-7478826Y3000142D01*
X-7475316Y3023803D01*
X-7469504Y3047007D01*
X-7461446Y3069529D01*
X-7451218Y3091153D01*
X-7438921Y3111670D01*
X-7424671Y3130883D01*
X-7408607Y3148607D01*
X-7390883Y3164671D01*
X-7371670Y3178921D01*
X-7351153Y3191218D01*
X-7329529Y3201446D01*
X-7307007Y3209504D01*
X-7283803Y3215316D01*
X-7260142Y3218826D01*
X-7236250Y3220000D01*
X-6323750Y3220000D01*
X-6299858Y3218826D01*
X-6299858Y3218826D01*
G37*
D16*
X-6780000Y2732500D03*
D15*
G36*
X-6299858Y5093826D02*
G01*
X-6276197Y5090316D01*
X-6252993Y5084504D01*
X-6230471Y5076446D01*
X-6208847Y5066218D01*
X-6188330Y5053921D01*
X-6169117Y5039671D01*
X-6151393Y5023607D01*
X-6135329Y5005883D01*
X-6121079Y4986670D01*
X-6108782Y4966153D01*
X-6098554Y4944529D01*
X-6090496Y4922007D01*
X-6084684Y4898803D01*
X-6081174Y4875142D01*
X-6080000Y4851250D01*
X-6080000Y4363750D01*
X-6081174Y4339858D01*
X-6084684Y4316197D01*
X-6090496Y4292993D01*
X-6098554Y4270471D01*
X-6108782Y4248847D01*
X-6121079Y4228330D01*
X-6135329Y4209117D01*
X-6151393Y4191393D01*
X-6169117Y4175329D01*
X-6188330Y4161079D01*
X-6208847Y4148782D01*
X-6230471Y4138554D01*
X-6252993Y4130496D01*
X-6276197Y4124684D01*
X-6299858Y4121174D01*
X-6323750Y4120000D01*
X-7236250Y4120000D01*
X-7260142Y4121174D01*
X-7283803Y4124684D01*
X-7307007Y4130496D01*
X-7329529Y4138554D01*
X-7351153Y4148782D01*
X-7371670Y4161079D01*
X-7390883Y4175329D01*
X-7408607Y4191393D01*
X-7424671Y4209117D01*
X-7438921Y4228330D01*
X-7451218Y4248847D01*
X-7461446Y4270471D01*
X-7469504Y4292993D01*
X-7475316Y4316197D01*
X-7478826Y4339858D01*
X-7480000Y4363750D01*
X-7480000Y4851250D01*
X-7478826Y4875142D01*
X-7475316Y4898803D01*
X-7469504Y4922007D01*
X-7461446Y4944529D01*
X-7451218Y4966153D01*
X-7438921Y4986670D01*
X-7424671Y5005883D01*
X-7408607Y5023607D01*
X-7390883Y5039671D01*
X-7371670Y5053921D01*
X-7351153Y5066218D01*
X-7329529Y5076446D01*
X-7307007Y5084504D01*
X-7283803Y5090316D01*
X-7260142Y5093826D01*
X-7236250Y5095000D01*
X-6323750Y5095000D01*
X-6299858Y5093826D01*
X-6299858Y5093826D01*
G37*
D16*
X-6780000Y4607500D03*
D15*
G36*
X-10639858Y6978826D02*
G01*
X-10616197Y6975316D01*
X-10592993Y6969504D01*
X-10570471Y6961446D01*
X-10548847Y6951218D01*
X-10528330Y6938921D01*
X-10509117Y6924671D01*
X-10491393Y6908607D01*
X-10475329Y6890883D01*
X-10461079Y6871670D01*
X-10448782Y6851153D01*
X-10438554Y6829529D01*
X-10430496Y6807007D01*
X-10424684Y6783803D01*
X-10421174Y6760142D01*
X-10420000Y6736250D01*
X-10420000Y5823750D01*
X-10421174Y5799858D01*
X-10424684Y5776197D01*
X-10430496Y5752993D01*
X-10438554Y5730471D01*
X-10448782Y5708847D01*
X-10461079Y5688330D01*
X-10475329Y5669117D01*
X-10491393Y5651393D01*
X-10509117Y5635329D01*
X-10528330Y5621079D01*
X-10548847Y5608782D01*
X-10570471Y5598554D01*
X-10592993Y5590496D01*
X-10616197Y5584684D01*
X-10639858Y5581174D01*
X-10663750Y5580000D01*
X-11151250Y5580000D01*
X-11175142Y5581174D01*
X-11198803Y5584684D01*
X-11222007Y5590496D01*
X-11244529Y5598554D01*
X-11266153Y5608782D01*
X-11286670Y5621079D01*
X-11305883Y5635329D01*
X-11323607Y5651393D01*
X-11339671Y5669117D01*
X-11353921Y5688330D01*
X-11366218Y5708847D01*
X-11376446Y5730471D01*
X-11384504Y5752993D01*
X-11390316Y5776197D01*
X-11393826Y5799858D01*
X-11395000Y5823750D01*
X-11395000Y6736250D01*
X-11393826Y6760142D01*
X-11390316Y6783803D01*
X-11384504Y6807007D01*
X-11376446Y6829529D01*
X-11366218Y6851153D01*
X-11353921Y6871670D01*
X-11339671Y6890883D01*
X-11323607Y6908607D01*
X-11305883Y6924671D01*
X-11286670Y6938921D01*
X-11266153Y6951218D01*
X-11244529Y6961446D01*
X-11222007Y6969504D01*
X-11198803Y6975316D01*
X-11175142Y6978826D01*
X-11151250Y6980000D01*
X-10663750Y6980000D01*
X-10639858Y6978826D01*
X-10639858Y6978826D01*
G37*
D16*
X-10907500Y6280000D03*
D15*
G36*
X-8764858Y6978826D02*
G01*
X-8741197Y6975316D01*
X-8717993Y6969504D01*
X-8695471Y6961446D01*
X-8673847Y6951218D01*
X-8653330Y6938921D01*
X-8634117Y6924671D01*
X-8616393Y6908607D01*
X-8600329Y6890883D01*
X-8586079Y6871670D01*
X-8573782Y6851153D01*
X-8563554Y6829529D01*
X-8555496Y6807007D01*
X-8549684Y6783803D01*
X-8546174Y6760142D01*
X-8545000Y6736250D01*
X-8545000Y5823750D01*
X-8546174Y5799858D01*
X-8549684Y5776197D01*
X-8555496Y5752993D01*
X-8563554Y5730471D01*
X-8573782Y5708847D01*
X-8586079Y5688330D01*
X-8600329Y5669117D01*
X-8616393Y5651393D01*
X-8634117Y5635329D01*
X-8653330Y5621079D01*
X-8673847Y5608782D01*
X-8695471Y5598554D01*
X-8717993Y5590496D01*
X-8741197Y5584684D01*
X-8764858Y5581174D01*
X-8788750Y5580000D01*
X-9276250Y5580000D01*
X-9300142Y5581174D01*
X-9323803Y5584684D01*
X-9347007Y5590496D01*
X-9369529Y5598554D01*
X-9391153Y5608782D01*
X-9411670Y5621079D01*
X-9430883Y5635329D01*
X-9448607Y5651393D01*
X-9464671Y5669117D01*
X-9478921Y5688330D01*
X-9491218Y5708847D01*
X-9501446Y5730471D01*
X-9509504Y5752993D01*
X-9515316Y5776197D01*
X-9518826Y5799858D01*
X-9520000Y5823750D01*
X-9520000Y6736250D01*
X-9518826Y6760142D01*
X-9515316Y6783803D01*
X-9509504Y6807007D01*
X-9501446Y6829529D01*
X-9491218Y6851153D01*
X-9478921Y6871670D01*
X-9464671Y6890883D01*
X-9448607Y6908607D01*
X-9430883Y6924671D01*
X-9411670Y6938921D01*
X-9391153Y6951218D01*
X-9369529Y6961446D01*
X-9347007Y6969504D01*
X-9323803Y6975316D01*
X-9300142Y6978826D01*
X-9276250Y6980000D01*
X-8788750Y6980000D01*
X-8764858Y6978826D01*
X-8764858Y6978826D01*
G37*
D16*
X-9032500Y6280000D03*
D18*
X-8806000Y4686000D03*
X-8806000Y4186000D03*
X-8806000Y3686000D03*
X-8806000Y3186000D03*
X-8806000Y2686000D03*
X-11106000Y2686000D03*
X-11106000Y3186000D03*
X-11106000Y3686000D03*
X-11106000Y4186000D03*
X-11106000Y4686000D03*
D19*
X-19685000Y10160000D03*
X-19685000Y-13843000D03*
D20*
X-16954500Y-1841500D03*
D21*
X-21082000Y-1841500D03*
D19*
X19685000Y10160000D03*
X19685000Y-13843000D03*
D20*
X16954500Y-1841500D03*
D21*
X21082000Y-1841500D03*
D15*
G36*
X3076762Y12175806D02*
G01*
X3100423Y12172296D01*
X3123627Y12166484D01*
X3146149Y12158426D01*
X3167773Y12148198D01*
X3188290Y12135901D01*
X3207503Y12121651D01*
X3225227Y12105587D01*
X3241291Y12087863D01*
X3255541Y12068650D01*
X3267838Y12048133D01*
X3278066Y12026509D01*
X3286124Y12003987D01*
X3291936Y11980783D01*
X3295446Y11957122D01*
X3296620Y11933230D01*
X3296620Y11445730D01*
X3295446Y11421838D01*
X3291936Y11398177D01*
X3286124Y11374973D01*
X3278066Y11352451D01*
X3267838Y11330827D01*
X3255541Y11310310D01*
X3241291Y11291097D01*
X3225227Y11273373D01*
X3207503Y11257309D01*
X3188290Y11243059D01*
X3167773Y11230762D01*
X3146149Y11220534D01*
X3123627Y11212476D01*
X3100423Y11206664D01*
X3076762Y11203154D01*
X3052870Y11201980D01*
X2140370Y11201980D01*
X2116478Y11203154D01*
X2092817Y11206664D01*
X2069613Y11212476D01*
X2047091Y11220534D01*
X2025467Y11230762D01*
X2004950Y11243059D01*
X1985737Y11257309D01*
X1968013Y11273373D01*
X1951949Y11291097D01*
X1937699Y11310310D01*
X1925402Y11330827D01*
X1915174Y11352451D01*
X1907116Y11374973D01*
X1901304Y11398177D01*
X1897794Y11421838D01*
X1896620Y11445730D01*
X1896620Y11933230D01*
X1897794Y11957122D01*
X1901304Y11980783D01*
X1907116Y12003987D01*
X1915174Y12026509D01*
X1925402Y12048133D01*
X1937699Y12068650D01*
X1951949Y12087863D01*
X1968013Y12105587D01*
X1985737Y12121651D01*
X2004950Y12135901D01*
X2025467Y12148198D01*
X2047091Y12158426D01*
X2069613Y12166484D01*
X2092817Y12172296D01*
X2116478Y12175806D01*
X2140370Y12176980D01*
X3052870Y12176980D01*
X3076762Y12175806D01*
X3076762Y12175806D01*
G37*
D16*
X2596620Y11689480D03*
D15*
G36*
X3076762Y14050806D02*
G01*
X3100423Y14047296D01*
X3123627Y14041484D01*
X3146149Y14033426D01*
X3167773Y14023198D01*
X3188290Y14010901D01*
X3207503Y13996651D01*
X3225227Y13980587D01*
X3241291Y13962863D01*
X3255541Y13943650D01*
X3267838Y13923133D01*
X3278066Y13901509D01*
X3286124Y13878987D01*
X3291936Y13855783D01*
X3295446Y13832122D01*
X3296620Y13808230D01*
X3296620Y13320730D01*
X3295446Y13296838D01*
X3291936Y13273177D01*
X3286124Y13249973D01*
X3278066Y13227451D01*
X3267838Y13205827D01*
X3255541Y13185310D01*
X3241291Y13166097D01*
X3225227Y13148373D01*
X3207503Y13132309D01*
X3188290Y13118059D01*
X3167773Y13105762D01*
X3146149Y13095534D01*
X3123627Y13087476D01*
X3100423Y13081664D01*
X3076762Y13078154D01*
X3052870Y13076980D01*
X2140370Y13076980D01*
X2116478Y13078154D01*
X2092817Y13081664D01*
X2069613Y13087476D01*
X2047091Y13095534D01*
X2025467Y13105762D01*
X2004950Y13118059D01*
X1985737Y13132309D01*
X1968013Y13148373D01*
X1951949Y13166097D01*
X1937699Y13185310D01*
X1925402Y13205827D01*
X1915174Y13227451D01*
X1907116Y13249973D01*
X1901304Y13273177D01*
X1897794Y13296838D01*
X1896620Y13320730D01*
X1896620Y13808230D01*
X1897794Y13832122D01*
X1901304Y13855783D01*
X1907116Y13878987D01*
X1915174Y13901509D01*
X1925402Y13923133D01*
X1937699Y13943650D01*
X1951949Y13962863D01*
X1968013Y13980587D01*
X1985737Y13996651D01*
X2004950Y14010901D01*
X2025467Y14023198D01*
X2047091Y14033426D01*
X2069613Y14041484D01*
X2092817Y14047296D01*
X2116478Y14050806D01*
X2140370Y14051980D01*
X3052870Y14051980D01*
X3076762Y14050806D01*
X3076762Y14050806D01*
G37*
D16*
X2596620Y13564480D03*
D15*
G36*
X3076762Y17498306D02*
G01*
X3100423Y17494796D01*
X3123627Y17488984D01*
X3146149Y17480926D01*
X3167773Y17470698D01*
X3188290Y17458401D01*
X3207503Y17444151D01*
X3225227Y17428087D01*
X3241291Y17410363D01*
X3255541Y17391150D01*
X3267838Y17370633D01*
X3278066Y17349009D01*
X3286124Y17326487D01*
X3291936Y17303283D01*
X3295446Y17279622D01*
X3296620Y17255730D01*
X3296620Y16768230D01*
X3295446Y16744338D01*
X3291936Y16720677D01*
X3286124Y16697473D01*
X3278066Y16674951D01*
X3267838Y16653327D01*
X3255541Y16632810D01*
X3241291Y16613597D01*
X3225227Y16595873D01*
X3207503Y16579809D01*
X3188290Y16565559D01*
X3167773Y16553262D01*
X3146149Y16543034D01*
X3123627Y16534976D01*
X3100423Y16529164D01*
X3076762Y16525654D01*
X3052870Y16524480D01*
X2140370Y16524480D01*
X2116478Y16525654D01*
X2092817Y16529164D01*
X2069613Y16534976D01*
X2047091Y16543034D01*
X2025467Y16553262D01*
X2004950Y16565559D01*
X1985737Y16579809D01*
X1968013Y16595873D01*
X1951949Y16613597D01*
X1937699Y16632810D01*
X1925402Y16653327D01*
X1915174Y16674951D01*
X1907116Y16697473D01*
X1901304Y16720677D01*
X1897794Y16744338D01*
X1896620Y16768230D01*
X1896620Y17255730D01*
X1897794Y17279622D01*
X1901304Y17303283D01*
X1907116Y17326487D01*
X1915174Y17349009D01*
X1925402Y17370633D01*
X1937699Y17391150D01*
X1951949Y17410363D01*
X1968013Y17428087D01*
X1985737Y17444151D01*
X2004950Y17458401D01*
X2025467Y17470698D01*
X2047091Y17480926D01*
X2069613Y17488984D01*
X2092817Y17494796D01*
X2116478Y17498306D01*
X2140370Y17499480D01*
X3052870Y17499480D01*
X3076762Y17498306D01*
X3076762Y17498306D01*
G37*
D16*
X2596620Y17011980D03*
D15*
G36*
X3076762Y15623306D02*
G01*
X3100423Y15619796D01*
X3123627Y15613984D01*
X3146149Y15605926D01*
X3167773Y15595698D01*
X3188290Y15583401D01*
X3207503Y15569151D01*
X3225227Y15553087D01*
X3241291Y15535363D01*
X3255541Y15516150D01*
X3267838Y15495633D01*
X3278066Y15474009D01*
X3286124Y15451487D01*
X3291936Y15428283D01*
X3295446Y15404622D01*
X3296620Y15380730D01*
X3296620Y14893230D01*
X3295446Y14869338D01*
X3291936Y14845677D01*
X3286124Y14822473D01*
X3278066Y14799951D01*
X3267838Y14778327D01*
X3255541Y14757810D01*
X3241291Y14738597D01*
X3225227Y14720873D01*
X3207503Y14704809D01*
X3188290Y14690559D01*
X3167773Y14678262D01*
X3146149Y14668034D01*
X3123627Y14659976D01*
X3100423Y14654164D01*
X3076762Y14650654D01*
X3052870Y14649480D01*
X2140370Y14649480D01*
X2116478Y14650654D01*
X2092817Y14654164D01*
X2069613Y14659976D01*
X2047091Y14668034D01*
X2025467Y14678262D01*
X2004950Y14690559D01*
X1985737Y14704809D01*
X1968013Y14720873D01*
X1951949Y14738597D01*
X1937699Y14757810D01*
X1925402Y14778327D01*
X1915174Y14799951D01*
X1907116Y14822473D01*
X1901304Y14845677D01*
X1897794Y14869338D01*
X1896620Y14893230D01*
X1896620Y15380730D01*
X1897794Y15404622D01*
X1901304Y15428283D01*
X1907116Y15451487D01*
X1915174Y15474009D01*
X1925402Y15495633D01*
X1937699Y15516150D01*
X1951949Y15535363D01*
X1968013Y15553087D01*
X1985737Y15569151D01*
X2004950Y15583401D01*
X2025467Y15595698D01*
X2047091Y15605926D01*
X2069613Y15613984D01*
X2092817Y15619796D01*
X2116478Y15623306D01*
X2140370Y15624480D01*
X3052870Y15624480D01*
X3076762Y15623306D01*
X3076762Y15623306D01*
G37*
D16*
X2596620Y15136980D03*
D22*
X616620Y13514480D03*
X616620Y11414480D03*
D15*
G36*
X-6354858Y-780754D02*
G01*
X-6331197Y-784264D01*
X-6307993Y-790076D01*
X-6285471Y-798134D01*
X-6263847Y-808362D01*
X-6243330Y-820659D01*
X-6224117Y-834909D01*
X-6206393Y-850973D01*
X-6190329Y-868697D01*
X-6176079Y-887910D01*
X-6163782Y-908427D01*
X-6153554Y-930051D01*
X-6145496Y-952573D01*
X-6139684Y-975777D01*
X-6136174Y-999438D01*
X-6135000Y-1023330D01*
X-6135000Y-1510830D01*
X-6136174Y-1534722D01*
X-6139684Y-1558383D01*
X-6145496Y-1581587D01*
X-6153554Y-1604109D01*
X-6163782Y-1625733D01*
X-6176079Y-1646250D01*
X-6190329Y-1665463D01*
X-6206393Y-1683187D01*
X-6224117Y-1699251D01*
X-6243330Y-1713501D01*
X-6263847Y-1725798D01*
X-6285471Y-1736026D01*
X-6307993Y-1744084D01*
X-6331197Y-1749896D01*
X-6354858Y-1753406D01*
X-6378750Y-1754580D01*
X-7291250Y-1754580D01*
X-7315142Y-1753406D01*
X-7338803Y-1749896D01*
X-7362007Y-1744084D01*
X-7384529Y-1736026D01*
X-7406153Y-1725798D01*
X-7426670Y-1713501D01*
X-7445883Y-1699251D01*
X-7463607Y-1683187D01*
X-7479671Y-1665463D01*
X-7493921Y-1646250D01*
X-7506218Y-1625733D01*
X-7516446Y-1604109D01*
X-7524504Y-1581587D01*
X-7530316Y-1558383D01*
X-7533826Y-1534722D01*
X-7535000Y-1510830D01*
X-7535000Y-1023330D01*
X-7533826Y-999438D01*
X-7530316Y-975777D01*
X-7524504Y-952573D01*
X-7516446Y-930051D01*
X-7506218Y-908427D01*
X-7493921Y-887910D01*
X-7479671Y-868697D01*
X-7463607Y-850973D01*
X-7445883Y-834909D01*
X-7426670Y-820659D01*
X-7406153Y-808362D01*
X-7384529Y-798134D01*
X-7362007Y-790076D01*
X-7338803Y-784264D01*
X-7315142Y-780754D01*
X-7291250Y-779580D01*
X-6378750Y-779580D01*
X-6354858Y-780754D01*
X-6354858Y-780754D01*
G37*
D16*
X-6835000Y-1267080D03*
D15*
G36*
X-6354858Y1094246D02*
G01*
X-6331197Y1090736D01*
X-6307993Y1084924D01*
X-6285471Y1076866D01*
X-6263847Y1066638D01*
X-6243330Y1054341D01*
X-6224117Y1040091D01*
X-6206393Y1024027D01*
X-6190329Y1006303D01*
X-6176079Y987090D01*
X-6163782Y966573D01*
X-6153554Y944949D01*
X-6145496Y922427D01*
X-6139684Y899223D01*
X-6136174Y875562D01*
X-6135000Y851670D01*
X-6135000Y364170D01*
X-6136174Y340278D01*
X-6139684Y316617D01*
X-6145496Y293413D01*
X-6153554Y270891D01*
X-6163782Y249267D01*
X-6176079Y228750D01*
X-6190329Y209537D01*
X-6206393Y191813D01*
X-6224117Y175749D01*
X-6243330Y161499D01*
X-6263847Y149202D01*
X-6285471Y138974D01*
X-6307993Y130916D01*
X-6331197Y125104D01*
X-6354858Y121594D01*
X-6378750Y120420D01*
X-7291250Y120420D01*
X-7315142Y121594D01*
X-7338803Y125104D01*
X-7362007Y130916D01*
X-7384529Y138974D01*
X-7406153Y149202D01*
X-7426670Y161499D01*
X-7445883Y175749D01*
X-7463607Y191813D01*
X-7479671Y209537D01*
X-7493921Y228750D01*
X-7506218Y249267D01*
X-7516446Y270891D01*
X-7524504Y293413D01*
X-7530316Y316617D01*
X-7533826Y340278D01*
X-7535000Y364170D01*
X-7535000Y851670D01*
X-7533826Y875562D01*
X-7530316Y899223D01*
X-7524504Y922427D01*
X-7516446Y944949D01*
X-7506218Y966573D01*
X-7493921Y987090D01*
X-7479671Y1006303D01*
X-7463607Y1024027D01*
X-7445883Y1040091D01*
X-7426670Y1054341D01*
X-7406153Y1066638D01*
X-7384529Y1076866D01*
X-7362007Y1084924D01*
X-7338803Y1090736D01*
X-7315142Y1094246D01*
X-7291250Y1095420D01*
X-6378750Y1095420D01*
X-6354858Y1094246D01*
X-6354858Y1094246D01*
G37*
D16*
X-6835000Y607920D03*
D15*
G36*
X-12369858Y11983826D02*
G01*
X-12346197Y11980316D01*
X-12322993Y11974504D01*
X-12300471Y11966446D01*
X-12278847Y11956218D01*
X-12258330Y11943921D01*
X-12239117Y11929671D01*
X-12221393Y11913607D01*
X-12205329Y11895883D01*
X-12191079Y11876670D01*
X-12178782Y11856153D01*
X-12168554Y11834529D01*
X-12160496Y11812007D01*
X-12154684Y11788803D01*
X-12151174Y11765142D01*
X-12150000Y11741250D01*
X-12150000Y11253750D01*
X-12151174Y11229858D01*
X-12154684Y11206197D01*
X-12160496Y11182993D01*
X-12168554Y11160471D01*
X-12178782Y11138847D01*
X-12191079Y11118330D01*
X-12205329Y11099117D01*
X-12221393Y11081393D01*
X-12239117Y11065329D01*
X-12258330Y11051079D01*
X-12278847Y11038782D01*
X-12300471Y11028554D01*
X-12322993Y11020496D01*
X-12346197Y11014684D01*
X-12369858Y11011174D01*
X-12393750Y11010000D01*
X-13306250Y11010000D01*
X-13330142Y11011174D01*
X-13353803Y11014684D01*
X-13377007Y11020496D01*
X-13399529Y11028554D01*
X-13421153Y11038782D01*
X-13441670Y11051079D01*
X-13460883Y11065329D01*
X-13478607Y11081393D01*
X-13494671Y11099117D01*
X-13508921Y11118330D01*
X-13521218Y11138847D01*
X-13531446Y11160471D01*
X-13539504Y11182993D01*
X-13545316Y11206197D01*
X-13548826Y11229858D01*
X-13550000Y11253750D01*
X-13550000Y11741250D01*
X-13548826Y11765142D01*
X-13545316Y11788803D01*
X-13539504Y11812007D01*
X-13531446Y11834529D01*
X-13521218Y11856153D01*
X-13508921Y11876670D01*
X-13494671Y11895883D01*
X-13478607Y11913607D01*
X-13460883Y11929671D01*
X-13441670Y11943921D01*
X-13421153Y11956218D01*
X-13399529Y11966446D01*
X-13377007Y11974504D01*
X-13353803Y11980316D01*
X-13330142Y11983826D01*
X-13306250Y11985000D01*
X-12393750Y11985000D01*
X-12369858Y11983826D01*
X-12369858Y11983826D01*
G37*
D16*
X-12850000Y11497500D03*
D15*
G36*
X-12369858Y10108826D02*
G01*
X-12346197Y10105316D01*
X-12322993Y10099504D01*
X-12300471Y10091446D01*
X-12278847Y10081218D01*
X-12258330Y10068921D01*
X-12239117Y10054671D01*
X-12221393Y10038607D01*
X-12205329Y10020883D01*
X-12191079Y10001670D01*
X-12178782Y9981153D01*
X-12168554Y9959529D01*
X-12160496Y9937007D01*
X-12154684Y9913803D01*
X-12151174Y9890142D01*
X-12150000Y9866250D01*
X-12150000Y9378750D01*
X-12151174Y9354858D01*
X-12154684Y9331197D01*
X-12160496Y9307993D01*
X-12168554Y9285471D01*
X-12178782Y9263847D01*
X-12191079Y9243330D01*
X-12205329Y9224117D01*
X-12221393Y9206393D01*
X-12239117Y9190329D01*
X-12258330Y9176079D01*
X-12278847Y9163782D01*
X-12300471Y9153554D01*
X-12322993Y9145496D01*
X-12346197Y9139684D01*
X-12369858Y9136174D01*
X-12393750Y9135000D01*
X-13306250Y9135000D01*
X-13330142Y9136174D01*
X-13353803Y9139684D01*
X-13377007Y9145496D01*
X-13399529Y9153554D01*
X-13421153Y9163782D01*
X-13441670Y9176079D01*
X-13460883Y9190329D01*
X-13478607Y9206393D01*
X-13494671Y9224117D01*
X-13508921Y9243330D01*
X-13521218Y9263847D01*
X-13531446Y9285471D01*
X-13539504Y9307993D01*
X-13545316Y9331197D01*
X-13548826Y9354858D01*
X-13550000Y9378750D01*
X-13550000Y9866250D01*
X-13548826Y9890142D01*
X-13545316Y9913803D01*
X-13539504Y9937007D01*
X-13531446Y9959529D01*
X-13521218Y9981153D01*
X-13508921Y10001670D01*
X-13494671Y10020883D01*
X-13478607Y10038607D01*
X-13460883Y10054671D01*
X-13441670Y10068921D01*
X-13421153Y10081218D01*
X-13399529Y10091446D01*
X-13377007Y10099504D01*
X-13353803Y10105316D01*
X-13330142Y10108826D01*
X-13306250Y10110000D01*
X-12393750Y10110000D01*
X-12369858Y10108826D01*
X-12369858Y10108826D01*
G37*
D16*
X-12850000Y9622500D03*
D15*
G36*
X-6249858Y11098826D02*
G01*
X-6226197Y11095316D01*
X-6202993Y11089504D01*
X-6180471Y11081446D01*
X-6158847Y11071218D01*
X-6138330Y11058921D01*
X-6119117Y11044671D01*
X-6101393Y11028607D01*
X-6085329Y11010883D01*
X-6071079Y10991670D01*
X-6058782Y10971153D01*
X-6048554Y10949529D01*
X-6040496Y10927007D01*
X-6034684Y10903803D01*
X-6031174Y10880142D01*
X-6030000Y10856250D01*
X-6030000Y10368750D01*
X-6031174Y10344858D01*
X-6034684Y10321197D01*
X-6040496Y10297993D01*
X-6048554Y10275471D01*
X-6058782Y10253847D01*
X-6071079Y10233330D01*
X-6085329Y10214117D01*
X-6101393Y10196393D01*
X-6119117Y10180329D01*
X-6138330Y10166079D01*
X-6158847Y10153782D01*
X-6180471Y10143554D01*
X-6202993Y10135496D01*
X-6226197Y10129684D01*
X-6249858Y10126174D01*
X-6273750Y10125000D01*
X-7186250Y10125000D01*
X-7210142Y10126174D01*
X-7233803Y10129684D01*
X-7257007Y10135496D01*
X-7279529Y10143554D01*
X-7301153Y10153782D01*
X-7321670Y10166079D01*
X-7340883Y10180329D01*
X-7358607Y10196393D01*
X-7374671Y10214117D01*
X-7388921Y10233330D01*
X-7401218Y10253847D01*
X-7411446Y10275471D01*
X-7419504Y10297993D01*
X-7425316Y10321197D01*
X-7428826Y10344858D01*
X-7430000Y10368750D01*
X-7430000Y10856250D01*
X-7428826Y10880142D01*
X-7425316Y10903803D01*
X-7419504Y10927007D01*
X-7411446Y10949529D01*
X-7401218Y10971153D01*
X-7388921Y10991670D01*
X-7374671Y11010883D01*
X-7358607Y11028607D01*
X-7340883Y11044671D01*
X-7321670Y11058921D01*
X-7301153Y11071218D01*
X-7279529Y11081446D01*
X-7257007Y11089504D01*
X-7233803Y11095316D01*
X-7210142Y11098826D01*
X-7186250Y11100000D01*
X-6273750Y11100000D01*
X-6249858Y11098826D01*
X-6249858Y11098826D01*
G37*
D16*
X-6730000Y10612500D03*
D15*
G36*
X-6249858Y12973826D02*
G01*
X-6226197Y12970316D01*
X-6202993Y12964504D01*
X-6180471Y12956446D01*
X-6158847Y12946218D01*
X-6138330Y12933921D01*
X-6119117Y12919671D01*
X-6101393Y12903607D01*
X-6085329Y12885883D01*
X-6071079Y12866670D01*
X-6058782Y12846153D01*
X-6048554Y12824529D01*
X-6040496Y12802007D01*
X-6034684Y12778803D01*
X-6031174Y12755142D01*
X-6030000Y12731250D01*
X-6030000Y12243750D01*
X-6031174Y12219858D01*
X-6034684Y12196197D01*
X-6040496Y12172993D01*
X-6048554Y12150471D01*
X-6058782Y12128847D01*
X-6071079Y12108330D01*
X-6085329Y12089117D01*
X-6101393Y12071393D01*
X-6119117Y12055329D01*
X-6138330Y12041079D01*
X-6158847Y12028782D01*
X-6180471Y12018554D01*
X-6202993Y12010496D01*
X-6226197Y12004684D01*
X-6249858Y12001174D01*
X-6273750Y12000000D01*
X-7186250Y12000000D01*
X-7210142Y12001174D01*
X-7233803Y12004684D01*
X-7257007Y12010496D01*
X-7279529Y12018554D01*
X-7301153Y12028782D01*
X-7321670Y12041079D01*
X-7340883Y12055329D01*
X-7358607Y12071393D01*
X-7374671Y12089117D01*
X-7388921Y12108330D01*
X-7401218Y12128847D01*
X-7411446Y12150471D01*
X-7419504Y12172993D01*
X-7425316Y12196197D01*
X-7428826Y12219858D01*
X-7430000Y12243750D01*
X-7430000Y12731250D01*
X-7428826Y12755142D01*
X-7425316Y12778803D01*
X-7419504Y12802007D01*
X-7411446Y12824529D01*
X-7401218Y12846153D01*
X-7388921Y12866670D01*
X-7374671Y12885883D01*
X-7358607Y12903607D01*
X-7340883Y12919671D01*
X-7321670Y12933921D01*
X-7301153Y12946218D01*
X-7279529Y12956446D01*
X-7257007Y12964504D01*
X-7233803Y12970316D01*
X-7210142Y12973826D01*
X-7186250Y12975000D01*
X-6273750Y12975000D01*
X-6249858Y12973826D01*
X-6249858Y12973826D01*
G37*
D16*
X-6730000Y12487500D03*
D15*
G36*
X-4880496Y-21646204D02*
G01*
X-4856227Y-21649804D01*
X-4832429Y-21655765D01*
X-4809329Y-21664030D01*
X-4787151Y-21674520D01*
X-4766107Y-21687133D01*
X-4746402Y-21701747D01*
X-4728223Y-21718223D01*
X-4711747Y-21736402D01*
X-4697133Y-21756107D01*
X-4684520Y-21777151D01*
X-4674030Y-21799329D01*
X-4665765Y-21822429D01*
X-4659804Y-21846227D01*
X-4656204Y-21870496D01*
X-4655000Y-21895000D01*
X-4655000Y-22645000D01*
X-4656204Y-22669504D01*
X-4659804Y-22693773D01*
X-4665765Y-22717571D01*
X-4674030Y-22740671D01*
X-4684520Y-22762849D01*
X-4697133Y-22783893D01*
X-4711747Y-22803598D01*
X-4728223Y-22821777D01*
X-4746402Y-22838253D01*
X-4766107Y-22852867D01*
X-4787151Y-22865480D01*
X-4809329Y-22875970D01*
X-4832429Y-22884235D01*
X-4856227Y-22890196D01*
X-4880496Y-22893796D01*
X-4905000Y-22895000D01*
X-7055000Y-22895000D01*
X-7079504Y-22893796D01*
X-7103773Y-22890196D01*
X-7127571Y-22884235D01*
X-7150671Y-22875970D01*
X-7172849Y-22865480D01*
X-7193893Y-22852867D01*
X-7213598Y-22838253D01*
X-7231777Y-22821777D01*
X-7248253Y-22803598D01*
X-7262867Y-22783893D01*
X-7275480Y-22762849D01*
X-7285970Y-22740671D01*
X-7294235Y-22717571D01*
X-7300196Y-22693773D01*
X-7303796Y-22669504D01*
X-7305000Y-22645000D01*
X-7305000Y-21895000D01*
X-7303796Y-21870496D01*
X-7300196Y-21846227D01*
X-7294235Y-21822429D01*
X-7285970Y-21799329D01*
X-7275480Y-21777151D01*
X-7262867Y-21756107D01*
X-7248253Y-21736402D01*
X-7231777Y-21718223D01*
X-7213598Y-21701747D01*
X-7193893Y-21687133D01*
X-7172849Y-21674520D01*
X-7150671Y-21664030D01*
X-7127571Y-21655765D01*
X-7103773Y-21649804D01*
X-7079504Y-21646204D01*
X-7055000Y-21645000D01*
X-4905000Y-21645000D01*
X-4880496Y-21646204D01*
X-4880496Y-21646204D01*
G37*
D17*
X-5980000Y-22270000D03*
D15*
G36*
X-4880496Y-24446204D02*
G01*
X-4856227Y-24449804D01*
X-4832429Y-24455765D01*
X-4809329Y-24464030D01*
X-4787151Y-24474520D01*
X-4766107Y-24487133D01*
X-4746402Y-24501747D01*
X-4728223Y-24518223D01*
X-4711747Y-24536402D01*
X-4697133Y-24556107D01*
X-4684520Y-24577151D01*
X-4674030Y-24599329D01*
X-4665765Y-24622429D01*
X-4659804Y-24646227D01*
X-4656204Y-24670496D01*
X-4655000Y-24695000D01*
X-4655000Y-25445000D01*
X-4656204Y-25469504D01*
X-4659804Y-25493773D01*
X-4665765Y-25517571D01*
X-4674030Y-25540671D01*
X-4684520Y-25562849D01*
X-4697133Y-25583893D01*
X-4711747Y-25603598D01*
X-4728223Y-25621777D01*
X-4746402Y-25638253D01*
X-4766107Y-25652867D01*
X-4787151Y-25665480D01*
X-4809329Y-25675970D01*
X-4832429Y-25684235D01*
X-4856227Y-25690196D01*
X-4880496Y-25693796D01*
X-4905000Y-25695000D01*
X-7055000Y-25695000D01*
X-7079504Y-25693796D01*
X-7103773Y-25690196D01*
X-7127571Y-25684235D01*
X-7150671Y-25675970D01*
X-7172849Y-25665480D01*
X-7193893Y-25652867D01*
X-7213598Y-25638253D01*
X-7231777Y-25621777D01*
X-7248253Y-25603598D01*
X-7262867Y-25583893D01*
X-7275480Y-25562849D01*
X-7285970Y-25540671D01*
X-7294235Y-25517571D01*
X-7300196Y-25493773D01*
X-7303796Y-25469504D01*
X-7305000Y-25445000D01*
X-7305000Y-24695000D01*
X-7303796Y-24670496D01*
X-7300196Y-24646227D01*
X-7294235Y-24622429D01*
X-7285970Y-24599329D01*
X-7275480Y-24577151D01*
X-7262867Y-24556107D01*
X-7248253Y-24536402D01*
X-7231777Y-24518223D01*
X-7213598Y-24501747D01*
X-7193893Y-24487133D01*
X-7172849Y-24474520D01*
X-7150671Y-24464030D01*
X-7127571Y-24455765D01*
X-7103773Y-24449804D01*
X-7079504Y-24446204D01*
X-7055000Y-24445000D01*
X-4905000Y-24445000D01*
X-4880496Y-24446204D01*
X-4880496Y-24446204D01*
G37*
D17*
X-5980000Y-25070000D03*
D15*
G36*
X-12196858Y-780754D02*
G01*
X-12173197Y-784264D01*
X-12149993Y-790076D01*
X-12127471Y-798134D01*
X-12105847Y-808362D01*
X-12085330Y-820659D01*
X-12066117Y-834909D01*
X-12048393Y-850973D01*
X-12032329Y-868697D01*
X-12018079Y-887910D01*
X-12005782Y-908427D01*
X-11995554Y-930051D01*
X-11987496Y-952573D01*
X-11981684Y-975777D01*
X-11978174Y-999438D01*
X-11977000Y-1023330D01*
X-11977000Y-1510830D01*
X-11978174Y-1534722D01*
X-11981684Y-1558383D01*
X-11987496Y-1581587D01*
X-11995554Y-1604109D01*
X-12005782Y-1625733D01*
X-12018079Y-1646250D01*
X-12032329Y-1665463D01*
X-12048393Y-1683187D01*
X-12066117Y-1699251D01*
X-12085330Y-1713501D01*
X-12105847Y-1725798D01*
X-12127471Y-1736026D01*
X-12149993Y-1744084D01*
X-12173197Y-1749896D01*
X-12196858Y-1753406D01*
X-12220750Y-1754580D01*
X-13133250Y-1754580D01*
X-13157142Y-1753406D01*
X-13180803Y-1749896D01*
X-13204007Y-1744084D01*
X-13226529Y-1736026D01*
X-13248153Y-1725798D01*
X-13268670Y-1713501D01*
X-13287883Y-1699251D01*
X-13305607Y-1683187D01*
X-13321671Y-1665463D01*
X-13335921Y-1646250D01*
X-13348218Y-1625733D01*
X-13358446Y-1604109D01*
X-13366504Y-1581587D01*
X-13372316Y-1558383D01*
X-13375826Y-1534722D01*
X-13377000Y-1510830D01*
X-13377000Y-1023330D01*
X-13375826Y-999438D01*
X-13372316Y-975777D01*
X-13366504Y-952573D01*
X-13358446Y-930051D01*
X-13348218Y-908427D01*
X-13335921Y-887910D01*
X-13321671Y-868697D01*
X-13305607Y-850973D01*
X-13287883Y-834909D01*
X-13268670Y-820659D01*
X-13248153Y-808362D01*
X-13226529Y-798134D01*
X-13204007Y-790076D01*
X-13180803Y-784264D01*
X-13157142Y-780754D01*
X-13133250Y-779580D01*
X-12220750Y-779580D01*
X-12196858Y-780754D01*
X-12196858Y-780754D01*
G37*
D16*
X-12677000Y-1267080D03*
D15*
G36*
X-12196858Y1094246D02*
G01*
X-12173197Y1090736D01*
X-12149993Y1084924D01*
X-12127471Y1076866D01*
X-12105847Y1066638D01*
X-12085330Y1054341D01*
X-12066117Y1040091D01*
X-12048393Y1024027D01*
X-12032329Y1006303D01*
X-12018079Y987090D01*
X-12005782Y966573D01*
X-11995554Y944949D01*
X-11987496Y922427D01*
X-11981684Y899223D01*
X-11978174Y875562D01*
X-11977000Y851670D01*
X-11977000Y364170D01*
X-11978174Y340278D01*
X-11981684Y316617D01*
X-11987496Y293413D01*
X-11995554Y270891D01*
X-12005782Y249267D01*
X-12018079Y228750D01*
X-12032329Y209537D01*
X-12048393Y191813D01*
X-12066117Y175749D01*
X-12085330Y161499D01*
X-12105847Y149202D01*
X-12127471Y138974D01*
X-12149993Y130916D01*
X-12173197Y125104D01*
X-12196858Y121594D01*
X-12220750Y120420D01*
X-13133250Y120420D01*
X-13157142Y121594D01*
X-13180803Y125104D01*
X-13204007Y130916D01*
X-13226529Y138974D01*
X-13248153Y149202D01*
X-13268670Y161499D01*
X-13287883Y175749D01*
X-13305607Y191813D01*
X-13321671Y209537D01*
X-13335921Y228750D01*
X-13348218Y249267D01*
X-13358446Y270891D01*
X-13366504Y293413D01*
X-13372316Y316617D01*
X-13375826Y340278D01*
X-13377000Y364170D01*
X-13377000Y851670D01*
X-13375826Y875562D01*
X-13372316Y899223D01*
X-13366504Y922427D01*
X-13358446Y944949D01*
X-13348218Y966573D01*
X-13335921Y987090D01*
X-13321671Y1006303D01*
X-13305607Y1024027D01*
X-13287883Y1040091D01*
X-13268670Y1054341D01*
X-13248153Y1066638D01*
X-13226529Y1076866D01*
X-13204007Y1084924D01*
X-13180803Y1090736D01*
X-13157142Y1094246D01*
X-13133250Y1095420D01*
X-12220750Y1095420D01*
X-12196858Y1094246D01*
X-12196858Y1094246D01*
G37*
D16*
X-12677000Y607920D03*
D23*
X-4996180Y12298660D03*
X-3726180Y12298660D03*
X-2456180Y12298660D03*
X-1186180Y12298660D03*
X-1186180Y6898660D03*
X-2456180Y6898660D03*
X-3726180Y6898660D03*
X-4996180Y6898660D03*
D24*
X-8806000Y-1429580D03*
X-9756000Y-1429580D03*
X-10706000Y-1429580D03*
X-10706000Y770420D03*
X-8806000Y770420D03*
D15*
G36*
X1386922Y23409586D02*
G01*
X1410583Y23406076D01*
X1433787Y23400264D01*
X1456309Y23392206D01*
X1477933Y23381978D01*
X1498450Y23369681D01*
X1517663Y23355431D01*
X1535387Y23339367D01*
X1551451Y23321643D01*
X1565701Y23302430D01*
X1577998Y23281913D01*
X1588226Y23260289D01*
X1596284Y23237767D01*
X1602096Y23214563D01*
X1605606Y23190902D01*
X1606780Y23167010D01*
X1606780Y22679510D01*
X1605606Y22655618D01*
X1602096Y22631957D01*
X1596284Y22608753D01*
X1588226Y22586231D01*
X1577998Y22564607D01*
X1565701Y22544090D01*
X1551451Y22524877D01*
X1535387Y22507153D01*
X1517663Y22491089D01*
X1498450Y22476839D01*
X1477933Y22464542D01*
X1456309Y22454314D01*
X1433787Y22446256D01*
X1410583Y22440444D01*
X1386922Y22436934D01*
X1363030Y22435760D01*
X450530Y22435760D01*
X426638Y22436934D01*
X402977Y22440444D01*
X379773Y22446256D01*
X357251Y22454314D01*
X335627Y22464542D01*
X315110Y22476839D01*
X295897Y22491089D01*
X278173Y22507153D01*
X262109Y22524877D01*
X247859Y22544090D01*
X235562Y22564607D01*
X225334Y22586231D01*
X217276Y22608753D01*
X211464Y22631957D01*
X207954Y22655618D01*
X206780Y22679510D01*
X206780Y23167010D01*
X207954Y23190902D01*
X211464Y23214563D01*
X217276Y23237767D01*
X225334Y23260289D01*
X235562Y23281913D01*
X247859Y23302430D01*
X262109Y23321643D01*
X278173Y23339367D01*
X295897Y23355431D01*
X315110Y23369681D01*
X335627Y23381978D01*
X357251Y23392206D01*
X379773Y23400264D01*
X402977Y23406076D01*
X426638Y23409586D01*
X450530Y23410760D01*
X1363030Y23410760D01*
X1386922Y23409586D01*
X1386922Y23409586D01*
G37*
D16*
X906780Y22923260D03*
D15*
G36*
X1386922Y25284586D02*
G01*
X1410583Y25281076D01*
X1433787Y25275264D01*
X1456309Y25267206D01*
X1477933Y25256978D01*
X1498450Y25244681D01*
X1517663Y25230431D01*
X1535387Y25214367D01*
X1551451Y25196643D01*
X1565701Y25177430D01*
X1577998Y25156913D01*
X1588226Y25135289D01*
X1596284Y25112767D01*
X1602096Y25089563D01*
X1605606Y25065902D01*
X1606780Y25042010D01*
X1606780Y24554510D01*
X1605606Y24530618D01*
X1602096Y24506957D01*
X1596284Y24483753D01*
X1588226Y24461231D01*
X1577998Y24439607D01*
X1565701Y24419090D01*
X1551451Y24399877D01*
X1535387Y24382153D01*
X1517663Y24366089D01*
X1498450Y24351839D01*
X1477933Y24339542D01*
X1456309Y24329314D01*
X1433787Y24321256D01*
X1410583Y24315444D01*
X1386922Y24311934D01*
X1363030Y24310760D01*
X450530Y24310760D01*
X426638Y24311934D01*
X402977Y24315444D01*
X379773Y24321256D01*
X357251Y24329314D01*
X335627Y24339542D01*
X315110Y24351839D01*
X295897Y24366089D01*
X278173Y24382153D01*
X262109Y24399877D01*
X247859Y24419090D01*
X235562Y24439607D01*
X225334Y24461231D01*
X217276Y24483753D01*
X211464Y24506957D01*
X207954Y24530618D01*
X206780Y24554510D01*
X206780Y25042010D01*
X207954Y25065902D01*
X211464Y25089563D01*
X217276Y25112767D01*
X225334Y25135289D01*
X235562Y25156913D01*
X247859Y25177430D01*
X262109Y25196643D01*
X278173Y25214367D01*
X295897Y25230431D01*
X315110Y25244681D01*
X335627Y25256978D01*
X357251Y25267206D01*
X379773Y25275264D01*
X402977Y25281076D01*
X426638Y25284586D01*
X450530Y25285760D01*
X1363030Y25285760D01*
X1386922Y25284586D01*
X1386922Y25284586D01*
G37*
D16*
X906780Y24798260D03*
D15*
G36*
X8587182Y2327546D02*
G01*
X8610843Y2324036D01*
X8634047Y2318224D01*
X8656569Y2310166D01*
X8678193Y2299938D01*
X8698710Y2287641D01*
X8717923Y2273391D01*
X8735647Y2257327D01*
X8751711Y2239603D01*
X8765961Y2220390D01*
X8778258Y2199873D01*
X8788486Y2178249D01*
X8796544Y2155727D01*
X8802356Y2132523D01*
X8805866Y2108862D01*
X8807040Y2084970D01*
X8807040Y1172470D01*
X8805866Y1148578D01*
X8802356Y1124917D01*
X8796544Y1101713D01*
X8788486Y1079191D01*
X8778258Y1057567D01*
X8765961Y1037050D01*
X8751711Y1017837D01*
X8735647Y1000113D01*
X8717923Y984049D01*
X8698710Y969799D01*
X8678193Y957502D01*
X8656569Y947274D01*
X8634047Y939216D01*
X8610843Y933404D01*
X8587182Y929894D01*
X8563290Y928720D01*
X8075790Y928720D01*
X8051898Y929894D01*
X8028237Y933404D01*
X8005033Y939216D01*
X7982511Y947274D01*
X7960887Y957502D01*
X7940370Y969799D01*
X7921157Y984049D01*
X7903433Y1000113D01*
X7887369Y1017837D01*
X7873119Y1037050D01*
X7860822Y1057567D01*
X7850594Y1079191D01*
X7842536Y1101713D01*
X7836724Y1124917D01*
X7833214Y1148578D01*
X7832040Y1172470D01*
X7832040Y2084970D01*
X7833214Y2108862D01*
X7836724Y2132523D01*
X7842536Y2155727D01*
X7850594Y2178249D01*
X7860822Y2199873D01*
X7873119Y2220390D01*
X7887369Y2239603D01*
X7903433Y2257327D01*
X7921157Y2273391D01*
X7940370Y2287641D01*
X7960887Y2299938D01*
X7982511Y2310166D01*
X8005033Y2318224D01*
X8028237Y2324036D01*
X8051898Y2327546D01*
X8075790Y2328720D01*
X8563290Y2328720D01*
X8587182Y2327546D01*
X8587182Y2327546D01*
G37*
D16*
X8319540Y1628720D03*
D15*
G36*
X6712182Y2327546D02*
G01*
X6735843Y2324036D01*
X6759047Y2318224D01*
X6781569Y2310166D01*
X6803193Y2299938D01*
X6823710Y2287641D01*
X6842923Y2273391D01*
X6860647Y2257327D01*
X6876711Y2239603D01*
X6890961Y2220390D01*
X6903258Y2199873D01*
X6913486Y2178249D01*
X6921544Y2155727D01*
X6927356Y2132523D01*
X6930866Y2108862D01*
X6932040Y2084970D01*
X6932040Y1172470D01*
X6930866Y1148578D01*
X6927356Y1124917D01*
X6921544Y1101713D01*
X6913486Y1079191D01*
X6903258Y1057567D01*
X6890961Y1037050D01*
X6876711Y1017837D01*
X6860647Y1000113D01*
X6842923Y984049D01*
X6823710Y969799D01*
X6803193Y957502D01*
X6781569Y947274D01*
X6759047Y939216D01*
X6735843Y933404D01*
X6712182Y929894D01*
X6688290Y928720D01*
X6200790Y928720D01*
X6176898Y929894D01*
X6153237Y933404D01*
X6130033Y939216D01*
X6107511Y947274D01*
X6085887Y957502D01*
X6065370Y969799D01*
X6046157Y984049D01*
X6028433Y1000113D01*
X6012369Y1017837D01*
X5998119Y1037050D01*
X5985822Y1057567D01*
X5975594Y1079191D01*
X5967536Y1101713D01*
X5961724Y1124917D01*
X5958214Y1148578D01*
X5957040Y1172470D01*
X5957040Y2084970D01*
X5958214Y2108862D01*
X5961724Y2132523D01*
X5967536Y2155727D01*
X5975594Y2178249D01*
X5985822Y2199873D01*
X5998119Y2220390D01*
X6012369Y2239603D01*
X6028433Y2257327D01*
X6046157Y2273391D01*
X6065370Y2287641D01*
X6085887Y2299938D01*
X6107511Y2310166D01*
X6130033Y2318224D01*
X6153237Y2324036D01*
X6176898Y2327546D01*
X6200790Y2328720D01*
X6688290Y2328720D01*
X6712182Y2327546D01*
X6712182Y2327546D01*
G37*
D16*
X6444540Y1628720D03*
D15*
G36*
X3156182Y2327546D02*
G01*
X3179843Y2324036D01*
X3203047Y2318224D01*
X3225569Y2310166D01*
X3247193Y2299938D01*
X3267710Y2287641D01*
X3286923Y2273391D01*
X3304647Y2257327D01*
X3320711Y2239603D01*
X3334961Y2220390D01*
X3347258Y2199873D01*
X3357486Y2178249D01*
X3365544Y2155727D01*
X3371356Y2132523D01*
X3374866Y2108862D01*
X3376040Y2084970D01*
X3376040Y1172470D01*
X3374866Y1148578D01*
X3371356Y1124917D01*
X3365544Y1101713D01*
X3357486Y1079191D01*
X3347258Y1057567D01*
X3334961Y1037050D01*
X3320711Y1017837D01*
X3304647Y1000113D01*
X3286923Y984049D01*
X3267710Y969799D01*
X3247193Y957502D01*
X3225569Y947274D01*
X3203047Y939216D01*
X3179843Y933404D01*
X3156182Y929894D01*
X3132290Y928720D01*
X2644790Y928720D01*
X2620898Y929894D01*
X2597237Y933404D01*
X2574033Y939216D01*
X2551511Y947274D01*
X2529887Y957502D01*
X2509370Y969799D01*
X2490157Y984049D01*
X2472433Y1000113D01*
X2456369Y1017837D01*
X2442119Y1037050D01*
X2429822Y1057567D01*
X2419594Y1079191D01*
X2411536Y1101713D01*
X2405724Y1124917D01*
X2402214Y1148578D01*
X2401040Y1172470D01*
X2401040Y2084970D01*
X2402214Y2108862D01*
X2405724Y2132523D01*
X2411536Y2155727D01*
X2419594Y2178249D01*
X2429822Y2199873D01*
X2442119Y2220390D01*
X2456369Y2239603D01*
X2472433Y2257327D01*
X2490157Y2273391D01*
X2509370Y2287641D01*
X2529887Y2299938D01*
X2551511Y2310166D01*
X2574033Y2318224D01*
X2597237Y2324036D01*
X2620898Y2327546D01*
X2644790Y2328720D01*
X3132290Y2328720D01*
X3156182Y2327546D01*
X3156182Y2327546D01*
G37*
D16*
X2888540Y1628720D03*
D15*
G36*
X5031182Y2327546D02*
G01*
X5054843Y2324036D01*
X5078047Y2318224D01*
X5100569Y2310166D01*
X5122193Y2299938D01*
X5142710Y2287641D01*
X5161923Y2273391D01*
X5179647Y2257327D01*
X5195711Y2239603D01*
X5209961Y2220390D01*
X5222258Y2199873D01*
X5232486Y2178249D01*
X5240544Y2155727D01*
X5246356Y2132523D01*
X5249866Y2108862D01*
X5251040Y2084970D01*
X5251040Y1172470D01*
X5249866Y1148578D01*
X5246356Y1124917D01*
X5240544Y1101713D01*
X5232486Y1079191D01*
X5222258Y1057567D01*
X5209961Y1037050D01*
X5195711Y1017837D01*
X5179647Y1000113D01*
X5161923Y984049D01*
X5142710Y969799D01*
X5122193Y957502D01*
X5100569Y947274D01*
X5078047Y939216D01*
X5054843Y933404D01*
X5031182Y929894D01*
X5007290Y928720D01*
X4519790Y928720D01*
X4495898Y929894D01*
X4472237Y933404D01*
X4449033Y939216D01*
X4426511Y947274D01*
X4404887Y957502D01*
X4384370Y969799D01*
X4365157Y984049D01*
X4347433Y1000113D01*
X4331369Y1017837D01*
X4317119Y1037050D01*
X4304822Y1057567D01*
X4294594Y1079191D01*
X4286536Y1101713D01*
X4280724Y1124917D01*
X4277214Y1148578D01*
X4276040Y1172470D01*
X4276040Y2084970D01*
X4277214Y2108862D01*
X4280724Y2132523D01*
X4286536Y2155727D01*
X4294594Y2178249D01*
X4304822Y2199873D01*
X4317119Y2220390D01*
X4331369Y2239603D01*
X4347433Y2257327D01*
X4365157Y2273391D01*
X4384370Y2287641D01*
X4404887Y2299938D01*
X4426511Y2310166D01*
X4449033Y2318224D01*
X4472237Y2324036D01*
X4495898Y2327546D01*
X4519790Y2328720D01*
X5007290Y2328720D01*
X5031182Y2327546D01*
X5031182Y2327546D01*
G37*
D16*
X4763540Y1628720D03*
D15*
G36*
X6712182Y4359546D02*
G01*
X6735843Y4356036D01*
X6759047Y4350224D01*
X6781569Y4342166D01*
X6803193Y4331938D01*
X6823710Y4319641D01*
X6842923Y4305391D01*
X6860647Y4289327D01*
X6876711Y4271603D01*
X6890961Y4252390D01*
X6903258Y4231873D01*
X6913486Y4210249D01*
X6921544Y4187727D01*
X6927356Y4164523D01*
X6930866Y4140862D01*
X6932040Y4116970D01*
X6932040Y3204470D01*
X6930866Y3180578D01*
X6927356Y3156917D01*
X6921544Y3133713D01*
X6913486Y3111191D01*
X6903258Y3089567D01*
X6890961Y3069050D01*
X6876711Y3049837D01*
X6860647Y3032113D01*
X6842923Y3016049D01*
X6823710Y3001799D01*
X6803193Y2989502D01*
X6781569Y2979274D01*
X6759047Y2971216D01*
X6735843Y2965404D01*
X6712182Y2961894D01*
X6688290Y2960720D01*
X6200790Y2960720D01*
X6176898Y2961894D01*
X6153237Y2965404D01*
X6130033Y2971216D01*
X6107511Y2979274D01*
X6085887Y2989502D01*
X6065370Y3001799D01*
X6046157Y3016049D01*
X6028433Y3032113D01*
X6012369Y3049837D01*
X5998119Y3069050D01*
X5985822Y3089567D01*
X5975594Y3111191D01*
X5967536Y3133713D01*
X5961724Y3156917D01*
X5958214Y3180578D01*
X5957040Y3204470D01*
X5957040Y4116970D01*
X5958214Y4140862D01*
X5961724Y4164523D01*
X5967536Y4187727D01*
X5975594Y4210249D01*
X5985822Y4231873D01*
X5998119Y4252390D01*
X6012369Y4271603D01*
X6028433Y4289327D01*
X6046157Y4305391D01*
X6065370Y4319641D01*
X6085887Y4331938D01*
X6107511Y4342166D01*
X6130033Y4350224D01*
X6153237Y4356036D01*
X6176898Y4359546D01*
X6200790Y4360720D01*
X6688290Y4360720D01*
X6712182Y4359546D01*
X6712182Y4359546D01*
G37*
D16*
X6444540Y3660720D03*
D15*
G36*
X8587182Y4359546D02*
G01*
X8610843Y4356036D01*
X8634047Y4350224D01*
X8656569Y4342166D01*
X8678193Y4331938D01*
X8698710Y4319641D01*
X8717923Y4305391D01*
X8735647Y4289327D01*
X8751711Y4271603D01*
X8765961Y4252390D01*
X8778258Y4231873D01*
X8788486Y4210249D01*
X8796544Y4187727D01*
X8802356Y4164523D01*
X8805866Y4140862D01*
X8807040Y4116970D01*
X8807040Y3204470D01*
X8805866Y3180578D01*
X8802356Y3156917D01*
X8796544Y3133713D01*
X8788486Y3111191D01*
X8778258Y3089567D01*
X8765961Y3069050D01*
X8751711Y3049837D01*
X8735647Y3032113D01*
X8717923Y3016049D01*
X8698710Y3001799D01*
X8678193Y2989502D01*
X8656569Y2979274D01*
X8634047Y2971216D01*
X8610843Y2965404D01*
X8587182Y2961894D01*
X8563290Y2960720D01*
X8075790Y2960720D01*
X8051898Y2961894D01*
X8028237Y2965404D01*
X8005033Y2971216D01*
X7982511Y2979274D01*
X7960887Y2989502D01*
X7940370Y3001799D01*
X7921157Y3016049D01*
X7903433Y3032113D01*
X7887369Y3049837D01*
X7873119Y3069050D01*
X7860822Y3089567D01*
X7850594Y3111191D01*
X7842536Y3133713D01*
X7836724Y3156917D01*
X7833214Y3180578D01*
X7832040Y3204470D01*
X7832040Y4116970D01*
X7833214Y4140862D01*
X7836724Y4164523D01*
X7842536Y4187727D01*
X7850594Y4210249D01*
X7860822Y4231873D01*
X7873119Y4252390D01*
X7887369Y4271603D01*
X7903433Y4289327D01*
X7921157Y4305391D01*
X7940370Y4319641D01*
X7960887Y4331938D01*
X7982511Y4342166D01*
X8005033Y4350224D01*
X8028237Y4356036D01*
X8051898Y4359546D01*
X8075790Y4360720D01*
X8563290Y4360720D01*
X8587182Y4359546D01*
X8587182Y4359546D01*
G37*
D16*
X8319540Y3660720D03*
D15*
G36*
X5031182Y4359546D02*
G01*
X5054843Y4356036D01*
X5078047Y4350224D01*
X5100569Y4342166D01*
X5122193Y4331938D01*
X5142710Y4319641D01*
X5161923Y4305391D01*
X5179647Y4289327D01*
X5195711Y4271603D01*
X5209961Y4252390D01*
X5222258Y4231873D01*
X5232486Y4210249D01*
X5240544Y4187727D01*
X5246356Y4164523D01*
X5249866Y4140862D01*
X5251040Y4116970D01*
X5251040Y3204470D01*
X5249866Y3180578D01*
X5246356Y3156917D01*
X5240544Y3133713D01*
X5232486Y3111191D01*
X5222258Y3089567D01*
X5209961Y3069050D01*
X5195711Y3049837D01*
X5179647Y3032113D01*
X5161923Y3016049D01*
X5142710Y3001799D01*
X5122193Y2989502D01*
X5100569Y2979274D01*
X5078047Y2971216D01*
X5054843Y2965404D01*
X5031182Y2961894D01*
X5007290Y2960720D01*
X4519790Y2960720D01*
X4495898Y2961894D01*
X4472237Y2965404D01*
X4449033Y2971216D01*
X4426511Y2979274D01*
X4404887Y2989502D01*
X4384370Y3001799D01*
X4365157Y3016049D01*
X4347433Y3032113D01*
X4331369Y3049837D01*
X4317119Y3069050D01*
X4304822Y3089567D01*
X4294594Y3111191D01*
X4286536Y3133713D01*
X4280724Y3156917D01*
X4277214Y3180578D01*
X4276040Y3204470D01*
X4276040Y4116970D01*
X4277214Y4140862D01*
X4280724Y4164523D01*
X4286536Y4187727D01*
X4294594Y4210249D01*
X4304822Y4231873D01*
X4317119Y4252390D01*
X4331369Y4271603D01*
X4347433Y4289327D01*
X4365157Y4305391D01*
X4384370Y4319641D01*
X4404887Y4331938D01*
X4426511Y4342166D01*
X4449033Y4350224D01*
X4472237Y4356036D01*
X4495898Y4359546D01*
X4519790Y4360720D01*
X5007290Y4360720D01*
X5031182Y4359546D01*
X5031182Y4359546D01*
G37*
D16*
X4763540Y3660720D03*
D15*
G36*
X3156182Y4359546D02*
G01*
X3179843Y4356036D01*
X3203047Y4350224D01*
X3225569Y4342166D01*
X3247193Y4331938D01*
X3267710Y4319641D01*
X3286923Y4305391D01*
X3304647Y4289327D01*
X3320711Y4271603D01*
X3334961Y4252390D01*
X3347258Y4231873D01*
X3357486Y4210249D01*
X3365544Y4187727D01*
X3371356Y4164523D01*
X3374866Y4140862D01*
X3376040Y4116970D01*
X3376040Y3204470D01*
X3374866Y3180578D01*
X3371356Y3156917D01*
X3365544Y3133713D01*
X3357486Y3111191D01*
X3347258Y3089567D01*
X3334961Y3069050D01*
X3320711Y3049837D01*
X3304647Y3032113D01*
X3286923Y3016049D01*
X3267710Y3001799D01*
X3247193Y2989502D01*
X3225569Y2979274D01*
X3203047Y2971216D01*
X3179843Y2965404D01*
X3156182Y2961894D01*
X3132290Y2960720D01*
X2644790Y2960720D01*
X2620898Y2961894D01*
X2597237Y2965404D01*
X2574033Y2971216D01*
X2551511Y2979274D01*
X2529887Y2989502D01*
X2509370Y3001799D01*
X2490157Y3016049D01*
X2472433Y3032113D01*
X2456369Y3049837D01*
X2442119Y3069050D01*
X2429822Y3089567D01*
X2419594Y3111191D01*
X2411536Y3133713D01*
X2405724Y3156917D01*
X2402214Y3180578D01*
X2401040Y3204470D01*
X2401040Y4116970D01*
X2402214Y4140862D01*
X2405724Y4164523D01*
X2411536Y4187727D01*
X2419594Y4210249D01*
X2429822Y4231873D01*
X2442119Y4252390D01*
X2456369Y4271603D01*
X2472433Y4289327D01*
X2490157Y4305391D01*
X2509370Y4319641D01*
X2529887Y4331938D01*
X2551511Y4342166D01*
X2574033Y4350224D01*
X2597237Y4356036D01*
X2620898Y4359546D01*
X2644790Y4360720D01*
X3132290Y4360720D01*
X3156182Y4359546D01*
X3156182Y4359546D01*
G37*
D16*
X2888540Y3660720D03*
D15*
G36*
X6712182Y6391546D02*
G01*
X6735843Y6388036D01*
X6759047Y6382224D01*
X6781569Y6374166D01*
X6803193Y6363938D01*
X6823710Y6351641D01*
X6842923Y6337391D01*
X6860647Y6321327D01*
X6876711Y6303603D01*
X6890961Y6284390D01*
X6903258Y6263873D01*
X6913486Y6242249D01*
X6921544Y6219727D01*
X6927356Y6196523D01*
X6930866Y6172862D01*
X6932040Y6148970D01*
X6932040Y5236470D01*
X6930866Y5212578D01*
X6927356Y5188917D01*
X6921544Y5165713D01*
X6913486Y5143191D01*
X6903258Y5121567D01*
X6890961Y5101050D01*
X6876711Y5081837D01*
X6860647Y5064113D01*
X6842923Y5048049D01*
X6823710Y5033799D01*
X6803193Y5021502D01*
X6781569Y5011274D01*
X6759047Y5003216D01*
X6735843Y4997404D01*
X6712182Y4993894D01*
X6688290Y4992720D01*
X6200790Y4992720D01*
X6176898Y4993894D01*
X6153237Y4997404D01*
X6130033Y5003216D01*
X6107511Y5011274D01*
X6085887Y5021502D01*
X6065370Y5033799D01*
X6046157Y5048049D01*
X6028433Y5064113D01*
X6012369Y5081837D01*
X5998119Y5101050D01*
X5985822Y5121567D01*
X5975594Y5143191D01*
X5967536Y5165713D01*
X5961724Y5188917D01*
X5958214Y5212578D01*
X5957040Y5236470D01*
X5957040Y6148970D01*
X5958214Y6172862D01*
X5961724Y6196523D01*
X5967536Y6219727D01*
X5975594Y6242249D01*
X5985822Y6263873D01*
X5998119Y6284390D01*
X6012369Y6303603D01*
X6028433Y6321327D01*
X6046157Y6337391D01*
X6065370Y6351641D01*
X6085887Y6363938D01*
X6107511Y6374166D01*
X6130033Y6382224D01*
X6153237Y6388036D01*
X6176898Y6391546D01*
X6200790Y6392720D01*
X6688290Y6392720D01*
X6712182Y6391546D01*
X6712182Y6391546D01*
G37*
D16*
X6444540Y5692720D03*
D15*
G36*
X8587182Y6391546D02*
G01*
X8610843Y6388036D01*
X8634047Y6382224D01*
X8656569Y6374166D01*
X8678193Y6363938D01*
X8698710Y6351641D01*
X8717923Y6337391D01*
X8735647Y6321327D01*
X8751711Y6303603D01*
X8765961Y6284390D01*
X8778258Y6263873D01*
X8788486Y6242249D01*
X8796544Y6219727D01*
X8802356Y6196523D01*
X8805866Y6172862D01*
X8807040Y6148970D01*
X8807040Y5236470D01*
X8805866Y5212578D01*
X8802356Y5188917D01*
X8796544Y5165713D01*
X8788486Y5143191D01*
X8778258Y5121567D01*
X8765961Y5101050D01*
X8751711Y5081837D01*
X8735647Y5064113D01*
X8717923Y5048049D01*
X8698710Y5033799D01*
X8678193Y5021502D01*
X8656569Y5011274D01*
X8634047Y5003216D01*
X8610843Y4997404D01*
X8587182Y4993894D01*
X8563290Y4992720D01*
X8075790Y4992720D01*
X8051898Y4993894D01*
X8028237Y4997404D01*
X8005033Y5003216D01*
X7982511Y5011274D01*
X7960887Y5021502D01*
X7940370Y5033799D01*
X7921157Y5048049D01*
X7903433Y5064113D01*
X7887369Y5081837D01*
X7873119Y5101050D01*
X7860822Y5121567D01*
X7850594Y5143191D01*
X7842536Y5165713D01*
X7836724Y5188917D01*
X7833214Y5212578D01*
X7832040Y5236470D01*
X7832040Y6148970D01*
X7833214Y6172862D01*
X7836724Y6196523D01*
X7842536Y6219727D01*
X7850594Y6242249D01*
X7860822Y6263873D01*
X7873119Y6284390D01*
X7887369Y6303603D01*
X7903433Y6321327D01*
X7921157Y6337391D01*
X7940370Y6351641D01*
X7960887Y6363938D01*
X7982511Y6374166D01*
X8005033Y6382224D01*
X8028237Y6388036D01*
X8051898Y6391546D01*
X8075790Y6392720D01*
X8563290Y6392720D01*
X8587182Y6391546D01*
X8587182Y6391546D01*
G37*
D16*
X8319540Y5692720D03*
D15*
G36*
X5031182Y6391546D02*
G01*
X5054843Y6388036D01*
X5078047Y6382224D01*
X5100569Y6374166D01*
X5122193Y6363938D01*
X5142710Y6351641D01*
X5161923Y6337391D01*
X5179647Y6321327D01*
X5195711Y6303603D01*
X5209961Y6284390D01*
X5222258Y6263873D01*
X5232486Y6242249D01*
X5240544Y6219727D01*
X5246356Y6196523D01*
X5249866Y6172862D01*
X5251040Y6148970D01*
X5251040Y5236470D01*
X5249866Y5212578D01*
X5246356Y5188917D01*
X5240544Y5165713D01*
X5232486Y5143191D01*
X5222258Y5121567D01*
X5209961Y5101050D01*
X5195711Y5081837D01*
X5179647Y5064113D01*
X5161923Y5048049D01*
X5142710Y5033799D01*
X5122193Y5021502D01*
X5100569Y5011274D01*
X5078047Y5003216D01*
X5054843Y4997404D01*
X5031182Y4993894D01*
X5007290Y4992720D01*
X4519790Y4992720D01*
X4495898Y4993894D01*
X4472237Y4997404D01*
X4449033Y5003216D01*
X4426511Y5011274D01*
X4404887Y5021502D01*
X4384370Y5033799D01*
X4365157Y5048049D01*
X4347433Y5064113D01*
X4331369Y5081837D01*
X4317119Y5101050D01*
X4304822Y5121567D01*
X4294594Y5143191D01*
X4286536Y5165713D01*
X4280724Y5188917D01*
X4277214Y5212578D01*
X4276040Y5236470D01*
X4276040Y6148970D01*
X4277214Y6172862D01*
X4280724Y6196523D01*
X4286536Y6219727D01*
X4294594Y6242249D01*
X4304822Y6263873D01*
X4317119Y6284390D01*
X4331369Y6303603D01*
X4347433Y6321327D01*
X4365157Y6337391D01*
X4384370Y6351641D01*
X4404887Y6363938D01*
X4426511Y6374166D01*
X4449033Y6382224D01*
X4472237Y6388036D01*
X4495898Y6391546D01*
X4519790Y6392720D01*
X5007290Y6392720D01*
X5031182Y6391546D01*
X5031182Y6391546D01*
G37*
D16*
X4763540Y5692720D03*
D15*
G36*
X3156182Y6391546D02*
G01*
X3179843Y6388036D01*
X3203047Y6382224D01*
X3225569Y6374166D01*
X3247193Y6363938D01*
X3267710Y6351641D01*
X3286923Y6337391D01*
X3304647Y6321327D01*
X3320711Y6303603D01*
X3334961Y6284390D01*
X3347258Y6263873D01*
X3357486Y6242249D01*
X3365544Y6219727D01*
X3371356Y6196523D01*
X3374866Y6172862D01*
X3376040Y6148970D01*
X3376040Y5236470D01*
X3374866Y5212578D01*
X3371356Y5188917D01*
X3365544Y5165713D01*
X3357486Y5143191D01*
X3347258Y5121567D01*
X3334961Y5101050D01*
X3320711Y5081837D01*
X3304647Y5064113D01*
X3286923Y5048049D01*
X3267710Y5033799D01*
X3247193Y5021502D01*
X3225569Y5011274D01*
X3203047Y5003216D01*
X3179843Y4997404D01*
X3156182Y4993894D01*
X3132290Y4992720D01*
X2644790Y4992720D01*
X2620898Y4993894D01*
X2597237Y4997404D01*
X2574033Y5003216D01*
X2551511Y5011274D01*
X2529887Y5021502D01*
X2509370Y5033799D01*
X2490157Y5048049D01*
X2472433Y5064113D01*
X2456369Y5081837D01*
X2442119Y5101050D01*
X2429822Y5121567D01*
X2419594Y5143191D01*
X2411536Y5165713D01*
X2405724Y5188917D01*
X2402214Y5212578D01*
X2401040Y5236470D01*
X2401040Y6148970D01*
X2402214Y6172862D01*
X2405724Y6196523D01*
X2411536Y6219727D01*
X2419594Y6242249D01*
X2429822Y6263873D01*
X2442119Y6284390D01*
X2456369Y6303603D01*
X2472433Y6321327D01*
X2490157Y6337391D01*
X2509370Y6351641D01*
X2529887Y6363938D01*
X2551511Y6374166D01*
X2574033Y6382224D01*
X2597237Y6388036D01*
X2620898Y6391546D01*
X2644790Y6392720D01*
X3132290Y6392720D01*
X3156182Y6391546D01*
X3156182Y6391546D01*
G37*
D16*
X2888540Y5692720D03*
D25*
X-10920000Y8650000D03*
X-10920000Y12350000D03*
X-8720000Y12350000D03*
X-8720000Y8650000D03*
M02*
