M48
; DRILL file {KiCad (5.1.4)-1} date 7/19/2020 11:15:44 PM
; FORMAT={2:4/ absolute / inch / suppress leading zeros}
; #@! TF.CreationDate,2020-07-19T23:15:44-07:00
; #@! TF.GenerationSoftware,Kicad,Pcbnew,(5.1.4)-1
FMAT,2
INCH,TZ
T1C0.0118
T2C0.0280
T3C0.0394
T4C0.0900
T5C0.0300
T6C0.0420
T7C0.0940
%
G90
G05
T1
X-8500Y2500
X-8500Y1500
X-8500Y500
X-8500Y-500
X-8500Y-1500
X-8500Y-2500
X-8500Y-3500
X-8500Y-4500
X-7500Y2500
X-7500Y1500
X-7500Y500
X-7500Y-500
X-7500Y-1500
X-7500Y-2500
X-7500Y-3500
X-6500Y4500
X-6500Y3500
X-6500Y2500
X-6500Y1500
X-6500Y500
X-6500Y-500
X-6500Y-1500
X-6500Y-2500
X-6500Y-3500
X-6500Y-4500
X-6500Y-5500
X-5303Y6323
X-5150Y6622
X-4980Y8575
X-4906Y-3535
X-4906Y-3862
X-4906Y-4173
X-4906Y-4488
X-4874Y-13051
X-4874Y-13457
X-4866Y-12622
X-4803Y6933
X-4803Y5236
X-4740Y-8299
X-4539Y-9138
X-4523Y-9909
X-4517Y6039
X-4297Y-97
X-4292Y-1968
X-4291Y-13386
X-4287Y7795
X-4169Y756
X-4157Y-12390
X-3984Y-10902
X-3858Y-5709
X-3858Y-6102
X-3858Y-6496
X-3839Y134
X-3803Y488
X-3776Y1484
X-3465Y-5709
X-3465Y-6102
X-3465Y-6496
X-3437Y-7212
X-3421Y6581
X-3315Y4240
X-3245Y9193
X-3209Y-13339
X-3160Y7357
X-3144Y-10936
X-3143Y-9912
X-3141Y-7212
X-3134Y-13887
X-3130Y2174
X-3098Y8339
X-3071Y-5709
X-3071Y-6102
X-3071Y-6496
X-3008Y5248
X-2980Y3071
X-2969Y-3118
X-2945Y7130
X-2913Y-2039
X-2870Y7417
X-2828Y9188
X-2788Y-7853
X-2787Y6878
X-2728Y-11134
X-2720Y3240
X-2669Y1076
X-2665Y2413
X-2594Y7205
X-2578Y-7560
X-2574Y-13022
X-2559Y7625
X-2559Y-10445
X-2472Y6878
X-2461Y642
X-2435Y8951
X-2331Y7988
X-2327Y-11157
X-2244Y-9398
X-2216Y9150
X-2154Y6874
X-2154Y-4437
X-2142Y390
X-2138Y2118
X-1953Y-14508
X-1949Y-10909
X-1894Y-7559
X-1882Y-10539
X-1876Y-7858
X-1870Y-3445
X-1803Y-7016
X-1800Y9147
X-1792Y8847
X-1755Y7062
X-1669Y8004
X-1575Y-4331
X-1559Y-11677
X-1559Y-483
X-1541Y-10165
X-1534Y-9656
X-1521Y6881
X-1496Y-7024
X-1488Y-11256
X-1362Y-7307
X-1350Y9114
X-1313Y8820
X-1213Y6874
X-1188Y8552
X-1031Y469
X-1011Y8792
X-980Y7697
X-909Y9177
X-899Y6873
X-898Y4378
X-882Y8232
X-827Y7339
X-646Y-14512
X-559Y-483
X-276Y-6929
X-276Y-7323
X-253Y371
X-197Y4335
X-137Y-11397
X-131Y9763
X-31Y-11843
X24Y6339
X71Y-3543
X118Y-6929
X118Y-7717
X126Y-7331
X205Y2217
X256Y3822
X256Y3084
X280Y4803
X280Y2598
X295Y1591
X327Y5925
X354Y618
X512Y-6929
X512Y-7323
X554Y6441
X677Y-14512
X752Y382
X913Y7228
X996Y2811
X1199Y7146
X1236Y-12106
X1283Y-7677
X1394Y9819
X1455Y6916
X1488Y-7409
X1548Y8588
X1622Y8067
X1638Y-815
X1646Y3500
X1657Y4118
X1659Y-483
X1693Y-7134
X1697Y6362
X1748Y6795
X1854Y3169
X1902Y-10020
X1921Y-14441
X1953Y-335
X1953Y-657
X1953Y-657
X1969Y-3937
X2079Y6475
X2094Y-7697
X2106Y-10665
X2110Y-7315
X2161Y-1303
X2362Y-3543
X2362Y-3937
X2362Y-4331
X2461Y3531
X2621Y6912
X2720Y9165
X2756Y-3937
X2775Y7958
X2920Y468
X2953Y1650
X3193Y-12882
X3224Y-13799
X3422Y6484
X3492Y-3575
X3591Y-4685
X3622Y-5972
X3658Y-7892
X3660Y-7093
X3673Y-8724
X3673Y-8996
X3677Y-8449
X3697Y-6417
X3701Y4071
X3871Y2668
X3965Y8476
X4130Y6693
X4154Y354
X4161Y-1315
X4370Y-4028
X4386Y-12627
X4396Y-7892
X4398Y-7093
X4429Y-5043
X4460Y2642
X4500Y9500
X4500Y8500
X4516Y7598
X4543Y-5925
X4779Y-12625
X4781Y-12250
X4785Y-13018
X4890Y7197
X4909Y-5551
X4909Y-5921
X4909Y-6291
X5055Y2650
X5150Y4299
X5154Y-3528
X5165Y-4299
X5169Y3138
X5195Y-12634
X5224Y1413
X5240Y6913
X5252Y-13276
X5295Y-5921
X5322Y2884
X5331Y-7791
X5346Y-8882
X5354Y-6681
X5397Y3346
X5397Y3642
X6500Y4500
X6500Y3500
X6500Y2500
X6500Y1500
X6500Y500
X6500Y-5500
X7500Y2500
X7500Y1500
X7500Y-1500
X7500Y-2500
X7500Y-3500
X7512Y-531
X7535Y504
X8500Y2500
X8500Y1500
X8500Y500
X8500Y-500
X8500Y-1500
X8500Y-2500
X8500Y-3500
X8500Y-4500
T2
X-1750Y-13233
X-1750Y-13733
X-1250Y-13233
X-1250Y-13733
X-750Y-13233
X-750Y-13733
X-250Y-13233
X-250Y-13733
X250Y-13233
X250Y-13733
X750Y-13233
X750Y-13733
X1250Y-13233
X1250Y-13733
X1750Y-13233
X1750Y-13733
T3
X1862Y5866
X1862Y4866
X2862Y5866
X2862Y4866
X3862Y5866
X3862Y4866
T4
X7750Y3803
X7750Y-5450
X-7750Y3803
X-7750Y-5450
T5
X1638Y-2374
T6
X2090Y8520
X4090Y9020
X4090Y8020
T7
X2090Y9520
X2090Y7520
X3340Y9520
X3340Y7520
T0
M30
