G04 #@! TF.GenerationSoftware,KiCad,Pcbnew,(5.1.4)-1*
G04 #@! TF.CreationDate,2020-08-30T22:03:12-07:00*
G04 #@! TF.ProjectId,SkateLightBackLEDBoard,536b6174-654c-4696-9768-744261636b4c,rev?*
G04 #@! TF.SameCoordinates,Original*
G04 #@! TF.FileFunction,Legend,Bot*
G04 #@! TF.FilePolarity,Positive*
%FSLAX46Y46*%
G04 Gerber Fmt 4.6, Leading zero omitted, Abs format (unit mm)*
G04 Created by KiCad (PCBNEW (5.1.4)-1) date 2020-08-30 22:03:12*
%MOMM*%
%LPD*%
G04 APERTURE LIST*
%ADD10C,0.127000*%
%ADD11C,0.120000*%
G04 APERTURE END LIST*
D10*
X-21495285Y3499000D02*
X-22257285Y3499000D01*
X-22257285Y3317571D01*
X-22221000Y3208714D01*
X-22148428Y3136142D01*
X-22075857Y3099857D01*
X-21930714Y3063571D01*
X-21821857Y3063571D01*
X-21676714Y3099857D01*
X-21604142Y3136142D01*
X-21531571Y3208714D01*
X-21495285Y3317571D01*
X-21495285Y3499000D01*
X-21713000Y2773285D02*
X-21713000Y2410428D01*
X-21495285Y2845857D02*
X-22257285Y2591857D01*
X-21495285Y2337857D01*
X-21930714Y1394428D02*
X-21967000Y1467000D01*
X-22003285Y1503285D01*
X-22075857Y1539571D01*
X-22112142Y1539571D01*
X-22184714Y1503285D01*
X-22221000Y1467000D01*
X-22257285Y1394428D01*
X-22257285Y1249285D01*
X-22221000Y1176714D01*
X-22184714Y1140428D01*
X-22112142Y1104142D01*
X-22075857Y1104142D01*
X-22003285Y1140428D01*
X-21967000Y1176714D01*
X-21930714Y1249285D01*
X-21930714Y1394428D01*
X-21894428Y1467000D01*
X-21858142Y1503285D01*
X-21785571Y1539571D01*
X-21640428Y1539571D01*
X-21567857Y1503285D01*
X-21531571Y1467000D01*
X-21495285Y1394428D01*
X-21495285Y1249285D01*
X-21531571Y1176714D01*
X-21567857Y1140428D01*
X-21640428Y1104142D01*
X-21785571Y1104142D01*
X-21858142Y1140428D01*
X-21894428Y1176714D01*
X-21930714Y1249285D01*
X-22293571Y233285D02*
X-21313857Y886428D01*
X-22257285Y51857D02*
X-22257285Y-419857D01*
X-21967000Y-165857D01*
X-21967000Y-274714D01*
X-21930714Y-347285D01*
X-21894428Y-383571D01*
X-21821857Y-419857D01*
X-21640428Y-419857D01*
X-21567857Y-383571D01*
X-21531571Y-347285D01*
X-21495285Y-274714D01*
X-21495285Y-57000D01*
X-21531571Y15571D01*
X-21567857Y51857D01*
X-22257285Y-891571D02*
X-22257285Y-964142D01*
X-22221000Y-1036714D01*
X-22184714Y-1073000D01*
X-22112142Y-1109285D01*
X-21967000Y-1145571D01*
X-21785571Y-1145571D01*
X-21640428Y-1109285D01*
X-21567857Y-1073000D01*
X-21531571Y-1036714D01*
X-21495285Y-964142D01*
X-21495285Y-891571D01*
X-21531571Y-819000D01*
X-21567857Y-782714D01*
X-21640428Y-746428D01*
X-21785571Y-710142D01*
X-21967000Y-710142D01*
X-22112142Y-746428D01*
X-22184714Y-782714D01*
X-22221000Y-819000D01*
X-22257285Y-891571D01*
X-22293571Y-2016428D02*
X-21313857Y-1363285D01*
X-22184714Y-2234142D02*
X-22221000Y-2270428D01*
X-22257285Y-2343000D01*
X-22257285Y-2524428D01*
X-22221000Y-2597000D01*
X-22184714Y-2633285D01*
X-22112142Y-2669571D01*
X-22039571Y-2669571D01*
X-21930714Y-2633285D01*
X-21495285Y-2197857D01*
X-21495285Y-2669571D01*
X-22257285Y-3141285D02*
X-22257285Y-3213857D01*
X-22221000Y-3286428D01*
X-22184714Y-3322714D01*
X-22112142Y-3359000D01*
X-21967000Y-3395285D01*
X-21785571Y-3395285D01*
X-21640428Y-3359000D01*
X-21567857Y-3322714D01*
X-21531571Y-3286428D01*
X-21495285Y-3213857D01*
X-21495285Y-3141285D01*
X-21531571Y-3068714D01*
X-21567857Y-3032428D01*
X-21640428Y-2996142D01*
X-21785571Y-2959857D01*
X-21967000Y-2959857D01*
X-22112142Y-2996142D01*
X-22184714Y-3032428D01*
X-22221000Y-3068714D01*
X-22257285Y-3141285D01*
D11*
X10033000Y-2540000D02*
X10033000Y2540000D01*
X6477000Y-2540000D02*
X10033000Y-2540000D01*
X6477000Y2540000D02*
X6477000Y-2540000D01*
X10033000Y2540000D02*
X6477000Y2540000D01*
X-6477000Y-2540000D02*
X-6477000Y2540000D01*
X-10033000Y-2540000D02*
X-6477000Y-2540000D01*
X-10033000Y2540000D02*
X-10033000Y-2540000D01*
X-6477000Y2540000D02*
X-10033000Y2540000D01*
M02*
