G04 #@! TF.GenerationSoftware,KiCad,Pcbnew,(5.1.4)-1*
G04 #@! TF.CreationDate,2020-06-09T23:13:25-07:00*
G04 #@! TF.ProjectId,SkateLightLEDBoard,536b6174-654c-4696-9768-744c4544426f,rev?*
G04 #@! TF.SameCoordinates,Original*
G04 #@! TF.FileFunction,Legend,Top*
G04 #@! TF.FilePolarity,Positive*
%FSLAX46Y46*%
G04 Gerber Fmt 4.6, Leading zero omitted, Abs format (unit mm)*
G04 Created by KiCad (PCBNEW (5.1.4)-1) date 2020-06-09 23:13:25*
%MOMM*%
%LPD*%
G04 APERTURE LIST*
%ADD10C,0.127000*%
%ADD11C,0.120000*%
%ADD12C,0.100000*%
%ADD13C,0.150000*%
G04 APERTURE END LIST*
D10*
X21936891Y-3717108D02*
X21973177Y-3608251D01*
X22009462Y-3571965D01*
X22082034Y-3535680D01*
X22190891Y-3535680D01*
X22263462Y-3571965D01*
X22299748Y-3608251D01*
X22336034Y-3680822D01*
X22336034Y-3971108D01*
X21574034Y-3971108D01*
X21574034Y-3717108D01*
X21610320Y-3644537D01*
X21646605Y-3608251D01*
X21719177Y-3571965D01*
X21791748Y-3571965D01*
X21864320Y-3608251D01*
X21900605Y-3644537D01*
X21936891Y-3717108D01*
X21936891Y-3971108D01*
X22336034Y-2846251D02*
X22336034Y-3209108D01*
X21574034Y-3209108D01*
X22336034Y-1648822D02*
X22336034Y-2011680D01*
X21574034Y-2011680D01*
X21936891Y-1394822D02*
X21936891Y-1140822D01*
X22336034Y-1031965D02*
X22336034Y-1394822D01*
X21574034Y-1394822D01*
X21574034Y-1031965D01*
X22336034Y-705394D02*
X21574034Y-705394D01*
X21574034Y-523965D01*
X21610320Y-415108D01*
X21682891Y-342537D01*
X21755462Y-306251D01*
X21900605Y-269965D01*
X22009462Y-269965D01*
X22154605Y-306251D01*
X22227177Y-342537D01*
X22299748Y-415108D01*
X22336034Y-523965D01*
X22336034Y-705394D01*
X21574034Y528320D02*
X22336034Y782320D01*
X21574034Y1036320D01*
X22336034Y1689462D02*
X22336034Y1254034D01*
X22336034Y1471748D02*
X21574034Y1471748D01*
X21682891Y1399177D01*
X21755462Y1326605D01*
X21791748Y1254034D01*
X22263462Y2016034D02*
X22299748Y2052320D01*
X22336034Y2016034D01*
X22299748Y1979748D01*
X22263462Y2016034D01*
X22336034Y2016034D01*
X21574034Y2306320D02*
X21574034Y2778034D01*
X21864320Y2524034D01*
X21864320Y2632891D01*
X21900605Y2705462D01*
X21936891Y2741748D01*
X22009462Y2778034D01*
X22190891Y2778034D01*
X22263462Y2741748D01*
X22299748Y2705462D01*
X22336034Y2632891D01*
X22336034Y2415177D01*
X22299748Y2342605D01*
X22263462Y2306320D01*
D11*
X-12517828Y-6226630D02*
X-13550203Y-5194254D01*
X-10283370Y-3992172D02*
X-11810721Y-2464822D01*
X-10283370Y-3992172D02*
X-10940979Y-4649782D01*
X-12517828Y-6226630D02*
X-11860218Y-5569021D01*
X12517828Y6099630D02*
X13550203Y5067254D01*
X10283370Y3865172D02*
X11810721Y2337822D01*
X10283370Y3865172D02*
X10940979Y4522782D01*
X12517828Y6099630D02*
X11860218Y5442021D01*
X19050000Y4572000D02*
X19050000Y5588000D01*
X13970000Y-5588000D02*
X13970000Y-4572000D01*
X13462000Y-5080000D02*
X14478000Y-5080000D01*
X10260000Y6250000D02*
X22760000Y6250000D01*
X22760000Y6250000D02*
X22760000Y-6250000D01*
X22760000Y-6250000D02*
X10260000Y-6250000D01*
X10260000Y-6250000D02*
X10260000Y6250000D01*
X4572000Y-2540000D02*
X5588000Y-2540000D01*
X-5588000Y2540000D02*
X-4572000Y2540000D01*
X-5080000Y3048000D02*
X-5080000Y2032000D01*
X6250000Y6250000D02*
X6250000Y-6250000D01*
X6250000Y-6250000D02*
X-6250000Y-6250000D01*
X-6250000Y-6250000D02*
X-6250000Y6250000D01*
X-6250000Y6250000D02*
X6250000Y6250000D01*
X-13970000Y4572000D02*
X-13970000Y5588000D01*
X-19050000Y-5588000D02*
X-19050000Y-4572000D01*
X-19558000Y-5080000D02*
X-18542000Y-5080000D01*
X-22760000Y6250000D02*
X-10260000Y6250000D01*
X-10260000Y6250000D02*
X-10260000Y-6250000D01*
X-10260000Y-6250000D02*
X-22760000Y-6250000D01*
X-22760000Y-6250000D02*
X-22760000Y6250000D01*
D12*
X-5230660Y-546440D02*
G75*
G03X-5230660Y-546440I-50000J0D01*
G01*
X-6246660Y-546440D02*
G75*
G03X-6246660Y-546440I-50000J0D01*
G01*
D11*
X-11085500Y1485000D02*
X-11085500Y-800000D01*
X-9615500Y1485000D02*
X-11085500Y1485000D01*
X-9615500Y-800000D02*
X-9615500Y1485000D01*
X11085500Y-800000D02*
X11085500Y1485000D01*
X11085500Y1485000D02*
X9615500Y1485000D01*
X9615500Y1485000D02*
X9615500Y-800000D01*
D13*
X7493095Y-5905380D02*
X7493095Y-4905380D01*
X7493095Y-5381571D02*
X8064523Y-5381571D01*
X8064523Y-5905380D02*
X8064523Y-4905380D01*
X8683571Y-5333952D02*
X8588333Y-5286333D01*
X8540714Y-5238714D01*
X8493095Y-5143476D01*
X8493095Y-5095857D01*
X8540714Y-5000619D01*
X8588333Y-4953000D01*
X8683571Y-4905380D01*
X8874047Y-4905380D01*
X8969285Y-4953000D01*
X9016904Y-5000619D01*
X9064523Y-5095857D01*
X9064523Y-5143476D01*
X9016904Y-5238714D01*
X8969285Y-5286333D01*
X8874047Y-5333952D01*
X8683571Y-5333952D01*
X8588333Y-5381571D01*
X8540714Y-5429190D01*
X8493095Y-5524428D01*
X8493095Y-5714904D01*
X8540714Y-5810142D01*
X8588333Y-5857761D01*
X8683571Y-5905380D01*
X8874047Y-5905380D01*
X8969285Y-5857761D01*
X9016904Y-5810142D01*
X9064523Y-5714904D01*
X9064523Y-5524428D01*
X9016904Y-5429190D01*
X8969285Y-5381571D01*
X8874047Y-5333952D01*
X7493095Y4000619D02*
X7493095Y5000619D01*
X7493095Y4524428D02*
X8064523Y4524428D01*
X8064523Y4000619D02*
X8064523Y5000619D01*
X8445476Y5000619D02*
X9112142Y5000619D01*
X8683571Y4000619D01*
X-9016904Y-5905380D02*
X-9016904Y-4905380D01*
X-9016904Y-5381571D02*
X-8445476Y-5381571D01*
X-8445476Y-5905380D02*
X-8445476Y-4905380D01*
X-7540714Y-4905380D02*
X-7731190Y-4905380D01*
X-7826428Y-4953000D01*
X-7874047Y-5000619D01*
X-7969285Y-5143476D01*
X-8016904Y-5333952D01*
X-8016904Y-5714904D01*
X-7969285Y-5810142D01*
X-7921666Y-5857761D01*
X-7826428Y-5905380D01*
X-7635952Y-5905380D01*
X-7540714Y-5857761D01*
X-7493095Y-5810142D01*
X-7445476Y-5714904D01*
X-7445476Y-5476809D01*
X-7493095Y-5381571D01*
X-7540714Y-5333952D01*
X-7635952Y-5286333D01*
X-7826428Y-5286333D01*
X-7921666Y-5333952D01*
X-7969285Y-5381571D01*
X-8016904Y-5476809D01*
X-9016904Y4000619D02*
X-9016904Y5000619D01*
X-9016904Y4524428D02*
X-8445476Y4524428D01*
X-8445476Y4000619D02*
X-8445476Y5000619D01*
X-7493095Y5000619D02*
X-7969285Y5000619D01*
X-8016904Y4524428D01*
X-7969285Y4572047D01*
X-7874047Y4619666D01*
X-7635952Y4619666D01*
X-7540714Y4572047D01*
X-7493095Y4524428D01*
X-7445476Y4429190D01*
X-7445476Y4191095D01*
X-7493095Y4095857D01*
X-7540714Y4048238D01*
X-7635952Y4000619D01*
X-7874047Y4000619D01*
X-7969285Y4048238D01*
X-8016904Y4095857D01*
X23050595Y5254619D02*
X23050595Y6254619D01*
X23050595Y5778428D02*
X23622023Y5778428D01*
X23622023Y5254619D02*
X23622023Y6254619D01*
X24622023Y5254619D02*
X24050595Y5254619D01*
X24336309Y5254619D02*
X24336309Y6254619D01*
X24241071Y6111761D01*
X24145833Y6016523D01*
X24050595Y5968904D01*
X23050595Y-5159380D02*
X23050595Y-4159380D01*
X23050595Y-4635571D02*
X23622023Y-4635571D01*
X23622023Y-5159380D02*
X23622023Y-4159380D01*
X24050595Y-4254619D02*
X24098214Y-4207000D01*
X24193452Y-4159380D01*
X24431547Y-4159380D01*
X24526785Y-4207000D01*
X24574404Y-4254619D01*
X24622023Y-4349857D01*
X24622023Y-4445095D01*
X24574404Y-4587952D01*
X24002976Y-5159380D01*
X24622023Y-5159380D01*
X-24574404Y5254619D02*
X-24574404Y6254619D01*
X-24574404Y5778428D02*
X-24002976Y5778428D01*
X-24002976Y5254619D02*
X-24002976Y6254619D01*
X-23622023Y6254619D02*
X-23002976Y6254619D01*
X-23336309Y5873666D01*
X-23193452Y5873666D01*
X-23098214Y5826047D01*
X-23050595Y5778428D01*
X-23002976Y5683190D01*
X-23002976Y5445095D01*
X-23050595Y5349857D01*
X-23098214Y5302238D01*
X-23193452Y5254619D01*
X-23479166Y5254619D01*
X-23574404Y5302238D01*
X-23622023Y5349857D01*
X-24574404Y-5159380D02*
X-24574404Y-4159380D01*
X-24574404Y-4635571D02*
X-24002976Y-4635571D01*
X-24002976Y-5159380D02*
X-24002976Y-4159380D01*
X-23098214Y-4492714D02*
X-23098214Y-5159380D01*
X-23336309Y-4111761D02*
X-23574404Y-4826047D01*
X-22955357Y-4826047D01*
X17462380Y-738095D02*
X16462380Y-738095D01*
X16462380Y-499999D01*
X16510000Y-357142D01*
X16605238Y-261904D01*
X16700476Y-214285D01*
X16890952Y-166666D01*
X17033809Y-166666D01*
X17224285Y-214285D01*
X17319523Y-261904D01*
X17414761Y-357142D01*
X17462380Y-500000D01*
X17462380Y-738095D01*
X16462380Y166666D02*
X16462380Y785714D01*
X16843333Y452380D01*
X16843333Y595238D01*
X16890952Y690476D01*
X16938571Y738095D01*
X17033809Y785714D01*
X17271904Y785714D01*
X17367142Y738095D01*
X17414761Y690476D01*
X17462380Y595238D01*
X17462380Y309523D01*
X17414761Y214285D01*
X17367142Y166666D01*
X-15557619Y-738095D02*
X-16557619Y-738095D01*
X-16557619Y-500000D01*
X-16510000Y-357142D01*
X-16414761Y-261904D01*
X-16319523Y-214285D01*
X-16129047Y-166666D01*
X-15986190Y-166666D01*
X-15795714Y-214285D01*
X-15700476Y-261904D01*
X-15605238Y-357142D01*
X-15557619Y-500000D01*
X-15557619Y-738095D01*
X-16557619Y738095D02*
X-16557619Y261904D01*
X-16081428Y214285D01*
X-16129047Y261904D01*
X-16176666Y357142D01*
X-16176666Y595238D01*
X-16129047Y690476D01*
X-16081428Y738095D01*
X-15986190Y785714D01*
X-15748095Y785714D01*
X-15652857Y738095D01*
X-15605238Y690476D01*
X-15557619Y595238D01*
X-15557619Y357142D01*
X-15605238Y261904D01*
X-15652857Y214285D01*
M02*
