G04 #@! TF.GenerationSoftware,KiCad,Pcbnew,(5.1.4)-1*
G04 #@! TF.CreationDate,2020-06-09T23:13:25-07:00*
G04 #@! TF.ProjectId,SkateLightLEDBoard,536b6174-654c-4696-9768-744c4544426f,rev?*
G04 #@! TF.SameCoordinates,Original*
G04 #@! TF.FileFunction,Legend,Bot*
G04 #@! TF.FilePolarity,Positive*
%FSLAX46Y46*%
G04 Gerber Fmt 4.6, Leading zero omitted, Abs format (unit mm)*
G04 Created by KiCad (PCBNEW (5.1.4)-1) date 2020-06-09 23:13:25*
%MOMM*%
%LPD*%
G04 APERTURE LIST*
%ADD10C,0.127000*%
%ADD11C,0.120000*%
G04 APERTURE END LIST*
D10*
X-21495285Y3136142D02*
X-22257285Y3136142D01*
X-22257285Y2954714D01*
X-22221000Y2845857D01*
X-22148428Y2773285D01*
X-22075857Y2737000D01*
X-21930714Y2700714D01*
X-21821857Y2700714D01*
X-21676714Y2737000D01*
X-21604142Y2773285D01*
X-21531571Y2845857D01*
X-21495285Y2954714D01*
X-21495285Y3136142D01*
X-21713000Y2410428D02*
X-21713000Y2047571D01*
X-21495285Y2483000D02*
X-22257285Y2229000D01*
X-21495285Y1975000D01*
X-22257285Y813857D02*
X-22257285Y959000D01*
X-22221000Y1031571D01*
X-22184714Y1067857D01*
X-22075857Y1140428D01*
X-21930714Y1176714D01*
X-21640428Y1176714D01*
X-21567857Y1140428D01*
X-21531571Y1104142D01*
X-21495285Y1031571D01*
X-21495285Y886428D01*
X-21531571Y813857D01*
X-21567857Y777571D01*
X-21640428Y741285D01*
X-21821857Y741285D01*
X-21894428Y777571D01*
X-21930714Y813857D01*
X-21967000Y886428D01*
X-21967000Y1031571D01*
X-21930714Y1104142D01*
X-21894428Y1140428D01*
X-21821857Y1176714D01*
X-22293571Y-129571D02*
X-21313857Y523571D01*
X-21930714Y-492428D02*
X-21967000Y-419857D01*
X-22003285Y-383571D01*
X-22075857Y-347285D01*
X-22112142Y-347285D01*
X-22184714Y-383571D01*
X-22221000Y-419857D01*
X-22257285Y-492428D01*
X-22257285Y-637571D01*
X-22221000Y-710142D01*
X-22184714Y-746428D01*
X-22112142Y-782714D01*
X-22075857Y-782714D01*
X-22003285Y-746428D01*
X-21967000Y-710142D01*
X-21930714Y-637571D01*
X-21930714Y-492428D01*
X-21894428Y-419857D01*
X-21858142Y-383571D01*
X-21785571Y-347285D01*
X-21640428Y-347285D01*
X-21567857Y-383571D01*
X-21531571Y-419857D01*
X-21495285Y-492428D01*
X-21495285Y-637571D01*
X-21531571Y-710142D01*
X-21567857Y-746428D01*
X-21640428Y-782714D01*
X-21785571Y-782714D01*
X-21858142Y-746428D01*
X-21894428Y-710142D01*
X-21930714Y-637571D01*
X-22293571Y-1653571D02*
X-21313857Y-1000428D01*
X-22184714Y-1871285D02*
X-22221000Y-1907571D01*
X-22257285Y-1980142D01*
X-22257285Y-2161571D01*
X-22221000Y-2234142D01*
X-22184714Y-2270428D01*
X-22112142Y-2306714D01*
X-22039571Y-2306714D01*
X-21930714Y-2270428D01*
X-21495285Y-1835000D01*
X-21495285Y-2306714D01*
X-22257285Y-2778428D02*
X-22257285Y-2851000D01*
X-22221000Y-2923571D01*
X-22184714Y-2959857D01*
X-22112142Y-2996142D01*
X-21967000Y-3032428D01*
X-21785571Y-3032428D01*
X-21640428Y-2996142D01*
X-21567857Y-2959857D01*
X-21531571Y-2923571D01*
X-21495285Y-2851000D01*
X-21495285Y-2778428D01*
X-21531571Y-2705857D01*
X-21567857Y-2669571D01*
X-21640428Y-2633285D01*
X-21785571Y-2597000D01*
X-21967000Y-2597000D01*
X-22112142Y-2633285D01*
X-22184714Y-2669571D01*
X-22221000Y-2705857D01*
X-22257285Y-2778428D01*
D11*
X10033000Y-2540000D02*
X10033000Y2540000D01*
X6477000Y-2540000D02*
X10033000Y-2540000D01*
X6477000Y2540000D02*
X6477000Y-2540000D01*
X10033000Y2540000D02*
X6477000Y2540000D01*
X-6477000Y-2540000D02*
X-6477000Y2540000D01*
X-10033000Y-2540000D02*
X-6477000Y-2540000D01*
X-10033000Y2540000D02*
X-10033000Y-2540000D01*
X-6477000Y2540000D02*
X-10033000Y2540000D01*
M02*
