G04 #@! TF.GenerationSoftware,KiCad,Pcbnew,(5.1.4)-1*
G04 #@! TF.CreationDate,2020-10-23T12:02:29-10:00*
G04 #@! TF.ProjectId,SkateLightBackLEDBoard,536b6174-654c-4696-9768-744261636b4c,rev?*
G04 #@! TF.SameCoordinates,Original*
G04 #@! TF.FileFunction,Legend,Bot*
G04 #@! TF.FilePolarity,Positive*
%FSLAX46Y46*%
G04 Gerber Fmt 4.6, Leading zero omitted, Abs format (unit mm)*
G04 Created by KiCad (PCBNEW (5.1.4)-1) date 2020-10-23 12:02:29*
%MOMM*%
%LPD*%
G04 APERTURE LIST*
%ADD10C,0.127000*%
%ADD11C,0.120000*%
G04 APERTURE END LIST*
D10*
X-21495285Y3861857D02*
X-22257285Y3861857D01*
X-22257285Y3680428D01*
X-22221000Y3571571D01*
X-22148428Y3499000D01*
X-22075857Y3462714D01*
X-21930714Y3426428D01*
X-21821857Y3426428D01*
X-21676714Y3462714D01*
X-21604142Y3499000D01*
X-21531571Y3571571D01*
X-21495285Y3680428D01*
X-21495285Y3861857D01*
X-21713000Y3136142D02*
X-21713000Y2773285D01*
X-21495285Y3208714D02*
X-22257285Y2954714D01*
X-21495285Y2700714D01*
X-21495285Y1467000D02*
X-21495285Y1902428D01*
X-21495285Y1684714D02*
X-22257285Y1684714D01*
X-22148428Y1757285D01*
X-22075857Y1829857D01*
X-22039571Y1902428D01*
X-22257285Y995285D02*
X-22257285Y922714D01*
X-22221000Y850142D01*
X-22184714Y813857D01*
X-22112142Y777571D01*
X-21967000Y741285D01*
X-21785571Y741285D01*
X-21640428Y777571D01*
X-21567857Y813857D01*
X-21531571Y850142D01*
X-21495285Y922714D01*
X-21495285Y995285D01*
X-21531571Y1067857D01*
X-21567857Y1104142D01*
X-21640428Y1140428D01*
X-21785571Y1176714D01*
X-21967000Y1176714D01*
X-22112142Y1140428D01*
X-22184714Y1104142D01*
X-22221000Y1067857D01*
X-22257285Y995285D01*
X-22293571Y-129571D02*
X-21313857Y523571D01*
X-22184714Y-347285D02*
X-22221000Y-383571D01*
X-22257285Y-456142D01*
X-22257285Y-637571D01*
X-22221000Y-710142D01*
X-22184714Y-746428D01*
X-22112142Y-782714D01*
X-22039571Y-782714D01*
X-21930714Y-746428D01*
X-21495285Y-311000D01*
X-21495285Y-782714D01*
X-22257285Y-1036714D02*
X-22257285Y-1508428D01*
X-21967000Y-1254428D01*
X-21967000Y-1363285D01*
X-21930714Y-1435857D01*
X-21894428Y-1472142D01*
X-21821857Y-1508428D01*
X-21640428Y-1508428D01*
X-21567857Y-1472142D01*
X-21531571Y-1435857D01*
X-21495285Y-1363285D01*
X-21495285Y-1145571D01*
X-21531571Y-1073000D01*
X-21567857Y-1036714D01*
X-22293571Y-2379285D02*
X-21313857Y-1726142D01*
X-22184714Y-2597000D02*
X-22221000Y-2633285D01*
X-22257285Y-2705857D01*
X-22257285Y-2887285D01*
X-22221000Y-2959857D01*
X-22184714Y-2996142D01*
X-22112142Y-3032428D01*
X-22039571Y-3032428D01*
X-21930714Y-2996142D01*
X-21495285Y-2560714D01*
X-21495285Y-3032428D01*
X-22257285Y-3504142D02*
X-22257285Y-3576714D01*
X-22221000Y-3649285D01*
X-22184714Y-3685571D01*
X-22112142Y-3721857D01*
X-21967000Y-3758142D01*
X-21785571Y-3758142D01*
X-21640428Y-3721857D01*
X-21567857Y-3685571D01*
X-21531571Y-3649285D01*
X-21495285Y-3576714D01*
X-21495285Y-3504142D01*
X-21531571Y-3431571D01*
X-21567857Y-3395285D01*
X-21640428Y-3359000D01*
X-21785571Y-3322714D01*
X-21967000Y-3322714D01*
X-22112142Y-3359000D01*
X-22184714Y-3395285D01*
X-22221000Y-3431571D01*
X-22257285Y-3504142D01*
D11*
X10033000Y-2540000D02*
X10033000Y2540000D01*
X6477000Y-2540000D02*
X10033000Y-2540000D01*
X6477000Y2540000D02*
X6477000Y-2540000D01*
X10033000Y2540000D02*
X6477000Y2540000D01*
X-6477000Y-2540000D02*
X-6477000Y2540000D01*
X-10033000Y-2540000D02*
X-6477000Y-2540000D01*
X-10033000Y2540000D02*
X-10033000Y-2540000D01*
X-6477000Y2540000D02*
X-10033000Y2540000D01*
M02*
