G04 #@! TF.GenerationSoftware,KiCad,Pcbnew,(5.1.4)-1*
G04 #@! TF.CreationDate,2020-10-23T12:02:29-10:00*
G04 #@! TF.ProjectId,SkateLightBackLEDBoard,536b6174-654c-4696-9768-744261636b4c,rev?*
G04 #@! TF.SameCoordinates,Original*
G04 #@! TF.FileFunction,Legend,Top*
G04 #@! TF.FilePolarity,Positive*
%FSLAX46Y46*%
G04 Gerber Fmt 4.6, Leading zero omitted, Abs format (unit mm)*
G04 Created by KiCad (PCBNEW (5.1.4)-1) date 2020-10-23 12:02:29*
%MOMM*%
%LPD*%
G04 APERTURE LIST*
%ADD10C,0.127000*%
%ADD11C,0.120000*%
%ADD12C,0.200000*%
%ADD13C,0.100000*%
%ADD14C,0.150000*%
G04 APERTURE END LIST*
D10*
X11446571Y5724428D02*
X11555428Y5688142D01*
X11591714Y5651857D01*
X11628000Y5579285D01*
X11628000Y5470428D01*
X11591714Y5397857D01*
X11555428Y5361571D01*
X11482857Y5325285D01*
X11192571Y5325285D01*
X11192571Y6087285D01*
X11446571Y6087285D01*
X11519142Y6051000D01*
X11555428Y6014714D01*
X11591714Y5942142D01*
X11591714Y5869571D01*
X11555428Y5797000D01*
X11519142Y5760714D01*
X11446571Y5724428D01*
X11192571Y5724428D01*
X12317428Y5325285D02*
X11954571Y5325285D01*
X11954571Y6087285D01*
X13406000Y5724428D02*
X13514857Y5688142D01*
X13551142Y5651857D01*
X13587428Y5579285D01*
X13587428Y5470428D01*
X13551142Y5397857D01*
X13514857Y5361571D01*
X13442285Y5325285D01*
X13152000Y5325285D01*
X13152000Y6087285D01*
X13406000Y6087285D01*
X13478571Y6051000D01*
X13514857Y6014714D01*
X13551142Y5942142D01*
X13551142Y5869571D01*
X13514857Y5797000D01*
X13478571Y5760714D01*
X13406000Y5724428D01*
X13152000Y5724428D01*
X14240571Y5325285D02*
X14240571Y5724428D01*
X14204285Y5797000D01*
X14131714Y5833285D01*
X13986571Y5833285D01*
X13914000Y5797000D01*
X14240571Y5361571D02*
X14168000Y5325285D01*
X13986571Y5325285D01*
X13914000Y5361571D01*
X13877714Y5434142D01*
X13877714Y5506714D01*
X13914000Y5579285D01*
X13986571Y5615571D01*
X14168000Y5615571D01*
X14240571Y5651857D01*
X14930000Y5361571D02*
X14857428Y5325285D01*
X14712285Y5325285D01*
X14639714Y5361571D01*
X14603428Y5397857D01*
X14567142Y5470428D01*
X14567142Y5688142D01*
X14603428Y5760714D01*
X14639714Y5797000D01*
X14712285Y5833285D01*
X14857428Y5833285D01*
X14930000Y5797000D01*
X15256571Y5325285D02*
X15256571Y6087285D01*
X15329142Y5615571D02*
X15546857Y5325285D01*
X15546857Y5833285D02*
X15256571Y5543000D01*
X16816857Y5325285D02*
X16454000Y5325285D01*
X16454000Y6087285D01*
X17070857Y5724428D02*
X17324857Y5724428D01*
X17433714Y5325285D02*
X17070857Y5325285D01*
X17070857Y6087285D01*
X17433714Y6087285D01*
X17760285Y5325285D02*
X17760285Y6087285D01*
X17941714Y6087285D01*
X18050571Y6051000D01*
X18123142Y5978428D01*
X18159428Y5905857D01*
X18195714Y5760714D01*
X18195714Y5651857D01*
X18159428Y5506714D01*
X18123142Y5434142D01*
X18050571Y5361571D01*
X17941714Y5325285D01*
X17760285Y5325285D01*
X18994000Y6087285D02*
X19248000Y5325285D01*
X19502000Y6087285D01*
X20155142Y5325285D02*
X19719714Y5325285D01*
X19937428Y5325285D02*
X19937428Y6087285D01*
X19864857Y5978428D01*
X19792285Y5905857D01*
X19719714Y5869571D01*
X20481714Y5397857D02*
X20518000Y5361571D01*
X20481714Y5325285D01*
X20445428Y5361571D01*
X20481714Y5397857D01*
X20481714Y5325285D01*
X21171142Y6087285D02*
X21026000Y6087285D01*
X20953428Y6051000D01*
X20917142Y6014714D01*
X20844571Y5905857D01*
X20808285Y5760714D01*
X20808285Y5470428D01*
X20844571Y5397857D01*
X20880857Y5361571D01*
X20953428Y5325285D01*
X21098571Y5325285D01*
X21171142Y5361571D01*
X21207428Y5397857D01*
X21243714Y5470428D01*
X21243714Y5651857D01*
X21207428Y5724428D01*
X21171142Y5760714D01*
X21098571Y5797000D01*
X20953428Y5797000D01*
X20880857Y5760714D01*
X20844571Y5724428D01*
X20808285Y5651857D01*
D11*
X-15635869Y-4064000D02*
G75*
G03X-15635869Y-4064000I-244131J0D01*
G01*
D12*
X-16420000Y-4615000D02*
X-12370000Y-4615000D01*
X-16420000Y-465000D02*
X-16420000Y-4615000D01*
X-12370000Y-465000D02*
X-16420000Y-465000D01*
D11*
X17384131Y1016000D02*
G75*
G03X17384131Y1016000I-244131J0D01*
G01*
D12*
X16600000Y465000D02*
X20650000Y465000D01*
X16600000Y4615000D02*
X16600000Y465000D01*
X20650000Y4615000D02*
X16600000Y4615000D01*
D11*
X-16895869Y4064000D02*
G75*
G03X-16895869Y4064000I-244131J0D01*
G01*
D12*
X-16600000Y4615000D02*
X-20650000Y4615000D01*
X-16600000Y465000D02*
X-16600000Y4615000D01*
X-20650000Y465000D02*
X-16600000Y465000D01*
D11*
X9835000Y5459000D02*
X9835000Y3999000D01*
X6675000Y5459000D02*
X6675000Y3299000D01*
X6675000Y5459000D02*
X7605000Y5459000D01*
X9835000Y5459000D02*
X8905000Y5459000D01*
X-9835000Y-5459000D02*
X-9835000Y-3999000D01*
X-6675000Y-5459000D02*
X-6675000Y-3299000D01*
X-6675000Y-5459000D02*
X-7605000Y-5459000D01*
X-9835000Y-5459000D02*
X-8905000Y-5459000D01*
D13*
X-5510660Y-106440D02*
G75*
G03X-5510660Y-106440I-50000J0D01*
G01*
X-6526660Y-106440D02*
G75*
G03X-6526660Y-106440I-50000J0D01*
G01*
D11*
X-20715869Y-4064000D02*
G75*
G03X-20715869Y-4064000I-244131J0D01*
G01*
D12*
X-21500000Y-4615000D02*
X-17450000Y-4615000D01*
X-21500000Y-465000D02*
X-21500000Y-4615000D01*
X-17450000Y-465000D02*
X-21500000Y-465000D01*
D11*
X-11815869Y4064000D02*
G75*
G03X-11815869Y4064000I-244131J0D01*
G01*
D12*
X-11520000Y4615000D02*
X-15570000Y4615000D01*
X-11520000Y465000D02*
X-11520000Y4615000D01*
X-15570000Y465000D02*
X-11520000Y465000D01*
D11*
X-385869Y4064000D02*
G75*
G03X-385869Y4064000I-244131J0D01*
G01*
D12*
X-90000Y4615000D02*
X-4140000Y4615000D01*
X-90000Y465000D02*
X-90000Y4615000D01*
X-4140000Y465000D02*
X-90000Y465000D01*
D11*
X4694131Y4064000D02*
G75*
G03X4694131Y4064000I-244131J0D01*
G01*
D12*
X4990000Y4615000D02*
X940000Y4615000D01*
X4990000Y465000D02*
X4990000Y4615000D01*
X940000Y465000D02*
X4990000Y465000D01*
D11*
X-385869Y-1016000D02*
G75*
G03X-385869Y-1016000I-244131J0D01*
G01*
D12*
X-90000Y-465000D02*
X-4140000Y-465000D01*
X-90000Y-4615000D02*
X-90000Y-465000D01*
X-4140000Y-4615000D02*
X-90000Y-4615000D01*
D11*
X4694131Y-1016000D02*
G75*
G03X4694131Y-1016000I-244131J0D01*
G01*
D12*
X4990000Y-465000D02*
X940000Y-465000D01*
X4990000Y-4615000D02*
X4990000Y-465000D01*
X940000Y-4615000D02*
X4990000Y-4615000D01*
D11*
X16124131Y-1016000D02*
G75*
G03X16124131Y-1016000I-244131J0D01*
G01*
D12*
X16420000Y-465000D02*
X12370000Y-465000D01*
X16420000Y-4615000D02*
X16420000Y-465000D01*
X12370000Y-4615000D02*
X16420000Y-4615000D01*
D11*
X21204131Y-1016000D02*
G75*
G03X21204131Y-1016000I-244131J0D01*
G01*
D12*
X21500000Y-465000D02*
X17450000Y-465000D01*
X21500000Y-4615000D02*
X21500000Y-465000D01*
X17450000Y-4615000D02*
X21500000Y-4615000D01*
D11*
X12304131Y1016000D02*
G75*
G03X12304131Y1016000I-244131J0D01*
G01*
D12*
X11520000Y465000D02*
X15570000Y465000D01*
X11520000Y4615000D02*
X11520000Y465000D01*
X15570000Y4615000D02*
X11520000Y4615000D01*
D11*
X-11235000Y1485000D02*
X-11235000Y-800000D01*
X-9765000Y1485000D02*
X-11235000Y1485000D01*
X-9765000Y-800000D02*
X-9765000Y1485000D01*
X11235000Y-1485000D02*
X11235000Y800000D01*
X9765000Y-1485000D02*
X11235000Y-1485000D01*
X9765000Y800000D02*
X9765000Y-1485000D01*
D14*
X7493095Y-5905380D02*
X7493095Y-4905380D01*
X7493095Y-5381571D02*
X8064523Y-5381571D01*
X8064523Y-5905380D02*
X8064523Y-4905380D01*
X8969285Y-5238714D02*
X8969285Y-5905380D01*
X8731190Y-4857761D02*
X8493095Y-5572047D01*
X9112142Y-5572047D01*
X-9016904Y4000619D02*
X-9016904Y5000619D01*
X-9016904Y4524428D02*
X-8445476Y4524428D01*
X-8445476Y4000619D02*
X-8445476Y5000619D01*
X-8064523Y5000619D02*
X-7445476Y5000619D01*
X-7778809Y4619666D01*
X-7635952Y4619666D01*
X-7540714Y4572047D01*
X-7493095Y4524428D01*
X-7445476Y4429190D01*
X-7445476Y4191095D01*
X-7493095Y4095857D01*
X-7540714Y4048238D01*
X-7635952Y4000619D01*
X-7921666Y4000619D01*
X-8016904Y4048238D01*
X-8064523Y4095857D01*
X23050595Y5254619D02*
X23050595Y6254619D01*
X23050595Y5778428D02*
X23622023Y5778428D01*
X23622023Y5254619D02*
X23622023Y6254619D01*
X24622023Y5254619D02*
X24050595Y5254619D01*
X24336309Y5254619D02*
X24336309Y6254619D01*
X24241071Y6111761D01*
X24145833Y6016523D01*
X24050595Y5968904D01*
X23050595Y-5159380D02*
X23050595Y-4159380D01*
X23050595Y-4635571D02*
X23622023Y-4635571D01*
X23622023Y-5159380D02*
X23622023Y-4159380D01*
X24050595Y-4254619D02*
X24098214Y-4207000D01*
X24193452Y-4159380D01*
X24431547Y-4159380D01*
X24526785Y-4207000D01*
X24574404Y-4254619D01*
X24622023Y-4349857D01*
X24622023Y-4445095D01*
X24574404Y-4587952D01*
X24002976Y-5159380D01*
X24622023Y-5159380D01*
X-24574404Y5254619D02*
X-24574404Y6254619D01*
X-24574404Y5778428D02*
X-24002976Y5778428D01*
X-24002976Y5254619D02*
X-24002976Y6254619D01*
X-23050595Y6254619D02*
X-23526785Y6254619D01*
X-23574404Y5778428D01*
X-23526785Y5826047D01*
X-23431547Y5873666D01*
X-23193452Y5873666D01*
X-23098214Y5826047D01*
X-23050595Y5778428D01*
X-23002976Y5683190D01*
X-23002976Y5445095D01*
X-23050595Y5349857D01*
X-23098214Y5302238D01*
X-23193452Y5254619D01*
X-23431547Y5254619D01*
X-23526785Y5302238D01*
X-23574404Y5349857D01*
X-24574404Y-5159380D02*
X-24574404Y-4159380D01*
X-24574404Y-4635571D02*
X-24002976Y-4635571D01*
X-24002976Y-5159380D02*
X-24002976Y-4159380D01*
X-23098214Y-4159380D02*
X-23288690Y-4159380D01*
X-23383928Y-4207000D01*
X-23431547Y-4254619D01*
X-23526785Y-4397476D01*
X-23574404Y-4587952D01*
X-23574404Y-4968904D01*
X-23526785Y-5064142D01*
X-23479166Y-5111761D01*
X-23383928Y-5159380D01*
X-23193452Y-5159380D01*
X-23098214Y-5111761D01*
X-23050595Y-5064142D01*
X-23002976Y-4968904D01*
X-23002976Y-4730809D01*
X-23050595Y-4635571D01*
X-23098214Y-4587952D01*
X-23193452Y-4540333D01*
X-23383928Y-4540333D01*
X-23479166Y-4587952D01*
X-23526785Y-4635571D01*
X-23574404Y-4730809D01*
X-10052380Y-2495238D02*
X-10100000Y-2590476D01*
X-10195238Y-2685714D01*
X-10338095Y-2828571D01*
X-10385714Y-2923809D01*
X-10385714Y-3019047D01*
X-10147619Y-2971428D02*
X-10195238Y-3066666D01*
X-10290476Y-3161904D01*
X-10480952Y-3209523D01*
X-10814285Y-3209523D01*
X-11004761Y-3161904D01*
X-11100000Y-3066666D01*
X-11147619Y-2971428D01*
X-11147619Y-2780952D01*
X-11100000Y-2685714D01*
X-11004761Y-2590476D01*
X-10814285Y-2542857D01*
X-10480952Y-2542857D01*
X-10290476Y-2590476D01*
X-10195238Y-2685714D01*
X-10147619Y-2780952D01*
X-10147619Y-2971428D01*
X-10147619Y-1590476D02*
X-10147619Y-2161904D01*
X-10147619Y-1876190D02*
X-11147619Y-1876190D01*
X-11004761Y-1971428D01*
X-10909523Y-2066666D01*
X-10861904Y-2161904D01*
X11047619Y2404761D02*
X11000000Y2309523D01*
X10904761Y2214285D01*
X10761904Y2071428D01*
X10714285Y1976190D01*
X10714285Y1880952D01*
X10952380Y1928571D02*
X10904761Y1833333D01*
X10809523Y1738095D01*
X10619047Y1690476D01*
X10285714Y1690476D01*
X10095238Y1738095D01*
X10000000Y1833333D01*
X9952380Y1928571D01*
X9952380Y2119047D01*
X10000000Y2214285D01*
X10095238Y2309523D01*
X10285714Y2357142D01*
X10619047Y2357142D01*
X10809523Y2309523D01*
X10904761Y2214285D01*
X10952380Y2119047D01*
X10952380Y1928571D01*
X9952380Y2690476D02*
X9952380Y3309523D01*
X10333333Y2976190D01*
X10333333Y3119047D01*
X10380952Y3214285D01*
X10428571Y3261904D01*
X10523809Y3309523D01*
X10761904Y3309523D01*
X10857142Y3261904D01*
X10904761Y3214285D01*
X10952380Y3119047D01*
X10952380Y2833333D01*
X10904761Y2738095D01*
X10857142Y2690476D01*
M02*
