G04 #@! TF.GenerationSoftware,KiCad,Pcbnew,(5.1.4)-1*
G04 #@! TF.CreationDate,2020-10-23T12:02:29-10:00*
G04 #@! TF.ProjectId,SkateLightBackLEDBoard,536b6174-654c-4696-9768-744261636b4c,rev?*
G04 #@! TF.SameCoordinates,Original*
G04 #@! TF.FileFunction,Paste,Top*
G04 #@! TF.FilePolarity,Positive*
%FSLAX46Y46*%
G04 Gerber Fmt 4.6, Leading zero omitted, Abs format (unit mm)*
G04 Created by KiCad (PCBNEW (5.1.4)-1) date 2020-10-23 12:02:29*
%MOMM*%
%LPD*%
G04 APERTURE LIST*
%ADD10R,1.000000X2.700000*%
%ADD11R,0.500000X2.700000*%
%ADD12C,0.100000*%
%ADD13C,0.590000*%
%ADD14R,0.800000X0.900000*%
%ADD15C,0.875000*%
G04 APERTURE END LIST*
D10*
X-13970000Y-2540000D03*
D11*
X-12620000Y-2540000D03*
X-15320000Y-2540000D03*
D10*
X19050000Y2540000D03*
D11*
X20400000Y2540000D03*
X17700000Y2540000D03*
D10*
X-19050000Y2540000D03*
D11*
X-20400000Y2540000D03*
X-17700000Y2540000D03*
D12*
G36*
X10727958Y-2730710D02*
G01*
X10742276Y-2732834D01*
X10756317Y-2736351D01*
X10769946Y-2741228D01*
X10783031Y-2747417D01*
X10795447Y-2754858D01*
X10807073Y-2763481D01*
X10817798Y-2773202D01*
X10827519Y-2783927D01*
X10836142Y-2795553D01*
X10843583Y-2807969D01*
X10849772Y-2821054D01*
X10854649Y-2834683D01*
X10858166Y-2848724D01*
X10860290Y-2863042D01*
X10861000Y-2877500D01*
X10861000Y-3172500D01*
X10860290Y-3186958D01*
X10858166Y-3201276D01*
X10854649Y-3215317D01*
X10849772Y-3228946D01*
X10843583Y-3242031D01*
X10836142Y-3254447D01*
X10827519Y-3266073D01*
X10817798Y-3276798D01*
X10807073Y-3286519D01*
X10795447Y-3295142D01*
X10783031Y-3302583D01*
X10769946Y-3308772D01*
X10756317Y-3313649D01*
X10742276Y-3317166D01*
X10727958Y-3319290D01*
X10713500Y-3320000D01*
X10368500Y-3320000D01*
X10354042Y-3319290D01*
X10339724Y-3317166D01*
X10325683Y-3313649D01*
X10312054Y-3308772D01*
X10298969Y-3302583D01*
X10286553Y-3295142D01*
X10274927Y-3286519D01*
X10264202Y-3276798D01*
X10254481Y-3266073D01*
X10245858Y-3254447D01*
X10238417Y-3242031D01*
X10232228Y-3228946D01*
X10227351Y-3215317D01*
X10223834Y-3201276D01*
X10221710Y-3186958D01*
X10221000Y-3172500D01*
X10221000Y-2877500D01*
X10221710Y-2863042D01*
X10223834Y-2848724D01*
X10227351Y-2834683D01*
X10232228Y-2821054D01*
X10238417Y-2807969D01*
X10245858Y-2795553D01*
X10254481Y-2783927D01*
X10264202Y-2773202D01*
X10274927Y-2763481D01*
X10286553Y-2754858D01*
X10298969Y-2747417D01*
X10312054Y-2741228D01*
X10325683Y-2736351D01*
X10339724Y-2732834D01*
X10354042Y-2730710D01*
X10368500Y-2730000D01*
X10713500Y-2730000D01*
X10727958Y-2730710D01*
X10727958Y-2730710D01*
G37*
D13*
X10541000Y-3025000D03*
D12*
G36*
X10727958Y-1760710D02*
G01*
X10742276Y-1762834D01*
X10756317Y-1766351D01*
X10769946Y-1771228D01*
X10783031Y-1777417D01*
X10795447Y-1784858D01*
X10807073Y-1793481D01*
X10817798Y-1803202D01*
X10827519Y-1813927D01*
X10836142Y-1825553D01*
X10843583Y-1837969D01*
X10849772Y-1851054D01*
X10854649Y-1864683D01*
X10858166Y-1878724D01*
X10860290Y-1893042D01*
X10861000Y-1907500D01*
X10861000Y-2202500D01*
X10860290Y-2216958D01*
X10858166Y-2231276D01*
X10854649Y-2245317D01*
X10849772Y-2258946D01*
X10843583Y-2272031D01*
X10836142Y-2284447D01*
X10827519Y-2296073D01*
X10817798Y-2306798D01*
X10807073Y-2316519D01*
X10795447Y-2325142D01*
X10783031Y-2332583D01*
X10769946Y-2338772D01*
X10756317Y-2343649D01*
X10742276Y-2347166D01*
X10727958Y-2349290D01*
X10713500Y-2350000D01*
X10368500Y-2350000D01*
X10354042Y-2349290D01*
X10339724Y-2347166D01*
X10325683Y-2343649D01*
X10312054Y-2338772D01*
X10298969Y-2332583D01*
X10286553Y-2325142D01*
X10274927Y-2316519D01*
X10264202Y-2306798D01*
X10254481Y-2296073D01*
X10245858Y-2284447D01*
X10238417Y-2272031D01*
X10232228Y-2258946D01*
X10227351Y-2245317D01*
X10223834Y-2231276D01*
X10221710Y-2216958D01*
X10221000Y-2202500D01*
X10221000Y-1907500D01*
X10221710Y-1893042D01*
X10223834Y-1878724D01*
X10227351Y-1864683D01*
X10232228Y-1851054D01*
X10238417Y-1837969D01*
X10245858Y-1825553D01*
X10254481Y-1813927D01*
X10264202Y-1803202D01*
X10274927Y-1793481D01*
X10286553Y-1784858D01*
X10298969Y-1777417D01*
X10312054Y-1771228D01*
X10325683Y-1766351D01*
X10339724Y-1762834D01*
X10354042Y-1760710D01*
X10368500Y-1760000D01*
X10713500Y-1760000D01*
X10727958Y-1760710D01*
X10727958Y-1760710D01*
G37*
D13*
X10541000Y-2055000D03*
D14*
X8255000Y5699000D03*
X9205000Y3699000D03*
X7305000Y3699000D03*
X-8255000Y-5699000D03*
X-9205000Y-3699000D03*
X-7305000Y-3699000D03*
D12*
G36*
X-5373702Y1762850D02*
G01*
X-5359384Y1760726D01*
X-5345343Y1757209D01*
X-5331714Y1752332D01*
X-5318629Y1746143D01*
X-5306213Y1738702D01*
X-5294587Y1730079D01*
X-5283862Y1720358D01*
X-5274141Y1709633D01*
X-5265518Y1698007D01*
X-5258077Y1685591D01*
X-5251888Y1672506D01*
X-5247011Y1658877D01*
X-5243494Y1644836D01*
X-5241370Y1630518D01*
X-5240660Y1616060D01*
X-5240660Y1321060D01*
X-5241370Y1306602D01*
X-5243494Y1292284D01*
X-5247011Y1278243D01*
X-5251888Y1264614D01*
X-5258077Y1251529D01*
X-5265518Y1239113D01*
X-5274141Y1227487D01*
X-5283862Y1216762D01*
X-5294587Y1207041D01*
X-5306213Y1198418D01*
X-5318629Y1190977D01*
X-5331714Y1184788D01*
X-5345343Y1179911D01*
X-5359384Y1176394D01*
X-5373702Y1174270D01*
X-5388160Y1173560D01*
X-5733160Y1173560D01*
X-5747618Y1174270D01*
X-5761936Y1176394D01*
X-5775977Y1179911D01*
X-5789606Y1184788D01*
X-5802691Y1190977D01*
X-5815107Y1198418D01*
X-5826733Y1207041D01*
X-5837458Y1216762D01*
X-5847179Y1227487D01*
X-5855802Y1239113D01*
X-5863243Y1251529D01*
X-5869432Y1264614D01*
X-5874309Y1278243D01*
X-5877826Y1292284D01*
X-5879950Y1306602D01*
X-5880660Y1321060D01*
X-5880660Y1616060D01*
X-5879950Y1630518D01*
X-5877826Y1644836D01*
X-5874309Y1658877D01*
X-5869432Y1672506D01*
X-5863243Y1685591D01*
X-5855802Y1698007D01*
X-5847179Y1709633D01*
X-5837458Y1720358D01*
X-5826733Y1730079D01*
X-5815107Y1738702D01*
X-5802691Y1746143D01*
X-5789606Y1752332D01*
X-5775977Y1757209D01*
X-5761936Y1760726D01*
X-5747618Y1762850D01*
X-5733160Y1763560D01*
X-5388160Y1763560D01*
X-5373702Y1762850D01*
X-5373702Y1762850D01*
G37*
D13*
X-5560660Y1468560D03*
D12*
G36*
X-5373702Y792850D02*
G01*
X-5359384Y790726D01*
X-5345343Y787209D01*
X-5331714Y782332D01*
X-5318629Y776143D01*
X-5306213Y768702D01*
X-5294587Y760079D01*
X-5283862Y750358D01*
X-5274141Y739633D01*
X-5265518Y728007D01*
X-5258077Y715591D01*
X-5251888Y702506D01*
X-5247011Y688877D01*
X-5243494Y674836D01*
X-5241370Y660518D01*
X-5240660Y646060D01*
X-5240660Y351060D01*
X-5241370Y336602D01*
X-5243494Y322284D01*
X-5247011Y308243D01*
X-5251888Y294614D01*
X-5258077Y281529D01*
X-5265518Y269113D01*
X-5274141Y257487D01*
X-5283862Y246762D01*
X-5294587Y237041D01*
X-5306213Y228418D01*
X-5318629Y220977D01*
X-5331714Y214788D01*
X-5345343Y209911D01*
X-5359384Y206394D01*
X-5373702Y204270D01*
X-5388160Y203560D01*
X-5733160Y203560D01*
X-5747618Y204270D01*
X-5761936Y206394D01*
X-5775977Y209911D01*
X-5789606Y214788D01*
X-5802691Y220977D01*
X-5815107Y228418D01*
X-5826733Y237041D01*
X-5837458Y246762D01*
X-5847179Y257487D01*
X-5855802Y269113D01*
X-5863243Y281529D01*
X-5869432Y294614D01*
X-5874309Y308243D01*
X-5877826Y322284D01*
X-5879950Y336602D01*
X-5880660Y351060D01*
X-5880660Y646060D01*
X-5879950Y660518D01*
X-5877826Y674836D01*
X-5874309Y688877D01*
X-5869432Y702506D01*
X-5863243Y715591D01*
X-5855802Y728007D01*
X-5847179Y739633D01*
X-5837458Y750358D01*
X-5826733Y760079D01*
X-5815107Y768702D01*
X-5802691Y776143D01*
X-5789606Y782332D01*
X-5775977Y787209D01*
X-5761936Y790726D01*
X-5747618Y792850D01*
X-5733160Y793560D01*
X-5388160Y793560D01*
X-5373702Y792850D01*
X-5373702Y792850D01*
G37*
D13*
X-5560660Y498560D03*
D12*
G36*
X-6389702Y1762850D02*
G01*
X-6375384Y1760726D01*
X-6361343Y1757209D01*
X-6347714Y1752332D01*
X-6334629Y1746143D01*
X-6322213Y1738702D01*
X-6310587Y1730079D01*
X-6299862Y1720358D01*
X-6290141Y1709633D01*
X-6281518Y1698007D01*
X-6274077Y1685591D01*
X-6267888Y1672506D01*
X-6263011Y1658877D01*
X-6259494Y1644836D01*
X-6257370Y1630518D01*
X-6256660Y1616060D01*
X-6256660Y1321060D01*
X-6257370Y1306602D01*
X-6259494Y1292284D01*
X-6263011Y1278243D01*
X-6267888Y1264614D01*
X-6274077Y1251529D01*
X-6281518Y1239113D01*
X-6290141Y1227487D01*
X-6299862Y1216762D01*
X-6310587Y1207041D01*
X-6322213Y1198418D01*
X-6334629Y1190977D01*
X-6347714Y1184788D01*
X-6361343Y1179911D01*
X-6375384Y1176394D01*
X-6389702Y1174270D01*
X-6404160Y1173560D01*
X-6749160Y1173560D01*
X-6763618Y1174270D01*
X-6777936Y1176394D01*
X-6791977Y1179911D01*
X-6805606Y1184788D01*
X-6818691Y1190977D01*
X-6831107Y1198418D01*
X-6842733Y1207041D01*
X-6853458Y1216762D01*
X-6863179Y1227487D01*
X-6871802Y1239113D01*
X-6879243Y1251529D01*
X-6885432Y1264614D01*
X-6890309Y1278243D01*
X-6893826Y1292284D01*
X-6895950Y1306602D01*
X-6896660Y1321060D01*
X-6896660Y1616060D01*
X-6895950Y1630518D01*
X-6893826Y1644836D01*
X-6890309Y1658877D01*
X-6885432Y1672506D01*
X-6879243Y1685591D01*
X-6871802Y1698007D01*
X-6863179Y1709633D01*
X-6853458Y1720358D01*
X-6842733Y1730079D01*
X-6831107Y1738702D01*
X-6818691Y1746143D01*
X-6805606Y1752332D01*
X-6791977Y1757209D01*
X-6777936Y1760726D01*
X-6763618Y1762850D01*
X-6749160Y1763560D01*
X-6404160Y1763560D01*
X-6389702Y1762850D01*
X-6389702Y1762850D01*
G37*
D13*
X-6576660Y1468560D03*
D12*
G36*
X-6389702Y792850D02*
G01*
X-6375384Y790726D01*
X-6361343Y787209D01*
X-6347714Y782332D01*
X-6334629Y776143D01*
X-6322213Y768702D01*
X-6310587Y760079D01*
X-6299862Y750358D01*
X-6290141Y739633D01*
X-6281518Y728007D01*
X-6274077Y715591D01*
X-6267888Y702506D01*
X-6263011Y688877D01*
X-6259494Y674836D01*
X-6257370Y660518D01*
X-6256660Y646060D01*
X-6256660Y351060D01*
X-6257370Y336602D01*
X-6259494Y322284D01*
X-6263011Y308243D01*
X-6267888Y294614D01*
X-6274077Y281529D01*
X-6281518Y269113D01*
X-6290141Y257487D01*
X-6299862Y246762D01*
X-6310587Y237041D01*
X-6322213Y228418D01*
X-6334629Y220977D01*
X-6347714Y214788D01*
X-6361343Y209911D01*
X-6375384Y206394D01*
X-6389702Y204270D01*
X-6404160Y203560D01*
X-6749160Y203560D01*
X-6763618Y204270D01*
X-6777936Y206394D01*
X-6791977Y209911D01*
X-6805606Y214788D01*
X-6818691Y220977D01*
X-6831107Y228418D01*
X-6842733Y237041D01*
X-6853458Y246762D01*
X-6863179Y257487D01*
X-6871802Y269113D01*
X-6879243Y281529D01*
X-6885432Y294614D01*
X-6890309Y308243D01*
X-6893826Y322284D01*
X-6895950Y336602D01*
X-6896660Y351060D01*
X-6896660Y646060D01*
X-6895950Y660518D01*
X-6893826Y674836D01*
X-6890309Y688877D01*
X-6885432Y702506D01*
X-6879243Y715591D01*
X-6871802Y728007D01*
X-6863179Y739633D01*
X-6853458Y750358D01*
X-6842733Y760079D01*
X-6831107Y768702D01*
X-6818691Y776143D01*
X-6805606Y782332D01*
X-6791977Y787209D01*
X-6777936Y790726D01*
X-6763618Y792850D01*
X-6749160Y793560D01*
X-6404160Y793560D01*
X-6389702Y792850D01*
X-6389702Y792850D01*
G37*
D13*
X-6576660Y498560D03*
D12*
G36*
X-10354042Y3319290D02*
G01*
X-10339724Y3317166D01*
X-10325683Y3313649D01*
X-10312054Y3308772D01*
X-10298969Y3302583D01*
X-10286553Y3295142D01*
X-10274927Y3286519D01*
X-10264202Y3276798D01*
X-10254481Y3266073D01*
X-10245858Y3254447D01*
X-10238417Y3242031D01*
X-10232228Y3228946D01*
X-10227351Y3215317D01*
X-10223834Y3201276D01*
X-10221710Y3186958D01*
X-10221000Y3172500D01*
X-10221000Y2877500D01*
X-10221710Y2863042D01*
X-10223834Y2848724D01*
X-10227351Y2834683D01*
X-10232228Y2821054D01*
X-10238417Y2807969D01*
X-10245858Y2795553D01*
X-10254481Y2783927D01*
X-10264202Y2773202D01*
X-10274927Y2763481D01*
X-10286553Y2754858D01*
X-10298969Y2747417D01*
X-10312054Y2741228D01*
X-10325683Y2736351D01*
X-10339724Y2732834D01*
X-10354042Y2730710D01*
X-10368500Y2730000D01*
X-10713500Y2730000D01*
X-10727958Y2730710D01*
X-10742276Y2732834D01*
X-10756317Y2736351D01*
X-10769946Y2741228D01*
X-10783031Y2747417D01*
X-10795447Y2754858D01*
X-10807073Y2763481D01*
X-10817798Y2773202D01*
X-10827519Y2783927D01*
X-10836142Y2795553D01*
X-10843583Y2807969D01*
X-10849772Y2821054D01*
X-10854649Y2834683D01*
X-10858166Y2848724D01*
X-10860290Y2863042D01*
X-10861000Y2877500D01*
X-10861000Y3172500D01*
X-10860290Y3186958D01*
X-10858166Y3201276D01*
X-10854649Y3215317D01*
X-10849772Y3228946D01*
X-10843583Y3242031D01*
X-10836142Y3254447D01*
X-10827519Y3266073D01*
X-10817798Y3276798D01*
X-10807073Y3286519D01*
X-10795447Y3295142D01*
X-10783031Y3302583D01*
X-10769946Y3308772D01*
X-10756317Y3313649D01*
X-10742276Y3317166D01*
X-10727958Y3319290D01*
X-10713500Y3320000D01*
X-10368500Y3320000D01*
X-10354042Y3319290D01*
X-10354042Y3319290D01*
G37*
D13*
X-10541000Y3025000D03*
D12*
G36*
X-10354042Y2349290D02*
G01*
X-10339724Y2347166D01*
X-10325683Y2343649D01*
X-10312054Y2338772D01*
X-10298969Y2332583D01*
X-10286553Y2325142D01*
X-10274927Y2316519D01*
X-10264202Y2306798D01*
X-10254481Y2296073D01*
X-10245858Y2284447D01*
X-10238417Y2272031D01*
X-10232228Y2258946D01*
X-10227351Y2245317D01*
X-10223834Y2231276D01*
X-10221710Y2216958D01*
X-10221000Y2202500D01*
X-10221000Y1907500D01*
X-10221710Y1893042D01*
X-10223834Y1878724D01*
X-10227351Y1864683D01*
X-10232228Y1851054D01*
X-10238417Y1837969D01*
X-10245858Y1825553D01*
X-10254481Y1813927D01*
X-10264202Y1803202D01*
X-10274927Y1793481D01*
X-10286553Y1784858D01*
X-10298969Y1777417D01*
X-10312054Y1771228D01*
X-10325683Y1766351D01*
X-10339724Y1762834D01*
X-10354042Y1760710D01*
X-10368500Y1760000D01*
X-10713500Y1760000D01*
X-10727958Y1760710D01*
X-10742276Y1762834D01*
X-10756317Y1766351D01*
X-10769946Y1771228D01*
X-10783031Y1777417D01*
X-10795447Y1784858D01*
X-10807073Y1793481D01*
X-10817798Y1803202D01*
X-10827519Y1813927D01*
X-10836142Y1825553D01*
X-10843583Y1837969D01*
X-10849772Y1851054D01*
X-10854649Y1864683D01*
X-10858166Y1878724D01*
X-10860290Y1893042D01*
X-10861000Y1907500D01*
X-10861000Y2202500D01*
X-10860290Y2216958D01*
X-10858166Y2231276D01*
X-10854649Y2245317D01*
X-10849772Y2258946D01*
X-10843583Y2272031D01*
X-10836142Y2284447D01*
X-10827519Y2296073D01*
X-10817798Y2306798D01*
X-10807073Y2316519D01*
X-10795447Y2325142D01*
X-10783031Y2332583D01*
X-10769946Y2338772D01*
X-10756317Y2343649D01*
X-10742276Y2347166D01*
X-10727958Y2349290D01*
X-10713500Y2350000D01*
X-10368500Y2350000D01*
X-10354042Y2349290D01*
X-10354042Y2349290D01*
G37*
D13*
X-10541000Y2055000D03*
D12*
G36*
X-5373702Y-1175650D02*
G01*
X-5359384Y-1177774D01*
X-5345343Y-1181291D01*
X-5331714Y-1186168D01*
X-5318629Y-1192357D01*
X-5306213Y-1199798D01*
X-5294587Y-1208421D01*
X-5283862Y-1218142D01*
X-5274141Y-1228867D01*
X-5265518Y-1240493D01*
X-5258077Y-1252909D01*
X-5251888Y-1265994D01*
X-5247011Y-1279623D01*
X-5243494Y-1293664D01*
X-5241370Y-1307982D01*
X-5240660Y-1322440D01*
X-5240660Y-1617440D01*
X-5241370Y-1631898D01*
X-5243494Y-1646216D01*
X-5247011Y-1660257D01*
X-5251888Y-1673886D01*
X-5258077Y-1686971D01*
X-5265518Y-1699387D01*
X-5274141Y-1711013D01*
X-5283862Y-1721738D01*
X-5294587Y-1731459D01*
X-5306213Y-1740082D01*
X-5318629Y-1747523D01*
X-5331714Y-1753712D01*
X-5345343Y-1758589D01*
X-5359384Y-1762106D01*
X-5373702Y-1764230D01*
X-5388160Y-1764940D01*
X-5733160Y-1764940D01*
X-5747618Y-1764230D01*
X-5761936Y-1762106D01*
X-5775977Y-1758589D01*
X-5789606Y-1753712D01*
X-5802691Y-1747523D01*
X-5815107Y-1740082D01*
X-5826733Y-1731459D01*
X-5837458Y-1721738D01*
X-5847179Y-1711013D01*
X-5855802Y-1699387D01*
X-5863243Y-1686971D01*
X-5869432Y-1673886D01*
X-5874309Y-1660257D01*
X-5877826Y-1646216D01*
X-5879950Y-1631898D01*
X-5880660Y-1617440D01*
X-5880660Y-1322440D01*
X-5879950Y-1307982D01*
X-5877826Y-1293664D01*
X-5874309Y-1279623D01*
X-5869432Y-1265994D01*
X-5863243Y-1252909D01*
X-5855802Y-1240493D01*
X-5847179Y-1228867D01*
X-5837458Y-1218142D01*
X-5826733Y-1208421D01*
X-5815107Y-1199798D01*
X-5802691Y-1192357D01*
X-5789606Y-1186168D01*
X-5775977Y-1181291D01*
X-5761936Y-1177774D01*
X-5747618Y-1175650D01*
X-5733160Y-1174940D01*
X-5388160Y-1174940D01*
X-5373702Y-1175650D01*
X-5373702Y-1175650D01*
G37*
D13*
X-5560660Y-1469940D03*
D12*
G36*
X-5373702Y-205650D02*
G01*
X-5359384Y-207774D01*
X-5345343Y-211291D01*
X-5331714Y-216168D01*
X-5318629Y-222357D01*
X-5306213Y-229798D01*
X-5294587Y-238421D01*
X-5283862Y-248142D01*
X-5274141Y-258867D01*
X-5265518Y-270493D01*
X-5258077Y-282909D01*
X-5251888Y-295994D01*
X-5247011Y-309623D01*
X-5243494Y-323664D01*
X-5241370Y-337982D01*
X-5240660Y-352440D01*
X-5240660Y-647440D01*
X-5241370Y-661898D01*
X-5243494Y-676216D01*
X-5247011Y-690257D01*
X-5251888Y-703886D01*
X-5258077Y-716971D01*
X-5265518Y-729387D01*
X-5274141Y-741013D01*
X-5283862Y-751738D01*
X-5294587Y-761459D01*
X-5306213Y-770082D01*
X-5318629Y-777523D01*
X-5331714Y-783712D01*
X-5345343Y-788589D01*
X-5359384Y-792106D01*
X-5373702Y-794230D01*
X-5388160Y-794940D01*
X-5733160Y-794940D01*
X-5747618Y-794230D01*
X-5761936Y-792106D01*
X-5775977Y-788589D01*
X-5789606Y-783712D01*
X-5802691Y-777523D01*
X-5815107Y-770082D01*
X-5826733Y-761459D01*
X-5837458Y-751738D01*
X-5847179Y-741013D01*
X-5855802Y-729387D01*
X-5863243Y-716971D01*
X-5869432Y-703886D01*
X-5874309Y-690257D01*
X-5877826Y-676216D01*
X-5879950Y-661898D01*
X-5880660Y-647440D01*
X-5880660Y-352440D01*
X-5879950Y-337982D01*
X-5877826Y-323664D01*
X-5874309Y-309623D01*
X-5869432Y-295994D01*
X-5863243Y-282909D01*
X-5855802Y-270493D01*
X-5847179Y-258867D01*
X-5837458Y-248142D01*
X-5826733Y-238421D01*
X-5815107Y-229798D01*
X-5802691Y-222357D01*
X-5789606Y-216168D01*
X-5775977Y-211291D01*
X-5761936Y-207774D01*
X-5747618Y-205650D01*
X-5733160Y-204940D01*
X-5388160Y-204940D01*
X-5373702Y-205650D01*
X-5373702Y-205650D01*
G37*
D13*
X-5560660Y-499940D03*
D12*
G36*
X-6389702Y-1175650D02*
G01*
X-6375384Y-1177774D01*
X-6361343Y-1181291D01*
X-6347714Y-1186168D01*
X-6334629Y-1192357D01*
X-6322213Y-1199798D01*
X-6310587Y-1208421D01*
X-6299862Y-1218142D01*
X-6290141Y-1228867D01*
X-6281518Y-1240493D01*
X-6274077Y-1252909D01*
X-6267888Y-1265994D01*
X-6263011Y-1279623D01*
X-6259494Y-1293664D01*
X-6257370Y-1307982D01*
X-6256660Y-1322440D01*
X-6256660Y-1617440D01*
X-6257370Y-1631898D01*
X-6259494Y-1646216D01*
X-6263011Y-1660257D01*
X-6267888Y-1673886D01*
X-6274077Y-1686971D01*
X-6281518Y-1699387D01*
X-6290141Y-1711013D01*
X-6299862Y-1721738D01*
X-6310587Y-1731459D01*
X-6322213Y-1740082D01*
X-6334629Y-1747523D01*
X-6347714Y-1753712D01*
X-6361343Y-1758589D01*
X-6375384Y-1762106D01*
X-6389702Y-1764230D01*
X-6404160Y-1764940D01*
X-6749160Y-1764940D01*
X-6763618Y-1764230D01*
X-6777936Y-1762106D01*
X-6791977Y-1758589D01*
X-6805606Y-1753712D01*
X-6818691Y-1747523D01*
X-6831107Y-1740082D01*
X-6842733Y-1731459D01*
X-6853458Y-1721738D01*
X-6863179Y-1711013D01*
X-6871802Y-1699387D01*
X-6879243Y-1686971D01*
X-6885432Y-1673886D01*
X-6890309Y-1660257D01*
X-6893826Y-1646216D01*
X-6895950Y-1631898D01*
X-6896660Y-1617440D01*
X-6896660Y-1322440D01*
X-6895950Y-1307982D01*
X-6893826Y-1293664D01*
X-6890309Y-1279623D01*
X-6885432Y-1265994D01*
X-6879243Y-1252909D01*
X-6871802Y-1240493D01*
X-6863179Y-1228867D01*
X-6853458Y-1218142D01*
X-6842733Y-1208421D01*
X-6831107Y-1199798D01*
X-6818691Y-1192357D01*
X-6805606Y-1186168D01*
X-6791977Y-1181291D01*
X-6777936Y-1177774D01*
X-6763618Y-1175650D01*
X-6749160Y-1174940D01*
X-6404160Y-1174940D01*
X-6389702Y-1175650D01*
X-6389702Y-1175650D01*
G37*
D13*
X-6576660Y-1469940D03*
D12*
G36*
X-6389702Y-205650D02*
G01*
X-6375384Y-207774D01*
X-6361343Y-211291D01*
X-6347714Y-216168D01*
X-6334629Y-222357D01*
X-6322213Y-229798D01*
X-6310587Y-238421D01*
X-6299862Y-248142D01*
X-6290141Y-258867D01*
X-6281518Y-270493D01*
X-6274077Y-282909D01*
X-6267888Y-295994D01*
X-6263011Y-309623D01*
X-6259494Y-323664D01*
X-6257370Y-337982D01*
X-6256660Y-352440D01*
X-6256660Y-647440D01*
X-6257370Y-661898D01*
X-6259494Y-676216D01*
X-6263011Y-690257D01*
X-6267888Y-703886D01*
X-6274077Y-716971D01*
X-6281518Y-729387D01*
X-6290141Y-741013D01*
X-6299862Y-751738D01*
X-6310587Y-761459D01*
X-6322213Y-770082D01*
X-6334629Y-777523D01*
X-6347714Y-783712D01*
X-6361343Y-788589D01*
X-6375384Y-792106D01*
X-6389702Y-794230D01*
X-6404160Y-794940D01*
X-6749160Y-794940D01*
X-6763618Y-794230D01*
X-6777936Y-792106D01*
X-6791977Y-788589D01*
X-6805606Y-783712D01*
X-6818691Y-777523D01*
X-6831107Y-770082D01*
X-6842733Y-761459D01*
X-6853458Y-751738D01*
X-6863179Y-741013D01*
X-6871802Y-729387D01*
X-6879243Y-716971D01*
X-6885432Y-703886D01*
X-6890309Y-690257D01*
X-6893826Y-676216D01*
X-6895950Y-661898D01*
X-6896660Y-647440D01*
X-6896660Y-352440D01*
X-6895950Y-337982D01*
X-6893826Y-323664D01*
X-6890309Y-309623D01*
X-6885432Y-295994D01*
X-6879243Y-282909D01*
X-6871802Y-270493D01*
X-6863179Y-258867D01*
X-6853458Y-248142D01*
X-6842733Y-238421D01*
X-6831107Y-229798D01*
X-6818691Y-222357D01*
X-6805606Y-216168D01*
X-6791977Y-211291D01*
X-6777936Y-207774D01*
X-6763618Y-205650D01*
X-6749160Y-204940D01*
X-6404160Y-204940D01*
X-6389702Y-205650D01*
X-6389702Y-205650D01*
G37*
D13*
X-6576660Y-499940D03*
D10*
X-19050000Y-2540000D03*
D11*
X-17700000Y-2540000D03*
X-20400000Y-2540000D03*
D10*
X-13970000Y2540000D03*
D11*
X-15320000Y2540000D03*
X-12620000Y2540000D03*
D10*
X-2540000Y2540000D03*
D11*
X-3890000Y2540000D03*
X-1190000Y2540000D03*
D10*
X2540000Y2540000D03*
D11*
X1190000Y2540000D03*
X3890000Y2540000D03*
D10*
X-2540000Y-2540000D03*
D11*
X-3890000Y-2540000D03*
X-1190000Y-2540000D03*
D10*
X2540000Y-2540000D03*
D11*
X1190000Y-2540000D03*
X3890000Y-2540000D03*
D10*
X13970000Y-2540000D03*
D11*
X12620000Y-2540000D03*
X15320000Y-2540000D03*
D10*
X19050000Y-2540000D03*
D11*
X17700000Y-2540000D03*
X20400000Y-2540000D03*
D10*
X13970000Y2540000D03*
D11*
X15320000Y2540000D03*
X12620000Y2540000D03*
D12*
G36*
X-10222309Y-351053D02*
G01*
X-10201074Y-354203D01*
X-10180250Y-359419D01*
X-10160038Y-366651D01*
X-10140632Y-375830D01*
X-10122219Y-386866D01*
X-10104976Y-399654D01*
X-10089070Y-414070D01*
X-10074654Y-429976D01*
X-10061866Y-447219D01*
X-10050830Y-465632D01*
X-10041651Y-485038D01*
X-10034419Y-505250D01*
X-10029203Y-526074D01*
X-10026053Y-547309D01*
X-10025000Y-568750D01*
X-10025000Y-1006250D01*
X-10026053Y-1027691D01*
X-10029203Y-1048926D01*
X-10034419Y-1069750D01*
X-10041651Y-1089962D01*
X-10050830Y-1109368D01*
X-10061866Y-1127781D01*
X-10074654Y-1145024D01*
X-10089070Y-1160930D01*
X-10104976Y-1175346D01*
X-10122219Y-1188134D01*
X-10140632Y-1199170D01*
X-10160038Y-1208349D01*
X-10180250Y-1215581D01*
X-10201074Y-1220797D01*
X-10222309Y-1223947D01*
X-10243750Y-1225000D01*
X-10756250Y-1225000D01*
X-10777691Y-1223947D01*
X-10798926Y-1220797D01*
X-10819750Y-1215581D01*
X-10839962Y-1208349D01*
X-10859368Y-1199170D01*
X-10877781Y-1188134D01*
X-10895024Y-1175346D01*
X-10910930Y-1160930D01*
X-10925346Y-1145024D01*
X-10938134Y-1127781D01*
X-10949170Y-1109368D01*
X-10958349Y-1089962D01*
X-10965581Y-1069750D01*
X-10970797Y-1048926D01*
X-10973947Y-1027691D01*
X-10975000Y-1006250D01*
X-10975000Y-568750D01*
X-10973947Y-547309D01*
X-10970797Y-526074D01*
X-10965581Y-505250D01*
X-10958349Y-485038D01*
X-10949170Y-465632D01*
X-10938134Y-447219D01*
X-10925346Y-429976D01*
X-10910930Y-414070D01*
X-10895024Y-399654D01*
X-10877781Y-386866D01*
X-10859368Y-375830D01*
X-10839962Y-366651D01*
X-10819750Y-359419D01*
X-10798926Y-354203D01*
X-10777691Y-351053D01*
X-10756250Y-350000D01*
X-10243750Y-350000D01*
X-10222309Y-351053D01*
X-10222309Y-351053D01*
G37*
D15*
X-10500000Y-787500D03*
D12*
G36*
X-10222309Y1223947D02*
G01*
X-10201074Y1220797D01*
X-10180250Y1215581D01*
X-10160038Y1208349D01*
X-10140632Y1199170D01*
X-10122219Y1188134D01*
X-10104976Y1175346D01*
X-10089070Y1160930D01*
X-10074654Y1145024D01*
X-10061866Y1127781D01*
X-10050830Y1109368D01*
X-10041651Y1089962D01*
X-10034419Y1069750D01*
X-10029203Y1048926D01*
X-10026053Y1027691D01*
X-10025000Y1006250D01*
X-10025000Y568750D01*
X-10026053Y547309D01*
X-10029203Y526074D01*
X-10034419Y505250D01*
X-10041651Y485038D01*
X-10050830Y465632D01*
X-10061866Y447219D01*
X-10074654Y429976D01*
X-10089070Y414070D01*
X-10104976Y399654D01*
X-10122219Y386866D01*
X-10140632Y375830D01*
X-10160038Y366651D01*
X-10180250Y359419D01*
X-10201074Y354203D01*
X-10222309Y351053D01*
X-10243750Y350000D01*
X-10756250Y350000D01*
X-10777691Y351053D01*
X-10798926Y354203D01*
X-10819750Y359419D01*
X-10839962Y366651D01*
X-10859368Y375830D01*
X-10877781Y386866D01*
X-10895024Y399654D01*
X-10910930Y414070D01*
X-10925346Y429976D01*
X-10938134Y447219D01*
X-10949170Y465632D01*
X-10958349Y485038D01*
X-10965581Y505250D01*
X-10970797Y526074D01*
X-10973947Y547309D01*
X-10975000Y568750D01*
X-10975000Y1006250D01*
X-10973947Y1027691D01*
X-10970797Y1048926D01*
X-10965581Y1069750D01*
X-10958349Y1089962D01*
X-10949170Y1109368D01*
X-10938134Y1127781D01*
X-10925346Y1145024D01*
X-10910930Y1160930D01*
X-10895024Y1175346D01*
X-10877781Y1188134D01*
X-10859368Y1199170D01*
X-10839962Y1208349D01*
X-10819750Y1215581D01*
X-10798926Y1220797D01*
X-10777691Y1223947D01*
X-10756250Y1225000D01*
X-10243750Y1225000D01*
X-10222309Y1223947D01*
X-10222309Y1223947D01*
G37*
D15*
X-10500000Y787500D03*
D12*
G36*
X10777691Y1223947D02*
G01*
X10798926Y1220797D01*
X10819750Y1215581D01*
X10839962Y1208349D01*
X10859368Y1199170D01*
X10877781Y1188134D01*
X10895024Y1175346D01*
X10910930Y1160930D01*
X10925346Y1145024D01*
X10938134Y1127781D01*
X10949170Y1109368D01*
X10958349Y1089962D01*
X10965581Y1069750D01*
X10970797Y1048926D01*
X10973947Y1027691D01*
X10975000Y1006250D01*
X10975000Y568750D01*
X10973947Y547309D01*
X10970797Y526074D01*
X10965581Y505250D01*
X10958349Y485038D01*
X10949170Y465632D01*
X10938134Y447219D01*
X10925346Y429976D01*
X10910930Y414070D01*
X10895024Y399654D01*
X10877781Y386866D01*
X10859368Y375830D01*
X10839962Y366651D01*
X10819750Y359419D01*
X10798926Y354203D01*
X10777691Y351053D01*
X10756250Y350000D01*
X10243750Y350000D01*
X10222309Y351053D01*
X10201074Y354203D01*
X10180250Y359419D01*
X10160038Y366651D01*
X10140632Y375830D01*
X10122219Y386866D01*
X10104976Y399654D01*
X10089070Y414070D01*
X10074654Y429976D01*
X10061866Y447219D01*
X10050830Y465632D01*
X10041651Y485038D01*
X10034419Y505250D01*
X10029203Y526074D01*
X10026053Y547309D01*
X10025000Y568750D01*
X10025000Y1006250D01*
X10026053Y1027691D01*
X10029203Y1048926D01*
X10034419Y1069750D01*
X10041651Y1089962D01*
X10050830Y1109368D01*
X10061866Y1127781D01*
X10074654Y1145024D01*
X10089070Y1160930D01*
X10104976Y1175346D01*
X10122219Y1188134D01*
X10140632Y1199170D01*
X10160038Y1208349D01*
X10180250Y1215581D01*
X10201074Y1220797D01*
X10222309Y1223947D01*
X10243750Y1225000D01*
X10756250Y1225000D01*
X10777691Y1223947D01*
X10777691Y1223947D01*
G37*
D15*
X10500000Y787500D03*
D12*
G36*
X10777691Y-351053D02*
G01*
X10798926Y-354203D01*
X10819750Y-359419D01*
X10839962Y-366651D01*
X10859368Y-375830D01*
X10877781Y-386866D01*
X10895024Y-399654D01*
X10910930Y-414070D01*
X10925346Y-429976D01*
X10938134Y-447219D01*
X10949170Y-465632D01*
X10958349Y-485038D01*
X10965581Y-505250D01*
X10970797Y-526074D01*
X10973947Y-547309D01*
X10975000Y-568750D01*
X10975000Y-1006250D01*
X10973947Y-1027691D01*
X10970797Y-1048926D01*
X10965581Y-1069750D01*
X10958349Y-1089962D01*
X10949170Y-1109368D01*
X10938134Y-1127781D01*
X10925346Y-1145024D01*
X10910930Y-1160930D01*
X10895024Y-1175346D01*
X10877781Y-1188134D01*
X10859368Y-1199170D01*
X10839962Y-1208349D01*
X10819750Y-1215581D01*
X10798926Y-1220797D01*
X10777691Y-1223947D01*
X10756250Y-1225000D01*
X10243750Y-1225000D01*
X10222309Y-1223947D01*
X10201074Y-1220797D01*
X10180250Y-1215581D01*
X10160038Y-1208349D01*
X10140632Y-1199170D01*
X10122219Y-1188134D01*
X10104976Y-1175346D01*
X10089070Y-1160930D01*
X10074654Y-1145024D01*
X10061866Y-1127781D01*
X10050830Y-1109368D01*
X10041651Y-1089962D01*
X10034419Y-1069750D01*
X10029203Y-1048926D01*
X10026053Y-1027691D01*
X10025000Y-1006250D01*
X10025000Y-568750D01*
X10026053Y-547309D01*
X10029203Y-526074D01*
X10034419Y-505250D01*
X10041651Y-485038D01*
X10050830Y-465632D01*
X10061866Y-447219D01*
X10074654Y-429976D01*
X10089070Y-414070D01*
X10104976Y-399654D01*
X10122219Y-386866D01*
X10140632Y-375830D01*
X10160038Y-366651D01*
X10180250Y-359419D01*
X10201074Y-354203D01*
X10222309Y-351053D01*
X10243750Y-350000D01*
X10756250Y-350000D01*
X10777691Y-351053D01*
X10777691Y-351053D01*
G37*
D15*
X10500000Y-787500D03*
M02*
