G04 #@! TF.GenerationSoftware,KiCad,Pcbnew,(5.1.4)-1*
G04 #@! TF.CreationDate,2019-10-25T22:43:12-07:00*
G04 #@! TF.ProjectId,SkateLightLEDBoard1.0,536b6174-654c-4696-9768-744c4544426f,rev?*
G04 #@! TF.SameCoordinates,Original*
G04 #@! TF.FileFunction,Copper,L2,Bot*
G04 #@! TF.FilePolarity,Positive*
%FSLAX46Y46*%
G04 Gerber Fmt 4.6, Leading zero omitted, Abs format (unit mm)*
G04 Created by KiCad (PCBNEW (5.1.4)-1) date 2019-10-25 22:43:12*
%MOMM*%
%LPD*%
G04 APERTURE LIST*
%ADD10C,1.016000*%
%ADD11C,2.921000*%
%ADD12C,2.400000*%
%ADD13C,0.800000*%
%ADD14C,0.250000*%
%ADD15C,1.000000*%
%ADD16C,0.254000*%
G04 APERTURE END LIST*
D10*
X-8890000Y-1905000D03*
X-7620000Y-1905000D03*
X-8890000Y-635000D03*
X-7620000Y-635000D03*
X-8890000Y635000D03*
X-7620000Y635000D03*
X-8890000Y1905000D03*
X-7620000Y1905000D03*
D11*
X8255000Y-4953000D03*
X8255000Y4953000D03*
X-8255000Y-4953000D03*
X-8255000Y4953000D03*
D10*
X7620000Y-1905000D03*
X8890000Y-1905000D03*
X7620000Y-635000D03*
X8890000Y-635000D03*
X7620000Y635000D03*
X8890000Y635000D03*
X7620000Y1905000D03*
X8890000Y1905000D03*
D12*
X4423000Y-4423000D03*
X-4423000Y-4423000D03*
X-4423000Y4423000D03*
X4423000Y4423000D03*
D11*
X23812500Y5207000D03*
X23812500Y-5207000D03*
X-23812500Y5207000D03*
X-23812500Y-5207000D03*
D12*
X20933000Y-4423000D03*
X12087000Y-4423000D03*
X12087000Y4423000D03*
X20933000Y4423000D03*
X-12087000Y-4423000D03*
X-20933000Y-4423000D03*
X-20933000Y4423000D03*
X-12087000Y4423000D03*
D13*
X9786398Y2556260D03*
X-5321300Y-337820D03*
X10668000Y-5842000D03*
X10668000Y5842000D03*
X5842000Y5842000D03*
X5842000Y-5842000D03*
X-5842000Y5842000D03*
X-5842000Y-5842000D03*
X-10668000Y5842000D03*
X-10845800Y-5892800D03*
X5702300Y-1013460D03*
X6477000Y-3556000D03*
X-5481320Y2537460D03*
D14*
X9604657Y2738001D02*
X9786398Y2556260D01*
X7620000Y1905000D02*
X8453001Y2738001D01*
X8453001Y2738001D02*
X9604657Y2738001D01*
D15*
X6901580Y635000D02*
X7620000Y635000D01*
X5622999Y1913581D02*
X6901580Y635000D01*
X5622999Y3223001D02*
X5622999Y1913581D01*
X4423000Y4423000D02*
X5622999Y3223001D01*
X3223001Y5622999D02*
X4423000Y4423000D01*
X-3223001Y5622999D02*
X3223001Y5622999D01*
X-4423000Y4423000D02*
X-3223001Y5622999D01*
X13286999Y-5622999D02*
X12087000Y-4423000D01*
X19733001Y-5622999D02*
X13286999Y-5622999D01*
X20933000Y-4423000D02*
X19733001Y-5622999D01*
X9608420Y-635000D02*
X8890000Y-635000D01*
X10887001Y-1913581D02*
X9608420Y-635000D01*
X10887001Y-3223001D02*
X10887001Y-1913581D01*
X12087000Y-4423000D02*
X10887001Y-3223001D01*
X13286999Y5622999D02*
X12087000Y4423000D01*
X19733001Y5622999D02*
X13286999Y5622999D01*
X20933000Y4423000D02*
X19733001Y5622999D01*
X3223001Y-5622999D02*
X4423000Y-4423000D01*
X-3223001Y-5622999D02*
X3223001Y-5622999D01*
X-4423000Y-4423000D02*
X-3223001Y-5622999D01*
X-6901580Y-635000D02*
X-7620000Y-635000D01*
X-5622999Y-1913581D02*
X-6901580Y-635000D01*
X-5622999Y-3223001D02*
X-5622999Y-1913581D01*
X-4423000Y-4423000D02*
X-5622999Y-3223001D01*
X-13286999Y5622999D02*
X-12087000Y4423000D01*
X-19733001Y5622999D02*
X-13286999Y5622999D01*
X-20933000Y4423000D02*
X-19733001Y5622999D01*
X-9608420Y635000D02*
X-8890000Y635000D01*
X-10887001Y1913581D02*
X-9608420Y635000D01*
X-10887001Y3223001D02*
X-10887001Y1913581D01*
X-12087000Y4423000D02*
X-10887001Y3223001D01*
X-13286999Y-5622999D02*
X-12087000Y-4423000D01*
X-19733001Y-5622999D02*
X-13286999Y-5622999D01*
X-20933000Y-4423000D02*
X-19733001Y-5622999D01*
X-9608420Y-635000D02*
X-8890000Y-635000D01*
X-10887001Y-1913581D02*
X-9608420Y-635000D01*
X-10887001Y-3223001D02*
X-10887001Y-1913581D01*
X-12087000Y-4423000D02*
X-10887001Y-3223001D01*
X12087000Y4423000D02*
X10887001Y3223001D01*
X10887001Y3223001D02*
X10887001Y1913581D01*
X10887001Y1913581D02*
X9608420Y635000D01*
X9608420Y635000D02*
X8890000Y635000D01*
D16*
G36*
X3961839Y2902757D02*
G01*
X4267285Y2842000D01*
X4578715Y2842000D01*
X4728320Y2871758D01*
X4741999Y2858079D01*
X4742000Y1956861D01*
X4737737Y1913581D01*
X4754748Y1740876D01*
X4805124Y1574807D01*
X4886931Y1421756D01*
X4907615Y1396553D01*
X4997025Y1287606D01*
X5030639Y1260020D01*
X6248019Y42639D01*
X6275605Y9025D01*
X6309217Y-18559D01*
X6409754Y-101068D01*
X6506578Y-152821D01*
X6562805Y-182875D01*
X6728874Y-233252D01*
X6820428Y-242269D01*
X6765164Y-375688D01*
X6731000Y-547441D01*
X6731000Y-722559D01*
X6765164Y-894312D01*
X6832179Y-1056099D01*
X6929469Y-1201704D01*
X7053296Y-1325531D01*
X7198901Y-1422821D01*
X7360688Y-1489836D01*
X7390340Y-1495734D01*
X7620000Y-1725395D01*
X7849660Y-1495734D01*
X7879312Y-1489836D01*
X8041099Y-1422821D01*
X8186704Y-1325531D01*
X8255000Y-1257235D01*
X8267765Y-1270000D01*
X8199469Y-1338296D01*
X8102179Y-1483901D01*
X8035164Y-1645688D01*
X8029266Y-1675340D01*
X7799605Y-1905000D01*
X8029266Y-2134660D01*
X8035164Y-2164312D01*
X8102179Y-2326099D01*
X8199469Y-2471704D01*
X8323296Y-2595531D01*
X8468901Y-2692821D01*
X8630688Y-2759836D01*
X8802441Y-2794000D01*
X8977559Y-2794000D01*
X9149312Y-2759836D01*
X9311099Y-2692821D01*
X9456704Y-2595531D01*
X9580531Y-2471704D01*
X9677821Y-2326099D01*
X9744836Y-2164312D01*
X9769221Y-2041722D01*
X10006002Y-2278503D01*
X10006001Y-3179730D01*
X10001739Y-3223001D01*
X10006001Y-3266271D01*
X10006001Y-3266273D01*
X10018749Y-3395706D01*
X10066636Y-3553568D01*
X10069126Y-3561775D01*
X10150933Y-3714826D01*
X10182266Y-3753005D01*
X10261026Y-3848976D01*
X10294645Y-3876567D01*
X10535758Y-4117680D01*
X10506000Y-4267285D01*
X10506000Y-4578715D01*
X10566757Y-4884161D01*
X10685936Y-5171884D01*
X10858957Y-5430829D01*
X11079171Y-5651043D01*
X11338116Y-5824064D01*
X11625839Y-5943243D01*
X11931285Y-6004000D01*
X12242715Y-6004000D01*
X12392320Y-5974242D01*
X12633438Y-6215360D01*
X12661024Y-6248974D01*
X12675800Y-6261100D01*
X9383495Y-6261100D01*
X8255000Y-5132605D01*
X7126505Y-6261100D01*
X3834200Y-6261100D01*
X3848976Y-6248974D01*
X3876567Y-6215355D01*
X4117680Y-5974242D01*
X4267285Y-6004000D01*
X4578715Y-6004000D01*
X4884161Y-5943243D01*
X5171884Y-5824064D01*
X5430829Y-5651043D01*
X5651043Y-5430829D01*
X5824064Y-5171884D01*
X5892184Y-5007427D01*
X6405390Y-5007427D01*
X6451548Y-5367222D01*
X6567012Y-5711099D01*
X6686868Y-5935334D01*
X6927365Y-6101030D01*
X8075395Y-4953000D01*
X8434605Y-4953000D01*
X9582635Y-6101030D01*
X9823132Y-5935334D01*
X9984645Y-5610531D01*
X10079688Y-5260460D01*
X10104610Y-4898573D01*
X10058452Y-4538778D01*
X9942988Y-4194901D01*
X9823132Y-3970666D01*
X9582635Y-3804970D01*
X8434605Y-4953000D01*
X8075395Y-4953000D01*
X6927365Y-3804970D01*
X6686868Y-3970666D01*
X6525355Y-4295469D01*
X6430312Y-4645540D01*
X6405390Y-5007427D01*
X5892184Y-5007427D01*
X5943243Y-4884161D01*
X6004000Y-4578715D01*
X6004000Y-4267285D01*
X5943243Y-3961839D01*
X5824064Y-3674116D01*
X5791490Y-3625365D01*
X7106970Y-3625365D01*
X8255000Y-4773395D01*
X9403030Y-3625365D01*
X9237334Y-3384868D01*
X8912531Y-3223355D01*
X8562460Y-3128312D01*
X8200573Y-3103390D01*
X7840778Y-3149548D01*
X7496901Y-3265012D01*
X7272666Y-3384868D01*
X7106970Y-3625365D01*
X5791490Y-3625365D01*
X5651043Y-3415171D01*
X5430829Y-3194957D01*
X5171884Y-3021936D01*
X4884161Y-2902757D01*
X4578715Y-2842000D01*
X4267285Y-2842000D01*
X3961839Y-2902757D01*
X3918878Y-2920552D01*
X4165190Y-2551919D01*
X7152687Y-2551919D01*
X7203009Y-2695004D01*
X7365143Y-2761175D01*
X7537071Y-2794443D01*
X7712186Y-2793531D01*
X7883759Y-2758474D01*
X8036991Y-2695004D01*
X8087313Y-2551919D01*
X7620000Y-2084605D01*
X7152687Y-2551919D01*
X4165190Y-2551919D01*
X4325486Y-2312020D01*
X4528429Y-1822071D01*
X6730557Y-1822071D01*
X6731469Y-1997186D01*
X6766526Y-2168759D01*
X6829996Y-2321991D01*
X6973081Y-2372313D01*
X7440395Y-1905000D01*
X6973081Y-1437687D01*
X6829996Y-1488009D01*
X6763825Y-1650143D01*
X6730557Y-1822071D01*
X4528429Y-1822071D01*
X4693426Y-1423735D01*
X4881000Y-480737D01*
X4881000Y480737D01*
X4693426Y1423735D01*
X4325486Y2312020D01*
X3918878Y2920552D01*
X3961839Y2902757D01*
X3961839Y2902757D01*
G37*
X3961839Y2902757D02*
X4267285Y2842000D01*
X4578715Y2842000D01*
X4728320Y2871758D01*
X4741999Y2858079D01*
X4742000Y1956861D01*
X4737737Y1913581D01*
X4754748Y1740876D01*
X4805124Y1574807D01*
X4886931Y1421756D01*
X4907615Y1396553D01*
X4997025Y1287606D01*
X5030639Y1260020D01*
X6248019Y42639D01*
X6275605Y9025D01*
X6309217Y-18559D01*
X6409754Y-101068D01*
X6506578Y-152821D01*
X6562805Y-182875D01*
X6728874Y-233252D01*
X6820428Y-242269D01*
X6765164Y-375688D01*
X6731000Y-547441D01*
X6731000Y-722559D01*
X6765164Y-894312D01*
X6832179Y-1056099D01*
X6929469Y-1201704D01*
X7053296Y-1325531D01*
X7198901Y-1422821D01*
X7360688Y-1489836D01*
X7390340Y-1495734D01*
X7620000Y-1725395D01*
X7849660Y-1495734D01*
X7879312Y-1489836D01*
X8041099Y-1422821D01*
X8186704Y-1325531D01*
X8255000Y-1257235D01*
X8267765Y-1270000D01*
X8199469Y-1338296D01*
X8102179Y-1483901D01*
X8035164Y-1645688D01*
X8029266Y-1675340D01*
X7799605Y-1905000D01*
X8029266Y-2134660D01*
X8035164Y-2164312D01*
X8102179Y-2326099D01*
X8199469Y-2471704D01*
X8323296Y-2595531D01*
X8468901Y-2692821D01*
X8630688Y-2759836D01*
X8802441Y-2794000D01*
X8977559Y-2794000D01*
X9149312Y-2759836D01*
X9311099Y-2692821D01*
X9456704Y-2595531D01*
X9580531Y-2471704D01*
X9677821Y-2326099D01*
X9744836Y-2164312D01*
X9769221Y-2041722D01*
X10006002Y-2278503D01*
X10006001Y-3179730D01*
X10001739Y-3223001D01*
X10006001Y-3266271D01*
X10006001Y-3266273D01*
X10018749Y-3395706D01*
X10066636Y-3553568D01*
X10069126Y-3561775D01*
X10150933Y-3714826D01*
X10182266Y-3753005D01*
X10261026Y-3848976D01*
X10294645Y-3876567D01*
X10535758Y-4117680D01*
X10506000Y-4267285D01*
X10506000Y-4578715D01*
X10566757Y-4884161D01*
X10685936Y-5171884D01*
X10858957Y-5430829D01*
X11079171Y-5651043D01*
X11338116Y-5824064D01*
X11625839Y-5943243D01*
X11931285Y-6004000D01*
X12242715Y-6004000D01*
X12392320Y-5974242D01*
X12633438Y-6215360D01*
X12661024Y-6248974D01*
X12675800Y-6261100D01*
X9383495Y-6261100D01*
X8255000Y-5132605D01*
X7126505Y-6261100D01*
X3834200Y-6261100D01*
X3848976Y-6248974D01*
X3876567Y-6215355D01*
X4117680Y-5974242D01*
X4267285Y-6004000D01*
X4578715Y-6004000D01*
X4884161Y-5943243D01*
X5171884Y-5824064D01*
X5430829Y-5651043D01*
X5651043Y-5430829D01*
X5824064Y-5171884D01*
X5892184Y-5007427D01*
X6405390Y-5007427D01*
X6451548Y-5367222D01*
X6567012Y-5711099D01*
X6686868Y-5935334D01*
X6927365Y-6101030D01*
X8075395Y-4953000D01*
X8434605Y-4953000D01*
X9582635Y-6101030D01*
X9823132Y-5935334D01*
X9984645Y-5610531D01*
X10079688Y-5260460D01*
X10104610Y-4898573D01*
X10058452Y-4538778D01*
X9942988Y-4194901D01*
X9823132Y-3970666D01*
X9582635Y-3804970D01*
X8434605Y-4953000D01*
X8075395Y-4953000D01*
X6927365Y-3804970D01*
X6686868Y-3970666D01*
X6525355Y-4295469D01*
X6430312Y-4645540D01*
X6405390Y-5007427D01*
X5892184Y-5007427D01*
X5943243Y-4884161D01*
X6004000Y-4578715D01*
X6004000Y-4267285D01*
X5943243Y-3961839D01*
X5824064Y-3674116D01*
X5791490Y-3625365D01*
X7106970Y-3625365D01*
X8255000Y-4773395D01*
X9403030Y-3625365D01*
X9237334Y-3384868D01*
X8912531Y-3223355D01*
X8562460Y-3128312D01*
X8200573Y-3103390D01*
X7840778Y-3149548D01*
X7496901Y-3265012D01*
X7272666Y-3384868D01*
X7106970Y-3625365D01*
X5791490Y-3625365D01*
X5651043Y-3415171D01*
X5430829Y-3194957D01*
X5171884Y-3021936D01*
X4884161Y-2902757D01*
X4578715Y-2842000D01*
X4267285Y-2842000D01*
X3961839Y-2902757D01*
X3918878Y-2920552D01*
X4165190Y-2551919D01*
X7152687Y-2551919D01*
X7203009Y-2695004D01*
X7365143Y-2761175D01*
X7537071Y-2794443D01*
X7712186Y-2793531D01*
X7883759Y-2758474D01*
X8036991Y-2695004D01*
X8087313Y-2551919D01*
X7620000Y-2084605D01*
X7152687Y-2551919D01*
X4165190Y-2551919D01*
X4325486Y-2312020D01*
X4528429Y-1822071D01*
X6730557Y-1822071D01*
X6731469Y-1997186D01*
X6766526Y-2168759D01*
X6829996Y-2321991D01*
X6973081Y-2372313D01*
X7440395Y-1905000D01*
X6973081Y-1437687D01*
X6829996Y-1488009D01*
X6763825Y-1650143D01*
X6730557Y-1822071D01*
X4528429Y-1822071D01*
X4693426Y-1423735D01*
X4881000Y-480737D01*
X4881000Y480737D01*
X4693426Y1423735D01*
X4325486Y2312020D01*
X3918878Y2920552D01*
X3961839Y2902757D01*
G36*
X-8242235Y-1270000D02*
G01*
X-8310531Y-1338296D01*
X-8407821Y-1483901D01*
X-8474836Y-1645688D01*
X-8480734Y-1675340D01*
X-8710395Y-1905000D01*
X-8480734Y-2134660D01*
X-8474836Y-2164312D01*
X-8407821Y-2326099D01*
X-8310531Y-2471704D01*
X-8186704Y-2595531D01*
X-8041099Y-2692821D01*
X-7879312Y-2759836D01*
X-7707559Y-2794000D01*
X-7532441Y-2794000D01*
X-7360688Y-2759836D01*
X-7198901Y-2692821D01*
X-7053296Y-2595531D01*
X-6929469Y-2471704D01*
X-6832179Y-2326099D01*
X-6765164Y-2164312D01*
X-6740779Y-2041722D01*
X-6503998Y-2278503D01*
X-6503999Y-3179730D01*
X-6508261Y-3223001D01*
X-6503999Y-3266271D01*
X-6503999Y-3266273D01*
X-6491251Y-3395706D01*
X-6443364Y-3553568D01*
X-6440874Y-3561775D01*
X-6359067Y-3714826D01*
X-6327734Y-3753005D01*
X-6248974Y-3848976D01*
X-6215355Y-3876567D01*
X-5974242Y-4117680D01*
X-6004000Y-4267285D01*
X-6004000Y-4578715D01*
X-5943243Y-4884161D01*
X-5824064Y-5171884D01*
X-5651043Y-5430829D01*
X-5430829Y-5651043D01*
X-5171884Y-5824064D01*
X-4884161Y-5943243D01*
X-4578715Y-6004000D01*
X-4267285Y-6004000D01*
X-4117680Y-5974242D01*
X-3876562Y-6215360D01*
X-3848976Y-6248974D01*
X-3834200Y-6261100D01*
X-7126505Y-6261100D01*
X-8255000Y-5132605D01*
X-9383495Y-6261100D01*
X-12675800Y-6261100D01*
X-12661024Y-6248974D01*
X-12633433Y-6215355D01*
X-12392320Y-5974242D01*
X-12242715Y-6004000D01*
X-11931285Y-6004000D01*
X-11625839Y-5943243D01*
X-11338116Y-5824064D01*
X-11079171Y-5651043D01*
X-10858957Y-5430829D01*
X-10685936Y-5171884D01*
X-10617816Y-5007427D01*
X-10104610Y-5007427D01*
X-10058452Y-5367222D01*
X-9942988Y-5711099D01*
X-9823132Y-5935334D01*
X-9582635Y-6101030D01*
X-8434605Y-4953000D01*
X-8075395Y-4953000D01*
X-6927365Y-6101030D01*
X-6686868Y-5935334D01*
X-6525355Y-5610531D01*
X-6430312Y-5260460D01*
X-6405390Y-4898573D01*
X-6451548Y-4538778D01*
X-6567012Y-4194901D01*
X-6686868Y-3970666D01*
X-6927365Y-3804970D01*
X-8075395Y-4953000D01*
X-8434605Y-4953000D01*
X-9582635Y-3804970D01*
X-9823132Y-3970666D01*
X-9984645Y-4295469D01*
X-10079688Y-4645540D01*
X-10104610Y-5007427D01*
X-10617816Y-5007427D01*
X-10566757Y-4884161D01*
X-10506000Y-4578715D01*
X-10506000Y-4267285D01*
X-10535758Y-4117680D01*
X-10294639Y-3876561D01*
X-10261026Y-3848976D01*
X-10201549Y-3776502D01*
X-10150933Y-3714827D01*
X-10103115Y-3625365D01*
X-9403030Y-3625365D01*
X-8255000Y-4773395D01*
X-7106970Y-3625365D01*
X-7272666Y-3384868D01*
X-7597469Y-3223355D01*
X-7947540Y-3128312D01*
X-8309427Y-3103390D01*
X-8669222Y-3149548D01*
X-9013099Y-3265012D01*
X-9237334Y-3384868D01*
X-9403030Y-3625365D01*
X-10103115Y-3625365D01*
X-10069126Y-3561776D01*
X-10064850Y-3547679D01*
X-10018749Y-3395707D01*
X-10006001Y-3266274D01*
X-10006001Y-3266271D01*
X-10001739Y-3223001D01*
X-10006001Y-3179731D01*
X-10006001Y-2551919D01*
X-9357313Y-2551919D01*
X-9306991Y-2695004D01*
X-9144857Y-2761175D01*
X-8972929Y-2794443D01*
X-8797814Y-2793531D01*
X-8626241Y-2758474D01*
X-8473009Y-2695004D01*
X-8422687Y-2551919D01*
X-8890000Y-2084605D01*
X-9357313Y-2551919D01*
X-10006001Y-2551919D01*
X-10006001Y-2278502D01*
X-9769395Y-2041897D01*
X-9743474Y-2168759D01*
X-9680004Y-2321991D01*
X-9536919Y-2372313D01*
X-9069605Y-1905000D01*
X-9083748Y-1890858D01*
X-8904143Y-1711253D01*
X-8890000Y-1725395D01*
X-8660340Y-1495734D01*
X-8630688Y-1489836D01*
X-8468901Y-1422821D01*
X-8323296Y-1325531D01*
X-8255000Y-1257235D01*
X-8242235Y-1270000D01*
X-8242235Y-1270000D01*
G37*
X-8242235Y-1270000D02*
X-8310531Y-1338296D01*
X-8407821Y-1483901D01*
X-8474836Y-1645688D01*
X-8480734Y-1675340D01*
X-8710395Y-1905000D01*
X-8480734Y-2134660D01*
X-8474836Y-2164312D01*
X-8407821Y-2326099D01*
X-8310531Y-2471704D01*
X-8186704Y-2595531D01*
X-8041099Y-2692821D01*
X-7879312Y-2759836D01*
X-7707559Y-2794000D01*
X-7532441Y-2794000D01*
X-7360688Y-2759836D01*
X-7198901Y-2692821D01*
X-7053296Y-2595531D01*
X-6929469Y-2471704D01*
X-6832179Y-2326099D01*
X-6765164Y-2164312D01*
X-6740779Y-2041722D01*
X-6503998Y-2278503D01*
X-6503999Y-3179730D01*
X-6508261Y-3223001D01*
X-6503999Y-3266271D01*
X-6503999Y-3266273D01*
X-6491251Y-3395706D01*
X-6443364Y-3553568D01*
X-6440874Y-3561775D01*
X-6359067Y-3714826D01*
X-6327734Y-3753005D01*
X-6248974Y-3848976D01*
X-6215355Y-3876567D01*
X-5974242Y-4117680D01*
X-6004000Y-4267285D01*
X-6004000Y-4578715D01*
X-5943243Y-4884161D01*
X-5824064Y-5171884D01*
X-5651043Y-5430829D01*
X-5430829Y-5651043D01*
X-5171884Y-5824064D01*
X-4884161Y-5943243D01*
X-4578715Y-6004000D01*
X-4267285Y-6004000D01*
X-4117680Y-5974242D01*
X-3876562Y-6215360D01*
X-3848976Y-6248974D01*
X-3834200Y-6261100D01*
X-7126505Y-6261100D01*
X-8255000Y-5132605D01*
X-9383495Y-6261100D01*
X-12675800Y-6261100D01*
X-12661024Y-6248974D01*
X-12633433Y-6215355D01*
X-12392320Y-5974242D01*
X-12242715Y-6004000D01*
X-11931285Y-6004000D01*
X-11625839Y-5943243D01*
X-11338116Y-5824064D01*
X-11079171Y-5651043D01*
X-10858957Y-5430829D01*
X-10685936Y-5171884D01*
X-10617816Y-5007427D01*
X-10104610Y-5007427D01*
X-10058452Y-5367222D01*
X-9942988Y-5711099D01*
X-9823132Y-5935334D01*
X-9582635Y-6101030D01*
X-8434605Y-4953000D01*
X-8075395Y-4953000D01*
X-6927365Y-6101030D01*
X-6686868Y-5935334D01*
X-6525355Y-5610531D01*
X-6430312Y-5260460D01*
X-6405390Y-4898573D01*
X-6451548Y-4538778D01*
X-6567012Y-4194901D01*
X-6686868Y-3970666D01*
X-6927365Y-3804970D01*
X-8075395Y-4953000D01*
X-8434605Y-4953000D01*
X-9582635Y-3804970D01*
X-9823132Y-3970666D01*
X-9984645Y-4295469D01*
X-10079688Y-4645540D01*
X-10104610Y-5007427D01*
X-10617816Y-5007427D01*
X-10566757Y-4884161D01*
X-10506000Y-4578715D01*
X-10506000Y-4267285D01*
X-10535758Y-4117680D01*
X-10294639Y-3876561D01*
X-10261026Y-3848976D01*
X-10201549Y-3776502D01*
X-10150933Y-3714827D01*
X-10103115Y-3625365D01*
X-9403030Y-3625365D01*
X-8255000Y-4773395D01*
X-7106970Y-3625365D01*
X-7272666Y-3384868D01*
X-7597469Y-3223355D01*
X-7947540Y-3128312D01*
X-8309427Y-3103390D01*
X-8669222Y-3149548D01*
X-9013099Y-3265012D01*
X-9237334Y-3384868D01*
X-9403030Y-3625365D01*
X-10103115Y-3625365D01*
X-10069126Y-3561776D01*
X-10064850Y-3547679D01*
X-10018749Y-3395707D01*
X-10006001Y-3266274D01*
X-10006001Y-3266271D01*
X-10001739Y-3223001D01*
X-10006001Y-3179731D01*
X-10006001Y-2551919D01*
X-9357313Y-2551919D01*
X-9306991Y-2695004D01*
X-9144857Y-2761175D01*
X-8972929Y-2794443D01*
X-8797814Y-2793531D01*
X-8626241Y-2758474D01*
X-8473009Y-2695004D01*
X-8422687Y-2551919D01*
X-8890000Y-2084605D01*
X-9357313Y-2551919D01*
X-10006001Y-2551919D01*
X-10006001Y-2278502D01*
X-9769395Y-2041897D01*
X-9743474Y-2168759D01*
X-9680004Y-2321991D01*
X-9536919Y-2372313D01*
X-9069605Y-1905000D01*
X-9083748Y-1890858D01*
X-8904143Y-1711253D01*
X-8890000Y-1725395D01*
X-8660340Y-1495734D01*
X-8630688Y-1489836D01*
X-8468901Y-1422821D01*
X-8323296Y-1325531D01*
X-8255000Y-1257235D01*
X-8242235Y-1270000D01*
G36*
X24006248Y5221143D02*
G01*
X23992105Y5207000D01*
X24006248Y5192858D01*
X23826643Y5013253D01*
X23812500Y5027395D01*
X22664470Y3879365D01*
X22758930Y3742262D01*
X22699075Y3668822D01*
X22678704Y3638140D01*
X22657900Y3607734D01*
X22655203Y3602742D01*
X22585429Y3471410D01*
X22571405Y3437353D01*
X22556905Y3403490D01*
X22555229Y3398069D01*
X22512293Y3255685D01*
X22505145Y3219520D01*
X22497505Y3183520D01*
X22496913Y3177876D01*
X22485505Y3061130D01*
X22480524Y3010555D01*
X22480525Y19960D01*
X22480524Y-3010555D01*
X22481335Y-3018786D01*
X22483280Y-3067627D01*
X22486734Y-3092579D01*
X22488394Y-3117697D01*
X22489357Y-3123289D01*
X22515644Y-3269664D01*
X22525662Y-3305110D01*
X22535183Y-3340691D01*
X22537215Y-3345989D01*
X22591432Y-3484470D01*
X22608142Y-3517293D01*
X22624394Y-3550349D01*
X22627416Y-3555152D01*
X22707498Y-3680465D01*
X22730276Y-3709430D01*
X22752629Y-3738687D01*
X22756526Y-3742812D01*
X22757704Y-3744042D01*
X22664470Y-3879365D01*
X23812500Y-5027395D01*
X23826643Y-5013253D01*
X24006248Y-5192858D01*
X23992105Y-5207000D01*
X24006248Y-5221143D01*
X23826643Y-5400748D01*
X23812500Y-5386605D01*
X23798358Y-5400748D01*
X23618753Y-5221143D01*
X23632895Y-5207000D01*
X22484865Y-4058970D01*
X22474046Y-4066424D01*
X22453243Y-3961839D01*
X22334064Y-3674116D01*
X22161043Y-3415171D01*
X21940829Y-3194957D01*
X21681884Y-3021936D01*
X21394161Y-2902757D01*
X21088715Y-2842000D01*
X20777285Y-2842000D01*
X20471839Y-2902757D01*
X20428878Y-2920552D01*
X20835486Y-2312020D01*
X21203426Y-1423735D01*
X21391000Y-480737D01*
X21391000Y480737D01*
X21203426Y1423735D01*
X20835486Y2312020D01*
X20428878Y2920552D01*
X20471839Y2902757D01*
X20777285Y2842000D01*
X21088715Y2842000D01*
X21394161Y2902757D01*
X21681884Y3021936D01*
X21940829Y3194957D01*
X22161043Y3415171D01*
X22334064Y3674116D01*
X22453243Y3961839D01*
X22474046Y4066424D01*
X22484865Y4058970D01*
X23632895Y5207000D01*
X23618753Y5221143D01*
X23798358Y5400748D01*
X23812500Y5386605D01*
X23826643Y5400748D01*
X24006248Y5221143D01*
X24006248Y5221143D01*
G37*
X24006248Y5221143D02*
X23992105Y5207000D01*
X24006248Y5192858D01*
X23826643Y5013253D01*
X23812500Y5027395D01*
X22664470Y3879365D01*
X22758930Y3742262D01*
X22699075Y3668822D01*
X22678704Y3638140D01*
X22657900Y3607734D01*
X22655203Y3602742D01*
X22585429Y3471410D01*
X22571405Y3437353D01*
X22556905Y3403490D01*
X22555229Y3398069D01*
X22512293Y3255685D01*
X22505145Y3219520D01*
X22497505Y3183520D01*
X22496913Y3177876D01*
X22485505Y3061130D01*
X22480524Y3010555D01*
X22480525Y19960D01*
X22480524Y-3010555D01*
X22481335Y-3018786D01*
X22483280Y-3067627D01*
X22486734Y-3092579D01*
X22488394Y-3117697D01*
X22489357Y-3123289D01*
X22515644Y-3269664D01*
X22525662Y-3305110D01*
X22535183Y-3340691D01*
X22537215Y-3345989D01*
X22591432Y-3484470D01*
X22608142Y-3517293D01*
X22624394Y-3550349D01*
X22627416Y-3555152D01*
X22707498Y-3680465D01*
X22730276Y-3709430D01*
X22752629Y-3738687D01*
X22756526Y-3742812D01*
X22757704Y-3744042D01*
X22664470Y-3879365D01*
X23812500Y-5027395D01*
X23826643Y-5013253D01*
X24006248Y-5192858D01*
X23992105Y-5207000D01*
X24006248Y-5221143D01*
X23826643Y-5400748D01*
X23812500Y-5386605D01*
X23798358Y-5400748D01*
X23618753Y-5221143D01*
X23632895Y-5207000D01*
X22484865Y-4058970D01*
X22474046Y-4066424D01*
X22453243Y-3961839D01*
X22334064Y-3674116D01*
X22161043Y-3415171D01*
X21940829Y-3194957D01*
X21681884Y-3021936D01*
X21394161Y-2902757D01*
X21088715Y-2842000D01*
X20777285Y-2842000D01*
X20471839Y-2902757D01*
X20428878Y-2920552D01*
X20835486Y-2312020D01*
X21203426Y-1423735D01*
X21391000Y-480737D01*
X21391000Y480737D01*
X21203426Y1423735D01*
X20835486Y2312020D01*
X20428878Y2920552D01*
X20471839Y2902757D01*
X20777285Y2842000D01*
X21088715Y2842000D01*
X21394161Y2902757D01*
X21681884Y3021936D01*
X21940829Y3194957D01*
X22161043Y3415171D01*
X22334064Y3674116D01*
X22453243Y3961839D01*
X22474046Y4066424D01*
X22484865Y4058970D01*
X23632895Y5207000D01*
X23618753Y5221143D01*
X23798358Y5400748D01*
X23812500Y5386605D01*
X23826643Y5400748D01*
X24006248Y5221143D01*
G36*
X-23618753Y5221143D02*
G01*
X-23632895Y5207000D01*
X-22484865Y4058970D01*
X-22474046Y4066424D01*
X-22453243Y3961839D01*
X-22334064Y3674116D01*
X-22161043Y3415171D01*
X-21940829Y3194957D01*
X-21681884Y3021936D01*
X-21394161Y2902757D01*
X-21088715Y2842000D01*
X-20777285Y2842000D01*
X-20471839Y2902757D01*
X-20428878Y2920552D01*
X-20835486Y2312020D01*
X-21203426Y1423735D01*
X-21391000Y480737D01*
X-21391000Y-480737D01*
X-21203426Y-1423735D01*
X-20835486Y-2312020D01*
X-20428878Y-2920552D01*
X-20471839Y-2902757D01*
X-20777285Y-2842000D01*
X-21088715Y-2842000D01*
X-21394161Y-2902757D01*
X-21681884Y-3021936D01*
X-21940829Y-3194957D01*
X-22161043Y-3415171D01*
X-22334064Y-3674116D01*
X-22453243Y-3961839D01*
X-22474046Y-4066424D01*
X-22484865Y-4058970D01*
X-23632895Y-5207000D01*
X-23618753Y-5221143D01*
X-23798358Y-5400748D01*
X-23812500Y-5386605D01*
X-23826643Y-5400748D01*
X-24006248Y-5221143D01*
X-23992105Y-5207000D01*
X-24006248Y-5192858D01*
X-23826643Y-5013253D01*
X-23812500Y-5027395D01*
X-22664470Y-3879365D01*
X-22758931Y-3742262D01*
X-22699075Y-3668822D01*
X-22678677Y-3638098D01*
X-22657901Y-3607734D01*
X-22655203Y-3602742D01*
X-22585429Y-3471410D01*
X-22571396Y-3437330D01*
X-22556905Y-3403489D01*
X-22555229Y-3398069D01*
X-22512293Y-3255684D01*
X-22505146Y-3219527D01*
X-22497505Y-3183520D01*
X-22496913Y-3177876D01*
X-22485473Y-3060802D01*
X-22480524Y-3010556D01*
X-22480524Y3010556D01*
X-22481335Y3018787D01*
X-22483280Y3067627D01*
X-22486733Y3092570D01*
X-22488393Y3117697D01*
X-22489357Y3123289D01*
X-22515644Y3269664D01*
X-22525662Y3305110D01*
X-22535183Y3340691D01*
X-22537215Y3345989D01*
X-22591432Y3484470D01*
X-22608151Y3517311D01*
X-22624395Y3550349D01*
X-22627416Y3555152D01*
X-22707498Y3680465D01*
X-22730281Y3709436D01*
X-22752630Y3738688D01*
X-22756527Y3742812D01*
X-22757705Y3744041D01*
X-22664470Y3879365D01*
X-23812500Y5027395D01*
X-23826643Y5013253D01*
X-24006248Y5192858D01*
X-23992105Y5207000D01*
X-24006248Y5221143D01*
X-23826643Y5400748D01*
X-23812500Y5386605D01*
X-23798358Y5400748D01*
X-23618753Y5221143D01*
X-23618753Y5221143D01*
G37*
X-23618753Y5221143D02*
X-23632895Y5207000D01*
X-22484865Y4058970D01*
X-22474046Y4066424D01*
X-22453243Y3961839D01*
X-22334064Y3674116D01*
X-22161043Y3415171D01*
X-21940829Y3194957D01*
X-21681884Y3021936D01*
X-21394161Y2902757D01*
X-21088715Y2842000D01*
X-20777285Y2842000D01*
X-20471839Y2902757D01*
X-20428878Y2920552D01*
X-20835486Y2312020D01*
X-21203426Y1423735D01*
X-21391000Y480737D01*
X-21391000Y-480737D01*
X-21203426Y-1423735D01*
X-20835486Y-2312020D01*
X-20428878Y-2920552D01*
X-20471839Y-2902757D01*
X-20777285Y-2842000D01*
X-21088715Y-2842000D01*
X-21394161Y-2902757D01*
X-21681884Y-3021936D01*
X-21940829Y-3194957D01*
X-22161043Y-3415171D01*
X-22334064Y-3674116D01*
X-22453243Y-3961839D01*
X-22474046Y-4066424D01*
X-22484865Y-4058970D01*
X-23632895Y-5207000D01*
X-23618753Y-5221143D01*
X-23798358Y-5400748D01*
X-23812500Y-5386605D01*
X-23826643Y-5400748D01*
X-24006248Y-5221143D01*
X-23992105Y-5207000D01*
X-24006248Y-5192858D01*
X-23826643Y-5013253D01*
X-23812500Y-5027395D01*
X-22664470Y-3879365D01*
X-22758931Y-3742262D01*
X-22699075Y-3668822D01*
X-22678677Y-3638098D01*
X-22657901Y-3607734D01*
X-22655203Y-3602742D01*
X-22585429Y-3471410D01*
X-22571396Y-3437330D01*
X-22556905Y-3403489D01*
X-22555229Y-3398069D01*
X-22512293Y-3255684D01*
X-22505146Y-3219527D01*
X-22497505Y-3183520D01*
X-22496913Y-3177876D01*
X-22485473Y-3060802D01*
X-22480524Y-3010556D01*
X-22480524Y3010556D01*
X-22481335Y3018787D01*
X-22483280Y3067627D01*
X-22486733Y3092570D01*
X-22488393Y3117697D01*
X-22489357Y3123289D01*
X-22515644Y3269664D01*
X-22525662Y3305110D01*
X-22535183Y3340691D01*
X-22537215Y3345989D01*
X-22591432Y3484470D01*
X-22608151Y3517311D01*
X-22624395Y3550349D01*
X-22627416Y3555152D01*
X-22707498Y3680465D01*
X-22730281Y3709436D01*
X-22752630Y3738688D01*
X-22756527Y3742812D01*
X-22757705Y3744041D01*
X-22664470Y3879365D01*
X-23812500Y5027395D01*
X-23826643Y5013253D01*
X-24006248Y5192858D01*
X-23992105Y5207000D01*
X-24006248Y5221143D01*
X-23826643Y5400748D01*
X-23812500Y5386605D01*
X-23798358Y5400748D01*
X-23618753Y5221143D01*
G36*
X-8255000Y5132605D02*
G01*
X-7126505Y6261100D01*
X-3834200Y6261100D01*
X-3848976Y6248974D01*
X-3876562Y6215360D01*
X-4117680Y5974242D01*
X-4267285Y6004000D01*
X-4578715Y6004000D01*
X-4884161Y5943243D01*
X-5171884Y5824064D01*
X-5430829Y5651043D01*
X-5651043Y5430829D01*
X-5824064Y5171884D01*
X-5943243Y4884161D01*
X-6004000Y4578715D01*
X-6004000Y4267285D01*
X-5943243Y3961839D01*
X-5824064Y3674116D01*
X-5651043Y3415171D01*
X-5430829Y3194957D01*
X-5171884Y3021936D01*
X-4884161Y2902757D01*
X-4578715Y2842000D01*
X-4267285Y2842000D01*
X-3961839Y2902757D01*
X-3918878Y2920552D01*
X-4325486Y2312020D01*
X-4693426Y1423735D01*
X-4881000Y480737D01*
X-4881000Y-480737D01*
X-4693426Y-1423735D01*
X-4325486Y-2312020D01*
X-3918878Y-2920552D01*
X-3961839Y-2902757D01*
X-4267285Y-2842000D01*
X-4578715Y-2842000D01*
X-4728320Y-2871758D01*
X-4741999Y-2858080D01*
X-4741999Y-1956851D01*
X-4737737Y-1913581D01*
X-4747662Y-1812814D01*
X-4754747Y-1740875D01*
X-4805124Y-1574806D01*
X-4851518Y-1488009D01*
X-4886931Y-1421755D01*
X-4969440Y-1321218D01*
X-4997024Y-1287606D01*
X-5030638Y-1260020D01*
X-6248014Y-42644D01*
X-6275605Y-9025D01*
X-6409755Y101068D01*
X-6562805Y182875D01*
X-6728874Y233252D01*
X-6820428Y242269D01*
X-6765164Y375688D01*
X-6731000Y547441D01*
X-6731000Y722559D01*
X-6765164Y894312D01*
X-6832179Y1056099D01*
X-6929469Y1201704D01*
X-6997765Y1270000D01*
X-6929469Y1338296D01*
X-6832179Y1483901D01*
X-6765164Y1645688D01*
X-6731000Y1817441D01*
X-6731000Y1992559D01*
X-6765164Y2164312D01*
X-6832179Y2326099D01*
X-6929469Y2471704D01*
X-7053296Y2595531D01*
X-7198901Y2692821D01*
X-7360688Y2759836D01*
X-7532441Y2794000D01*
X-7707559Y2794000D01*
X-7879312Y2759836D01*
X-8041099Y2692821D01*
X-8186704Y2595531D01*
X-8255000Y2527235D01*
X-8323296Y2595531D01*
X-8468901Y2692821D01*
X-8630688Y2759836D01*
X-8802441Y2794000D01*
X-8977559Y2794000D01*
X-9149312Y2759836D01*
X-9311099Y2692821D01*
X-9456704Y2595531D01*
X-9580531Y2471704D01*
X-9677821Y2326099D01*
X-9744836Y2164312D01*
X-9769221Y2041722D01*
X-10006001Y2278502D01*
X-10006001Y3179731D01*
X-10001739Y3223001D01*
X-10006406Y3270384D01*
X-10018749Y3395707D01*
X-10069126Y3561776D01*
X-10071992Y3567138D01*
X-10103114Y3625365D01*
X-9403030Y3625365D01*
X-9237334Y3384868D01*
X-8912531Y3223355D01*
X-8562460Y3128312D01*
X-8200573Y3103390D01*
X-7840778Y3149548D01*
X-7496901Y3265012D01*
X-7272666Y3384868D01*
X-7106970Y3625365D01*
X-8255000Y4773395D01*
X-9403030Y3625365D01*
X-10103114Y3625365D01*
X-10150933Y3714827D01*
X-10213709Y3791320D01*
X-10261026Y3848976D01*
X-10294639Y3876561D01*
X-10535758Y4117680D01*
X-10506000Y4267285D01*
X-10506000Y4578715D01*
X-10566757Y4884161D01*
X-10572726Y4898573D01*
X-10104610Y4898573D01*
X-10058452Y4538778D01*
X-9942988Y4194901D01*
X-9823132Y3970666D01*
X-9582635Y3804970D01*
X-8434605Y4953000D01*
X-8075395Y4953000D01*
X-6927365Y3804970D01*
X-6686868Y3970666D01*
X-6525355Y4295469D01*
X-6430312Y4645540D01*
X-6405390Y5007427D01*
X-6451548Y5367222D01*
X-6567012Y5711099D01*
X-6686868Y5935334D01*
X-6927365Y6101030D01*
X-8075395Y4953000D01*
X-8434605Y4953000D01*
X-9582635Y6101030D01*
X-9823132Y5935334D01*
X-9984645Y5610531D01*
X-10079688Y5260460D01*
X-10104610Y4898573D01*
X-10572726Y4898573D01*
X-10685936Y5171884D01*
X-10858957Y5430829D01*
X-11079171Y5651043D01*
X-11338116Y5824064D01*
X-11625839Y5943243D01*
X-11931285Y6004000D01*
X-12242715Y6004000D01*
X-12392320Y5974242D01*
X-12633433Y6215355D01*
X-12661024Y6248974D01*
X-12675800Y6261100D01*
X-9383495Y6261100D01*
X-8255000Y5132605D01*
X-8255000Y5132605D01*
G37*
X-8255000Y5132605D02*
X-7126505Y6261100D01*
X-3834200Y6261100D01*
X-3848976Y6248974D01*
X-3876562Y6215360D01*
X-4117680Y5974242D01*
X-4267285Y6004000D01*
X-4578715Y6004000D01*
X-4884161Y5943243D01*
X-5171884Y5824064D01*
X-5430829Y5651043D01*
X-5651043Y5430829D01*
X-5824064Y5171884D01*
X-5943243Y4884161D01*
X-6004000Y4578715D01*
X-6004000Y4267285D01*
X-5943243Y3961839D01*
X-5824064Y3674116D01*
X-5651043Y3415171D01*
X-5430829Y3194957D01*
X-5171884Y3021936D01*
X-4884161Y2902757D01*
X-4578715Y2842000D01*
X-4267285Y2842000D01*
X-3961839Y2902757D01*
X-3918878Y2920552D01*
X-4325486Y2312020D01*
X-4693426Y1423735D01*
X-4881000Y480737D01*
X-4881000Y-480737D01*
X-4693426Y-1423735D01*
X-4325486Y-2312020D01*
X-3918878Y-2920552D01*
X-3961839Y-2902757D01*
X-4267285Y-2842000D01*
X-4578715Y-2842000D01*
X-4728320Y-2871758D01*
X-4741999Y-2858080D01*
X-4741999Y-1956851D01*
X-4737737Y-1913581D01*
X-4747662Y-1812814D01*
X-4754747Y-1740875D01*
X-4805124Y-1574806D01*
X-4851518Y-1488009D01*
X-4886931Y-1421755D01*
X-4969440Y-1321218D01*
X-4997024Y-1287606D01*
X-5030638Y-1260020D01*
X-6248014Y-42644D01*
X-6275605Y-9025D01*
X-6409755Y101068D01*
X-6562805Y182875D01*
X-6728874Y233252D01*
X-6820428Y242269D01*
X-6765164Y375688D01*
X-6731000Y547441D01*
X-6731000Y722559D01*
X-6765164Y894312D01*
X-6832179Y1056099D01*
X-6929469Y1201704D01*
X-6997765Y1270000D01*
X-6929469Y1338296D01*
X-6832179Y1483901D01*
X-6765164Y1645688D01*
X-6731000Y1817441D01*
X-6731000Y1992559D01*
X-6765164Y2164312D01*
X-6832179Y2326099D01*
X-6929469Y2471704D01*
X-7053296Y2595531D01*
X-7198901Y2692821D01*
X-7360688Y2759836D01*
X-7532441Y2794000D01*
X-7707559Y2794000D01*
X-7879312Y2759836D01*
X-8041099Y2692821D01*
X-8186704Y2595531D01*
X-8255000Y2527235D01*
X-8323296Y2595531D01*
X-8468901Y2692821D01*
X-8630688Y2759836D01*
X-8802441Y2794000D01*
X-8977559Y2794000D01*
X-9149312Y2759836D01*
X-9311099Y2692821D01*
X-9456704Y2595531D01*
X-9580531Y2471704D01*
X-9677821Y2326099D01*
X-9744836Y2164312D01*
X-9769221Y2041722D01*
X-10006001Y2278502D01*
X-10006001Y3179731D01*
X-10001739Y3223001D01*
X-10006406Y3270384D01*
X-10018749Y3395707D01*
X-10069126Y3561776D01*
X-10071992Y3567138D01*
X-10103114Y3625365D01*
X-9403030Y3625365D01*
X-9237334Y3384868D01*
X-8912531Y3223355D01*
X-8562460Y3128312D01*
X-8200573Y3103390D01*
X-7840778Y3149548D01*
X-7496901Y3265012D01*
X-7272666Y3384868D01*
X-7106970Y3625365D01*
X-8255000Y4773395D01*
X-9403030Y3625365D01*
X-10103114Y3625365D01*
X-10150933Y3714827D01*
X-10213709Y3791320D01*
X-10261026Y3848976D01*
X-10294639Y3876561D01*
X-10535758Y4117680D01*
X-10506000Y4267285D01*
X-10506000Y4578715D01*
X-10566757Y4884161D01*
X-10572726Y4898573D01*
X-10104610Y4898573D01*
X-10058452Y4538778D01*
X-9942988Y4194901D01*
X-9823132Y3970666D01*
X-9582635Y3804970D01*
X-8434605Y4953000D01*
X-8075395Y4953000D01*
X-6927365Y3804970D01*
X-6686868Y3970666D01*
X-6525355Y4295469D01*
X-6430312Y4645540D01*
X-6405390Y5007427D01*
X-6451548Y5367222D01*
X-6567012Y5711099D01*
X-6686868Y5935334D01*
X-6927365Y6101030D01*
X-8075395Y4953000D01*
X-8434605Y4953000D01*
X-9582635Y6101030D01*
X-9823132Y5935334D01*
X-9984645Y5610531D01*
X-10079688Y5260460D01*
X-10104610Y4898573D01*
X-10572726Y4898573D01*
X-10685936Y5171884D01*
X-10858957Y5430829D01*
X-11079171Y5651043D01*
X-11338116Y5824064D01*
X-11625839Y5943243D01*
X-11931285Y6004000D01*
X-12242715Y6004000D01*
X-12392320Y5974242D01*
X-12633433Y6215355D01*
X-12661024Y6248974D01*
X-12675800Y6261100D01*
X-9383495Y6261100D01*
X-8255000Y5132605D01*
G36*
X8255000Y5132605D02*
G01*
X9383495Y6261100D01*
X12675800Y6261100D01*
X12661024Y6248974D01*
X12633438Y6215360D01*
X12392320Y5974242D01*
X12242715Y6004000D01*
X11931285Y6004000D01*
X11625839Y5943243D01*
X11338116Y5824064D01*
X11079171Y5651043D01*
X10858957Y5430829D01*
X10685936Y5171884D01*
X10566757Y4884161D01*
X10506000Y4578715D01*
X10506000Y4267285D01*
X10535758Y4117680D01*
X10294645Y3876567D01*
X10261026Y3848976D01*
X10194553Y3767977D01*
X10150933Y3714826D01*
X10088093Y3597260D01*
X10069126Y3561775D01*
X10018749Y3395706D01*
X10010117Y3308061D01*
X9863320Y3337260D01*
X9709476Y3337260D01*
X9558589Y3307247D01*
X9416456Y3248373D01*
X9409913Y3244001D01*
X8950524Y3244001D01*
X9013099Y3265012D01*
X9237334Y3384868D01*
X9403030Y3625365D01*
X8255000Y4773395D01*
X7106970Y3625365D01*
X7272666Y3384868D01*
X7597469Y3223355D01*
X7947540Y3128312D01*
X8116782Y3116657D01*
X8093474Y3097528D01*
X8077629Y3078221D01*
X7779165Y2779757D01*
X7707559Y2794000D01*
X7532441Y2794000D01*
X7360688Y2759836D01*
X7198901Y2692821D01*
X7053296Y2595531D01*
X6929469Y2471704D01*
X6832179Y2326099D01*
X6765164Y2164312D01*
X6740779Y2041722D01*
X6503999Y2278502D01*
X6503999Y3179731D01*
X6508261Y3223001D01*
X6503594Y3270384D01*
X6491251Y3395707D01*
X6440874Y3561776D01*
X6438008Y3567138D01*
X6359067Y3714827D01*
X6296291Y3791320D01*
X6248974Y3848976D01*
X6215361Y3876561D01*
X5974242Y4117680D01*
X6004000Y4267285D01*
X6004000Y4578715D01*
X5943243Y4884161D01*
X5937274Y4898573D01*
X6405390Y4898573D01*
X6451548Y4538778D01*
X6567012Y4194901D01*
X6686868Y3970666D01*
X6927365Y3804970D01*
X8075395Y4953000D01*
X8434605Y4953000D01*
X9582635Y3804970D01*
X9823132Y3970666D01*
X9984645Y4295469D01*
X10079688Y4645540D01*
X10104610Y5007427D01*
X10058452Y5367222D01*
X9942988Y5711099D01*
X9823132Y5935334D01*
X9582635Y6101030D01*
X8434605Y4953000D01*
X8075395Y4953000D01*
X6927365Y6101030D01*
X6686868Y5935334D01*
X6525355Y5610531D01*
X6430312Y5260460D01*
X6405390Y4898573D01*
X5937274Y4898573D01*
X5824064Y5171884D01*
X5651043Y5430829D01*
X5430829Y5651043D01*
X5171884Y5824064D01*
X4884161Y5943243D01*
X4578715Y6004000D01*
X4267285Y6004000D01*
X4117680Y5974242D01*
X3876567Y6215355D01*
X3848976Y6248974D01*
X3834200Y6261100D01*
X7126505Y6261100D01*
X8255000Y5132605D01*
X8255000Y5132605D01*
G37*
X8255000Y5132605D02*
X9383495Y6261100D01*
X12675800Y6261100D01*
X12661024Y6248974D01*
X12633438Y6215360D01*
X12392320Y5974242D01*
X12242715Y6004000D01*
X11931285Y6004000D01*
X11625839Y5943243D01*
X11338116Y5824064D01*
X11079171Y5651043D01*
X10858957Y5430829D01*
X10685936Y5171884D01*
X10566757Y4884161D01*
X10506000Y4578715D01*
X10506000Y4267285D01*
X10535758Y4117680D01*
X10294645Y3876567D01*
X10261026Y3848976D01*
X10194553Y3767977D01*
X10150933Y3714826D01*
X10088093Y3597260D01*
X10069126Y3561775D01*
X10018749Y3395706D01*
X10010117Y3308061D01*
X9863320Y3337260D01*
X9709476Y3337260D01*
X9558589Y3307247D01*
X9416456Y3248373D01*
X9409913Y3244001D01*
X8950524Y3244001D01*
X9013099Y3265012D01*
X9237334Y3384868D01*
X9403030Y3625365D01*
X8255000Y4773395D01*
X7106970Y3625365D01*
X7272666Y3384868D01*
X7597469Y3223355D01*
X7947540Y3128312D01*
X8116782Y3116657D01*
X8093474Y3097528D01*
X8077629Y3078221D01*
X7779165Y2779757D01*
X7707559Y2794000D01*
X7532441Y2794000D01*
X7360688Y2759836D01*
X7198901Y2692821D01*
X7053296Y2595531D01*
X6929469Y2471704D01*
X6832179Y2326099D01*
X6765164Y2164312D01*
X6740779Y2041722D01*
X6503999Y2278502D01*
X6503999Y3179731D01*
X6508261Y3223001D01*
X6503594Y3270384D01*
X6491251Y3395707D01*
X6440874Y3561776D01*
X6438008Y3567138D01*
X6359067Y3714827D01*
X6296291Y3791320D01*
X6248974Y3848976D01*
X6215361Y3876561D01*
X5974242Y4117680D01*
X6004000Y4267285D01*
X6004000Y4578715D01*
X5943243Y4884161D01*
X5937274Y4898573D01*
X6405390Y4898573D01*
X6451548Y4538778D01*
X6567012Y4194901D01*
X6686868Y3970666D01*
X6927365Y3804970D01*
X8075395Y4953000D01*
X8434605Y4953000D01*
X9582635Y3804970D01*
X9823132Y3970666D01*
X9984645Y4295469D01*
X10079688Y4645540D01*
X10104610Y5007427D01*
X10058452Y5367222D01*
X9942988Y5711099D01*
X9823132Y5935334D01*
X9582635Y6101030D01*
X8434605Y4953000D01*
X8075395Y4953000D01*
X6927365Y6101030D01*
X6686868Y5935334D01*
X6525355Y5610531D01*
X6430312Y5260460D01*
X6405390Y4898573D01*
X5937274Y4898573D01*
X5824064Y5171884D01*
X5651043Y5430829D01*
X5430829Y5651043D01*
X5171884Y5824064D01*
X4884161Y5943243D01*
X4578715Y6004000D01*
X4267285Y6004000D01*
X4117680Y5974242D01*
X3876567Y6215355D01*
X3848976Y6248974D01*
X3834200Y6261100D01*
X7126505Y6261100D01*
X8255000Y5132605D01*
M02*
