G04 #@! TF.GenerationSoftware,KiCad,Pcbnew,(5.1.4)-1*
G04 #@! TF.CreationDate,2019-10-25T22:43:12-07:00*
G04 #@! TF.ProjectId,SkateLightLEDBoard1.0,536b6174-654c-4696-9768-744c4544426f,rev?*
G04 #@! TF.SameCoordinates,Original*
G04 #@! TF.FileFunction,Copper,L1,Top*
G04 #@! TF.FilePolarity,Positive*
%FSLAX46Y46*%
G04 Gerber Fmt 4.6, Leading zero omitted, Abs format (unit mm)*
G04 Created by KiCad (PCBNEW (5.1.4)-1) date 2019-10-25 22:43:12*
%MOMM*%
%LPD*%
G04 APERTURE LIST*
%ADD10C,1.016000*%
%ADD11C,2.921000*%
%ADD12C,2.400000*%
%ADD13C,0.100000*%
%ADD14C,0.975000*%
%ADD15C,0.800000*%
%ADD16C,0.250000*%
%ADD17C,0.200000*%
%ADD18C,0.500000*%
%ADD19C,0.254000*%
G04 APERTURE END LIST*
D10*
X-8890000Y-1905000D03*
X-7620000Y-1905000D03*
X-8890000Y-635000D03*
X-7620000Y-635000D03*
X-8890000Y635000D03*
X-7620000Y635000D03*
X-8890000Y1905000D03*
X-7620000Y1905000D03*
D11*
X8255000Y-4953000D03*
X8255000Y4953000D03*
X-8255000Y-4953000D03*
X-8255000Y4953000D03*
D10*
X7620000Y-1905000D03*
X8890000Y-1905000D03*
X7620000Y-635000D03*
X8890000Y-635000D03*
X7620000Y635000D03*
X8890000Y635000D03*
X7620000Y1905000D03*
X8890000Y1905000D03*
D12*
X4423000Y-4423000D03*
X-4423000Y-4423000D03*
X-4423000Y4423000D03*
X4423000Y4423000D03*
D13*
G36*
X11275142Y1423826D02*
G01*
X11298803Y1420316D01*
X11322007Y1414504D01*
X11344529Y1406446D01*
X11366153Y1396218D01*
X11386670Y1383921D01*
X11405883Y1369671D01*
X11423607Y1353607D01*
X11439671Y1335883D01*
X11453921Y1316670D01*
X11466218Y1296153D01*
X11476446Y1274529D01*
X11484504Y1252007D01*
X11490316Y1228803D01*
X11493826Y1205142D01*
X11495000Y1181250D01*
X11495000Y693750D01*
X11493826Y669858D01*
X11490316Y646197D01*
X11484504Y622993D01*
X11476446Y600471D01*
X11466218Y578847D01*
X11453921Y558330D01*
X11439671Y539117D01*
X11423607Y521393D01*
X11405883Y505329D01*
X11386670Y491079D01*
X11366153Y478782D01*
X11344529Y468554D01*
X11322007Y460496D01*
X11298803Y454684D01*
X11275142Y451174D01*
X11251250Y450000D01*
X10338750Y450000D01*
X10314858Y451174D01*
X10291197Y454684D01*
X10267993Y460496D01*
X10245471Y468554D01*
X10223847Y478782D01*
X10203330Y491079D01*
X10184117Y505329D01*
X10166393Y521393D01*
X10150329Y539117D01*
X10136079Y558330D01*
X10123782Y578847D01*
X10113554Y600471D01*
X10105496Y622993D01*
X10099684Y646197D01*
X10096174Y669858D01*
X10095000Y693750D01*
X10095000Y1181250D01*
X10096174Y1205142D01*
X10099684Y1228803D01*
X10105496Y1252007D01*
X10113554Y1274529D01*
X10123782Y1296153D01*
X10136079Y1316670D01*
X10150329Y1335883D01*
X10166393Y1353607D01*
X10184117Y1369671D01*
X10203330Y1383921D01*
X10223847Y1396218D01*
X10245471Y1406446D01*
X10267993Y1414504D01*
X10291197Y1420316D01*
X10314858Y1423826D01*
X10338750Y1425000D01*
X11251250Y1425000D01*
X11275142Y1423826D01*
X11275142Y1423826D01*
G37*
D14*
X10795000Y937500D03*
D13*
G36*
X11275142Y-451174D02*
G01*
X11298803Y-454684D01*
X11322007Y-460496D01*
X11344529Y-468554D01*
X11366153Y-478782D01*
X11386670Y-491079D01*
X11405883Y-505329D01*
X11423607Y-521393D01*
X11439671Y-539117D01*
X11453921Y-558330D01*
X11466218Y-578847D01*
X11476446Y-600471D01*
X11484504Y-622993D01*
X11490316Y-646197D01*
X11493826Y-669858D01*
X11495000Y-693750D01*
X11495000Y-1181250D01*
X11493826Y-1205142D01*
X11490316Y-1228803D01*
X11484504Y-1252007D01*
X11476446Y-1274529D01*
X11466218Y-1296153D01*
X11453921Y-1316670D01*
X11439671Y-1335883D01*
X11423607Y-1353607D01*
X11405883Y-1369671D01*
X11386670Y-1383921D01*
X11366153Y-1396218D01*
X11344529Y-1406446D01*
X11322007Y-1414504D01*
X11298803Y-1420316D01*
X11275142Y-1423826D01*
X11251250Y-1425000D01*
X10338750Y-1425000D01*
X10314858Y-1423826D01*
X10291197Y-1420316D01*
X10267993Y-1414504D01*
X10245471Y-1406446D01*
X10223847Y-1396218D01*
X10203330Y-1383921D01*
X10184117Y-1369671D01*
X10166393Y-1353607D01*
X10150329Y-1335883D01*
X10136079Y-1316670D01*
X10123782Y-1296153D01*
X10113554Y-1274529D01*
X10105496Y-1252007D01*
X10099684Y-1228803D01*
X10096174Y-1205142D01*
X10095000Y-1181250D01*
X10095000Y-693750D01*
X10096174Y-669858D01*
X10099684Y-646197D01*
X10105496Y-622993D01*
X10113554Y-600471D01*
X10123782Y-578847D01*
X10136079Y-558330D01*
X10150329Y-539117D01*
X10166393Y-521393D01*
X10184117Y-505329D01*
X10203330Y-491079D01*
X10223847Y-478782D01*
X10245471Y-468554D01*
X10267993Y-460496D01*
X10291197Y-454684D01*
X10314858Y-451174D01*
X10338750Y-450000D01*
X11251250Y-450000D01*
X11275142Y-451174D01*
X11275142Y-451174D01*
G37*
D14*
X10795000Y-937500D03*
D13*
G36*
X-10314858Y-451174D02*
G01*
X-10291197Y-454684D01*
X-10267993Y-460496D01*
X-10245471Y-468554D01*
X-10223847Y-478782D01*
X-10203330Y-491079D01*
X-10184117Y-505329D01*
X-10166393Y-521393D01*
X-10150329Y-539117D01*
X-10136079Y-558330D01*
X-10123782Y-578847D01*
X-10113554Y-600471D01*
X-10105496Y-622993D01*
X-10099684Y-646197D01*
X-10096174Y-669858D01*
X-10095000Y-693750D01*
X-10095000Y-1181250D01*
X-10096174Y-1205142D01*
X-10099684Y-1228803D01*
X-10105496Y-1252007D01*
X-10113554Y-1274529D01*
X-10123782Y-1296153D01*
X-10136079Y-1316670D01*
X-10150329Y-1335883D01*
X-10166393Y-1353607D01*
X-10184117Y-1369671D01*
X-10203330Y-1383921D01*
X-10223847Y-1396218D01*
X-10245471Y-1406446D01*
X-10267993Y-1414504D01*
X-10291197Y-1420316D01*
X-10314858Y-1423826D01*
X-10338750Y-1425000D01*
X-11251250Y-1425000D01*
X-11275142Y-1423826D01*
X-11298803Y-1420316D01*
X-11322007Y-1414504D01*
X-11344529Y-1406446D01*
X-11366153Y-1396218D01*
X-11386670Y-1383921D01*
X-11405883Y-1369671D01*
X-11423607Y-1353607D01*
X-11439671Y-1335883D01*
X-11453921Y-1316670D01*
X-11466218Y-1296153D01*
X-11476446Y-1274529D01*
X-11484504Y-1252007D01*
X-11490316Y-1228803D01*
X-11493826Y-1205142D01*
X-11495000Y-1181250D01*
X-11495000Y-693750D01*
X-11493826Y-669858D01*
X-11490316Y-646197D01*
X-11484504Y-622993D01*
X-11476446Y-600471D01*
X-11466218Y-578847D01*
X-11453921Y-558330D01*
X-11439671Y-539117D01*
X-11423607Y-521393D01*
X-11405883Y-505329D01*
X-11386670Y-491079D01*
X-11366153Y-478782D01*
X-11344529Y-468554D01*
X-11322007Y-460496D01*
X-11298803Y-454684D01*
X-11275142Y-451174D01*
X-11251250Y-450000D01*
X-10338750Y-450000D01*
X-10314858Y-451174D01*
X-10314858Y-451174D01*
G37*
D14*
X-10795000Y-937500D03*
D13*
G36*
X-10314858Y1423826D02*
G01*
X-10291197Y1420316D01*
X-10267993Y1414504D01*
X-10245471Y1406446D01*
X-10223847Y1396218D01*
X-10203330Y1383921D01*
X-10184117Y1369671D01*
X-10166393Y1353607D01*
X-10150329Y1335883D01*
X-10136079Y1316670D01*
X-10123782Y1296153D01*
X-10113554Y1274529D01*
X-10105496Y1252007D01*
X-10099684Y1228803D01*
X-10096174Y1205142D01*
X-10095000Y1181250D01*
X-10095000Y693750D01*
X-10096174Y669858D01*
X-10099684Y646197D01*
X-10105496Y622993D01*
X-10113554Y600471D01*
X-10123782Y578847D01*
X-10136079Y558330D01*
X-10150329Y539117D01*
X-10166393Y521393D01*
X-10184117Y505329D01*
X-10203330Y491079D01*
X-10223847Y478782D01*
X-10245471Y468554D01*
X-10267993Y460496D01*
X-10291197Y454684D01*
X-10314858Y451174D01*
X-10338750Y450000D01*
X-11251250Y450000D01*
X-11275142Y451174D01*
X-11298803Y454684D01*
X-11322007Y460496D01*
X-11344529Y468554D01*
X-11366153Y478782D01*
X-11386670Y491079D01*
X-11405883Y505329D01*
X-11423607Y521393D01*
X-11439671Y539117D01*
X-11453921Y558330D01*
X-11466218Y578847D01*
X-11476446Y600471D01*
X-11484504Y622993D01*
X-11490316Y646197D01*
X-11493826Y669858D01*
X-11495000Y693750D01*
X-11495000Y1181250D01*
X-11493826Y1205142D01*
X-11490316Y1228803D01*
X-11484504Y1252007D01*
X-11476446Y1274529D01*
X-11466218Y1296153D01*
X-11453921Y1316670D01*
X-11439671Y1335883D01*
X-11423607Y1353607D01*
X-11405883Y1369671D01*
X-11386670Y1383921D01*
X-11366153Y1396218D01*
X-11344529Y1406446D01*
X-11322007Y1414504D01*
X-11298803Y1420316D01*
X-11275142Y1423826D01*
X-11251250Y1425000D01*
X-10338750Y1425000D01*
X-10314858Y1423826D01*
X-10314858Y1423826D01*
G37*
D14*
X-10795000Y937500D03*
D11*
X23812500Y5207000D03*
X23812500Y-5207000D03*
X-23812500Y5207000D03*
X-23812500Y-5207000D03*
D13*
G36*
X6195142Y-451174D02*
G01*
X6218803Y-454684D01*
X6242007Y-460496D01*
X6264529Y-468554D01*
X6286153Y-478782D01*
X6306670Y-491079D01*
X6325883Y-505329D01*
X6343607Y-521393D01*
X6359671Y-539117D01*
X6373921Y-558330D01*
X6386218Y-578847D01*
X6396446Y-600471D01*
X6404504Y-622993D01*
X6410316Y-646197D01*
X6413826Y-669858D01*
X6415000Y-693750D01*
X6415000Y-1181250D01*
X6413826Y-1205142D01*
X6410316Y-1228803D01*
X6404504Y-1252007D01*
X6396446Y-1274529D01*
X6386218Y-1296153D01*
X6373921Y-1316670D01*
X6359671Y-1335883D01*
X6343607Y-1353607D01*
X6325883Y-1369671D01*
X6306670Y-1383921D01*
X6286153Y-1396218D01*
X6264529Y-1406446D01*
X6242007Y-1414504D01*
X6218803Y-1420316D01*
X6195142Y-1423826D01*
X6171250Y-1425000D01*
X5258750Y-1425000D01*
X5234858Y-1423826D01*
X5211197Y-1420316D01*
X5187993Y-1414504D01*
X5165471Y-1406446D01*
X5143847Y-1396218D01*
X5123330Y-1383921D01*
X5104117Y-1369671D01*
X5086393Y-1353607D01*
X5070329Y-1335883D01*
X5056079Y-1316670D01*
X5043782Y-1296153D01*
X5033554Y-1274529D01*
X5025496Y-1252007D01*
X5019684Y-1228803D01*
X5016174Y-1205142D01*
X5015000Y-1181250D01*
X5015000Y-693750D01*
X5016174Y-669858D01*
X5019684Y-646197D01*
X5025496Y-622993D01*
X5033554Y-600471D01*
X5043782Y-578847D01*
X5056079Y-558330D01*
X5070329Y-539117D01*
X5086393Y-521393D01*
X5104117Y-505329D01*
X5123330Y-491079D01*
X5143847Y-478782D01*
X5165471Y-468554D01*
X5187993Y-460496D01*
X5211197Y-454684D01*
X5234858Y-451174D01*
X5258750Y-450000D01*
X6171250Y-450000D01*
X6195142Y-451174D01*
X6195142Y-451174D01*
G37*
D14*
X5715000Y-937500D03*
D13*
G36*
X6195142Y1423826D02*
G01*
X6218803Y1420316D01*
X6242007Y1414504D01*
X6264529Y1406446D01*
X6286153Y1396218D01*
X6306670Y1383921D01*
X6325883Y1369671D01*
X6343607Y1353607D01*
X6359671Y1335883D01*
X6373921Y1316670D01*
X6386218Y1296153D01*
X6396446Y1274529D01*
X6404504Y1252007D01*
X6410316Y1228803D01*
X6413826Y1205142D01*
X6415000Y1181250D01*
X6415000Y693750D01*
X6413826Y669858D01*
X6410316Y646197D01*
X6404504Y622993D01*
X6396446Y600471D01*
X6386218Y578847D01*
X6373921Y558330D01*
X6359671Y539117D01*
X6343607Y521393D01*
X6325883Y505329D01*
X6306670Y491079D01*
X6286153Y478782D01*
X6264529Y468554D01*
X6242007Y460496D01*
X6218803Y454684D01*
X6195142Y451174D01*
X6171250Y450000D01*
X5258750Y450000D01*
X5234858Y451174D01*
X5211197Y454684D01*
X5187993Y460496D01*
X5165471Y468554D01*
X5143847Y478782D01*
X5123330Y491079D01*
X5104117Y505329D01*
X5086393Y521393D01*
X5070329Y539117D01*
X5056079Y558330D01*
X5043782Y578847D01*
X5033554Y600471D01*
X5025496Y622993D01*
X5019684Y646197D01*
X5016174Y669858D01*
X5015000Y693750D01*
X5015000Y1181250D01*
X5016174Y1205142D01*
X5019684Y1228803D01*
X5025496Y1252007D01*
X5033554Y1274529D01*
X5043782Y1296153D01*
X5056079Y1316670D01*
X5070329Y1335883D01*
X5086393Y1353607D01*
X5104117Y1369671D01*
X5123330Y1383921D01*
X5143847Y1396218D01*
X5165471Y1406446D01*
X5187993Y1414504D01*
X5211197Y1420316D01*
X5234858Y1423826D01*
X5258750Y1425000D01*
X6171250Y1425000D01*
X6195142Y1423826D01*
X6195142Y1423826D01*
G37*
D14*
X5715000Y937500D03*
D13*
G36*
X-5234858Y-451174D02*
G01*
X-5211197Y-454684D01*
X-5187993Y-460496D01*
X-5165471Y-468554D01*
X-5143847Y-478782D01*
X-5123330Y-491079D01*
X-5104117Y-505329D01*
X-5086393Y-521393D01*
X-5070329Y-539117D01*
X-5056079Y-558330D01*
X-5043782Y-578847D01*
X-5033554Y-600471D01*
X-5025496Y-622993D01*
X-5019684Y-646197D01*
X-5016174Y-669858D01*
X-5015000Y-693750D01*
X-5015000Y-1181250D01*
X-5016174Y-1205142D01*
X-5019684Y-1228803D01*
X-5025496Y-1252007D01*
X-5033554Y-1274529D01*
X-5043782Y-1296153D01*
X-5056079Y-1316670D01*
X-5070329Y-1335883D01*
X-5086393Y-1353607D01*
X-5104117Y-1369671D01*
X-5123330Y-1383921D01*
X-5143847Y-1396218D01*
X-5165471Y-1406446D01*
X-5187993Y-1414504D01*
X-5211197Y-1420316D01*
X-5234858Y-1423826D01*
X-5258750Y-1425000D01*
X-6171250Y-1425000D01*
X-6195142Y-1423826D01*
X-6218803Y-1420316D01*
X-6242007Y-1414504D01*
X-6264529Y-1406446D01*
X-6286153Y-1396218D01*
X-6306670Y-1383921D01*
X-6325883Y-1369671D01*
X-6343607Y-1353607D01*
X-6359671Y-1335883D01*
X-6373921Y-1316670D01*
X-6386218Y-1296153D01*
X-6396446Y-1274529D01*
X-6404504Y-1252007D01*
X-6410316Y-1228803D01*
X-6413826Y-1205142D01*
X-6415000Y-1181250D01*
X-6415000Y-693750D01*
X-6413826Y-669858D01*
X-6410316Y-646197D01*
X-6404504Y-622993D01*
X-6396446Y-600471D01*
X-6386218Y-578847D01*
X-6373921Y-558330D01*
X-6359671Y-539117D01*
X-6343607Y-521393D01*
X-6325883Y-505329D01*
X-6306670Y-491079D01*
X-6286153Y-478782D01*
X-6264529Y-468554D01*
X-6242007Y-460496D01*
X-6218803Y-454684D01*
X-6195142Y-451174D01*
X-6171250Y-450000D01*
X-5258750Y-450000D01*
X-5234858Y-451174D01*
X-5234858Y-451174D01*
G37*
D14*
X-5715000Y-937500D03*
D13*
G36*
X-5234858Y1423826D02*
G01*
X-5211197Y1420316D01*
X-5187993Y1414504D01*
X-5165471Y1406446D01*
X-5143847Y1396218D01*
X-5123330Y1383921D01*
X-5104117Y1369671D01*
X-5086393Y1353607D01*
X-5070329Y1335883D01*
X-5056079Y1316670D01*
X-5043782Y1296153D01*
X-5033554Y1274529D01*
X-5025496Y1252007D01*
X-5019684Y1228803D01*
X-5016174Y1205142D01*
X-5015000Y1181250D01*
X-5015000Y693750D01*
X-5016174Y669858D01*
X-5019684Y646197D01*
X-5025496Y622993D01*
X-5033554Y600471D01*
X-5043782Y578847D01*
X-5056079Y558330D01*
X-5070329Y539117D01*
X-5086393Y521393D01*
X-5104117Y505329D01*
X-5123330Y491079D01*
X-5143847Y478782D01*
X-5165471Y468554D01*
X-5187993Y460496D01*
X-5211197Y454684D01*
X-5234858Y451174D01*
X-5258750Y450000D01*
X-6171250Y450000D01*
X-6195142Y451174D01*
X-6218803Y454684D01*
X-6242007Y460496D01*
X-6264529Y468554D01*
X-6286153Y478782D01*
X-6306670Y491079D01*
X-6325883Y505329D01*
X-6343607Y521393D01*
X-6359671Y539117D01*
X-6373921Y558330D01*
X-6386218Y578847D01*
X-6396446Y600471D01*
X-6404504Y622993D01*
X-6410316Y646197D01*
X-6413826Y669858D01*
X-6415000Y693750D01*
X-6415000Y1181250D01*
X-6413826Y1205142D01*
X-6410316Y1228803D01*
X-6404504Y1252007D01*
X-6396446Y1274529D01*
X-6386218Y1296153D01*
X-6373921Y1316670D01*
X-6359671Y1335883D01*
X-6343607Y1353607D01*
X-6325883Y1369671D01*
X-6306670Y1383921D01*
X-6286153Y1396218D01*
X-6264529Y1406446D01*
X-6242007Y1414504D01*
X-6218803Y1420316D01*
X-6195142Y1423826D01*
X-6171250Y1425000D01*
X-5258750Y1425000D01*
X-5234858Y1423826D01*
X-5234858Y1423826D01*
G37*
D14*
X-5715000Y937500D03*
D12*
X20933000Y-4423000D03*
X12087000Y-4423000D03*
X12087000Y4423000D03*
X20933000Y4423000D03*
X-12087000Y-4423000D03*
X-20933000Y-4423000D03*
X-20933000Y4423000D03*
X-12087000Y4423000D03*
D15*
X9786398Y2556260D03*
X-5321300Y-337820D03*
X10668000Y-5842000D03*
X10668000Y5842000D03*
X5842000Y5842000D03*
X5842000Y-5842000D03*
X-5842000Y5842000D03*
X-5842000Y-5842000D03*
X-10668000Y5842000D03*
X-10845800Y-5892800D03*
X5702300Y-1013460D03*
X6477000Y-3556000D03*
X-5481320Y2537460D03*
D16*
X6901580Y1905000D02*
X7620000Y1905000D01*
X6095000Y1905000D02*
X6901580Y1905000D01*
X5715000Y1525000D02*
X6095000Y1905000D01*
X5715000Y937500D02*
X5715000Y1525000D01*
X10238763Y-381263D02*
X10795000Y-937500D01*
X9769990Y87510D02*
X10238763Y-381263D01*
X9769990Y1974167D02*
X9769990Y87510D01*
X9786398Y1990575D02*
X9769990Y1974167D01*
X9786398Y2556260D02*
X9786398Y1990575D01*
X-8127999Y2412999D02*
X-7620000Y1905000D01*
X-8453001Y2738001D02*
X-8127999Y2412999D01*
X-9289841Y2738001D02*
X-8453001Y2738001D01*
X-10238763Y1789079D02*
X-9289841Y2738001D01*
X-10238763Y1493737D02*
X-10238763Y1789079D01*
X-10795000Y937500D02*
X-10238763Y1493737D01*
X-6682500Y1905000D02*
X-5715000Y937500D01*
X-7620000Y1905000D02*
X-6682500Y1905000D01*
D17*
X-7317500Y4356000D02*
X-7317500Y5588000D01*
D18*
X-23812500Y5207000D02*
X-22788880Y5207000D01*
X-22788880Y5207000D02*
X-22029420Y5966460D01*
X-23812500Y-5207000D02*
X-22839680Y-5207000D01*
X-22839680Y-5207000D02*
X-22044660Y-6002020D01*
X23812500Y5207000D02*
X22799040Y5207000D01*
X22799040Y5207000D02*
X21948140Y6057900D01*
X23812500Y-5207000D02*
X22740620Y-5207000D01*
X22740620Y-5207000D02*
X21973540Y-5974080D01*
D17*
X-9255000Y-5522000D02*
X-9255000Y-4922000D01*
X-7255000Y-4572000D02*
X-7255000Y-5172000D01*
D16*
X10795000Y937500D02*
X10795000Y2750820D01*
X10795000Y2750820D02*
X10144760Y3401060D01*
X10144760Y3401060D02*
X9372600Y3401060D01*
X8890000Y2918460D02*
X8890000Y1905000D01*
X9372600Y3401060D02*
X8890000Y2918460D01*
X-9397999Y1397001D02*
X-8890000Y1905000D01*
X-9769990Y1025010D02*
X-9397999Y1397001D01*
X-9769990Y87510D02*
X-9769990Y1025010D01*
X-10795000Y-937500D02*
X-9769990Y87510D01*
D19*
G36*
X6765164Y375688D02*
G01*
X6832179Y213901D01*
X6929469Y68296D01*
X6997765Y0D01*
X6929469Y-68296D01*
X6832179Y-213901D01*
X6779848Y-340238D01*
X6768701Y-303492D01*
X6733322Y-237304D01*
X6685711Y-179289D01*
X6627696Y-131678D01*
X6561508Y-96299D01*
X6489689Y-74513D01*
X6415000Y-67157D01*
X5937250Y-69000D01*
X5842000Y-164250D01*
X5842000Y-810500D01*
X5862000Y-810500D01*
X5862000Y-1064500D01*
X5842000Y-1064500D01*
X5842000Y-1710750D01*
X5937250Y-1806000D01*
X6415000Y-1807843D01*
X6489689Y-1800487D01*
X6561508Y-1778701D01*
X6627696Y-1743322D01*
X6685711Y-1695711D01*
X6733322Y-1637696D01*
X6768701Y-1571508D01*
X6790487Y-1499689D01*
X6797843Y-1425000D01*
X6796000Y-1159750D01*
X6700752Y-1064502D01*
X6796000Y-1064502D01*
X6796000Y-968756D01*
X6832179Y-1056099D01*
X6929469Y-1201704D01*
X7053296Y-1325531D01*
X7198901Y-1422821D01*
X7360688Y-1489836D01*
X7390340Y-1495734D01*
X7620000Y-1725395D01*
X7849660Y-1495734D01*
X7879312Y-1489836D01*
X8041099Y-1422821D01*
X8186704Y-1325531D01*
X8255000Y-1257235D01*
X8267765Y-1270000D01*
X8199469Y-1338296D01*
X8102179Y-1483901D01*
X8035164Y-1645688D01*
X8029266Y-1675340D01*
X7799605Y-1905000D01*
X8029266Y-2134660D01*
X8035164Y-2164312D01*
X8102179Y-2326099D01*
X8199469Y-2471704D01*
X8323296Y-2595531D01*
X8468901Y-2692821D01*
X8630688Y-2759836D01*
X8802441Y-2794000D01*
X8977559Y-2794000D01*
X9149312Y-2759836D01*
X9311099Y-2692821D01*
X9456704Y-2595531D01*
X9580531Y-2471704D01*
X9677821Y-2326099D01*
X9744836Y-2164312D01*
X9779000Y-1992559D01*
X9779000Y-1817441D01*
X9744836Y-1645688D01*
X9677821Y-1483901D01*
X9580531Y-1338296D01*
X9512235Y-1270000D01*
X9580531Y-1201704D01*
X9677821Y-1056099D01*
X9712157Y-973205D01*
X9712157Y-1181250D01*
X9724197Y-1303492D01*
X9759854Y-1421037D01*
X9817757Y-1529366D01*
X9895682Y-1624318D01*
X9990634Y-1702243D01*
X10098963Y-1760146D01*
X10216508Y-1795803D01*
X10338750Y-1807843D01*
X11251250Y-1807843D01*
X11373492Y-1795803D01*
X11491037Y-1760146D01*
X11599366Y-1702243D01*
X11694318Y-1624318D01*
X11772243Y-1529366D01*
X11821870Y-1436520D01*
X12184514Y-2312020D01*
X12591122Y-2920552D01*
X12548161Y-2902757D01*
X12242715Y-2842000D01*
X11931285Y-2842000D01*
X11625839Y-2902757D01*
X11338116Y-3021936D01*
X11079171Y-3194957D01*
X10858957Y-3415171D01*
X10685936Y-3674116D01*
X10566757Y-3961839D01*
X10506000Y-4267285D01*
X10506000Y-4578715D01*
X10566757Y-4884161D01*
X10685936Y-5171884D01*
X10858957Y-5430829D01*
X11079171Y-5651043D01*
X11338116Y-5824064D01*
X11625839Y-5943243D01*
X11931285Y-6004000D01*
X12242715Y-6004000D01*
X12548161Y-5943243D01*
X12835884Y-5824064D01*
X13094829Y-5651043D01*
X13315043Y-5430829D01*
X13488064Y-5171884D01*
X13607243Y-4884161D01*
X13668000Y-4578715D01*
X13668000Y-4267285D01*
X13607243Y-3961839D01*
X13589448Y-3918878D01*
X14197980Y-4325486D01*
X15086265Y-4693426D01*
X16029263Y-4881000D01*
X16990737Y-4881000D01*
X17933735Y-4693426D01*
X18822020Y-4325486D01*
X19430552Y-3918878D01*
X19412757Y-3961839D01*
X19352000Y-4267285D01*
X19352000Y-4578715D01*
X19412757Y-4884161D01*
X19531936Y-5171884D01*
X19704957Y-5430829D01*
X19925171Y-5651043D01*
X20184116Y-5824064D01*
X20471839Y-5943243D01*
X20777285Y-6004000D01*
X21088715Y-6004000D01*
X21394161Y-5943243D01*
X21681884Y-5824064D01*
X21940829Y-5651043D01*
X22004682Y-5587190D01*
X22009048Y-5621222D01*
X22124512Y-5965099D01*
X22244368Y-6189334D01*
X22348532Y-6261100D01*
X9383495Y-6261100D01*
X8255000Y-5132605D01*
X7126505Y-6261100D01*
X-7126505Y-6261100D01*
X-8255000Y-5132605D01*
X-9383495Y-6261100D01*
X-22348532Y-6261100D01*
X-22244368Y-6189334D01*
X-22082855Y-5864531D01*
X-22006944Y-5584928D01*
X-21940829Y-5651043D01*
X-21681884Y-5824064D01*
X-21394161Y-5943243D01*
X-21088715Y-6004000D01*
X-20777285Y-6004000D01*
X-20471839Y-5943243D01*
X-20184116Y-5824064D01*
X-19925171Y-5651043D01*
X-19704957Y-5430829D01*
X-19531936Y-5171884D01*
X-19412757Y-4884161D01*
X-19352000Y-4578715D01*
X-19352000Y-4267285D01*
X-19412757Y-3961839D01*
X-19430552Y-3918878D01*
X-18822020Y-4325486D01*
X-17933735Y-4693426D01*
X-16990737Y-4881000D01*
X-16029263Y-4881000D01*
X-15086265Y-4693426D01*
X-14197980Y-4325486D01*
X-13589448Y-3918878D01*
X-13607243Y-3961839D01*
X-13668000Y-4267285D01*
X-13668000Y-4578715D01*
X-13607243Y-4884161D01*
X-13488064Y-5171884D01*
X-13315043Y-5430829D01*
X-13094829Y-5651043D01*
X-12835884Y-5824064D01*
X-12548161Y-5943243D01*
X-12242715Y-6004000D01*
X-11931285Y-6004000D01*
X-11625839Y-5943243D01*
X-11338116Y-5824064D01*
X-11079171Y-5651043D01*
X-10858957Y-5430829D01*
X-10685936Y-5171884D01*
X-10617816Y-5007427D01*
X-10104610Y-5007427D01*
X-10058452Y-5367222D01*
X-9942988Y-5711099D01*
X-9823132Y-5935334D01*
X-9582635Y-6101030D01*
X-8434605Y-4953000D01*
X-8075395Y-4953000D01*
X-6927365Y-6101030D01*
X-6686868Y-5935334D01*
X-6525355Y-5610531D01*
X-6430312Y-5260460D01*
X-6405390Y-4898573D01*
X-6451548Y-4538778D01*
X-6567012Y-4194901D01*
X-6686868Y-3970666D01*
X-6927365Y-3804970D01*
X-8075395Y-4953000D01*
X-8434605Y-4953000D01*
X-9582635Y-3804970D01*
X-9823132Y-3970666D01*
X-9984645Y-4295469D01*
X-10079688Y-4645540D01*
X-10104610Y-5007427D01*
X-10617816Y-5007427D01*
X-10566757Y-4884161D01*
X-10506000Y-4578715D01*
X-10506000Y-4267285D01*
X-10566757Y-3961839D01*
X-10685936Y-3674116D01*
X-10718510Y-3625365D01*
X-9403030Y-3625365D01*
X-8255000Y-4773395D01*
X-7106970Y-3625365D01*
X-7272666Y-3384868D01*
X-7597469Y-3223355D01*
X-7947540Y-3128312D01*
X-8309427Y-3103390D01*
X-8669222Y-3149548D01*
X-9013099Y-3265012D01*
X-9237334Y-3384868D01*
X-9403030Y-3625365D01*
X-10718510Y-3625365D01*
X-10858957Y-3415171D01*
X-11079171Y-3194957D01*
X-11338116Y-3021936D01*
X-11625839Y-2902757D01*
X-11931285Y-2842000D01*
X-12242715Y-2842000D01*
X-12548161Y-2902757D01*
X-12591122Y-2920552D01*
X-12344810Y-2551919D01*
X-9357313Y-2551919D01*
X-9306991Y-2695004D01*
X-9144857Y-2761175D01*
X-8972929Y-2794443D01*
X-8797814Y-2793531D01*
X-8626241Y-2758474D01*
X-8473009Y-2695004D01*
X-8422687Y-2551919D01*
X-8890000Y-2084605D01*
X-9357313Y-2551919D01*
X-12344810Y-2551919D01*
X-12184514Y-2312020D01*
X-11981571Y-1822071D01*
X-9779443Y-1822071D01*
X-9778531Y-1997186D01*
X-9743474Y-2168759D01*
X-9680004Y-2321991D01*
X-9536919Y-2372313D01*
X-9069605Y-1905000D01*
X-9536919Y-1437687D01*
X-9680004Y-1488009D01*
X-9746175Y-1650143D01*
X-9779443Y-1822071D01*
X-11981571Y-1822071D01*
X-11821870Y-1436520D01*
X-11772243Y-1529366D01*
X-11694318Y-1624318D01*
X-11599366Y-1702243D01*
X-11491037Y-1760146D01*
X-11373492Y-1795803D01*
X-11251250Y-1807843D01*
X-10338750Y-1807843D01*
X-10216508Y-1795803D01*
X-10098963Y-1760146D01*
X-9990634Y-1702243D01*
X-9895682Y-1624318D01*
X-9817757Y-1529366D01*
X-9759854Y-1421037D01*
X-9724197Y-1303492D01*
X-9712157Y-1181250D01*
X-9712157Y-973205D01*
X-9677821Y-1056099D01*
X-9580531Y-1201704D01*
X-9456704Y-1325531D01*
X-9311099Y-1422821D01*
X-9149312Y-1489836D01*
X-9119660Y-1495734D01*
X-8890000Y-1725395D01*
X-8660340Y-1495734D01*
X-8630688Y-1489836D01*
X-8468901Y-1422821D01*
X-8323296Y-1325531D01*
X-8255000Y-1257235D01*
X-8242235Y-1270000D01*
X-8310531Y-1338296D01*
X-8407821Y-1483901D01*
X-8474836Y-1645688D01*
X-8480734Y-1675340D01*
X-8710395Y-1905000D01*
X-8480734Y-2134660D01*
X-8474836Y-2164312D01*
X-8407821Y-2326099D01*
X-8310531Y-2471704D01*
X-8186704Y-2595531D01*
X-8041099Y-2692821D01*
X-7879312Y-2759836D01*
X-7707559Y-2794000D01*
X-7532441Y-2794000D01*
X-7360688Y-2759836D01*
X-7198901Y-2692821D01*
X-7053296Y-2595531D01*
X-6929469Y-2471704D01*
X-6832179Y-2326099D01*
X-6765164Y-2164312D01*
X-6731000Y-1992559D01*
X-6731000Y-1817441D01*
X-6765164Y-1645688D01*
X-6832179Y-1483901D01*
X-6929469Y-1338296D01*
X-6997765Y-1270000D01*
X-6929469Y-1201704D01*
X-6832179Y-1056099D01*
X-6796000Y-968756D01*
X-6796000Y-1064502D01*
X-6700752Y-1064502D01*
X-6796000Y-1159750D01*
X-6797843Y-1425000D01*
X-6790487Y-1499689D01*
X-6768701Y-1571508D01*
X-6733322Y-1637696D01*
X-6685711Y-1695711D01*
X-6627696Y-1743322D01*
X-6561508Y-1778701D01*
X-6489689Y-1800487D01*
X-6415000Y-1807843D01*
X-5937250Y-1806000D01*
X-5842000Y-1710750D01*
X-5842000Y-1064500D01*
X-5862000Y-1064500D01*
X-5862000Y-810500D01*
X-5842000Y-810500D01*
X-5842000Y-164250D01*
X-5937250Y-69000D01*
X-6415000Y-67157D01*
X-6489689Y-74513D01*
X-6561508Y-96299D01*
X-6627696Y-131678D01*
X-6685711Y-179289D01*
X-6733322Y-237304D01*
X-6768701Y-303492D01*
X-6779848Y-340238D01*
X-6832179Y-213901D01*
X-6929469Y-68296D01*
X-6997765Y0D01*
X-6929469Y68296D01*
X-6832179Y213901D01*
X-6765164Y375688D01*
X-6749744Y453210D01*
X-6692243Y345634D01*
X-6614318Y250682D01*
X-6519366Y172757D01*
X-6411037Y114854D01*
X-6293492Y79197D01*
X-6171250Y67157D01*
X-5258750Y67157D01*
X-5136508Y79197D01*
X-5018963Y114854D01*
X-4910634Y172757D01*
X-4881000Y197077D01*
X-4881000Y-92505D01*
X-4940311Y-74513D01*
X-5015000Y-67157D01*
X-5492750Y-69000D01*
X-5588000Y-164250D01*
X-5588000Y-810500D01*
X-5568000Y-810500D01*
X-5568000Y-1064500D01*
X-5588000Y-1064500D01*
X-5588000Y-1710750D01*
X-5492750Y-1806000D01*
X-5015000Y-1807843D01*
X-4940311Y-1800487D01*
X-4868492Y-1778701D01*
X-4802304Y-1743322D01*
X-4744289Y-1695711D01*
X-4696678Y-1637696D01*
X-4661299Y-1571508D01*
X-4649004Y-1530978D01*
X-4325486Y-2312020D01*
X-3918878Y-2920552D01*
X-3961839Y-2902757D01*
X-4267285Y-2842000D01*
X-4578715Y-2842000D01*
X-4884161Y-2902757D01*
X-5171884Y-3021936D01*
X-5430829Y-3194957D01*
X-5651043Y-3415171D01*
X-5824064Y-3674116D01*
X-5943243Y-3961839D01*
X-6004000Y-4267285D01*
X-6004000Y-4578715D01*
X-5943243Y-4884161D01*
X-5824064Y-5171884D01*
X-5651043Y-5430829D01*
X-5430829Y-5651043D01*
X-5171884Y-5824064D01*
X-4884161Y-5943243D01*
X-4578715Y-6004000D01*
X-4267285Y-6004000D01*
X-3961839Y-5943243D01*
X-3674116Y-5824064D01*
X-3415171Y-5651043D01*
X-3194957Y-5430829D01*
X-3021936Y-5171884D01*
X-2902757Y-4884161D01*
X-2842000Y-4578715D01*
X-2842000Y-4267285D01*
X-2902757Y-3961839D01*
X-2920552Y-3918878D01*
X-2312020Y-4325486D01*
X-1423735Y-4693426D01*
X-480737Y-4881000D01*
X480737Y-4881000D01*
X1423735Y-4693426D01*
X2312020Y-4325486D01*
X2920552Y-3918878D01*
X2902757Y-3961839D01*
X2842000Y-4267285D01*
X2842000Y-4578715D01*
X2902757Y-4884161D01*
X3021936Y-5171884D01*
X3194957Y-5430829D01*
X3415171Y-5651043D01*
X3674116Y-5824064D01*
X3961839Y-5943243D01*
X4267285Y-6004000D01*
X4578715Y-6004000D01*
X4884161Y-5943243D01*
X5171884Y-5824064D01*
X5430829Y-5651043D01*
X5651043Y-5430829D01*
X5824064Y-5171884D01*
X5892184Y-5007427D01*
X6405390Y-5007427D01*
X6451548Y-5367222D01*
X6567012Y-5711099D01*
X6686868Y-5935334D01*
X6927365Y-6101030D01*
X8075395Y-4953000D01*
X8434605Y-4953000D01*
X9582635Y-6101030D01*
X9823132Y-5935334D01*
X9984645Y-5610531D01*
X10079688Y-5260460D01*
X10104610Y-4898573D01*
X10058452Y-4538778D01*
X9942988Y-4194901D01*
X9823132Y-3970666D01*
X9582635Y-3804970D01*
X8434605Y-4953000D01*
X8075395Y-4953000D01*
X6927365Y-3804970D01*
X6686868Y-3970666D01*
X6525355Y-4295469D01*
X6430312Y-4645540D01*
X6405390Y-5007427D01*
X5892184Y-5007427D01*
X5943243Y-4884161D01*
X6004000Y-4578715D01*
X6004000Y-4267285D01*
X5943243Y-3961839D01*
X5824064Y-3674116D01*
X5791490Y-3625365D01*
X7106970Y-3625365D01*
X8255000Y-4773395D01*
X9403030Y-3625365D01*
X9237334Y-3384868D01*
X8912531Y-3223355D01*
X8562460Y-3128312D01*
X8200573Y-3103390D01*
X7840778Y-3149548D01*
X7496901Y-3265012D01*
X7272666Y-3384868D01*
X7106970Y-3625365D01*
X5791490Y-3625365D01*
X5651043Y-3415171D01*
X5430829Y-3194957D01*
X5171884Y-3021936D01*
X4884161Y-2902757D01*
X4578715Y-2842000D01*
X4267285Y-2842000D01*
X3961839Y-2902757D01*
X3918878Y-2920552D01*
X4165190Y-2551919D01*
X7152687Y-2551919D01*
X7203009Y-2695004D01*
X7365143Y-2761175D01*
X7537071Y-2794443D01*
X7712186Y-2793531D01*
X7883759Y-2758474D01*
X8036991Y-2695004D01*
X8087313Y-2551919D01*
X7620000Y-2084605D01*
X7152687Y-2551919D01*
X4165190Y-2551919D01*
X4325486Y-2312020D01*
X4528429Y-1822071D01*
X6730557Y-1822071D01*
X6731469Y-1997186D01*
X6766526Y-2168759D01*
X6829996Y-2321991D01*
X6973081Y-2372313D01*
X7440395Y-1905000D01*
X6973081Y-1437687D01*
X6829996Y-1488009D01*
X6763825Y-1650143D01*
X6730557Y-1822071D01*
X4528429Y-1822071D01*
X4649004Y-1530978D01*
X4661299Y-1571508D01*
X4696678Y-1637696D01*
X4744289Y-1695711D01*
X4802304Y-1743322D01*
X4868492Y-1778701D01*
X4940311Y-1800487D01*
X5015000Y-1807843D01*
X5492750Y-1806000D01*
X5588000Y-1710750D01*
X5588000Y-1064500D01*
X5568000Y-1064500D01*
X5568000Y-810500D01*
X5588000Y-810500D01*
X5588000Y-164250D01*
X5492750Y-69000D01*
X5015000Y-67157D01*
X4940311Y-74513D01*
X4881000Y-92505D01*
X4881000Y197077D01*
X4910634Y172757D01*
X5018963Y114854D01*
X5136508Y79197D01*
X5258750Y67157D01*
X6171250Y67157D01*
X6293492Y79197D01*
X6411037Y114854D01*
X6519366Y172757D01*
X6614318Y250682D01*
X6692243Y345634D01*
X6749744Y453210D01*
X6765164Y375688D01*
X6765164Y375688D01*
G37*
X6765164Y375688D02*
X6832179Y213901D01*
X6929469Y68296D01*
X6997765Y0D01*
X6929469Y-68296D01*
X6832179Y-213901D01*
X6779848Y-340238D01*
X6768701Y-303492D01*
X6733322Y-237304D01*
X6685711Y-179289D01*
X6627696Y-131678D01*
X6561508Y-96299D01*
X6489689Y-74513D01*
X6415000Y-67157D01*
X5937250Y-69000D01*
X5842000Y-164250D01*
X5842000Y-810500D01*
X5862000Y-810500D01*
X5862000Y-1064500D01*
X5842000Y-1064500D01*
X5842000Y-1710750D01*
X5937250Y-1806000D01*
X6415000Y-1807843D01*
X6489689Y-1800487D01*
X6561508Y-1778701D01*
X6627696Y-1743322D01*
X6685711Y-1695711D01*
X6733322Y-1637696D01*
X6768701Y-1571508D01*
X6790487Y-1499689D01*
X6797843Y-1425000D01*
X6796000Y-1159750D01*
X6700752Y-1064502D01*
X6796000Y-1064502D01*
X6796000Y-968756D01*
X6832179Y-1056099D01*
X6929469Y-1201704D01*
X7053296Y-1325531D01*
X7198901Y-1422821D01*
X7360688Y-1489836D01*
X7390340Y-1495734D01*
X7620000Y-1725395D01*
X7849660Y-1495734D01*
X7879312Y-1489836D01*
X8041099Y-1422821D01*
X8186704Y-1325531D01*
X8255000Y-1257235D01*
X8267765Y-1270000D01*
X8199469Y-1338296D01*
X8102179Y-1483901D01*
X8035164Y-1645688D01*
X8029266Y-1675340D01*
X7799605Y-1905000D01*
X8029266Y-2134660D01*
X8035164Y-2164312D01*
X8102179Y-2326099D01*
X8199469Y-2471704D01*
X8323296Y-2595531D01*
X8468901Y-2692821D01*
X8630688Y-2759836D01*
X8802441Y-2794000D01*
X8977559Y-2794000D01*
X9149312Y-2759836D01*
X9311099Y-2692821D01*
X9456704Y-2595531D01*
X9580531Y-2471704D01*
X9677821Y-2326099D01*
X9744836Y-2164312D01*
X9779000Y-1992559D01*
X9779000Y-1817441D01*
X9744836Y-1645688D01*
X9677821Y-1483901D01*
X9580531Y-1338296D01*
X9512235Y-1270000D01*
X9580531Y-1201704D01*
X9677821Y-1056099D01*
X9712157Y-973205D01*
X9712157Y-1181250D01*
X9724197Y-1303492D01*
X9759854Y-1421037D01*
X9817757Y-1529366D01*
X9895682Y-1624318D01*
X9990634Y-1702243D01*
X10098963Y-1760146D01*
X10216508Y-1795803D01*
X10338750Y-1807843D01*
X11251250Y-1807843D01*
X11373492Y-1795803D01*
X11491037Y-1760146D01*
X11599366Y-1702243D01*
X11694318Y-1624318D01*
X11772243Y-1529366D01*
X11821870Y-1436520D01*
X12184514Y-2312020D01*
X12591122Y-2920552D01*
X12548161Y-2902757D01*
X12242715Y-2842000D01*
X11931285Y-2842000D01*
X11625839Y-2902757D01*
X11338116Y-3021936D01*
X11079171Y-3194957D01*
X10858957Y-3415171D01*
X10685936Y-3674116D01*
X10566757Y-3961839D01*
X10506000Y-4267285D01*
X10506000Y-4578715D01*
X10566757Y-4884161D01*
X10685936Y-5171884D01*
X10858957Y-5430829D01*
X11079171Y-5651043D01*
X11338116Y-5824064D01*
X11625839Y-5943243D01*
X11931285Y-6004000D01*
X12242715Y-6004000D01*
X12548161Y-5943243D01*
X12835884Y-5824064D01*
X13094829Y-5651043D01*
X13315043Y-5430829D01*
X13488064Y-5171884D01*
X13607243Y-4884161D01*
X13668000Y-4578715D01*
X13668000Y-4267285D01*
X13607243Y-3961839D01*
X13589448Y-3918878D01*
X14197980Y-4325486D01*
X15086265Y-4693426D01*
X16029263Y-4881000D01*
X16990737Y-4881000D01*
X17933735Y-4693426D01*
X18822020Y-4325486D01*
X19430552Y-3918878D01*
X19412757Y-3961839D01*
X19352000Y-4267285D01*
X19352000Y-4578715D01*
X19412757Y-4884161D01*
X19531936Y-5171884D01*
X19704957Y-5430829D01*
X19925171Y-5651043D01*
X20184116Y-5824064D01*
X20471839Y-5943243D01*
X20777285Y-6004000D01*
X21088715Y-6004000D01*
X21394161Y-5943243D01*
X21681884Y-5824064D01*
X21940829Y-5651043D01*
X22004682Y-5587190D01*
X22009048Y-5621222D01*
X22124512Y-5965099D01*
X22244368Y-6189334D01*
X22348532Y-6261100D01*
X9383495Y-6261100D01*
X8255000Y-5132605D01*
X7126505Y-6261100D01*
X-7126505Y-6261100D01*
X-8255000Y-5132605D01*
X-9383495Y-6261100D01*
X-22348532Y-6261100D01*
X-22244368Y-6189334D01*
X-22082855Y-5864531D01*
X-22006944Y-5584928D01*
X-21940829Y-5651043D01*
X-21681884Y-5824064D01*
X-21394161Y-5943243D01*
X-21088715Y-6004000D01*
X-20777285Y-6004000D01*
X-20471839Y-5943243D01*
X-20184116Y-5824064D01*
X-19925171Y-5651043D01*
X-19704957Y-5430829D01*
X-19531936Y-5171884D01*
X-19412757Y-4884161D01*
X-19352000Y-4578715D01*
X-19352000Y-4267285D01*
X-19412757Y-3961839D01*
X-19430552Y-3918878D01*
X-18822020Y-4325486D01*
X-17933735Y-4693426D01*
X-16990737Y-4881000D01*
X-16029263Y-4881000D01*
X-15086265Y-4693426D01*
X-14197980Y-4325486D01*
X-13589448Y-3918878D01*
X-13607243Y-3961839D01*
X-13668000Y-4267285D01*
X-13668000Y-4578715D01*
X-13607243Y-4884161D01*
X-13488064Y-5171884D01*
X-13315043Y-5430829D01*
X-13094829Y-5651043D01*
X-12835884Y-5824064D01*
X-12548161Y-5943243D01*
X-12242715Y-6004000D01*
X-11931285Y-6004000D01*
X-11625839Y-5943243D01*
X-11338116Y-5824064D01*
X-11079171Y-5651043D01*
X-10858957Y-5430829D01*
X-10685936Y-5171884D01*
X-10617816Y-5007427D01*
X-10104610Y-5007427D01*
X-10058452Y-5367222D01*
X-9942988Y-5711099D01*
X-9823132Y-5935334D01*
X-9582635Y-6101030D01*
X-8434605Y-4953000D01*
X-8075395Y-4953000D01*
X-6927365Y-6101030D01*
X-6686868Y-5935334D01*
X-6525355Y-5610531D01*
X-6430312Y-5260460D01*
X-6405390Y-4898573D01*
X-6451548Y-4538778D01*
X-6567012Y-4194901D01*
X-6686868Y-3970666D01*
X-6927365Y-3804970D01*
X-8075395Y-4953000D01*
X-8434605Y-4953000D01*
X-9582635Y-3804970D01*
X-9823132Y-3970666D01*
X-9984645Y-4295469D01*
X-10079688Y-4645540D01*
X-10104610Y-5007427D01*
X-10617816Y-5007427D01*
X-10566757Y-4884161D01*
X-10506000Y-4578715D01*
X-10506000Y-4267285D01*
X-10566757Y-3961839D01*
X-10685936Y-3674116D01*
X-10718510Y-3625365D01*
X-9403030Y-3625365D01*
X-8255000Y-4773395D01*
X-7106970Y-3625365D01*
X-7272666Y-3384868D01*
X-7597469Y-3223355D01*
X-7947540Y-3128312D01*
X-8309427Y-3103390D01*
X-8669222Y-3149548D01*
X-9013099Y-3265012D01*
X-9237334Y-3384868D01*
X-9403030Y-3625365D01*
X-10718510Y-3625365D01*
X-10858957Y-3415171D01*
X-11079171Y-3194957D01*
X-11338116Y-3021936D01*
X-11625839Y-2902757D01*
X-11931285Y-2842000D01*
X-12242715Y-2842000D01*
X-12548161Y-2902757D01*
X-12591122Y-2920552D01*
X-12344810Y-2551919D01*
X-9357313Y-2551919D01*
X-9306991Y-2695004D01*
X-9144857Y-2761175D01*
X-8972929Y-2794443D01*
X-8797814Y-2793531D01*
X-8626241Y-2758474D01*
X-8473009Y-2695004D01*
X-8422687Y-2551919D01*
X-8890000Y-2084605D01*
X-9357313Y-2551919D01*
X-12344810Y-2551919D01*
X-12184514Y-2312020D01*
X-11981571Y-1822071D01*
X-9779443Y-1822071D01*
X-9778531Y-1997186D01*
X-9743474Y-2168759D01*
X-9680004Y-2321991D01*
X-9536919Y-2372313D01*
X-9069605Y-1905000D01*
X-9536919Y-1437687D01*
X-9680004Y-1488009D01*
X-9746175Y-1650143D01*
X-9779443Y-1822071D01*
X-11981571Y-1822071D01*
X-11821870Y-1436520D01*
X-11772243Y-1529366D01*
X-11694318Y-1624318D01*
X-11599366Y-1702243D01*
X-11491037Y-1760146D01*
X-11373492Y-1795803D01*
X-11251250Y-1807843D01*
X-10338750Y-1807843D01*
X-10216508Y-1795803D01*
X-10098963Y-1760146D01*
X-9990634Y-1702243D01*
X-9895682Y-1624318D01*
X-9817757Y-1529366D01*
X-9759854Y-1421037D01*
X-9724197Y-1303492D01*
X-9712157Y-1181250D01*
X-9712157Y-973205D01*
X-9677821Y-1056099D01*
X-9580531Y-1201704D01*
X-9456704Y-1325531D01*
X-9311099Y-1422821D01*
X-9149312Y-1489836D01*
X-9119660Y-1495734D01*
X-8890000Y-1725395D01*
X-8660340Y-1495734D01*
X-8630688Y-1489836D01*
X-8468901Y-1422821D01*
X-8323296Y-1325531D01*
X-8255000Y-1257235D01*
X-8242235Y-1270000D01*
X-8310531Y-1338296D01*
X-8407821Y-1483901D01*
X-8474836Y-1645688D01*
X-8480734Y-1675340D01*
X-8710395Y-1905000D01*
X-8480734Y-2134660D01*
X-8474836Y-2164312D01*
X-8407821Y-2326099D01*
X-8310531Y-2471704D01*
X-8186704Y-2595531D01*
X-8041099Y-2692821D01*
X-7879312Y-2759836D01*
X-7707559Y-2794000D01*
X-7532441Y-2794000D01*
X-7360688Y-2759836D01*
X-7198901Y-2692821D01*
X-7053296Y-2595531D01*
X-6929469Y-2471704D01*
X-6832179Y-2326099D01*
X-6765164Y-2164312D01*
X-6731000Y-1992559D01*
X-6731000Y-1817441D01*
X-6765164Y-1645688D01*
X-6832179Y-1483901D01*
X-6929469Y-1338296D01*
X-6997765Y-1270000D01*
X-6929469Y-1201704D01*
X-6832179Y-1056099D01*
X-6796000Y-968756D01*
X-6796000Y-1064502D01*
X-6700752Y-1064502D01*
X-6796000Y-1159750D01*
X-6797843Y-1425000D01*
X-6790487Y-1499689D01*
X-6768701Y-1571508D01*
X-6733322Y-1637696D01*
X-6685711Y-1695711D01*
X-6627696Y-1743322D01*
X-6561508Y-1778701D01*
X-6489689Y-1800487D01*
X-6415000Y-1807843D01*
X-5937250Y-1806000D01*
X-5842000Y-1710750D01*
X-5842000Y-1064500D01*
X-5862000Y-1064500D01*
X-5862000Y-810500D01*
X-5842000Y-810500D01*
X-5842000Y-164250D01*
X-5937250Y-69000D01*
X-6415000Y-67157D01*
X-6489689Y-74513D01*
X-6561508Y-96299D01*
X-6627696Y-131678D01*
X-6685711Y-179289D01*
X-6733322Y-237304D01*
X-6768701Y-303492D01*
X-6779848Y-340238D01*
X-6832179Y-213901D01*
X-6929469Y-68296D01*
X-6997765Y0D01*
X-6929469Y68296D01*
X-6832179Y213901D01*
X-6765164Y375688D01*
X-6749744Y453210D01*
X-6692243Y345634D01*
X-6614318Y250682D01*
X-6519366Y172757D01*
X-6411037Y114854D01*
X-6293492Y79197D01*
X-6171250Y67157D01*
X-5258750Y67157D01*
X-5136508Y79197D01*
X-5018963Y114854D01*
X-4910634Y172757D01*
X-4881000Y197077D01*
X-4881000Y-92505D01*
X-4940311Y-74513D01*
X-5015000Y-67157D01*
X-5492750Y-69000D01*
X-5588000Y-164250D01*
X-5588000Y-810500D01*
X-5568000Y-810500D01*
X-5568000Y-1064500D01*
X-5588000Y-1064500D01*
X-5588000Y-1710750D01*
X-5492750Y-1806000D01*
X-5015000Y-1807843D01*
X-4940311Y-1800487D01*
X-4868492Y-1778701D01*
X-4802304Y-1743322D01*
X-4744289Y-1695711D01*
X-4696678Y-1637696D01*
X-4661299Y-1571508D01*
X-4649004Y-1530978D01*
X-4325486Y-2312020D01*
X-3918878Y-2920552D01*
X-3961839Y-2902757D01*
X-4267285Y-2842000D01*
X-4578715Y-2842000D01*
X-4884161Y-2902757D01*
X-5171884Y-3021936D01*
X-5430829Y-3194957D01*
X-5651043Y-3415171D01*
X-5824064Y-3674116D01*
X-5943243Y-3961839D01*
X-6004000Y-4267285D01*
X-6004000Y-4578715D01*
X-5943243Y-4884161D01*
X-5824064Y-5171884D01*
X-5651043Y-5430829D01*
X-5430829Y-5651043D01*
X-5171884Y-5824064D01*
X-4884161Y-5943243D01*
X-4578715Y-6004000D01*
X-4267285Y-6004000D01*
X-3961839Y-5943243D01*
X-3674116Y-5824064D01*
X-3415171Y-5651043D01*
X-3194957Y-5430829D01*
X-3021936Y-5171884D01*
X-2902757Y-4884161D01*
X-2842000Y-4578715D01*
X-2842000Y-4267285D01*
X-2902757Y-3961839D01*
X-2920552Y-3918878D01*
X-2312020Y-4325486D01*
X-1423735Y-4693426D01*
X-480737Y-4881000D01*
X480737Y-4881000D01*
X1423735Y-4693426D01*
X2312020Y-4325486D01*
X2920552Y-3918878D01*
X2902757Y-3961839D01*
X2842000Y-4267285D01*
X2842000Y-4578715D01*
X2902757Y-4884161D01*
X3021936Y-5171884D01*
X3194957Y-5430829D01*
X3415171Y-5651043D01*
X3674116Y-5824064D01*
X3961839Y-5943243D01*
X4267285Y-6004000D01*
X4578715Y-6004000D01*
X4884161Y-5943243D01*
X5171884Y-5824064D01*
X5430829Y-5651043D01*
X5651043Y-5430829D01*
X5824064Y-5171884D01*
X5892184Y-5007427D01*
X6405390Y-5007427D01*
X6451548Y-5367222D01*
X6567012Y-5711099D01*
X6686868Y-5935334D01*
X6927365Y-6101030D01*
X8075395Y-4953000D01*
X8434605Y-4953000D01*
X9582635Y-6101030D01*
X9823132Y-5935334D01*
X9984645Y-5610531D01*
X10079688Y-5260460D01*
X10104610Y-4898573D01*
X10058452Y-4538778D01*
X9942988Y-4194901D01*
X9823132Y-3970666D01*
X9582635Y-3804970D01*
X8434605Y-4953000D01*
X8075395Y-4953000D01*
X6927365Y-3804970D01*
X6686868Y-3970666D01*
X6525355Y-4295469D01*
X6430312Y-4645540D01*
X6405390Y-5007427D01*
X5892184Y-5007427D01*
X5943243Y-4884161D01*
X6004000Y-4578715D01*
X6004000Y-4267285D01*
X5943243Y-3961839D01*
X5824064Y-3674116D01*
X5791490Y-3625365D01*
X7106970Y-3625365D01*
X8255000Y-4773395D01*
X9403030Y-3625365D01*
X9237334Y-3384868D01*
X8912531Y-3223355D01*
X8562460Y-3128312D01*
X8200573Y-3103390D01*
X7840778Y-3149548D01*
X7496901Y-3265012D01*
X7272666Y-3384868D01*
X7106970Y-3625365D01*
X5791490Y-3625365D01*
X5651043Y-3415171D01*
X5430829Y-3194957D01*
X5171884Y-3021936D01*
X4884161Y-2902757D01*
X4578715Y-2842000D01*
X4267285Y-2842000D01*
X3961839Y-2902757D01*
X3918878Y-2920552D01*
X4165190Y-2551919D01*
X7152687Y-2551919D01*
X7203009Y-2695004D01*
X7365143Y-2761175D01*
X7537071Y-2794443D01*
X7712186Y-2793531D01*
X7883759Y-2758474D01*
X8036991Y-2695004D01*
X8087313Y-2551919D01*
X7620000Y-2084605D01*
X7152687Y-2551919D01*
X4165190Y-2551919D01*
X4325486Y-2312020D01*
X4528429Y-1822071D01*
X6730557Y-1822071D01*
X6731469Y-1997186D01*
X6766526Y-2168759D01*
X6829996Y-2321991D01*
X6973081Y-2372313D01*
X7440395Y-1905000D01*
X6973081Y-1437687D01*
X6829996Y-1488009D01*
X6763825Y-1650143D01*
X6730557Y-1822071D01*
X4528429Y-1822071D01*
X4649004Y-1530978D01*
X4661299Y-1571508D01*
X4696678Y-1637696D01*
X4744289Y-1695711D01*
X4802304Y-1743322D01*
X4868492Y-1778701D01*
X4940311Y-1800487D01*
X5015000Y-1807843D01*
X5492750Y-1806000D01*
X5588000Y-1710750D01*
X5588000Y-1064500D01*
X5568000Y-1064500D01*
X5568000Y-810500D01*
X5588000Y-810500D01*
X5588000Y-164250D01*
X5492750Y-69000D01*
X5015000Y-67157D01*
X4940311Y-74513D01*
X4881000Y-92505D01*
X4881000Y197077D01*
X4910634Y172757D01*
X5018963Y114854D01*
X5136508Y79197D01*
X5258750Y67157D01*
X6171250Y67157D01*
X6293492Y79197D01*
X6411037Y114854D01*
X6519366Y172757D01*
X6614318Y250682D01*
X6692243Y345634D01*
X6749744Y453210D01*
X6765164Y375688D01*
G36*
X-23618753Y5221143D02*
G01*
X-23632895Y5207000D01*
X-22484865Y4058970D01*
X-22474046Y4066424D01*
X-22453243Y3961839D01*
X-22334064Y3674116D01*
X-22161043Y3415171D01*
X-21940829Y3194957D01*
X-21681884Y3021936D01*
X-21394161Y2902757D01*
X-21088715Y2842000D01*
X-20777285Y2842000D01*
X-20471839Y2902757D01*
X-20428878Y2920552D01*
X-20835486Y2312020D01*
X-21203426Y1423735D01*
X-21391000Y480737D01*
X-21391000Y-480737D01*
X-21203426Y-1423735D01*
X-20835486Y-2312020D01*
X-20428878Y-2920552D01*
X-20471839Y-2902757D01*
X-20777285Y-2842000D01*
X-21088715Y-2842000D01*
X-21394161Y-2902757D01*
X-21681884Y-3021936D01*
X-21940829Y-3194957D01*
X-22161043Y-3415171D01*
X-22334064Y-3674116D01*
X-22453243Y-3961839D01*
X-22474046Y-4066424D01*
X-22484865Y-4058970D01*
X-23632895Y-5207000D01*
X-23618753Y-5221143D01*
X-23798358Y-5400748D01*
X-23812500Y-5386605D01*
X-23826643Y-5400748D01*
X-24006248Y-5221143D01*
X-23992105Y-5207000D01*
X-24006248Y-5192858D01*
X-23826643Y-5013253D01*
X-23812500Y-5027395D01*
X-22664470Y-3879365D01*
X-22758931Y-3742262D01*
X-22699075Y-3668822D01*
X-22678677Y-3638098D01*
X-22657901Y-3607734D01*
X-22655203Y-3602742D01*
X-22585429Y-3471410D01*
X-22571396Y-3437330D01*
X-22556905Y-3403489D01*
X-22555229Y-3398069D01*
X-22512293Y-3255684D01*
X-22505146Y-3219527D01*
X-22497505Y-3183520D01*
X-22496913Y-3177876D01*
X-22485473Y-3060802D01*
X-22480524Y-3010556D01*
X-22480524Y3010556D01*
X-22481335Y3018787D01*
X-22483280Y3067627D01*
X-22486733Y3092570D01*
X-22488393Y3117697D01*
X-22489357Y3123289D01*
X-22515644Y3269664D01*
X-22525662Y3305110D01*
X-22535183Y3340691D01*
X-22537215Y3345989D01*
X-22591432Y3484470D01*
X-22608151Y3517311D01*
X-22624395Y3550349D01*
X-22627416Y3555152D01*
X-22707498Y3680465D01*
X-22730281Y3709436D01*
X-22752630Y3738688D01*
X-22756527Y3742812D01*
X-22757705Y3744041D01*
X-22664470Y3879365D01*
X-23812500Y5027395D01*
X-23826643Y5013253D01*
X-24006248Y5192858D01*
X-23992105Y5207000D01*
X-24006248Y5221143D01*
X-23826643Y5400748D01*
X-23812500Y5386605D01*
X-23798358Y5400748D01*
X-23618753Y5221143D01*
X-23618753Y5221143D01*
G37*
X-23618753Y5221143D02*
X-23632895Y5207000D01*
X-22484865Y4058970D01*
X-22474046Y4066424D01*
X-22453243Y3961839D01*
X-22334064Y3674116D01*
X-22161043Y3415171D01*
X-21940829Y3194957D01*
X-21681884Y3021936D01*
X-21394161Y2902757D01*
X-21088715Y2842000D01*
X-20777285Y2842000D01*
X-20471839Y2902757D01*
X-20428878Y2920552D01*
X-20835486Y2312020D01*
X-21203426Y1423735D01*
X-21391000Y480737D01*
X-21391000Y-480737D01*
X-21203426Y-1423735D01*
X-20835486Y-2312020D01*
X-20428878Y-2920552D01*
X-20471839Y-2902757D01*
X-20777285Y-2842000D01*
X-21088715Y-2842000D01*
X-21394161Y-2902757D01*
X-21681884Y-3021936D01*
X-21940829Y-3194957D01*
X-22161043Y-3415171D01*
X-22334064Y-3674116D01*
X-22453243Y-3961839D01*
X-22474046Y-4066424D01*
X-22484865Y-4058970D01*
X-23632895Y-5207000D01*
X-23618753Y-5221143D01*
X-23798358Y-5400748D01*
X-23812500Y-5386605D01*
X-23826643Y-5400748D01*
X-24006248Y-5221143D01*
X-23992105Y-5207000D01*
X-24006248Y-5192858D01*
X-23826643Y-5013253D01*
X-23812500Y-5027395D01*
X-22664470Y-3879365D01*
X-22758931Y-3742262D01*
X-22699075Y-3668822D01*
X-22678677Y-3638098D01*
X-22657901Y-3607734D01*
X-22655203Y-3602742D01*
X-22585429Y-3471410D01*
X-22571396Y-3437330D01*
X-22556905Y-3403489D01*
X-22555229Y-3398069D01*
X-22512293Y-3255684D01*
X-22505146Y-3219527D01*
X-22497505Y-3183520D01*
X-22496913Y-3177876D01*
X-22485473Y-3060802D01*
X-22480524Y-3010556D01*
X-22480524Y3010556D01*
X-22481335Y3018787D01*
X-22483280Y3067627D01*
X-22486733Y3092570D01*
X-22488393Y3117697D01*
X-22489357Y3123289D01*
X-22515644Y3269664D01*
X-22525662Y3305110D01*
X-22535183Y3340691D01*
X-22537215Y3345989D01*
X-22591432Y3484470D01*
X-22608151Y3517311D01*
X-22624395Y3550349D01*
X-22627416Y3555152D01*
X-22707498Y3680465D01*
X-22730281Y3709436D01*
X-22752630Y3738688D01*
X-22756527Y3742812D01*
X-22757705Y3744041D01*
X-22664470Y3879365D01*
X-23812500Y5027395D01*
X-23826643Y5013253D01*
X-24006248Y5192858D01*
X-23992105Y5207000D01*
X-24006248Y5221143D01*
X-23826643Y5400748D01*
X-23812500Y5386605D01*
X-23798358Y5400748D01*
X-23618753Y5221143D01*
G36*
X24006248Y5221143D02*
G01*
X23992105Y5207000D01*
X24006248Y5192858D01*
X23826643Y5013253D01*
X23812500Y5027395D01*
X22664470Y3879365D01*
X22758930Y3742262D01*
X22699075Y3668822D01*
X22678704Y3638140D01*
X22657900Y3607734D01*
X22655203Y3602742D01*
X22585429Y3471410D01*
X22571405Y3437353D01*
X22556905Y3403490D01*
X22555229Y3398069D01*
X22512293Y3255685D01*
X22505145Y3219520D01*
X22497505Y3183520D01*
X22496913Y3177876D01*
X22485505Y3061130D01*
X22480524Y3010555D01*
X22480525Y19960D01*
X22480524Y-3010555D01*
X22481335Y-3018786D01*
X22483280Y-3067627D01*
X22486734Y-3092579D01*
X22488394Y-3117697D01*
X22489357Y-3123289D01*
X22515644Y-3269664D01*
X22525662Y-3305110D01*
X22535183Y-3340691D01*
X22537215Y-3345989D01*
X22591432Y-3484470D01*
X22608142Y-3517293D01*
X22624394Y-3550349D01*
X22627416Y-3555152D01*
X22707498Y-3680465D01*
X22730276Y-3709430D01*
X22752629Y-3738687D01*
X22756526Y-3742812D01*
X22757704Y-3744042D01*
X22664470Y-3879365D01*
X23812500Y-5027395D01*
X23826643Y-5013253D01*
X24006248Y-5192858D01*
X23992105Y-5207000D01*
X24006248Y-5221143D01*
X23826643Y-5400748D01*
X23812500Y-5386605D01*
X23798358Y-5400748D01*
X23618753Y-5221143D01*
X23632895Y-5207000D01*
X22484865Y-4058970D01*
X22474046Y-4066424D01*
X22453243Y-3961839D01*
X22334064Y-3674116D01*
X22161043Y-3415171D01*
X21940829Y-3194957D01*
X21681884Y-3021936D01*
X21394161Y-2902757D01*
X21088715Y-2842000D01*
X20777285Y-2842000D01*
X20471839Y-2902757D01*
X20428878Y-2920552D01*
X20835486Y-2312020D01*
X21203426Y-1423735D01*
X21391000Y-480737D01*
X21391000Y480737D01*
X21203426Y1423735D01*
X20835486Y2312020D01*
X20428878Y2920552D01*
X20471839Y2902757D01*
X20777285Y2842000D01*
X21088715Y2842000D01*
X21394161Y2902757D01*
X21681884Y3021936D01*
X21940829Y3194957D01*
X22161043Y3415171D01*
X22334064Y3674116D01*
X22453243Y3961839D01*
X22474046Y4066424D01*
X22484865Y4058970D01*
X23632895Y5207000D01*
X23618753Y5221143D01*
X23798358Y5400748D01*
X23812500Y5386605D01*
X23826643Y5400748D01*
X24006248Y5221143D01*
X24006248Y5221143D01*
G37*
X24006248Y5221143D02*
X23992105Y5207000D01*
X24006248Y5192858D01*
X23826643Y5013253D01*
X23812500Y5027395D01*
X22664470Y3879365D01*
X22758930Y3742262D01*
X22699075Y3668822D01*
X22678704Y3638140D01*
X22657900Y3607734D01*
X22655203Y3602742D01*
X22585429Y3471410D01*
X22571405Y3437353D01*
X22556905Y3403490D01*
X22555229Y3398069D01*
X22512293Y3255685D01*
X22505145Y3219520D01*
X22497505Y3183520D01*
X22496913Y3177876D01*
X22485505Y3061130D01*
X22480524Y3010555D01*
X22480525Y19960D01*
X22480524Y-3010555D01*
X22481335Y-3018786D01*
X22483280Y-3067627D01*
X22486734Y-3092579D01*
X22488394Y-3117697D01*
X22489357Y-3123289D01*
X22515644Y-3269664D01*
X22525662Y-3305110D01*
X22535183Y-3340691D01*
X22537215Y-3345989D01*
X22591432Y-3484470D01*
X22608142Y-3517293D01*
X22624394Y-3550349D01*
X22627416Y-3555152D01*
X22707498Y-3680465D01*
X22730276Y-3709430D01*
X22752629Y-3738687D01*
X22756526Y-3742812D01*
X22757704Y-3744042D01*
X22664470Y-3879365D01*
X23812500Y-5027395D01*
X23826643Y-5013253D01*
X24006248Y-5192858D01*
X23992105Y-5207000D01*
X24006248Y-5221143D01*
X23826643Y-5400748D01*
X23812500Y-5386605D01*
X23798358Y-5400748D01*
X23618753Y-5221143D01*
X23632895Y-5207000D01*
X22484865Y-4058970D01*
X22474046Y-4066424D01*
X22453243Y-3961839D01*
X22334064Y-3674116D01*
X22161043Y-3415171D01*
X21940829Y-3194957D01*
X21681884Y-3021936D01*
X21394161Y-2902757D01*
X21088715Y-2842000D01*
X20777285Y-2842000D01*
X20471839Y-2902757D01*
X20428878Y-2920552D01*
X20835486Y-2312020D01*
X21203426Y-1423735D01*
X21391000Y-480737D01*
X21391000Y480737D01*
X21203426Y1423735D01*
X20835486Y2312020D01*
X20428878Y2920552D01*
X20471839Y2902757D01*
X20777285Y2842000D01*
X21088715Y2842000D01*
X21394161Y2902757D01*
X21681884Y3021936D01*
X21940829Y3194957D01*
X22161043Y3415171D01*
X22334064Y3674116D01*
X22453243Y3961839D01*
X22474046Y4066424D01*
X22484865Y4058970D01*
X23632895Y5207000D01*
X23618753Y5221143D01*
X23798358Y5400748D01*
X23812500Y5386605D01*
X23826643Y5400748D01*
X24006248Y5221143D01*
G36*
X-8255000Y5132605D02*
G01*
X-7126505Y6261100D01*
X7126505Y6261100D01*
X8255000Y5132605D01*
X9383495Y6261100D01*
X22348532Y6261100D01*
X22244368Y6189334D01*
X22082855Y5864531D01*
X22006944Y5584928D01*
X21940829Y5651043D01*
X21681884Y5824064D01*
X21394161Y5943243D01*
X21088715Y6004000D01*
X20777285Y6004000D01*
X20471839Y5943243D01*
X20184116Y5824064D01*
X19925171Y5651043D01*
X19704957Y5430829D01*
X19531936Y5171884D01*
X19412757Y4884161D01*
X19352000Y4578715D01*
X19352000Y4267285D01*
X19412757Y3961839D01*
X19430552Y3918878D01*
X18822020Y4325486D01*
X17933735Y4693426D01*
X16990737Y4881000D01*
X16029263Y4881000D01*
X15086265Y4693426D01*
X14197980Y4325486D01*
X13589448Y3918878D01*
X13607243Y3961839D01*
X13668000Y4267285D01*
X13668000Y4578715D01*
X13607243Y4884161D01*
X13488064Y5171884D01*
X13315043Y5430829D01*
X13094829Y5651043D01*
X12835884Y5824064D01*
X12548161Y5943243D01*
X12242715Y6004000D01*
X11931285Y6004000D01*
X11625839Y5943243D01*
X11338116Y5824064D01*
X11079171Y5651043D01*
X10858957Y5430829D01*
X10685936Y5171884D01*
X10566757Y4884161D01*
X10506000Y4578715D01*
X10506000Y4267285D01*
X10566757Y3961839D01*
X10685936Y3674116D01*
X10858957Y3415171D01*
X11079171Y3194957D01*
X11338116Y3021936D01*
X11625839Y2902757D01*
X11931285Y2842000D01*
X12242715Y2842000D01*
X12548161Y2902757D01*
X12591122Y2920552D01*
X12184514Y2312020D01*
X11821870Y1436520D01*
X11772243Y1529366D01*
X11694318Y1624318D01*
X11599366Y1702243D01*
X11491037Y1760146D01*
X11373492Y1795803D01*
X11301000Y1802943D01*
X11301000Y2725975D01*
X11303447Y2750821D01*
X11301000Y2775667D01*
X11301000Y2775674D01*
X11293678Y2850013D01*
X11285789Y2876022D01*
X11264745Y2945395D01*
X11256990Y2959903D01*
X11217759Y3033299D01*
X11154527Y3110347D01*
X11135220Y3126192D01*
X10520136Y3741275D01*
X10504287Y3760587D01*
X10427239Y3823819D01*
X10339335Y3870805D01*
X10243953Y3899738D01*
X10169614Y3907060D01*
X10169606Y3907060D01*
X10144760Y3909507D01*
X10119914Y3907060D01*
X9730812Y3907060D01*
X9823132Y3970666D01*
X9984645Y4295469D01*
X10079688Y4645540D01*
X10104610Y5007427D01*
X10058452Y5367222D01*
X9942988Y5711099D01*
X9823132Y5935334D01*
X9582635Y6101030D01*
X8434605Y4953000D01*
X8448748Y4938858D01*
X8269143Y4759253D01*
X8255000Y4773395D01*
X7106970Y3625365D01*
X7272666Y3384868D01*
X7597469Y3223355D01*
X7947540Y3128312D01*
X8309427Y3103390D01*
X8422880Y3117945D01*
X8420255Y3113034D01*
X8391322Y3017652D01*
X8384000Y2943313D01*
X8384000Y2943306D01*
X8381553Y2918460D01*
X8384000Y2893613D01*
X8384000Y2636092D01*
X8323296Y2595531D01*
X8255000Y2527235D01*
X8186704Y2595531D01*
X8041099Y2692821D01*
X7879312Y2759836D01*
X7707559Y2794000D01*
X7532441Y2794000D01*
X7360688Y2759836D01*
X7198901Y2692821D01*
X7053296Y2595531D01*
X6929469Y2471704D01*
X6888908Y2411000D01*
X6119845Y2411000D01*
X6094999Y2413447D01*
X6070153Y2411000D01*
X6070146Y2411000D01*
X6005694Y2404652D01*
X5995806Y2403678D01*
X5954981Y2391294D01*
X5900425Y2374745D01*
X5812521Y2327759D01*
X5735473Y2264527D01*
X5719630Y2245222D01*
X5374780Y1900371D01*
X5355474Y1884527D01*
X5292541Y1807843D01*
X5258750Y1807843D01*
X5136508Y1795803D01*
X5018963Y1760146D01*
X4910634Y1702243D01*
X4815682Y1624318D01*
X4737757Y1529366D01*
X4688130Y1436520D01*
X4325486Y2312020D01*
X3918878Y2920552D01*
X3961839Y2902757D01*
X4267285Y2842000D01*
X4578715Y2842000D01*
X4884161Y2902757D01*
X5171884Y3021936D01*
X5430829Y3194957D01*
X5651043Y3415171D01*
X5824064Y3674116D01*
X5943243Y3961839D01*
X6004000Y4267285D01*
X6004000Y4578715D01*
X5943243Y4884161D01*
X5937274Y4898573D01*
X6405390Y4898573D01*
X6451548Y4538778D01*
X6567012Y4194901D01*
X6686868Y3970666D01*
X6927365Y3804970D01*
X8075395Y4953000D01*
X6927365Y6101030D01*
X6686868Y5935334D01*
X6525355Y5610531D01*
X6430312Y5260460D01*
X6405390Y4898573D01*
X5937274Y4898573D01*
X5824064Y5171884D01*
X5651043Y5430829D01*
X5430829Y5651043D01*
X5171884Y5824064D01*
X4884161Y5943243D01*
X4578715Y6004000D01*
X4267285Y6004000D01*
X3961839Y5943243D01*
X3674116Y5824064D01*
X3415171Y5651043D01*
X3194957Y5430829D01*
X3021936Y5171884D01*
X2902757Y4884161D01*
X2842000Y4578715D01*
X2842000Y4267285D01*
X2902757Y3961839D01*
X2920552Y3918878D01*
X2312020Y4325486D01*
X1423735Y4693426D01*
X480737Y4881000D01*
X-480737Y4881000D01*
X-1423735Y4693426D01*
X-2312020Y4325486D01*
X-2920552Y3918878D01*
X-2902757Y3961839D01*
X-2842000Y4267285D01*
X-2842000Y4578715D01*
X-2902757Y4884161D01*
X-3021936Y5171884D01*
X-3194957Y5430829D01*
X-3415171Y5651043D01*
X-3674116Y5824064D01*
X-3961839Y5943243D01*
X-4267285Y6004000D01*
X-4578715Y6004000D01*
X-4884161Y5943243D01*
X-5171884Y5824064D01*
X-5430829Y5651043D01*
X-5651043Y5430829D01*
X-5824064Y5171884D01*
X-5943243Y4884161D01*
X-6004000Y4578715D01*
X-6004000Y4267285D01*
X-5943243Y3961839D01*
X-5824064Y3674116D01*
X-5651043Y3415171D01*
X-5430829Y3194957D01*
X-5171884Y3021936D01*
X-4884161Y2902757D01*
X-4578715Y2842000D01*
X-4267285Y2842000D01*
X-3961839Y2902757D01*
X-3918878Y2920552D01*
X-4325486Y2312020D01*
X-4688130Y1436520D01*
X-4737757Y1529366D01*
X-4815682Y1624318D01*
X-4910634Y1702243D01*
X-5018963Y1760146D01*
X-5136508Y1795803D01*
X-5258750Y1807843D01*
X-5869752Y1807843D01*
X-6307124Y2245215D01*
X-6322973Y2264527D01*
X-6400021Y2327759D01*
X-6487925Y2374745D01*
X-6583307Y2403678D01*
X-6657646Y2411000D01*
X-6657654Y2411000D01*
X-6682500Y2413447D01*
X-6707346Y2411000D01*
X-6888908Y2411000D01*
X-6929469Y2471704D01*
X-7053296Y2595531D01*
X-7198901Y2692821D01*
X-7360688Y2759836D01*
X-7532441Y2794000D01*
X-7707559Y2794000D01*
X-7779165Y2779756D01*
X-8077625Y3078216D01*
X-8093474Y3097528D01*
X-8114130Y3114480D01*
X-7840778Y3149548D01*
X-7496901Y3265012D01*
X-7272666Y3384868D01*
X-7106970Y3625365D01*
X-8255000Y4773395D01*
X-9403030Y3625365D01*
X-9237334Y3384868D01*
X-8954050Y3244001D01*
X-9264996Y3244001D01*
X-9289842Y3246448D01*
X-9314688Y3244001D01*
X-9314695Y3244001D01*
X-9379147Y3237653D01*
X-9389035Y3236679D01*
X-9403292Y3232354D01*
X-9484416Y3207746D01*
X-9572320Y3160760D01*
X-9649368Y3097528D01*
X-9665213Y3078221D01*
X-10578983Y2164450D01*
X-10598289Y2148606D01*
X-10661521Y2071558D01*
X-10681891Y2033448D01*
X-10708508Y1983653D01*
X-10728664Y1917205D01*
X-10737441Y1888272D01*
X-10744763Y1813933D01*
X-10744763Y1813925D01*
X-10745362Y1807843D01*
X-11251250Y1807843D01*
X-11373492Y1795803D01*
X-11491037Y1760146D01*
X-11599366Y1702243D01*
X-11694318Y1624318D01*
X-11772243Y1529366D01*
X-11821870Y1436520D01*
X-12184514Y2312020D01*
X-12591122Y2920552D01*
X-12548161Y2902757D01*
X-12242715Y2842000D01*
X-11931285Y2842000D01*
X-11625839Y2902757D01*
X-11338116Y3021936D01*
X-11079171Y3194957D01*
X-10858957Y3415171D01*
X-10685936Y3674116D01*
X-10566757Y3961839D01*
X-10506000Y4267285D01*
X-10506000Y4578715D01*
X-10566757Y4884161D01*
X-10572726Y4898573D01*
X-10104610Y4898573D01*
X-10058452Y4538778D01*
X-9942988Y4194901D01*
X-9823132Y3970666D01*
X-9582635Y3804970D01*
X-8434605Y4953000D01*
X-8075395Y4953000D01*
X-6927365Y3804970D01*
X-6686868Y3970666D01*
X-6525355Y4295469D01*
X-6430312Y4645540D01*
X-6405390Y5007427D01*
X-6451548Y5367222D01*
X-6567012Y5711099D01*
X-6686868Y5935334D01*
X-6927365Y6101030D01*
X-8075395Y4953000D01*
X-8434605Y4953000D01*
X-9582635Y6101030D01*
X-9823132Y5935334D01*
X-9984645Y5610531D01*
X-10079688Y5260460D01*
X-10104610Y4898573D01*
X-10572726Y4898573D01*
X-10685936Y5171884D01*
X-10858957Y5430829D01*
X-11079171Y5651043D01*
X-11338116Y5824064D01*
X-11625839Y5943243D01*
X-11931285Y6004000D01*
X-12242715Y6004000D01*
X-12548161Y5943243D01*
X-12835884Y5824064D01*
X-13094829Y5651043D01*
X-13315043Y5430829D01*
X-13488064Y5171884D01*
X-13607243Y4884161D01*
X-13668000Y4578715D01*
X-13668000Y4267285D01*
X-13607243Y3961839D01*
X-13589448Y3918878D01*
X-14197980Y4325486D01*
X-15086265Y4693426D01*
X-16029263Y4881000D01*
X-16990737Y4881000D01*
X-17933735Y4693426D01*
X-18822020Y4325486D01*
X-19430552Y3918878D01*
X-19412757Y3961839D01*
X-19352000Y4267285D01*
X-19352000Y4578715D01*
X-19412757Y4884161D01*
X-19531936Y5171884D01*
X-19704957Y5430829D01*
X-19925171Y5651043D01*
X-20184116Y5824064D01*
X-20471839Y5943243D01*
X-20777285Y6004000D01*
X-21088715Y6004000D01*
X-21394161Y5943243D01*
X-21681884Y5824064D01*
X-21940829Y5651043D01*
X-22004682Y5587190D01*
X-22009048Y5621222D01*
X-22124512Y5965099D01*
X-22244368Y6189334D01*
X-22348532Y6261100D01*
X-9383495Y6261100D01*
X-8255000Y5132605D01*
X-8255000Y5132605D01*
G37*
X-8255000Y5132605D02*
X-7126505Y6261100D01*
X7126505Y6261100D01*
X8255000Y5132605D01*
X9383495Y6261100D01*
X22348532Y6261100D01*
X22244368Y6189334D01*
X22082855Y5864531D01*
X22006944Y5584928D01*
X21940829Y5651043D01*
X21681884Y5824064D01*
X21394161Y5943243D01*
X21088715Y6004000D01*
X20777285Y6004000D01*
X20471839Y5943243D01*
X20184116Y5824064D01*
X19925171Y5651043D01*
X19704957Y5430829D01*
X19531936Y5171884D01*
X19412757Y4884161D01*
X19352000Y4578715D01*
X19352000Y4267285D01*
X19412757Y3961839D01*
X19430552Y3918878D01*
X18822020Y4325486D01*
X17933735Y4693426D01*
X16990737Y4881000D01*
X16029263Y4881000D01*
X15086265Y4693426D01*
X14197980Y4325486D01*
X13589448Y3918878D01*
X13607243Y3961839D01*
X13668000Y4267285D01*
X13668000Y4578715D01*
X13607243Y4884161D01*
X13488064Y5171884D01*
X13315043Y5430829D01*
X13094829Y5651043D01*
X12835884Y5824064D01*
X12548161Y5943243D01*
X12242715Y6004000D01*
X11931285Y6004000D01*
X11625839Y5943243D01*
X11338116Y5824064D01*
X11079171Y5651043D01*
X10858957Y5430829D01*
X10685936Y5171884D01*
X10566757Y4884161D01*
X10506000Y4578715D01*
X10506000Y4267285D01*
X10566757Y3961839D01*
X10685936Y3674116D01*
X10858957Y3415171D01*
X11079171Y3194957D01*
X11338116Y3021936D01*
X11625839Y2902757D01*
X11931285Y2842000D01*
X12242715Y2842000D01*
X12548161Y2902757D01*
X12591122Y2920552D01*
X12184514Y2312020D01*
X11821870Y1436520D01*
X11772243Y1529366D01*
X11694318Y1624318D01*
X11599366Y1702243D01*
X11491037Y1760146D01*
X11373492Y1795803D01*
X11301000Y1802943D01*
X11301000Y2725975D01*
X11303447Y2750821D01*
X11301000Y2775667D01*
X11301000Y2775674D01*
X11293678Y2850013D01*
X11285789Y2876022D01*
X11264745Y2945395D01*
X11256990Y2959903D01*
X11217759Y3033299D01*
X11154527Y3110347D01*
X11135220Y3126192D01*
X10520136Y3741275D01*
X10504287Y3760587D01*
X10427239Y3823819D01*
X10339335Y3870805D01*
X10243953Y3899738D01*
X10169614Y3907060D01*
X10169606Y3907060D01*
X10144760Y3909507D01*
X10119914Y3907060D01*
X9730812Y3907060D01*
X9823132Y3970666D01*
X9984645Y4295469D01*
X10079688Y4645540D01*
X10104610Y5007427D01*
X10058452Y5367222D01*
X9942988Y5711099D01*
X9823132Y5935334D01*
X9582635Y6101030D01*
X8434605Y4953000D01*
X8448748Y4938858D01*
X8269143Y4759253D01*
X8255000Y4773395D01*
X7106970Y3625365D01*
X7272666Y3384868D01*
X7597469Y3223355D01*
X7947540Y3128312D01*
X8309427Y3103390D01*
X8422880Y3117945D01*
X8420255Y3113034D01*
X8391322Y3017652D01*
X8384000Y2943313D01*
X8384000Y2943306D01*
X8381553Y2918460D01*
X8384000Y2893613D01*
X8384000Y2636092D01*
X8323296Y2595531D01*
X8255000Y2527235D01*
X8186704Y2595531D01*
X8041099Y2692821D01*
X7879312Y2759836D01*
X7707559Y2794000D01*
X7532441Y2794000D01*
X7360688Y2759836D01*
X7198901Y2692821D01*
X7053296Y2595531D01*
X6929469Y2471704D01*
X6888908Y2411000D01*
X6119845Y2411000D01*
X6094999Y2413447D01*
X6070153Y2411000D01*
X6070146Y2411000D01*
X6005694Y2404652D01*
X5995806Y2403678D01*
X5954981Y2391294D01*
X5900425Y2374745D01*
X5812521Y2327759D01*
X5735473Y2264527D01*
X5719630Y2245222D01*
X5374780Y1900371D01*
X5355474Y1884527D01*
X5292541Y1807843D01*
X5258750Y1807843D01*
X5136508Y1795803D01*
X5018963Y1760146D01*
X4910634Y1702243D01*
X4815682Y1624318D01*
X4737757Y1529366D01*
X4688130Y1436520D01*
X4325486Y2312020D01*
X3918878Y2920552D01*
X3961839Y2902757D01*
X4267285Y2842000D01*
X4578715Y2842000D01*
X4884161Y2902757D01*
X5171884Y3021936D01*
X5430829Y3194957D01*
X5651043Y3415171D01*
X5824064Y3674116D01*
X5943243Y3961839D01*
X6004000Y4267285D01*
X6004000Y4578715D01*
X5943243Y4884161D01*
X5937274Y4898573D01*
X6405390Y4898573D01*
X6451548Y4538778D01*
X6567012Y4194901D01*
X6686868Y3970666D01*
X6927365Y3804970D01*
X8075395Y4953000D01*
X6927365Y6101030D01*
X6686868Y5935334D01*
X6525355Y5610531D01*
X6430312Y5260460D01*
X6405390Y4898573D01*
X5937274Y4898573D01*
X5824064Y5171884D01*
X5651043Y5430829D01*
X5430829Y5651043D01*
X5171884Y5824064D01*
X4884161Y5943243D01*
X4578715Y6004000D01*
X4267285Y6004000D01*
X3961839Y5943243D01*
X3674116Y5824064D01*
X3415171Y5651043D01*
X3194957Y5430829D01*
X3021936Y5171884D01*
X2902757Y4884161D01*
X2842000Y4578715D01*
X2842000Y4267285D01*
X2902757Y3961839D01*
X2920552Y3918878D01*
X2312020Y4325486D01*
X1423735Y4693426D01*
X480737Y4881000D01*
X-480737Y4881000D01*
X-1423735Y4693426D01*
X-2312020Y4325486D01*
X-2920552Y3918878D01*
X-2902757Y3961839D01*
X-2842000Y4267285D01*
X-2842000Y4578715D01*
X-2902757Y4884161D01*
X-3021936Y5171884D01*
X-3194957Y5430829D01*
X-3415171Y5651043D01*
X-3674116Y5824064D01*
X-3961839Y5943243D01*
X-4267285Y6004000D01*
X-4578715Y6004000D01*
X-4884161Y5943243D01*
X-5171884Y5824064D01*
X-5430829Y5651043D01*
X-5651043Y5430829D01*
X-5824064Y5171884D01*
X-5943243Y4884161D01*
X-6004000Y4578715D01*
X-6004000Y4267285D01*
X-5943243Y3961839D01*
X-5824064Y3674116D01*
X-5651043Y3415171D01*
X-5430829Y3194957D01*
X-5171884Y3021936D01*
X-4884161Y2902757D01*
X-4578715Y2842000D01*
X-4267285Y2842000D01*
X-3961839Y2902757D01*
X-3918878Y2920552D01*
X-4325486Y2312020D01*
X-4688130Y1436520D01*
X-4737757Y1529366D01*
X-4815682Y1624318D01*
X-4910634Y1702243D01*
X-5018963Y1760146D01*
X-5136508Y1795803D01*
X-5258750Y1807843D01*
X-5869752Y1807843D01*
X-6307124Y2245215D01*
X-6322973Y2264527D01*
X-6400021Y2327759D01*
X-6487925Y2374745D01*
X-6583307Y2403678D01*
X-6657646Y2411000D01*
X-6657654Y2411000D01*
X-6682500Y2413447D01*
X-6707346Y2411000D01*
X-6888908Y2411000D01*
X-6929469Y2471704D01*
X-7053296Y2595531D01*
X-7198901Y2692821D01*
X-7360688Y2759836D01*
X-7532441Y2794000D01*
X-7707559Y2794000D01*
X-7779165Y2779756D01*
X-8077625Y3078216D01*
X-8093474Y3097528D01*
X-8114130Y3114480D01*
X-7840778Y3149548D01*
X-7496901Y3265012D01*
X-7272666Y3384868D01*
X-7106970Y3625365D01*
X-8255000Y4773395D01*
X-9403030Y3625365D01*
X-9237334Y3384868D01*
X-8954050Y3244001D01*
X-9264996Y3244001D01*
X-9289842Y3246448D01*
X-9314688Y3244001D01*
X-9314695Y3244001D01*
X-9379147Y3237653D01*
X-9389035Y3236679D01*
X-9403292Y3232354D01*
X-9484416Y3207746D01*
X-9572320Y3160760D01*
X-9649368Y3097528D01*
X-9665213Y3078221D01*
X-10578983Y2164450D01*
X-10598289Y2148606D01*
X-10661521Y2071558D01*
X-10681891Y2033448D01*
X-10708508Y1983653D01*
X-10728664Y1917205D01*
X-10737441Y1888272D01*
X-10744763Y1813933D01*
X-10744763Y1813925D01*
X-10745362Y1807843D01*
X-11251250Y1807843D01*
X-11373492Y1795803D01*
X-11491037Y1760146D01*
X-11599366Y1702243D01*
X-11694318Y1624318D01*
X-11772243Y1529366D01*
X-11821870Y1436520D01*
X-12184514Y2312020D01*
X-12591122Y2920552D01*
X-12548161Y2902757D01*
X-12242715Y2842000D01*
X-11931285Y2842000D01*
X-11625839Y2902757D01*
X-11338116Y3021936D01*
X-11079171Y3194957D01*
X-10858957Y3415171D01*
X-10685936Y3674116D01*
X-10566757Y3961839D01*
X-10506000Y4267285D01*
X-10506000Y4578715D01*
X-10566757Y4884161D01*
X-10572726Y4898573D01*
X-10104610Y4898573D01*
X-10058452Y4538778D01*
X-9942988Y4194901D01*
X-9823132Y3970666D01*
X-9582635Y3804970D01*
X-8434605Y4953000D01*
X-8075395Y4953000D01*
X-6927365Y3804970D01*
X-6686868Y3970666D01*
X-6525355Y4295469D01*
X-6430312Y4645540D01*
X-6405390Y5007427D01*
X-6451548Y5367222D01*
X-6567012Y5711099D01*
X-6686868Y5935334D01*
X-6927365Y6101030D01*
X-8075395Y4953000D01*
X-8434605Y4953000D01*
X-9582635Y6101030D01*
X-9823132Y5935334D01*
X-9984645Y5610531D01*
X-10079688Y5260460D01*
X-10104610Y4898573D01*
X-10572726Y4898573D01*
X-10685936Y5171884D01*
X-10858957Y5430829D01*
X-11079171Y5651043D01*
X-11338116Y5824064D01*
X-11625839Y5943243D01*
X-11931285Y6004000D01*
X-12242715Y6004000D01*
X-12548161Y5943243D01*
X-12835884Y5824064D01*
X-13094829Y5651043D01*
X-13315043Y5430829D01*
X-13488064Y5171884D01*
X-13607243Y4884161D01*
X-13668000Y4578715D01*
X-13668000Y4267285D01*
X-13607243Y3961839D01*
X-13589448Y3918878D01*
X-14197980Y4325486D01*
X-15086265Y4693426D01*
X-16029263Y4881000D01*
X-16990737Y4881000D01*
X-17933735Y4693426D01*
X-18822020Y4325486D01*
X-19430552Y3918878D01*
X-19412757Y3961839D01*
X-19352000Y4267285D01*
X-19352000Y4578715D01*
X-19412757Y4884161D01*
X-19531936Y5171884D01*
X-19704957Y5430829D01*
X-19925171Y5651043D01*
X-20184116Y5824064D01*
X-20471839Y5943243D01*
X-20777285Y6004000D01*
X-21088715Y6004000D01*
X-21394161Y5943243D01*
X-21681884Y5824064D01*
X-21940829Y5651043D01*
X-22004682Y5587190D01*
X-22009048Y5621222D01*
X-22124512Y5965099D01*
X-22244368Y6189334D01*
X-22348532Y6261100D01*
X-9383495Y6261100D01*
X-8255000Y5132605D01*
M02*
