G04 #@! TF.GenerationSoftware,KiCad,Pcbnew,(5.1.4)-1*
G04 #@! TF.CreationDate,2019-10-25T22:43:12-07:00*
G04 #@! TF.ProjectId,SkateLightLEDBoard1.0,536b6174-654c-4696-9768-744c4544426f,rev?*
G04 #@! TF.SameCoordinates,Original*
G04 #@! TF.FileFunction,Legend,Top*
G04 #@! TF.FilePolarity,Positive*
%FSLAX46Y46*%
G04 Gerber Fmt 4.6, Leading zero omitted, Abs format (unit mm)*
G04 Created by KiCad (PCBNEW (5.1.4)-1) date 2019-10-25 22:43:12*
%MOMM*%
%LPD*%
G04 APERTURE LIST*
%ADD10C,0.127000*%
%ADD11C,0.120000*%
%ADD12C,0.150000*%
G04 APERTURE END LIST*
D10*
X19884571Y6277428D02*
X19775714Y6313714D01*
X19594285Y6313714D01*
X19521714Y6277428D01*
X19485428Y6241142D01*
X19449142Y6168571D01*
X19449142Y6096000D01*
X19485428Y6023428D01*
X19521714Y5987142D01*
X19594285Y5950857D01*
X19739428Y5914571D01*
X19812000Y5878285D01*
X19848285Y5842000D01*
X19884571Y5769428D01*
X19884571Y5696857D01*
X19848285Y5624285D01*
X19812000Y5588000D01*
X19739428Y5551714D01*
X19558000Y5551714D01*
X19449142Y5588000D01*
X18759714Y6313714D02*
X19122571Y6313714D01*
X19122571Y5551714D01*
X17562285Y6313714D02*
X17925142Y6313714D01*
X17925142Y5551714D01*
X17308285Y5914571D02*
X17054285Y5914571D01*
X16945428Y6313714D02*
X17308285Y6313714D01*
X17308285Y5551714D01*
X16945428Y5551714D01*
X16618857Y6313714D02*
X16618857Y5551714D01*
X16437428Y5551714D01*
X16328571Y5588000D01*
X16256000Y5660571D01*
X16219714Y5733142D01*
X16183428Y5878285D01*
X16183428Y5987142D01*
X16219714Y6132285D01*
X16256000Y6204857D01*
X16328571Y6277428D01*
X16437428Y6313714D01*
X16618857Y6313714D01*
X15385142Y5551714D02*
X15131142Y6313714D01*
X14877142Y5551714D01*
X14224000Y6313714D02*
X14659428Y6313714D01*
X14441714Y6313714D02*
X14441714Y5551714D01*
X14514285Y5660571D01*
X14586857Y5733142D01*
X14659428Y5769428D01*
X13897428Y6241142D02*
X13861142Y6277428D01*
X13897428Y6313714D01*
X13933714Y6277428D01*
X13897428Y6241142D01*
X13897428Y6313714D01*
X13389428Y5551714D02*
X13316857Y5551714D01*
X13244285Y5588000D01*
X13208000Y5624285D01*
X13171714Y5696857D01*
X13135428Y5842000D01*
X13135428Y6023428D01*
X13171714Y6168571D01*
X13208000Y6241142D01*
X13244285Y6277428D01*
X13316857Y6313714D01*
X13389428Y6313714D01*
X13462000Y6277428D01*
X13498285Y6241142D01*
X13534571Y6168571D01*
X13570857Y6023428D01*
X13570857Y5842000D01*
X13534571Y5696857D01*
X13498285Y5624285D01*
X13462000Y5588000D01*
X13389428Y5551714D01*
D11*
X-2540000Y-4572000D02*
X-2540000Y-5588000D01*
X2540000Y-4572000D02*
X2540000Y-5588000D01*
X-2540000Y5588000D02*
X-2540000Y4572000D01*
X-2032000Y5080000D02*
X-3048000Y5080000D01*
X2540000Y5588000D02*
X2540000Y4572000D01*
X3048000Y5080000D02*
X2032000Y5080000D01*
X6250000Y-6250000D02*
X-6250000Y-6250000D01*
X-6250000Y-6250000D02*
X-6250000Y6250000D01*
X-6250000Y6250000D02*
X6250000Y6250000D01*
X6250000Y6250000D02*
X6250000Y-6250000D01*
X11755000Y-1685000D02*
X11755000Y1000000D01*
X9835000Y-1685000D02*
X11755000Y-1685000D01*
X9835000Y1000000D02*
X9835000Y-1685000D01*
X-11755000Y1685000D02*
X-11755000Y-1000000D01*
X-9835000Y1685000D02*
X-11755000Y1685000D01*
X-9835000Y-1000000D02*
X-9835000Y1685000D01*
X5005000Y258578D02*
X5005000Y-258578D01*
X6425000Y258578D02*
X6425000Y-258578D01*
X-6425000Y258578D02*
X-6425000Y-258578D01*
X-5005000Y258578D02*
X-5005000Y-258578D01*
X13970000Y-4572000D02*
X13970000Y-5588000D01*
X19050000Y-4572000D02*
X19050000Y-5588000D01*
X13970000Y5588000D02*
X13970000Y4572000D01*
X14478000Y5080000D02*
X13462000Y5080000D01*
X19050000Y5588000D02*
X19050000Y4572000D01*
X19558000Y5080000D02*
X18542000Y5080000D01*
X22760000Y-6250000D02*
X10260000Y-6250000D01*
X10260000Y-6250000D02*
X10260000Y6250000D01*
X10260000Y6250000D02*
X22760000Y6250000D01*
X22760000Y6250000D02*
X22760000Y-6250000D01*
X-19050000Y-4572000D02*
X-19050000Y-5588000D01*
X-13970000Y-4572000D02*
X-13970000Y-5588000D01*
X-19050000Y5588000D02*
X-19050000Y4572000D01*
X-18542000Y5080000D02*
X-19558000Y5080000D01*
X-13970000Y5588000D02*
X-13970000Y4572000D01*
X-13462000Y5080000D02*
X-14478000Y5080000D01*
X-10260000Y-6250000D02*
X-22760000Y-6250000D01*
X-22760000Y-6250000D02*
X-22760000Y6250000D01*
X-22760000Y6250000D02*
X-10260000Y6250000D01*
X-10260000Y6250000D02*
X-10260000Y-6250000D01*
D12*
X7493095Y-5905380D02*
X7493095Y-4905380D01*
X7493095Y-5381571D02*
X8064523Y-5381571D01*
X8064523Y-5905380D02*
X8064523Y-4905380D01*
X8683571Y-5333952D02*
X8588333Y-5286333D01*
X8540714Y-5238714D01*
X8493095Y-5143476D01*
X8493095Y-5095857D01*
X8540714Y-5000619D01*
X8588333Y-4953000D01*
X8683571Y-4905380D01*
X8874047Y-4905380D01*
X8969285Y-4953000D01*
X9016904Y-5000619D01*
X9064523Y-5095857D01*
X9064523Y-5143476D01*
X9016904Y-5238714D01*
X8969285Y-5286333D01*
X8874047Y-5333952D01*
X8683571Y-5333952D01*
X8588333Y-5381571D01*
X8540714Y-5429190D01*
X8493095Y-5524428D01*
X8493095Y-5714904D01*
X8540714Y-5810142D01*
X8588333Y-5857761D01*
X8683571Y-5905380D01*
X8874047Y-5905380D01*
X8969285Y-5857761D01*
X9016904Y-5810142D01*
X9064523Y-5714904D01*
X9064523Y-5524428D01*
X9016904Y-5429190D01*
X8969285Y-5381571D01*
X8874047Y-5333952D01*
X7493095Y4000619D02*
X7493095Y5000619D01*
X7493095Y4524428D02*
X8064523Y4524428D01*
X8064523Y4000619D02*
X8064523Y5000619D01*
X8445476Y5000619D02*
X9112142Y5000619D01*
X8683571Y4000619D01*
X-9016904Y-5905380D02*
X-9016904Y-4905380D01*
X-9016904Y-5381571D02*
X-8445476Y-5381571D01*
X-8445476Y-5905380D02*
X-8445476Y-4905380D01*
X-7540714Y-4905380D02*
X-7731190Y-4905380D01*
X-7826428Y-4953000D01*
X-7874047Y-5000619D01*
X-7969285Y-5143476D01*
X-8016904Y-5333952D01*
X-8016904Y-5714904D01*
X-7969285Y-5810142D01*
X-7921666Y-5857761D01*
X-7826428Y-5905380D01*
X-7635952Y-5905380D01*
X-7540714Y-5857761D01*
X-7493095Y-5810142D01*
X-7445476Y-5714904D01*
X-7445476Y-5476809D01*
X-7493095Y-5381571D01*
X-7540714Y-5333952D01*
X-7635952Y-5286333D01*
X-7826428Y-5286333D01*
X-7921666Y-5333952D01*
X-7969285Y-5381571D01*
X-8016904Y-5476809D01*
X-9016904Y4000619D02*
X-9016904Y5000619D01*
X-9016904Y4524428D02*
X-8445476Y4524428D01*
X-8445476Y4000619D02*
X-8445476Y5000619D01*
X-7493095Y5000619D02*
X-7969285Y5000619D01*
X-8016904Y4524428D01*
X-7969285Y4572047D01*
X-7874047Y4619666D01*
X-7635952Y4619666D01*
X-7540714Y4572047D01*
X-7493095Y4524428D01*
X-7445476Y4429190D01*
X-7445476Y4191095D01*
X-7493095Y4095857D01*
X-7540714Y4048238D01*
X-7635952Y4000619D01*
X-7874047Y4000619D01*
X-7969285Y4048238D01*
X-8016904Y4095857D01*
X-1047619Y-761904D02*
X-238095Y-761904D01*
X-142857Y-714285D01*
X-95238Y-666666D01*
X-47619Y-571428D01*
X-47619Y-380952D01*
X-95238Y-285714D01*
X-142857Y-238095D01*
X-238095Y-190476D01*
X-1047619Y-190476D01*
X-952380Y238095D02*
X-1000000Y285714D01*
X-1047619Y380952D01*
X-1047619Y619047D01*
X-1000000Y714285D01*
X-952380Y761904D01*
X-857142Y809523D01*
X-761904Y809523D01*
X-619047Y761904D01*
X-47619Y190476D01*
X-47619Y809523D01*
X23050595Y5254619D02*
X23050595Y6254619D01*
X23050595Y5778428D02*
X23622023Y5778428D01*
X23622023Y5254619D02*
X23622023Y6254619D01*
X24622023Y5254619D02*
X24050595Y5254619D01*
X24336309Y5254619D02*
X24336309Y6254619D01*
X24241071Y6111761D01*
X24145833Y6016523D01*
X24050595Y5968904D01*
X23050595Y-5159380D02*
X23050595Y-4159380D01*
X23050595Y-4635571D02*
X23622023Y-4635571D01*
X23622023Y-5159380D02*
X23622023Y-4159380D01*
X24050595Y-4254619D02*
X24098214Y-4207000D01*
X24193452Y-4159380D01*
X24431547Y-4159380D01*
X24526785Y-4207000D01*
X24574404Y-4254619D01*
X24622023Y-4349857D01*
X24622023Y-4445095D01*
X24574404Y-4587952D01*
X24002976Y-5159380D01*
X24622023Y-5159380D01*
X-24574404Y5254619D02*
X-24574404Y6254619D01*
X-24574404Y5778428D02*
X-24002976Y5778428D01*
X-24002976Y5254619D02*
X-24002976Y6254619D01*
X-23622023Y6254619D02*
X-23002976Y6254619D01*
X-23336309Y5873666D01*
X-23193452Y5873666D01*
X-23098214Y5826047D01*
X-23050595Y5778428D01*
X-23002976Y5683190D01*
X-23002976Y5445095D01*
X-23050595Y5349857D01*
X-23098214Y5302238D01*
X-23193452Y5254619D01*
X-23479166Y5254619D01*
X-23574404Y5302238D01*
X-23622023Y5349857D01*
X-24574404Y-5159380D02*
X-24574404Y-4159380D01*
X-24574404Y-4635571D02*
X-24002976Y-4635571D01*
X-24002976Y-5159380D02*
X-24002976Y-4159380D01*
X-23098214Y-4492714D02*
X-23098214Y-5159380D01*
X-23336309Y-4111761D02*
X-23574404Y-4826047D01*
X-22955357Y-4826047D01*
X15462380Y-761904D02*
X16271904Y-761904D01*
X16367142Y-714285D01*
X16414761Y-666666D01*
X16462380Y-571428D01*
X16462380Y-380952D01*
X16414761Y-285714D01*
X16367142Y-238095D01*
X16271904Y-190476D01*
X15462380Y-190476D01*
X16462380Y809523D02*
X16462380Y238095D01*
X16462380Y523809D02*
X15462380Y523809D01*
X15605238Y428571D01*
X15700476Y333333D01*
X15748095Y238095D01*
X-17557619Y-761904D02*
X-16748095Y-761904D01*
X-16652857Y-714285D01*
X-16605238Y-666666D01*
X-16557619Y-571428D01*
X-16557619Y-380952D01*
X-16605238Y-285714D01*
X-16652857Y-238095D01*
X-16748095Y-190476D01*
X-17557619Y-190476D01*
X-17557619Y190476D02*
X-17557619Y809523D01*
X-17176666Y476190D01*
X-17176666Y619047D01*
X-17129047Y714285D01*
X-17081428Y761904D01*
X-16986190Y809523D01*
X-16748095Y809523D01*
X-16652857Y761904D01*
X-16605238Y714285D01*
X-16557619Y619047D01*
X-16557619Y333333D01*
X-16605238Y238095D01*
X-16652857Y190476D01*
M02*
