M48
; DRILL file {KiCad (5.1.4)-1} date 10/25/2019 10:43:14 PM
; FORMAT={2:4/ absolute / inch / suppress leading zeros}
; #@! TF.CreationDate,2019-10-25T22:43:14-07:00
; #@! TF.GenerationSoftware,Kicad,Pcbnew,(5.1.4)-1
FMAT,2
INCH,TZ
T1C0.0157
T2C0.0240
T3C0.0606
T4C0.0650
T5C0.3543
%
G90
G05
T1
X-4270Y-2320
X-4200Y2300
X-2300Y2300
X-2300Y-2300
X-2158Y999
X-2095Y-133
X2245Y-399
X2300Y2300
X2300Y-2300
X2550Y-1400
X3853Y1006
X4200Y2300
X4200Y-2300
T2
X-3500Y750
X-3500Y250
X-3500Y-250
X-3500Y-750
X-3000Y750
X-3000Y250
X-3000Y-250
X-3000Y-750
X3000Y750
X3000Y250
X3000Y-250
X3000Y-750
X3500Y750
X3500Y250
X3500Y-250
X3500Y-750
T3
X4759Y1741
X4759Y-1741
X8241Y1741
X8241Y-1741
X-1741Y1741
X-1741Y-1741
X1741Y1741
X1741Y-1741
X-8241Y1741
X-8241Y-1741
X-4759Y1741
X-4759Y-1741
T4
X-9375Y-2050
X-3250Y1950
X3250Y1950
X3250Y-1950
X9375Y2050
X-9375Y2050
X-3250Y-1950
X9375Y-2050
T5
X6500Y0
X0Y0
X-6500Y0
T0
M30
